<svg width="370" height="57" viewBox="0 0 370 57" fill="none" xmlns="http://www.w3.org/2000/svg">
<g clip-path="url(#clip0_294_5587)">
<path d="M223.619 23.8202H226.859V40.1902C231.189 38.9402 235.769 35.9602 240.209 31.0102L240.239 35.4002C236.139 39.3202 232.259 42.3002 225.599 44.0202C225.109 44.1502 224.349 44.3402 223.619 44.3802V23.8202Z" fill="white"/>
<path d="M315.489 33.9002H321.709V40.2202C321.709 41.7002 321.589 41.5902 318.159 41.5902V44.6102C323.859 44.6102 324.529 43.8002 324.529 39.6802V23.9902H315.489V33.9002ZM318.309 26.5102H321.699V27.8802H318.309V26.5102ZM318.309 30.0602H321.699V31.5202H318.309V30.0602Z" fill="white"/>
<path d="M307.819 44.6002V33.8902H314.029V23.9902H304.989V44.6002H307.819ZM307.819 26.5102H311.209V27.8802H307.819V26.5102ZM307.819 30.0602H311.209V31.5202H307.819V30.0602Z" fill="white"/>
<path d="M139.769 32.4202H124.179V35.6002H139.769V32.4202Z" fill="white"/>
<path d="M56.8991 27.7402C58.1191 25.5802 58.7591 23.4102 58.7591 23.4102H55.9691C55.9691 23.4102 55.3291 25.5802 54.1091 27.7402H52.4691V23.4302H49.6291V27.7402H47.9891C46.7691 25.5802 46.1291 23.4102 46.1291 23.4102H43.3391C43.3391 23.4102 43.9791 25.5802 45.1991 27.7402H41.2891V44.6002H44.1791V30.5602H57.9791V40.2902C57.9791 41.7502 57.6791 41.6802 55.4091 41.6802V44.6002C60.5691 44.4602 60.8691 43.8202 60.8691 39.7002V27.7302H56.8891L56.8991 27.7402ZM56.2191 32.2502H45.9291V40.3102H56.2191V32.2502ZM53.4891 37.7902H48.6591V34.7602H53.4891V37.7902Z" fill="white"/>
<path d="M76.2391 39.2402H83.4291V36.7002H74.9191V35.3602H83.4291V32.8902H74.9191V31.5202H82.7391V29.1202H74.9191V27.7502H83.4291V25.2102H79.1491C79.5691 24.7402 79.9391 24.1102 80.2091 23.4302H77.1691C76.6291 24.3002 76.3691 24.6502 75.8091 25.2102H71.1991C70.6391 24.6502 70.3791 24.3002 69.8391 23.4302H66.7991C67.0591 24.1202 67.4291 24.7402 67.8591 25.2102H63.5691V27.7502H72.0791V29.1202H64.2491V31.5202H72.0791V32.8902H63.5691V35.3602H72.0791V36.7002H63.5691V39.2402H70.7591C69.4891 40.2002 66.9491 41.4402 63.5691 41.8902V44.6102C63.9191 44.5902 64.2191 44.5402 64.2191 44.5402C69.4891 43.8102 72.2591 41.6002 73.5091 40.0702C74.7591 41.6002 77.5191 43.8102 82.7891 44.5402C82.7891 44.5402 83.0891 44.5902 83.4391 44.6102V41.8902C80.0591 41.4402 77.5191 40.2002 76.2491 39.2402H76.2391Z" fill="white"/>
<path d="M145.009 43.9502C154.669 42.1602 159.369 36.4602 161.919 29.2102H158.459C156.429 35.4902 151.579 40.1902 142.499 40.9702V44.2402C143.409 44.1702 144.209 44.1002 145.019 43.9502H145.009Z" fill="white"/>
<path d="M161.909 23.8102H160.049V27.8502H161.909V23.8102Z" fill="white"/>
<path d="M158.679 23.8102H156.819V27.8502H158.679V23.8102Z" fill="white"/>
<path d="M142.489 23.8102V26.8602C142.489 26.8602 146.619 27.5102 151.389 29.0602V26.0102C146.619 24.4602 142.489 23.8102 142.489 23.8102Z" fill="white"/>
<path d="M142.489 29.0602V32.1102C142.489 32.1102 146.619 32.7602 151.389 34.3102V31.2602C146.619 29.7102 142.489 29.0602 142.489 29.0602Z" fill="white"/>
<path d="M262.729 43.9502C272.379 42.1602 277.089 36.4602 279.639 29.2102H276.179C274.149 35.4902 269.299 40.1902 260.219 40.9702V44.2402C261.129 44.1702 261.929 44.1002 262.739 43.9502H262.729Z" fill="white"/>
<path d="M279.629 23.8102H277.769V27.8502H279.629V23.8102Z" fill="white"/>
<path d="M276.399 23.8102H274.539V27.8502H276.399V23.8102Z" fill="white"/>
<path d="M260.209 23.8102V26.8602C260.209 26.8602 264.339 27.5102 269.109 29.0602V26.0102C264.339 24.4602 260.209 23.8102 260.209 23.8102Z" fill="white"/>
<path d="M260.209 29.0602V32.1102C260.209 32.1102 264.339 32.7602 269.109 34.3102V31.2602C264.339 29.7102 260.209 29.0602 260.209 29.0602Z" fill="white"/>
<path d="M177.359 29.2002C176.869 36.0902 174.109 39.7002 166.169 41.1502V44.1602C167.419 43.9302 168.249 43.7102 168.249 43.7102C176.059 41.7002 179.699 37.5602 180.479 29.2002H177.359Z" fill="white"/>
<path d="M173.949 35.1502H171.009C171.009 35.1502 170.609 32.1802 169.479 29.2102H172.419C173.629 32.1802 173.949 35.1502 173.949 35.1502Z" fill="white"/>
<path d="M169.099 35.1502H166.159C166.159 35.1502 165.759 32.1802 164.629 29.2102H167.569C168.779 32.1802 169.099 35.1502 169.099 35.1502Z" fill="white"/>
<path d="M254.539 29.2002C254.039 36.0902 251.289 39.7002 243.349 41.1502V44.1602C244.599 43.9302 245.429 43.7102 245.429 43.7102C253.239 41.7002 256.879 37.5602 257.659 29.2002H254.539Z" fill="white"/>
<path d="M251.139 35.1502H248.199C248.199 35.1502 247.799 32.1802 246.669 29.2102H249.609C250.819 32.1802 251.139 35.1502 251.139 35.1502Z" fill="white"/>
<path d="M246.289 35.1502H243.349C243.349 35.1502 242.949 32.1802 241.819 29.2102H244.759C245.969 32.1802 246.289 35.1502 246.289 35.1502Z" fill="white"/>
<path d="M86.1291 41.0302C90.2191 41.0302 99.9391 43.2202 102.889 44.6002V41.3502C98.6791 39.5902 90.8891 37.9702 86.1291 37.9702V41.0302Z" fill="white"/>
<path d="M87.4991 33.9702C91.4691 34.2102 98.2391 35.7002 101.519 36.9302V33.7002C97.5791 32.2302 91.8291 31.0602 87.4991 30.8902V33.9702Z" fill="white"/>
<path d="M101.519 29.8502V26.6202C97.5791 25.1502 91.8291 23.9802 87.4991 23.8102V26.8802C91.4691 27.1202 98.2391 28.6202 101.519 29.8402V29.8502Z" fill="white"/>
<path d="M118.109 40.1302L119.279 29.2002L106.969 29.1902V32.2102H115.809L114.959 40.1302H105.609V43.1402H122.579V40.1302H118.109Z" fill="white"/>
<path d="M302.249 26.6002V24.2002H293.699V23.4202H290.879V24.2002H282.329V26.6002H290.879V27.7302H283.149V36.7202H295.899V37.8502H282.319V40.3902H295.859C295.799 41.5202 295.769 41.8402 291.889 41.8402V44.6002C297.639 44.6002 298.569 43.7802 298.709 40.3902H302.259V37.8502H298.729V36.7202H301.339V27.7302H293.709V26.6002H302.259H302.249ZM290.879 34.5302H285.979V33.1702H290.879V34.5302ZM290.879 31.2802H285.979V29.9102H290.879V31.2802ZM298.509 34.5302H293.699V33.1702H298.509V34.5302ZM298.509 29.9202V31.2902H293.699V29.9202H298.509Z" fill="white"/>
<path d="M343.009 26.2302C343.969 25.3602 344.509 24.5002 345.089 23.4302H342.269C341.739 24.3902 341.129 25.1902 339.969 26.2302H338.609L337.169 23.4302H334.379L335.819 26.2302H333.749L332.309 23.4302H329.519L330.959 26.2302H327.259V31.6702H329.969V28.9602H344.289V31.6402H347.159V26.2302H342.999H343.009Z" fill="white"/>
<path d="M338.719 38.2002H347.169V35.4002H338.719V35.0902C341.049 33.8102 343.069 32.6302 343.069 32.6302V30.1902H331.359V32.7802H338.699L335.879 34.2302V35.4102H327.269V38.2102H335.879V40.2302C335.879 41.7102 335.919 41.6002 332.509 41.6002V44.6202C338.479 44.6202 338.719 43.7502 338.719 39.6302V38.2002Z" fill="white"/>
<path d="M357.599 35.8002C358.279 35.3802 358.899 34.9102 359.459 34.3902C360.149 36.0302 361.039 37.5902 362.069 38.9702C360.839 40.2002 359.339 41.2302 357.579 41.8102V44.6002C359.649 44.2602 361.829 42.8902 363.739 40.9202C365.659 42.8902 367.829 44.2602 369.899 44.6002V41.8102C368.139 41.2302 366.639 40.2002 365.409 38.9702C366.439 37.5902 367.329 36.0302 368.019 34.3902C368.589 34.9102 369.209 35.3902 369.899 35.8102V32.3302C369.119 32.0102 368.039 30.6602 367.859 29.7502H364.919C365.289 30.8302 365.859 31.8702 366.589 32.8302H365.669C365.309 34.1402 364.649 35.5802 363.729 36.9402C362.799 35.5802 362.149 34.1402 361.789 32.8302H360.869C361.599 31.8702 362.169 30.8302 362.539 29.7502H359.599C359.429 30.6602 358.359 32.0102 357.579 32.3302C356.619 31.5202 356.079 30.2402 355.729 28.5602H369.889V25.7402H365.099V23.4102H362.319V25.7402H355.489V23.4102H352.669V25.7402H349.889V28.5602H352.379C351.789 31.8002 350.919 33.1502 349.889 34.6102V39.0402C351.009 37.6302 352.059 36.1002 352.669 34.3202V44.6002H355.489V33.4302C355.969 34.1602 356.519 34.8602 357.579 35.8002H357.599Z" fill="white"/>
<path d="M289.199 41.4102H286.379C286.849 42.6402 287.309 44.0502 287.409 44.6002H290.199C290.089 43.9102 289.609 42.5202 289.189 41.4102H289.199Z" fill="white"/>
<path d="M212.219 26.9702C212.259 25.9802 212.279 24.9302 212.279 23.8102H209.079C209.079 24.9402 209.059 25.9902 209.029 26.9702H202.819V29.9902H208.839C208.239 36.3702 206.449 39.0502 202.819 40.9002V44.2602C203.639 43.9102 204.389 43.5802 205.089 43.1502C209.039 40.7202 211.319 37.6602 212.029 29.9902H217.419C217.419 33.2202 217.229 37.1002 216.589 39.2202C216.279 40.2402 215.089 41.0202 211.559 40.8902V44.2502C218.769 44.2502 219.329 41.5802 219.759 39.9402C220.599 36.7502 220.739 31.1802 220.739 26.9702H212.219Z" fill="white"/>
<path d="M191.339 25.8102C191.629 25.1502 191.889 24.4902 192.099 23.8202H188.679C187.329 27.3502 186.089 29.1302 183.029 30.8902V34.3202C185.809 33.2502 188.039 31.2302 189.679 28.8302H196.729C194.849 34.4202 192.039 38.6302 183.179 40.9802V44.2702C183.699 44.2102 184.579 43.9202 186.299 43.4002C195.229 40.6902 198.459 34.3802 200.169 29.0002C200.469 28.0602 200.869 26.5002 200.989 25.8102H191.339Z" fill="white"/>
<path d="M129.341 17.38V6.27996H139.771V17.38H129.341ZM131.501 10.82V9.83996H133.751V9.35996H131.731V8.41996H133.751V8.00996H135.211V8.41996H137.301V9.35996H135.211V9.83996H137.531V10.82H131.501ZM135.901 12.1H133.141V12.71H135.901V12.1ZM133.751 15.62V14.41C132.741 15.25 131.481 15.62 131.481 15.62V14.44C132.231 14.21 132.621 14.03 133.401 13.49H131.721V11.32H137.291V13.49H136.721L137.401 13.93C137.251 14.12 137.021 14.36 137.021 14.36C137.021 14.36 137.291 14.46 137.521 14.5V15.62C136.821 15.52 135.821 15.01 135.201 14.57V15.62H133.741H133.751ZM138.321 15.93V7.71996H130.791V15.93H138.321ZM135.311 13.5C135.561 13.72 135.891 13.88 136.121 14C136.311 13.79 136.421 13.68 136.531 13.5H135.311Z" fill="white"/>
<path d="M89.2412 17.38C87.0612 16.26 84.4013 14.66 83.4813 12.25C82.5713 14.66 79.9413 16.26 77.7213 17.38V15.41C81.4613 13.8 82.6413 11.21 82.6413 9.05996V5.95996H84.3213V9.05996C84.3213 11.18 85.5012 13.8 89.2412 15.41V17.38Z" fill="white"/>
<path d="M65.7313 15.48V17.38C67.5513 16.15 68.3512 14.76 68.3512 14.76V12.79C68.3512 12.79 66.9713 14.62 65.7313 15.49V15.48Z" fill="white"/>
<path d="M65.7313 9.19996C66.7913 9.43996 67.6012 9.81996 68.3512 10.23V11.75C67.4812 11.27 66.7513 10.95 65.7313 10.72V9.19996Z" fill="white"/>
<path d="M65.7313 8.13996V6.62996C66.7913 6.86996 67.6012 7.24996 68.3512 7.65996V9.16996C67.4812 8.68996 66.7513 8.36996 65.7313 8.13996Z" fill="white"/>
<path d="M76.6012 17.37C76.3512 16.2 75.7713 14.5 75.1813 13.21H73.6012C73.8312 13.71 74.0613 14.28 74.2812 14.86C73.3213 15.18 72.5413 15.35 71.6113 15.54C72.0213 14.66 72.3713 13.6 72.6913 12.36H76.1613V10.84H73.3512V9.15996H76.1613V7.64996H73.3512V5.95996H71.7712V7.64996H69.0612V9.15996H71.7712V10.84H69.0612V12.36H71.1113C70.8613 13.45 70.4413 14.69 69.9413 15.77C69.6513 15.81 69.3712 15.84 69.0612 15.87V17.37C69.3412 17.36 69.5912 17.33 69.5912 17.33C71.5912 17.15 73.1413 16.79 74.7513 16.23C74.8713 16.65 74.9713 17.04 75.0312 17.37H76.6113H76.6012Z" fill="white"/>
<path d="M101.311 8.28996C101.971 7.12996 102.311 5.95996 102.311 5.95996H100.811C100.811 5.95996 100.471 7.12996 99.8112 8.28996H98.9313V5.96996H97.4013V8.28996H96.5212C95.8612 7.12996 95.5212 5.95996 95.5212 5.95996H94.0212C94.0212 5.95996 94.3712 7.12996 95.0212 8.28996H92.9113V17.37H94.4713V9.80996H101.901V15.05C101.901 15.83 101.741 15.8 100.521 15.8V17.37C103.301 17.29 103.461 16.95 103.461 14.73V8.28996H101.311ZM100.951 10.72H95.4013V15.06H100.951V10.72ZM99.4813 13.71H96.8812V12.08H99.4813V13.71Z" fill="white"/>
<path d="M115.611 14.49V13.12H111.031V12.4H115.611V11.07H111.031V10.33H115.241V9.03996H111.031V8.29996H115.611V6.92996H113.301C113.531 6.67996 113.731 6.33996 113.871 5.96996H112.241C111.951 6.43996 111.811 6.62996 111.501 6.92996H109.011C108.701 6.62996 108.571 6.43996 108.281 5.96996H106.641C106.781 6.33996 106.981 6.67996 107.211 6.92996H104.901V8.29996H109.481V9.03996H105.261V10.33H109.481V11.07H104.901V12.4H109.481V13.12H104.901V14.49H108.771C108.091 15.01 106.721 15.68 104.901 15.92V17.38C105.091 17.38 105.251 17.34 105.251 17.34C108.091 16.95 109.581 15.76 110.251 14.93C110.921 15.76 112.411 16.94 115.251 17.34C115.251 17.34 115.411 17.37 115.601 17.38V15.92C113.781 15.68 112.411 15.01 111.731 14.49H115.611Z" fill="white"/>
<path d="M125.611 7.47996C126.131 7.00996 126.421 6.54996 126.731 5.96996H125.211C124.931 6.48996 124.601 6.91996 123.981 7.47996H123.251L122.481 5.96996H120.981L121.761 7.47996H120.641L119.871 5.96996H118.371L119.141 7.47996H117.151V10.41H118.611V8.94996H126.321V10.4H127.871V7.47996H125.611Z" fill="white"/>
<path d="M123.311 13.93H127.861V12.42H123.311V12.25C124.571 11.56 125.651 10.92 125.651 10.92V9.60996H119.341V11H123.291L121.771 11.78V12.42H117.131V13.93H121.771V15.02C121.771 15.82 121.791 15.76 119.961 15.76V17.39C123.181 17.39 123.301 16.92 123.301 14.7V13.94L123.311 13.93Z" fill="white"/>
<path d="M49.7612 7.47996C50.2812 7.00996 50.5713 6.54996 50.8813 5.96996H49.3613C49.0713 6.48996 48.7513 6.91996 48.1213 7.47996H47.3913L46.6213 5.96996H45.1213L45.8913 7.47996H44.7713L44.0013 5.96996H42.5013L43.2713 7.47996H41.2812V10.41H42.7413V8.94996H50.4513V10.4H52.0013V7.47996H49.7612Z" fill="white"/>
<path d="M47.4513 13.93H52.0013V12.42H47.4513V12.25C48.7113 11.56 49.7913 10.92 49.7913 10.92V9.60996H43.4913V11H47.4412L45.9212 11.78V12.42H41.2812V13.93H45.9212V15.02C45.9212 15.82 45.9413 15.76 44.1113 15.76V17.39C47.3313 17.39 47.4613 16.92 47.4613 14.7V13.94L47.4513 13.93Z" fill="white"/>
<path d="M57.6213 12.64C57.9913 12.42 58.3213 12.16 58.6213 11.88C58.9913 12.76 59.4712 13.6 60.0312 14.35C59.3712 15.01 58.5613 15.57 57.6113 15.88V17.38C58.7213 17.2 59.9013 16.46 60.9313 15.4C61.9613 16.46 63.1413 17.2 64.2513 17.38V15.88C63.3013 15.57 62.5013 15.01 61.8313 14.35C62.3913 13.61 62.8613 12.77 63.2313 11.88C63.5413 12.16 63.8712 12.42 64.2412 12.65V10.77C63.8212 10.6 63.2413 9.86996 63.1413 9.37996H61.5613C61.7613 9.95996 62.0713 10.52 62.4613 11.04H61.9713C61.7813 11.74 61.4212 12.52 60.9212 13.25C60.4212 12.52 60.0713 11.74 59.8713 11.04H59.3813C59.7713 10.52 60.0812 9.95996 60.2812 9.37996H58.7013C58.6113 9.86996 58.0313 10.6 57.6113 10.77C57.0913 10.33 56.8013 9.63996 56.6113 8.73996H64.2412V7.21996H61.6613V5.95996H60.1613V7.21996H56.4813V5.95996H54.9613V7.21996H53.4713V8.73996H54.8113C54.4913 10.49 54.0213 11.21 53.4713 12V14.38C54.0713 13.62 54.6413 12.8 54.9613 11.84V17.38H56.4813V11.36C56.7413 11.75 57.0312 12.13 57.6012 12.64H57.6213Z" fill="white"/>
<path d="M2.31828 53.3902L1.46828 52.8702C0.938281 52.5402 0.558281 52.2202 0.328281 51.9102C0.0982812 51.5902 -0.0117188 51.2302 -0.0117188 50.8202C-0.0117188 50.2002 0.198281 49.7002 0.628281 49.3202C1.05828 48.9402 1.60828 48.7402 2.29828 48.7402C2.98828 48.7402 3.54828 48.9202 4.09828 49.2902V50.5702C3.53828 50.0302 2.92828 49.7602 2.27828 49.7602C1.91828 49.7602 1.60828 49.8502 1.37828 50.0102C1.13828 50.1802 1.02828 50.4002 1.02828 50.6602C1.02828 50.8902 1.11828 51.1102 1.28828 51.3202C1.45828 51.5202 1.73828 51.7402 2.11828 51.9602L2.96828 52.4702C3.91828 53.0402 4.38828 53.7702 4.38828 54.6502C4.38828 55.2802 4.17828 55.7902 3.75828 56.1802C3.33828 56.5702 2.79828 56.7702 2.11828 56.7702C1.34828 56.7702 0.648281 56.5302 0.00828125 56.0602V54.6302C0.608281 55.4002 1.30828 55.7902 2.10828 55.7902C2.45828 55.7902 2.74828 55.6902 2.98828 55.4902C3.21828 55.2902 3.33828 55.0502 3.33828 54.7502C3.33828 54.2702 2.99828 53.8202 2.30828 53.3902H2.31828Z" fill="white"/>
<path d="M11.6683 48.8302H12.7883V56.6702H11.6683V53.2602H7.25828V56.6702H6.13828V48.8302H7.25828V52.2202H11.6683V48.8302Z" fill="white"/>
<path d="M26.4983 56.6702H23.8483V48.8302H25.8983C26.5483 48.8302 27.0483 48.9202 27.4083 49.0902C27.7683 49.2602 28.0483 49.5002 28.2383 49.8102C28.4283 50.1102 28.5283 50.4702 28.5283 50.8702C28.5283 51.6402 28.1283 52.1902 27.3383 52.5202C27.9083 52.6302 28.3583 52.8602 28.6983 53.2302C29.0383 53.6002 29.2083 54.0302 29.2083 54.5302C29.2083 54.9302 29.1083 55.2902 28.8983 55.6002C28.6883 55.9102 28.3883 56.1702 27.9983 56.3702C27.5983 56.5702 27.0983 56.6602 26.5083 56.6602L26.4983 56.6702ZM25.9283 49.8302H24.9683V52.1802H25.7083C26.3083 52.1802 26.7283 52.0702 26.9783 51.8402C27.2283 51.6102 27.3583 51.3202 27.3583 50.9602C27.3583 50.2102 26.8783 49.8302 25.9283 49.8302ZM26.0083 53.1802H24.9683V55.6602H26.0683C26.6783 55.6602 27.0983 55.6102 27.3083 55.5202C27.5283 55.4202 27.6983 55.2802 27.8283 55.0702C27.9583 54.8702 28.0283 54.6502 28.0283 54.4202C28.0283 54.1902 27.9583 53.9602 27.8183 53.7702C27.6783 53.5702 27.4783 53.4302 27.2283 53.3302C26.9683 53.2302 26.5683 53.1802 26.0083 53.1802Z" fill="white"/>
<path d="M30.6483 48.8302H31.7683V56.6702H30.6483V48.8302Z" fill="white"/>
<path d="M14.2683 52.7502C14.2683 54.9602 16.0683 56.7702 18.2783 56.7702C20.4883 56.7702 22.2983 54.9702 22.2983 52.7502C22.2983 50.5302 20.4983 48.7402 18.2783 48.7402C16.0583 48.7402 14.2683 50.5402 14.2683 52.7502ZM15.3083 52.7502C15.3083 51.1102 16.6383 49.7802 18.2783 49.7802C19.9183 49.7802 21.2483 51.1102 21.2483 52.7502C21.2483 54.3902 19.9183 55.7202 18.2783 55.7202C16.6383 55.7202 15.3083 54.3902 15.3083 52.7502Z" fill="white"/>
<path d="M22.9502 28.4901C24.0702 30.0201 24.6402 31.7201 24.6402 33.6201C24.6402 34.1101 24.6002 34.5801 24.5302 35.0501C23.0902 32.0101 19.2902 29.8301 14.8102 29.8301C9.10016 29.8301 4.48016 33.3701 4.48016 37.7401C4.48016 42.1101 9.10016 45.6601 14.8102 45.6601H15.4302C19.0402 45.6601 22.1002 44.4801 24.6002 42.1201C27.1002 39.7601 28.3602 36.8701 28.3602 33.4501C28.3602 30.8801 27.8202 28.7901 26.7302 27.1701C25.6402 25.5601 24.6702 24.5901 22.7802 23.4701C21.0002 22.4201 16.2202 20.5901 15.2702 20.2401C14.4402 19.9301 13.9402 19.3301 13.5902 18.8701C12.8902 17.9601 12.5402 16.9301 12.5402 15.7901C12.5402 14.1801 13.1302 12.8601 14.3302 11.7701C15.5302 10.6801 17.0602 10.1301 18.8602 10.1301C20.7702 10.1301 22.9602 11.3101 25.7502 13.8301L26.5102 14.5201V10.5301C23.7502 8.08006 21.2802 6.93006 18.6302 6.93006C15.9802 6.93006 13.6802 7.81006 11.7902 9.54006C9.90016 11.2801 8.93016 13.4301 8.93016 15.9001C8.93016 16.1301 8.93016 16.3501 8.95016 16.5701C8.87016 16.4701 7.13016 14.5501 7.13016 11.6301C7.13016 9.23006 8.03016 7.21006 9.82016 5.58006C11.6202 3.95006 13.9702 3.21006 16.5202 3.16006C21.9002 3.05006 26.5102 7.63006 26.5102 7.63006V3.74006C25.6702 3.14006 21.8102 0.0200641 16.2302 6.41049e-05C12.7002 -0.00993589 9.68016 1.15006 7.17016 3.45006C4.66016 5.75006 3.41016 8.54006 3.41016 11.8101C3.41016 14.1701 3.92016 16.1001 4.96016 17.6001C5.99016 19.0901 7.24016 20.2501 8.72016 21.0501C10.2002 21.8601 12.6602 22.9201 16.1002 24.2401C19.5402 25.5601 21.8202 26.9701 22.9502 28.5001V28.4901Z" fill="white"/>
<path d="M370.05 18.1601H193V1.12012H370.05V18.1701V18.1601ZM194.05 17.1201H369V2.16012H194.05V17.1201Z" fill="white"/>
<path d="M201.83 6.07012H199.32V14.3901H198.28V5.03012H201.83V6.07012Z" fill="white"/>
<path d="M208.01 5.06012V5.73012H212.18V6.63012H202.75V5.73012H206.94V5.06012H208.02H208.01ZM210.47 13.5201C210.65 13.5201 210.72 13.4401 210.72 13.2601V10.6201H204.19V14.4601H203.13V9.80012H211.77V13.6401C211.77 13.8401 211.75 14.0101 211.64 14.1801C211.54 14.3401 211.39 14.4601 211.16 14.4601H209.54L209.38 13.5601H205.15V11.1501H209.79V13.5201H210.47ZM210.8 9.28012H204.13V7.05012H210.8V9.28012ZM205.16 7.79012V8.54012H209.78V7.79012H205.16ZM206.12 11.9101V12.7901H208.83V11.9101H206.12Z" fill="white"/>
<path d="M213.77 7.77012L213.06 7.05012C213.82 6.55012 214.34 5.90012 214.66 5.04012L215.6 5.20012C215.55 5.39012 215.49 5.55012 215.41 5.73012H217.72V6.60012H216.25C216.37 6.80012 216.48 7.00012 216.57 7.22012L215.57 7.62012C215.49 7.35012 215.31 6.84012 215.19 6.60012H214.91C214.58 7.04012 214.2 7.42012 213.77 7.77012ZM217.35 7.03012C218.05 6.44012 218.41 5.88012 218.75 5.04012L219.66 5.19012C219.6 5.38012 219.54 5.55012 219.46 5.73012H222.56V6.60012H220.59C220.72 6.82012 220.85 7.04012 220.97 7.27012L220.03 7.66012C219.89 7.30012 219.72 6.95012 219.55 6.60012H219C218.79 6.93012 218.57 7.20012 218.3 7.48012H218.38V7.97012H221.96V8.89012H218.38V9.54012H222.56V10.4501H220.75V11.1301H222.48V12.0201H220.75V13.3101C220.75 13.8401 220.75 14.4701 219.9 14.4701H218.03L217.87 13.4701H219.37C219.61 13.4701 219.67 13.3801 219.67 13.1201V12.0201H215.34C215.77 12.3001 216.51 13.0701 216.8 13.4901L216 14.1801C215.61 13.6501 215.06 13.0301 214.55 12.6201L215.22 12.0201H213.27V11.1301H219.67V10.4501H213.17V9.54012H217.33V8.89012H213.83V7.97012H217.33V7.48012H217.95L217.35 7.03012Z" fill="white"/>
<path d="M229.27 9.43012C229.17 9.60012 229.06 9.77012 228.95 9.94012L228.14 9.18012C228.28 8.98012 228.37 8.85012 228.49 8.64012H227.09C226.85 8.89012 226.59 9.13012 226.33 9.36012H228.08V10.2001C227.64 10.6201 227.32 10.8901 226.81 11.2201V11.4101C227.44 11.3301 228.07 11.2601 228.7 11.1601V12.0401C228.07 12.1601 227.44 12.2601 226.81 12.3501V13.7101C226.81 14.1101 226.54 14.4501 226.12 14.4501H224.63L224.44 13.4901H225.58C225.75 13.4901 225.84 13.4401 225.84 13.2601V12.4701C225.11 12.5601 224.37 12.6201 223.63 12.6801L223.55 11.7101C224.31 11.6701 225.08 11.6101 225.84 11.5201V10.8201H226.12C226.31 10.6901 226.68 10.3801 226.81 10.2001H225.24C224.82 10.4901 224.42 10.7401 223.97 10.9801L223.52 10.0901C224.36 9.68012 225.04 9.24012 225.76 8.64012H223.63V7.73012H225.47V6.79012H223.88V5.89012H225.47V5.09012H226.4V5.89012H227.56V6.63012C227.84 6.22012 228.03 5.83012 228.23 5.38012L229.12 5.78012C228.77 6.51012 228.41 7.09012 227.9 7.73012H228.56V8.53012C229.13 7.50012 229.44 6.20012 229.61 5.04012L230.6 5.14012C230.54 5.62012 230.47 6.10012 230.37 6.58012H232.94V7.62012H232.45C232.34 9.05012 232.09 10.5301 231.36 11.7801C231.88 12.4201 232.48 12.9601 233.11 13.4801L232.52 14.4501C231.82 13.9201 231.26 13.3701 230.73 12.6701C230.06 13.4401 229.37 13.9501 228.49 14.4501L227.83 13.4901C228.73 13.1001 229.54 12.5701 230.16 11.7901C229.74 11.0501 229.43 10.2701 229.27 9.43012ZM227.45 6.79012H226.4V7.73012H226.7C226.97 7.43012 227.22 7.12012 227.45 6.79012ZM231.46 7.62012H230.09C230.04 7.76012 230 7.90012 229.94 8.04012C230.04 9.02012 230.26 10.0001 230.74 10.8701C231.19 9.89012 231.39 8.69012 231.46 7.62012Z" fill="white"/>
<path d="M234.34 8.52012L234.26 7.58012C234.93 7.58012 235.59 7.56012 236.25 7.55012C236.44 7.28012 236.62 7.00012 236.78 6.71012H233.98V5.79012H238.2V5.07012H239.21V5.79012H243.39V6.71012H240.88C241.49 7.01012 242.49 7.72012 242.99 8.18012L242.17 8.88012C241.84 8.56012 241.6 8.38012 241.23 8.12012C238.93 8.30012 236.64 8.51012 234.34 8.52012ZM242.16 13.4701C242.16 14.1201 241.82 14.4901 241.16 14.4901H239.47L239.24 13.4701H240.84C241.08 13.4701 241.14 13.4601 241.14 13.2201V12.6701H236.22V14.4901H235.19V8.96012H242.16V13.4701ZM236.23 9.77012V10.4101H241.15V9.77012H236.23ZM236.23 11.2001V11.8601H241.15V11.2001H236.23ZM239.59 7.12012L240.38 6.71012H237.98C237.73 7.10012 237.69 7.17012 237.42 7.53012C238.32 7.53012 239.23 7.46012 240.13 7.43012C239.95 7.32012 239.77 7.22012 239.59 7.12012Z" fill="white"/>
<path d="M248.63 12.9501C249.52 12.9101 250.65 12.7901 251.33 12.1701C252.01 11.5501 252.26 10.5901 252.26 9.70012C252.26 8.75012 251.91 7.84012 251.06 7.32012C250.6 7.04012 250.16 6.96012 249.63 6.93012C249.48 8.50012 249.3 10.3901 248.54 11.8001C248.14 12.5601 247.53 13.2201 246.61 13.2201C245.18 13.2201 244.65 11.4801 244.65 10.3201C244.65 8.92012 245.21 7.64012 246.34 6.79012C247.23 6.13012 248.24 5.88012 249.34 5.88012C250.72 5.88012 251.99 6.28012 252.82 7.45012C253.32 8.15012 253.5 8.97012 253.5 9.83012C253.5 11.4201 252.87 12.8101 251.36 13.4901C250.54 13.8601 249.81 13.9701 248.92 14.0101L248.63 12.9501ZM246.44 8.21012C245.98 8.83012 245.75 9.71012 245.75 10.4701C245.75 11.0201 245.85 11.7001 246.34 12.0301C246.43 12.0901 246.55 12.1201 246.67 12.1201C247.4 12.1201 247.78 11.0301 247.94 10.4501C248.29 9.23012 248.41 8.24012 248.5 6.98012C247.64 7.13012 246.97 7.50012 246.44 8.21012Z" fill="white"/>
<path d="M255.13 10.5901L254.67 9.35012C255.54 8.13012 255.98 6.54012 256.21 5.07012L257.29 5.22012C257.11 6.03012 256.92 6.83012 256.67 7.62012V14.4601H255.68V9.84012C255.5 10.1101 255.34 10.3301 255.13 10.5901ZM258.63 10.2501L258.23 9.42012V13.1801H257.24V6.64012H258.23V7.28012C258.95 6.70012 259.53 5.92012 259.85 5.05012L260.85 5.24012C260.76 5.50012 260.67 5.70012 260.55 5.95012H264.14V6.83012H263.42C263.15 7.52012 262.66 8.15012 262.11 8.64012C262.84 9.03012 263.49 9.22012 264.31 9.36012L263.87 10.3101C262.9 10.1001 262.09 9.78012 261.24 9.27012C260.38 9.79012 259.6 10.0501 258.63 10.2501ZM259.44 7.52012C259.21 7.76012 259.04 7.91012 258.79 8.11012L258.23 7.54012V9.37012C259.1 9.23012 259.64 9.09012 260.43 8.67012C260.05 8.32012 259.73 7.96012 259.44 7.52012ZM258.91 14.4601L258.51 13.5601C260.36 13.4301 262.07 13.0101 263.46 11.7001L264.19 12.3101C262.73 13.6901 260.87 14.2901 258.91 14.4601ZM258.87 11.5301L258.52 10.7701C259.53 10.5701 260.5 10.3001 261.39 9.76012L262.07 10.3701C261.27 10.9401 259.84 11.3501 258.87 11.5301ZM258.95 12.9901L258.61 12.1301C259.93 11.9401 261.32 11.5601 262.41 10.7401L263.11 11.3301C261.97 12.2201 260.36 12.7701 258.95 12.9901ZM262.41 6.84012H260.02V6.86012C260.34 7.34012 260.81 7.78012 261.29 8.12012C261.69 7.79012 262.17 7.31012 262.41 6.84012Z" fill="white"/>
<path d="M272.96 9.22012C272.35 9.77012 271.17 10.5101 270.41 10.8201V10.9001H274.61V11.8801H270.41V13.6701C270.41 14.2701 269.87 14.5001 269.59 14.5001H267.63L267.44 13.4401H269.05C269.32 13.4401 269.33 13.3101 269.33 13.1201V11.8801H265.14V10.9001H269.33V10.1201H269.77C270.25 9.97012 270.87 9.67012 271.25 9.33012H266.8V8.39012H272.96V9.22012ZM266.12 5.47012L267.09 5.11012C267.39 5.54012 267.68 6.11012 267.84 6.61012L267.61 6.70012H269.61C269.41 6.23012 269.21 5.84012 268.93 5.41012L269.92 5.03012C270.18 5.43012 270.54 6.13012 270.68 6.59012L270.35 6.70012H271.97C272.24 6.17012 272.43 5.62012 272.63 5.06012L273.78 5.40012C273.56 5.90012 273.39 6.23012 273.12 6.70012H274.39V8.99012H273.38V7.65012H266.43V8.99012H265.42V6.70012H266.72C266.55 6.27012 266.34 5.86012 266.12 5.47012Z" fill="white"/>
<path d="M282.36 9.44012H276.31V8.46012H279.75V7.15012H275.58V6.15012H279.75V5.06012H280.76V6.15012H284.97V7.15012H280.76V8.46012H283.58V9.46012C282.91 10.5501 282.18 11.5101 281.18 12.3301C282.39 12.9601 283.59 13.2101 284.95 13.3001L284.55 14.4301C283.07 14.2001 281.5 13.7901 280.22 13.0101C278.93 13.7901 277.52 14.1901 276.06 14.4701L275.59 13.3401C276.87 13.1801 278.14 12.9301 279.29 12.3401C278.51 11.6901 277.98 11.0301 277.45 10.1701L278.29 9.64012C278.85 10.4901 279.43 11.1501 280.25 11.7501C281.13 11.0901 281.74 10.3401 282.36 9.44012Z" fill="white"/>
<path d="M287.12 7.79012H285.98V6.85012H287.12V5.11012H288.16V6.85012H288.99V7.79012H288.16V9.65012C288.41 9.55012 288.65 9.45012 288.9 9.34012L288.87 10.3501C288.62 10.4901 288.43 10.5801 288.16 10.6901V13.7101C288.16 14.1801 287.91 14.4901 287.42 14.4901H286.14L286.03 13.4601H286.87C287.09 13.4601 287.12 13.3801 287.12 13.1601V11.0801C286.73 11.2201 286.39 11.3301 285.98 11.4201L285.89 10.3201C286.31 10.2301 286.72 10.1301 287.12 10.0001V7.79012ZM294.76 10.9601V11.7201C294.49 12.2901 294.07 12.7401 293.58 13.1401C294.27 13.3701 294.79 13.4401 295.51 13.4601L295.05 14.4901C294.21 14.3401 293.4 14.1001 292.65 13.7101C291.96 14.0701 291.33 14.3001 290.58 14.4901L290.19 13.5001C290.77 13.4401 291.19 13.3501 291.73 13.1401C291.39 12.8901 291.19 12.6901 290.96 12.3401L291.77 11.9001C292 12.2501 292.27 12.4701 292.62 12.6801C293.07 12.3901 293.35 12.1501 293.67 11.7201H291.05C290.56 12.8301 290 13.6401 289.15 14.4901L288.42 13.8001C289.44 12.7601 290.15 11.7601 290.5 10.3201H289.08V9.48012H290.64C290.66 9.27012 290.67 9.06012 290.68 8.85012H289.29V8.01012H293.37C293.71 7.45012 293.99 6.86012 294.24 6.25012L295.18 6.61012C294.98 7.11012 294.74 7.55012 294.47 8.01012H295.16V8.85012H291.63C291.63 9.06012 291.63 9.27012 291.61 9.48012H295.36V10.3201H291.48C291.44 10.5401 291.38 10.7501 291.32 10.9601H294.76ZM292.1 6.52012C291.07 6.61012 290.07 6.65012 289.29 6.65012L288.98 5.70012C290.88 5.69012 292.99 5.66012 294.8 5.06012L295.18 5.98012C294.37 6.23012 293.2 6.42012 292.1 6.52012ZM290.89 7.79012L289.88 8.00012C289.78 7.65012 289.63 7.22012 289.48 6.89012L290.5 6.67012C290.65 7.03012 290.78 7.41012 290.89 7.79012ZM292.8 7.73012L291.78 7.93012C291.68 7.53012 291.57 7.15012 291.43 6.76012L292.48 6.56012C292.61 6.95012 292.73 7.33012 292.8 7.73012Z" fill="white"/>
<path d="M296.45 11.0001V10.0801H298.48V9.15012H296.4V8.24012H297.51C297.45 7.79012 297.36 7.23012 297.21 6.81012H296.6V5.90012H298.48V5.07012H299.44V5.90012H301.17V6.81012H300.7C300.58 7.34012 300.51 7.72012 300.34 8.24012H301.32V9.15012H299.44V10.0801H301.09V11.0001H299.63C299.99 11.4401 300.38 11.8401 300.86 12.1401L300.36 13.0401C300.07 12.7901 299.67 12.3201 299.44 11.9701V14.4801H298.48V12.0001C297.94 12.7101 297.43 13.2601 296.71 13.7901L296.16 12.8701C296.97 12.3201 297.62 11.8101 298.19 11.0001H296.45ZM298.12 6.82012C298.24 7.19012 298.38 7.86012 298.43 8.25012H299.44C299.56 7.85012 299.69 7.23012 299.75 6.82012H298.12ZM302.65 6.76012V8.28012H305.74V9.24012H304.76V14.4801H303.72V9.24012H302.65V9.51012C302.65 11.4401 302.47 12.8701 301.31 14.4801L300.34 13.8101C301.45 12.4801 301.65 11.2301 301.65 9.54012V5.82012C303 5.82012 304.01 5.62012 305.17 5.07012L305.74 6.01012C304.79 6.46012 303.69 6.72012 302.65 6.76012Z" fill="white"/>
<path d="M307.65 7.88012L306.8 7.38012C307.22 6.71012 307.49 5.98012 307.58 5.20012L308.56 5.32012C308.5 5.60012 308.44 5.88012 308.36 6.15012H309.17V5.08012H310.14V6.15012H312.26V7.09012H310.14V8.03012H312.43V8.99012H310.14V9.83012H312.17V13.0401C312.17 13.5501 312.02 13.7801 311.49 13.7801H310.59L310.41 12.7701H310.99C311.13 12.7701 311.21 12.6701 311.21 12.5501V10.7801H310.14V14.4801H309.17V10.7801H308.19V13.8301H307.21V9.83012H309.17V8.99012H306.83V8.03012H309.17V7.09012H308.04C307.92 7.38012 307.8 7.61012 307.65 7.88012ZM313.88 5.66012V12.1101H312.87V5.66012H313.88ZM315.79 5.09012V13.7101C315.79 14.2601 315.41 14.4801 314.91 14.4801H313.44L313.26 13.4001H314.47C314.66 13.4001 314.72 13.3401 314.72 13.1401V5.09012H315.79Z" fill="white"/>
<path d="M321.46 5.83012V5.09012H322.51V5.83012H326.51V6.75012H324.95V7.49012H326.57V8.31012H324.95V9.85012H320.26V8.31012H318.88V10.1301C318.88 11.5301 318.7 13.2101 317.93 14.4101L317.11 13.6301C317.41 13.1801 317.57 12.7701 317.67 12.2401C317.79 11.5601 317.86 10.8001 317.86 10.1101V5.83012H321.46ZM324.33 11.3001H319.11V10.4001H325.53V11.3001C325.12 12.0101 324.52 12.5401 323.83 12.9801C324.75 13.2501 325.66 13.3801 326.61 13.4701L326.15 14.4601C324.96 14.3301 323.81 14.0501 322.71 13.5701C321.51 14.0901 320.35 14.3501 319.05 14.4801L318.64 13.5501C319.66 13.4501 320.58 13.2801 321.56 12.9901C321.03 12.6701 320.54 12.3101 320.13 11.8401L320.95 11.3101C321.5 11.8601 322.01 12.2301 322.72 12.5601C323.38 12.2401 323.89 11.8901 324.33 11.3001ZM318.89 6.74012V7.48012H320.27V6.74012H318.89ZM321.24 6.74012V7.48012H323.99V6.74012H321.24ZM321.24 8.30012V9.04012H323.99V8.30012H321.24Z" fill="white"/>
<path d="M327.52 13.5001H330.03V5.19012H331.07V14.5401H327.52V13.5001Z" fill="white"/>
<path d="M336.97 7.63012H333.92V6.61012H335.82V5.09012H336.88V6.61012H338.63V7.63012H338.05C337.87 8.66012 337.63 9.68012 337.23 10.6401C337.72 11.2001 338.34 11.9501 338.69 12.6001L337.83 13.2701C337.49 12.7001 337.15 12.2101 336.74 11.6801C336.15 12.7401 335.4 13.5201 334.46 14.2801L333.74 13.3601C334.69 12.6501 335.42 11.8701 336 10.8101C335.39 10.1501 334.82 9.61012 334.1 9.07012L334.87 8.37012C335.43 8.82012 335.96 9.30012 336.46 9.82012C336.73 9.09012 336.87 8.39012 336.97 7.63012ZM340.85 11.5001L339.82 12.0001C339.51 11.1101 339.07 10.1401 338.55 9.35012L339.51 8.84012C340.07 9.67012 340.48 10.5601 340.85 11.5001ZM342.45 6.94012H343.29V8.01012H342.45V13.5601C342.45 14.3801 341.96 14.4701 341.26 14.4701H339.73L339.46 13.4401H341.03C341.33 13.4401 341.37 13.4201 341.37 13.2001V8.01012H338.94V6.94012H341.37V5.09012H342.45V6.94012Z" fill="white"/>
<path d="M349.03 11.3001C347.76 12.1201 346.18 12.6001 344.7 12.9101L344.4 12.0301C345.84 11.8501 347.27 11.4301 348.53 10.7001C348.43 10.6101 348.34 10.5401 348.23 10.4701C347.11 10.9701 346.02 11.2501 344.82 11.4601L344.52 10.6201C345.77 10.4101 347.01 10.1301 348.16 9.59012H345.01V7.60012C344.85 7.66012 344.7 7.72012 344.55 7.78012L344.14 6.90012C345.34 6.57012 346.33 6.01012 347.13 5.04012L348.2 5.26012C348.1 5.39012 348 5.52012 347.9 5.64012H351.37V6.44012C351.18 6.67012 350.96 6.87012 350.75 7.07012H353.06V9.59012H350.4C350.51 9.99012 350.64 10.3201 350.84 10.6801C351.39 10.3701 351.79 10.0901 352.23 9.64012L352.97 10.2201C352.45 10.6701 351.9 11.0301 351.31 11.3601C351.97 12.1801 352.92 12.7401 353.89 13.1201L353.23 14.1101C352.29 13.6301 351.54 13.0701 350.87 12.2601C350.25 11.5101 349.78 10.6301 349.61 9.67012C349.43 9.81012 349.26 9.92012 349.07 10.0301C350.03 10.7101 350.46 11.7001 350.46 12.8601C350.46 13.2301 350.42 13.9501 350.12 14.2101C349.85 14.4501 349.46 14.4801 349.11 14.4801H348.12L347.89 13.4901H348.85C349.37 13.4901 349.47 13.3601 349.47 12.8701C349.47 12.7001 349.45 12.5601 349.42 12.3901C347.92 13.3201 346.29 13.8501 344.58 14.2501L344.26 13.3601C345.92 13.0701 347.77 12.5501 349.2 11.6301C349.14 11.4901 349.11 11.4301 349.03 11.3001ZM345.99 7.86012V8.79012H348.5V7.86012H345.99ZM349.29 7.07012C349.52 6.87012 349.75 6.67012 349.94 6.44012H347.06C346.78 6.66012 346.39 6.89012 346.08 7.07012H349.29ZM349.45 7.86012V8.79012H352.07V7.86012H349.45Z" fill="white"/>
<path d="M354.68 7.91012V6.95012H356.07V5.09012H357.02V6.95012H358.08V7.91012H357.02V8.49012C357.4 9.21012 357.85 9.77012 358.41 10.3501L357.89 11.3201C357.45 10.7701 357.34 10.5601 357.02 9.94012V14.4801H356.07V9.84012C355.77 10.8001 355.51 11.3901 354.98 12.2401L354.6 10.8801C355.07 10.2001 355.42 9.51012 355.7 8.67012C355.81 8.35012 355.85 8.21012 355.94 7.91012H354.68ZM364.3 13.4801L363.8 14.4801C362.74 14.1301 361.84 13.7001 360.98 12.9601C360.17 13.6601 359.23 14.1001 358.24 14.4801L357.71 13.5501C358.66 13.2401 359.51 12.8701 360.28 12.2301C359.64 11.4401 359.26 10.6301 358.97 9.66012L359.9 9.39012C360.15 10.1901 360.48 10.8501 361.02 11.5001C361.56 10.8401 361.89 10.1501 362.17 9.35012L363.14 9.67012C362.8 10.6201 362.38 11.4401 361.73 12.2201C362.51 12.8701 363.33 13.2201 364.3 13.4801ZM358.61 9.60012L357.9 8.86012C358.64 8.44012 359.18 7.96012 359.66 7.25012L360.5 7.70012C360.01 8.45012 359.37 9.12012 358.61 9.60012ZM361.58 5.10012V6.07012H364.09V7.02012H358.14V6.07012H360.56V5.10012H361.58ZM363.63 9.61012C362.77 9.06012 362.23 8.53012 361.63 7.70012L362.47 7.21012C363.05 7.91012 363.52 8.30012 364.29 8.78012L363.63 9.61012Z" fill="white"/>
</g>
<defs>
<clipPath id="clip0_294_5587">
<rect width="369.91" height="56.76" fill="white"/>
</clipPath>
</defs>
</svg>
