<svg fill="none" height="37" viewBox="0 0 238 37" width="238" xmlns="http://www.w3.org/2000/svg" xmlns:xlink="http://www.w3.org/1999/xlink"><clipPath id="a"><path d="m0 0h238v37h-238z"/></clipPath><g clip-path="url(#a)" fill="#fff"><path d="m143.877 15.5275h2.085v10.6711c2.786-.8148 5.733-2.7574 8.589-5.9842l.02 2.8617c-2.638 2.5554-5.135 4.4979-9.42 5.6191-.315.0848-.804.2086-1.274.2347z"/><path d="m202.987 22.0983h4.002v4.1198c0 .9648-.078.8931-2.285.8931v1.9686c3.668 0 4.099-.528 4.099-3.2137v-10.2278h-5.816zm1.814-4.8173h2.181v.8931h-2.181zm0 2.3142h2.181v.9517h-2.181z"/><path d="m198.052 29.0733v-6.9815h3.995v-6.4535h-5.816v13.435zm0-11.7923h2.181v.8931h-2.181zm0 2.3142h2.181v.9517h-2.181z"/><path d="m89.9284 21.1336h-10.0306v2.0729h10.0306z"/><path d="m36.6099 18.0828c.7849-1.408 1.1967-2.8225 1.1967-2.8225h-1.7951s-.4118 1.4145-1.1967 2.8225h-1.0552v-2.8095h-1.8272v2.8095h-1.0552c-.785-1.408-1.1967-2.8225-1.1967-2.8225h-1.7951s.4118 1.4145 1.1967 2.8225h-2.5157v10.9905h1.8594v-9.1522h8.8789v6.3427c0 .9517-.193.9061-1.6535.9061v1.9034c3.32-.0912 3.513-.5084 3.513-3.1941v-7.8029h-2.5608zm-.4375 2.94h-6.6206v5.254h6.6206zm-1.7565 3.6113h-3.1076v-1.9752h3.1076z"/><path d="m49.0532 25.5793h4.6261v-1.6557h-5.4754v-.8735h5.4754v-1.6101h-5.4754v-.8931h5.0314v-1.5645h-5.0314v-.893h5.4754v-1.6558h-2.7538c.2703-.3064.5083-.717.682-1.1603h-1.9559c-.3474.5671-.5147.7953-.875 1.1603h-2.9661c-.3603-.365-.5276-.5932-.875-1.1603h-1.956c.1673.4498.4054.8539.682 1.1603h-2.7601v1.6558h5.4753v.893h-5.0378v1.5645h5.0378v.8931h-5.4753v1.6101h5.4753v.8735h-5.4753v1.6557h4.626c-.8171.6258-2.4514 1.4341-4.626 1.7275v1.773c.2251-.013.4182-.0456.4182-.0456 3.3907-.4758 5.1729-1.9165 5.9771-2.9138.8043.9973 2.5801 2.438 5.9708 2.9138 0 0 .193.0326.4182.0456v-1.773c-2.1747-.2934-3.8089-1.1017-4.626-1.7275z"/><path d="m93.2998 28.6496c6.2153-1.1668 9.2392-4.8825 10.8802-9.6085h-2.226c-1.307 4.0937-4.427 7.1575-10.2691 7.6659v2.1317c.5855-.0457 1.1002-.0913 1.6214-.1891z"/><path d="m104.173 15.521h-1.196v2.6335h1.196z"/><path d="m102.095 15.521h-1.197v2.6335h1.197z"/><path d="m91.6785 15.521v1.9882s2.6572.4237 5.7262 1.4341v-1.9882c-3.069-1.0104-5.7262-1.4341-5.7262-1.4341z"/><path d="m91.6785 18.9433v1.9882s2.6572.4237 5.7262 1.4341v-1.9882c-3.069-1.0104-5.7262-1.4341-5.7262-1.4341z"/><path d="m169.041 28.6496c6.209-1.1668 9.239-4.8825 10.88-9.6085h-2.226c-1.307 4.0937-4.427 7.1575-10.269 7.6659v2.1317c.585-.0457 1.1-.0913 1.621-.1891z"/><path d="m179.914 15.521h-1.196v2.6335h1.196z"/><path d="m177.836 15.521h-1.197v2.6335h1.197z"/><path d="m167.419 15.521v1.9882s2.658.4237 5.727 1.4341v-1.9882c-3.069-1.0104-5.727-1.4341-5.727-1.4341z"/><path d="m167.419 18.9433v1.9882s2.658.4237 5.727 1.4341v-1.9882c-3.069-1.0104-5.727-1.4341-5.727-1.4341z"/><path d="m114.114 19.0346c-.315 4.4913-2.091 6.8446-7.2 7.7898v1.9621c.804-.1499 1.338-.2933 1.338-.2933 5.025-1.3103 7.367-4.009 7.869-9.4586z"/><path d="m111.92 22.9132h-1.892s-.257-1.9361-.984-3.8721h1.891c.779 1.936.985 3.8721.985 3.8721z"/><path d="m108.799 22.9132h-1.891s-.258-1.9361-.985-3.8721h1.892c.778 1.936.984 3.8721.984 3.8721z"/><path d="m163.771 19.0346c-.321 4.4913-2.091 6.8446-7.199 7.7898v1.9621c.804-.1499 1.338-.2933 1.338-.2933 5.025-1.3103 7.367-4.009 7.869-9.4586z"/><path d="m161.584 22.9132h-1.892s-.257-1.9361-.984-3.8721h1.891c.779 1.936.985 3.8721.985 3.8721z"/><path d="m158.463 22.9132h-1.891s-.258-1.9361-.985-3.8721h1.892c.778 1.936.984 3.8721.984 3.8721z"/><path d="m55.4164 26.7462c2.6316 0 8.8854 1.4275 10.7834 2.3271v-2.1185c-2.7087-1.1473-7.7208-2.2034-10.7834-2.2034z"/><path d="m56.2979 22.144c2.5543.1564 6.9101 1.1277 9.0205 1.9295v-2.1055c-2.535-.9583-6.2346-1.721-9.0205-1.8318z"/><path d="m65.3184 19.4583v-2.1056c-2.535-.9582-6.2346-1.7209-9.0205-1.8317v2.0012c2.5543.1565 6.9101 1.1343 9.0205 1.9296z"/><path d="m75.9924 26.1595.7528-7.1249-7.9203-.0066v1.9687h5.6877l-.5469 5.1628h-6.0158v1.9621h10.9185v-1.9621z"/><path d="m194.468 17.3397v-1.5645h-5.501v-.5084h-1.814v.5084h-5.502v1.5645h5.502v.7366h-4.974v5.8603h8.203v.7366h-8.737v1.6558h8.712c-.039.7366-.058.9452-2.555.9452v1.7991c3.7 0 4.298-.5345 4.388-2.7443h2.284v-1.6558h-2.271v-.7366h1.68v-5.8603h-4.91v-.7366h5.501zm-7.315 5.1693h-3.153v-.8865h3.153zm0-2.1185h-3.153v-.8931h3.153zm4.909 2.1185h-3.095v-.8865h3.095zm0-3.0051v.8931h-3.095v-.8931z"/><path d="m220.693 17.0985c.618-.5671.965-1.1277 1.338-1.8252h-1.814c-.341.6258-.734 1.1473-1.48 1.8252h-.875l-.926-1.8252h-1.796l.927 1.8252h-1.332l-.926-1.8252h-1.795l.926 1.8252h-2.381v3.5462h1.744v-1.7666h9.214v1.747h1.846v-3.5266h-2.676z"/><path d="m217.933 24.9014h5.437v-1.8253h-5.437v-.202c1.499-.8344 2.799-1.6036 2.799-1.6036v-1.5906h-7.535v1.6884h4.723l-1.814.9452v.7692h-5.54v1.8252h5.54v1.3168c0 .9647.025.893-2.169.893v1.9687c3.841 0 3.996-.5672 3.996-3.2529z"/><path d="m230.08 23.3369c.438-.2738.837-.5802 1.197-.9191.444 1.069 1.016 2.0859 1.679 2.9855-.791.8018-1.756 1.4732-2.889 1.8513v1.8187c1.332-.2216 2.735-1.1147 3.964-2.3988 1.235 1.2841 2.631 2.1772 3.963 2.3988v-1.8187c-1.132-.3781-2.097-1.0495-2.889-1.8513.663-.8996 1.235-1.9165 1.679-2.9855.367.3389.766.6518 1.21.9256v-2.2685c-.502-.2086-1.197-1.0886-1.313-1.6818h-1.891c.238.704.605 1.382 1.074 2.0077h-.592c-.231.854-.656 1.7927-1.248 2.6792-.598-.8865-1.016-1.8252-1.248-2.6792h-.592c.47-.6257.837-1.3037 1.075-2.0077h-1.892c-.109.5932-.798 1.4732-1.3 1.6818-.617-.528-.965-1.3624-1.19-2.4575h9.111v-1.8383h-3.082v-1.5188h-1.789v1.5188h-4.394v-1.5188h-1.815v1.5188h-1.788v1.8383h1.602c-.38 2.112-.94 2.992-1.602 3.9438v2.8877c.72-.9191 1.396-1.9164 1.788-3.0768v6.7012h1.815v-7.2813c.308.4758.662.9321 1.344 1.5449z"/><path d="m186.072 26.9939h-1.815c.303.8018.599 1.7209.663 2.0794h1.795c-.071-.4498-.38-1.3559-.65-2.0794z"/><path d="m136.543 17.5809c.025-.6453.038-1.3298.038-2.0599h-2.059c0 .7366-.012 1.4211-.032 2.0599h-3.995v1.9686h3.873c-.386 4.159-1.538 5.906-3.873 7.1119v2.1903c.527-.2282 1.01-.4433 1.46-.7236 2.542-1.584 4.009-3.5787 4.465-8.5786h3.468c0 2.1056-.122 4.6348-.534 6.0168-.199.6649-.965 1.1733-3.236 1.0886v2.1903c4.639 0 4.999-1.7405 5.276-2.8096.54-2.0794.631-5.7103.631-8.4547z"/><path d="m123.109 16.8247c.186-.4302.353-.8604.489-1.2972h-2.201c-.869 2.3011-1.666 3.4614-3.635 4.6087v2.2359c1.789-.6975 3.223-2.0142 4.278-3.5787h4.536c-1.209 3.6439-3.017 6.3883-8.718 7.9202v2.1446c.335-.0391.901-.2281 2.008-.5671 5.745-1.7666 7.824-5.8799 8.924-9.3869.193-.6128.45-1.6297.527-2.0795z"/><path d="m83.2164 11.3296v-7.23575h6.7106v7.23575zm1.3897-4.27627v-.63883h1.4477v-.3129h-1.2997v-.61275h1.2997v-.26727h.9393v.26727h1.3447v.61275h-1.3447v.3129h1.4927v.63883zm2.831.83439h-1.7758v.39764h1.7758zm-1.3833 2.29458v-.78877c-.6499.54757-1.4606.78877-1.4606.78877v-.76921c.4826-.14993.7335-.26727 1.2354-.61927h-1.0809v-1.41456h3.5837v1.41456h-.3667l.4375.28682c-.0965.12385-.2445.2803-.2445.2803s.1737.06519.3217.09126v.7301c-.4504-.0652-1.0938-.39765-1.4927-.68447v.68447h-.9394zm2.9403.2021v-5.35186h-4.8448v5.35186zm-1.9366-1.58407c.1608.14342.3731.24771.5211.32594.1223-.13689.193-.2086.2638-.32594z"/><path d="m57.416 11.3296c-1.4026-.7301-3.114-1.7731-3.7059-3.3441-.5855 1.571-2.2777 2.614-3.706 3.3441v-1.2842c2.4063-1.0495 3.1655-2.73784 3.1655-4.13936v-2.02079h1.0809v2.02079c0 1.38196.7592 3.08986 3.1655 4.13936z"/><path d="m42.2897 10.091v1.2386c1.171-.8018 1.6857-1.70791 1.6857-1.70791v-1.28418s-.8879 1.19292-1.6857 1.76009z"/><path d="m42.2897 5.9973c.682.15645 1.2032.40416 1.6857.67143v.99084c-.5597-.3129-1.0294-.5215-1.6857-.67143z"/><path d="m42.2897 5.30633v-.98432c.682.15644 1.2032.40415 1.6857.67142v.98432c-.5597-.3129-1.0294-.5215-1.6857-.67142z"/><path d="m49.2835 11.3231c-.1609-.7627-.534-1.8709-.9137-2.71181h-1.0165c.148.32594.2959.6975.4375 1.07558-.6177.2086-1.1195.31943-1.7179.44323.2638-.5736.489-1.26458.6949-2.07289h2.2326v-.99084h-1.808v-1.09514h1.808v-.98432h-1.808v-1.10166h-1.0166v1.10166h-1.7436v.98432h1.7436v1.09514h-1.7436v.99084h1.319c-.1608.71053-.4311 1.51885-.7528 2.22289-.1866.026-.3667.0456-.5662.0652v.9778c.1802-.0066.341-.0261.341-.0261 1.2868-.1173 2.2841-.352 3.32-.7171.0772.2738.1415.528.1801.7432h1.0166z"/><path d="m65.1819 5.40411c.4246-.75617.6434-1.51886.6434-1.51886h-.9651s-.2188.76269-.6434 1.51886h-.5662v-1.51234h-.9844v1.51234h-.5662c-.4247-.75617-.6434-1.51886-.6434-1.51886h-.9651s.2252.76269.6434 1.51886h-1.3576v5.91899h1.0037v-4.92816h4.7805v3.41579c0 .50847-.103.48887-.8879.48887v1.0235c1.7886-.0522 1.8916-.2738 1.8916-1.72097v-4.19802zm-.2316 1.58403h-3.5709v2.82911h3.5709zm-.9458 1.94909h-1.6729v-1.06255h1.6729z"/><path d="m74.3825 9.44568v-.89305h-2.9468v-.46935h2.9468v-.86698h-2.9468v-.48239h2.7087v-.8409h-2.7087v-.48239h2.9468v-.89305h-1.4863c.148-.16297.2767-.38461.3668-.6258h-1.0488c-.1865.30638-.2766.43023-.4761.6258h-1.602c-.1995-.19557-.2831-.31942-.4697-.6258h-1.0552c.0901.24119.2188.46283.3667.6258h-1.4862v.89305h2.9468v.48239h-2.7152v.8409h2.7152v.48239h-2.9468v.86698h2.9468v.46935h-2.9468v.89305h2.4899c-.4375.33898-1.3189.77572-2.4899.93222v.9517c.1222 0 .2252-.0261.2252-.0261 1.8272-.2542 2.7859-1.0299 3.217-1.57099.4311.54109 1.3897 1.31029 3.217 1.57099 0 0 .1029.0196.2252.0261v-.9517c-1.171-.1565-2.0525-.59324-2.49-.93222z"/><path d="m80.8165 4.87609c.3346-.30638.5211-.60623.7206-.98432h-.978c-.1801.33897-.3924.61928-.7913.98432h-.4697l-.4954-.98432h-.9651l.5018.98432h-.7206l-.4954-.98432h-.9651l.4954.98432h-1.2804v1.90997h.9394v-.95172h4.9606v.94521h.9973v-1.90346z"/><path d="m79.3367 9.08064h2.9274v-.98432h-2.9274v-.11082c.8107-.44979 1.5055-.86698 1.5055-.86698v-.85395h-4.0598v.9061h2.5414l-.978.50845v.4172h-2.9853v.98432h2.9853v.71053c0 .52153.0129.48243-1.1645.48243v1.0625c2.0717 0 2.1489-.3064 2.1489-1.75352v-.49542z"/><path d="m32.0146 4.87609c.3346-.30638.5212-.60623.7206-.98432h-.9779c-.1866.33897-.3925.61928-.7979.98432h-.4696l-.4955-.98432h-.9651l.4955.98432h-.7206l-.4955-.98432h-.9651l.4955.98432h-1.2804v1.90997h.9394v-.95172h4.9606v.94521h.9972v-1.90346z"/><path d="m30.5284 9.08064h2.9274v-.98432h-2.9274v-.11082c.8107-.44979 1.5055-.86698 1.5055-.86698v-.85395h-4.0534v.9061h2.5414l-.9779.50845v.4172h-2.9854v.98432h2.9854v.71053c0 .52153.0128.48243-1.1646.48243v1.0625c2.0718 0 2.1554-.3064 2.1554-1.75352v-.49542z"/><path d="m37.0717 8.23973c.2381-.14341.4504-.3129.6434-.49542.2381.57364.5469 1.12121.9072 1.61011-.4246.43024-.9458.79528-1.557.99738v.9778c.7142-.1174 1.4734-.5997 2.1361-1.2907.6627.691 1.4219 1.1733 2.1361 1.2907v-.9778c-.6112-.2021-1.126-.56714-1.557-.99738.3603-.48238.6627-1.02995.9007-1.61011.1995.18252.4118.35201.6499.50194v-1.22551c-.2703-.11082-.6434-.58668-.7078-.9061h-1.0166c.1287.37808.3282.74313.5791 1.0821h-.3153c-.1222.45631-.3538.96476-.6755 1.44063-.3217-.47587-.5469-.98432-.6756-1.44063h-.3153c.251-.33897.4504-.70402.5791-1.0821h-1.0166c-.0579.31942-.4311.79528-.7013.9061-.3346-.28682-.5211-.73661-.6434-1.32329h4.9092v-.99084h-1.66v-.82136h-.9651v.82136h-2.3677v-.82136h-.978v.82136h-.9587v.99084h.8622c-.2059 1.14076-.5083 1.61011-.8622 2.12508v1.55145c.3861-.49542.7528-1.02995.9587-1.65575v3.61137h.978v-3.92426c.1673.25423.3538.50194.7206.83439z"/><path d="m1.49131 34.8032-.546891-.339c-.341002-.2151-.585494-.4237-.733476-.6258-.1479815-.2086-.2187555-.4433-.2187555-.7105 0-.4042.1351135-.7301.4117755-.9778.276662-.2478.630537-.3781 1.074477-.3781.44395 0 .80425.1173 1.15812.3585v.8344c-.3603-.352-.75278-.528-1.17099-.528-.23162 0-.43107.0586-.579057.1629-.154416.1109-.22519.2543-.22519.4238 0 .1499.057906.2933.167284.4302.109378.1304.289533.2738.534023.4172l.54689.3324c.61123.3716.91363.8475.91363 1.4211 0 .4107-.13512.7431-.40535.9974-.27022.2542-.61766.3846-1.05517.3846-.495419 0-.945799-.1565-1.3575745-.4629v-.9321c.3860395.5019.8364195.7561 1.3511345.7561.22519 0 .41178-.0651.5662-.1955.14798-.1304.22519-.2868.22519-.4824 0-.3129-.21876-.6062-.66271-.8865z"/><path d="m7.5071 31.8306h.7206v5.1107h-.7206v-2.2229h-2.8374v2.2229h-.7206v-5.1107h.7206v2.2099h2.8374z"/><path d="m17.0487 36.9413h-1.705v-5.1107h1.319c.4182 0 .7399.0587.9715.1695s.4118.2673.534.4694c.1223.1955.1866.4302.1866.6909 0 .502-.2573.8605-.7656 1.0756.3667.0717.6562.2217.875.4629.2188.2411.3281.5215.3281.8474 0 .2607-.0643.4954-.1994.6975s-.3282.3715-.5791.5019c-.2573.1304-.579.1891-.9587.1891zm-.3667-4.4588h-.6177v1.5319h.4761c.3861 0 .6563-.0717.8171-.2216.1609-.15.2445-.339.2445-.5737 0-.4889-.3088-.7366-.92-.7366zm.0514 2.1838h-.6691v1.6166h.7078c.3924 0 .6627-.0326.7978-.0913.1415-.0652.2509-.1564.3345-.2933.0837-.1304.1287-.2738.1287-.4237 0-.15-.045-.2999-.1351-.4237-.0901-.1304-.2188-.2217-.3796-.2869-.1673-.0651-.4246-.0977-.785-.0977z"/><path d="m19.7188 31.8306h.7206v5.1107h-.7206z"/><path d="m9.17994 34.386c0 1.4406 1.15816 2.6205 2.58006 2.6205s2.5864-1.1734 2.5864-2.6205c0-1.4472-1.1581-2.614-2.5864-2.614-1.4284 0-2.58006 1.1733-2.58006 2.614zm.66913 0c0-1.0691.85573-1.9361 1.91093-1.9361 1.0551 0 1.9109.867 1.9109 1.9361 0 1.069-.8558 1.936-1.9109 1.936-1.0552 0-1.91093-.867-1.91093-1.936z"/><path d="m14.7673 18.5717c.7207.9974 1.0874 2.1056 1.0874 3.3441 0 .3194-.0257.6258-.0708.9322-.9265-1.9817-3.3714-3.4027-6.25383-3.4027-3.67381 0-6.64632 2.3076-6.64632 5.1562 0 2.8487 2.97251 5.1628 6.64632 5.1628h.39891c2.32272 0 4.29152-.7692 5.90002-2.3076s2.4191-3.4223 2.4191-5.6517c0-1.6753-.3474-3.0377-1.0487-4.0937-.7013-1.0495-1.3254-1.6818-2.5414-2.4119-1.1453-.6845-4.2207-1.8774-4.83197-2.1056-.53402-.202-.85572-.5932-1.08091-.893-.45038-.5932-.67557-1.2646-.67557-2.0078 0-1.04948.37961-1.90994 1.15169-2.62048.77208-.71053 1.75646-1.06906 2.91456-1.06906 1.2289 0 2.638.7692 4.4331 2.41191l.4889.44979v-2.60095c-1.7757-1.59708-3.3649-2.34673-5.0699-2.34673-1.7051 0-3.18487.57365-4.4009 1.70138-1.21602 1.13425-1.84012 2.53576-1.84012 4.14584 0 .15 0 .2934.01287.4368-.05148-.0652-1.17099-1.31679-1.17099-3.22024 0-1.56448.57906-2.88125 1.73074-3.9438 1.15812-1.06254 2.67011-1.54492 4.3108-1.57752 3.4615-.0717 6.4275 2.91385 6.4275 2.91385v-2.53576c-.5404-.39112-3.0239-2.4249509-6.6141-2.43798821-2.2712-.00651868-4.21427.74964821-5.8292 2.24893821-1.61494 1.4993-2.41919 3.31801-2.41919 5.44962 0 1.5384.32814 2.7965.99727 3.7743.6627.9713 1.46695 1.7275 2.41919 2.249.95223.528 2.53499 1.2189 4.74833 2.0794 2.2133.8605 3.6802 1.7796 4.4072 2.777z"/><path d="m238.09 11.8378h-113.914v-11.10782h113.914v11.11432zm-113.239-.6779h112.563v-9.75198h-112.563z"/><path d="m129.857 3.95672h-1.615v5.42354h-.669v-6.10148h2.284z"/><path d="m133.833 3.29834v.43675h2.683v.58668h-6.067v-.58668h2.696v-.43675h.695zm1.583 5.5148c.116 0 .161-.05215.161-.16949v-1.72093h-4.202v2.50317h-.682v-3.0377h5.559v2.50317c0 .13037-.012.24119-.083.35201-.065.1043-.161.18252-.309.18252h-1.042l-.103-.58668h-2.722v-1.571h2.985v1.54493zm.212-2.76392h-4.291v-1.45367h4.291zm-3.628-.97128v.4889h2.972v-.4889zm.617 2.68569v.57364h1.744v-.57364z"/><path d="m137.539 5.0649-.457-.46935c.489-.32593.824-.74964 1.03-1.31025l.605.1043c-.033.12385-.071.22815-.123.34549h1.487v.56712h-.946c.077.13038.148.26075.206.40416l-.644.26075c-.051-.176-.167-.50846-.244-.66491h-.18c-.213.28683-.457.53454-.734.76269zm2.304-.48238c.45-.3846.682-.74965.9-1.29722l.586.09778c-.039.12386-.077.23467-.129.35201h1.995v.56712h-1.268c.084.14342.167.28683.245.43676l-.605.25422c-.09-.23467-.2-.46282-.309-.69098h-.354c-.135.21512-.276.39113-.45.57365h.051v.31941h2.304v.59972h-2.304v.42371h2.69v.5932h-1.165v.44327h1.113v.58017h-1.113v.84091c0 .34549 0 .75616-.547.75616h-1.203l-.103-.65187h.965c.155 0 .193-.05866.193-.22815v-.71705h-2.786c.277.18252.753.68446.94.95824l-.515.44979c-.251-.34549-.605-.74965-.933-1.01691l.431-.39112h-1.255v-.58017h4.118v-.44327h-4.182v-.5932h2.677v-.42371h-2.252v-.59972h2.252v-.31941h.399z"/><path d="m147.512 6.147c-.064.11082-.135.22163-.206.33245l-.521-.49542c.09-.13037.148-.21511.225-.35201h-.901c-.154.16297-.321.31942-.489.46935h1.126v.54757c-.283.27378-.489.44979-.817.6649v.12386c.405-.05215.811-.09778 1.216-.16297v.57364c-.405.07823-.811.14341-1.216.20208v.88654c0 .26075-.174.48238-.444.48238h-.958l-.123-.62579h.734c.109 0 .167-.03259.167-.14993v-.51497c-.47.05867-.946.09778-1.422.13689l-.051-.63231c.489-.02608.984-.06519 1.473-.12386v-.4563h.18c.122-.08475.36-.28683.444-.40416h-1.01c-.27.18904-.528.35201-.817.50845l-.29-.58016c.541-.26726.978-.55409 1.442-.94521h-1.371v-.5932h1.184v-.61275h-1.023v-.58668h1.023v-.5215h.598v.5215h.747v.48238c.18-.26727.302-.52149.431-.81483l.572.26074c-.225.47587-.456.85395-.785 1.27114h.425v.5215c.367-.67142.566-1.51885.676-2.27502l.637.06519c-.039.31289-.084.62579-.148.93869h1.653v.67794h-.315c-.071.93217-.232 1.89693-.701 2.71177.334.41719.72.7692 1.126 1.10817l-.38.63231c-.45-.34549-.811-.70401-1.152-1.16032-.431.50194-.875.83439-1.441 1.16032l-.425-.62579c.579-.25423 1.101-.59972 1.5-1.10817-.271-.48239-.47-.99084-.573-1.53841zm-1.171-1.72093h-.676v.61275h.193c.174-.19556.335-.39763.483-.61275zm2.58.54105h-.882c-.032.09126-.057.18252-.096.27378.064.63883.206 1.27766.515 1.84479.289-.63883.418-1.42107.463-2.11857z"/><path d="m150.774 5.5538-.052-.61276c.432 0 .856-.01303 1.281-.01955.122-.17601.238-.35853.341-.54757h-1.802v-.59972h2.715v-.46934h.65v.46934h2.69v.59972h-1.615c.392.19556 1.036.65839 1.357.95825l-.527.4563c-.213-.2086-.367-.32593-.605-.49542-1.48.11734-2.953.25423-4.433.26075zm5.031 3.22674c0 .42372-.218.66491-.643.66491h-1.087l-.148-.66491h1.029c.154 0 .193-.00651.193-.16296v-.35853h-3.165v1.1864h-.663v-3.60483h4.484zm-3.815-2.41191v.4172h3.165v-.4172zm0 .93217v.43024h3.165v-.43024zm2.162-2.65961.508-.26727h-1.544c-.161.25423-.187.29986-.36.53453.579 0 1.164-.04563 1.743-.06519-.116-.0717-.231-.13689-.347-.20207z"/><path d="m159.968 8.44157c.573-.02607 1.3-.1043 1.737-.50845.438-.40416.599-1.02995.599-1.61012 0-.61927-.226-1.21247-.772-1.55144-.296-.18252-.579-.23467-.92-.25423-.097 1.02343-.213 2.25546-.702 3.1746-.257.49541-.65.92565-1.242.92565-.92 0-1.261-1.13425-1.261-1.89042 0-.91261.361-1.747 1.088-2.30109.572-.43023 1.222-.5932 1.93-.5932.888 0 1.705.26075 2.239 1.02343.322.45631.437.99084.437 1.55145 0 1.03647-.405 1.94256-1.376 2.38583-.528.24119-.998.3129-1.57.33897zm-1.409-3.08985c-.296.40416-.444.9778-.444 1.47322 0 .35853.064.8018.38 1.01691.058.03912.135.05867.212.05867.47 0 .714-.71053.817-1.08862.225-.79527.303-1.44062.36-2.26198-.553.09778-.984.33898-1.325.8018z"/><path d="m164.15 6.90317-.296-.80832c.56-.79528.843-1.83175.991-2.78999l.695.09778c-.116.52801-.238 1.0495-.399 1.56448v4.45877h-.637v-3.01162c-.116.176-.219.31941-.354.4889zm2.252-.22164-.257-.54105v2.45102h-.637v-4.26321h.637v.41719c.463-.37808.836-.88654 1.042-1.45366l.643.12385c-.057.16949-.115.29986-.193.46283h2.31v.57364h-.463c-.174.44979-.489.86047-.843 1.17988.47.25423.888.37809 1.416.46935l-.283.61927c-.625-.13689-1.146-.34549-1.693-.67794-.553.33897-1.055.50846-1.679.63883zm.521-1.7796c-.148.15645-.257.25423-.418.3846l-.36-.37156v1.19292c.56-.09126.907-.18253 1.415-.45631-.244-.22815-.45-.46283-.637-.74965zm-.341 4.52396-.257-.58668c1.19-.08474 2.29-.35852 3.185-1.21247l.469.39764c-.939.89958-2.136 1.2907-3.397 1.40151zm-.025-1.90997-.226-.49542c.65-.13037 1.274-.30638 1.847-.65838l.437.39763c-.514.37157-1.434.63883-2.058.75617zm.051.95173-.219-.56061c.85-.12385 1.744-.37156 2.445-.90609l.451.3846c-.734.58016-1.77.93869-2.677 1.0821zm2.226-4.00899h-1.538v.01304c.206.3129.509.59972.818.82135.257-.21511.566-.52801.72-.83439z"/><path d="m175.622 6.01011c-.392.35852-1.152.84091-1.641 1.04299v.05214h2.703v.63884h-2.703v1.16684c0 .39112-.347.54105-.527.54105h-1.261l-.123-.69098h1.036c.174 0 .18-.08474.18-.2086v-.80831h-2.695v-.63884h2.695v-.50845h.284c.308-.09778.707-.29334.952-.51498h-2.863v-.61275h3.963zm-4.401-2.44451.624-.23467c.193.28031.38.65187.483.9778l-.148.05867h1.287c-.129-.30638-.258-.5606-.438-.84091l.637-.24771c.167.26075.399.71706.489 1.01692l-.212.0717h1.042c.174-.34549.296-.70402.425-1.06906l.74.22163c-.142.32594-.251.54105-.425.84743h.817v1.49278h-.65v-.8735h-4.471v.8735h-.65v-1.49278h.836c-.109-.2803-.244-.54757-.386-.8018z"/><path d="m181.67 6.15352h-3.893v-.63883h2.214v-.85395h-2.683v-.65187h2.683v-.71053h.65v.71053h2.708v.65187h-2.708v.85395h1.814v.65187c-.431.71053-.901 1.33632-1.544 1.87086.778.41067 1.55.57364 2.425.63231l-.257.73661c-.952-.14993-1.962-.4172-2.786-.92565-.83.50845-1.737.7692-2.676.95172l-.303-.73661c.824-.1043 1.641-.26726 2.381-.65187-.502-.42371-.843-.85394-1.184-1.41455l.54-.34549c.361.55409.734.98432 1.261 1.37544.567-.43023.959-.91913 1.358-1.50581z"/><path d="m184.733 5.07794h-.734v-.61276h.734v-1.13425h.669v1.13425h.534v.61276h-.534v1.21247c.161-.06519.315-.13037.476-.20208l-.019.65839c-.161.09126-.284.14993-.457.22163v1.96864c0 .30638-.161.50846-.476.50846h-.824l-.071-.67142h.541c.141 0 .161-.05215.161-.19556v-1.35589c-.251.09126-.47.16297-.734.22164l-.058-.71706c.27-.05867.534-.12385.792-.2086zm4.915 2.06642v.49542c-.174.37156-.444.6649-.759.92565.444.14993.778.19556 1.242.2086l-.296.67142c-.541-.09778-1.062-.25423-1.544-.50846-.444.23467-.85.3846-1.332.50846l-.251-.64535c.373-.03911.643-.09778.991-.23467-.219-.16297-.348-.29334-.496-.5215l.521-.28682c.148.22816.322.37157.547.50846.29-.18904.47-.34549.676-.62579h-1.686c-.315.72357-.675 1.25158-1.222 1.80567l-.47-.44979c.656-.67794 1.113-1.32981 1.338-2.2685h-.913v-.54757h1.003c.013-.13689.02-.27378.026-.41067h-.894v-.54757h2.625c.219-.36505.399-.74965.56-1.14729l.604.23467c-.128.32594-.283.61276-.456.91262h.443v.54757h-2.271c0 .13689 0 .27378-.013.41067h2.413v.54757h-2.496c-.026.14341-.065.2803-.103.4172zm-1.711-2.89429c-.663.05866-1.306.08474-1.808.08474l-.2-.61928c1.223-.00652 2.58-.02607 3.745-.41719l.244.59972c-.521.16296-1.274.28682-1.981.35201zm-.779.82787-.65.13689c-.064-.22815-.16-.50846-.257-.72357l.656-.14341c.097.23467.18.48238.251.73009zm1.229-.03912-.656.13038c-.065-.26075-.135-.50846-.225-.76269l.675-.13037c.084.25423.161.50194.206.76268z"/><path d="m190.735 7.17043v-.59972h1.307v-.60623h-1.339v-.5932h.714c-.038-.29334-.096-.65839-.193-.93217h-.392v-.5932h1.21v-.54105h.617v.54105h1.113v.5932h-.302c-.077.34549-.122.5932-.232.93217h.631v.5932h-1.21v.60623h1.062v.59972h-.94c.232.28682.483.54757.792.74313l-.322.58668c-.186-.16297-.444-.46934-.592-.6975v1.63619h-.617v-1.61663c-.348.46282-.676.82135-1.139 1.16684l-.354-.59972c.521-.35852.939-.69098 1.306-1.21899zm1.075-2.7248c.077.24119.167.67794.199.93217h.65c.077-.26075.161-.66491.2-.93217zm2.915-.03912v.99084h1.988v.62579h-.631v3.41579h-.669v-3.41579h-.688v.17601c0 1.2581-.116 2.19027-.863 3.23978l-.624-.43675c.714-.86698.843-1.68182.843-2.78348v-2.42494c.869 0 1.519-.13038 2.265-.4889l.367.61275c-.612.29334-1.319.46283-1.988.4889z"/><path d="m197.942 5.1366-.547-.32593c.27-.43675.444-.91261.502-1.42107l.63.07822c-.039.18253-.077.36505-.129.54105h.522v-.69749h.624v.69749h1.364v.61276h-1.364v.61275h1.473v.6258h-1.473v.54757h1.306v2.09249c0 .33245-.097.48238-.438.48238h-.579l-.116-.65838h.374c.09 0 .141-.06519.141-.14341v-1.15381h-.688v2.41191h-.624v-2.41191h-.631v1.9882h-.631v-2.60747h1.262v-.54757h-1.506v-.6258h1.506v-.61275h-.728c-.077.18904-.154.33897-.25.51497zm4.008-1.44714v4.20454h-.65v-4.20454zm1.229-.37157v5.6191c0 .35853-.245.50194-.566.50194h-.946l-.116-.70402h.779c.122 0 .16-.03911.16-.16948v-5.24754z"/><path d="m206.827 3.80028v-.48239h.675v.48239h2.574v.59971h-1.004v.48239h1.043v.53453h-1.043v1.00387h-3.017v-1.00387h-.888v1.1864c0 .91261-.116 2.00775-.611 2.78999l-.528-.50846c.193-.29334.296-.5606.36-.90609.078-.44327.123-.93869.123-1.38848v-2.78999zm1.846 3.56571h-3.358v-.58668h4.131v.58668c-.264.46283-.65.80832-1.094 1.09514.592.176 1.177.26075 1.788.31941l-.296.64535c-.765-.08474-1.505-.26726-2.213-.58016-.772.33897-1.518.50846-2.355.5932l-.263-.60624c.656-.06518 1.248-.176 1.878-.36504-.341-.2086-.656-.44327-.92-.74965l.528-.34549c.354.35853.682.59972 1.139.81484.424-.2086.752-.43676 1.035-.82136zm-3.5-2.97251v.48238h.888v-.48238zm1.512 0v.48238h1.77v-.48238zm0 1.01691v.48238h1.77v-.48238z"/><path d="m210.726 8.8001h1.615v-5.41702h.669v6.09496h-2.284z"/><path d="m216.806 4.97364h-1.962v-.66491h1.222v-.99084h.682v.99084h1.126v.66491h-.373c-.116.67142-.27 1.33633-.528 1.96212.316.36505.714.85395.94 1.27766l-.554.43675c-.218-.37156-.437-.69098-.701-1.03647-.38.69098-.862 1.19944-1.467 1.69486l-.463-.59972c.611-.46283 1.081-.97128 1.454-1.66226-.393-.43024-.759-.78224-1.223-1.13425l.496-.45631c.36.29334.701.60624 1.023.94521.174-.47587.264-.93217.328-1.42759zm2.496 2.52273-.662.32593c-.2-.58016-.483-1.21247-.817-1.72745l.617-.33245c.361.54105.624 1.12121.862 1.73397zm1.03-2.97252h.54v.6975h-.54v3.61786c0 .53453-.315.5932-.766.5932h-.984l-.174-.67142h1.01c.193 0 .219-.01304.219-.15645v-3.38319h-1.563v-.6975h1.563v-1.20596h.695z"/><path d="m224.565 7.36599c-.817.53453-1.833.84743-2.785 1.04951l-.194-.57365c.927-.11733 1.847-.39112 2.658-.86698-.065-.05867-.122-.1043-.193-.14993-.721.32594-1.422.50846-2.194.64535l-.193-.54757c.804-.13689 1.602-.31941 2.342-.67142h-2.027v-1.29722c-.103.03911-.199.07823-.296.11734l-.264-.57365c.772-.21511 1.409-.58016 1.924-1.21247l.688.14341c-.064.08474-.128.16949-.193.24771h2.233v.5215c-.122.14993-.264.2803-.399.41067h1.486v1.64271h-1.711c.071.26075.154.47586.283.71053.354-.20207.611-.3846.894-.67794l.476.37809c-.334.29334-.688.52801-1.068.74312.425.53453 1.036.89958 1.66 1.14729l-.424.64535c-.605-.3129-1.088-.67794-1.519-1.20596-.399-.4889-.701-1.06254-.81-1.68833-.116.09126-.226.16296-.348.23467.618.44327.895 1.08862.895 1.84478 0 .2412-.026.71054-.219.88003-.174.15644-.425.176-.65.176h-.637l-.148-.64535h.618c.334 0 .399-.08474.399-.40416 0-.11081-.013-.20207-.033-.31289-.965.60623-2.013.95172-3.114 1.21247l-.206-.58016c1.068-.18904 2.259-.52801 3.179-1.12773-.039-.09126-.058-.13038-.11-.21512zm-1.955-2.24242v.60623h1.614v-.60623zm2.123-.51498c.148-.13037.296-.26074.418-.41067h-1.853c-.18.14341-.431.29334-.631.41067zm.103.51498v.60623h1.685v-.60623z"/><path d="m228.201 5.15616v-.62579h.894v-1.21248h.611v1.21248h.682v.62579h-.682v.37808c.245.46935.534.83439.895 1.21248l-.335.63231c-.283-.35853-.354-.49542-.56-.89958v2.95948h-.611v-3.02466c-.193.62579-.36 1.01039-.701 1.56448l-.245-.88654c.303-.44327.528-.89306.708-1.44063.071-.2086.096-.29986.154-.49542zm6.189 3.6309-.322.65187c-.682-.22815-1.261-.50846-1.814-.99084-.521.45631-1.126.74313-1.763.99084l-.341-.60624c.611-.20208 1.158-.44327 1.654-.86046-.412-.51498-.657-1.04299-.843-1.6753l.598-.176c.161.52149.373.95172.721 1.37544.347-.43024.56-.88003.74-1.40152l.624.2086c-.219.61927-.489 1.1538-.907 1.66226.501.42371 1.029.65187 1.653.82135zm-3.661-2.52924-.457-.48239c.477-.27378.824-.58668 1.133-1.0495l.54.29334c-.315.4889-.727.92565-1.216 1.23855zm1.911-2.93341v.63231h1.615v.61928h-3.828v-.61928h1.557v-.63231zm1.319 2.93993c-.553-.35853-.901-.70402-1.287-1.24507l.541-.31942c.373.45631.675.71054 1.171 1.02344z"/></g></svg>