<svg width="314" height="69" viewBox="0 0 314 69" fill="none" xmlns="http://www.w3.org/2000/svg">
<path d="M0 0H314V49C314 60.0457 305.046 69 294 69H0V0Z" fill="white"/>
<g clip-path="url(#clip0_294_8085)">
<path d="M181.221 31.2061H183.586V43.0308C186.746 42.1278 190.089 39.9753 193.33 36.3997L193.352 39.5708C190.359 42.4023 187.527 44.5549 182.666 45.7973C182.308 45.8912 181.754 46.0285 181.221 46.0574V31.2061Z" fill="#231815"/>
<path d="M248.277 38.4873H252.817V43.0524C252.817 44.1215 252.73 44.042 250.226 44.042V46.2235C254.387 46.2235 254.876 45.6384 254.876 42.6624V31.3289H248.277V38.4873ZM250.336 33.1492H252.81V34.1388H250.336V33.1492ZM250.336 35.7135H252.81V36.7681H250.336V35.7135Z" fill="#231815"/>
<path d="M242.679 46.2163V38.48H247.212V31.3289H240.613V46.2163H242.679ZM242.679 33.1492H245.153V34.1388H242.679V33.1492ZM242.679 35.7135H245.153V36.7681H242.679V35.7135Z" fill="#231815"/>
<path d="M120.018 37.4182H108.639V39.7152H120.018V37.4182Z" fill="#231815"/>
<path d="M59.5306 34.0376C60.4211 32.4774 60.8882 30.9099 60.8882 30.9099H58.8518C58.8518 30.9099 58.3846 32.4774 57.4941 34.0376H56.2971V30.9244H54.2241V34.0376H53.0271C52.1366 32.4774 51.6695 30.9099 51.6695 30.9099H49.633C49.633 30.9099 50.1002 32.4774 50.9907 34.0376H48.1367V46.2163H50.2462V36.0746H60.3189V43.103C60.3189 44.1576 60.0999 44.1071 58.443 44.1071V46.2163C62.2093 46.1152 62.4283 45.6529 62.4283 42.6768V34.0304H59.5233L59.5306 34.0376ZM59.0342 37.2954H51.5235V43.1175H59.0342V37.2954ZM57.0416 41.2972H53.5161V39.1085H57.0416V41.2972Z" fill="#231815"/>
<path d="M73.647 42.3446H78.895V40.5098H72.6835V39.5419H78.895V37.7577H72.6835V36.7681H78.3914V35.0345H72.6835V34.0449H78.895V32.2101H75.771C76.0776 31.8706 76.3476 31.4156 76.5447 30.9244H74.3258C73.9316 31.5528 73.7419 31.8056 73.3331 32.2101H69.9682C69.5595 31.8056 69.3697 31.5528 68.9756 30.9244H66.7567C66.9464 31.4228 67.2165 31.8706 67.5304 32.2101H64.3991V34.0449H70.6106V35.0345H64.8954V36.7681H70.6106V37.7577H64.3991V39.5419H70.6106V40.5098H64.3991V42.3446H69.6471C68.7201 43.038 66.8661 43.9337 64.3991 44.2587V46.2235C64.6545 46.2091 64.8735 46.173 64.8735 46.173C68.7201 45.6456 70.7419 44.0493 71.6543 42.9441C72.5667 44.0493 74.5813 45.6456 78.4279 46.173C78.4279 46.173 78.6468 46.2091 78.9023 46.2235V44.2587C76.4352 43.9337 74.5813 43.038 73.6543 42.3446H73.647Z" fill="#231815"/>
<path d="M123.843 45.7468C130.894 44.4538 134.324 40.3364 136.185 35.0995H133.66C132.178 39.6358 128.638 43.0308 122.011 43.5942V45.9562C122.675 45.9057 123.259 45.8551 123.85 45.7468H123.843Z" fill="#231815"/>
<path d="M136.178 31.1988H134.821V34.1171H136.178V31.1988Z" fill="#231815"/>
<path d="M133.821 31.1988H132.463V34.1171H133.821V31.1988Z" fill="#231815"/>
<path d="M122.003 31.1988V33.402C122.003 33.402 125.018 33.8715 128.5 34.9911V32.788C125.018 31.6684 122.003 31.1988 122.003 31.1988Z" fill="#231815"/>
<path d="M122.003 34.9911V37.1943C122.003 37.1943 125.018 37.6638 128.5 38.7834V36.5803C125.018 35.4607 122.003 34.9911 122.003 34.9911Z" fill="#231815"/>
<path d="M209.767 45.7468C216.811 44.4538 220.249 40.3364 222.11 35.0995H219.585C218.103 39.6358 214.563 43.0308 207.935 43.5942V45.9562C208.6 45.9057 209.183 45.8551 209.775 45.7468H209.767Z" fill="#231815"/>
<path d="M222.103 31.1988H220.745V34.1171H222.103V31.1988Z" fill="#231815"/>
<path d="M219.745 31.1988H218.388V34.1171H219.745V31.1988Z" fill="#231815"/>
<path d="M207.928 31.1988V33.402C207.928 33.402 210.943 33.8715 214.424 34.9911V32.788C210.943 31.6684 207.928 31.1988 207.928 31.1988Z" fill="#231815"/>
<path d="M207.928 34.9911V37.1943C207.928 37.1943 210.943 37.6638 214.424 38.7834V36.5803C210.943 35.4607 207.928 34.9911 207.928 34.9911Z" fill="#231815"/>
<path d="M147.455 35.0923C147.098 40.0692 145.083 42.6768 139.288 43.7242V45.8985C140.2 45.7323 140.806 45.5734 140.806 45.5734C146.506 44.1215 149.163 41.131 149.733 35.0923H147.455Z" fill="#231815"/>
<path d="M144.966 39.3902H142.82C142.82 39.3902 142.528 37.2448 141.704 35.0995H143.849C144.733 37.2448 144.966 39.3902 144.966 39.3902Z" fill="#231815"/>
<path d="M141.426 39.3902H139.28C139.28 39.3902 138.988 37.2448 138.163 35.0995H140.309C141.193 37.2448 141.426 39.3902 141.426 39.3902Z" fill="#231815"/>
<path d="M203.789 35.0923C203.424 40.0692 201.417 42.6768 195.622 43.7242V45.8985C196.534 45.7323 197.14 45.5734 197.14 45.5734C202.841 44.1215 205.497 41.131 206.067 35.0923H203.789Z" fill="#231815"/>
<path d="M201.308 39.3902H199.162C199.162 39.3902 198.87 37.2448 198.045 35.0995H200.191C201.074 37.2448 201.308 39.3902 201.308 39.3902Z" fill="#231815"/>
<path d="M197.768 39.3902H195.622C195.622 39.3902 195.33 37.2448 194.505 35.0995H196.651C197.534 37.2448 197.768 39.3902 197.768 39.3902Z" fill="#231815"/>
<path d="M80.8658 43.6375C83.8511 43.6375 90.9458 45.2195 93.099 46.2163V43.8687C90.0261 42.5974 84.3401 41.4272 80.8658 41.4272V43.6375Z" fill="#231815"/>
<path d="M81.8657 38.5378C84.7635 38.7112 89.7049 39.7875 92.099 40.6759V38.3428C89.2232 37.2809 85.0262 36.4358 81.8657 36.313V38.5378Z" fill="#231815"/>
<path d="M92.099 35.5618V33.2286C89.2232 32.1668 85.0262 31.3216 81.8657 31.1988V33.4164C84.7635 33.5898 89.7049 34.6733 92.099 35.5546V35.5618Z" fill="#231815"/>
<path d="M104.208 42.9874L105.062 35.0923L96.077 35.085V37.2665H102.529L101.909 42.9874H95.0844V45.1617H107.471V42.9874H104.208Z" fill="#231815"/>
<path d="M238.613 33.2142V31.4806H232.373V30.9171H230.314V31.4806H224.074V33.2142H230.314V34.0304H224.672V40.5243H233.978V41.3405H224.066V43.1752H233.949C233.905 43.9915 233.884 44.2226 231.051 44.2226V46.2163C235.248 46.2163 235.927 45.624 236.029 43.1752H238.621V41.3405H236.044V40.5243H237.949V34.0304H232.38V33.2142H238.621H238.613ZM230.314 38.9423H226.738V37.9599H230.314V38.9423ZM230.314 36.5947H226.738V35.6051H230.314V36.5947ZM235.883 38.9423H232.373V37.9599H235.883V38.9423ZM235.883 35.6123V36.6019H232.373V35.6123H235.883Z" fill="#231815"/>
<path d="M268.364 32.9469C269.065 32.3185 269.459 31.6973 269.883 30.9244H267.824C267.437 31.6178 266.992 32.1957 266.145 32.9469H265.153L264.102 30.9244H262.065L263.116 32.9469H261.605L260.554 30.9244H258.518L259.569 32.9469H256.868V36.8764H258.846V34.9189H269.299V36.8548H271.393V32.9469H268.357H268.364Z" fill="#231815"/>
<path d="M265.233 41.5933H271.401V39.5708H265.233V39.3468C266.934 38.4222 268.408 37.5699 268.408 37.5699V35.8074H259.861V37.6782H265.218L263.16 38.7256V39.578H256.876V41.6005H263.16V43.0597C263.16 44.1287 263.189 44.0493 260.7 44.0493V46.2307C265.058 46.2307 265.233 45.6023 265.233 42.6263V41.5933Z" fill="#231815"/>
<path d="M279.014 39.8597C279.51 39.5563 279.963 39.2168 280.371 38.8412C280.875 40.0258 281.525 41.1527 282.276 42.1495C281.379 43.038 280.284 43.782 278.999 44.201V46.2163C280.51 45.9707 282.101 44.9811 283.495 43.5581C284.897 44.9811 286.481 45.9707 287.992 46.2163V44.201C286.707 43.782 285.612 43.038 284.714 42.1495C285.466 41.1527 286.116 40.0258 286.619 38.8412C287.035 39.2168 287.488 39.5635 287.992 39.8669V37.3532C287.422 37.122 286.634 36.1469 286.503 35.4895H284.357C284.627 36.2697 285.043 37.0209 285.576 37.7144H284.904C284.641 38.6606 284.16 39.7008 283.488 40.6832C282.809 39.7008 282.335 38.6606 282.072 37.7144H281.4C281.933 37.0209 282.349 36.2697 282.619 35.4895H280.474C280.349 36.1469 279.568 37.122 278.999 37.3532C278.298 36.7681 277.904 35.8435 277.649 34.63H287.984V32.593H284.488V30.9099H282.459V32.593H277.474V30.9099H275.415V32.593H273.386V34.63H275.204C274.773 36.9703 274.138 37.9455 273.386 39.0001V42.2001C274.204 41.1816 274.97 40.0764 275.415 38.7906V46.2163H277.474V38.1478C277.824 38.6751 278.225 39.1807 278.999 39.8597H279.014Z" fill="#231815"/>
<path d="M229.088 43.912H227.03C227.373 44.8005 227.709 45.819 227.781 46.2163H229.818C229.738 45.7179 229.387 44.7138 229.081 43.912H229.088Z" fill="#231815"/>
<path d="M172.9 33.4814C172.929 32.7663 172.944 32.0079 172.944 31.1988H170.608C170.608 32.0151 170.593 32.7735 170.571 33.4814H166.039V35.6629H170.433C169.995 40.2714 168.688 42.2073 166.039 43.5436V45.9707C166.637 45.7179 167.185 45.4795 167.696 45.1689C170.579 43.4136 172.243 41.2033 172.761 35.6629H176.695C176.695 37.9961 176.557 40.7987 176.089 42.3301C175.863 43.0669 174.995 43.6303 172.418 43.5364V45.9635C177.681 45.9635 178.089 44.0348 178.403 42.8502C179.016 40.5459 179.119 36.5225 179.119 33.4814H172.9Z" fill="#231815"/>
<path d="M157.659 32.6435C157.871 32.1668 158.061 31.69 158.214 31.2061H155.718C154.732 33.7559 153.827 35.0417 151.594 36.313V38.7906C153.623 38.0177 155.251 36.5586 156.448 34.825H161.594C160.221 38.8629 158.17 41.9039 151.703 43.6014V45.9779C152.083 45.9346 152.725 45.7251 153.981 45.3495C160.499 43.3919 162.856 38.834 164.104 34.9478C164.323 34.2688 164.615 33.1419 164.703 32.6435H157.659Z" fill="#231815"/>
<path d="M112.405 26.5543V18.5363H120.017V26.5543H112.405ZM113.981 21.8157V21.1079H115.623V20.7611H114.149V20.0821H115.623V19.786H116.689V20.0821H118.215V20.7611H116.689V21.1079H118.382V21.8157H113.981ZM117.193 22.7403H115.178V23.181H117.193V22.7403ZM115.623 25.283V24.4089C114.886 25.0157 113.967 25.283 113.967 25.283V24.4306C114.514 24.2645 114.799 24.1345 115.368 23.7444H114.142V22.1769H118.207V23.7444H117.791L118.288 24.0622C118.178 24.1995 118.01 24.3728 118.01 24.3728C118.01 24.3728 118.207 24.4451 118.375 24.474V25.283C117.864 25.2107 117.134 24.8423 116.682 24.5245V25.283H115.616H115.623ZM118.959 25.5069V19.5765H113.463V25.5069H118.959ZM116.762 23.7516C116.945 23.9105 117.185 24.0261 117.353 24.1128C117.492 23.9611 117.572 23.8816 117.653 23.7516H116.762Z" fill="#231815"/>
<path d="M83.1353 26.5543C81.5441 25.7453 79.6025 24.5895 78.931 22.8487C78.2668 24.5895 76.3471 25.7453 74.7267 26.5543V25.1313C77.4566 23.9683 78.3179 22.0975 78.3179 20.5444V18.3052H79.5441V20.5444C79.5441 22.0758 80.4054 23.9683 83.1353 25.1313V26.5543Z" fill="#231815"/>
<path d="M65.9751 25.1818V26.5543C67.3036 25.6658 67.8875 24.6618 67.8875 24.6618V23.2388C67.8875 23.2388 66.8802 24.5606 65.9751 25.1891V25.1818Z" fill="#231815"/>
<path d="M65.9751 20.6456C66.7488 20.8189 67.3401 21.0934 67.8875 21.3896V22.4875C67.2525 22.1408 66.7196 21.9097 65.9751 21.7435V20.6456Z" fill="#231815"/>
<path d="M65.9751 19.8799V18.7891C66.7488 18.9625 67.3401 19.237 67.8875 19.5332V20.6239C67.2525 20.2772 66.7196 20.046 65.9751 19.8799Z" fill="#231815"/>
<path d="M73.9092 26.5471C73.7268 25.7019 73.3034 24.474 72.8728 23.5421H71.7195C71.8874 23.9033 72.0553 24.315 72.2158 24.734C71.5151 24.9651 70.9458 25.0879 70.267 25.2252C70.5663 24.5895 70.8217 23.8239 71.0553 22.9281H73.5881V21.8302H71.537V20.6167H73.5881V19.5259H71.537V18.3052H70.3838V19.5259H68.4057V20.6167H70.3838V21.8302H68.4057V22.9281H69.902C69.7196 23.7155 69.413 24.6112 69.0481 25.3913C68.8364 25.4202 68.632 25.4419 68.4057 25.4636V26.5471C68.6101 26.5398 68.7926 26.5182 68.7926 26.5182C70.2524 26.3882 71.3838 26.1281 72.5589 25.7236C72.6465 26.027 72.7195 26.3087 72.7633 26.5471H73.9165H73.9092Z" fill="#231815"/>
<path d="M91.9452 19.9882C92.427 19.1503 92.6751 18.3052 92.6751 18.3052H91.5803C91.5803 18.3052 91.3321 19.1503 90.8504 19.9882H90.2081V18.3124H89.0913V19.9882H88.449C87.9672 19.1503 87.7191 18.3052 87.7191 18.3052H86.6242C86.6242 18.3052 86.8797 19.1503 87.3541 19.9882H85.814V26.5471H86.9527V21.0862H92.3759V24.8712C92.3759 25.4347 92.2591 25.413 91.3686 25.413V26.5471C93.3978 26.4893 93.5145 26.2437 93.5145 24.6401V19.9882H91.9452ZM91.6825 21.7435H87.6315V24.8785H91.6825V21.7435ZM90.6095 23.9033H88.7117V22.7259H90.6095V23.9033Z" fill="#231815"/>
<path d="M102.383 24.4667V23.4771H99.0399V22.957H102.383V21.9963H99.0399V21.4618H102.113V20.53H99.0399V19.9955H102.383V19.0058H100.697C100.865 18.8253 101.011 18.5797 101.113 18.3124H99.9231C99.7115 18.6519 99.6093 18.7891 99.383 19.0058H97.5655C97.3393 18.7891 97.2444 18.6519 97.0327 18.3124H95.8356C95.9378 18.5797 96.0838 18.8253 96.2517 19.0058H94.5656V19.9955H97.9086V20.53H94.8284V21.4618H97.9086V21.9963H94.5656V22.957H97.9086V23.4771H94.5656V24.4667H97.3903C96.894 24.8424 95.894 25.3263 94.5656 25.4997V26.5543C94.7043 26.5543 94.8211 26.5254 94.8211 26.5254C96.894 26.2437 97.9816 25.3841 98.4706 24.7846C98.9596 25.3841 100.047 26.2365 102.12 26.5254C102.12 26.5254 102.237 26.5471 102.376 26.5543V25.4997C101.047 25.3263 100.047 24.8424 99.5509 24.4667H102.383Z" fill="#231815"/>
<path d="M109.682 19.4031C110.062 19.0636 110.273 18.7314 110.499 18.3124H109.39C109.186 18.688 108.945 18.9986 108.492 19.4031H107.959L107.397 18.3124H106.303L106.872 19.4031H106.054L105.492 18.3124H104.397L104.959 19.4031H103.507V21.5196H104.573V20.465H110.2V21.5124H111.332V19.4031H109.682Z" fill="#231815"/>
<path d="M108.003 24.0622H111.324V22.9715H108.003V22.8487C108.923 22.3503 109.711 21.888 109.711 21.888V20.9417H105.105V21.9458H107.989L106.879 22.5092V22.9715H103.492V24.0622H106.879V24.8496C106.879 25.4274 106.894 25.3841 105.558 25.3841V26.5615C107.908 26.5615 107.996 26.222 107.996 24.6184V24.0694L108.003 24.0622Z" fill="#231815"/>
<path d="M54.3185 19.4031C54.6981 19.0636 54.9097 18.7314 55.136 18.3124H54.0266C53.8149 18.688 53.5813 18.9986 53.1215 19.4031H52.5886L52.0266 18.3124H50.9318L51.4938 19.4031H50.6763L50.1143 18.3124H49.0194L49.5814 19.4031H48.1289V21.5196H49.1946V20.465H54.8222V21.5124H55.9535V19.4031H54.3185Z" fill="#231815"/>
<path d="M52.6324 24.0622H55.9535V22.9715H52.6324V22.8487C53.5521 22.3503 54.3404 21.888 54.3404 21.888V20.9417H49.742V21.9458H52.6251L51.5157 22.5092V22.9715H48.1289V24.0622H51.5157V24.8496C51.5157 25.4274 51.5303 25.3841 50.1945 25.3841V26.5615C52.5448 26.5615 52.6397 26.222 52.6397 24.6184V24.0694L52.6324 24.0622Z" fill="#231815"/>
<path d="M60.0556 23.1304C60.3257 22.9715 60.5665 22.7837 60.7855 22.5814C61.0556 23.2171 61.4059 23.8239 61.8147 24.3656C61.3329 24.8424 60.7417 25.2469 60.0483 25.4708V26.5543C60.8585 26.4243 61.7198 25.8897 62.4716 25.1241C63.2234 25.8897 64.0847 26.4243 64.8949 26.5543V25.4708C64.2015 25.2469 63.6175 24.8424 63.1285 24.3656C63.5373 23.8311 63.8803 23.2243 64.1504 22.5814C64.3766 22.7837 64.6175 22.9715 64.8876 23.1376V21.7796C64.581 21.6568 64.1577 21.1295 64.0847 20.7756H62.9314C63.0774 21.1945 63.3037 21.599 63.5883 21.9747H63.2307C63.092 22.4803 62.8292 23.0437 62.4643 23.571C62.0993 23.0437 61.8439 22.4803 61.6979 21.9747H61.3402C61.6249 21.599 61.8512 21.1945 61.9971 20.7756H60.8439C60.7782 21.1295 60.3549 21.6568 60.0483 21.7796C59.6687 21.4618 59.4571 20.9634 59.3184 20.3133H64.8876V19.2153H63.0044V18.3052H61.9096V19.2153H59.2235V18.3052H58.114V19.2153H57.0265V20.3133H58.0046C57.771 21.5774 57.4279 22.0975 57.0265 22.6681V24.3873C57.4644 23.8383 57.8805 23.246 58.114 22.5525V26.5543H59.2235V22.2058C59.4133 22.4875 59.6249 22.762 60.041 23.1304H60.0556Z" fill="#231815"/>
<path d="M19.6929 52.5657L19.0725 52.19C18.6856 51.9517 18.4082 51.7205 18.2404 51.4966C18.0725 51.2655 17.9922 51.0054 17.9922 50.7093C17.9922 50.2614 18.1455 49.9002 18.4593 49.6257C18.7732 49.3513 19.1746 49.2068 19.6783 49.2068C20.1819 49.2068 20.5907 49.3368 20.9921 49.6041V50.5287C20.5834 50.1386 20.1381 49.9436 19.6637 49.9436C19.4009 49.9436 19.1746 50.0086 19.0068 50.1242C18.8316 50.247 18.7513 50.4059 18.7513 50.5937C18.7513 50.7598 18.817 50.9187 18.9411 51.0704C19.0652 51.2149 19.2695 51.3738 19.5469 51.5327L20.1673 51.9011C20.8607 52.3128 21.2038 52.8402 21.2038 53.4758C21.2038 53.9309 21.0505 54.2993 20.7439 54.581C20.4374 54.8627 20.0432 55.0072 19.5469 55.0072C18.9849 55.0072 18.4739 54.8338 18.0068 54.4943V53.4614C18.4447 54.0176 18.9557 54.2993 19.5396 54.2993C19.7951 54.2993 20.0067 54.227 20.1819 54.0826C20.3498 53.9381 20.4374 53.7647 20.4374 53.548C20.4374 53.2013 20.1892 52.8763 19.6856 52.5657H19.6929Z" fill="#231815"/>
<path d="M26.5175 49.2718H27.335V54.9349H26.5175V52.4718H23.2986V54.9349H22.4811V49.2718H23.2986V51.7205H26.5175V49.2718Z" fill="#231815"/>
<path d="M37.342 54.9349H35.4078V49.2718H36.9041C37.3785 49.2718 37.7435 49.3368 38.0062 49.4596C38.269 49.5824 38.4734 49.7558 38.6121 49.9797C38.7508 50.1964 38.8237 50.4564 38.8237 50.7454C38.8237 51.3016 38.5318 51.6989 37.9552 51.9372C38.3712 52.0167 38.6997 52.1828 38.9478 52.4501C39.196 52.7174 39.3201 53.028 39.3201 53.3891C39.3201 53.6781 39.2471 53.9381 39.0938 54.162C38.9405 54.386 38.7216 54.5738 38.4369 54.7182C38.1449 54.8627 37.78 54.9277 37.3493 54.9277L37.342 54.9349ZM36.926 49.9941H36.2253V51.6916H36.7654C37.2033 51.6916 37.5099 51.6122 37.6924 51.446C37.8749 51.2799 37.9698 51.0704 37.9698 50.8104C37.9698 50.2686 37.6194 49.9941 36.926 49.9941ZM36.9844 52.414H36.2253V54.2054H37.0282C37.4734 54.2054 37.78 54.1693 37.9333 54.1042C38.0938 54.032 38.2179 53.9309 38.3128 53.7792C38.4077 53.6347 38.4588 53.4758 38.4588 53.3097C38.4588 53.1435 38.4077 52.9774 38.3055 52.8402C38.2033 52.6957 38.0573 52.5946 37.8749 52.5223C37.6851 52.4501 37.3931 52.414 36.9844 52.414Z" fill="#231815"/>
<path d="M40.3711 49.2718H41.1886V54.9349H40.3711V49.2718Z" fill="#231815"/>
<path d="M28.4153 52.1034C28.4153 53.6997 29.7291 55.0072 31.3422 55.0072C32.9553 55.0072 34.2764 53.707 34.2764 52.1034C34.2764 50.4998 32.9626 49.2068 31.3422 49.2068C29.7218 49.2068 28.4153 50.507 28.4153 52.1034ZM29.1744 52.1034C29.1744 50.9187 30.1451 49.958 31.3422 49.958C32.5392 49.958 33.51 50.9187 33.51 52.1034C33.51 53.288 32.5392 54.2487 31.3422 54.2487C30.1451 54.2487 29.1744 53.288 29.1744 52.1034Z" fill="#231815"/>
<path d="M34.7507 34.5795C35.5682 35.6847 35.9842 36.9127 35.9842 38.2851C35.9842 38.6391 35.955 38.9786 35.9039 39.3181C34.8529 37.1221 32.0792 35.5474 28.8092 35.5474C24.6415 35.5474 21.2693 38.1045 21.2693 41.2612C21.2693 44.4178 24.6415 46.9821 28.8092 46.9821H29.2618C31.8967 46.9821 34.1302 46.1297 35.955 44.425C37.7798 42.7203 38.6995 40.6327 38.6995 38.1623C38.6995 36.3059 38.3053 34.7962 37.5097 33.626C36.7141 32.4631 36.0061 31.7624 34.6266 30.9534C33.3274 30.1949 29.8384 28.873 29.145 28.6202C28.5392 28.3963 28.1742 27.9629 27.9187 27.6306C27.4078 26.9733 27.1523 26.2293 27.1523 25.4058C27.1523 24.2428 27.583 23.2893 28.4589 22.502C29.3348 21.7146 30.4515 21.3173 31.7653 21.3173C33.1595 21.3173 34.758 22.1697 36.7944 23.99L37.3491 24.4884V21.6063C35.3346 19.8366 33.5317 19.0059 31.5975 19.0059C29.6632 19.0059 27.9844 19.6415 26.6049 20.8912C25.2254 22.148 24.5174 23.7011 24.5174 25.4852C24.5174 25.6514 24.5174 25.8103 24.532 25.9692C24.4736 25.897 23.2035 24.5101 23.2035 22.4009C23.2035 20.6672 23.8605 19.2081 25.167 18.0307C26.4808 16.8533 28.1961 16.3188 30.0574 16.2826C33.9843 16.2032 37.3491 19.5115 37.3491 19.5115V16.7016C36.736 16.2682 33.9186 14.0145 29.8457 14C27.2691 13.9928 25.0648 14.8307 23.2327 16.4921C21.4007 18.1535 20.4883 20.1688 20.4883 22.5309C20.4883 24.2356 20.8605 25.6297 21.6196 26.7132C22.3714 27.7895 23.2838 28.6274 24.3641 29.2053C25.4444 29.7904 27.2399 30.5561 29.7508 31.5096C32.2617 32.4631 33.9259 33.4815 34.7507 34.5867V34.5795Z" fill="#0075C1"/>
<path d="M288.101 27.1177H158.871V14.8091H288.101V27.125V27.1177ZM159.637 26.3665H287.335V15.5603H159.637V26.3665Z" fill="#231815"/>
<path d="M165.316 18.3847H163.484V24.3945H162.725V17.6334H165.316V18.3847Z" fill="black"/>
<path d="M169.827 17.6551V18.1391H172.871V18.7892H165.988V18.1391H169.046V17.6551H169.834H169.827ZM171.623 23.7661C171.754 23.7661 171.805 23.7083 171.805 23.5783V21.6713H167.039V24.4451H166.265V21.079H172.571V23.8528C172.571 23.9972 172.557 24.12 172.477 24.2428C172.404 24.3584 172.294 24.4451 172.126 24.4451H170.944L170.827 23.795H167.739V22.0541H171.126V23.7661H171.623ZM171.863 20.7034H166.995V19.0926H171.863V20.7034ZM167.747 19.6271V20.1688H171.119V19.6271H167.747ZM168.447 22.6031V23.2388H170.426V22.6031H168.447Z" fill="black"/>
<path d="M174.031 19.6126L173.513 19.0926C174.068 18.7314 174.447 18.2619 174.681 17.6407L175.367 17.7562C175.331 17.8935 175.287 18.009 175.228 18.1391H176.914V18.7675H175.841C175.929 18.912 176.009 19.0564 176.075 19.2154L175.345 19.5043C175.287 19.3093 175.155 18.9409 175.068 18.7675H174.863C174.622 19.0853 174.345 19.3598 174.031 19.6126ZM176.644 19.0781C177.155 18.6519 177.418 18.2474 177.666 17.6407L178.33 17.749C178.287 17.8862 178.243 18.009 178.184 18.1391H180.447V18.7675H179.009C179.104 18.9264 179.199 19.0853 179.287 19.2515L178.6 19.5332C178.498 19.2731 178.374 19.0203 178.25 18.7675H177.849C177.695 19.0059 177.535 19.2009 177.338 19.4032H177.396V19.7571H180.009V20.4217H177.396V20.8912H180.447V21.5485H179.126V22.0397H180.389V22.6826H179.126V23.6144C179.126 23.9972 179.126 24.4523 178.506 24.4523H177.141L177.024 23.73H178.119C178.294 23.73 178.338 23.665 178.338 23.4772V22.6826H175.177C175.491 22.8848 176.031 23.441 176.243 23.7444L175.659 24.2428C175.374 23.86 174.973 23.4121 174.601 23.116L175.09 22.6826H173.666V22.0397H178.338V21.5485H173.593V20.8912H176.63V20.4217H174.075V19.7571H176.63V19.4032H177.082L176.644 19.0781Z" fill="black"/>
<path d="M185.345 20.8117C185.272 20.9345 185.192 21.0573 185.111 21.1801L184.52 20.6311C184.622 20.4867 184.688 20.3928 184.776 20.2411H183.754C183.578 20.4217 183.389 20.595 183.199 20.7612H184.476V21.3679C184.155 21.6713 183.922 21.8663 183.549 22.1047V22.242C184.009 22.1842 184.469 22.1336 184.929 22.0614V22.697C184.469 22.7837 184.009 22.8559 183.549 22.921V23.9033C183.549 24.1923 183.352 24.4379 183.046 24.4379H181.958L181.819 23.7444H182.651C182.776 23.7444 182.841 23.7083 182.841 23.5783V23.0076C182.308 23.0726 181.768 23.116 181.228 23.1593L181.17 22.4587C181.724 22.4298 182.287 22.3864 182.841 22.3214V21.8158H183.046C183.184 21.7219 183.454 21.4979 183.549 21.3679H182.403C182.097 21.5774 181.805 21.758 181.476 21.9314L181.148 21.2885C181.761 20.9923 182.257 20.6745 182.783 20.2411H181.228V19.5837H182.571V18.9047H181.411V18.2546H182.571V17.6768H183.25V18.2546H184.097V18.7892C184.301 18.493 184.44 18.2113 184.586 17.8862L185.235 18.1752C184.98 18.7025 184.717 19.1215 184.345 19.5837H184.827V20.1616C185.243 19.4176 185.469 18.4786 185.593 17.6407L186.316 17.7129C186.272 18.0596 186.221 18.4063 186.148 18.7531H188.024V19.5043H187.666C187.586 20.5372 187.403 21.6063 186.87 22.5092C187.25 22.9715 187.688 23.3616 188.148 23.7372L187.717 24.4379C187.206 24.055 186.797 23.6577 186.411 23.1521C185.921 23.7083 185.418 24.0767 184.776 24.4379L184.294 23.7444C184.951 23.4627 185.542 23.0799 185.994 22.5164C185.688 21.9819 185.462 21.4185 185.345 20.8117ZM184.016 18.9047H183.25V19.5837H183.469C183.666 19.367 183.849 19.1431 184.016 18.9047ZM186.943 19.5043H185.943C185.907 19.6054 185.878 19.7065 185.834 19.8077C185.907 20.5156 186.067 21.2235 186.418 21.8519C186.746 21.144 186.892 20.2772 186.943 19.5043Z" fill="black"/>
<path d="M189.045 20.1544L188.987 19.4754C189.476 19.4754 189.958 19.4609 190.44 19.4537C190.578 19.2587 190.71 19.0564 190.826 18.847H188.783V18.1824H191.863V17.6623H192.6V18.1824H195.651V18.847H193.819C194.264 19.0637 194.994 19.5765 195.359 19.9088L194.761 20.4144C194.52 20.1833 194.345 20.0533 194.075 19.8655C192.396 19.9955 190.724 20.1472 189.045 20.1544ZM194.753 23.73C194.753 24.1995 194.505 24.4668 194.023 24.4668H192.79L192.622 23.73H193.79C193.965 23.73 194.009 23.7228 194.009 23.5494V23.1521H190.418V24.4668H189.666V20.4722H194.753V23.73ZM190.425 21.0573V21.5196H194.016V21.0573H190.425ZM190.425 22.0903V22.567H194.016V22.0903H190.425ZM192.877 19.1431L193.454 18.847H191.702C191.52 19.1287 191.491 19.1792 191.294 19.4393C191.951 19.4393 192.615 19.3887 193.272 19.367C193.14 19.2876 193.009 19.2154 192.877 19.1431Z" fill="black"/>
<path d="M199.476 23.3544C200.125 23.3255 200.95 23.2388 201.447 22.7909C201.943 22.3431 202.125 21.6496 202.125 21.0068C202.125 20.3205 201.87 19.6632 201.25 19.2876C200.914 19.0853 200.593 19.0275 200.206 19.0059C200.096 20.1399 199.965 21.5052 199.41 22.5237C199.118 23.0726 198.673 23.5494 198.001 23.5494C196.958 23.5494 196.571 22.2925 196.571 21.4546C196.571 20.4433 196.98 19.5187 197.804 18.9047C198.454 18.428 199.191 18.2474 199.994 18.2474C201.001 18.2474 201.928 18.5364 202.534 19.3815C202.899 19.8871 203.03 20.4794 203.03 21.1007C203.03 22.2492 202.571 23.2532 201.468 23.7444C200.87 24.0117 200.337 24.0911 199.688 24.12L199.476 23.3544ZM197.877 19.9305C197.542 20.3783 197.374 21.014 197.374 21.563C197.374 21.9602 197.447 22.4514 197.804 22.6898C197.87 22.7331 197.958 22.7548 198.045 22.7548C198.578 22.7548 198.855 21.9675 198.972 21.5485C199.228 20.6673 199.315 19.9521 199.381 19.042C198.753 19.1503 198.264 19.4176 197.877 19.9305Z" fill="black"/>
<path d="M204.22 21.6496L203.884 20.7539C204.52 19.8727 204.841 18.7242 205.009 17.6623L205.797 17.7707C205.665 18.3558 205.527 18.9336 205.344 19.5043V24.4451H204.622V21.1079C204.49 21.3029 204.374 21.4618 204.22 21.6496ZM206.775 21.404L206.483 20.8045V23.5205H205.76V18.7964H206.483V19.2587C207.008 18.8397 207.432 18.2763 207.665 17.6479L208.395 17.7851C208.33 17.9729 208.264 18.1174 208.176 18.298H210.797V18.9336H210.271C210.074 19.4321 209.716 19.8871 209.315 20.2411C209.848 20.5228 210.322 20.66 210.921 20.7612L210.6 21.4474C209.892 21.2957 209.3 21.0645 208.68 20.6962C208.052 21.0718 207.483 21.2596 206.775 21.404ZM207.366 19.4321C207.198 19.6054 207.074 19.7138 206.892 19.8582L206.483 19.4465V20.7684C207.118 20.6673 207.512 20.5661 208.089 20.2627C207.811 20.0099 207.578 19.7499 207.366 19.4321ZM206.979 24.4451L206.687 23.795C208.038 23.7011 209.286 23.3977 210.3 22.4514L210.833 22.8921C209.768 23.8889 208.41 24.3223 206.979 24.4451ZM206.95 22.3286L206.695 21.7797C207.432 21.6352 208.14 21.4402 208.789 21.0501L209.286 21.4907C208.702 21.9025 207.658 22.1986 206.95 22.3286ZM207.008 23.3833L206.76 22.762C207.724 22.6248 208.738 22.3503 209.534 21.758L210.045 22.1842C209.213 22.8271 208.038 23.2243 207.008 23.3833ZM209.534 18.9409H207.789V18.9553C208.023 19.302 208.366 19.6199 208.716 19.8655C209.008 19.6271 209.359 19.2804 209.534 18.9409Z" fill="black"/>
<path d="M217.234 20.66C216.789 21.0573 215.928 21.5919 215.373 21.8158V21.8736H218.439V22.5815H215.373V23.8744C215.373 24.3078 214.979 24.474 214.775 24.474H213.344L213.205 23.7083H214.381C214.578 23.7083 214.585 23.6144 214.585 23.4772V22.5815H211.527V21.8736H214.585V21.3101H214.906C215.256 21.2018 215.709 20.9851 215.986 20.7395H212.738V20.0605H217.234V20.66ZM212.242 17.9513L212.95 17.6912C213.169 18.0018 213.381 18.4136 213.497 18.7747L213.329 18.8397H214.789C214.643 18.5002 214.497 18.2185 214.293 17.9079L215.016 17.6334C215.205 17.9224 215.468 18.428 215.57 18.7603L215.329 18.8397H216.512C216.709 18.4569 216.848 18.0596 216.994 17.6551L217.833 17.9007C217.672 18.2619 217.548 18.5002 217.351 18.8397H218.278V20.4939H217.541V19.526H212.468V20.4939H211.731V18.8397H212.68C212.556 18.5291 212.403 18.233 212.242 17.9513Z" fill="black"/>
<path d="M224.096 20.8189H219.68V20.1111H222.191V19.1648H219.147V18.4425H222.191V17.6551H222.928V18.4425H226.001V19.1648H222.928V20.1111H224.986V20.8334C224.497 21.6207 223.964 22.3142 223.234 22.9065C224.118 23.3616 224.993 23.5422 225.986 23.6072L225.694 24.4234C224.614 24.2573 223.468 23.9611 222.534 23.3977C221.592 23.9611 220.563 24.2501 219.497 24.4523L219.154 23.6361C220.088 23.5205 221.015 23.3399 221.855 22.9137C221.285 22.4442 220.899 21.9675 220.512 21.3463L221.125 20.9634C221.534 21.5774 221.957 22.0541 222.556 22.4876C223.198 22.0108 223.643 21.4691 224.096 20.8189Z" fill="black"/>
<path d="M227.57 19.6271H226.738V18.9481H227.57V17.6912H228.329V18.9481H228.935V19.6271H228.329V20.9706C228.512 20.8984 228.687 20.8262 228.869 20.7467L228.847 21.4763C228.665 21.5774 228.526 21.6424 228.329 21.7219V23.9033C228.329 24.2428 228.147 24.4668 227.789 24.4668H226.855L226.774 23.7228H227.388C227.548 23.7228 227.57 23.665 227.57 23.5061V22.0036C227.285 22.1047 227.037 22.1842 226.738 22.2492L226.672 21.4546C226.979 21.3896 227.278 21.3174 227.57 21.2235V19.6271ZM233.146 21.9169V22.4659C232.949 22.8776 232.643 23.2027 232.285 23.4916C232.789 23.6577 233.168 23.7083 233.694 23.7228L233.358 24.4668C232.745 24.3584 232.154 24.1851 231.606 23.9033C231.103 24.1634 230.643 24.3295 230.095 24.4668L229.811 23.7516C230.234 23.7083 230.541 23.6433 230.935 23.4916C230.687 23.311 230.541 23.1666 230.373 22.9137L230.964 22.5959C231.132 22.8487 231.329 23.0076 231.584 23.1593C231.913 22.9499 232.117 22.7765 232.351 22.4659H230.439C230.081 23.2677 229.672 23.8528 229.052 24.4668L228.519 23.9683C229.263 23.2171 229.782 22.4948 230.037 21.4546H229.001V20.8478H230.139C230.154 20.6962 230.161 20.5445 230.168 20.3928H229.154V19.786H232.132C232.38 19.3815 232.584 18.9553 232.767 18.5147L233.453 18.7747C233.307 19.1359 233.132 19.4537 232.935 19.786H233.438V20.3928H230.862C230.862 20.5445 230.862 20.6962 230.847 20.8478H233.584V21.4546H230.752C230.723 21.6135 230.679 21.7652 230.636 21.9169H233.146ZM231.205 18.7097C230.453 18.7747 229.723 18.8036 229.154 18.8036L228.928 18.1174C230.314 18.1102 231.855 18.0885 233.176 17.6551L233.453 18.3197C232.862 18.5002 232.008 18.6375 231.205 18.7097ZM230.322 19.6271L229.585 19.7788C229.512 19.526 229.402 19.2154 229.293 18.977L230.037 18.8181C230.147 19.0781 230.241 19.3526 230.322 19.6271ZM231.716 19.5837L230.971 19.7282C230.898 19.4393 230.818 19.1648 230.716 18.8831L231.482 18.7386C231.577 19.0203 231.665 19.2948 231.716 19.5837Z" fill="black"/>
<path d="M234.38 21.9458V21.2812H235.862V20.6095H234.344V19.9521H235.154C235.11 19.6271 235.044 19.2226 234.935 18.9192H234.489V18.2619H235.862V17.6623H236.562V18.2619H237.825V18.9192H237.482C237.395 19.302 237.343 19.5765 237.219 19.9521H237.935V20.6095H236.562V21.2812H237.767V21.9458H236.701C236.964 22.2636 237.249 22.5526 237.599 22.7693L237.234 23.4194C237.022 23.2388 236.73 22.8993 236.562 22.6465V24.4595H235.862V22.6681C235.468 23.181 235.095 23.5783 234.57 23.9611L234.168 23.2966C234.76 22.8993 235.234 22.5309 235.65 21.9458H234.38ZM235.599 18.9264C235.687 19.1937 235.789 19.6777 235.825 19.9594H236.562C236.65 19.6704 236.745 19.2226 236.789 18.9264H235.599ZM238.905 18.8831V19.981H241.161V20.6745H240.446V24.4595H239.686V20.6745H238.905V20.8695C238.905 22.2636 238.774 23.2966 237.927 24.4595L237.219 23.9756C238.03 23.0149 238.176 22.1119 238.176 20.8912V18.2041C239.161 18.2041 239.898 18.0596 240.745 17.6623L241.161 18.3413C240.467 18.6664 239.665 18.8542 238.905 18.8831Z" fill="black"/>
<path d="M242.555 19.6921L241.935 19.3309C242.241 18.847 242.438 18.3197 242.504 17.7562L243.219 17.8429C243.175 18.0452 243.132 18.2474 243.073 18.4425H243.664V17.6695H244.372V18.4425H245.92V19.1215H244.372V19.8004H246.044V20.4939H244.372V21.1007H245.854V23.4194C245.854 23.7878 245.745 23.9539 245.358 23.9539H244.701L244.57 23.2243H244.993C245.095 23.2243 245.153 23.1521 245.153 23.0654V21.7869H244.372V24.4595H243.664V21.7869H242.949V23.99H242.234V21.1007H243.664V20.4939H241.956V19.8004H243.664V19.1215H242.84C242.752 19.3309 242.664 19.4971 242.555 19.6921ZM247.102 18.0885V22.7476H246.365V18.0885H247.102ZM248.496 17.6768V23.9033C248.496 24.3006 248.219 24.4595 247.854 24.4595H246.781L246.65 23.6794H247.533C247.672 23.6794 247.715 23.6361 247.715 23.4916V17.6768H248.496Z" fill="black"/>
<path d="M252.635 18.2113V17.6768H253.401V18.2113H256.321V18.8759H255.182V19.4104H256.365V20.0027H255.182V21.1151H251.759V20.0027H250.752V21.3174C250.752 22.3286 250.62 23.5422 250.058 24.409L249.46 23.8456C249.679 23.5205 249.796 23.2243 249.869 22.8415C249.956 22.3503 250.007 21.8013 250.007 21.3029V18.2113H252.635ZM254.73 22.1625H250.92V21.5124H255.606V22.1625C255.306 22.6754 254.869 23.0582 254.365 23.376C255.036 23.5711 255.701 23.665 256.394 23.73L256.058 24.4451C255.19 24.3512 254.35 24.1489 253.547 23.8022C252.672 24.1778 251.825 24.3656 250.876 24.4595L250.577 23.7878C251.321 23.7155 251.993 23.5927 252.708 23.3833C252.321 23.1521 251.963 22.8921 251.664 22.5526L252.263 22.1697C252.664 22.567 253.036 22.8343 253.555 23.0726C254.036 22.8415 254.409 22.5887 254.73 22.1625ZM250.759 18.8686V19.4032H251.766V18.8686H250.759ZM252.474 18.8686V19.4032H254.482V18.8686H252.474ZM252.474 19.9955V20.53H254.482V19.9955H252.474Z" fill="black"/>
<path d="M257.058 23.7516H258.89V17.749H259.649V24.5029H257.058V23.7516Z" fill="black"/>
<path d="M263.956 19.5115H261.73V18.7747H263.116V17.6768H263.89V18.7747H265.168V19.5115H264.744C264.613 20.2555 264.438 20.9923 264.146 21.6858C264.503 22.0903 264.956 22.632 265.211 23.1015L264.584 23.5855C264.335 23.1738 264.087 22.8198 263.788 22.437C263.357 23.2027 262.81 23.7661 262.124 24.3151L261.598 23.6505C262.292 23.1377 262.824 22.5742 263.248 21.8086C262.803 21.3318 262.387 20.9417 261.861 20.5517L262.423 20.046C262.832 20.3711 263.219 20.7178 263.584 21.0934C263.781 20.5661 263.883 20.0605 263.956 19.5115ZM266.788 22.307L266.036 22.6681C265.81 22.0253 265.489 21.3246 265.109 20.7539L265.81 20.3855C266.219 20.9851 266.518 21.628 266.788 22.307ZM267.956 19.0131H268.569V19.786H267.956V23.795C267.956 24.3873 267.598 24.4523 267.087 24.4523H265.97L265.773 23.7083H266.919C267.138 23.7083 267.167 23.6939 267.167 23.5349V19.786H265.394V19.0131H267.167V17.6768H267.956V19.0131Z" fill="black"/>
<path d="M272.759 22.1625C271.832 22.7548 270.678 23.1015 269.598 23.3255L269.379 22.6898C270.43 22.5598 271.474 22.2564 272.394 21.7291C272.321 21.6641 272.255 21.6135 272.175 21.563C271.357 21.9241 270.562 22.1264 269.686 22.2781L269.467 21.6713C270.379 21.5196 271.284 21.3174 272.124 20.9273H269.824V19.4898C269.708 19.5332 269.598 19.5765 269.489 19.6199L269.189 18.9842C270.065 18.7458 270.788 18.3413 271.372 17.6407L272.153 17.7996C272.08 17.8935 272.007 17.9874 271.934 18.0741H274.467V18.6519C274.328 18.8181 274.167 18.9625 274.014 19.107H275.7V20.9273H273.759C273.839 21.2162 273.934 21.4546 274.08 21.7146C274.481 21.4907 274.773 21.2885 275.094 20.9634L275.634 21.3824C275.255 21.7074 274.853 21.9675 274.423 22.2058C274.904 22.7982 275.598 23.2027 276.306 23.4772L275.824 24.1923C275.138 23.8456 274.591 23.441 274.102 22.8559C273.649 22.3142 273.306 21.6785 273.182 20.9851C273.051 21.0862 272.926 21.1657 272.788 21.2451C273.488 21.7363 273.802 22.4514 273.802 23.2893C273.802 23.5566 273.773 24.0767 273.554 24.2645C273.357 24.4379 273.072 24.4595 272.817 24.4595H272.094L271.926 23.7444H272.627C273.007 23.7444 273.08 23.6505 273.08 23.2966C273.08 23.1738 273.065 23.0726 273.043 22.9499C271.948 23.6216 270.759 24.0045 269.51 24.2934L269.277 23.6505C270.489 23.441 271.839 23.0654 272.883 22.4009C272.839 22.2997 272.817 22.2564 272.759 22.1625ZM270.54 19.6777V20.3494H272.372V19.6777H270.54ZM272.948 19.107C273.116 18.9625 273.284 18.8181 273.423 18.6519H271.321C271.116 18.8108 270.832 18.977 270.605 19.107H272.948ZM273.065 19.6777V20.3494H274.977V19.6777H273.065Z" fill="black"/>
<path d="M276.883 19.7138V19.0203H277.897V17.6768H278.591V19.0203H279.364V19.7138H278.591V20.1327C278.868 20.6528 279.196 21.0573 279.605 21.4763L279.226 22.1769C278.904 21.7797 278.824 21.628 278.591 21.1801V24.4595H277.897V21.1079C277.678 21.8013 277.488 22.2275 277.101 22.8415L276.824 21.8591C277.167 21.3679 277.423 20.8695 277.627 20.2627C277.707 20.0316 277.737 19.9305 277.802 19.7138H276.883ZM283.904 23.7372L283.539 24.4595C282.766 24.2067 282.109 23.8961 281.481 23.3616C280.89 23.8672 280.204 24.1851 279.481 24.4595L279.094 23.7878C279.788 23.5638 280.408 23.2966 280.97 22.8343C280.503 22.2636 280.225 21.6785 280.014 20.9779L280.693 20.7828C280.875 21.3607 281.116 21.8374 281.51 22.307C281.904 21.8302 282.145 21.3318 282.35 20.7539L283.058 20.9851C282.809 21.6713 282.503 22.2636 282.028 22.8271C282.598 23.2966 283.196 23.5494 283.904 23.7372ZM279.751 20.9345L279.233 20.4C279.773 20.0966 280.167 19.7499 280.517 19.237L281.131 19.5621C280.773 20.1038 280.306 20.5878 279.751 20.9345ZM281.919 17.684V18.3847H283.751V19.0709H279.408V18.3847H281.174V17.684H281.919ZM283.415 20.9417C282.787 20.5445 282.393 20.1616 281.955 19.5621L282.568 19.2081C282.992 19.7138 283.335 19.9955 283.897 20.3422L283.415 20.9417Z" fill="black"/>
</g>
<defs>
<clipPath id="clip0_294_8085">
<rect width="270" height="41" fill="white" transform="translate(18 14)"/>
</clipPath>
</defs>
</svg>
