<svg width="450" height="100" viewBox="0 0 450 100" fill="none" xmlns="http://www.w3.org/2000/svg">
<path d="M0 0H450V70C450 86.5685 436.569 100 420 100H0V0Z" fill="white"/>
<g clip-path="url(#clip0_294_5576)">
<path d="M263.619 45.82H266.859V62.19C271.189 60.94 275.769 57.96 280.209 53.01L280.239 57.4C276.139 61.32 272.259 64.3 265.599 66.02C265.109 66.15 264.349 66.34 263.619 66.38V45.82Z" fill="#231815"/>
<path d="M355.489 55.9H361.709V62.22C361.709 63.7 361.589 63.59 358.159 63.59V66.61C363.859 66.61 364.529 65.8 364.529 61.68V45.99H355.489V55.9ZM358.309 48.51H361.699V49.88H358.309V48.51ZM358.309 52.06H361.699V53.52H358.309V52.06Z" fill="#231815"/>
<path d="M347.819 66.6V55.89H354.029V45.99H344.989V66.6H347.819ZM347.819 48.51H351.209V49.88H347.819V48.51ZM347.819 52.06H351.209V53.52H347.819V52.06Z" fill="#231815"/>
<path d="M179.769 54.42H164.179V57.6H179.769V54.42Z" fill="#231815"/>
<path d="M96.8991 49.74C98.1191 47.58 98.7591 45.41 98.7591 45.41H95.9691C95.9691 45.41 95.3291 47.58 94.1091 49.74H92.4691V45.43H89.6291V49.74H87.9891C86.7691 47.58 86.1291 45.41 86.1291 45.41H83.3391C83.3391 45.41 83.9791 47.58 85.1991 49.74H81.2891V66.6H84.1791V52.56H97.9791V62.29C97.9791 63.75 97.6791 63.68 95.4091 63.68V66.6C100.569 66.46 100.869 65.82 100.869 61.7V49.73H96.8891L96.8991 49.74ZM96.2191 54.25H85.9291V62.31H96.2191V54.25ZM93.4891 59.79H88.6591V56.76H93.4891V59.79Z" fill="#231815"/>
<path d="M116.239 61.24H123.429V58.7H114.919V57.36H123.429V54.89H114.919V53.52H122.739V51.12H114.919V49.75H123.429V47.21H119.149C119.569 46.74 119.939 46.11 120.209 45.43H117.169C116.629 46.3 116.369 46.65 115.809 47.21H111.199C110.639 46.65 110.379 46.3 109.839 45.43H106.799C107.059 46.12 107.429 46.74 107.859 47.21H103.569V49.75H112.079V51.12H104.249V53.52H112.079V54.89H103.569V57.36H112.079V58.7H103.569V61.24H110.759C109.489 62.2 106.949 63.44 103.569 63.89V66.61C103.919 66.59 104.219 66.54 104.219 66.54C109.489 65.81 112.259 63.6 113.509 62.07C114.759 63.6 117.519 65.81 122.789 66.54C122.789 66.54 123.089 66.59 123.439 66.61V63.89C120.059 63.44 117.519 62.2 116.249 61.24H116.239Z" fill="#231815"/>
<path d="M185.009 65.95C194.669 64.16 199.369 58.46 201.919 51.21H198.459C196.429 57.49 191.579 62.19 182.499 62.97V66.24C183.409 66.17 184.209 66.1 185.019 65.95H185.009Z" fill="#231815"/>
<path d="M201.909 45.81H200.049V49.85H201.909V45.81Z" fill="#231815"/>
<path d="M198.679 45.81H196.819V49.85H198.679V45.81Z" fill="#231815"/>
<path d="M182.489 45.81V48.86C182.489 48.86 186.619 49.51 191.389 51.06V48.01C186.619 46.46 182.489 45.81 182.489 45.81Z" fill="#231815"/>
<path d="M182.489 51.06V54.11C182.489 54.11 186.619 54.76 191.389 56.31V53.26C186.619 51.71 182.489 51.06 182.489 51.06Z" fill="#231815"/>
<path d="M302.729 65.95C312.379 64.16 317.089 58.46 319.639 51.21H316.179C314.149 57.49 309.299 62.19 300.219 62.97V66.24C301.129 66.17 301.929 66.1 302.739 65.95H302.729Z" fill="#231815"/>
<path d="M319.629 45.81H317.769V49.85H319.629V45.81Z" fill="#231815"/>
<path d="M316.399 45.81H314.539V49.85H316.399V45.81Z" fill="#231815"/>
<path d="M300.209 45.81V48.86C300.209 48.86 304.339 49.51 309.109 51.06V48.01C304.339 46.46 300.209 45.81 300.209 45.81Z" fill="#231815"/>
<path d="M300.209 51.06V54.11C300.209 54.11 304.339 54.76 309.109 56.31V53.26C304.339 51.71 300.209 51.06 300.209 51.06Z" fill="#231815"/>
<path d="M217.359 51.2C216.869 58.09 214.109 61.7 206.169 63.15V66.16C207.419 65.93 208.249 65.71 208.249 65.71C216.059 63.7 219.699 59.56 220.479 51.2H217.359Z" fill="#231815"/>
<path d="M213.949 57.15H211.009C211.009 57.15 210.609 54.18 209.479 51.21H212.419C213.629 54.18 213.949 57.15 213.949 57.15Z" fill="#231815"/>
<path d="M209.099 57.15H206.159C206.159 57.15 205.759 54.18 204.629 51.21H207.569C208.779 54.18 209.099 57.15 209.099 57.15Z" fill="#231815"/>
<path d="M294.539 51.2C294.039 58.09 291.289 61.7 283.349 63.15V66.16C284.599 65.93 285.429 65.71 285.429 65.71C293.239 63.7 296.879 59.56 297.659 51.2H294.539Z" fill="#231815"/>
<path d="M291.139 57.15H288.199C288.199 57.15 287.799 54.18 286.669 51.21H289.609C290.819 54.18 291.139 57.15 291.139 57.15Z" fill="#231815"/>
<path d="M286.289 57.15H283.349C283.349 57.15 282.949 54.18 281.819 51.21H284.759C285.969 54.18 286.289 57.15 286.289 57.15Z" fill="#231815"/>
<path d="M126.129 63.03C130.219 63.03 139.939 65.22 142.889 66.6V63.35C138.679 61.59 130.889 59.97 126.129 59.97V63.03Z" fill="#231815"/>
<path d="M127.499 55.97C131.469 56.21 138.239 57.7 141.519 58.93V55.7C137.579 54.23 131.829 53.06 127.499 52.89V55.97Z" fill="#231815"/>
<path d="M141.519 51.85V48.62C137.579 47.15 131.829 45.98 127.499 45.81V48.88C131.469 49.12 138.239 50.62 141.519 51.84V51.85Z" fill="#231815"/>
<path d="M158.109 62.13L159.279 51.2L146.969 51.19V54.21H155.809L154.959 62.13H145.609V65.14H162.579V62.13H158.109Z" fill="#231815"/>
<path d="M342.249 48.6V46.2H333.699V45.42H330.879V46.2H322.329V48.6H330.879V49.73H323.149V58.72H335.899V59.85H322.319V62.39H335.859C335.799 63.52 335.769 63.84 331.889 63.84V66.6C337.639 66.6 338.569 65.78 338.709 62.39H342.259V59.85H338.729V58.72H341.339V49.73H333.709V48.6H342.259H342.249ZM330.879 56.53H325.979V55.17H330.879V56.53ZM330.879 53.28H325.979V51.91H330.879V53.28ZM338.509 56.53H333.699V55.17H338.509V56.53ZM338.509 51.92V53.29H333.699V51.92H338.509Z" fill="#231815"/>
<path d="M383.009 48.23C383.969 47.36 384.509 46.5 385.089 45.43H382.269C381.739 46.39 381.129 47.19 379.969 48.23H378.609L377.169 45.43H374.379L375.819 48.23H373.749L372.309 45.43H369.519L370.959 48.23H367.259V53.67H369.969V50.96H384.289V53.64H387.159V48.23H382.999H383.009Z" fill="#231815"/>
<path d="M378.719 60.2H387.169V57.4H378.719V57.09C381.049 55.81 383.069 54.63 383.069 54.63V52.19H371.359V54.78H378.699L375.879 56.23V57.41H367.269V60.21H375.879V62.23C375.879 63.71 375.919 63.6 372.509 63.6V66.62C378.479 66.62 378.719 65.75 378.719 61.63V60.2Z" fill="#231815"/>
<path d="M397.599 57.8C398.279 57.38 398.899 56.91 399.459 56.39C400.149 58.03 401.039 59.59 402.069 60.97C400.839 62.2 399.339 63.23 397.579 63.81V66.6C399.649 66.26 401.829 64.89 403.739 62.92C405.659 64.89 407.829 66.26 409.899 66.6V63.81C408.139 63.23 406.639 62.2 405.409 60.97C406.439 59.59 407.329 58.03 408.019 56.39C408.589 56.91 409.209 57.39 409.899 57.81V54.33C409.119 54.01 408.039 52.66 407.859 51.75H404.919C405.289 52.83 405.859 53.87 406.589 54.83H405.669C405.309 56.14 404.649 57.58 403.729 58.94C402.799 57.58 402.149 56.14 401.789 54.83H400.869C401.599 53.87 402.169 52.83 402.539 51.75H399.599C399.429 52.66 398.359 54.01 397.579 54.33C396.619 53.52 396.079 52.24 395.729 50.56H409.889V47.74H405.099V45.41H402.319V47.74H395.489V45.41H392.669V47.74H389.889V50.56H392.379C391.789 53.8 390.919 55.15 389.889 56.61V61.04C391.009 59.63 392.059 58.1 392.669 56.32V66.6H395.489V55.43C395.969 56.16 396.519 56.86 397.579 57.8H397.599Z" fill="#231815"/>
<path d="M329.199 63.41H326.379C326.849 64.64 327.309 66.05 327.409 66.6H330.199C330.089 65.91 329.609 64.52 329.189 63.41H329.199Z" fill="#231815"/>
<path d="M252.219 48.97C252.259 47.98 252.279 46.93 252.279 45.81H249.079C249.079 46.94 249.059 47.99 249.029 48.97H242.819V51.99H248.839C248.239 58.37 246.449 61.05 242.819 62.9V66.26C243.639 65.91 244.389 65.58 245.089 65.15C249.039 62.72 251.319 59.66 252.029 51.99H257.419C257.419 55.22 257.229 59.1 256.589 61.22C256.279 62.24 255.089 63.02 251.559 62.89V66.25C258.769 66.25 259.329 63.58 259.759 61.94C260.599 58.75 260.739 53.18 260.739 48.97H252.219Z" fill="#231815"/>
<path d="M231.339 47.81C231.629 47.15 231.889 46.49 232.099 45.82H228.679C227.329 49.35 226.089 51.13 223.029 52.89V56.32C225.809 55.25 228.039 53.23 229.679 50.83H236.729C234.849 56.42 232.039 60.63 223.179 62.98V66.27C223.699 66.21 224.579 65.92 226.299 65.4C235.229 62.69 238.459 56.38 240.169 51C240.469 50.06 240.869 48.5 240.989 47.81H231.339Z" fill="#231815"/>
<path d="M169.341 39.38V28.28H179.771V39.38H169.341ZM171.501 32.82V31.84H173.751V31.36H171.731V30.42H173.751V30.01H175.211V30.42H177.301V31.36H175.211V31.84H177.531V32.82H171.501ZM175.901 34.1H173.141V34.71H175.901V34.1ZM173.751 37.62V36.41C172.741 37.25 171.481 37.62 171.481 37.62V36.44C172.231 36.21 172.621 36.03 173.401 35.49H171.721V33.32H177.291V35.49H176.721L177.401 35.93C177.251 36.12 177.021 36.36 177.021 36.36C177.021 36.36 177.291 36.46 177.521 36.5V37.62C176.821 37.52 175.821 37.01 175.201 36.57V37.62H173.741H173.751ZM178.321 37.93V29.72H170.791V37.93H178.321ZM175.311 35.5C175.561 35.72 175.891 35.88 176.121 36C176.311 35.79 176.421 35.68 176.531 35.5H175.311Z" fill="#231815"/>
<path d="M129.241 39.38C127.061 38.26 124.401 36.66 123.481 34.25C122.571 36.66 119.941 38.26 117.721 39.38V37.41C121.461 35.8 122.641 33.21 122.641 31.06V27.96H124.321V31.06C124.321 33.18 125.501 35.8 129.241 37.41V39.38Z" fill="#231815"/>
<path d="M105.731 37.48V39.38C107.551 38.15 108.351 36.76 108.351 36.76V34.79C108.351 34.79 106.971 36.62 105.731 37.49V37.48Z" fill="#231815"/>
<path d="M105.731 31.2C106.791 31.44 107.601 31.82 108.351 32.23V33.75C107.481 33.27 106.751 32.95 105.731 32.72V31.2Z" fill="#231815"/>
<path d="M105.731 30.14V28.63C106.791 28.87 107.601 29.25 108.351 29.66V31.17C107.481 30.69 106.751 30.37 105.731 30.14Z" fill="#231815"/>
<path d="M116.601 39.37C116.351 38.2 115.771 36.5 115.181 35.21H113.601C113.831 35.71 114.061 36.28 114.281 36.86C113.321 37.18 112.541 37.35 111.611 37.54C112.021 36.66 112.371 35.6 112.691 34.36H116.161V32.84H113.351V31.16H116.161V29.65H113.351V27.96H111.771V29.65H109.061V31.16H111.771V32.84H109.061V34.36H111.111C110.861 35.45 110.441 36.69 109.941 37.77C109.651 37.81 109.371 37.84 109.061 37.87V39.37C109.341 39.36 109.591 39.33 109.591 39.33C111.591 39.15 113.141 38.79 114.751 38.23C114.871 38.65 114.971 39.04 115.031 39.37H116.611H116.601Z" fill="#231815"/>
<path d="M141.311 30.29C141.971 29.13 142.311 27.96 142.311 27.96H140.811C140.811 27.96 140.471 29.13 139.811 30.29H138.931V27.97H137.401V30.29H136.521C135.861 29.13 135.521 27.96 135.521 27.96H134.021C134.021 27.96 134.371 29.13 135.021 30.29H132.911V39.37H134.471V31.81H141.901V37.05C141.901 37.83 141.741 37.8 140.521 37.8V39.37C143.301 39.29 143.461 38.95 143.461 36.73V30.29H141.311ZM140.951 32.72H135.401V37.06H140.951V32.72ZM139.481 35.71H136.881V34.08H139.481V35.71Z" fill="#231815"/>
<path d="M155.611 36.49V35.12H151.031V34.4H155.611V33.07H151.031V32.33H155.241V31.04H151.031V30.3H155.611V28.93H153.301C153.531 28.68 153.731 28.34 153.871 27.97H152.241C151.951 28.44 151.811 28.63 151.501 28.93H149.011C148.701 28.63 148.571 28.44 148.281 27.97H146.641C146.781 28.34 146.981 28.68 147.211 28.93H144.901V30.3H149.481V31.04H145.261V32.33H149.481V33.07H144.901V34.4H149.481V35.12H144.901V36.49H148.771C148.091 37.01 146.721 37.68 144.901 37.92V39.38C145.091 39.38 145.251 39.34 145.251 39.34C148.091 38.95 149.581 37.76 150.251 36.93C150.921 37.76 152.411 38.94 155.251 39.34C155.251 39.34 155.411 39.37 155.601 39.38V37.92C153.781 37.68 152.411 37.01 151.731 36.49H155.611Z" fill="#231815"/>
<path d="M165.611 29.48C166.131 29.01 166.421 28.55 166.731 27.97H165.211C164.931 28.49 164.601 28.92 163.981 29.48H163.251L162.481 27.97H160.981L161.761 29.48H160.641L159.871 27.97H158.371L159.141 29.48H157.151V32.41H158.611V30.95H166.321V32.4H167.871V29.48H165.611Z" fill="#231815"/>
<path d="M163.311 35.93H167.861V34.42H163.311V34.25C164.571 33.56 165.651 32.92 165.651 32.92V31.61H159.341V33H163.291L161.771 33.78V34.42H157.131V35.93H161.771V37.02C161.771 37.82 161.791 37.76 159.961 37.76V39.39C163.181 39.39 163.301 38.92 163.301 36.7V35.94L163.311 35.93Z" fill="#231815"/>
<path d="M89.7612 29.48C90.2812 29.01 90.5713 28.55 90.8813 27.97H89.3613C89.0713 28.49 88.7513 28.92 88.1213 29.48H87.3913L86.6213 27.97H85.1213L85.8913 29.48H84.7713L84.0013 27.97H82.5013L83.2713 29.48H81.2812V32.41H82.7413V30.95H90.4513V32.4H92.0013V29.48H89.7612Z" fill="#231815"/>
<path d="M87.4513 35.93H92.0013V34.42H87.4513V34.25C88.7113 33.56 89.7913 32.92 89.7913 32.92V31.61H83.4913V33H87.4412L85.9212 33.78V34.42H81.2812V35.93H85.9212V37.02C85.9212 37.82 85.9413 37.76 84.1113 37.76V39.39C87.3313 39.39 87.4613 38.92 87.4613 36.7V35.94L87.4513 35.93Z" fill="#231815"/>
<path d="M97.6213 34.64C97.9913 34.42 98.3213 34.16 98.6213 33.88C98.9913 34.76 99.4712 35.6 100.031 36.35C99.3712 37.01 98.5613 37.57 97.6113 37.88V39.38C98.7213 39.2 99.9013 38.46 100.931 37.4C101.961 38.46 103.141 39.2 104.251 39.38V37.88C103.301 37.57 102.501 37.01 101.831 36.35C102.391 35.61 102.861 34.77 103.231 33.88C103.541 34.16 103.871 34.42 104.241 34.65V32.77C103.821 32.6 103.241 31.87 103.141 31.38H101.561C101.761 31.96 102.071 32.52 102.461 33.04H101.971C101.781 33.74 101.421 34.52 100.921 35.25C100.421 34.52 100.071 33.74 99.8713 33.04H99.3813C99.7713 32.52 100.081 31.96 100.281 31.38H98.7013C98.6113 31.87 98.0313 32.6 97.6113 32.77C97.0913 32.33 96.8013 31.64 96.6113 30.74H104.241V29.22H101.661V27.96H100.161V29.22H96.4813V27.96H94.9613V29.22H93.4713V30.74H94.8113C94.4913 32.49 94.0213 33.21 93.4713 34V36.38C94.0713 35.62 94.6413 34.8 94.9613 33.84V39.38H96.4813V33.36C96.7413 33.75 97.0312 34.13 97.6012 34.64H97.6213Z" fill="#231815"/>
<path d="M42.3183 75.39L41.4683 74.87C40.9383 74.54 40.5583 74.22 40.3283 73.91C40.0983 73.59 39.9883 73.23 39.9883 72.82C39.9883 72.2 40.1983 71.7 40.6283 71.32C41.0583 70.94 41.6083 70.74 42.2983 70.74C42.9883 70.74 43.5483 70.92 44.0983 71.29V72.57C43.5383 72.03 42.9283 71.76 42.2783 71.76C41.9183 71.76 41.6083 71.85 41.3783 72.01C41.1383 72.18 41.0283 72.4 41.0283 72.66C41.0283 72.89 41.1183 73.11 41.2883 73.32C41.4583 73.52 41.7383 73.74 42.1183 73.96L42.9683 74.47C43.9183 75.04 44.3883 75.77 44.3883 76.65C44.3883 77.28 44.1783 77.79 43.7583 78.18C43.3383 78.57 42.7983 78.77 42.1183 78.77C41.3483 78.77 40.6483 78.53 40.0083 78.06V76.63C40.6083 77.4 41.3083 77.79 42.1083 77.79C42.4583 77.79 42.7483 77.69 42.9883 77.49C43.2183 77.29 43.3383 77.05 43.3383 76.75C43.3383 76.27 42.9983 75.82 42.3083 75.39H42.3183Z" fill="#231815"/>
<path d="M51.6683 70.83H52.7883V78.67H51.6683V75.26H47.2583V78.67H46.1383V70.83H47.2583V74.22H51.6683V70.83Z" fill="#231815"/>
<path d="M66.4983 78.67H63.8483V70.83H65.8983C66.5483 70.83 67.0483 70.92 67.4083 71.09C67.7683 71.26 68.0483 71.5 68.2383 71.81C68.4283 72.11 68.5283 72.47 68.5283 72.87C68.5283 73.64 68.1283 74.19 67.3383 74.52C67.9083 74.63 68.3583 74.86 68.6983 75.23C69.0383 75.6 69.2083 76.03 69.2083 76.53C69.2083 76.93 69.1083 77.29 68.8983 77.6C68.6883 77.91 68.3883 78.17 67.9983 78.37C67.5983 78.57 67.0983 78.66 66.5083 78.66L66.4983 78.67ZM65.9283 71.83H64.9683V74.18H65.7083C66.3083 74.18 66.7283 74.07 66.9783 73.84C67.2283 73.61 67.3583 73.32 67.3583 72.96C67.3583 72.21 66.8783 71.83 65.9283 71.83ZM66.0083 75.18H64.9683V77.66H66.0683C66.6783 77.66 67.0983 77.61 67.3083 77.52C67.5283 77.42 67.6983 77.28 67.8283 77.07C67.9583 76.87 68.0283 76.65 68.0283 76.42C68.0283 76.19 67.9583 75.96 67.8183 75.77C67.6783 75.57 67.4783 75.43 67.2283 75.33C66.9683 75.23 66.5683 75.18 66.0083 75.18Z" fill="#231815"/>
<path d="M70.6483 70.83H71.7683V78.67H70.6483V70.83Z" fill="#231815"/>
<path d="M54.2683 74.75C54.2683 76.96 56.0683 78.77 58.2783 78.77C60.4883 78.77 62.2983 76.97 62.2983 74.75C62.2983 72.53 60.4983 70.74 58.2783 70.74C56.0583 70.74 54.2683 72.54 54.2683 74.75ZM55.3083 74.75C55.3083 73.11 56.6383 71.78 58.2783 71.78C59.9183 71.78 61.2483 73.11 61.2483 74.75C61.2483 76.39 59.9183 77.72 58.2783 77.72C56.6383 77.72 55.3083 76.39 55.3083 74.75Z" fill="#231815"/>
<path d="M62.9502 50.4899C64.0702 52.0199 64.6402 53.7199 64.6402 55.6199C64.6402 56.1099 64.6002 56.5799 64.5302 57.0499C63.0902 54.0099 59.2902 51.8299 54.8102 51.8299C49.1002 51.8299 44.4802 55.3699 44.4802 59.7399C44.4802 64.1099 49.1002 67.6599 54.8102 67.6599H55.4302C59.0402 67.6599 62.1002 66.4799 64.6002 64.1199C67.1002 61.7599 68.3602 58.8699 68.3602 55.4499C68.3602 52.8799 67.8202 50.7899 66.7302 49.1699C65.6402 47.5599 64.6702 46.5899 62.7802 45.4699C61.0002 44.4199 56.2202 42.5899 55.2702 42.2399C54.4402 41.9299 53.9402 41.3299 53.5902 40.8699C52.8902 39.9599 52.5402 38.9299 52.5402 37.7899C52.5402 36.1799 53.1302 34.8599 54.3302 33.7699C55.5302 32.6799 57.0602 32.1299 58.8602 32.1299C60.7702 32.1299 62.9602 33.3099 65.7502 35.8299L66.5102 36.5199V32.5299C63.7502 30.0799 61.2802 28.9299 58.6302 28.9299C55.9802 28.9299 53.6802 29.8099 51.7902 31.5399C49.9002 33.2799 48.9302 35.4299 48.9302 37.8999C48.9302 38.1299 48.9302 38.3499 48.9502 38.5699C48.8702 38.4699 47.1302 36.5499 47.1302 33.6299C47.1302 31.2299 48.0302 29.2099 49.8202 27.5799C51.6202 25.9499 53.9702 25.2099 56.5202 25.1599C61.9002 25.0499 66.5102 29.6299 66.5102 29.6299V25.7399C65.6702 25.1399 61.8102 22.0199 56.2302 21.9999C52.7002 21.9899 49.6802 23.1499 47.1702 25.4499C44.6602 27.7499 43.4102 30.5399 43.4102 33.8099C43.4102 36.1699 43.9202 38.0999 44.9602 39.5999C45.9902 41.0899 47.2402 42.2499 48.7202 43.0499C50.2002 43.8599 52.6602 44.9199 56.1002 46.2399C59.5402 47.5599 61.8202 48.9699 62.9502 50.4999V50.4899Z" fill="#0075C1"/>
<path d="M410.05 40.1601H233V23.1201H410.05V40.1701V40.1601ZM234.05 39.1201H409V24.1601H234.05V39.1201Z" fill="#231815"/>
<path d="M241.83 28.0701H239.32V36.3901H238.28V27.0301H241.83V28.0701Z" fill="black"/>
<path d="M248.01 27.0601V27.7301H252.18V28.6301H242.75V27.7301H246.94V27.0601H248.02H248.01ZM250.47 35.5201C250.65 35.5201 250.72 35.4401 250.72 35.2601V32.6201H244.19V36.4601H243.13V31.8001H251.77V35.6401C251.77 35.8401 251.75 36.0101 251.64 36.1801C251.54 36.3401 251.39 36.4601 251.16 36.4601H249.54L249.38 35.5601H245.15V33.1501H249.79V35.5201H250.47ZM250.8 31.2801H244.13V29.0501H250.8V31.2801ZM245.16 29.7901V30.5401H249.78V29.7901H245.16ZM246.12 33.9101V34.7901H248.83V33.9101H246.12Z" fill="black"/>
<path d="M253.77 29.7701L253.06 29.0501C253.82 28.5501 254.34 27.9001 254.66 27.0401L255.6 27.2001C255.55 27.3901 255.49 27.5501 255.41 27.7301H257.72V28.6001H256.25C256.37 28.8001 256.48 29.0001 256.57 29.2201L255.57 29.6201C255.49 29.3501 255.31 28.8401 255.19 28.6001H254.91C254.58 29.0401 254.2 29.4201 253.77 29.7701ZM257.35 29.0301C258.05 28.4401 258.41 27.8801 258.75 27.0401L259.66 27.1901C259.6 27.3801 259.54 27.5501 259.46 27.7301H262.56V28.6001H260.59C260.72 28.8201 260.85 29.0401 260.97 29.2701L260.03 29.6601C259.89 29.3001 259.72 28.9501 259.55 28.6001H259C258.79 28.9301 258.57 29.2001 258.3 29.4801H258.38V29.9701H261.96V30.8901H258.38V31.5401H262.56V32.4501H260.75V33.1301H262.48V34.0201H260.75V35.3101C260.75 35.8401 260.75 36.4701 259.9 36.4701H258.03L257.87 35.4701H259.37C259.61 35.4701 259.67 35.3801 259.67 35.1201V34.0201H255.34C255.77 34.3001 256.51 35.0701 256.8 35.4901L256 36.1801C255.61 35.6501 255.06 35.0301 254.55 34.6201L255.22 34.0201H253.27V33.1301H259.67V32.4501H253.17V31.5401H257.33V30.8901H253.83V29.9701H257.33V29.4801H257.95L257.35 29.0301Z" fill="black"/>
<path d="M269.27 31.4301C269.17 31.6001 269.06 31.7701 268.95 31.9401L268.14 31.1801C268.28 30.9801 268.37 30.8501 268.49 30.6401H267.09C266.85 30.8901 266.59 31.1301 266.33 31.3601H268.08V32.2001C267.64 32.6201 267.32 32.8901 266.81 33.2201V33.4101C267.44 33.3301 268.07 33.2601 268.7 33.1601V34.0401C268.07 34.1601 267.44 34.2601 266.81 34.3501V35.7101C266.81 36.1101 266.54 36.4501 266.12 36.4501H264.63L264.44 35.4901H265.58C265.75 35.4901 265.84 35.4401 265.84 35.2601V34.4701C265.11 34.5601 264.37 34.6201 263.63 34.6801L263.55 33.7101C264.31 33.6701 265.08 33.6101 265.84 33.5201V32.8201H266.12C266.31 32.6901 266.68 32.3801 266.81 32.2001H265.24C264.82 32.4901 264.42 32.7401 263.97 32.9801L263.52 32.0901C264.36 31.6801 265.04 31.2401 265.76 30.6401H263.63V29.7301H265.47V28.7901H263.88V27.8901H265.47V27.0901H266.4V27.8901H267.56V28.6301C267.84 28.2201 268.03 27.8301 268.23 27.3801L269.12 27.7801C268.77 28.5101 268.41 29.0901 267.9 29.7301H268.56V30.5301C269.13 29.5001 269.44 28.2001 269.61 27.0401L270.6 27.1401C270.54 27.6201 270.47 28.1001 270.37 28.5801H272.94V29.6201H272.45C272.34 31.0501 272.09 32.5301 271.36 33.7801C271.88 34.4201 272.48 34.9601 273.11 35.4801L272.52 36.4501C271.82 35.9201 271.26 35.3701 270.73 34.6701C270.06 35.4401 269.37 35.9501 268.49 36.4501L267.83 35.4901C268.73 35.1001 269.54 34.5701 270.16 33.7901C269.74 33.0501 269.43 32.2701 269.27 31.4301ZM267.45 28.7901H266.4V29.7301H266.7C266.97 29.4301 267.22 29.1201 267.45 28.7901ZM271.46 29.6201H270.09C270.04 29.7601 270 29.9001 269.94 30.0401C270.04 31.0201 270.26 32.0001 270.74 32.8701C271.19 31.8901 271.39 30.6901 271.46 29.6201Z" fill="black"/>
<path d="M274.34 30.5201L274.26 29.5801C274.93 29.5801 275.59 29.5601 276.25 29.5501C276.44 29.2801 276.62 29.0001 276.78 28.7101H273.98V27.7901H278.2V27.0701H279.21V27.7901H283.39V28.7101H280.88C281.49 29.0101 282.49 29.7201 282.99 30.1801L282.17 30.8801C281.84 30.5601 281.6 30.3801 281.23 30.1201C278.93 30.3001 276.64 30.5101 274.34 30.5201ZM282.16 35.4701C282.16 36.1201 281.82 36.4901 281.16 36.4901H279.47L279.24 35.4701H280.84C281.08 35.4701 281.14 35.4601 281.14 35.2201V34.6701H276.22V36.4901H275.19V30.9601H282.16V35.4701ZM276.23 31.7701V32.4101H281.15V31.7701H276.23ZM276.23 33.2001V33.8601H281.15V33.2001H276.23ZM279.59 29.1201L280.38 28.7101H277.98C277.73 29.1001 277.69 29.1701 277.42 29.5301C278.32 29.5301 279.23 29.4601 280.13 29.4301C279.95 29.3201 279.77 29.2201 279.59 29.1201Z" fill="black"/>
<path d="M288.63 34.9501C289.52 34.9101 290.65 34.7901 291.33 34.1701C292.01 33.5501 292.26 32.5901 292.26 31.7001C292.26 30.7501 291.91 29.8401 291.06 29.3201C290.6 29.0401 290.16 28.9601 289.63 28.9301C289.48 30.5001 289.3 32.3901 288.54 33.8001C288.14 34.5601 287.53 35.2201 286.61 35.2201C285.18 35.2201 284.65 33.4801 284.65 32.3201C284.65 30.9201 285.21 29.6401 286.34 28.7901C287.23 28.1301 288.24 27.8801 289.34 27.8801C290.72 27.8801 291.99 28.2801 292.82 29.4501C293.32 30.1501 293.5 30.9701 293.5 31.8301C293.5 33.4201 292.87 34.8101 291.36 35.4901C290.54 35.8601 289.81 35.9701 288.92 36.0101L288.63 34.9501ZM286.44 30.2101C285.98 30.8301 285.75 31.7101 285.75 32.4701C285.75 33.0201 285.85 33.7001 286.34 34.0301C286.43 34.0901 286.55 34.1201 286.67 34.1201C287.4 34.1201 287.78 33.0301 287.94 32.4501C288.29 31.2301 288.41 30.2401 288.5 28.9801C287.64 29.1301 286.97 29.5001 286.44 30.2101Z" fill="black"/>
<path d="M295.13 32.5901L294.67 31.3501C295.54 30.1301 295.98 28.5401 296.21 27.0701L297.29 27.2201C297.11 28.0301 296.92 28.8301 296.67 29.6201V36.4601H295.68V31.8401C295.5 32.1101 295.34 32.3301 295.13 32.5901ZM298.63 32.2501L298.23 31.4201V35.1801H297.24V28.6401H298.23V29.2801C298.95 28.7001 299.53 27.9201 299.85 27.0501L300.85 27.2401C300.76 27.5001 300.67 27.7001 300.55 27.9501H304.14V28.8301H303.42C303.15 29.5201 302.66 30.1501 302.11 30.6401C302.84 31.0301 303.49 31.2201 304.31 31.3601L303.87 32.3101C302.9 32.1001 302.09 31.7801 301.24 31.2701C300.38 31.7901 299.6 32.0501 298.63 32.2501ZM299.44 29.5201C299.21 29.7601 299.04 29.9101 298.79 30.1101L298.23 29.5401V31.3701C299.1 31.2301 299.64 31.0901 300.43 30.6701C300.05 30.3201 299.73 29.9601 299.44 29.5201ZM298.91 36.4601L298.51 35.5601C300.36 35.4301 302.07 35.0101 303.46 33.7001L304.19 34.3101C302.73 35.6901 300.87 36.2901 298.91 36.4601ZM298.87 33.5301L298.52 32.7701C299.53 32.5701 300.5 32.3001 301.39 31.7601L302.07 32.3701C301.27 32.9401 299.84 33.3501 298.87 33.5301ZM298.95 34.9901L298.61 34.1301C299.93 33.9401 301.32 33.5601 302.41 32.7401L303.11 33.3301C301.97 34.2201 300.36 34.7701 298.95 34.9901ZM302.41 28.8401H300.02V28.8601C300.34 29.3401 300.81 29.7801 301.29 30.1201C301.69 29.7901 302.17 29.3101 302.41 28.8401Z" fill="black"/>
<path d="M312.96 31.2201C312.35 31.7701 311.17 32.5101 310.41 32.8201V32.9001H314.61V33.8801H310.41V35.6701C310.41 36.2701 309.87 36.5001 309.59 36.5001H307.63L307.44 35.4401H309.05C309.32 35.4401 309.33 35.3101 309.33 35.1201V33.8801H305.14V32.9001H309.33V32.1201H309.77C310.25 31.9701 310.87 31.6701 311.25 31.3301H306.8V30.3901H312.96V31.2201ZM306.12 27.4701L307.09 27.1101C307.39 27.5401 307.68 28.1101 307.84 28.6101L307.61 28.7001H309.61C309.41 28.2301 309.21 27.8401 308.93 27.4101L309.92 27.0301C310.18 27.4301 310.54 28.1301 310.68 28.5901L310.35 28.7001H311.97C312.24 28.1701 312.43 27.6201 312.63 27.0601L313.78 27.4001C313.56 27.9001 313.39 28.2301 313.12 28.7001H314.39V30.9901H313.38V29.6501H306.43V30.9901H305.42V28.7001H306.72C306.55 28.2701 306.34 27.8601 306.12 27.4701Z" fill="black"/>
<path d="M322.36 31.4401H316.31V30.4601H319.75V29.1501H315.58V28.1501H319.75V27.0601H320.76V28.1501H324.97V29.1501H320.76V30.4601H323.58V31.4601C322.91 32.5501 322.18 33.5101 321.18 34.3301C322.39 34.9601 323.59 35.2101 324.95 35.3001L324.55 36.4301C323.07 36.2001 321.5 35.7901 320.22 35.0101C318.93 35.7901 317.52 36.1901 316.06 36.4701L315.59 35.3401C316.87 35.1801 318.14 34.9301 319.29 34.3401C318.51 33.6901 317.98 33.0301 317.45 32.1701L318.29 31.6401C318.85 32.4901 319.43 33.1501 320.25 33.7501C321.13 33.0901 321.74 32.3401 322.36 31.4401Z" fill="black"/>
<path d="M327.12 29.7901H325.98V28.8501H327.12V27.1101H328.16V28.8501H328.99V29.7901H328.16V31.6501C328.41 31.5501 328.65 31.4501 328.9 31.3401L328.87 32.3501C328.62 32.4901 328.43 32.5801 328.16 32.6901V35.7101C328.16 36.1801 327.91 36.4901 327.42 36.4901H326.14L326.03 35.4601H326.87C327.09 35.4601 327.12 35.3801 327.12 35.1601V33.0801C326.73 33.2201 326.39 33.3301 325.98 33.4201L325.89 32.3201C326.31 32.2301 326.72 32.1301 327.12 32.0001V29.7901ZM334.76 32.9601V33.7201C334.49 34.2901 334.07 34.7401 333.58 35.1401C334.27 35.3701 334.79 35.4401 335.51 35.4601L335.05 36.4901C334.21 36.3401 333.4 36.1001 332.65 35.7101C331.96 36.0701 331.33 36.3001 330.58 36.4901L330.19 35.5001C330.77 35.4401 331.19 35.3501 331.73 35.1401C331.39 34.8901 331.19 34.6901 330.96 34.3401L331.77 33.9001C332 34.2501 332.27 34.4701 332.62 34.6801C333.07 34.3901 333.35 34.1501 333.67 33.7201H331.05C330.56 34.8301 330 35.6401 329.15 36.4901L328.42 35.8001C329.44 34.7601 330.15 33.7601 330.5 32.3201H329.08V31.4801H330.64C330.66 31.2701 330.67 31.0601 330.68 30.8501H329.29V30.0101H333.37C333.71 29.4501 333.99 28.8601 334.24 28.2501L335.18 28.6101C334.98 29.1101 334.74 29.5501 334.47 30.0101H335.16V30.8501H331.63C331.63 31.0601 331.63 31.2701 331.61 31.4801H335.36V32.3201H331.48C331.44 32.5401 331.38 32.7501 331.32 32.9601H334.76ZM332.1 28.5201C331.07 28.6101 330.07 28.6501 329.29 28.6501L328.98 27.7001C330.88 27.6901 332.99 27.6601 334.8 27.0601L335.18 27.9801C334.37 28.2301 333.2 28.4201 332.1 28.5201ZM330.89 29.7901L329.88 30.0001C329.78 29.6501 329.63 29.2201 329.48 28.8901L330.5 28.6701C330.65 29.0301 330.78 29.4101 330.89 29.7901ZM332.8 29.7301L331.78 29.9301C331.68 29.5301 331.57 29.1501 331.43 28.7601L332.48 28.5601C332.61 28.9501 332.73 29.3301 332.8 29.7301Z" fill="black"/>
<path d="M336.45 33.0001V32.0801H338.48V31.1501H336.4V30.2401H337.51C337.45 29.7901 337.36 29.2301 337.21 28.8101H336.6V27.9001H338.48V27.0701H339.44V27.9001H341.17V28.8101H340.7C340.58 29.3401 340.51 29.7201 340.34 30.2401H341.32V31.1501H339.44V32.0801H341.09V33.0001H339.63C339.99 33.4401 340.38 33.8401 340.86 34.1401L340.36 35.0401C340.07 34.7901 339.67 34.3201 339.44 33.9701V36.4801H338.48V34.0001C337.94 34.7101 337.43 35.2601 336.71 35.7901L336.16 34.8701C336.97 34.3201 337.62 33.8101 338.19 33.0001H336.45ZM338.12 28.8201C338.24 29.1901 338.38 29.8601 338.43 30.2501H339.44C339.56 29.8501 339.69 29.2301 339.75 28.8201H338.12ZM342.65 28.7601V30.2801H345.74V31.2401H344.76V36.4801H343.72V31.2401H342.65V31.5101C342.65 33.4401 342.47 34.8701 341.31 36.4801L340.34 35.8101C341.45 34.4801 341.65 33.2301 341.65 31.5401V27.8201C343 27.8201 344.01 27.6201 345.17 27.0701L345.74 28.0101C344.79 28.4601 343.69 28.7201 342.65 28.7601Z" fill="black"/>
<path d="M347.65 29.8801L346.8 29.3801C347.22 28.7101 347.49 27.9801 347.58 27.2001L348.56 27.3201C348.5 27.6001 348.44 27.8801 348.36 28.1501H349.17V27.0801H350.14V28.1501H352.26V29.0901H350.14V30.0301H352.43V30.9901H350.14V31.8301H352.17V35.0401C352.17 35.5501 352.02 35.7801 351.49 35.7801H350.59L350.41 34.7701H350.99C351.13 34.7701 351.21 34.6701 351.21 34.5501V32.7801H350.14V36.4801H349.17V32.7801H348.19V35.8301H347.21V31.8301H349.17V30.9901H346.83V30.0301H349.17V29.0901H348.04C347.92 29.3801 347.8 29.6101 347.65 29.8801ZM353.88 27.6601V34.1101H352.87V27.6601H353.88ZM355.79 27.0901V35.7101C355.79 36.2601 355.41 36.4801 354.91 36.4801H353.44L353.26 35.4001H354.47C354.66 35.4001 354.72 35.3401 354.72 35.1401V27.0901H355.79Z" fill="black"/>
<path d="M361.46 27.8301V27.0901H362.51V27.8301H366.51V28.7501H364.95V29.4901H366.57V30.3101H364.95V31.8501H360.26V30.3101H358.88V32.1301C358.88 33.5301 358.7 35.2101 357.93 36.4101L357.11 35.6301C357.41 35.1801 357.57 34.7701 357.67 34.2401C357.79 33.5601 357.86 32.8001 357.86 32.1101V27.8301H361.46ZM364.33 33.3001H359.11V32.4001H365.53V33.3001C365.12 34.0101 364.52 34.5401 363.83 34.9801C364.75 35.2501 365.66 35.3801 366.61 35.4701L366.15 36.4601C364.96 36.3301 363.81 36.0501 362.71 35.5701C361.51 36.0901 360.35 36.3501 359.05 36.4801L358.64 35.5501C359.66 35.4501 360.58 35.2801 361.56 34.9901C361.03 34.6701 360.54 34.3101 360.13 33.8401L360.95 33.3101C361.5 33.8601 362.01 34.2301 362.72 34.5601C363.38 34.2401 363.89 33.8901 364.33 33.3001ZM358.89 28.7401V29.4801H360.27V28.7401H358.89ZM361.24 28.7401V29.4801H363.99V28.7401H361.24ZM361.24 30.3001V31.0401H363.99V30.3001H361.24Z" fill="black"/>
<path d="M367.52 35.5001H370.03V27.1901H371.07V36.5401H367.52V35.5001Z" fill="black"/>
<path d="M376.97 29.6301H373.92V28.6101H375.82V27.0901H376.88V28.6101H378.63V29.6301H378.05C377.87 30.6601 377.63 31.6801 377.23 32.6401C377.72 33.2001 378.34 33.9501 378.69 34.6001L377.83 35.2701C377.49 34.7001 377.15 34.2101 376.74 33.6801C376.15 34.7401 375.4 35.5201 374.46 36.2801L373.74 35.3601C374.69 34.6501 375.42 33.8701 376 32.8101C375.39 32.1501 374.82 31.6101 374.1 31.0701L374.87 30.3701C375.43 30.8201 375.96 31.3001 376.46 31.8201C376.73 31.0901 376.87 30.3901 376.97 29.6301ZM380.85 33.5001L379.82 34.0001C379.51 33.1101 379.07 32.1401 378.55 31.3501L379.51 30.8401C380.07 31.6701 380.48 32.5601 380.85 33.5001ZM382.45 28.9401H383.29V30.0101H382.45V35.5601C382.45 36.3801 381.96 36.4701 381.26 36.4701H379.73L379.46 35.4401H381.03C381.33 35.4401 381.37 35.4201 381.37 35.2001V30.0101H378.94V28.9401H381.37V27.0901H382.45V28.9401Z" fill="black"/>
<path d="M389.03 33.3001C387.76 34.1201 386.18 34.6001 384.7 34.9101L384.4 34.0301C385.84 33.8501 387.27 33.4301 388.53 32.7001C388.43 32.6101 388.34 32.5401 388.23 32.4701C387.11 32.9701 386.02 33.2501 384.82 33.4601L384.52 32.6201C385.77 32.4101 387.01 32.1301 388.16 31.5901H385.01V29.6001C384.85 29.6601 384.7 29.7201 384.55 29.7801L384.14 28.9001C385.34 28.5701 386.33 28.0101 387.13 27.0401L388.2 27.2601C388.1 27.3901 388 27.5201 387.9 27.6401H391.37V28.4401C391.18 28.6701 390.96 28.8701 390.75 29.0701H393.06V31.5901H390.4C390.51 31.9901 390.64 32.3201 390.84 32.6801C391.39 32.3701 391.79 32.0901 392.23 31.6401L392.97 32.2201C392.45 32.6701 391.9 33.0301 391.31 33.3601C391.97 34.1801 392.92 34.7401 393.89 35.1201L393.23 36.1101C392.29 35.6301 391.54 35.0701 390.87 34.2601C390.25 33.5101 389.78 32.6301 389.61 31.6701C389.43 31.8101 389.26 31.9201 389.07 32.0301C390.03 32.7101 390.46 33.7001 390.46 34.8601C390.46 35.2301 390.42 35.9501 390.12 36.2101C389.85 36.4501 389.46 36.4801 389.11 36.4801H388.12L387.89 35.4901H388.85C389.37 35.4901 389.47 35.3601 389.47 34.8701C389.47 34.7001 389.45 34.5601 389.42 34.3901C387.92 35.3201 386.29 35.8501 384.58 36.2501L384.26 35.3601C385.92 35.0701 387.77 34.5501 389.2 33.6301C389.14 33.4901 389.11 33.4301 389.03 33.3001ZM385.99 29.8601V30.7901H388.5V29.8601H385.99ZM389.29 29.0701C389.52 28.8701 389.75 28.6701 389.94 28.4401H387.06C386.78 28.6601 386.39 28.8901 386.08 29.0701H389.29ZM389.45 29.8601V30.7901H392.07V29.8601H389.45Z" fill="black"/>
<path d="M394.68 29.9101V28.9501H396.07V27.0901H397.02V28.9501H398.08V29.9101H397.02V30.4901C397.4 31.2101 397.85 31.7701 398.41 32.3501L397.89 33.3201C397.45 32.7701 397.34 32.5601 397.02 31.9401V36.4801H396.07V31.8401C395.77 32.8001 395.51 33.3901 394.98 34.2401L394.6 32.8801C395.07 32.2001 395.42 31.5101 395.7 30.6701C395.81 30.3501 395.85 30.2101 395.94 29.9101H394.68ZM404.3 35.4801L403.8 36.4801C402.74 36.1301 401.84 35.7001 400.98 34.9601C400.17 35.6601 399.23 36.1001 398.24 36.4801L397.71 35.5501C398.66 35.2401 399.51 34.8701 400.28 34.2301C399.64 33.4401 399.26 32.6301 398.97 31.6601L399.9 31.3901C400.15 32.1901 400.48 32.8501 401.02 33.5001C401.56 32.8401 401.89 32.1501 402.17 31.3501L403.14 31.6701C402.8 32.6201 402.38 33.4401 401.73 34.2201C402.51 34.8701 403.33 35.2201 404.3 35.4801ZM398.61 31.6001L397.9 30.8601C398.64 30.4401 399.18 29.9601 399.66 29.2501L400.5 29.7001C400.01 30.4501 399.37 31.1201 398.61 31.6001ZM401.58 27.1001V28.0701H404.09V29.0201H398.14V28.0701H400.56V27.1001H401.58ZM403.63 31.6101C402.77 31.0601 402.23 30.5301 401.63 29.7001L402.47 29.2101C403.05 29.9101 403.52 30.3001 404.29 30.7801L403.63 31.6101Z" fill="black"/>
</g>
<defs>
<clipPath id="clip0_294_5576">
<rect width="369.91" height="56.76" fill="white" transform="translate(40 22)"/>
</clipPath>
</defs>
</svg>
