<svg width="238" height="37" viewBox="0 0 238 37" fill="none" xmlns="http://www.w3.org/2000/svg">
<g clip-path="url(#clip0_294_8066)">
<path d="M143.877 15.5275H145.962V26.1986C148.748 25.3838 151.695 23.4412 154.551 20.2144L154.571 23.0761C151.933 25.6315 149.436 27.574 145.151 28.6952C144.836 28.78 144.347 28.9038 143.877 28.9299V15.5275Z" fill="white"/>
<path d="M202.987 22.0983H206.989V26.2181C206.989 27.1829 206.911 27.1112 204.704 27.1112V29.0798C208.372 29.0798 208.803 28.5518 208.803 25.8661V15.6383H202.987V22.0983ZM204.801 17.281H206.982V18.1741H204.801V17.281ZM204.801 19.5952H206.982V20.5469H204.801V19.5952Z" fill="white"/>
<path d="M198.052 29.0733V22.0918H202.047V15.6383H196.231V29.0733H198.052ZM198.052 17.281H200.233V18.1741H198.052V17.281ZM198.052 19.5952H200.233V20.5469H198.052V19.5952Z" fill="white"/>
<path d="M89.9284 21.1336H79.8978V23.2065H89.9284V21.1336Z" fill="white"/>
<path d="M36.6099 18.0828C37.3948 16.6748 37.8066 15.2603 37.8066 15.2603H36.0115C36.0115 15.2603 35.5997 16.6748 34.8148 18.0828H33.7596V15.2733H31.9324V18.0828H30.8772C30.0922 16.6748 29.6805 15.2603 29.6805 15.2603H27.8854C27.8854 15.2603 28.2972 16.6748 29.0821 18.0828H26.5664V29.0733H28.4258V19.9211H37.3047V26.2638C37.3047 27.2155 37.1117 27.1699 35.6512 27.1699V29.0733C38.9712 28.9821 39.1642 28.5649 39.1642 25.8792V18.0763H36.6034L36.6099 18.0828ZM36.1724 21.0228H29.5518V26.2768H36.1724V21.0228ZM34.4159 24.6341H31.3083V22.6589H34.4159V24.6341Z" fill="white"/>
<path d="M49.0532 25.5793H53.6793V23.9236H48.2039V23.0501H53.6793V21.44H48.2039V20.5469H53.2353V18.9824H48.2039V18.0894H53.6793V16.4336H50.9255C51.1958 16.1272 51.4338 15.7166 51.6075 15.2733H49.6516C49.3042 15.8404 49.1369 16.0686 48.7766 16.4336H45.8105C45.4502 16.0686 45.2829 15.8404 44.9355 15.2733H42.9795C43.1468 15.7231 43.3849 16.1272 43.6615 16.4336H40.9014V18.0894H46.3767V18.9824H41.3389V20.5469H46.3767V21.44H40.9014V23.0501H46.3767V23.9236H40.9014V25.5793H45.5274C44.7103 26.2051 43.076 27.0134 40.9014 27.3068V29.0798C41.1265 29.0668 41.3196 29.0342 41.3196 29.0342C44.7103 28.5584 46.4925 27.1177 47.2967 26.1204C48.101 27.1177 49.8768 28.5584 53.2675 29.0342C53.2675 29.0342 53.4605 29.0668 53.6857 29.0798V27.3068C51.511 27.0134 49.8768 26.2051 49.0597 25.5793H49.0532Z" fill="white"/>
<path d="M93.2998 28.6496C99.5151 27.4828 102.539 23.7671 104.18 19.0411H101.954C100.647 23.1348 97.527 26.1986 91.6849 26.707V28.8387C92.2704 28.793 92.7851 28.7474 93.3063 28.6496H93.2998Z" fill="white"/>
<path d="M104.173 15.521H102.977V18.1545H104.173V15.521Z" fill="white"/>
<path d="M102.095 15.521H100.898V18.1545H102.095V15.521Z" fill="white"/>
<path d="M91.6785 15.521V17.5092C91.6785 17.5092 94.3357 17.9329 97.4047 18.9433V16.9551C94.3357 15.9447 91.6785 15.521 91.6785 15.521Z" fill="white"/>
<path d="M91.6785 18.9433V20.9315C91.6785 20.9315 94.3357 21.3552 97.4047 22.3656V20.3774C94.3357 19.367 91.6785 18.9433 91.6785 18.9433Z" fill="white"/>
<path d="M169.041 28.6496C175.25 27.4828 178.28 23.7671 179.921 19.0411H177.695C176.388 23.1348 173.268 26.1986 167.426 26.707V28.8387C168.011 28.793 168.526 28.7474 169.047 28.6496H169.041Z" fill="white"/>
<path d="M179.914 15.521H178.718V18.1545H179.914V15.521Z" fill="white"/>
<path d="M177.836 15.521H176.639V18.1545H177.836V15.521Z" fill="white"/>
<path d="M167.419 15.521V17.5092C167.419 17.5092 170.077 17.9329 173.146 18.9433V16.9551C170.077 15.9447 167.419 15.521 167.419 15.521Z" fill="white"/>
<path d="M167.419 18.9433V20.9315C167.419 20.9315 170.077 21.3552 173.146 22.3656V20.3774C170.077 19.367 167.419 18.9433 167.419 18.9433Z" fill="white"/>
<path d="M114.114 19.0346C113.799 23.5259 112.023 25.8792 106.914 26.8244V28.7865C107.718 28.6366 108.252 28.4932 108.252 28.4932C113.277 27.1829 115.619 24.4842 116.121 19.0346H114.114Z" fill="white"/>
<path d="M111.92 22.9132H110.028C110.028 22.9132 109.771 20.9771 109.044 19.0411H110.935C111.714 20.9771 111.92 22.9132 111.92 22.9132Z" fill="white"/>
<path d="M108.799 22.9132H106.908C106.908 22.9132 106.65 20.9771 105.923 19.0411H107.815C108.593 20.9771 108.799 22.9132 108.799 22.9132Z" fill="white"/>
<path d="M163.771 19.0346C163.45 23.5259 161.68 25.8792 156.572 26.8244V28.7865C157.376 28.6366 157.91 28.4932 157.91 28.4932C162.935 27.1829 165.277 24.4842 165.779 19.0346H163.771Z" fill="white"/>
<path d="M161.584 22.9132H159.692C159.692 22.9132 159.435 20.9771 158.708 19.0411H160.599C161.378 20.9771 161.584 22.9132 161.584 22.9132Z" fill="white"/>
<path d="M158.463 22.9132H156.572C156.572 22.9132 156.314 20.9771 155.587 19.0411H157.479C158.257 20.9771 158.463 22.9132 158.463 22.9132Z" fill="white"/>
<path d="M55.4164 26.7462C58.048 26.7462 64.3018 28.1737 66.1998 29.0733V26.9548C63.4911 25.8075 58.479 24.7514 55.4164 24.7514V26.7462Z" fill="white"/>
<path d="M56.2979 22.144C58.8522 22.3004 63.208 23.2717 65.3184 24.0735V21.968C62.7834 21.0097 59.0838 20.247 56.2979 20.1362V22.144Z" fill="white"/>
<path d="M65.3184 19.4583V17.3527C62.7834 16.3945 59.0838 15.6318 56.2979 15.521V17.5222C58.8522 17.6787 63.208 18.6565 65.3184 19.4518V19.4583Z" fill="white"/>
<path d="M75.9924 26.1595L76.7452 19.0346L68.8249 19.028V20.9967H74.5126L73.9657 26.1595H67.9499V28.1216H78.8684V26.1595H75.9924Z" fill="white"/>
<path d="M194.468 17.3397V15.7752H188.967V15.2668H187.153V15.7752H181.651V17.3397H187.153V18.0763H182.179V23.9366H190.382V24.6732H181.645V26.329H190.357C190.318 27.0656 190.299 27.2742 187.802 27.2742V29.0733C191.502 29.0733 192.1 28.5388 192.19 26.329H194.474V24.6732H192.203V23.9366H193.883V18.0763H188.973V17.3397H194.474H194.468ZM187.153 22.509H184V21.6225H187.153V22.509ZM187.153 20.3905H184V19.4974H187.153V20.3905ZM192.062 22.509H188.967V21.6225H192.062V22.509ZM192.062 19.5039V20.397H188.967V19.5039H192.062Z" fill="white"/>
<path d="M220.693 17.0985C221.311 16.5314 221.658 15.9708 222.031 15.2733H220.217C219.876 15.8991 219.483 16.4206 218.737 17.0985H217.862L216.936 15.2733H215.14L216.067 17.0985H214.735L213.809 15.2733H212.014L212.94 17.0985H210.559V20.6447H212.303V18.8781H221.517V20.6251H223.363V17.0985H220.687H220.693Z" fill="white"/>
<path d="M217.933 24.9014H223.37V23.0761H217.933V22.8741C219.432 22.0397 220.732 21.2705 220.732 21.2705V19.6799H213.197V21.3683H217.92L216.106 22.3135V23.0827H210.566V24.9079H216.106V26.2247C216.106 27.1894 216.131 27.1177 213.937 27.1177V29.0864C217.778 29.0864 217.933 28.5192 217.933 25.8335V24.9014Z" fill="white"/>
<path d="M230.08 23.3369C230.518 23.0631 230.917 22.7567 231.277 22.4178C231.721 23.4868 232.293 24.5037 232.956 25.4033C232.165 26.2051 231.2 26.8765 230.067 27.2546V29.0733C231.399 28.8517 232.802 27.9586 234.031 26.6745C235.266 27.9586 236.662 28.8517 237.994 29.0733V27.2546C236.862 26.8765 235.897 26.2051 235.105 25.4033C235.768 24.5037 236.34 23.4868 236.784 22.4178C237.151 22.7567 237.55 23.0696 237.994 23.3434V21.0749C237.492 20.8663 236.797 19.9863 236.681 19.3931H234.79C235.028 20.0971 235.395 20.7751 235.864 21.4008H235.272C235.041 22.2548 234.616 23.1935 234.024 24.08C233.426 23.1935 233.008 22.2548 232.776 21.4008H232.184C232.654 20.7751 233.021 20.0971 233.259 19.3931H231.367C231.258 19.9863 230.569 20.8663 230.067 21.0749C229.45 20.5469 229.102 19.7125 228.877 18.6174H237.988V16.7791H234.906V15.2603H233.117V16.7791H228.723V15.2603H226.908V16.7791H225.12V18.6174H226.722C226.342 20.7294 225.782 21.6094 225.12 22.5612V25.4489C225.84 24.5298 226.516 23.5325 226.908 22.3721V29.0733H228.723V21.792C229.031 22.2678 229.385 22.7241 230.067 23.3369H230.08Z" fill="white"/>
<path d="M186.072 26.9939H184.257C184.56 27.7957 184.856 28.7148 184.92 29.0733H186.715C186.644 28.6235 186.335 27.7174 186.065 26.9939H186.072Z" fill="white"/>
<path d="M136.543 17.5809C136.568 16.9356 136.581 16.2511 136.581 15.521H134.522C134.522 16.2576 134.51 16.9421 134.49 17.5809H130.495V19.5495H134.368C133.982 23.7085 132.83 25.4555 130.495 26.6614V28.8517C131.022 28.6235 131.505 28.4084 131.955 28.1281C134.497 26.5441 135.964 24.5494 136.42 19.5495H139.888C139.888 21.6551 139.766 24.1843 139.354 25.5663C139.155 26.2312 138.389 26.7396 136.118 26.6549V28.8452C140.757 28.8452 141.117 27.1047 141.394 26.0356C141.934 23.9562 142.025 20.3253 142.025 17.5809H136.543Z" fill="white"/>
<path d="M123.109 16.8247C123.295 16.3945 123.462 15.9643 123.598 15.5275H121.397C120.528 17.8286 119.731 18.9889 117.762 20.1362V22.3721C119.551 21.6746 120.985 20.3579 122.04 18.7934H126.576C125.367 22.4373 123.559 25.1817 117.858 26.7136V28.8582C118.193 28.8191 118.759 28.6301 119.866 28.2911C125.611 26.5245 127.69 22.4112 128.79 18.9042C128.983 18.2914 129.24 17.2745 129.317 16.8247H123.109Z" fill="white"/>
<path d="M83.2164 11.3296V4.09385H89.927V11.3296H83.2164ZM84.6061 7.05333V6.4145H86.0538V6.1016H84.7541V5.48885H86.0538V5.22158H86.9931V5.48885H88.3378V6.1016H86.9931V6.4145H88.4858V7.05333H84.6061ZM87.4371 7.88772H85.6613V8.28536H87.4371V7.88772ZM86.0538 10.1823V9.39353C85.4039 9.9411 84.5932 10.1823 84.5932 10.1823V9.41309C85.0758 9.26316 85.3267 9.14582 85.8286 8.79382H84.7477V7.37926H88.3314V8.79382H87.9647L88.4022 9.08064C88.3057 9.20449 88.1577 9.36094 88.1577 9.36094C88.1577 9.36094 88.3314 9.42613 88.4794 9.4522V10.1823C88.029 10.1171 87.3856 9.78465 86.9867 9.49783V10.1823H86.0473H86.0538ZM88.9941 10.3844V5.03254H84.1493V10.3844H88.9941ZM87.0575 8.80033C87.2183 8.94375 87.4306 9.04804 87.5786 9.12627C87.7009 8.98938 87.7716 8.91767 87.8424 8.80033H87.0575Z" fill="white"/>
<path d="M57.416 11.3296C56.0134 10.5995 54.302 9.5565 53.7101 7.9855C53.1246 9.5565 51.4324 10.5995 50.0041 11.3296V10.0454C52.4104 8.9959 53.1696 7.30756 53.1696 5.90604V3.88525H54.2505V5.90604C54.2505 7.288 55.0097 8.9959 57.416 10.0454V11.3296Z" fill="white"/>
<path d="M42.2897 10.091V11.3296C43.4607 10.5278 43.9754 9.62169 43.9754 9.62169V8.33751C43.9754 8.33751 43.0875 9.53043 42.2897 10.0976V10.091Z" fill="white"/>
<path d="M42.2897 5.9973C42.9717 6.15375 43.4929 6.40146 43.9754 6.66873V7.65957C43.4157 7.34667 42.946 7.13807 42.2897 6.98814V5.9973Z" fill="white"/>
<path d="M42.2897 5.30633V4.32201C42.9717 4.47845 43.4929 4.72616 43.9754 4.99343V5.97775C43.4157 5.66485 42.946 5.45625 42.2897 5.30633Z" fill="white"/>
<path d="M49.2835 11.3231C49.1226 10.5604 48.7495 9.4522 48.3698 8.61129H47.3533C47.5013 8.93723 47.6492 9.30879 47.7908 9.68687C47.1731 9.89547 46.6713 10.0063 46.0729 10.1301C46.3367 9.5565 46.5619 8.86552 46.7678 8.05721H49.0004V7.06637H47.1924V5.97123H49.0004V4.98691H47.1924V3.88525H46.1758V4.98691H44.4322V5.97123H46.1758V7.06637H44.4322V8.05721H45.7512C45.5904 8.76774 45.3201 9.57606 44.9984 10.2801C44.8118 10.3061 44.6317 10.3257 44.4322 10.3453V11.3231C44.6124 11.3165 44.7732 11.297 44.7732 11.297C46.06 11.1797 47.0573 10.945 48.0932 10.5799C48.1704 10.8537 48.2347 11.1079 48.2733 11.3231H49.2899H49.2835Z" fill="white"/>
<path d="M65.1819 5.40411C65.6065 4.64794 65.8253 3.88525 65.8253 3.88525H64.8602C64.8602 3.88525 64.6414 4.64794 64.2168 5.40411H63.6506V3.89177H62.6662V5.40411H62.1C61.6753 4.64794 61.4566 3.88525 61.4566 3.88525H60.4915C60.4915 3.88525 60.7167 4.64794 61.1349 5.40411H59.7773V11.3231H60.781V6.39494H65.5615V9.81073C65.5615 10.3192 65.4585 10.2996 64.6736 10.2996V11.3231C66.4622 11.2709 66.5652 11.0493 66.5652 9.60213V5.40411H65.1819ZM64.9503 6.98814H61.3794V9.81725H64.9503V6.98814ZM64.0045 8.93723H62.3316V7.87468H64.0045V8.93723Z" fill="white"/>
<path d="M74.3825 9.44568V8.55263H71.4357V8.08328H74.3825V7.2163H71.4357V6.73391H74.1444V5.89301H71.4357V5.41062H74.3825V4.51757H72.8962C73.0442 4.3546 73.1729 4.13296 73.263 3.89177H72.2142C72.0277 4.19815 71.9376 4.322 71.7381 4.51757H70.1361C69.9366 4.322 69.853 4.19815 69.6664 3.89177H68.6112C68.7013 4.13296 68.83 4.3546 68.9779 4.51757H67.4917V5.41062H70.4385V5.89301H67.7233V6.73391H70.4385V7.2163H67.4917V8.08328H70.4385V8.55263H67.4917V9.44568H69.9816C69.5441 9.78466 68.6627 10.2214 67.4917 10.3779V11.3296C67.6139 11.3296 67.7169 11.3035 67.7169 11.3035C69.5441 11.0493 70.5028 10.2736 70.9339 9.73251C71.365 10.2736 72.3236 11.0428 74.1509 11.3035C74.1509 11.3035 74.2538 11.3231 74.3761 11.3296V10.3779C73.2051 10.2214 72.3236 9.78466 71.8861 9.44568H74.3825Z" fill="white"/>
<path d="M80.8165 4.87609C81.1511 4.56971 81.3376 4.26986 81.5371 3.89177H80.5591C80.379 4.23074 80.1667 4.51105 79.7678 4.87609H79.2981L78.8027 3.89177H77.8376L78.3394 4.87609H77.6188L77.1234 3.89177H76.1583L76.6537 4.87609H75.3733V6.78606H76.3127V5.83434H81.2733V6.77955H82.2706V4.87609H80.8165Z" fill="white"/>
<path d="M79.3367 9.08064H82.2641V8.09632H79.3367V7.9855C80.1474 7.53571 80.8422 7.11852 80.8422 7.11852V6.26457H76.7824V7.17067H79.3238L78.3458 7.67912V8.09632H75.3605V9.08064H78.3458V9.79117C78.3458 10.3127 78.3587 10.2736 77.1813 10.2736V11.3361C79.253 11.3361 79.3302 11.0297 79.3302 9.58258V9.08716L79.3367 9.08064Z" fill="white"/>
<path d="M32.0146 4.87609C32.3492 4.56971 32.5358 4.26986 32.7352 3.89177H31.7573C31.5707 4.23074 31.3648 4.51105 30.9594 4.87609H30.4898L29.9943 3.89177H29.0292L29.5247 4.87609H28.8041L28.3086 3.89177H27.3435L27.839 4.87609H26.5586V6.78606H27.498V5.83434H32.4586V6.77955H33.4558V4.87609H32.0146Z" fill="white"/>
<path d="M30.5284 9.08064H33.4558V8.09632H30.5284V7.9855C31.3391 7.53571 32.0339 7.11852 32.0339 7.11852V6.26457H27.9805V7.17067H30.5219L29.544 7.67912V8.09632H26.5586V9.08064H29.544V9.79117C29.544 10.3127 29.5568 10.2736 28.3794 10.2736V11.3361C30.4512 11.3361 30.5348 11.0297 30.5348 9.58258V9.08716L30.5284 9.08064Z" fill="white"/>
<path d="M37.0717 8.23973C37.3098 8.09632 37.5221 7.92683 37.7151 7.74431C37.9532 8.31795 38.262 8.86552 38.6223 9.35442C38.1977 9.78466 37.6765 10.1497 37.0653 10.3518V11.3296C37.7795 11.2122 38.5387 10.7299 39.2014 10.0389C39.8641 10.7299 40.6233 11.2122 41.3375 11.3296V10.3518C40.7263 10.1497 40.2115 9.78466 39.7805 9.35442C40.1408 8.87204 40.4432 8.32447 40.6812 7.74431C40.8807 7.92683 41.093 8.09632 41.3311 8.24625V7.02074C41.0608 6.90992 40.6877 6.43406 40.6233 6.11464H39.6067C39.7354 6.49272 39.9349 6.85777 40.1858 7.19674H39.8705C39.7483 7.65305 39.5167 8.1615 39.195 8.63737C38.8733 8.1615 38.6481 7.65305 38.5194 7.19674H38.2041C38.4551 6.85777 38.6545 6.49272 38.7832 6.11464H37.7666C37.7087 6.43406 37.3355 6.90992 37.0653 7.02074C36.7307 6.73392 36.5442 6.28413 36.4219 5.69745H41.3311V4.70661H39.6711V3.88525H38.706V4.70661H36.3383V3.88525H35.3603V4.70661H34.4016V5.69745H35.2638C35.0579 6.83821 34.7555 7.30756 34.4016 7.82253V9.37398C34.7877 8.87856 35.1544 8.34403 35.3603 7.71823V11.3296H36.3383V7.40534C36.5056 7.65957 36.6921 7.90728 37.0589 8.23973H37.0717Z" fill="white"/>
<path d="M1.49131 34.8032L0.944419 34.4642C0.603417 34.2491 0.358925 34.0405 0.210943 33.8384C0.0629615 33.6298 -0.0078125 33.3951 -0.0078125 33.1279C-0.0078125 32.7237 0.127301 32.3978 0.403963 32.1501C0.680625 31.9023 1.0345 31.772 1.47844 31.772C1.92239 31.772 2.28269 31.8893 2.63656 32.1305V32.9649C2.27626 32.6129 1.88378 32.4369 1.46557 32.4369C1.23395 32.4369 1.0345 32.4955 0.886513 32.5998C0.732097 32.7107 0.661323 32.8541 0.661323 33.0236C0.661323 33.1735 0.719229 33.3169 0.828607 33.4538C0.937985 33.5842 1.11814 33.7276 1.36263 33.871L1.90952 34.2034C2.52075 34.575 2.82315 35.0509 2.82315 35.6245C2.82315 36.0352 2.68803 36.3676 2.4178 36.6219C2.14758 36.8761 1.80014 37.0065 1.36263 37.0065C0.867211 37.0065 0.416831 36.85 0.0050555 36.5436V35.6115C0.391095 36.1134 0.841475 36.3676 1.35619 36.3676C1.58138 36.3676 1.76797 36.3025 1.92239 36.1721C2.07037 36.0417 2.14758 35.8853 2.14758 35.6897C2.14758 35.3768 1.92882 35.0835 1.48487 34.8032H1.49131Z" fill="white"/>
<path d="M7.5071 31.8306H8.2277V36.9413H7.5071V34.7184H4.6697V36.9413H3.9491V31.8306H4.6697V34.0405H7.5071V31.8306Z" fill="white"/>
<path d="M17.0487 36.9413H15.3437V31.8306H16.6627C17.0809 31.8306 17.4026 31.8893 17.6342 32.0001C17.8658 32.1109 18.046 32.2674 18.1682 32.4695C18.2905 32.665 18.3548 32.8997 18.3548 33.1604C18.3548 33.6624 18.0975 34.0209 17.5892 34.236C17.9559 34.3077 18.2454 34.4577 18.4642 34.6989C18.683 34.94 18.7923 35.2204 18.7923 35.5463C18.7923 35.807 18.728 36.0417 18.5929 36.2438C18.4578 36.4459 18.2647 36.6153 18.0138 36.7457C17.7565 36.8761 17.4348 36.9348 17.0551 36.9348L17.0487 36.9413ZM16.682 32.4825H16.0643V34.0144H16.5404C16.9265 34.0144 17.1967 33.9427 17.3575 33.7928C17.5184 33.6428 17.602 33.4538 17.602 33.2191C17.602 32.7302 17.2932 32.4825 16.682 32.4825ZM16.7334 34.6663H16.0643V36.2829H16.7721C17.1645 36.2829 17.4348 36.2503 17.5699 36.1916C17.7114 36.1264 17.8208 36.0352 17.9044 35.8983C17.9881 35.7679 18.0331 35.6245 18.0331 35.4746C18.0331 35.3246 17.9881 35.1747 17.898 35.0509C17.8079 34.9205 17.6792 34.8292 17.5184 34.764C17.3511 34.6989 17.0938 34.6663 16.7334 34.6663Z" fill="white"/>
<path d="M19.7188 31.8306H20.4394V36.9413H19.7188V31.8306Z" fill="white"/>
<path d="M9.17994 34.386C9.17994 35.8266 10.3381 37.0065 11.76 37.0065C13.1819 37.0065 14.3464 35.8331 14.3464 34.386C14.3464 32.9388 13.1883 31.772 11.76 31.772C10.3316 31.772 9.17994 32.9453 9.17994 34.386ZM9.84907 34.386C9.84907 33.3169 10.7048 32.4499 11.76 32.4499C12.8151 32.4499 13.6709 33.3169 13.6709 34.386C13.6709 35.455 12.8151 36.322 11.76 36.322C10.7048 36.322 9.84907 35.455 9.84907 34.386Z" fill="white"/>
<path d="M14.7673 18.5717C15.488 19.5691 15.8547 20.6773 15.8547 21.9158C15.8547 22.2352 15.829 22.5416 15.7839 22.848C14.8574 20.8663 12.4125 19.4453 9.53007 19.4453C5.85626 19.4453 2.88375 21.7529 2.88375 24.6015C2.88375 27.4502 5.85626 29.7643 9.53007 29.7643H9.92898C12.2517 29.7643 14.2205 28.9951 15.829 27.4567C17.4375 25.9183 18.2481 24.0344 18.2481 21.805C18.2481 20.1297 17.9007 18.7673 17.1994 17.7113C16.4981 16.6618 15.874 16.0295 14.658 15.2994C13.5127 14.6149 10.4373 13.422 9.82603 13.1938C9.29201 12.9918 8.97031 12.6006 8.74512 12.3008C8.29474 11.7076 8.06955 11.0362 8.06955 10.293C8.06955 9.24352 8.44916 8.38306 9.22124 7.67252C9.99332 6.96199 10.9777 6.60346 12.1358 6.60346C13.3647 6.60346 14.7738 7.37266 16.5689 9.01537L17.0578 9.46516V6.86421C15.2821 5.26713 13.6929 4.51748 11.9879 4.51748C10.2828 4.51748 8.80303 5.09113 7.587 6.21886C6.37098 7.35311 5.74688 8.75462 5.74688 10.3647C5.74688 10.5147 5.74688 10.6581 5.75975 10.8015C5.70827 10.7363 4.58876 9.48471 4.58876 7.58126C4.58876 6.01678 5.16782 4.70001 6.3195 3.63746C7.47762 2.57492 8.98961 2.09254 10.6303 2.05994C14.0918 1.98824 17.0578 4.97379 17.0578 4.97379V2.43803C16.5174 2.04691 14.0339 0.0130791 10.4437 4.17879e-05C8.1725 -0.00647689 6.22943 0.74969 4.6145 2.24898C2.99956 3.74828 2.19531 5.56699 2.19531 7.6986C2.19531 9.237 2.52345 10.4951 3.19258 11.4729C3.85528 12.4442 4.65953 13.2004 5.61177 13.7219C6.564 14.2499 8.14676 14.9408 10.3601 15.8013C12.5734 16.6618 14.0403 17.5809 14.7673 18.5783V18.5717Z" fill="white"/>
<path d="M238.09 11.8378H124.176V0.72998H238.09V11.8443V11.8378ZM124.851 11.1599H237.414V1.40792H124.851V11.1599Z" fill="white"/>
<path d="M129.857 3.95672H128.242V9.38026H127.573V3.27878H129.857V3.95672Z" fill="white"/>
<path d="M133.833 3.29834V3.73509H136.516V4.32177H130.449V3.73509H133.145V3.29834H133.84H133.833ZM135.416 8.81314C135.532 8.81314 135.577 8.76099 135.577 8.64365V6.92272H131.375V9.42589H130.693V6.38819H136.252V8.89136C136.252 9.02173 136.24 9.13255 136.169 9.24337C136.104 9.34767 136.008 9.42589 135.86 9.42589H134.818L134.715 8.83921H131.993V7.26821H134.978V8.81314H135.416ZM135.628 6.04922H131.337V4.59555H135.628V6.04922ZM132 5.07794V5.56684H134.972V5.07794H132ZM132.617 7.76363V8.33727H134.361V7.76363H132.617Z" fill="white"/>
<path d="M137.539 5.0649L137.082 4.59555C137.571 4.26962 137.906 3.84591 138.112 3.2853L138.717 3.3896C138.684 3.51345 138.646 3.61775 138.594 3.73509H140.081V4.30221H139.135C139.212 4.43259 139.283 4.56296 139.341 4.70637L138.697 4.96712C138.646 4.79112 138.53 4.45866 138.453 4.30221H138.273C138.06 4.58904 137.816 4.83675 137.539 5.0649ZM139.843 4.58252C140.293 4.19792 140.525 3.83287 140.743 3.2853L141.329 3.38308C141.29 3.50694 141.252 3.61775 141.2 3.73509H143.195V4.30221H141.927C142.011 4.44563 142.094 4.58904 142.172 4.73897L141.567 4.99319C141.477 4.75852 141.367 4.53037 141.258 4.30221H140.904C140.769 4.51733 140.628 4.69334 140.454 4.87586H140.505V5.19527H142.809V5.79499H140.505V6.2187H143.195V6.8119H142.03V7.25517H143.143V7.83534H142.03V8.67625C142.03 9.02174 142.03 9.43241 141.483 9.43241H140.28L140.177 8.78054H141.142C141.297 8.78054 141.335 8.72188 141.335 8.55239V7.83534H138.549C138.826 8.01786 139.302 8.5198 139.489 8.79358L138.974 9.24337C138.723 8.89788 138.369 8.49372 138.041 8.22646L138.472 7.83534H137.217V7.25517H141.335V6.8119H137.153V6.2187H139.83V5.79499H137.578V5.19527H139.83V4.87586H140.229L139.843 4.58252Z" fill="white"/>
<path d="M147.512 6.147C147.448 6.25782 147.377 6.36863 147.306 6.47945L146.785 5.98403C146.875 5.85366 146.933 5.76892 147.01 5.63202H146.109C145.955 5.79499 145.788 5.95144 145.62 6.10137H146.746V6.64894C146.463 6.92272 146.257 7.09873 145.929 7.31384V7.4377C146.334 7.38555 146.74 7.33992 147.145 7.27473V7.84837C146.74 7.9266 146.334 7.99178 145.929 8.05045V8.93699C145.929 9.19774 145.755 9.41937 145.485 9.41937H144.527L144.404 8.79358H145.138C145.247 8.79358 145.305 8.76099 145.305 8.64365V8.12868C144.835 8.18735 144.359 8.22646 143.883 8.26557L143.832 7.63326C144.321 7.60718 144.816 7.56807 145.305 7.5094V7.0531H145.485C145.607 6.96835 145.845 6.76627 145.929 6.64894H144.919C144.649 6.83798 144.391 7.00095 144.102 7.15739L143.812 6.57723C144.353 6.30997 144.79 6.02314 145.254 5.63202H143.883V5.03882H145.067V4.42607H144.044V3.83939H145.067V3.31789H145.665V3.83939H146.412V4.32177C146.592 4.0545 146.714 3.80028 146.843 3.50694L147.415 3.76768C147.19 4.24355 146.959 4.62163 146.63 5.03882H147.055V5.56032C147.422 4.8889 147.621 4.04147 147.731 3.2853L148.368 3.35049C148.329 3.66338 148.284 3.97628 148.22 4.28918H149.873V4.96712H149.558C149.487 5.89929 149.326 6.86405 148.857 7.67889C149.191 8.09608 149.577 8.44809 149.983 8.78706L149.603 9.41937C149.153 9.07388 148.792 8.71536 148.451 8.25905C148.02 8.76099 147.576 9.09344 147.01 9.41937L146.585 8.79358C147.164 8.53935 147.686 8.19386 148.085 7.68541C147.814 7.20302 147.615 6.69457 147.512 6.147ZM146.341 4.42607H145.665V5.03882H145.858C146.032 4.84326 146.193 4.64119 146.341 4.42607ZM148.921 4.96712H148.039C148.007 5.05838 147.982 5.14964 147.943 5.2409C148.007 5.87973 148.149 6.51856 148.458 7.08569C148.747 6.44686 148.876 5.66462 148.921 4.96712Z" fill="white"/>
<path d="M150.774 5.5538L150.722 4.94104C151.154 4.94104 151.578 4.92801 152.003 4.92149C152.125 4.74548 152.241 4.56296 152.344 4.37392H150.542V3.7742H153.257V3.30486H153.907V3.7742H156.597V4.37392H154.982C155.374 4.56948 156.018 5.03231 156.339 5.33217L155.812 5.78847C155.599 5.57987 155.445 5.46254 155.207 5.29305C153.727 5.41039 152.254 5.54728 150.774 5.5538ZM155.805 8.78054C155.805 9.20426 155.587 9.44545 155.162 9.44545H154.075L153.927 8.78054H154.956C155.11 8.78054 155.149 8.77403 155.149 8.61758V8.25905H151.984V9.44545H151.321V5.84062H155.805V8.78054ZM151.99 6.36863V6.78583H155.155V6.36863H151.99ZM151.99 7.3008V7.73104H155.155V7.3008H151.99ZM154.152 4.64119L154.66 4.37392H153.116C152.955 4.62815 152.929 4.67378 152.756 4.90845C153.335 4.90845 153.92 4.86282 154.499 4.84326C154.383 4.77156 154.268 4.70637 154.152 4.64119Z" fill="white"/>
<path d="M159.968 8.44157C160.541 8.4155 161.268 8.33727 161.705 7.93312C162.143 7.52896 162.304 6.90317 162.304 6.323C162.304 5.70373 162.078 5.11053 161.532 4.77156C161.236 4.58904 160.953 4.53689 160.612 4.51733C160.515 5.54076 160.399 6.77279 159.91 7.69193C159.653 8.18734 159.26 8.61758 158.668 8.61758C157.748 8.61758 157.407 7.48333 157.407 6.72716C157.407 5.81455 157.768 4.98016 158.495 4.42607C159.067 3.99584 159.717 3.83287 160.425 3.83287C161.313 3.83287 162.13 4.09362 162.664 4.8563C162.986 5.31261 163.101 5.84714 163.101 6.40775C163.101 7.44422 162.696 8.35031 161.725 8.79358C161.197 9.03477 160.727 9.10648 160.155 9.13255L159.968 8.44157ZM158.559 5.35172C158.263 5.75588 158.115 6.32952 158.115 6.82494C158.115 7.18347 158.179 7.62674 158.495 7.84185C158.553 7.88097 158.63 7.90052 158.707 7.90052C159.177 7.90052 159.421 7.18999 159.524 6.8119C159.749 6.01663 159.827 5.37128 159.884 4.54992C159.331 4.6477 158.9 4.8889 158.559 5.35172Z" fill="white"/>
<path d="M164.15 6.90317L163.854 6.09485C164.414 5.29957 164.697 4.2631 164.845 3.30486L165.54 3.40264C165.424 3.93065 165.302 4.45214 165.141 4.96712V9.42589H164.504V6.41427C164.388 6.59027 164.285 6.73368 164.15 6.90317ZM166.402 6.68153L166.145 6.14048V8.5915H165.508V4.32829H166.145V4.74548C166.608 4.3674 166.981 3.85894 167.187 3.29182L167.83 3.41567C167.773 3.58516 167.715 3.71553 167.637 3.8785H169.947V4.45214H169.484C169.31 4.90193 168.995 5.31261 168.641 5.63202C169.111 5.88625 169.529 6.01011 170.057 6.10137L169.774 6.72064C169.149 6.58375 168.628 6.37515 168.081 6.0427C167.528 6.38167 167.026 6.55116 166.402 6.68153ZM166.923 4.90193C166.775 5.05838 166.666 5.15616 166.505 5.28653L166.145 4.91497V6.10789C166.705 6.01663 167.052 5.92536 167.56 5.65158C167.316 5.42343 167.11 5.18875 166.923 4.90193ZM166.582 9.42589L166.325 8.83921C167.515 8.75447 168.615 8.48069 169.51 7.62674L169.979 8.02438C169.04 8.92396 167.843 9.31508 166.582 9.42589ZM166.557 7.51592L166.331 7.0205C166.981 6.89013 167.605 6.71412 168.178 6.36212L168.615 6.75975C168.101 7.13132 167.181 7.39858 166.557 7.51592ZM166.608 8.46765L166.389 7.90704C167.239 7.78319 168.133 7.53548 168.834 7.00095L169.285 7.38555C168.551 7.96571 167.515 8.32424 166.608 8.46765ZM168.834 4.45866H167.296V4.4717C167.502 4.7846 167.805 5.07142 168.114 5.29305C168.371 5.07794 168.68 4.76504 168.834 4.45866Z" fill="white"/>
<path d="M175.622 6.01011C175.23 6.36863 174.47 6.85102 173.981 7.0531V7.10524H176.684V7.74408H173.981V8.91092C173.981 9.30204 173.634 9.45197 173.454 9.45197H172.193L172.07 8.76099H173.106C173.28 8.76099 173.286 8.67625 173.286 8.55239V7.74408H170.591V7.10524H173.286V6.59679H173.57C173.878 6.49901 174.277 6.30345 174.522 6.08181H171.659V5.46906H175.622V6.01011ZM171.221 3.5656L171.845 3.33093C172.038 3.61124 172.225 3.9828 172.328 4.30873L172.18 4.3674H173.467C173.338 4.06102 173.209 3.8068 173.029 3.52649L173.666 3.27878C173.833 3.53953 174.065 3.99584 174.155 4.2957L173.943 4.3674H174.985C175.159 4.02191 175.281 3.66338 175.41 3.29834L176.15 3.51997C176.008 3.84591 175.899 4.06102 175.725 4.3674H176.542V5.86018H175.892V4.98668H171.421V5.86018H170.771V4.3674H171.607C171.498 4.0871 171.363 3.81983 171.221 3.5656Z" fill="white"/>
<path d="M181.67 6.15352H177.777V5.51469H179.991V4.66074H177.308V4.00887H179.991V3.29834H180.641V4.00887H183.349V4.66074H180.641V5.51469H182.455V6.16656C182.024 6.87709 181.554 7.50288 180.911 8.03742C181.689 8.44809 182.461 8.61106 183.336 8.66973L183.079 9.40634C182.127 9.25641 181.117 8.98914 180.293 8.48069C179.463 8.98914 178.556 9.24989 177.617 9.43241L177.314 8.6958C178.138 8.5915 178.955 8.42854 179.695 8.04393C179.193 7.62022 178.852 7.18999 178.511 6.62938L179.051 6.28389C179.412 6.83798 179.785 7.26821 180.312 7.65933C180.879 7.2291 181.271 6.7402 181.67 6.15352Z" fill="white"/>
<path d="M184.733 5.07794H183.999V4.46518H184.733V3.33093H185.402V4.46518H185.936V5.07794H185.402V6.29041C185.563 6.22522 185.717 6.16004 185.878 6.08833L185.859 6.74672C185.698 6.83798 185.575 6.89665 185.402 6.96835V8.93699C185.402 9.24337 185.241 9.44545 184.926 9.44545H184.102L184.031 8.77403H184.572C184.713 8.77403 184.733 8.72188 184.733 8.57847V7.22258C184.482 7.31384 184.263 7.38555 183.999 7.44422L183.941 6.72716C184.211 6.66849 184.475 6.60331 184.733 6.51856V5.07794ZM189.648 7.14436V7.63978C189.474 8.01134 189.204 8.30468 188.889 8.56543C189.333 8.71536 189.667 8.76099 190.131 8.77403L189.835 9.44545C189.294 9.34767 188.773 9.19122 188.291 8.93699C187.847 9.17166 187.441 9.32159 186.959 9.44545L186.708 8.8001C187.081 8.76099 187.351 8.70232 187.699 8.56543C187.48 8.40246 187.351 8.27209 187.203 8.04393L187.724 7.75711C187.872 7.98527 188.046 8.12868 188.271 8.26557C188.561 8.07653 188.741 7.92008 188.947 7.63978H187.261C186.946 8.36335 186.586 8.89136 186.039 9.44545L185.569 8.99566C186.225 8.31772 186.682 7.66585 186.907 6.72716H185.994V6.17959H186.997C187.01 6.0427 187.017 5.90581 187.023 5.76892H186.129V5.22135H188.754C188.973 4.8563 189.153 4.4717 189.314 4.07406L189.918 4.30873C189.79 4.63467 189.635 4.92149 189.462 5.22135H189.905V5.76892H187.634C187.634 5.90581 187.634 6.0427 187.621 6.17959H190.034V6.72716H187.538C187.512 6.87057 187.473 7.00746 187.435 7.14436H189.648ZM187.937 4.25007C187.274 4.30873 186.631 4.33481 186.129 4.33481L185.929 3.71553C187.152 3.70901 188.509 3.68946 189.674 3.29834L189.918 3.89806C189.397 4.06102 188.644 4.18488 187.937 4.25007ZM187.158 5.07794L186.508 5.21483C186.444 4.98668 186.348 4.70637 186.251 4.49126L186.907 4.34785C187.004 4.58252 187.087 4.83023 187.158 5.07794ZM188.387 5.03882L187.731 5.1692C187.666 4.90845 187.596 4.66074 187.506 4.40651L188.181 4.27614C188.265 4.53037 188.342 4.77808 188.387 5.03882Z" fill="white"/>
<path d="M190.735 7.17043V6.57071H192.042V5.96448H190.703V5.37128H191.417C191.379 5.07794 191.321 4.71289 191.224 4.43911H190.832V3.84591H192.042V3.30486H192.659V3.84591H193.772V4.43911H193.47C193.393 4.7846 193.348 5.03231 193.238 5.37128H193.869V5.96448H192.659V6.57071H193.721V7.17043H192.781C193.013 7.45725 193.264 7.718 193.573 7.91356L193.251 8.50024C193.065 8.33727 192.807 8.0309 192.659 7.80274V9.43893H192.042V7.8223C191.694 8.28512 191.366 8.64365 190.903 8.98914L190.549 8.38942C191.07 8.0309 191.488 7.69844 191.855 7.17043H190.735ZM191.81 4.44563C191.887 4.68682 191.977 5.12357 192.009 5.3778H192.659C192.736 5.11705 192.82 4.71289 192.859 4.44563H191.81ZM194.725 4.40651V5.39735H196.713V6.02314H196.082V9.43893H195.413V6.02314H194.725V6.19915C194.725 7.45725 194.609 8.38942 193.862 9.43893L193.238 9.00218C193.952 8.1352 194.081 7.32036 194.081 6.2187V3.79376C194.95 3.79376 195.6 3.66338 196.346 3.30486L196.713 3.91761C196.101 4.21095 195.394 4.38044 194.725 4.40651Z" fill="white"/>
<path d="M197.942 5.1366L197.395 4.81067C197.665 4.37392 197.839 3.89806 197.897 3.3896L198.527 3.46782C198.488 3.65035 198.45 3.83287 198.398 4.00887H198.92V3.31138H199.544V4.00887H200.908V4.62163H199.544V5.23438H201.017V5.86018H199.544V6.40775H200.85V8.50024C200.85 8.83269 200.753 8.98262 200.412 8.98262H199.833L199.717 8.32424H200.091C200.181 8.32424 200.232 8.25905 200.232 8.18083V7.02702H199.544V9.43893H198.92V7.02702H198.289V9.01522H197.658V6.40775H198.92V5.86018H197.414V5.23438H198.92V4.62163H198.192C198.115 4.81067 198.038 4.9606 197.942 5.1366ZM201.95 3.68946V7.894H201.3V3.68946H201.95ZM203.179 3.31789V8.93699C203.179 9.29552 202.934 9.43893 202.613 9.43893H201.667L201.551 8.73491H202.33C202.452 8.73491 202.49 8.6958 202.49 8.56543V3.31789H203.179Z" fill="white"/>
<path d="M206.827 3.80028V3.31789H207.502V3.80028H210.076V4.39999H209.072V4.88238H210.115V5.41691H209.072V6.42078H206.055V5.41691H205.167V6.60331C205.167 7.51592 205.051 8.61106 204.556 9.3933L204.028 8.88484C204.221 8.5915 204.324 8.32424 204.388 7.97875C204.466 7.53548 204.511 7.04006 204.511 6.59027V3.80028H206.827ZM208.673 7.36599H205.315V6.77931H209.446V7.36599C209.182 7.82882 208.796 8.17431 208.352 8.46113C208.944 8.63713 209.529 8.72188 210.14 8.78054L209.844 9.42589C209.079 9.34115 208.339 9.15863 207.631 8.84573C206.859 9.1847 206.113 9.35419 205.276 9.43893L205.013 8.83269C205.669 8.76751 206.261 8.65669 206.891 8.46765C206.55 8.25905 206.235 8.02438 205.971 7.718L206.499 7.37251C206.853 7.73104 207.181 7.97223 207.638 8.18735C208.062 7.97875 208.39 7.75059 208.673 7.36599ZM205.173 4.39348V4.87586H206.061V4.39348H205.173ZM206.685 4.39348V4.87586H208.455V4.39348H206.685ZM206.685 5.41039V5.89277H208.455V5.41039H206.685Z" fill="white"/>
<path d="M210.726 8.8001H212.341V3.38308H213.01V9.47804H210.726V8.8001Z" fill="white"/>
<path d="M216.806 4.97364H214.844V4.30873H216.066V3.31789H216.748V4.30873H217.874V4.97364H217.501C217.385 5.64506 217.231 6.30997 216.973 6.93576C217.289 7.30081 217.687 7.78971 217.913 8.21342L217.359 8.65017C217.141 8.27861 216.922 7.95919 216.658 7.6137C216.278 8.30468 215.796 8.81314 215.191 9.30856L214.728 8.70884C215.339 8.24601 215.809 7.73756 216.182 7.04658C215.789 6.61634 215.423 6.26434 214.959 5.91233L215.455 5.45602C215.815 5.74936 216.156 6.06226 216.478 6.40123C216.652 5.92536 216.742 5.46906 216.806 4.97364ZM219.302 7.49637L218.64 7.8223C218.44 7.24214 218.157 6.60983 217.823 6.09485L218.44 5.7624C218.801 6.30345 219.064 6.88361 219.302 7.49637ZM220.332 4.52385H220.872V5.22135H220.332V8.83921C220.332 9.37374 220.017 9.43241 219.566 9.43241H218.582L218.408 8.76099H219.418C219.611 8.76099 219.637 8.74795 219.637 8.60454V5.22135H218.074V4.52385H219.637V3.31789H220.332V4.52385Z" fill="white"/>
<path d="M224.565 7.36599C223.748 7.90052 222.732 8.21342 221.78 8.4155L221.586 7.84185C222.513 7.72452 223.433 7.45073 224.244 6.97487C224.179 6.9162 224.122 6.87057 224.051 6.82494C223.33 7.15088 222.629 7.3334 221.857 7.47029L221.664 6.92272C222.468 6.78583 223.266 6.60331 224.006 6.2513H221.979V4.95408C221.876 4.99319 221.78 5.03231 221.683 5.07142L221.419 4.49777C222.191 4.28266 222.828 3.91761 223.343 3.2853L224.031 3.42871C223.967 3.51345 223.903 3.5982 223.838 3.67642H226.071V4.19792C225.949 4.34785 225.807 4.47822 225.672 4.60859H227.158V6.2513H225.447C225.518 6.51205 225.601 6.72716 225.73 6.96183C226.084 6.75976 226.341 6.57723 226.624 6.28389L227.1 6.66198C226.766 6.95532 226.412 7.18999 226.032 7.4051C226.457 7.93963 227.068 8.30468 227.692 8.55239L227.268 9.19774C226.663 8.88484 226.18 8.5198 225.749 7.99178C225.35 7.50288 225.048 6.92924 224.939 6.30345C224.823 6.39471 224.713 6.46641 224.591 6.53812C225.209 6.98139 225.486 7.62674 225.486 8.3829C225.486 8.6241 225.46 9.09344 225.267 9.26293C225.093 9.41937 224.842 9.43893 224.617 9.43893H223.98L223.832 8.79358H224.45C224.784 8.79358 224.849 8.70884 224.849 8.38942C224.849 8.27861 224.836 8.18735 224.816 8.07653C223.851 8.68276 222.803 9.02825 221.702 9.289L221.496 8.70884C222.564 8.5198 223.755 8.18083 224.675 7.58111C224.636 7.48985 224.617 7.45073 224.565 7.36599ZM222.61 5.12357V5.7298H224.224V5.12357H222.61ZM224.733 4.60859C224.881 4.47822 225.029 4.34785 225.151 4.19792H223.298C223.118 4.34133 222.867 4.49126 222.667 4.60859H224.733ZM224.836 5.12357V5.7298H226.521V5.12357H224.836Z" fill="white"/>
<path d="M228.201 5.15616V4.53037H229.095V3.31789H229.706V4.53037H230.388V5.15616H229.706V5.53424C229.951 6.00359 230.24 6.36863 230.601 6.74672L230.266 7.37903C229.983 7.0205 229.912 6.88361 229.706 6.47945V9.43893H229.095V6.41427C228.902 7.04006 228.735 7.42466 228.394 7.97875L228.149 7.09221C228.452 6.64894 228.677 6.19915 228.857 5.65158C228.928 5.44298 228.953 5.35172 229.011 5.15616H228.201ZM234.39 8.78706L234.068 9.43893C233.386 9.21078 232.807 8.93047 232.254 8.44809C231.733 8.9044 231.128 9.19122 230.491 9.43893L230.15 8.83269C230.761 8.63061 231.308 8.38942 231.804 7.97223C231.392 7.45725 231.147 6.92924 230.961 6.29693L231.559 6.12093C231.72 6.64242 231.932 7.07265 232.28 7.49637C232.627 7.06613 232.84 6.61634 233.02 6.09485L233.644 6.30345C233.425 6.92272 233.155 7.45725 232.737 7.96571C233.238 8.38942 233.766 8.61758 234.39 8.78706ZM230.729 6.25782L230.272 5.77543C230.749 5.50165 231.096 5.18875 231.405 4.72593L231.945 5.01927C231.63 5.50817 231.218 5.94492 230.729 6.25782ZM232.64 3.32441V3.95672H234.255V4.576H230.427V3.95672H231.984V3.32441H232.64ZM233.959 6.26434C233.406 5.90581 233.058 5.56032 232.672 5.01927L233.213 4.69985C233.586 5.15616 233.888 5.41039 234.384 5.72329L233.959 6.26434Z" fill="white"/>
</g>
<defs>
<clipPath id="clip0_294_8066">
<rect width="238" height="37" fill="white"/>
</clipPath>
</defs>
</svg>
