<svg width="20" height="19" viewBox="0 0 20 19" fill="none" xmlns="http://www.w3.org/2000/svg">
<g clip-path="url(#clip0_294_4597)">
<path d="M19.4941 10.7181C19.5269 10.6839 19.5597 10.6519 19.5902 10.6154C19.6089 10.5926 19.6276 10.5675 19.6464 10.5424C19.6628 10.5196 19.6815 10.4991 19.6956 10.4763C19.7143 10.4489 19.7307 10.4216 19.7471 10.3919C19.7611 10.3714 19.7728 10.3508 19.7869 10.328C19.8033 10.3007 19.815 10.271 19.829 10.2436C19.8407 10.2208 19.8525 10.1957 19.8618 10.1729C19.8735 10.1456 19.8829 10.1182 19.8923 10.0885C19.9016 10.0612 19.9133 10.0361 19.9204 10.0087C19.9297 9.98134 19.9344 9.95168 19.9438 9.92431C19.9508 9.89694 19.9578 9.86957 19.9649 9.8422C19.9719 9.81027 19.9766 9.77605 19.9813 9.74412C19.9836 9.72131 19.9883 9.69622 19.9906 9.67341C20.0023 9.55709 20.0023 9.44076 19.9906 9.32671C19.9883 9.30162 19.9836 9.27881 19.9813 9.25601C19.9766 9.22179 19.9719 9.18986 19.9649 9.15564C19.9602 9.12827 19.9508 9.1009 19.9438 9.07353C19.9368 9.04616 19.9297 9.01651 19.9204 8.98914C19.911 8.96177 19.9016 8.93668 19.8923 8.90931C19.8829 8.88194 19.8735 8.85456 19.8618 8.82719C19.8525 8.8021 19.8384 8.77929 19.8267 8.75649C19.8126 8.72911 19.8009 8.69946 19.7845 8.67209C19.7728 8.64928 19.7588 8.62875 19.7447 8.60595C19.7283 8.57857 19.7119 8.5512 19.6932 8.52383C19.6768 8.50102 19.6581 8.47821 19.6417 8.4554C19.623 8.4326 19.6066 8.40751 19.5878 8.3847C19.555 8.34592 19.5222 8.30943 19.4848 8.27521C19.4778 8.26837 19.4731 8.26381 19.4684 8.25697L11.5222 0.515549C10.8173 -0.171005 9.67447 -0.171005 8.96956 0.515549C8.26464 1.2021 8.26464 2.31519 8.96956 3.00174L13.8384 7.74376H1.80562V7.74148C0.807963 7.7392 0 8.52611 0 9.49778C0 10.4695 0.807963 11.2564 1.80562 11.2564H13.8384L8.96956 16.0007C8.26464 16.6872 8.26464 17.8003 8.96956 18.4869C9.32084 18.829 9.78454 19.0023 10.2459 19.0023C10.7073 19.0023 11.1686 18.8313 11.5222 18.4869L19.4707 10.7454C19.4707 10.7454 19.4871 10.7272 19.4941 10.7204V10.7181Z" fill="url(#paint0_linear_294_4597)"/>
</g>
<defs>
<linearGradient id="paint0_linear_294_4597" x1="0.000718445" y1="9.50128" x2="20.0017" y2="9.50128" gradientUnits="userSpaceOnUse">
<stop stop-color="#FFE066"/>
<stop offset="1" stop-color="#FF99C3"/>
</linearGradient>
<clipPath id="clip0_294_4597">
<rect width="20" height="19" fill="white"/>
</clipPath>
</defs>
</svg>
