<svg width="379" height="211" viewBox="0 0 379 211" fill="none" xmlns="http://www.w3.org/2000/svg">
<path d="M80.6772 99.4251C77.9449 96.6986 77.9449 92.2766 80.6772 89.5466C83.4095 86.8202 87.841 86.8202 90.5768 89.5466C93.3091 92.2731 93.3091 96.6951 90.5768 99.4251C87.8445 102.152 83.413 102.152 80.6772 99.4251ZM148.984 199.077C146.252 201.803 146.252 206.225 148.984 208.955C151.716 211.682 156.148 211.682 158.884 208.955C161.62 206.229 161.616 201.807 158.884 199.077C156.152 196.35 151.72 196.35 148.984 199.077ZM299.951 117.675C297.219 114.948 292.787 114.948 290.051 117.675C287.319 120.401 287.319 124.823 290.051 127.553C292.783 130.28 297.215 130.28 299.951 127.553C302.683 124.827 302.683 120.405 299.951 117.675ZM217.858 11.9233C220.59 9.19684 220.59 4.77481 217.858 2.04483C215.125 -0.681608 210.694 -0.681608 207.958 2.04483C205.226 4.77126 205.226 9.19328 207.958 11.9233C210.69 14.6497 215.122 14.6497 217.858 11.9233ZM275.841 131.858L273.796 133.898C271.064 136.625 266.633 136.625 263.897 133.898C261.165 131.172 261.165 126.75 263.897 124.02L284.327 103.634C289.795 98.1774 289.795 89.3334 284.327 83.8805C278.858 78.4241 269.995 78.4241 264.531 83.8805L260.88 87.524C258.147 90.2505 253.716 90.2505 250.98 87.524C248.248 84.7976 248.248 80.3756 250.98 77.6456L264.31 64.344C267.042 61.6176 267.042 57.1956 264.31 54.4656C261.578 51.7392 257.146 51.7392 254.41 54.4656L250.335 58.5321C247.603 61.2586 243.171 61.2586 240.436 58.5321C237.703 55.8057 237.703 51.3837 240.436 48.6537L247.681 41.4235C253.149 35.9671 253.149 27.123 247.681 21.6702C242.213 16.2138 233.35 16.2138 227.886 21.6702L207.142 42.369C204.41 45.0955 199.978 45.0955 197.243 42.369C194.51 39.6426 194.51 35.2206 197.243 32.4906L204.894 24.8552C207.627 22.1287 207.627 17.7067 204.894 14.9767C202.162 12.2503 197.731 12.2503 194.995 14.9767L170.326 39.5928C167.594 42.3193 163.162 42.3193 160.426 39.5928C157.69 36.8664 157.694 32.4444 160.426 29.7144L163.718 26.4299C166.45 23.7035 166.45 19.2814 163.718 16.5514C160.986 13.825 156.554 13.825 153.818 16.5514L94.2745 75.9678C91.5422 78.6942 91.5422 83.1162 94.2745 85.8462C97.0067 88.5727 101.438 88.5727 104.174 85.8462L107.106 82.9207C109.838 80.1943 114.27 80.1943 117.005 82.9207C119.738 85.6472 119.738 90.0692 117.005 92.7992L91.9768 117.774L81.1011 128.627C75.633 134.083 75.633 142.927 81.1011 148.38C86.5692 153.836 95.4322 153.836 100.897 148.38L114.295 135.011C117.027 132.284 121.458 132.284 124.194 135.011C126.926 137.737 126.926 142.159 124.194 144.889L111.402 157.654C108.67 160.381 108.67 164.803 111.402 167.533C114.134 170.259 118.566 170.259 121.302 167.533L124.123 164.717C126.855 161.991 131.287 161.991 134.023 164.717C136.755 167.444 136.755 171.866 134.023 174.596L120.753 187.837C118.021 190.563 118.021 194.985 120.753 197.715C123.485 200.442 127.917 200.442 130.653 197.715L153.829 174.589C156.561 171.862 160.993 171.862 163.729 174.589C166.461 177.315 166.461 181.737 163.729 184.467L163.013 185.182C160.28 187.908 160.28 192.33 163.013 195.06C165.745 197.786 170.176 197.786 172.912 195.06L193.933 174.084C196.666 171.357 201.097 171.357 203.833 174.084C206.565 176.81 206.565 181.232 203.833 183.962L202.682 185.11C197.214 190.567 197.214 199.411 202.682 204.864C208.15 210.32 217.013 210.32 222.478 204.864L285.737 141.74C288.47 139.013 288.47 134.591 285.737 131.861C283.005 129.135 278.573 129.135 275.838 131.861L275.841 131.858Z" fill="url(#paint0_linear_294_4061)"/>
<g clip-path="url(#clip0_294_4061)">
<path d="M161.046 96.8687C162.451 96.5562 163.282 96.3816 163.802 96.3816C165.902 96.3816 166.915 97.9256 166.915 99.9107C166.915 101.896 165.911 102.907 164.113 103.394C161.968 103.964 159.777 104.23 157.631 104.543C157.723 107.897 157.978 111.206 158.334 114.514C160.744 115.351 162.981 116.407 165.254 117.777C167.18 118.926 168.805 119.982 168.805 122.06C168.805 123.999 167.445 125.855 165.427 125.855C163.894 125.855 162.707 124.752 161.529 123.916C160.525 123.208 159.512 122.547 158.462 121.977C157.321 126.563 152.766 128.327 148.466 128.327C144.167 128.327 139 126.25 139 121.085C139 115.13 144.961 113.053 149.909 113.053C150.347 113.053 150.785 113.099 151.223 113.099C150.913 110.186 150.612 107.318 150.52 104.276C150.429 100.839 150.392 97.3925 150.392 92.9812C150.392 92.0989 150.438 91.3453 150.958 90.5549C151.661 89.4521 152.885 89.1855 154.071 89.1855C156.792 89.1855 157.622 90.5549 157.622 93.1098C157.622 94.6079 157.577 96.1518 157.577 97.6499C158.499 97.4753 159.548 97.1628 161.036 96.8595L161.046 96.8687ZM149.251 119.054C148.156 119.054 145.527 119.403 145.527 120.911C145.527 122.014 147.234 122.142 148.028 122.142C149.954 122.142 151.534 121.389 151.798 119.321C150.968 119.146 150.137 119.054 149.261 119.054H149.251Z" fill="#006CB6"/>
<path d="M197.969 92.8065C197.969 94.0012 197.266 94.9203 196.527 95.8025C194.993 97.659 193.46 99.4603 191.926 101.271C190.438 102.989 188.95 104.8 187.59 106.656C187.325 107.006 187.106 107.41 187.106 107.888C187.106 108.55 187.59 109.211 187.983 109.744C190.657 113.623 193.46 117.418 196.308 121.26C197.449 122.804 198.28 123.999 198.28 125.359C198.28 127.61 196.217 129.2 194.117 129.2C193.241 129.2 192.273 128.851 191.707 128.143C190.703 126.912 189.781 125.276 188.987 124.081C186.75 120.644 184.477 117.244 182.067 113.935C180.707 112.079 179.785 110.277 179.785 107.888C179.785 105.498 180.835 103.522 182.195 101.712C184.778 98.2747 187.453 95.1408 190.037 91.6944C191.397 89.8839 192.355 88.9189 193.852 88.9189C195.952 88.9189 197.969 90.5916 197.969 92.7973V92.8065Z" fill="#006CB6"/>
<path d="M228.142 118.88C228.234 119.495 228.407 120.157 228.407 120.773C228.407 122.666 226.481 123.907 224.774 123.907C223.989 123.907 223.24 123.64 222.711 123.07C220.648 124.302 218.284 125.23 215.828 125.23C212.103 125.23 210.004 122.804 210.004 119.146C210.004 112.704 215.746 106.923 221.132 104.23C221.177 103.522 221.223 102.778 221.259 102.07C219.507 102.291 217.708 102.603 215.864 102.603C213.674 102.603 212.624 101.188 212.624 99.0284C212.624 96.8686 213.893 95.9404 215.864 95.8944C217.882 95.8485 219.936 95.7198 221.953 95.5452C222.127 94.1758 222.346 92.7697 222.784 91.4463C223.268 89.9483 224.445 89.3325 225.942 89.3325C227.786 89.3325 229.448 90.3435 229.448 92.3286C229.448 93.0822 229.32 93.7807 229.137 94.4883C230.361 94.2677 231.547 94.0012 232.734 93.652C234.003 93.2568 234.752 93.0822 235.409 93.0822C237.335 93.0822 238.385 94.4975 238.385 96.3448C238.385 98.192 237.417 99.0835 235.756 99.4787C233.3 100.048 230.452 100.49 228.042 100.848C227.951 101.289 227.914 101.73 227.869 102.126C229.493 101.859 231.155 101.638 232.78 101.638C240.183 101.638 245.706 105.783 245.706 113.641C245.706 119.109 242.684 123.3 238.129 126.085C236.285 127.188 233.264 128.603 231.383 128.603C229.503 128.603 228.051 126.792 228.051 124.945C228.051 123.098 229.101 122.611 231.118 121.903C235.153 120.488 238.832 117.887 238.832 113.301C238.832 111.003 237.737 108.982 235.637 108.099C233.711 112.069 231.301 115.819 228.142 118.907V118.88ZM216.312 118.089C216.312 118.53 216.577 118.88 217.06 118.88C218.42 118.88 220.173 117.685 221.269 116.94C221.095 115.13 221.004 113.283 220.958 111.426C219.425 112.704 216.312 115.975 216.312 118.089ZM226.965 108.384C226.965 109.092 226.919 109.799 226.919 110.544V112.217C228.015 110.801 229.019 109.257 229.813 107.677C228.845 107.805 227.887 108.072 226.965 108.384Z" fill="#006CB6"/>
<path d="M279.643 114.56C279.643 111.298 276.886 109.266 273.819 109.266C268.607 109.266 263.869 112.842 260.893 116.15C260.062 117.078 258.921 117.915 257.826 117.915C255.9 117.915 254.32 116.279 254.32 114.34C254.32 113.145 255.151 112.309 255.982 111.564C257.643 110.112 258.739 109.092 260.144 107.814C263.431 104.901 266.498 101.813 269.784 98.9457C267.502 99.2582 265.138 99.7361 262.819 99.7361C260.756 99.7361 259.706 98.4586 259.706 96.4275C259.706 95.4166 260.017 94.1759 260.893 93.6888C261.678 93.2477 262.6 93.1558 263.568 93.119C267.201 92.9444 270.67 92.8984 274.431 92.1908C275.134 92.0621 275.791 91.9702 276.494 91.9702C278.639 91.9702 280.346 93.5142 280.346 95.7658C280.346 96.9973 279.816 98.1002 278.904 98.9457C278.201 99.6074 277.461 100.177 276.713 100.802C275.617 101.73 274.476 102.659 273.381 103.578C274.038 103.486 274.695 103.403 275.353 103.403C281.578 103.403 286.526 108.164 286.526 114.523C286.526 118.181 284.865 121.719 282.016 124.008C279.077 126.388 275.225 127.188 271.546 127.188C267.073 127.188 261.514 125.552 261.514 120.13C261.514 116.205 264.846 113.687 268.524 113.687C271.856 113.687 275.882 115.847 275.882 119.642V120.175C278.119 119.201 279.652 117.088 279.652 114.569L279.643 114.56ZM270.441 120.911C270.441 119.808 269.346 118.88 268.296 118.88C267.639 118.88 266.936 119.275 266.936 120.028C266.936 121.352 268.817 121.747 269.83 121.747C269.958 121.747 270.095 121.747 270.222 121.701C270.35 121.435 270.441 121.214 270.441 120.911Z" fill="#006CB6"/>
<path d="M313.33 103.357C312.937 102.87 312.672 102.383 312.672 101.721C312.672 100.793 313.111 100.048 313.549 99.2948C314.379 97.7968 314.644 96.4274 314.644 94.7456V93.4681C314.644 89.2313 316.525 89.1486 320.121 88.9648C324.019 88.7902 326.037 88.6156 328.757 88.2112C329.286 88.1193 330.163 88.0366 330.418 88.0366C331.998 88.0366 332.874 89.0475 332.874 90.6375C332.874 92.448 331.733 92.8432 330.199 93.0178C327.351 93.367 324.503 93.4589 321.564 93.5508C320.687 93.5968 320.377 93.6795 320.377 94.5618V94.8742H331.642C333.303 94.8742 334.225 95.5359 334.225 97.3005C334.225 98.9364 333.13 99.5062 331.642 99.5062H328.748V101.932C328.748 102.686 328.702 103.164 328.136 103.743C330.199 104.579 330.637 106.482 330.637 108.504V117.152C330.637 120.855 329.104 122.317 325.425 122.317H322.842C325.033 123.107 326.74 123.548 329.022 123.953C332.217 124.486 333.623 124.743 333.623 126.866C333.623 128.676 332.436 129.862 330.647 129.862C328.145 129.862 323.681 128.539 321.272 127.702C318.551 126.728 317.328 126.287 317.328 124.614C317.328 123.686 317.638 122.942 318.296 122.317H308.565C309.176 122.978 309.569 123.769 309.569 124.697C309.569 126.462 307.25 127.215 304.219 128.134C302.074 128.796 298.304 129.899 296.067 129.899C294.05 129.899 293.174 128.309 293.174 126.857C293.174 124.872 294.397 124.522 296.77 124.164C298.916 123.851 302.028 123.015 304.046 122.307H301.371C297.692 122.307 296.159 120.855 296.159 117.142V108.494C296.159 107.52 296.25 106.684 296.597 105.719C296.506 105.765 296.378 105.765 296.25 105.765C294.671 105.765 292.836 104.441 292.836 102.723C292.836 102.015 293.274 101.133 293.977 99.9841C294.899 98.486 295.419 96.5836 295.419 94.7364V93.5416C295.419 89.4795 296.643 89.0383 300.331 88.9097C303.662 88.781 305.853 88.6432 309.267 88.0733C309.614 88.0274 309.97 87.9814 310.272 87.9814C311.714 87.9814 312.59 89.1762 312.59 90.5364C312.59 92.6502 311.23 92.9167 309.477 93.0913C307.551 93.2659 304.128 93.5324 302.202 93.5324C301.453 93.5324 301.061 93.6243 301.061 94.4607V94.8558H310.792C312.371 94.8558 313.375 95.4716 313.375 97.1902C313.375 98.9088 312.408 99.4878 310.838 99.4878H309.213V101.914C309.213 102.401 309.167 102.888 308.948 103.329H313.33V103.357ZM303.078 101.942V99.5154H300.54C300.23 101.105 299.929 102.162 299.135 103.578C299.883 103.403 300.623 103.357 301.371 103.357H303.343C303.124 102.916 303.078 102.429 303.078 101.942ZM323.937 108.118C323.937 107.548 323.672 107.281 323.106 107.281H303.653C303.087 107.281 302.823 107.548 302.823 108.118V108.825H323.946V108.118H323.937ZM302.813 111.913V113.503H323.937V111.913H302.813ZM302.813 116.628V117.335C302.813 117.905 303.078 118.172 303.644 118.172H323.097C323.627 118.172 323.928 117.905 323.928 117.335V116.628H302.804H302.813ZM322.531 101.942V99.5154H319.857C319.464 101.013 319.199 102.034 318.323 103.357H322.796C322.577 102.916 322.531 102.429 322.531 101.942Z" fill="#006CB6"/>
<path d="M346.574 126.737C346.574 129.035 345.478 130 343.196 130C341.051 130 340.129 128.805 340.129 126.737V94.4884C340.129 90.7388 341.617 89.2407 345.296 89.2407H353.274C356.953 89.2407 358.441 90.7388 358.441 94.4884V102.604C358.441 106.307 356.953 107.851 353.274 107.851H346.574V126.737ZM352.179 95.5453C352.179 94.9755 351.868 94.709 351.348 94.709H347.404C346.838 94.709 346.574 94.9755 346.574 95.5453V96.6482H352.179V95.5453ZM351.348 102.953C351.877 102.953 352.179 102.686 352.179 102.116V100.922H346.574V102.953H351.348ZM363.179 125.414H355.949C351.302 125.414 350.426 124.486 350.426 119.808V115.176C350.426 110.544 351.302 109.616 355.949 109.616H363.179C367.825 109.616 368.701 110.544 368.701 115.176V119.808C368.701 120.865 368.701 121.793 368.482 122.85C369.532 122.85 371.02 122.942 371.504 122.942C372.508 122.942 372.508 122.105 372.508 121.49V107.86H365.844C362.165 107.86 360.632 106.316 360.632 102.613V94.4884C360.632 90.7388 362.165 89.2407 365.844 89.2407H373.777C377.501 89.2407 378.989 90.7388 378.989 94.4884V124.973C378.989 126.646 378.551 128.456 376.844 129.338C375.922 129.825 372.946 129.871 371.239 129.871H370.189C367.515 129.871 364.886 129.779 364.886 126.214C364.886 125.947 364.931 125.644 364.977 125.331C364.365 125.423 363.754 125.423 363.179 125.423V125.414ZM357.355 115.001C356.743 115.001 356.478 115.314 356.478 115.93V118.843C356.478 119.413 356.743 119.725 357.355 119.725H361.782C362.348 119.725 362.658 119.413 362.658 118.843V115.93C362.658 115.314 362.348 115.001 361.782 115.001H357.355ZM372.508 95.5453C372.508 94.9755 372.198 94.709 371.677 94.709H367.734C367.204 94.709 366.903 94.9755 366.903 95.5453V96.6482H372.508V95.5453ZM372.508 100.922H366.903V102.116C366.903 102.686 367.213 102.953 367.734 102.953H372.508V100.922Z" fill="#006CB6"/>
</g>
<g clip-path="url(#clip1_294_4061)">
<path d="M33.05 109.08L0 90V128.16L33.05 109.08L0 90V128.16L33.05 109.08Z" fill="#F47F95"/>
<path d="M78.0595 109.08L45.0195 90V128.16L78.0595 109.08L45.0195 90V128.16L78.0595 109.08Z" fill="#00DEC7"/>
<path d="M123.081 109.08L90.0312 90V128.16L123.081 109.08L90.0312 90V128.16L123.081 109.08Z" fill="#FFD000"/>
</g>
<defs>
<linearGradient id="paint0_linear_294_4061" x1="110.861" y1="187.833" x2="262.211" y2="36.1582" gradientUnits="userSpaceOnUse">
<stop stop-color="#CAEDC2"/>
<stop offset="1" stop-color="#FFEDA6"/>
</linearGradient>
<clipPath id="clip0_294_4061">
<rect width="240" height="42" fill="white" transform="translate(139 88)"/>
</clipPath>
<clipPath id="clip1_294_4061">
<rect width="123.08" height="38.16" fill="white" transform="translate(0 90)"/>
</clipPath>
</defs>
</svg>
