<svg width="1200" height="211" viewBox="0 0 1200 211" fill="none" xmlns="http://www.w3.org/2000/svg">
<path d="M491.677 99.4251C488.945 96.6986 488.945 92.2766 491.677 89.5466C494.409 86.8202 498.841 86.8202 501.577 89.5466C504.309 92.2731 504.309 96.6951 501.577 99.4251C498.845 102.152 494.413 102.152 491.677 99.4251ZM559.984 199.077C557.252 201.803 557.252 206.225 559.984 208.955C562.716 211.682 567.148 211.682 569.884 208.955C572.62 206.229 572.616 201.807 569.884 199.077C567.152 196.35 562.72 196.35 559.984 199.077ZM710.951 117.675C708.219 114.948 703.787 114.948 701.051 117.675C698.319 120.401 698.319 124.823 701.051 127.553C703.783 130.28 708.215 130.28 710.951 127.553C713.683 124.827 713.683 120.405 710.951 117.675ZM628.858 11.9233C631.59 9.19684 631.59 4.77481 628.858 2.04483C626.125 -0.681608 621.694 -0.681608 618.958 2.04483C616.226 4.77126 616.226 9.19328 618.958 11.9233C621.69 14.6497 626.122 14.6497 628.858 11.9233ZM686.841 131.858L684.796 133.898C682.064 136.625 677.633 136.625 674.897 133.898C672.165 131.172 672.165 126.75 674.897 124.02L695.327 103.634C700.795 98.1774 700.795 89.3334 695.327 83.8805C689.858 78.4241 680.995 78.4241 675.531 83.8805L671.88 87.524C669.147 90.2505 664.716 90.2505 661.98 87.524C659.248 84.7976 659.248 80.3756 661.98 77.6456L675.31 64.344C678.042 61.6176 678.042 57.1956 675.31 54.4656C672.578 51.7392 668.146 51.7392 665.41 54.4656L661.335 58.5321C658.603 61.2586 654.171 61.2586 651.436 58.5321C648.703 55.8057 648.703 51.3837 651.436 48.6537L658.681 41.4235C664.149 35.9671 664.149 27.123 658.681 21.6702C653.213 16.2138 644.35 16.2138 638.886 21.6702L618.142 42.369C615.41 45.0955 610.978 45.0955 608.243 42.369C605.51 39.6426 605.51 35.2206 608.243 32.4906L615.894 24.8552C618.627 22.1287 618.627 17.7067 615.894 14.9767C613.162 12.2503 608.731 12.2503 605.995 14.9767L581.326 39.5928C578.594 42.3193 574.162 42.3193 571.426 39.5928C568.69 36.8664 568.694 32.4444 571.426 29.7144L574.718 26.4299C577.45 23.7035 577.45 19.2814 574.718 16.5514C571.986 13.825 567.554 13.825 564.818 16.5514L505.274 75.9678C502.542 78.6942 502.542 83.1162 505.274 85.8462C508.007 88.5727 512.438 88.5727 515.174 85.8462L518.106 82.9207C520.838 80.1943 525.27 80.1943 528.005 82.9207C530.738 85.6472 530.738 90.0692 528.005 92.7992L502.977 117.774L492.101 128.627C486.633 134.083 486.633 142.927 492.101 148.38C497.569 153.836 506.432 153.836 511.897 148.38L525.295 135.011C528.027 132.284 532.458 132.284 535.194 135.011C537.926 137.737 537.926 142.159 535.194 144.889L522.402 157.654C519.67 160.381 519.67 164.803 522.402 167.533C525.134 170.259 529.566 170.259 532.302 167.533L535.123 164.717C537.855 161.991 542.287 161.991 545.023 164.717C547.755 167.444 547.755 171.866 545.023 174.596L531.753 187.837C529.021 190.563 529.021 194.985 531.753 197.715C534.485 200.442 538.917 200.442 541.653 197.715L564.829 174.589C567.561 171.862 571.993 171.862 574.729 174.589C577.461 177.315 577.461 181.737 574.729 184.467L574.013 185.182C571.28 187.908 571.28 192.33 574.013 195.06C576.745 197.786 581.176 197.786 583.912 195.06L604.933 174.084C607.666 171.357 612.097 171.357 614.833 174.084C617.565 176.81 617.565 181.232 614.833 183.962L613.682 185.11C608.214 190.567 608.214 199.411 613.682 204.864C619.15 210.32 628.013 210.32 633.478 204.864L696.737 141.74C699.47 139.013 699.47 134.591 696.737 131.861C694.005 129.135 689.573 129.135 686.838 131.861L686.841 131.858Z" fill="url(#paint0_linear_294_4060)"/>
<g clip-path="url(#clip0_294_4060)">
<path d="M572.046 96.8687C573.451 96.5562 574.282 96.3816 574.802 96.3816C576.902 96.3816 577.915 97.9256 577.915 99.9107C577.915 101.896 576.911 102.907 575.113 103.394C572.968 103.964 570.777 104.23 568.631 104.543C568.723 107.897 568.978 111.206 569.334 114.514C571.744 115.351 573.981 116.407 576.254 117.777C578.18 118.926 579.805 119.982 579.805 122.06C579.805 123.999 578.445 125.855 576.427 125.855C574.894 125.855 573.707 124.752 572.529 123.916C571.525 123.208 570.512 122.547 569.462 121.977C568.321 126.563 563.766 128.327 559.466 128.327C555.167 128.327 550 126.25 550 121.085C550 115.13 555.961 113.053 560.909 113.053C561.347 113.053 561.785 113.099 562.223 113.099C561.913 110.186 561.612 107.318 561.52 104.276C561.429 100.839 561.392 97.3925 561.392 92.9812C561.392 92.0989 561.438 91.3453 561.958 90.5549C562.661 89.4521 563.885 89.1855 565.071 89.1855C567.792 89.1855 568.622 90.5549 568.622 93.1098C568.622 94.6079 568.577 96.1518 568.577 97.6499C569.499 97.4753 570.548 97.1628 572.036 96.8595L572.046 96.8687ZM560.251 119.054C559.156 119.054 556.527 119.403 556.527 120.911C556.527 122.014 558.234 122.142 559.028 122.142C560.954 122.142 562.534 121.389 562.798 119.321C561.968 119.146 561.137 119.054 560.261 119.054H560.251Z" fill="#006CB6"/>
<path d="M608.969 92.8065C608.969 94.0012 608.266 94.9203 607.527 95.8025C605.993 97.659 604.46 99.4603 602.926 101.271C601.438 102.989 599.95 104.8 598.59 106.656C598.325 107.006 598.106 107.41 598.106 107.888C598.106 108.55 598.59 109.211 598.983 109.744C601.657 113.623 604.46 117.418 607.308 121.26C608.449 122.804 609.28 123.999 609.28 125.359C609.28 127.61 607.217 129.2 605.117 129.2C604.241 129.2 603.273 128.851 602.707 128.143C601.703 126.912 600.781 125.276 599.987 124.081C597.75 120.644 595.477 117.244 593.067 113.935C591.707 112.079 590.785 110.277 590.785 107.888C590.785 105.498 591.835 103.522 593.195 101.712C595.778 98.2747 598.453 95.1408 601.037 91.6944C602.397 89.8839 603.355 88.9189 604.852 88.9189C606.952 88.9189 608.969 90.5916 608.969 92.7973V92.8065Z" fill="#006CB6"/>
<path d="M639.142 118.88C639.234 119.495 639.407 120.157 639.407 120.773C639.407 122.666 637.481 123.907 635.774 123.907C634.989 123.907 634.24 123.64 633.711 123.07C631.648 124.302 629.284 125.23 626.828 125.23C623.103 125.23 621.004 122.804 621.004 119.146C621.004 112.704 626.746 106.923 632.132 104.23C632.177 103.522 632.223 102.778 632.259 102.07C630.507 102.291 628.708 102.603 626.864 102.603C624.674 102.603 623.624 101.188 623.624 99.0284C623.624 96.8686 624.893 95.9404 626.864 95.8944C628.882 95.8485 630.936 95.7198 632.953 95.5452C633.127 94.1758 633.346 92.7697 633.784 91.4463C634.268 89.9483 635.445 89.3325 636.942 89.3325C638.786 89.3325 640.448 90.3435 640.448 92.3286C640.448 93.0822 640.32 93.7807 640.137 94.4883C641.361 94.2677 642.547 94.0012 643.734 93.652C645.003 93.2568 645.752 93.0822 646.409 93.0822C648.335 93.0822 649.385 94.4975 649.385 96.3448C649.385 98.192 648.417 99.0835 646.756 99.4787C644.3 100.048 641.452 100.49 639.042 100.848C638.951 101.289 638.914 101.73 638.869 102.126C640.493 101.859 642.155 101.638 643.78 101.638C651.183 101.638 656.706 105.783 656.706 113.641C656.706 119.109 653.684 123.3 649.129 126.085C647.285 127.188 644.264 128.603 642.383 128.603C640.503 128.603 639.051 126.792 639.051 124.945C639.051 123.098 640.101 122.611 642.118 121.903C646.153 120.488 649.832 117.887 649.832 113.301C649.832 111.003 648.737 108.982 646.637 108.099C644.711 112.069 642.301 115.819 639.142 118.907V118.88ZM627.312 118.089C627.312 118.53 627.577 118.88 628.06 118.88C629.42 118.88 631.173 117.685 632.269 116.94C632.095 115.13 632.004 113.283 631.958 111.426C630.425 112.704 627.312 115.975 627.312 118.089ZM637.965 108.384C637.965 109.092 637.919 109.799 637.919 110.544V112.217C639.015 110.801 640.019 109.257 640.813 107.677C639.845 107.805 638.887 108.072 637.965 108.384Z" fill="#006CB6"/>
<path d="M690.643 114.56C690.643 111.298 687.886 109.266 684.819 109.266C679.607 109.266 674.869 112.842 671.893 116.15C671.062 117.078 669.921 117.915 668.826 117.915C666.9 117.915 665.32 116.279 665.32 114.34C665.32 113.145 666.151 112.309 666.982 111.564C668.643 110.112 669.739 109.092 671.144 107.814C674.431 104.901 677.498 101.813 680.784 98.9457C678.502 99.2582 676.138 99.7361 673.819 99.7361C671.756 99.7361 670.706 98.4586 670.706 96.4275C670.706 95.4166 671.017 94.1759 671.893 93.6888C672.678 93.2477 673.6 93.1558 674.568 93.119C678.201 92.9444 681.67 92.8984 685.431 92.1908C686.134 92.0621 686.791 91.9702 687.494 91.9702C689.639 91.9702 691.346 93.5142 691.346 95.7658C691.346 96.9973 690.816 98.1002 689.904 98.9457C689.201 99.6074 688.461 100.177 687.713 100.802C686.617 101.73 685.476 102.659 684.381 103.578C685.038 103.486 685.695 103.403 686.353 103.403C692.578 103.403 697.526 108.164 697.526 114.523C697.526 118.181 695.865 121.719 693.016 124.008C690.077 126.388 686.225 127.188 682.546 127.188C678.073 127.188 672.514 125.552 672.514 120.13C672.514 116.205 675.846 113.687 679.524 113.687C682.856 113.687 686.882 115.847 686.882 119.642V120.175C689.119 119.201 690.652 117.088 690.652 114.569L690.643 114.56ZM681.441 120.911C681.441 119.808 680.346 118.88 679.296 118.88C678.639 118.88 677.936 119.275 677.936 120.028C677.936 121.352 679.817 121.747 680.83 121.747C680.958 121.747 681.095 121.747 681.222 121.701C681.35 121.435 681.441 121.214 681.441 120.911Z" fill="#006CB6"/>
<path d="M724.33 103.357C723.937 102.87 723.672 102.383 723.672 101.721C723.672 100.793 724.111 100.048 724.549 99.2948C725.379 97.7968 725.644 96.4274 725.644 94.7456V93.4681C725.644 89.2313 727.525 89.1486 731.121 88.9648C735.019 88.7902 737.037 88.6156 739.757 88.2112C740.286 88.1193 741.163 88.0366 741.418 88.0366C742.998 88.0366 743.874 89.0475 743.874 90.6375C743.874 92.448 742.733 92.8432 741.199 93.0178C738.351 93.367 735.503 93.4589 732.564 93.5508C731.687 93.5968 731.377 93.6795 731.377 94.5618V94.8742H742.642C744.303 94.8742 745.225 95.5359 745.225 97.3005C745.225 98.9364 744.13 99.5062 742.642 99.5062H739.748V101.932C739.748 102.686 739.702 103.164 739.136 103.743C741.199 104.579 741.637 106.482 741.637 108.504V117.152C741.637 120.855 740.104 122.317 736.425 122.317H733.842C736.033 123.107 737.74 123.548 740.022 123.953C743.217 124.486 744.623 124.743 744.623 126.866C744.623 128.676 743.436 129.862 741.647 129.862C739.145 129.862 734.681 128.539 732.272 127.702C729.551 126.728 728.328 126.287 728.328 124.614C728.328 123.686 728.638 122.942 729.296 122.317H719.565C720.176 122.978 720.569 123.769 720.569 124.697C720.569 126.462 718.25 127.215 715.219 128.134C713.074 128.796 709.304 129.899 707.067 129.899C705.05 129.899 704.174 128.309 704.174 126.857C704.174 124.872 705.397 124.522 707.77 124.164C709.916 123.851 713.028 123.015 715.046 122.307H712.371C708.692 122.307 707.159 120.855 707.159 117.142V108.494C707.159 107.52 707.25 106.684 707.597 105.719C707.506 105.765 707.378 105.765 707.25 105.765C705.671 105.765 703.836 104.441 703.836 102.723C703.836 102.015 704.274 101.133 704.977 99.9841C705.899 98.486 706.419 96.5836 706.419 94.7364V93.5416C706.419 89.4795 707.643 89.0383 711.331 88.9097C714.662 88.781 716.853 88.6432 720.267 88.0733C720.614 88.0274 720.97 87.9814 721.272 87.9814C722.714 87.9814 723.59 89.1762 723.59 90.5364C723.59 92.6502 722.23 92.9167 720.477 93.0913C718.551 93.2659 715.128 93.5324 713.202 93.5324C712.453 93.5324 712.061 93.6243 712.061 94.4607V94.8558H721.792C723.371 94.8558 724.375 95.4716 724.375 97.1902C724.375 98.9088 723.408 99.4878 721.838 99.4878H720.213V101.914C720.213 102.401 720.167 102.888 719.948 103.329H724.33V103.357ZM714.078 101.942V99.5154H711.54C711.23 101.105 710.929 102.162 710.135 103.578C710.883 103.403 711.623 103.357 712.371 103.357H714.343C714.124 102.916 714.078 102.429 714.078 101.942ZM734.937 108.118C734.937 107.548 734.672 107.281 734.106 107.281H714.653C714.087 107.281 713.823 107.548 713.823 108.118V108.825H734.946V108.118H734.937ZM713.813 111.913V113.503H734.937V111.913H713.813ZM713.813 116.628V117.335C713.813 117.905 714.078 118.172 714.644 118.172H734.097C734.627 118.172 734.928 117.905 734.928 117.335V116.628H713.804H713.813ZM733.531 101.942V99.5154H730.857C730.464 101.013 730.199 102.034 729.323 103.357H733.796C733.577 102.916 733.531 102.429 733.531 101.942Z" fill="#006CB6"/>
<path d="M757.574 126.737C757.574 129.035 756.478 130 754.196 130C752.051 130 751.129 128.805 751.129 126.737V94.4884C751.129 90.7388 752.617 89.2407 756.296 89.2407H764.274C767.953 89.2407 769.441 90.7388 769.441 94.4884V102.604C769.441 106.307 767.953 107.851 764.274 107.851H757.574V126.737ZM763.179 95.5453C763.179 94.9755 762.868 94.709 762.348 94.709H758.404C757.838 94.709 757.574 94.9755 757.574 95.5453V96.6482H763.179V95.5453ZM762.348 102.953C762.877 102.953 763.179 102.686 763.179 102.116V100.922H757.574V102.953H762.348ZM774.179 125.414H766.949C762.302 125.414 761.426 124.486 761.426 119.808V115.176C761.426 110.544 762.302 109.616 766.949 109.616H774.179C778.825 109.616 779.701 110.544 779.701 115.176V119.808C779.701 120.865 779.701 121.793 779.482 122.85C780.532 122.85 782.02 122.942 782.504 122.942C783.508 122.942 783.508 122.105 783.508 121.49V107.86H776.844C773.165 107.86 771.632 106.316 771.632 102.613V94.4884C771.632 90.7388 773.165 89.2407 776.844 89.2407H784.777C788.501 89.2407 789.989 90.7388 789.989 94.4884V124.973C789.989 126.646 789.551 128.456 787.844 129.338C786.922 129.825 783.946 129.871 782.239 129.871H781.189C778.515 129.871 775.886 129.779 775.886 126.214C775.886 125.947 775.931 125.644 775.977 125.331C775.365 125.423 774.754 125.423 774.179 125.423V125.414ZM768.355 115.001C767.743 115.001 767.478 115.314 767.478 115.93V118.843C767.478 119.413 767.743 119.725 768.355 119.725H772.782C773.348 119.725 773.658 119.413 773.658 118.843V115.93C773.658 115.314 773.348 115.001 772.782 115.001H768.355ZM783.508 95.5453C783.508 94.9755 783.198 94.709 782.677 94.709H778.734C778.204 94.709 777.903 94.9755 777.903 95.5453V96.6482H783.508V95.5453ZM783.508 100.922H777.903V102.116C777.903 102.686 778.213 102.953 778.734 102.953H783.508V100.922Z" fill="#006CB6"/>
</g>
<g clip-path="url(#clip1_294_4060)">
<path d="M444.05 109.08L411 90V128.16L444.05 109.08L411 90V128.16L444.05 109.08Z" fill="#F47F95"/>
<path d="M489.06 109.08L456.02 90V128.16L489.06 109.08L456.02 90V128.16L489.06 109.08Z" fill="#00DEC7"/>
<path d="M534.081 109.08L501.031 90V128.16L534.081 109.08L501.031 90V128.16L534.081 109.08Z" fill="#FFD000"/>
</g>
<path d="M343.313 161.72C344.397 160.639 346.161 160.639 347.244 161.72C348.328 162.8 348.328 164.558 347.244 165.638C346.161 166.718 344.397 166.718 343.313 165.638C342.229 164.558 342.229 162.8 343.313 161.72ZM329.984 165.638C331.068 166.718 332.831 166.718 333.915 165.638C334.999 164.558 334.999 162.8 333.915 161.72C332.831 160.639 331.068 160.639 329.984 161.72C328.9 162.8 328.9 164.558 329.984 165.638ZM323.319 159.002C324.403 160.082 326.167 160.082 327.25 159.002C328.334 157.922 328.334 156.164 327.25 155.084C326.167 154.004 324.403 154.004 323.319 155.084C322.235 156.164 322.235 157.922 323.319 159.002ZM336.648 159.002C337.732 160.082 339.496 160.082 340.58 159.002C341.664 157.922 341.664 156.164 340.58 155.084C339.496 154.004 337.732 154.004 336.648 155.084C335.564 156.164 335.564 157.922 336.648 159.002ZM329.984 152.36C331.068 153.44 332.831 153.44 333.915 152.36C334.999 151.28 334.999 149.522 333.915 148.441C332.831 147.361 331.068 147.361 329.984 148.441C328.9 149.522 328.9 151.28 329.984 152.36ZM349.971 159.002C351.055 160.082 352.818 160.082 353.902 159.002C354.986 157.922 354.986 156.164 353.902 155.084C352.818 154.004 351.055 154.004 349.971 155.084C348.887 156.164 348.887 157.922 349.971 159.002ZM343.313 152.36C344.397 153.44 346.161 153.44 347.244 152.36C348.328 151.28 348.328 149.522 347.244 148.441C346.161 147.361 344.397 147.361 343.313 148.441C342.229 149.522 342.229 151.28 343.313 152.36ZM336.648 145.717C337.732 146.798 339.496 146.798 340.58 145.717C341.664 144.637 341.664 142.879 340.58 141.799C339.496 140.719 337.732 140.719 336.648 141.799C335.564 142.879 335.564 144.637 336.648 145.717ZM316.661 152.36C317.745 153.44 319.509 153.44 320.593 152.36C321.676 151.28 321.676 149.522 320.593 148.441C319.509 147.361 317.745 147.361 316.661 148.441C315.577 149.522 315.577 151.28 316.661 152.36ZM323.319 145.717C324.403 146.798 326.167 146.798 327.25 145.717C328.334 144.637 328.334 142.879 327.25 141.799C326.167 140.719 324.403 140.719 323.319 141.799C322.235 142.879 322.235 144.637 323.319 145.717ZM309.996 145.717C311.08 146.798 312.844 146.798 313.928 145.717C315.012 144.637 315.012 142.879 313.928 141.799C312.844 140.719 311.08 140.719 309.996 141.799C308.913 142.879 308.913 144.637 309.996 145.717ZM316.661 139.075C317.745 140.155 319.509 140.155 320.593 139.075C321.676 137.995 321.676 136.237 320.593 135.157C319.509 134.076 317.745 134.076 316.661 135.157C315.577 136.237 315.577 137.995 316.661 139.075ZM309.996 132.439C311.08 133.52 312.844 133.52 313.928 132.439C315.012 131.359 315.012 129.601 313.928 128.521C312.844 127.441 311.08 127.441 309.996 128.521C308.913 129.601 308.913 131.359 309.996 132.439ZM329.984 139.075C331.068 140.155 332.831 140.155 333.915 139.075C334.999 137.995 334.999 136.237 333.915 135.157C332.831 134.076 331.068 134.076 329.984 135.157C328.9 136.237 328.9 137.995 329.984 139.075ZM323.319 132.439C324.403 133.52 326.167 133.52 327.25 132.439C328.334 131.359 328.334 129.601 327.25 128.521C326.167 127.441 324.403 127.441 323.319 128.521C322.235 129.601 322.235 131.359 323.319 132.439ZM316.661 125.797C317.745 126.877 319.509 126.877 320.593 125.797C321.676 124.717 321.676 122.959 320.593 121.879C319.509 120.798 317.745 120.798 316.661 121.879C315.577 122.959 315.577 124.717 316.661 125.797ZM356.635 152.36C357.719 153.44 359.483 153.44 360.567 152.36C361.651 151.28 361.651 149.522 360.567 148.441C359.483 147.361 357.719 147.361 356.635 148.441C355.552 149.522 355.552 151.28 356.635 152.36ZM363.3 145.717C364.384 146.798 366.148 146.798 367.232 145.717C368.315 144.637 368.315 142.879 367.232 141.799C366.148 140.719 364.384 140.719 363.3 141.799C362.216 142.879 362.216 144.637 363.3 145.717ZM349.971 145.717C351.055 146.798 352.818 146.798 353.902 145.717C354.986 144.637 354.986 142.879 353.902 141.799C352.818 140.719 351.055 140.719 349.971 141.799C348.887 142.879 348.887 144.637 349.971 145.717ZM343.313 139.075C344.397 140.155 346.161 140.155 347.244 139.075C348.328 137.995 348.328 136.237 347.244 135.157C346.161 134.076 344.397 134.076 343.313 135.157C342.229 136.237 342.229 137.995 343.313 139.075ZM356.635 139.075C357.719 140.155 359.483 140.155 360.567 139.075C361.651 137.995 361.651 136.237 360.567 135.157C359.483 134.076 357.719 134.076 356.635 135.157C355.552 136.237 355.552 137.995 356.635 139.075ZM349.971 132.439C351.055 133.52 352.818 133.52 353.902 132.439C354.986 131.359 354.986 129.601 353.902 128.521C352.818 127.441 351.055 127.441 349.971 128.521C348.887 129.601 348.887 131.359 349.971 132.439ZM363.3 132.439C364.384 133.52 366.148 133.52 367.232 132.439C368.315 131.359 368.315 129.601 367.232 128.521C366.148 127.441 364.384 127.441 363.3 128.521C362.216 129.601 362.216 131.359 363.3 132.439ZM356.635 125.797C357.719 126.877 359.483 126.877 360.567 125.797C361.651 124.717 361.651 122.959 360.567 121.879C359.483 120.798 357.719 120.798 356.635 121.879C355.552 122.959 355.552 124.717 356.635 125.797ZM336.648 132.439C337.732 133.52 339.496 133.52 340.58 132.439C341.664 131.359 341.664 129.601 340.58 128.521C339.496 127.441 337.732 127.441 336.648 128.521C335.564 129.601 335.564 131.359 336.648 132.439ZM343.313 125.797C344.397 126.877 346.161 126.877 347.244 125.797C348.328 124.717 348.328 122.959 347.244 121.879C346.161 120.798 344.397 120.798 343.313 121.879C342.229 122.959 342.229 124.717 343.313 125.797ZM329.984 125.797C331.068 126.877 332.831 126.877 333.915 125.797C334.999 124.717 334.999 122.959 333.915 121.879C332.831 120.798 331.068 120.798 329.984 121.879C328.9 122.959 328.9 124.717 329.984 125.797ZM323.319 119.155C324.403 120.235 326.167 120.235 327.25 119.155C328.334 118.074 328.334 116.316 327.25 115.236C326.167 114.156 324.403 114.156 323.319 115.236C322.235 116.316 322.235 118.074 323.319 119.155ZM336.648 119.155C337.732 120.235 339.496 120.235 340.58 119.155C341.664 118.074 341.664 116.316 340.58 115.236C339.496 114.156 337.732 114.156 336.648 115.236C335.564 116.316 335.564 118.074 336.648 119.155ZM329.984 112.512C331.068 113.592 332.831 113.592 333.915 112.512C334.999 111.432 334.999 109.674 333.915 108.594C332.831 107.514 331.068 107.514 329.984 108.594C328.9 109.674 328.9 111.432 329.984 112.512ZM349.971 119.155C351.055 120.235 352.818 120.235 353.902 119.155C354.986 118.074 354.986 116.316 353.902 115.236C352.818 114.156 351.055 114.156 349.971 115.236C348.887 116.316 348.887 118.074 349.971 119.155ZM343.313 112.512C344.397 113.592 346.161 113.592 347.244 112.512C348.328 111.432 348.328 109.674 347.244 108.594C346.161 107.514 344.397 107.514 343.313 108.594C342.229 109.674 342.229 111.432 343.313 112.512Z" fill="url(#paint1_linear_294_4060)" fill-opacity="0.8"/>
<path d="M22.3232 162.038C15.4364 158.723 9.94985 153.678 6.13283 147.68L43.677 165.741C36.5882 166.493 29.2167 165.352 22.3232 162.038ZM0.242361 131.268C0.572227 133.965 1.18482 136.616 2.05324 139.172L52.8997 163.635C55.4511 162.722 57.9151 161.548 60.2376 160.132L0.242361 131.268ZM0.888624 117.997C0.39719 120.191 0.100979 122.398 0 124.599L65.6231 156.167C67.2859 154.711 68.841 153.107 70.2615 151.363L0.895342 117.99L0.888624 117.997ZM76.4279 140.762L5.39231 106.591C4.86048 107.496 4.36232 108.429 3.89781 109.389C3.4333 110.348 3.00919 111.321 2.6322 112.294L73.6678 146.465C74.1996 145.559 74.6978 144.627 75.1623 143.667C75.6268 142.708 76.0509 141.735 76.4279 140.762ZM13.4303 96.8753C11.7675 98.3313 10.2124 99.9349 8.79194 101.679L78.158 135.052C78.6495 132.858 78.9457 130.651 79.0467 128.45L13.4235 96.882L13.4303 96.8753ZM26.1537 89.4144C23.6023 90.3269 21.1384 91.501 18.8158 92.9167L78.811 121.781C78.4812 119.084 77.8686 116.433 77.0002 113.877L26.1537 89.4144ZM35.3764 87.3076L72.9206 105.37C69.1036 99.3713 63.617 94.3257 56.7302 91.0113C49.8434 87.6968 42.4652 86.5562 35.3832 87.3076H35.3764Z" fill="url(#paint2_linear_294_4060)" fill-opacity="0.8"/>
<path d="M335.54 17.7164C335.264 17.7164 334.981 17.6408 334.73 17.4895L328.322 13.6007C327.58 13.1532 327.342 12.1826 327.788 11.4389C328.234 10.6951 329.201 10.4556 329.942 10.9031L336.35 14.7919C337.092 15.2394 337.33 16.21 336.884 16.9538C336.589 17.4454 336.068 17.7164 335.54 17.7164ZM335.075 23.5087C335.521 22.7649 335.282 21.7943 334.541 21.3468L322.812 14.2373C322.071 13.7898 321.103 14.0293 320.657 14.773C320.211 15.5167 320.45 16.4874 321.191 16.9349L332.92 24.0444C333.172 24.1957 333.454 24.2713 333.731 24.2713C334.265 24.2713 334.78 24.0003 335.075 23.5087ZM333.272 30.0572C333.718 29.3135 333.486 28.3429 332.738 27.8954L315.701 17.5588C314.959 17.1113 313.992 17.3446 313.546 18.0946C313.1 18.8383 313.332 19.8089 314.08 20.2564L331.117 30.593C331.369 30.7442 331.651 30.8199 331.928 30.8199C332.462 30.8199 332.977 30.5489 333.272 30.0572ZM331.463 36.6121C331.909 35.8684 331.676 34.8978 330.929 34.4503L308.583 20.893C307.842 20.4455 306.874 20.685 306.428 21.4287C305.982 22.1725 306.215 23.1431 306.962 23.5906L329.308 37.1479C329.559 37.2991 329.842 37.3748 330.118 37.3748C330.652 37.3748 331.167 37.1037 331.463 36.6121ZM329.66 43.167C330.106 42.4233 329.873 41.4527 329.126 41.0052L301.459 24.2209C300.718 23.7734 299.75 24.0066 299.304 24.7566C298.858 25.5003 299.091 26.471 299.838 26.9185L327.505 43.7027C327.756 43.854 328.039 43.9296 328.315 43.9296C328.849 43.9296 329.365 43.6586 329.66 43.167ZM327.857 49.7219C328.303 48.9782 328.07 48.0075 327.323 47.56L294.341 27.555C293.6 27.1075 292.632 27.3471 292.186 28.0908C291.74 28.8345 291.973 29.8051 292.72 30.2526L325.702 50.2576C325.953 50.4089 326.236 50.4845 326.512 50.4845C327.046 50.4845 327.562 50.2135 327.857 49.7219ZM326.047 56.2768C326.494 55.533 326.261 54.5624 325.514 54.1149L287.223 30.8892C286.482 30.4417 285.515 30.6812 285.069 31.4249C284.623 32.1687 284.855 33.1393 285.603 33.5868L323.893 56.8125C324.144 56.9638 324.427 57.0394 324.703 57.0394C325.237 57.0394 325.752 56.7684 326.047 56.2768ZM324.238 62.8317C324.684 62.0879 324.452 61.1173 323.704 60.6698L280.099 34.2171C279.358 33.7696 278.391 34.0028 277.945 34.7528C277.499 35.4965 277.731 36.4672 278.479 36.9147L322.083 63.3674C322.335 63.5187 322.617 63.5943 322.894 63.5943C323.428 63.5943 323.943 63.3233 324.238 62.8317ZM322.435 69.3865C322.881 68.6428 322.649 67.6722 321.901 67.2247L272.988 37.5512C272.247 37.1037 271.279 37.3369 270.833 38.087C270.387 38.8307 270.62 39.8013 271.367 40.2488L320.28 69.9223C320.532 70.0735 320.814 70.1492 321.091 70.1492C321.625 70.1492 322.14 69.8782 322.435 69.3865ZM320.626 75.9351C321.072 75.1914 320.84 74.2208 320.092 73.7733L265.87 40.8728C265.129 40.4253 264.162 40.6585 263.715 41.4085C263.269 42.1523 263.502 43.1229 264.249 43.5704L318.471 76.4709C318.722 76.6221 319.005 76.6978 319.282 76.6978C319.816 76.6978 320.331 76.4267 320.626 75.9351ZM318.823 82.49C319.269 81.7463 319.037 80.7756 318.289 80.3282L258.753 44.2007C258.011 43.7532 257.044 43.9864 256.598 44.7364C256.152 45.4801 256.384 46.4508 257.132 46.8983L316.668 83.0257C316.919 83.177 317.202 83.2526 317.479 83.2526C318.013 83.2526 318.528 82.9816 318.823 82.49ZM317.014 89.0386C317.46 88.2949 317.227 87.3242 316.48 86.8767L251.635 47.5348C250.894 47.0873 249.926 47.3205 249.48 48.0706C249.034 48.8143 249.266 49.7849 250.014 50.2324L314.859 89.5743C315.11 89.7256 315.393 89.8012 315.669 89.8012C316.203 89.8012 316.718 89.5302 317.014 89.0386Z" fill="url(#paint3_linear_294_4060)" fill-opacity="0.8"/>
<path d="M193.244 85.2714C199.263 89.4783 204.285 94.7318 208.162 100.898C211.905 106.856 214.43 113.391 215.655 120.335C216.88 127.28 216.759 134.284 215.285 141.155L191.588 136.102C192.41 132.285 192.477 128.393 191.79 124.529C191.11 120.664 189.703 117.027 187.63 113.72C185.482 110.305 182.695 107.386 179.343 105.044C175.99 102.703 172.281 101.086 168.323 100.24C164.492 99.4217 160.588 99.3546 156.71 100.032C152.826 100.71 149.177 102.106 145.865 104.179L133 83.7081C138.978 79.9777 145.542 77.4683 152.509 76.2472C159.477 75.0261 166.505 75.1468 173.398 76.6229C180.548 78.146 187.226 81.0512 193.244 85.258C193.244 85.258 193.251 85.258 193.258 85.2647L193.244 85.2714Z" fill="url(#paint4_linear_294_4060)" fill-opacity="0.8"/>
<g clip-path="url(#clip2_294_4060)">
<path d="M1110.98 94.1732L1065.77 64.6255C1075.01 64.8634 1084.31 67.5835 1092.61 73.0107C1100.91 78.4316 1107.1 85.833 1110.98 94.1732ZM1115.74 116.223C1115.78 112.712 1115.45 109.207 1114.77 105.774L1053.53 65.7572C1050.09 66.4967 1046.72 67.577 1043.49 69.0046L1115.74 116.223ZM1112.63 133.135C1113.64 130.402 1114.4 127.624 1114.91 124.814L1035.88 73.1651C1033.49 74.7469 1031.21 76.541 1029.08 78.5409L1112.63 133.135ZM1107.29 143.674C1108.05 142.523 1108.76 141.347 1109.42 140.163L1023.87 84.2575C1023.03 85.325 1022.22 86.4374 1021.46 87.5885C1020.69 88.7395 1019.99 89.9163 1019.33 91.0995L1104.88 147.005C1105.72 145.938 1106.52 144.825 1107.29 143.674ZM1092.87 158.098C1095.26 156.516 1097.53 154.722 1099.66 152.722L1016.11 98.1279C1015.11 100.861 1014.34 103.639 1013.83 106.449L1092.87 158.098ZM1075.21 165.499C1078.66 164.76 1082.02 163.679 1085.25 162.252L1013 115.033C1012.96 118.544 1013.29 122.049 1013.97 125.483L1075.21 165.499ZM1036.14 158.252C1044.44 163.673 1053.73 166.393 1062.98 166.637L1017.77 137.09C1021.65 145.43 1027.85 152.831 1036.14 158.252Z" fill="url(#paint5_linear_294_4060)" fill-opacity="0.8"/>
<path d="M912.155 28.8003C911.617 27.1529 912.521 25.3892 914.176 24.8536C915.831 24.3179 917.603 25.2174 918.141 26.8648C918.679 28.5123 917.776 30.2759 916.121 30.8116C914.465 31.3472 912.694 30.4477 912.155 28.8003ZM926.254 27.5268C927.909 26.9912 928.813 25.2225 928.275 23.5801C927.737 21.9327 925.96 21.0332 924.31 21.5689C922.655 22.1045 921.751 23.8732 922.289 25.5156C922.827 27.163 924.604 28.0625 926.254 27.5268ZM919.421 40.8982C921.076 40.3625 921.979 38.5938 921.441 36.9515C920.903 35.3041 919.126 34.4045 917.476 34.9402C915.821 35.4759 914.917 37.2446 915.455 38.8869C915.994 40.5343 917.771 41.4339 919.421 40.8982ZM922.716 50.9899C924.371 50.4542 925.274 48.6855 924.736 47.0432C924.198 45.3957 922.421 44.4962 920.771 45.0319C919.116 45.5676 918.212 47.3362 918.75 48.9786C919.289 50.621 921.065 51.5255 922.716 50.9899ZM929.554 37.6135C931.209 37.0778 932.113 35.3091 931.575 33.6667C931.037 32.0193 929.26 31.1198 927.61 31.6555C925.955 32.1911 925.051 33.9598 925.589 35.6022C926.127 37.2496 927.904 38.1491 929.554 37.6135ZM932.854 47.7052C934.509 47.1695 935.413 45.4008 934.875 43.7584C934.337 42.111 932.56 41.2115 930.91 41.7472C929.255 42.2828 928.351 44.0515 928.889 45.6939C929.427 47.3413 931.204 48.2408 932.854 47.7052ZM936.393 24.2421C938.048 23.7065 938.952 21.9378 938.413 20.2954C937.875 18.648 936.098 17.7485 934.448 18.2841C932.793 18.8198 931.89 20.5885 932.428 22.2309C932.966 23.8783 934.743 24.7778 936.393 24.2421ZM939.693 34.3338C941.348 33.7981 942.252 32.0294 941.713 30.3871C941.175 28.7397 939.398 27.8402 937.748 28.3758C936.093 28.9115 935.19 30.6802 935.728 32.3225C936.266 33.9649 938.043 34.8695 939.693 34.3338ZM942.988 44.4204C944.643 43.8848 945.547 42.1161 945.008 40.4737C944.47 38.8313 942.693 37.9268 941.043 38.4624C939.388 38.9981 938.484 40.7668 939.023 42.4092C939.561 44.0566 941.338 44.9561 942.988 44.4204ZM926.016 61.0765C927.671 60.5408 928.574 58.7721 928.036 57.1298C927.498 55.4824 925.721 54.5829 924.071 55.1185C922.416 55.6542 921.512 57.4229 922.05 59.0652C922.589 60.7127 924.366 61.6122 926.016 61.0765ZM936.149 57.7918C937.804 57.2561 938.708 55.4874 938.17 53.8451C937.632 52.1976 935.855 51.2981 934.205 51.8338C932.55 52.3695 931.646 54.1382 932.184 55.7805C932.722 57.4279 934.499 58.3274 936.149 57.7918ZM929.31 71.1631C930.966 70.6275 931.869 68.8588 931.331 67.2164C930.793 65.569 929.016 64.6695 927.366 65.2051C925.711 65.7408 924.807 67.5095 925.345 69.1519C925.884 70.7993 927.66 71.6988 929.31 71.1631ZM932.61 81.2548C934.266 80.7191 935.169 78.9504 934.631 77.3081C934.093 75.6607 932.316 74.7612 930.666 75.2968C929.011 75.8325 928.107 77.6012 928.645 79.2435C929.184 80.891 930.96 81.7905 932.61 81.2548ZM939.449 67.8835C941.104 67.3478 942.008 65.5791 941.47 63.9367C940.932 62.2893 939.155 61.3898 937.505 61.9255C935.85 62.4611 934.946 64.2298 935.484 65.8722C936.022 67.5196 937.799 68.4191 939.449 67.8835ZM942.749 77.9701C944.404 77.4344 945.308 75.6657 944.77 74.0234C944.232 72.381 942.455 71.4764 940.805 72.0121C939.15 72.5478 938.246 74.3165 938.784 75.9588C939.322 77.6062 941.099 78.5057 942.749 77.9701ZM946.288 54.5121C947.943 53.9764 948.847 52.2077 948.308 50.5654C947.77 48.918 945.993 48.0185 944.343 48.5541C942.688 49.0898 941.785 50.8585 942.323 52.5008C942.861 54.1483 944.638 55.0478 946.288 54.5121ZM949.583 64.5987C951.238 64.0631 952.141 62.2944 951.603 60.652C951.065 59.0046 949.288 58.1051 947.638 58.6408C945.983 59.1764 945.079 60.9451 945.618 62.5875C946.156 64.2349 947.933 65.1344 949.583 64.5987ZM952.883 74.6904C954.538 74.1548 955.441 72.3861 954.903 70.7437C954.365 69.0963 952.588 68.1968 950.938 68.7324C949.283 69.2681 948.379 71.0368 948.918 72.6792C949.456 74.3266 951.233 75.2261 952.883 74.6904ZM946.526 20.9624C948.181 20.4268 949.085 18.6581 948.547 17.0157C948.009 15.3683 946.232 14.4688 944.582 15.0045C942.927 15.5401 942.023 17.3088 942.561 18.9512C943.099 20.5986 944.876 21.4981 946.526 20.9624ZM956.665 17.6777C958.32 17.1421 959.224 15.3734 958.686 13.731C958.147 12.0836 956.371 11.1841 954.721 11.7197C953.065 12.2554 952.162 14.0241 952.7 15.6665C953.238 17.3139 955.015 18.2134 956.665 17.6777ZM949.826 31.0491C951.481 30.5134 952.385 28.7447 951.847 27.1024C951.309 25.4549 949.532 24.5554 947.882 25.0911C946.227 25.6268 945.323 27.3955 945.861 29.0378C946.399 30.6852 948.176 31.5847 949.826 31.0491ZM953.126 41.1408C954.781 40.6051 955.685 38.8364 955.147 37.194C954.609 35.5466 952.832 34.6471 951.182 35.1828C949.532 35.7184 948.623 37.4871 949.161 39.1295C949.699 40.7769 951.476 41.6764 953.126 41.1408ZM959.965 27.7694C961.62 27.2337 962.524 25.465 961.986 23.8227C961.448 22.1753 959.671 21.2758 958.021 21.8114C956.365 22.3471 955.462 24.1158 956 25.7581C956.538 27.4056 958.315 28.3051 959.965 27.7694ZM963.26 37.856C964.915 37.3204 965.819 35.5517 965.281 33.9093C964.742 32.2619 962.966 31.3624 961.316 31.8981C959.66 32.4337 958.757 34.2024 959.295 35.8448C959.833 37.4922 961.61 38.3917 963.26 37.856ZM966.799 14.393C968.454 13.8573 969.357 12.0886 968.819 10.4463C968.281 8.79886 966.504 7.89935 964.854 8.43502C963.199 8.97068 962.295 10.7394 962.834 12.3817C963.372 14.0292 965.149 14.9287 966.799 14.393ZM970.099 24.4847C971.754 23.949 972.657 22.1803 972.119 20.538C971.581 18.8905 969.804 17.991 968.154 18.5267C966.499 19.0624 965.595 20.8311 966.134 22.4734C966.672 24.1208 968.449 25.0203 970.099 24.4847ZM973.399 34.5713C975.054 34.0356 975.957 32.2669 975.419 30.6246C974.881 28.9772 973.104 28.0777 971.454 28.6133C969.799 29.149 968.895 30.9177 969.434 32.56C969.972 34.2024 971.749 35.107 973.399 34.5713ZM956.421 51.2274C958.076 50.6917 958.98 48.923 958.442 47.2807C957.904 45.6332 956.127 44.7337 954.477 45.2694C952.822 45.8051 951.918 47.5738 952.456 49.2161C952.994 50.8635 954.771 51.763 956.421 51.2274ZM966.56 47.9477C968.215 47.4121 969.119 45.6434 968.581 44.001C968.042 42.3586 966.266 41.4541 964.616 41.9897C962.96 42.5254 962.057 44.2941 962.595 45.9365C963.133 47.5839 964.91 48.4834 966.56 47.9477ZM959.721 61.3191C961.376 60.7834 962.28 59.0147 961.742 57.3723C961.204 55.7249 959.427 54.8254 957.777 55.3611C956.122 55.8967 955.218 57.6654 955.756 59.3078C956.294 60.9552 958.071 61.8547 959.721 61.3191ZM963.021 71.4057C964.676 70.87 965.58 69.1013 965.042 67.459C964.504 65.8116 962.727 64.912 961.077 65.4477C959.422 65.9834 958.518 67.7521 959.056 69.3944C959.594 71.0418 961.371 71.9414 963.021 71.4057ZM969.855 58.0343C971.51 57.4987 972.414 55.73 971.876 54.0876C971.337 52.4402 969.56 51.5407 967.91 52.0764C966.255 52.612 965.352 54.3807 965.89 56.0231C966.428 57.6705 968.205 58.57 969.855 58.0343ZM973.155 68.126C974.81 67.5904 975.714 65.8217 975.176 64.1793C974.637 62.5319 972.86 61.6324 971.21 62.168C969.555 62.7037 968.652 64.4724 969.19 66.1148C969.728 67.7622 971.505 68.6617 973.155 68.126ZM976.694 44.663C978.349 44.1273 979.252 42.3586 978.714 40.7163C978.176 39.0689 976.399 38.1693 974.749 38.705C973.094 39.2407 972.19 41.0094 972.728 42.6517C973.267 44.2991 975.044 45.1987 976.694 44.663ZM979.994 54.7496C981.649 54.214 982.552 52.4453 982.014 50.8029C981.476 49.1555 979.699 48.256 978.049 48.7916C976.394 49.3273 975.49 51.096 976.028 52.7384C976.567 54.3858 978.344 55.2853 979.994 54.7496ZM983.294 64.8413C984.949 64.3056 985.852 62.5369 985.314 60.8946C984.776 59.2472 982.999 58.3477 981.349 58.8833C979.694 59.419 978.79 61.1877 979.329 62.83C979.867 64.4775 981.644 65.377 983.294 64.8413Z" fill="url(#paint6_linear_294_4060)" fill-opacity="0.8"/>
<path d="M894.373 84.2744C895.011 84.9019 895.016 85.9243 894.384 86.5572C893.752 87.1901 892.722 87.1955 892.085 86.568C891.447 85.9405 891.442 84.9181 892.074 84.2852C892.706 83.6523 893.736 83.6469 894.373 84.2744ZM884.494 91.8747C883.862 92.5076 883.867 93.53 884.505 94.1575C885.142 94.7849 886.172 94.7795 886.804 94.1466C887.437 93.5137 887.431 92.4913 886.794 91.8639C886.156 91.2364 885.126 91.2418 884.494 91.8747ZM888.319 95.6396C887.687 96.2725 887.693 97.2949 888.33 97.9224C888.968 98.5499 889.998 98.5445 890.63 97.9116C891.262 97.2787 891.256 96.2563 890.619 95.6288C889.981 95.0013 888.951 95.0067 888.319 95.6396ZM890.199 89.9597C889.567 90.5926 889.573 91.615 890.21 92.2425C890.848 92.87 891.878 92.8646 892.51 92.2317C893.142 91.5988 893.136 90.5764 892.499 89.9489C891.861 89.3214 890.831 89.3268 890.199 89.9597ZM876.914 99.4695C876.282 100.102 876.287 101.125 876.925 101.752C877.563 102.38 878.592 102.374 879.225 101.741C879.857 101.109 879.851 100.086 879.214 99.4587C878.576 98.8312 877.546 98.8366 876.914 99.4695ZM880.739 103.235C880.107 103.867 880.113 104.89 880.75 105.517C881.388 106.145 882.418 106.139 883.05 105.506C883.682 104.874 883.677 103.851 883.039 103.224C882.401 102.596 881.372 102.602 880.739 103.235ZM882.614 97.5546C881.982 98.1875 881.987 99.2099 882.625 99.8374C883.262 100.465 884.292 100.459 884.924 99.8266C885.557 99.1937 885.551 98.1713 884.914 97.5438C884.276 96.9163 883.246 96.9217 882.614 97.5546ZM886.445 101.32C885.813 101.952 885.818 102.975 886.456 103.602C887.093 104.23 888.123 104.224 888.755 103.592C889.387 102.959 889.382 101.936 888.744 101.309C888.107 100.681 887.077 100.687 886.445 101.32ZM869.334 107.064C868.702 107.697 868.708 108.72 869.345 109.347C869.983 109.975 871.013 109.969 871.645 109.336C872.277 108.703 872.271 107.681 871.634 107.054C870.996 106.426 869.966 106.432 869.334 107.064ZM873.16 110.824C872.527 111.457 872.533 112.479 873.17 113.107C873.808 113.734 874.838 113.729 875.47 113.096C876.102 112.463 876.097 111.441 875.459 110.813C874.822 110.186 873.792 110.191 873.16 110.824ZM875.034 105.149C874.402 105.782 874.407 106.805 875.045 107.432C875.683 108.06 876.712 108.054 877.345 107.421C877.977 106.789 877.971 105.766 877.334 105.139C876.696 104.511 875.666 104.517 875.034 105.149ZM878.865 108.909C878.233 109.542 878.238 110.564 878.876 111.192C879.513 111.819 880.543 111.814 881.175 111.181C881.807 110.548 881.802 109.526 881.165 108.898C880.527 108.271 879.497 108.276 878.865 108.909ZM861.754 114.654C861.122 115.287 861.128 116.309 861.765 116.937C862.403 117.564 863.433 117.559 864.065 116.926C864.697 116.293 864.691 115.271 864.054 114.643C863.416 114.016 862.386 114.021 861.754 114.654ZM865.58 118.419C864.948 119.052 864.953 120.074 865.591 120.702C866.228 121.329 867.258 121.324 867.89 120.691C868.522 120.058 868.517 119.036 867.879 118.408C867.242 117.781 866.212 117.786 865.58 118.419ZM867.454 112.739C866.822 113.372 866.828 114.394 867.465 115.022C868.103 115.649 869.133 115.644 869.765 115.011C870.397 114.378 870.391 113.356 869.754 112.728C869.116 112.101 868.086 112.106 867.454 112.739ZM871.28 116.504C870.647 117.137 870.653 118.159 871.29 118.787C871.928 119.414 872.958 119.409 873.59 118.776C874.222 118.143 874.217 117.121 873.579 116.493C872.942 115.866 871.912 115.871 871.28 116.504ZM854.169 122.249C853.537 122.882 853.542 123.904 854.18 124.532C854.817 125.159 855.847 125.154 856.479 124.521C857.112 123.888 857.106 122.865 856.469 122.238C855.831 121.61 854.801 121.616 854.169 122.249ZM858 126.014C857.368 126.647 857.373 127.669 858.011 128.297C858.648 128.924 859.678 128.919 860.31 128.286C860.942 127.653 860.937 126.63 860.299 126.003C859.662 125.375 858.632 125.381 858 126.014ZM859.874 120.334C859.242 120.967 859.248 121.989 859.885 122.617C860.523 123.244 861.553 123.239 862.185 122.606C862.817 121.973 862.811 120.95 862.174 120.323C861.536 119.695 860.506 119.701 859.874 120.334ZM863.7 124.099C863.068 124.732 863.073 125.754 863.711 126.382C864.348 127.009 865.378 127.004 866.01 126.371C866.642 125.738 866.637 124.715 865.999 124.088C865.362 123.46 864.332 123.466 863.7 124.099ZM852.294 127.929C851.662 128.562 851.668 129.584 852.305 130.211C852.943 130.839 853.973 130.834 854.605 130.201C855.237 129.568 855.232 128.545 854.594 127.918C853.956 127.29 852.927 127.296 852.294 127.929ZM856.12 131.688C855.488 132.321 855.493 133.344 856.131 133.971C856.768 134.599 857.798 134.593 858.43 133.96C859.062 133.327 859.057 132.305 858.419 131.677C857.782 131.05 856.752 131.055 856.12 131.688ZM884.565 106.994C883.933 107.627 883.938 108.649 884.576 109.277C885.213 109.904 886.243 109.899 886.875 109.266C887.507 108.633 887.502 107.611 886.864 106.983C886.227 106.356 885.197 106.361 884.565 106.994ZM876.985 114.589C876.353 115.222 876.358 116.244 876.996 116.872C877.633 117.499 878.663 117.494 879.295 116.861C879.928 116.228 879.922 115.206 879.285 114.578C878.647 113.951 877.617 113.956 876.985 114.589ZM880.81 118.354C880.178 118.987 880.184 120.009 880.821 120.637C881.459 121.264 882.489 121.259 883.121 120.626C883.753 119.993 883.747 118.971 883.11 118.343C882.472 117.716 881.442 117.721 880.81 118.354ZM882.69 112.674C882.058 113.307 882.064 114.329 882.701 114.957C883.339 115.584 884.369 115.579 885.001 114.946C885.633 114.313 885.627 113.291 884.99 112.663C884.352 112.036 883.322 112.041 882.69 112.674ZM869.405 122.184C868.773 122.817 868.778 123.839 869.416 124.467C870.054 125.094 871.083 125.089 871.716 124.456C872.348 123.823 872.342 122.8 871.705 122.173C871.067 121.546 870.037 121.551 869.405 122.184ZM873.23 125.943C872.598 126.576 872.604 127.599 873.241 128.226C873.879 128.854 874.909 128.848 875.541 128.215C876.173 127.582 876.168 126.56 875.53 125.933C874.892 125.305 873.863 125.31 873.23 125.943ZM875.11 120.269C874.478 120.902 874.484 121.924 875.121 122.552C875.759 123.179 876.789 123.174 877.421 122.541C878.053 121.908 878.048 120.886 877.41 120.258C876.772 119.631 875.742 119.636 875.11 120.269ZM878.936 124.028C878.304 124.661 878.309 125.684 878.947 126.311C879.584 126.939 880.614 126.933 881.246 126.3C881.878 125.668 881.873 124.645 881.235 124.018C880.598 123.39 879.568 123.396 878.936 124.028ZM861.825 129.773C861.193 130.406 861.198 131.429 861.836 132.056C862.474 132.684 863.504 132.678 864.136 132.045C864.768 131.412 864.762 130.39 864.125 129.762C863.487 129.135 862.457 129.14 861.825 129.773ZM865.65 133.538C865.018 134.171 865.024 135.194 865.661 135.821C866.299 136.449 867.329 136.443 867.961 135.81C868.593 135.177 868.588 134.155 867.95 133.527C867.313 132.9 866.283 132.905 865.65 133.538ZM867.525 127.858C866.893 128.491 866.898 129.514 867.536 130.141C868.174 130.769 869.203 130.763 869.836 130.13C870.468 129.497 870.462 128.475 869.825 127.848C869.187 127.22 868.157 127.225 867.525 127.858ZM871.356 131.623C870.724 132.256 870.729 133.279 871.367 133.906C872.004 134.534 873.034 134.528 873.666 133.895C874.298 133.262 874.293 132.24 873.655 131.612C873.018 130.985 871.988 130.99 871.356 131.623ZM859.945 135.453C859.313 136.086 859.318 137.108 859.956 137.736C860.594 138.363 861.624 138.358 862.256 137.725C862.888 137.092 862.882 136.07 862.245 135.442C861.607 134.815 860.577 134.82 859.945 135.453ZM863.776 139.213C863.144 139.846 863.149 140.868 863.787 141.496C864.424 142.123 865.454 142.118 866.086 141.485C866.719 140.852 866.713 139.829 866.076 139.202C865.438 138.574 864.408 138.58 863.776 139.213ZM877.056 129.708C876.424 130.341 876.429 131.364 877.067 131.991C877.704 132.619 878.734 132.613 879.366 131.98C879.998 131.347 879.993 130.325 879.355 129.698C878.718 129.07 877.688 129.075 877.056 129.708ZM869.476 137.298C868.844 137.931 868.849 138.953 869.487 139.581C870.124 140.208 871.154 140.203 871.786 139.57C872.418 138.937 872.413 137.915 871.775 137.287C871.138 136.66 870.108 136.665 869.476 137.298ZM873.301 141.063C872.669 141.696 872.675 142.718 873.312 143.346C873.95 143.973 874.98 143.968 875.612 143.335C876.244 142.702 876.238 141.679 875.601 141.052C874.963 140.424 873.933 140.43 873.301 141.063ZM875.181 135.383C874.549 136.016 874.555 137.038 875.192 137.666C875.83 138.293 876.86 138.288 877.492 137.655C878.124 137.022 878.118 136 877.481 135.372C876.843 134.745 875.813 134.75 875.181 135.383ZM867.601 142.978C866.969 143.611 866.975 144.633 867.612 145.261C868.25 145.888 869.28 145.883 869.912 145.25C870.544 144.617 870.538 143.594 869.901 142.967C869.263 142.339 868.233 142.345 867.601 142.978ZM871.427 146.743C870.795 147.376 870.8 148.398 871.438 149.026C872.075 149.653 873.105 149.648 873.737 149.015C874.369 148.382 874.364 147.359 873.726 146.732C873.089 146.104 872.059 146.11 871.427 146.743ZM835.037 103.429C834.405 104.062 834.41 105.085 835.048 105.712C835.685 106.34 836.715 106.334 837.347 105.701C837.979 105.068 837.974 104.046 837.336 103.418C836.699 102.791 835.669 102.796 835.037 103.429ZM840.737 101.514C840.104 102.147 840.11 103.17 840.747 103.797C841.385 104.425 842.415 104.419 843.047 103.786C843.679 103.153 843.674 102.131 843.036 101.503C842.399 100.876 841.369 100.881 840.737 101.514ZM829.331 105.344C828.699 105.977 828.705 106.999 829.342 107.627C829.98 108.254 831.01 108.249 831.642 107.616C832.274 106.983 832.268 105.961 831.631 105.333C830.993 104.706 829.963 104.711 829.331 105.344ZM833.157 109.109C832.525 109.742 832.53 110.764 833.168 111.392C833.805 112.019 834.835 112.014 835.467 111.381C836.099 110.748 836.094 109.726 835.456 109.098C834.819 108.471 833.789 108.476 833.157 109.109ZM857.847 95.7695C857.215 96.4024 857.221 97.4248 857.858 98.0523C858.496 98.6798 859.526 98.6743 860.158 98.0414C860.79 97.4085 860.784 96.3861 860.147 95.7586C859.509 95.1311 858.479 95.1366 857.847 95.7695ZM863.553 93.8545C862.92 94.4874 862.926 95.5098 863.563 96.1373C864.201 96.7648 865.231 96.7594 865.863 96.1265C866.495 95.4936 866.49 94.4712 865.852 93.8437C865.215 93.2162 864.185 93.2216 863.553 93.8545ZM846.442 99.5994C845.81 100.232 845.815 101.255 846.453 101.882C847.09 102.51 848.12 102.504 848.752 101.871C849.385 101.238 849.379 100.216 848.742 99.5885C848.104 98.9611 847.074 98.9665 846.442 99.5994ZM850.267 103.364C849.635 103.997 849.641 105.02 850.278 105.647C850.916 106.275 851.946 106.269 852.578 105.636C853.21 105.003 853.204 103.981 852.567 103.354C851.929 102.726 850.899 102.731 850.267 103.364ZM852.147 97.6844C851.515 98.3173 851.521 99.3397 852.158 99.9672C852.796 100.595 853.826 100.589 854.458 99.9564C855.09 99.3235 855.084 98.3011 854.447 97.6736C853.809 97.0461 852.779 97.0515 852.147 97.6844ZM855.973 101.449C855.341 102.082 855.346 103.105 855.984 103.732C856.621 104.36 857.651 104.354 858.283 103.721C858.915 103.088 858.91 102.066 858.272 101.439C857.635 100.811 856.605 100.816 855.973 101.449ZM838.862 107.194C838.23 107.827 838.235 108.85 838.873 109.477C839.51 110.105 840.54 110.099 841.173 109.466C841.805 108.833 841.799 107.811 841.162 107.183C840.524 106.556 839.494 106.561 838.862 107.194ZM842.687 110.954C842.055 111.587 842.061 112.609 842.698 113.237C843.336 113.864 844.366 113.859 844.998 113.226C845.63 112.593 845.625 111.57 844.987 110.943C844.349 110.315 843.319 110.321 842.687 110.954ZM844.567 105.279C843.935 105.912 843.941 106.935 844.578 107.562C845.216 108.19 846.246 108.184 846.878 107.551C847.51 106.918 847.505 105.896 846.867 105.268C846.229 104.641 845.199 104.646 844.567 105.279ZM848.393 109.039C847.761 109.672 847.766 110.694 848.404 111.322C849.041 111.949 850.071 111.944 850.703 111.311C851.335 110.678 851.33 109.656 850.692 109.028C850.055 108.401 849.025 108.406 848.393 109.039ZM836.988 112.869C836.355 113.502 836.361 114.524 836.998 115.152C837.636 115.779 838.666 115.774 839.298 115.141C839.93 114.508 839.925 113.485 839.287 112.858C838.65 112.23 837.62 112.236 836.988 112.869ZM840.813 116.634C840.181 117.267 840.186 118.289 840.824 118.917C841.461 119.544 842.491 119.539 843.123 118.906C843.755 118.273 843.75 117.25 843.112 116.623C842.475 115.995 841.445 116.001 840.813 116.634ZM880.663 88.1097C880.031 88.7426 880.036 89.765 880.674 90.3925C881.312 91.02 882.342 91.0146 882.974 90.3817C883.606 89.7487 883.6 88.7264 882.963 88.0989C882.325 87.4714 881.295 87.4768 880.663 88.1097ZM886.369 86.1947C885.736 86.8276 885.742 87.85 886.379 88.4775C887.017 89.105 888.047 89.0996 888.679 88.4667C889.311 87.8338 889.306 86.8114 888.668 86.1839C888.031 85.5564 887.001 85.5618 886.369 86.1947ZM869.258 91.9396C868.626 92.5725 868.631 93.5949 869.269 94.2224C869.906 94.8499 870.936 94.8445 871.568 94.2116C872.2 93.5786 872.195 92.5563 871.557 91.9288C870.92 91.3013 869.89 91.3067 869.258 91.9396ZM873.083 95.7046C872.451 96.3375 872.457 97.3599 873.094 97.9874C873.732 98.6148 874.762 98.6094 875.394 97.9765C876.026 97.3436 876.02 96.3212 875.383 95.6937C874.745 95.0662 873.715 95.0717 873.083 95.7046ZM874.958 90.0246C874.326 90.6575 874.331 91.6799 874.969 92.3074C875.606 92.9349 876.636 92.9295 877.268 92.2966C877.9 91.6637 877.895 90.6413 877.257 90.0138C876.62 89.3863 875.59 89.3917 874.958 90.0246ZM878.789 93.7896C878.156 94.4225 878.162 95.4449 878.8 96.0724C879.437 96.6999 880.467 96.6945 881.099 96.0616C881.731 95.4287 881.726 94.4063 881.088 93.7788C880.451 93.1513 879.421 93.1567 878.789 93.7896ZM861.678 99.5344C861.046 100.167 861.051 101.19 861.689 101.817C862.326 102.445 863.356 102.439 863.988 101.806C864.621 101.174 864.615 100.151 863.978 99.5236C863.34 98.8961 862.31 98.9015 861.678 99.5344ZM865.503 103.294C864.871 103.927 864.877 104.949 865.514 105.577C866.152 106.204 867.182 106.199 867.814 105.566C868.446 104.933 868.441 103.911 867.803 103.283C867.165 102.656 866.136 102.661 865.503 103.294ZM867.378 97.6195C866.746 98.2524 866.751 99.2748 867.389 99.9023C868.026 100.53 869.056 100.524 869.688 99.8915C870.321 99.2586 870.315 98.2362 869.677 97.6087C869.04 96.9812 868.01 96.9866 867.378 97.6195ZM871.203 101.379C870.571 102.012 870.577 103.034 871.214 103.662C871.852 104.289 872.882 104.284 873.514 103.651C874.146 103.018 874.14 101.996 873.503 101.368C872.865 100.741 871.835 100.746 871.203 101.379ZM854.093 107.124C853.461 107.757 853.466 108.779 854.104 109.407C854.741 110.034 855.771 110.029 856.403 109.396C857.035 108.763 857.03 107.741 856.392 107.113C855.755 106.486 854.725 106.491 854.093 107.124ZM857.923 110.889C857.291 111.522 857.297 112.544 857.934 113.172C858.572 113.799 859.602 113.794 860.234 113.161C860.866 112.528 860.861 111.506 860.223 110.878C859.586 110.251 858.556 110.256 857.923 110.889ZM859.798 105.209C859.166 105.842 859.171 106.864 859.809 107.492C860.446 108.119 861.476 108.114 862.108 107.481C862.741 106.848 862.735 105.826 862.098 105.198C861.46 104.571 860.43 104.576 859.798 105.209ZM863.623 108.974C862.991 109.607 862.997 110.629 863.634 111.257C864.272 111.884 865.302 111.879 865.934 111.246C866.566 110.613 866.561 109.591 865.923 108.963C865.285 108.336 864.256 108.341 863.623 108.974ZM846.513 114.719C845.881 115.352 845.886 116.374 846.524 117.002C847.161 117.629 848.191 117.624 848.823 116.991C849.455 116.358 849.45 115.335 848.812 114.708C848.175 114.08 847.145 114.086 846.513 114.719ZM850.344 118.484C849.711 119.117 849.717 120.139 850.354 120.767C850.992 121.394 852.022 121.389 852.654 120.756C853.286 120.123 853.281 119.1 852.643 118.473C852.006 117.845 850.976 117.851 850.344 118.484ZM852.218 112.804C851.586 113.437 851.591 114.459 852.229 115.087C852.867 115.714 853.896 115.709 854.529 115.076C855.161 114.443 855.155 113.421 854.518 112.793C853.88 112.166 852.85 112.171 852.218 112.804ZM856.043 116.569C855.411 117.202 855.417 118.224 856.054 118.852C856.692 119.479 857.722 119.474 858.354 118.841C858.986 118.208 858.981 117.185 858.343 116.558C857.706 115.93 856.676 115.936 856.043 116.569ZM844.638 120.399C844.006 121.032 844.012 122.054 844.649 122.681C845.287 123.309 846.317 123.304 846.949 122.671C847.581 122.038 847.575 121.015 846.938 120.388C846.3 119.76 845.27 119.766 844.638 120.399ZM848.464 124.158C847.831 124.791 847.837 125.814 848.475 126.441C849.112 127.069 850.142 127.063 850.774 126.43C851.406 125.797 851.401 124.775 850.763 124.147C850.126 123.52 849.096 123.525 848.464 124.158ZM846.589 129.844C845.957 130.477 845.962 131.499 846.6 132.126C847.238 132.754 848.267 132.748 848.9 132.116C849.532 131.483 849.526 130.46 848.889 129.833C848.251 129.205 847.221 129.211 846.589 129.844ZM850.42 133.603C849.788 134.236 849.793 135.258 850.431 135.886C851.068 136.513 852.098 136.508 852.73 135.875C853.362 135.242 853.357 134.22 852.719 133.592C852.082 132.965 851.052 132.97 850.42 133.603ZM839.009 137.433C838.377 138.066 838.382 139.088 839.02 139.716C839.658 140.343 840.688 140.338 841.32 139.705C841.952 139.072 841.946 138.05 841.309 137.422C840.671 136.795 839.641 136.8 839.009 137.433ZM842.835 141.198C842.202 141.831 842.208 142.853 842.845 143.481C843.483 144.108 844.513 144.103 845.145 143.47C845.777 142.837 845.772 141.815 845.134 141.187C844.497 140.56 843.467 140.565 842.835 141.198ZM844.715 135.518C844.082 136.151 844.088 137.173 844.725 137.801C845.363 138.428 846.393 138.423 847.025 137.79C847.657 137.157 847.652 136.135 847.014 135.507C846.377 134.88 845.347 134.885 844.715 135.518ZM848.54 139.283C847.908 139.916 847.913 140.938 848.551 141.566C849.188 142.193 850.218 142.188 850.85 141.555C851.482 140.922 851.477 139.9 850.839 139.272C850.202 138.645 849.172 138.65 848.54 139.283ZM854.245 137.368C853.613 138.001 853.619 139.023 854.256 139.651C854.894 140.278 855.924 140.273 856.556 139.64C857.188 139.007 857.182 137.985 856.545 137.357C855.907 136.73 854.877 136.735 854.245 137.368ZM858.071 141.128C857.439 141.761 857.444 142.783 858.081 143.411C858.719 144.038 859.749 144.033 860.381 143.4C861.013 142.767 861.008 141.744 860.37 141.117C859.733 140.489 858.703 140.495 858.071 141.128ZM846.665 144.963C846.033 145.596 846.039 146.618 846.676 147.246C847.314 147.873 848.344 147.868 848.976 147.235C849.608 146.602 849.602 145.58 848.965 144.952C848.327 144.325 847.297 144.33 846.665 144.963ZM850.491 148.723C849.859 149.355 849.864 150.378 850.502 151.005C851.139 151.633 852.169 151.627 852.801 150.995C853.433 150.362 853.428 149.339 852.79 148.712C852.153 148.084 851.123 148.09 850.491 148.723ZM852.365 143.048C851.733 143.681 851.739 144.703 852.376 145.331C853.014 145.958 854.044 145.953 854.676 145.32C855.308 144.687 855.302 143.665 854.665 143.037C854.027 142.41 852.997 142.415 852.365 143.048ZM856.191 146.808C855.559 147.441 855.564 148.463 856.202 149.09C856.839 149.718 857.869 149.713 858.501 149.08C859.133 148.447 859.128 147.424 858.49 146.797C857.853 146.169 856.823 146.175 856.191 146.808ZM861.896 144.893C861.264 145.526 861.269 146.548 861.907 147.175C862.544 147.803 863.574 147.798 864.206 147.165C864.839 146.532 864.833 145.509 864.196 144.882C863.558 144.254 862.528 144.26 861.896 144.893ZM865.721 148.658C865.089 149.291 865.095 150.313 865.732 150.94C866.37 151.568 867.4 151.563 868.032 150.93C868.664 150.297 868.658 149.274 868.021 148.647C867.383 148.019 866.353 148.025 865.721 148.658ZM854.316 152.488C853.684 153.12 853.689 154.143 854.327 154.77C854.965 155.398 855.994 155.392 856.627 154.76C857.259 154.127 857.253 153.104 856.616 152.477C855.978 151.849 854.948 151.855 854.316 152.488ZM858.141 156.247C857.509 156.88 857.515 157.902 858.152 158.53C858.79 159.157 859.82 159.152 860.452 158.519C861.084 157.886 861.079 156.864 860.441 156.236C859.803 155.609 858.774 155.614 858.141 156.247ZM860.021 150.573C859.389 151.206 859.395 152.228 860.032 152.855C860.67 153.483 861.7 153.477 862.332 152.845C862.964 152.212 862.959 151.189 862.321 150.562C861.683 149.934 860.654 149.94 860.021 150.573ZM863.847 154.332C863.215 154.965 863.22 155.987 863.858 156.615C864.495 157.242 865.525 157.237 866.157 156.604C866.789 155.971 866.784 154.949 866.146 154.321C865.509 153.694 864.479 153.699 863.847 154.332ZM869.547 152.417C868.915 153.05 868.92 154.073 869.558 154.7C870.195 155.328 871.225 155.322 871.857 154.689C872.489 154.056 872.484 153.034 871.846 152.406C871.209 151.779 870.179 151.784 869.547 152.417ZM861.967 160.012C861.335 160.645 861.34 161.667 861.978 162.295C862.615 162.922 863.645 162.917 864.277 162.284C864.909 161.651 864.904 160.629 864.266 160.001C863.629 159.374 862.599 159.379 861.967 160.012ZM865.792 163.777C865.16 164.41 865.166 165.432 865.803 166.06C866.441 166.687 867.471 166.682 868.103 166.049C868.735 165.416 868.729 164.394 868.092 163.766C867.454 163.139 866.424 163.144 865.792 163.777ZM867.672 158.097C867.04 158.73 867.046 159.752 867.683 160.38C868.321 161.007 869.351 161.002 869.983 160.369C870.615 159.736 870.609 158.714 869.972 158.086C869.334 157.459 868.304 157.464 867.672 158.097ZM812.221 111.089C811.589 111.722 811.594 112.744 812.232 113.372C812.869 113.999 813.899 113.994 814.531 113.361C815.163 112.728 815.158 111.706 814.52 111.078C813.883 110.451 812.853 110.456 812.221 111.089ZM817.926 109.174C817.294 109.807 817.299 110.829 817.937 111.457C818.575 112.084 819.604 112.079 820.237 111.446C820.869 110.813 820.863 109.791 820.226 109.163C819.588 108.536 818.558 108.541 817.926 109.174ZM823.631 107.259C822.999 107.892 823.005 108.914 823.642 109.542C824.28 110.169 825.31 110.164 825.942 109.531C826.574 108.898 826.569 107.876 825.931 107.248C825.293 106.621 824.264 106.626 823.631 107.259ZM827.457 111.024C826.825 111.657 826.83 112.679 827.468 113.307C828.105 113.934 829.135 113.929 829.767 113.296C830.399 112.663 830.394 111.641 829.756 111.013C829.119 110.386 828.089 110.391 827.457 111.024ZM816.046 114.854C815.414 115.487 815.419 116.509 816.057 117.137C816.695 117.764 817.724 117.759 818.357 117.126C818.989 116.493 818.983 115.471 818.346 114.843C817.708 114.216 816.678 114.221 816.046 114.854ZM819.877 118.619C819.245 119.252 819.25 120.274 819.888 120.902C820.525 121.529 821.555 121.524 822.187 120.891C822.819 120.258 822.814 119.236 822.176 118.608C821.539 117.981 820.509 117.986 819.877 118.619ZM821.751 112.939C821.119 113.572 821.125 114.594 821.762 115.222C822.4 115.849 823.43 115.844 824.062 115.211C824.694 114.578 824.689 113.556 824.051 112.928C823.413 112.301 822.384 112.306 821.751 112.939ZM825.577 116.704C824.945 117.337 824.95 118.359 825.588 118.987C826.225 119.614 827.255 119.609 827.887 118.976C828.519 118.343 828.514 117.321 827.876 116.693C827.239 116.066 826.209 116.071 825.577 116.704ZM831.282 114.789C830.65 115.422 830.655 116.444 831.293 117.072C831.931 117.699 832.96 117.694 833.593 117.061C834.225 116.428 834.219 115.406 833.582 114.778C832.944 114.151 831.914 114.156 831.282 114.789ZM835.108 118.549C834.475 119.182 834.481 120.204 835.118 120.831C835.756 121.459 836.786 121.454 837.418 120.821C838.05 120.188 838.045 119.165 837.407 118.538C836.77 117.91 835.74 117.916 835.108 118.549ZM823.702 122.379C823.07 123.011 823.076 124.034 823.713 124.661C824.351 125.289 825.381 125.283 826.013 124.651C826.645 124.018 826.639 122.995 826.002 122.368C825.364 121.74 824.334 121.746 823.702 122.379ZM827.528 126.144C826.896 126.776 826.901 127.799 827.539 128.426C828.176 129.054 829.206 129.048 829.838 128.416C830.47 127.783 830.465 126.76 829.827 126.133C829.19 125.505 828.16 125.511 827.528 126.144ZM829.402 120.464C828.77 121.097 828.775 122.119 829.413 122.746C830.051 123.374 831.081 123.368 831.713 122.736C832.345 122.103 832.339 121.08 831.702 120.453C831.064 119.825 830.034 119.831 829.402 120.464ZM833.233 124.229C832.601 124.861 832.606 125.884 833.244 126.511C833.881 127.139 834.911 127.133 835.543 126.501C836.176 125.868 836.17 124.845 835.533 124.218C834.895 123.59 833.865 123.596 833.233 124.229ZM838.933 122.314C838.301 122.947 838.306 123.969 838.944 124.596C839.581 125.224 840.611 125.219 841.243 124.586C841.875 123.953 841.87 122.93 841.232 122.303C840.595 121.675 839.565 121.681 838.933 122.314ZM842.758 126.073C842.126 126.706 842.132 127.729 842.769 128.356C843.407 128.983 844.437 128.978 845.069 128.345C845.701 127.712 845.695 126.69 845.058 126.062C844.42 125.435 843.39 125.44 842.758 126.073ZM831.353 129.903C830.721 130.536 830.726 131.558 831.364 132.186C832.001 132.813 833.031 132.808 833.663 132.175C834.296 131.542 834.29 130.52 833.653 129.892C833.015 129.265 831.985 129.27 831.353 129.903ZM835.178 133.668C834.546 134.301 834.552 135.323 835.189 135.951C835.827 136.578 836.857 136.573 837.489 135.94C838.121 135.307 838.115 134.285 837.478 133.657C836.84 133.03 835.81 133.035 835.178 133.668ZM837.058 127.988C836.426 128.621 836.432 129.643 837.069 130.271C837.707 130.898 838.737 130.893 839.369 130.26C840.001 129.627 839.995 128.605 839.358 127.977C838.72 127.35 837.69 127.355 837.058 127.988ZM840.884 131.753C840.252 132.386 840.257 133.408 840.895 134.036C841.532 134.663 842.562 134.658 843.194 134.025C843.826 133.392 843.821 132.37 843.183 131.742C842.546 131.115 841.516 131.12 840.884 131.753Z" fill="url(#paint7_linear_294_4060)" fill-opacity="0.8"/>
<path d="M1172.04 107.474L1176.69 86.9528L1156.34 81.4456L1160.99 60.9308L1140.65 55.4258L1145.3 34.9049L1129.55 30.6397L1132.18 21.051L1157.13 27.804L1152.47 48.3249L1172.83 53.832L1168.17 74.3447L1188.52 79.8518L1183.86 100.373L1199.61 104.63L1196.99 114.221L1172.04 107.474Z" fill="url(#paint8_linear_294_4060)" fill-opacity="0.8"/>
</g>
<defs>
<linearGradient id="paint0_linear_294_4060" x1="521.861" y1="187.833" x2="673.211" y2="36.1582" gradientUnits="userSpaceOnUse">
<stop stop-color="#CAEDC2"/>
<stop offset="1" stop-color="#FFEDA6"/>
</linearGradient>
<linearGradient id="paint1_linear_294_4060" x1="319.993" y1="155.681" x2="357.117" y2="118.433" gradientUnits="userSpaceOnUse">
<stop stop-color="#CAEDC2"/>
<stop offset="1" stop-color="#FFEDA6"/>
</linearGradient>
<linearGradient id="paint2_linear_294_4060" x1="67.5081" y1="154.416" x2="11.7325" y2="98.4467" gradientUnits="userSpaceOnUse">
<stop stop-color="#BDE3FF"/>
<stop offset="1" stop-color="#D6D0F7"/>
</linearGradient>
<linearGradient id="paint3_linear_294_4060" x1="275.727" y1="76.0927" x2="336.826" y2="15.1996" gradientUnits="userSpaceOnUse">
<stop stop-color="#D6D0F7"/>
<stop offset="1" stop-color="#FFC4CE"/>
</linearGradient>
<linearGradient id="paint4_linear_294_4060" x1="222.222" y1="131.313" x2="140.125" y2="73.593" gradientUnits="userSpaceOnUse">
<stop stop-color="#BDE3FF"/>
<stop offset="1" stop-color="#CAEDC2"/>
</linearGradient>
<linearGradient id="paint5_linear_294_4060" x1="1100.69" y1="151.7" x2="1028.55" y2="79.0741" gradientUnits="userSpaceOnUse">
<stop stop-color="#FFD2A6"/>
<stop offset="1" stop-color="#FFC4CE"/>
</linearGradient>
<linearGradient id="paint6_linear_294_4060" x1="922.994" y1="75.0983" x2="974.182" y2="14.3513" gradientUnits="userSpaceOnUse">
<stop stop-color="#CAEDC2"/>
<stop offset="1" stop-color="#BDE3FF"/>
</linearGradient>
<linearGradient id="paint7_linear_294_4060" x1="811.752" y1="125.164" x2="894.858" y2="125.164" gradientUnits="userSpaceOnUse">
<stop stop-color="#BDE3FF"/>
<stop offset="1" stop-color="#D6D0F7"/>
</linearGradient>
<linearGradient id="paint8_linear_294_4060" x1="1134.57" y1="19.4835" x2="1194.39" y2="115.759" gradientUnits="userSpaceOnUse">
<stop stop-color="#CAEDC2"/>
<stop offset="1" stop-color="#FFEDA6"/>
</linearGradient>
<clipPath id="clip0_294_4060">
<rect width="240" height="42" fill="white" transform="translate(550 88)"/>
</clipPath>
<clipPath id="clip1_294_4060">
<rect width="123.08" height="38.16" fill="white" transform="translate(411 90)"/>
</clipPath>
<clipPath id="clip2_294_4060">
<rect width="462" height="166" fill="white" transform="translate(738 8)"/>
</clipPath>
</defs>
</svg>
