<svg width="353" height="57" viewBox="0 0 353 57" fill="none" xmlns="http://www.w3.org/2000/svg">
<g clip-path="url(#clip0_294_7034)">
<path d="M53.5204 22.0266C52.4507 22.8765 51.215 23.8384 50.2768 23.8384C49.0698 23.8384 48 22.6758 48 21.4306C48 20.5512 48.4691 20.0732 49.5389 19.306C52.342 17.3525 54.8362 15.1158 57.0615 12.5073L51.3237 12.5899C50.4999 12.5899 49.1556 12.5309 49.1556 10.3532C49.1556 8.9958 49.8993 8.2876 51.215 8.25809L59.2068 8.11645L59.1496 4.40431C59.1496 3.58398 59.2583 2.2207 61.3749 2.2207C62.7193 2.2207 63.4916 2.89939 63.5145 4.3453L63.5717 8.02793L68.2683 7.9453C68.9548 7.9453 70.4365 8.05744 70.4365 10.1525C70.4365 11.5099 69.6928 12.2476 68.377 12.2771L63.6289 12.3597L63.7662 21.5132C63.7662 22.363 63.7376 23.9211 63.0511 24.9125C62.4447 25.7624 61.1575 26.1047 59.7274 26.1047C57.9711 26.1047 56.5124 25.904 56.5124 23.6968C56.5124 22.7053 57.0615 21.7139 58.1313 21.7139C58.2972 21.7139 58.5432 21.7729 58.6805 21.7729H58.8178C59.3098 21.7729 59.3956 21.6312 59.3956 20.8935L59.3384 16.2489C57.5821 18.3735 55.66 20.327 53.5147 22.0266H53.5204Z" fill="#006CB6"/>
<path d="M96.4112 12.3535C97.7705 12.3535 98.6613 13.2298 98.6613 14.5109C98.6613 15.7921 97.7705 16.6961 96.4112 16.6961H77.0275C75.6681 16.6961 74.7773 15.8198 74.7773 14.5109C74.7773 13.2021 75.6392 12.3535 77.0275 12.3535H96.4112Z" fill="#006CB6"/>
<path d="M104.393 10.1903C103.062 10.1903 102.281 9.32041 102.281 7.97765C102.281 6.63488 103.033 5.76501 104.393 5.76501H117.278C119.777 5.76501 121.253 6.5765 121.253 9.3496C121.253 11.0602 120.697 12.7123 119.922 14.2828C118.423 17.3069 116.283 19.9749 113.673 22.1C112.088 23.3902 107.87 26.1049 105.868 26.1049C104.561 26.1049 103.566 24.8731 103.566 23.6121C103.566 22.1817 104.925 21.849 106.007 21.3994C109.062 20.1676 111.81 18.0951 113.893 15.5146C114.645 14.563 116.503 11.9008 116.503 10.6924C116.503 10.272 116.225 10.1903 115.866 10.1903H104.393ZM125.441 3.77422C125.441 5.39721 124.082 6.74581 122.468 6.74581C120.853 6.74581 119.523 5.40305 119.523 3.77422C119.523 2.14539 120.853 0.773438 122.468 0.773438C124.215 0.773438 125.441 2.14539 125.441 3.77422ZM121.137 3.77422C121.137 4.50398 121.75 5.11698 122.468 5.11698C123.185 5.11698 123.827 4.49814 123.827 3.77422C123.827 3.05029 123.214 2.40227 122.468 2.40227C121.721 2.40227 121.137 3.0211 121.137 3.77422Z" fill="#006CB6"/>
<path d="M151.492 9.63558C151.492 10.2787 151.208 10.8166 150.865 11.3195C148.85 14.1844 146.355 16.7629 143.659 18.9789C140.851 21.3059 137.701 23.3874 134.325 24.7906C133.078 25.2935 132.705 25.3812 132.256 25.3812C130.837 25.3812 129.785 23.9779 129.785 22.6565C129.785 21.3351 130.607 21.0837 131.972 20.5517C137.76 18.3065 143.098 13.9564 146.727 9.01582C147.407 8.09202 148.034 7.30269 149.027 7.30269C150.304 7.30269 151.498 8.34343 151.498 9.62974L151.492 9.63558ZM136.14 6.94019C137.021 7.53072 138.043 8.26157 138.043 9.43679C138.043 10.612 137.021 12.0445 135.691 12.0445C135.123 12.0445 134.668 11.7346 133.787 11.1207C133.078 10.6412 132.368 10.1676 131.6 9.68821C130.435 8.98658 129.868 8.62408 129.868 7.64181C129.868 6.29703 131.003 5.11597 132.339 5.11597C133.332 5.11597 134.721 5.95791 136.14 6.94019Z" fill="#006CB6"/>
<path d="M163.255 4.84766C163.225 4.63065 163.196 4.40793 163.196 4.21947C163.196 2.82033 164.205 2.2207 165.773 2.2207C167.032 2.2207 167.621 2.93455 167.813 4.05957L168.314 7.01776L172.68 6.36102C172.878 6.33246 173.071 6.30391 173.24 6.30391C174.557 6.33246 175.309 7.15481 175.309 8.55395C175.309 9.78748 174.551 10.3928 173.409 10.5527L169.014 11.2095L169.404 13.5109L175.647 12.6086C175.846 12.5801 176.009 12.5515 176.207 12.5515C177.466 12.5801 178.276 13.4024 178.276 14.8015C178.276 16.0351 177.606 16.6404 176.347 16.8289L170.104 17.7312L171.141 23.8417C171.2 24.1729 171.252 24.6355 171.252 24.8297C171.252 26.2003 170.354 26.8284 168.734 26.8284C167.393 26.8284 166.857 26.2003 166.635 24.9382L165.516 18.3879L158.44 19.4044C158.271 19.433 158.102 19.4615 157.938 19.4615C156.621 19.4615 155.84 18.6106 155.84 17.1886C155.84 15.9837 156.598 15.3498 157.74 15.1899L164.817 14.1734L164.426 11.8719L159.728 12.5572C159.559 12.5858 159.39 12.6143 159.227 12.6143C157.909 12.6143 157.099 11.792 157.099 10.3643C157.099 9.1593 157.857 8.55395 158.999 8.38834L163.727 7.67449L163.249 4.85337L163.255 4.84766Z" fill="#006CB6"/>
<path d="M196.083 25.9195C196.112 26.0908 196.112 26.2325 196.112 26.4038C196.112 27.5969 195.107 28.2762 194.021 28.2762C193.074 28.2762 192.43 27.7682 192.238 26.7759L190.455 17.7036L186.273 18.5246C186.134 18.5541 185.966 18.5541 185.797 18.5541C184.682 18.5541 184.066 17.7035 184.066 16.599C184.066 15.6658 184.543 14.9807 185.542 14.8153L189.723 14.0474L189.026 10.3322C188.997 10.161 188.968 9.98966 188.968 9.82428C188.968 8.63117 189.886 8.01099 191.088 8.01099C192.035 8.01099 192.68 8.54848 192.871 9.48761L193.626 13.315L200.178 12.0983C200.427 12.0392 200.567 12.0392 200.764 12.0392C201.879 12.0392 202.884 12.8307 202.884 14.0238C202.884 15.1283 201.461 17.1129 200.596 18.306C200.067 19.0443 199.51 19.8063 198.865 20.4324C198.505 20.7986 198 21.0289 197.61 21.0289C196.606 21.0289 195.601 20.2079 195.601 19.1565C195.601 18.5305 195.961 18.1052 196.548 17.4555C196.884 17.0893 197.216 16.7172 197.523 16.3214L194.317 16.9475L196.071 25.9372L196.083 25.9195Z" fill="#006CB6"/>
<path d="M228.933 9.63558C228.933 10.2787 228.65 10.8166 228.307 11.3195C226.291 14.1844 223.796 16.7629 221.101 18.9789C218.293 21.3059 215.142 23.3874 211.767 24.7906C210.519 25.2935 210.147 25.3812 209.698 25.3812C208.279 25.3812 207.227 23.9779 207.227 22.6565C207.227 21.3351 208.048 21.0837 209.414 20.5517C215.201 18.3065 220.539 13.9564 224.169 9.01582C224.849 8.09202 225.475 7.30269 226.468 7.30269C227.745 7.30269 228.939 8.34343 228.939 9.62974L228.933 9.63558ZM213.581 6.94019C214.462 7.53072 215.485 8.26157 215.485 9.43679C215.485 10.612 214.462 12.0445 213.132 12.0445C212.565 12.0445 212.109 11.7346 211.229 11.1207C210.519 10.6412 209.81 10.1676 209.041 9.68821C207.877 8.98658 207.309 8.62408 207.309 7.64181C207.309 6.29703 208.444 5.11597 209.78 5.11597C210.773 5.11597 212.163 5.95791 213.581 6.94019Z" fill="#006CB6"/>
<path d="M241.484 9.53536C241.484 10.3148 241.101 11.376 240.551 12.701C239.618 14.9734 238.354 17.1918 236.9 19.1763C235.881 20.5853 234.427 22.4859 233.025 22.4859C231.732 22.4859 230.387 21.4187 230.387 20.0097C230.387 19.2063 230.827 18.7446 231.652 17.8513C234.233 15.1173 235.606 12.4672 236.843 8.78591C237.197 7.71869 237.884 7.34696 238.823 7.34696C240.059 7.34696 241.49 8.06643 241.49 9.53536H241.484ZM249.84 9.24757C250.47 10.081 251.077 10.9443 251.655 11.8077C252.645 13.3306 255.501 17.8813 255.501 19.548C255.501 20.987 254.127 22.0542 252.834 22.0542C251.431 22.0542 251.019 20.987 250.556 19.8119C249.377 16.904 247.751 14.2839 245.857 11.8137C245.473 11.3221 245.141 10.8064 245.141 10.1469C245.141 8.82188 246.378 7.87457 247.557 7.87457C248.627 7.87457 249.205 8.45015 249.835 9.25356L249.84 9.24757ZM255.718 5.44635C255.718 7.17309 254.316 8.64201 252.639 8.64201C250.962 8.64201 249.56 7.17309 249.56 5.44635C249.56 3.71961 250.962 2.2207 252.639 2.2207C254.316 2.2207 255.718 3.68963 255.718 5.44635ZM251.237 5.44635C251.237 6.22578 251.866 6.91527 252.639 6.91527C253.412 6.91527 254.041 6.22578 254.041 5.44635C254.041 4.66692 253.412 3.94744 252.639 3.94744C251.866 3.94744 251.237 4.63694 251.237 5.44635Z" fill="#006CB6"/>
<path d="M279.893 18.5286C281.015 19.6435 281.775 20.4302 281.775 21.4093C281.775 22.6884 280.595 23.8543 279.28 23.8543C278.379 23.8543 277.818 23.311 277.117 22.4677C275.714 20.8094 274.23 19.2869 272.517 17.9569C270.612 19.6661 268.508 21.1886 266.234 22.4111C265.223 22.9544 263.429 23.9335 262.418 23.9335C261.097 23.9335 260.062 22.7903 260.062 21.5451C260.062 20.3793 260.933 19.9718 261.915 19.5643C266.684 17.5551 270.7 14.2668 273.528 10.0277H265.305C263.873 10.0277 263.061 9.34859 263.061 7.93367C263.061 6.51876 263.873 5.8396 265.305 5.8396H276.275C277.877 5.8396 279.28 6.41123 279.28 8.17704C279.28 9.94285 276.673 13.3386 275.574 14.7253C277.117 15.8912 278.549 17.1702 279.893 18.5286Z" fill="#006CB6"/>
<path d="M291.181 23.6081C287.796 23.6081 286.84 20.0041 286.84 17.2317C286.84 9.9428 292.66 4.39233 299.76 4.39233C305.631 4.39233 310 8.24474 310 14.3439C310 18.6988 307.844 22.1931 304.1 24.2723C303.173 24.7691 301.916 25.3813 300.824 25.3813C299.538 25.3813 298.639 24.1626 298.639 22.9439C298.639 21.835 299.128 21.4769 300.607 21.0033C303.719 20.0041 305.608 17.6187 305.608 14.3497C305.608 11.329 303.776 8.9436 300.801 8.41801C299.982 12.8826 296.762 23.6139 291.186 23.6139L291.181 23.6081ZM292.876 11.6582C291.567 13.2927 290.799 15.4008 290.799 17.509C290.799 17.896 290.799 19.0627 291.374 19.0627C291.676 19.0627 292.273 18.4273 292.768 17.7054C293.206 17.0411 293.587 16.3192 293.752 16.0131C294.952 13.7952 295.772 11.3809 296.403 8.91472C294.981 9.57893 293.866 10.4106 292.882 11.6582H292.876Z" fill="#006CB6"/>
<path d="M112.422 51.3709H108.683V52.772H116.601C117.975 52.772 118.582 53.3324 118.582 54.7628C118.582 56.053 117.758 56.5025 116.601 56.5025H96.6492C95.2751 56.5025 94.6683 55.9421 94.6683 54.5409C94.6683 53.2215 95.4927 52.7778 96.6492 52.7778H104.647V51.3767H100.995C99.924 51.3767 99.3457 50.9564 99.3171 49.8355C98.3839 50.6178 96.6205 51.9955 95.3839 51.9955C94.256 51.9955 93.6263 50.8454 93.6263 49.9522C93.6263 48.9714 94.2332 48.5511 95.0003 48.1307C96.237 47.4302 96.6778 47.0682 97.7484 46.14H95.3038C94.2045 46.14 93.5977 45.6379 93.5977 44.4586C93.5977 43.2793 94.2045 42.7772 95.3038 42.7772H97.9144V35.5731H95.882C94.7828 35.5731 94.153 35.0944 94.153 33.9209C94.153 32.7475 94.7828 32.2687 95.882 32.2687H97.9144V31.8484C97.9144 30.5582 99.0938 30.4473 99.8953 30.4473C101.052 30.4473 101.985 30.7275 101.985 31.8484V32.2687H111.437V31.8192C111.437 30.5582 112.617 30.4473 113.304 30.4473C114.62 30.4473 115.474 30.7275 115.474 31.8484V32.2687H117.592C118.691 32.2687 119.298 32.7475 119.298 33.9209C119.298 35.0944 118.691 35.5731 117.592 35.5731H115.474V42.7772H117.947C119.046 42.7772 119.653 43.2793 119.653 44.4586C119.653 45.6379 119.046 46.14 117.947 46.14H115.554C116.487 47.0624 117.283 47.5995 118.439 48.2417C119.126 48.662 119.647 49.0006 119.647 49.8938C119.647 50.9564 118.851 52.0247 117.752 52.0247C116.596 52.0247 115.004 50.7345 114.099 50.0048C113.962 51.0439 113.384 51.3767 112.422 51.3767V51.3709ZM110.636 46.1283H102.638C102.145 46.8289 101.596 47.5294 101.017 48.1716H104.647V47.7221C104.647 46.5194 105.912 46.3793 106.817 46.3793C107.641 46.3793 108.683 46.6304 108.683 47.6987V48.1774H112.176C111.598 47.5353 111.105 46.8872 110.636 46.1341V46.1283ZM101.979 35.4213V36.4313H111.432V35.4213H101.979ZM101.979 38.6731V39.6247H111.432V38.6731H101.979ZM101.979 41.8957V42.9349H111.432V41.8957H101.979Z" fill="#006CB6"/>
<path d="M143.46 50.8986C143.46 52.2335 142.728 52.7504 141.409 52.7504H138.649V55.1247C138.649 56.7038 138.058 57.2264 136.429 57.2264C134.911 57.2264 134.489 56.4652 134.489 55.1247V52.7504H131.735C130.411 52.7504 129.684 52.2051 129.684 50.8702C129.684 50.7055 129.713 50.5408 129.743 50.3817C128.957 51.2565 128.137 52.0971 127.24 52.8356C126.819 53.165 126.397 53.4093 125.863 53.4093C124.539 53.4093 123.361 52.2619 123.361 51.0122C123.361 50.0579 123.924 49.541 124.627 49.0241C126.936 47.2519 128.284 45.9454 129.971 43.5995C131.014 42.1794 131.858 40.6571 132.643 39.1008H125.383C123.918 39.1008 123.273 38.4759 123.273 37.0559C123.273 35.721 124.059 35.1757 125.383 35.1757H134.495V33.1592C134.495 31.5517 135.227 31.1711 136.774 31.1711C138.21 31.1711 138.743 31.8244 138.743 33.1592V35.1757H147.972C149.49 35.1757 150.052 35.8005 150.052 37.249C150.052 38.5839 149.291 39.1008 147.972 39.1008H140.519C141.28 40.873 142.177 42.293 143.361 43.7926C145.218 46.1386 146.425 47.2803 148.816 49.0809C149.49 49.5694 149.882 49.9784 149.882 50.8248C149.882 52.1312 148.839 53.3581 147.433 53.3581C146.39 53.3581 145.663 52.6481 144.96 51.9665C144.427 51.4496 143.917 50.9043 143.443 50.359C143.472 50.5237 143.472 50.7112 143.472 50.9043L143.46 50.8986ZM134.489 43.2928C133.335 45.5308 132.35 47.0531 130.832 49.0468C131.143 48.9673 131.424 48.9389 131.735 48.9389H134.489V43.2928ZM138.649 43.2644V48.9332H141.409C141.749 48.9332 142.03 48.9616 142.335 49.0412C140.9 47.2405 139.745 45.2525 138.649 43.2587V43.2644Z" fill="#006CB6"/>
<path d="M166.498 31.8276C166.745 30.8408 167.269 30.4473 168.264 30.4473C169.149 30.4473 170.443 30.7586 170.443 31.857C170.443 32.3915 170.225 33.2667 169.972 34.1126H174.883C178.115 34.1126 178.276 35.8336 178.276 38.5943C178.276 42.0599 178.138 51.1703 177.338 54.213C176.982 55.5405 176.453 56.5273 175.101 56.9737C174.331 57.1969 172.893 57.2263 171.846 57.2263H170.633C169.724 57.2263 168.344 57.2263 167.901 57.0559C167.044 56.7152 166.688 55.8988 166.688 55.0236C166.688 53.6432 167.487 52.9383 168.816 52.9383H172.048C173.457 52.9383 173.566 51.699 173.761 48.9911C173.957 46.4242 174.066 41.6605 174.066 39.0349C174.066 38.5004 174.009 38.0481 173.238 38.0481H168.574C168.103 39.1465 167.55 40.333 166.947 41.3492C166.59 41.9718 166.176 42.3066 165.457 42.3066C164.848 42.3066 164.215 42.054 163.801 41.6018V52.5448C163.801 54.9707 162.835 55.9575 160.46 55.9575H157.009C154.634 55.9575 153.668 54.9707 153.668 52.5448V37.8895C153.668 35.9981 154.191 34.8468 155.934 34.5649L156.428 34.4826C156.595 34.0597 156.842 32.9907 156.923 32.509C157.17 31.0699 157.504 30.5354 158.775 30.5354C159.712 30.5354 161.064 30.9289 161.064 32.1154C161.064 32.7381 160.678 33.8894 160.454 34.4826H160.759C162.996 34.512 163.795 35.722 163.795 37.8953V38.7705C165.175 36.4327 165.808 34.4591 166.504 31.8335L166.498 31.8276ZM160.092 43.1348V38.7353C160.092 38.3711 159.896 38.142 159.54 38.142H158.102C157.745 38.142 157.55 38.3653 157.55 38.7353V43.1348H160.092ZM157.556 46.712V51.5345C157.556 51.8987 157.751 52.1277 158.108 52.1277H159.545C159.902 52.1277 160.097 51.9045 160.097 51.5345V46.712H157.556ZM168.212 41.3316C169.235 41.3316 169.759 42.0658 170.587 43.5049C171.11 44.4095 172.272 46.4066 172.272 47.4521C172.272 48.6622 171.11 49.367 170.006 49.367C169.258 49.367 168.735 48.9735 168.402 48.298C167.769 47.0586 167.378 46.154 166.636 44.7149C166.389 44.2333 166.084 43.6694 166.084 43.1348C166.084 42.0364 167.246 41.3316 168.212 41.3316Z" fill="#006CB6"/>
<path d="M189.427 32.1002C189.761 31.424 190.505 31.1711 191.196 31.1711C192.273 31.1711 193.466 31.7062 193.466 32.9469C193.466 33.5702 193.299 34.1876 193.131 34.7521C193.517 34.6698 193.903 34.5816 194.295 34.5816C195.54 34.5816 196.231 35.4577 196.231 36.6984C196.231 37.7451 195.735 38.3919 194.768 38.7036C193.829 39.0152 192.861 39.1269 191.893 39.2974C190.983 42.2022 189.928 45.0305 188.713 47.853C188.356 48.6997 187.964 49.6288 187.44 50.3932C187.025 51.0165 186.501 51.3517 185.752 51.3517C184.588 51.3517 183.344 50.4755 183.344 49.2054C183.344 48.6115 183.62 48.1058 183.897 47.6237C185.279 45.1129 186.385 42.5139 187.353 39.8031C186.996 39.8325 186.633 39.8619 186.276 39.8619C184.865 39.8619 184.006 39.1269 184.006 37.6628C184.006 36.1986 184.865 35.6283 186.218 35.6283H186.771C187.382 35.6283 187.987 35.5989 188.598 35.5459C188.794 34.7815 189.151 32.6941 189.427 32.1002ZM194.601 44.1779C194.601 42.5433 195.182 39.8855 197.199 39.8855C198.224 39.8855 199.491 40.6499 199.491 41.8024C199.491 42.2257 199.296 42.5668 199.077 42.9314C198.8 43.3841 198.691 43.8898 198.691 44.4249C198.691 45.5539 198.967 47.3061 199.077 48.5175C200.212 48.9702 201.26 49.5347 202.337 50.2932C203.086 50.8283 203.72 51.481 203.72 52.4395C203.72 53.5979 202.89 54.8092 201.704 54.8092C201.179 54.8092 200.736 54.5269 200.321 54.2153C199.906 53.9036 199.463 53.5685 199.019 53.2568C198.524 55.5736 196.196 56.5026 194.099 56.5026C191.53 56.5026 189.012 55.1208 189.012 52.2102C189.012 49.1055 191.72 47.5531 194.462 47.5531C194.601 47.5531 194.739 47.5825 194.906 47.5825C194.768 46.4535 194.601 45.2952 194.601 44.1662V44.1779ZM194.215 51.1811C193.69 51.1811 192.722 51.3223 192.722 52.0573C192.722 52.6512 193.385 52.8217 193.857 52.8217C194.935 52.8217 195.211 52.2572 195.269 51.2987C194.935 51.2399 194.577 51.187 194.22 51.187L194.215 51.1811ZM200.465 35.5989C201.49 35.5989 202.234 36.3868 203.23 37.4041C204.394 38.5918 205.056 39.2386 205.056 40.2265C205.056 41.4143 204.008 42.4257 202.873 42.4257C202.101 42.4257 201.709 42.0317 201.133 41.3261C200.551 40.5911 199.947 39.9443 199.255 39.321C198.76 38.8682 198.287 38.4154 198.287 37.6863C198.287 36.4985 199.365 35.5989 200.471 35.5989H200.465Z" fill="#006CB6"/>
<path d="M216 47.744C216 48.3719 215.278 50.7868 213.977 54.2407C213.202 56.3244 212.671 57.038 211.589 57.038C210.508 57.038 209.398 56.273 209.398 55.1484C209.398 54.7944 209.537 54.4062 210.312 52.7906C210.56 52.2426 211.393 50.1588 211.838 48.7601C212.503 46.6479 212.838 46.077 213.948 46.077C214.948 46.077 216 46.6536 216 47.7497V47.744ZM212.364 43.4452C211.78 43.0342 211.196 42.5946 210.641 42.1835C209.67 41.4699 209.45 41.1674 209.45 40.5394C209.45 39.6088 210.341 38.4557 211.532 38.4557C212.029 38.4557 212.751 38.7011 214.526 40.0199C215.636 40.842 215.995 41.39 215.995 42.018C215.995 43.0855 215.162 44.2102 213.971 44.2102C213.526 44.2102 213.22 44.0732 212.358 43.4452H212.364ZM231.627 37.6336C232.263 38.2102 233.124 39.1407 233.679 39.8258C235.009 41.4699 235.315 41.9095 235.315 42.646C235.315 43.7421 234.234 44.5356 233.176 44.5356C232.453 44.5356 232.205 44.3415 231.037 42.6745C227.904 43.0855 220.573 43.6621 218.908 43.6621C217.521 43.6621 216.798 43.057 216.798 41.6355C216.798 39.8829 217.937 39.7744 219.215 39.7744H219.799C220.296 38.7582 220.602 38.0503 220.909 36.9542H218.469C217.498 36.9542 216.746 36.7087 216.498 35.6926C216.22 36.4861 215.584 37.1426 214.665 37.1426C214.22 37.1426 213.971 37.0627 213.139 36.4575C212.642 36.1036 212 35.6355 211.277 35.116C210.248 34.3738 210.057 34.0484 210.057 33.4433C210.057 32.5413 210.948 31.3881 212.168 31.3881C212.723 31.3881 213.387 31.6336 215.22 33.0322C216.052 33.6602 216.411 33.9913 216.526 34.3738C216.804 33.4433 217.579 33.1978 218.469 33.1978H223.851V32.7068C223.851 31.4452 224.99 31.1711 226.042 31.1711C227.042 31.1711 228.042 31.5536 228.042 32.7068V33.1978H233.396C234.812 33.1978 235.419 33.7744 235.419 35.1731C235.419 36.4861 234.615 36.9542 233.396 36.9542H230.401C230.759 37.0113 231.205 37.2853 231.621 37.6393L231.627 37.6336ZM221.995 45.9114C221.995 48.9828 221.637 52.1855 220.111 54.8173C219.082 56.5984 218.336 57.2264 217.336 57.2264C216.255 57.2264 215.145 56.4614 215.145 55.3082C215.145 54.8972 215.255 54.5147 215.781 53.881C217.943 51.2778 218.139 49.0856 218.336 45.8543C218.417 44.5927 218.862 44.0732 220.169 44.0732C221.475 44.0732 222.001 44.6498 222.001 45.9114H221.995ZM226.603 55.1712C226.603 56.4614 226.019 56.8724 224.741 56.8724C223.574 56.8724 223.105 56.2673 223.105 55.1712V45.7687C223.105 44.4785 223.689 44.0675 224.938 44.0675C226.187 44.0675 226.603 44.6441 226.603 45.7687V55.1712ZM225.215 36.9485C224.857 37.8791 224.464 38.8096 223.996 39.7173C225.857 39.6602 226.435 39.6374 228.516 39.5232C228.268 39.2206 228.1 38.9181 228.1 38.5356C228.1 37.7135 228.823 37.1084 229.569 36.9485H225.21H225.215ZM231.54 52.7906C231.54 53.2587 231.679 53.3101 232.095 53.3101C232.76 53.3101 232.76 53.253 232.789 51.3348C232.818 50.0218 233.008 49.5822 234.095 49.5822C235.402 49.5822 235.454 50.5128 235.454 51.1978C235.454 56.8953 234.899 57.1693 232.066 57.1693H231.095C229.54 57.1693 228.817 56.9238 228.378 56.4043C228.042 56.0218 227.852 55.1997 227.852 54.2121V45.5518C227.852 44.2901 228.464 43.7991 229.713 43.7991C230.962 43.7991 231.546 44.2901 231.546 45.5518V52.7849L231.54 52.7906Z" fill="#006CB6"/>
<path d="M255.894 35.6477C258.436 35.6477 259.649 37.5183 259.649 39.9555C259.649 41.2596 259.316 43.5552 259.04 45.3078C258.873 46.4408 258.545 48.1404 258.545 49.2734C258.545 49.5271 258.626 49.8104 258.931 49.8104C259.207 49.8104 259.511 49.6392 260.035 49.2734C260.558 48.9075 261.081 48.5357 261.748 48.5357C262.881 48.5357 263.681 49.6983 263.681 50.8018C263.681 51.9053 262.795 52.5013 262.025 53.0678C260.863 53.8881 259.483 54.4015 258.102 54.4015C255.284 54.4015 254.209 52.4777 254.209 49.8399C254.209 47.6329 254.761 44.7118 255.118 42.5343C255.227 41.8852 255.336 41.2301 255.336 40.8052C255.336 40.4394 255.279 40.0145 254.842 40.0145C253.542 40.0145 249.625 44.0096 248.682 45.0836C248.653 46.1576 248.653 47.208 248.653 48.2584C248.653 50.129 248.682 52.0233 248.682 53.894C248.682 55.4814 248.297 56.5023 246.554 56.5023C244.812 56.5023 244.375 55.623 244.375 53.8704C244.375 53.0796 244.403 52.3125 244.403 51.5217C243.851 52.5131 243.38 53.7287 242.086 53.7287C240.872 53.7287 239.797 52.7668 239.797 51.4922C239.797 50.7251 240.153 50.1881 240.792 49.2852C242.253 47.1313 243.524 44.8121 244.656 42.4281V42.0622C243.719 42.3749 242.644 42.7998 241.649 42.7998C240.378 42.7998 239.797 41.6373 239.797 40.4748C239.797 38.7162 240.792 38.492 242.391 38.2678C243.219 38.1556 244.018 37.955 244.817 37.7308C244.875 36.3971 244.898 35.152 245.013 33.7062C245.042 33.3403 245.122 32.9154 245.347 32.6027C245.732 32.0362 246.451 31.8945 247.112 31.8945C248.274 31.8945 249.211 32.4905 249.211 33.7947C249.211 34.8451 249.073 35.8896 249.016 36.94C249.51 37.2528 249.815 37.8193 249.815 38.4153C249.815 38.5864 249.786 38.728 249.758 38.8697C251.414 37.3413 253.513 35.6713 255.888 35.6713L255.894 35.6477Z" fill="#006CB6"/>
</g>
<path d="M346.329 11.1447C347.855 9.61844 350.329 9.61844 351.855 11.1447C353.382 12.671 353.382 15.1451 351.855 16.6714C350.329 18.1976 347.855 18.1976 346.329 16.6714C344.802 15.1451 344.802 12.671 346.329 11.1447ZM316.145 46.8553C317.671 48.3816 320.145 48.3816 321.671 46.8553L344.118 24.4097C345.644 22.8835 345.644 20.4093 344.118 18.8831C342.592 17.3568 340.118 17.3568 338.592 18.8831L316.145 41.3286C314.618 42.8549 314.618 45.329 316.145 46.8553Z" fill="url(#paint0_linear_294_7034)"/>
<path d="M6.67137 46.8553C5.1451 48.3816 2.67097 48.3816 1.1447 46.8553C-0.381567 45.329 -0.381567 42.8549 1.1447 41.3286C2.67097 39.8024 5.1451 39.8024 6.67137 41.3286C8.19764 42.8549 8.19764 45.329 6.67137 46.8553ZM36.8553 11.1447C35.329 9.61843 32.8549 9.61843 31.3286 11.1447L8.88178 33.5903C7.35552 35.1165 7.35552 37.5907 8.88178 39.1169C10.4081 40.6432 12.8822 40.6432 14.4085 39.1169L36.8553 16.6714C38.3816 15.1451 38.3816 12.671 36.8553 11.1447Z" fill="url(#paint1_linear_294_7034)"/>
<defs>
<linearGradient id="paint0_linear_294_7034" x1="351.855" y1="11.1447" x2="316.145" y2="46.8566" gradientUnits="userSpaceOnUse">
<stop stop-color="#FFE066"/>
<stop offset="1" stop-color="#FF99C3"/>
</linearGradient>
<linearGradient id="paint1_linear_294_7034" x1="1.1447" y1="46.8553" x2="36.8553" y2="11.1434" gradientUnits="userSpaceOnUse">
<stop stop-color="#FFE066"/>
<stop offset="1" stop-color="#FF99C3"/>
</linearGradient>
<clipPath id="clip0_294_7034">
<rect width="262" height="57" fill="white" transform="translate(48)"/>
</clipPath>
</defs>
</svg>
