<svg width="786" height="63" viewBox="0 0 786 63" fill="none" xmlns="http://www.w3.org/2000/svg">
<g clip-path="url(#clip0_294_4553)">
<path d="M11.0604 61.1022C8.53004 63.6326 4.42819 63.6326 1.89779 61.1022C-0.632598 58.5718 -0.632598 54.47 1.89779 51.9396C4.42819 49.4092 8.53004 49.4092 11.0604 51.9396C13.5908 54.47 13.5908 58.5718 11.0604 61.1022ZM61.1022 1.89779C58.5718 -0.632598 54.47 -0.632598 51.9396 1.89779L14.7251 39.1102C12.1947 41.6406 12.1947 45.7424 14.7251 48.2728C17.2555 50.8032 21.3573 50.8032 23.8877 48.2728L61.1022 11.0604C63.6326 8.53004 63.6326 4.42819 61.1022 1.89779Z" fill="url(#paint0_linear_294_4553)"/>
<path d="M774.94 1.8978C777.47 -0.632592 781.572 -0.632592 784.102 1.8978C786.633 4.42819 786.633 8.53005 784.102 11.0604C781.572 13.5908 777.47 13.5908 774.94 11.0604C772.409 8.53005 772.409 4.42819 774.94 1.8978ZM724.898 61.1022C727.428 63.6326 731.53 63.6326 734.06 61.1022L771.275 23.8898C773.805 21.3594 773.805 17.2576 771.275 14.7272C768.745 12.1968 764.643 12.1968 762.112 14.7272L724.898 51.9396C722.367 54.47 722.367 58.5718 724.898 61.1022Z" fill="url(#paint1_linear_294_4553)"/>
<g clip-path="url(#clip1_294_4553)">
<path d="M95.78 25.11C94 25.11 93 23.55 93 21.74C93 19.36 94.34 18.84 96.65 18.42C100.39 17.75 101.79 15.41 103.03 11.84C103.51 10.44 104.9 9.97 106.15 9.97C107.64 9.97 109.46 10.85 109.46 12.72V50.4C109.46 53.51 107.97 54.49 105.28 54.49C102.59 54.49 101.34 53.3 101.34 50.4V25.11H95.78Z" fill="#006CB6"/>
<path d="M123.702 25.11C121.922 25.11 120.922 23.55 120.922 21.74C120.922 19.36 122.262 18.84 124.572 18.42C128.312 17.75 129.712 15.41 130.952 11.84C131.432 10.44 132.822 9.97 134.072 9.97C135.562 9.97 137.382 10.85 137.382 12.72V50.4C137.382 53.51 135.892 54.49 133.202 54.49C130.512 54.49 129.262 53.3 129.262 50.4V25.11H123.692H123.702Z" fill="#006CB6"/>
<path d="M167.8 16.02C167.32 15.06 166.07 12.32 166.07 11.36C166.07 9.3 168.57 8.53 170.25 8.53C172.36 8.53 172.94 9.73 173.75 11.36C174.23 12.42 174.95 14 174.95 15.15C174.95 15.44 174.9 15.73 174.81 16.01H179.32C180.04 14.71 180.66 13.37 181.24 11.98C182.01 10.16 182.58 8.81 184.79 8.81C186.66 8.81 188.97 9.77 188.97 11.93C188.97 13.27 187.82 14.86 187.15 16.01L187.77 16.06C188.92 16.11 190.22 16.73 190.94 17.6C191.95 18.75 192.14 20.38 192.14 21.82V25.28C192.14 27.73 190.94 28.64 188.54 28.64C187.77 28.64 186.62 28.5 185.95 28.02C185.9 29.99 185.13 31.04 183.65 32.1C181.39 33.68 178.85 34.98 176.35 36.04H189.98C192.24 36.04 193.48 37.05 193.48 39.4C193.48 41.75 192.09 42.62 189.98 42.62H174.52V48.24C174.52 54.14 171.4 54.34 166.89 54.34H163.82C162.33 54.34 160.65 54.29 159.93 53.96C158.68 53.43 158.2 51.85 158.2 50.6C158.2 48.49 159.4 47.29 161.51 47.29C162.57 47.29 163.67 47.39 164.73 47.39C166.41 47.39 166.84 47.1 166.84 45.37V42.63H151.09C148.79 42.63 147.59 41.62 147.59 39.22C147.59 36.96 148.98 36.05 151.09 36.05H166.84V35.47C166.84 34.27 167.61 33.89 168.71 33.55C169.53 33.31 172.45 32.06 172.45 31.49C172.45 31.15 172.07 31.15 171.87 31.15H157.81C155.79 31.15 154.93 30.24 154.79 28.22C154.17 28.56 153.01 28.65 152.34 28.65C150.08 28.65 148.93 27.55 148.93 25.29V21.83C148.93 17.85 150.47 16.07 154.5 16.02C153.64 14.58 152.63 12.85 152.63 11.89C152.63 9.87 155.08 8.87 156.76 8.87C158.87 8.87 159.64 10.36 160.55 12.04C161.08 13.05 161.8 14.58 161.8 15.74V16.03H167.8V16.02ZM157.86 24.85H182.15C183.11 24.85 184.17 24.9 184.93 25.52V23.22C184.93 22.6 184.59 22.26 183.92 22.26H157.09C156.47 22.26 156.13 22.6 156.13 23.22V25.33C156.61 25.04 157.28 24.85 157.86 24.85Z" fill="#006CB6"/>
<path d="M220.609 37.28L233.519 34.88V12.18C233.519 9.54 234.769 8.63 237.309 8.63C239.709 8.63 240.769 9.88 240.769 12.18V33.54L241.249 33.44C241.539 33.39 241.829 33.34 242.069 33.34C244.179 33.39 245.049 35.12 245.049 37.28C245.049 39.25 244.279 40.11 242.309 40.54L240.769 40.88V50.91C240.769 53.55 239.519 54.51 236.979 54.51C234.579 54.51 233.519 53.26 233.519 50.91V42.22L221.809 44.43C221.469 44.48 221.279 44.48 220.989 44.48C218.879 44.48 217.969 42.37 217.969 40.54C217.969 40.06 218.019 39.68 218.109 39.24C217.679 39.58 217.199 39.77 216.619 39.77C214.989 39.77 214.119 38.28 213.449 36.99V50.86C213.449 53.12 212.389 54.41 210.039 54.41C207.689 54.41 206.629 53.11 206.629 50.86V42.03C205.669 44.09 204.279 46.69 202.409 46.69C200.389 46.69 198.859 44.58 198.859 42.71C198.859 41.7 199.339 40.65 200.009 39.73C200.489 39.06 201.019 38.39 201.449 37.81C203.709 34.74 205.189 31.23 206.389 27.68H202.929C200.719 27.68 199.279 26.72 199.279 24.32C199.279 21.92 200.719 21.01 202.929 21.01H206.629V17.27C205.529 17.41 204.469 17.56 203.409 17.56C202.449 17.56 201.199 17.51 200.479 16.74C199.809 16.02 199.569 15.16 199.569 14.15C199.569 11.75 200.909 11.13 202.639 11.03C203.359 10.98 204.269 10.89 205.089 10.84C207.679 10.65 210.229 10.31 212.769 9.74C214.449 9.36 215.409 9.26 215.889 9.26C217.859 9.26 218.869 10.8 218.869 12.62C218.869 15.31 217.049 15.69 213.449 16.32V21.02H214.989C217.149 21.02 218.489 22.17 218.489 24.33C218.489 26.49 217.149 27.69 214.989 27.69H213.449V27.83C215.229 30.76 216.189 31.81 218.489 34.31C219.109 34.98 219.449 35.7 219.449 36.61C219.449 37.04 219.349 37.43 219.259 37.71C219.689 37.47 220.119 37.37 220.599 37.28H220.609ZM227.189 25.38C228.969 26.82 230.449 28.07 230.449 29.56C230.449 31.38 228.389 33.45 226.559 33.45C225.599 33.45 224.879 32.92 223.729 31.87C223.059 31.25 222.239 30.48 221.229 29.52C220.369 28.7 219.549 27.94 219.549 26.69C219.549 24.91 221.369 23.14 223.099 23.14C224.349 23.14 225.789 24.29 227.179 25.4L227.189 25.38ZM229.059 13.18C230.599 14.38 232.419 15.92 232.419 17.36C232.419 19.14 230.639 21.15 228.819 21.15C227.809 21.15 226.659 20.48 225.649 19.61C224.789 18.89 223.969 18.12 223.389 17.59C222.089 16.44 221.369 15.77 221.369 14.71C221.369 13.08 222.809 10.97 225.019 10.97C226.319 10.97 228.039 12.36 229.049 13.18H229.059Z" fill="#006CB6"/>
<path d="M259.411 47.46C253.461 47.46 251.781 41.22 251.781 36.42C251.781 23.8 262.011 14.19 274.491 14.19C284.811 14.19 292.491 20.86 292.491 31.42C292.491 38.96 288.701 45.01 282.121 48.61C280.491 49.47 278.281 50.53 276.361 50.53C274.101 50.53 272.521 48.42 272.521 46.31C272.521 44.39 273.381 43.77 275.981 42.95C281.451 41.22 284.771 37.09 284.771 31.43C284.771 26.2 281.551 22.07 276.321 21.16C274.881 28.89 269.221 47.47 259.421 47.47L259.411 47.46ZM262.391 26.77C260.091 29.6 258.741 33.25 258.741 36.9C258.741 37.57 258.741 39.59 259.751 39.59C260.281 39.59 261.331 38.49 262.201 37.24C262.971 36.09 263.641 34.84 263.931 34.31C266.041 30.47 267.481 26.29 268.591 22.02C266.091 23.17 264.131 24.61 262.401 26.77H262.391Z" fill="#006CB6"/>
<path d="M309.228 44.63C307.358 46.07 305.198 47.7 303.558 47.7C301.448 47.7 299.578 45.73 299.578 43.62C299.578 42.13 300.398 41.32 302.268 40.02C307.168 36.71 311.528 32.92 315.418 28.5L305.388 28.64C303.948 28.64 301.598 28.54 301.598 24.85C301.598 22.55 302.898 21.35 305.198 21.3L319.168 21.06L319.068 14.77C319.068 13.38 319.258 11.07 322.958 11.07C325.308 11.07 326.658 12.22 326.708 14.67L326.808 20.91L335.018 20.77C336.218 20.77 338.808 20.96 338.808 24.51C338.808 26.81 337.508 28.06 335.208 28.11L326.908 28.25L327.148 43.76C327.148 45.2 327.098 47.84 325.898 49.52C324.838 50.96 322.588 51.54 320.088 51.54C317.018 51.54 314.468 51.2 314.468 47.46C314.468 45.78 315.428 44.1 317.298 44.1C317.588 44.1 318.018 44.2 318.258 44.2H318.498C319.358 44.2 319.508 43.96 319.508 42.71L319.408 34.84C316.338 38.44 312.978 41.75 309.228 44.63Z" fill="#006CB6"/>
<path d="M383.162 27.68C385.512 27.68 387.052 29.26 387.052 31.57C387.052 33.88 385.512 35.51 383.162 35.51H349.652C347.302 35.51 345.762 33.93 345.762 31.57C345.762 29.21 347.252 27.68 349.652 27.68H383.162Z" fill="#006CB6"/>
<path d="M397.252 24.13C394.952 24.13 393.602 22.64 393.602 20.34C393.602 18.04 394.902 16.55 397.252 16.55H419.522C423.842 16.55 426.392 17.94 426.392 22.69C426.392 25.62 425.432 28.45 424.092 31.14C421.502 36.32 417.802 40.89 413.292 44.53C410.552 46.74 403.262 51.39 399.802 51.39C397.542 51.39 395.822 49.28 395.822 47.12C395.822 44.67 398.172 44.1 400.042 43.33C405.322 41.22 410.072 37.67 413.672 33.25C414.972 31.62 418.182 27.06 418.182 24.99C418.182 24.27 417.702 24.13 417.082 24.13H397.252ZM433.632 13.14C433.632 15.92 431.282 18.23 428.492 18.23C425.702 18.23 423.402 15.93 423.402 13.14C423.402 10.35 425.702 8 428.492 8C431.512 8 433.632 10.35 433.632 13.14ZM426.192 13.14C426.192 14.39 427.252 15.44 428.492 15.44C429.732 15.44 430.842 14.38 430.842 13.14C430.842 11.9 429.782 10.79 428.492 10.79C427.202 10.79 426.192 11.85 426.192 13.14Z" fill="#006CB6"/>
<path d="M477.431 23.41C477.431 24.51 476.951 25.43 476.371 26.29C472.961 31.19 468.741 35.6 464.181 39.39C459.431 43.37 454.101 46.93 448.391 49.33C446.281 50.19 445.651 50.34 444.891 50.34C442.491 50.34 440.711 47.94 440.711 45.68C440.711 43.42 442.101 42.99 444.411 42.08C454.201 38.24 463.231 30.8 469.371 22.35C470.521 20.77 471.581 19.42 473.261 19.42C475.421 19.42 477.441 21.2 477.441 23.4L477.431 23.41ZM451.461 18.8C452.951 19.81 454.681 21.06 454.681 23.07C454.681 25.08 452.951 27.53 450.701 27.53C449.741 27.53 448.971 27 447.481 25.95C446.281 25.13 445.081 24.32 443.781 23.5C441.811 22.3 440.851 21.68 440.851 20C440.851 17.7 442.771 15.68 445.031 15.68C446.711 15.68 449.061 17.12 451.461 18.8Z" fill="#006CB6"/>
<path d="M497.72 14.77C497.67 14.39 497.62 14 497.62 13.67C497.62 11.22 499.35 10.17 502.04 10.17C504.2 10.17 505.21 11.42 505.54 13.39L506.4 18.57L513.89 17.42C514.23 17.37 514.56 17.32 514.85 17.32C517.11 17.37 518.4 18.81 518.4 21.26C518.4 23.42 517.1 24.48 515.14 24.76L507.6 25.91L508.27 29.94L518.98 28.36C519.32 28.31 519.6 28.26 519.94 28.26C522.1 28.31 523.49 29.75 523.49 32.2C523.49 34.36 522.34 35.42 520.18 35.75L509.47 37.33L511.25 48.03C511.35 48.61 511.44 49.42 511.44 49.76C511.44 52.16 509.9 53.26 507.12 53.26C504.82 53.26 503.9 52.16 503.52 49.95L501.6 38.48L489.46 40.26C489.17 40.31 488.88 40.36 488.6 40.36C486.34 40.36 485 38.87 485 36.38C485 34.27 486.3 33.16 488.26 32.88L500.4 31.1L499.73 27.07L491.67 28.27C491.38 28.32 491.09 28.37 490.81 28.37C488.55 28.37 487.16 26.93 487.16 24.43C487.16 22.32 488.46 21.26 490.42 20.97L498.53 19.72L497.71 14.78L497.72 14.77Z" fill="#006CB6"/>
<path d="M554.471 50.92C554.521 51.21 554.521 51.45 554.521 51.74C554.521 53.76 552.791 54.91 550.921 54.91C549.291 54.91 548.181 54.05 547.851 52.37L544.781 37.01L537.581 38.4C537.341 38.45 537.051 38.45 536.761 38.45C534.841 38.45 533.781 37.01 533.781 35.14C533.781 33.56 534.601 32.4 536.321 32.12L543.521 30.82L542.321 24.53C542.271 24.24 542.221 23.95 542.221 23.67C542.221 21.65 543.801 20.6 545.871 20.6C547.501 20.6 548.611 21.51 548.941 23.1L550.241 29.58L561.521 27.52C561.951 27.42 562.191 27.42 562.531 27.42C564.451 27.42 566.181 28.76 566.181 30.78C566.181 32.65 563.731 36.01 562.241 38.03C561.331 39.28 560.371 40.57 559.261 41.63C558.641 42.25 557.771 42.64 557.101 42.64C555.371 42.64 553.641 41.25 553.641 39.47C553.641 38.41 554.261 37.69 555.271 36.59C555.851 35.97 556.421 35.34 556.951 34.67L551.431 35.73L554.451 50.95L554.471 50.92Z" fill="#006CB6"/>
<path d="M611.15 23.41C611.15 24.51 610.67 25.43 610.09 26.29C606.68 31.19 602.46 35.6 597.9 39.39C593.15 43.37 587.82 46.93 582.11 49.33C580 50.19 579.37 50.34 578.61 50.34C576.21 50.34 574.43 47.94 574.43 45.68C574.43 43.42 575.82 42.99 578.13 42.08C587.92 38.24 596.95 30.8 603.09 22.35C604.24 20.77 605.3 19.42 606.98 19.42C609.14 19.42 611.16 21.2 611.16 23.4L611.15 23.41ZM585.18 18.8C586.67 19.81 588.4 21.06 588.4 23.07C588.4 25.08 586.67 27.53 584.42 27.53C583.46 27.53 582.69 27 581.2 25.95C580 25.13 578.8 24.32 577.5 23.5C575.53 22.3 574.57 21.68 574.57 20C574.57 17.7 576.49 15.68 578.75 15.68C580.43 15.68 582.78 17.12 585.18 18.8Z" fill="#006CB6"/>
<path d="M632.941 23.22C632.941 24.52 632.271 26.29 631.311 28.5C629.681 32.29 627.471 35.99 624.931 39.3C623.151 41.65 620.611 44.82 618.161 44.82C615.901 44.82 613.551 43.04 613.551 40.69C613.551 39.35 614.321 38.58 615.761 37.09C620.271 32.53 622.671 28.11 624.831 21.97C625.451 20.19 626.651 19.57 628.291 19.57C630.451 19.57 632.951 20.77 632.951 23.22H632.941ZM647.541 22.74C648.641 24.13 649.701 25.57 650.711 27.01C652.441 29.55 657.431 37.14 657.431 39.92C657.431 42.32 655.031 44.1 652.771 44.1C650.321 44.1 649.601 42.32 648.791 40.36C646.731 35.51 643.891 31.14 640.581 27.02C639.911 26.2 639.331 25.34 639.331 24.24C639.331 22.03 641.491 20.45 643.551 20.45C645.421 20.45 646.431 21.41 647.531 22.75L647.541 22.74ZM657.811 16.4C657.811 19.28 655.361 21.73 652.431 21.73C649.501 21.73 647.051 19.28 647.051 16.4C647.051 13.52 649.501 11.02 652.431 11.02C655.361 11.02 657.811 13.47 657.811 16.4ZM649.991 16.4C649.991 17.7 651.091 18.85 652.441 18.85C653.791 18.85 654.891 17.7 654.891 16.4C654.891 15.1 653.791 13.9 652.441 13.9C651.091 13.9 649.991 15.05 649.991 16.4Z" fill="#006CB6"/>
<path d="M698.801 38.67C700.721 40.64 702.021 42.03 702.021 43.76C702.021 46.02 700.001 48.08 697.751 48.08C696.211 48.08 695.251 47.12 694.051 45.63C691.651 42.7 689.111 40.01 686.181 37.66C682.921 40.68 679.321 43.37 675.431 45.53C673.701 46.49 670.631 48.22 668.901 48.22C666.641 48.22 664.871 46.2 664.871 44C664.871 41.94 666.361 41.22 668.041 40.5C676.201 36.95 683.071 31.14 687.911 23.65H673.841C671.391 23.65 670.001 22.45 670.001 19.95C670.001 17.45 671.391 16.25 673.841 16.25H692.611C695.351 16.25 697.751 17.26 697.751 20.38C697.751 23.5 693.291 29.5 691.411 31.95C694.051 34.01 696.501 36.27 698.801 38.67Z" fill="#006CB6"/>
</g>
</g>
<defs>
<linearGradient id="paint0_linear_294_4553" x1="1.89779" y1="61.1022" x2="61.1022" y2="1.89568" gradientUnits="userSpaceOnUse">
<stop stop-color="#FFE066"/>
<stop offset="1" stop-color="#FF99C3"/>
</linearGradient>
<linearGradient id="paint1_linear_294_4553" x1="784.102" y1="1.8978" x2="724.898" y2="61.1043" gradientUnits="userSpaceOnUse">
<stop stop-color="#FFE066"/>
<stop offset="1" stop-color="#FF99C3"/>
</linearGradient>
<clipPath id="clip0_294_4553">
<rect width="786" height="63" fill="white"/>
</clipPath>
<clipPath id="clip1_294_4553">
<rect width="609.01" height="46.9" fill="white" transform="translate(93 8)"/>
</clipPath>
</defs>
</svg>
