<svg width="938" height="63" viewBox="0 0 938 63" fill="none" xmlns="http://www.w3.org/2000/svg">
<path d="M926.94 1.8978C929.47 -0.632592 933.572 -0.632592 936.102 1.8978C938.633 4.42819 938.633 8.53005 936.102 11.0604C933.572 13.5908 929.47 13.5908 926.94 11.0604C924.409 8.53005 924.409 4.42819 926.94 1.8978ZM876.898 61.1022C879.428 63.6326 883.53 63.6326 886.06 61.1022L923.275 23.8898C925.805 21.3594 925.805 17.2576 923.275 14.7272C920.745 12.1968 916.643 12.1968 914.112 14.7272L876.898 51.9396C874.367 54.47 874.367 58.5718 876.898 61.1022Z" fill="url(#paint0_linear_294_4165)"/>
<path d="M11.0604 61.1022C8.53004 63.6326 4.42819 63.6326 1.89779 61.1022C-0.632598 58.5718 -0.632598 54.47 1.89779 51.9396C4.42819 49.4092 8.53004 49.4092 11.0604 51.9396C13.5908 54.47 13.5908 58.5718 11.0604 61.1022ZM61.1022 1.89779C58.5718 -0.632598 54.47 -0.632598 51.9396 1.89779L14.7251 39.1102C12.1947 41.6406 12.1947 45.7424 14.7251 48.2728C17.2555 50.8032 21.3573 50.8032 23.8877 48.2728L61.1022 11.0604C63.6326 8.53004 63.6326 4.42819 61.1022 1.89779Z" fill="url(#paint1_linear_294_4165)"/>
<g clip-path="url(#clip0_294_4165)">
<path d="M102.65 44.6301C100.78 46.0701 98.62 47.7001 96.98 47.7001C94.87 47.7001 93 45.7301 93 43.6201C93 42.1301 93.82 41.3201 95.69 40.0201C100.59 36.7101 104.95 32.9201 108.84 28.5001L98.81 28.6401C97.37 28.6401 95.02 28.5401 95.02 24.8501C95.02 22.5501 96.32 21.3501 98.62 21.3001L112.59 21.0601L112.49 14.7701C112.49 13.3801 112.68 11.0701 116.38 11.0701C118.73 11.0701 120.08 12.2201 120.12 14.6701L120.22 20.9101L128.43 20.7701C129.63 20.7701 132.22 20.9601 132.22 24.5101C132.22 26.8101 130.92 28.0601 128.62 28.1101L120.32 28.2501L120.56 43.7601C120.56 45.2001 120.51 47.8401 119.31 49.5201C118.25 50.9601 116 51.5401 113.5 51.5401C110.43 51.5401 107.88 51.2001 107.88 47.4601C107.88 45.7801 108.84 44.1001 110.71 44.1001C111 44.1001 111.43 44.2001 111.67 44.2001H111.91C112.77 44.2001 112.92 43.9601 112.92 42.7101L112.82 34.8401C109.75 38.4401 106.39 41.7501 102.64 44.6301H102.65Z" fill="#006CB6"/>
<path d="M176.58 27.6799C178.93 27.6799 180.47 29.2599 180.47 31.5699C180.47 33.8799 178.93 35.5099 176.58 35.5099H143.07C140.72 35.5099 139.18 33.9299 139.18 31.5699C139.18 29.2099 140.67 27.6799 143.07 27.6799H176.58Z" fill="#006CB6"/>
<path d="M190.67 24.13C188.37 24.13 187.02 22.64 187.02 20.34C187.02 18.04 188.32 16.55 190.67 16.55H212.94C217.26 16.55 219.81 17.94 219.81 22.69C219.81 25.62 218.85 28.45 217.51 31.14C214.92 36.32 211.22 40.89 206.71 44.53C203.97 46.74 196.68 51.39 193.22 51.39C190.96 51.39 189.24 49.28 189.24 47.12C189.24 44.67 191.59 44.1 193.46 43.33C198.74 41.22 203.49 37.67 207.09 33.25C208.39 31.62 211.6 27.06 211.6 24.99C211.6 24.27 211.12 24.13 210.5 24.13H190.67ZM227.05 13.14C227.05 15.92 224.7 18.23 221.91 18.23C219.12 18.23 216.82 15.93 216.82 13.14C216.82 10.35 219.12 8 221.91 8C224.93 8 227.05 10.35 227.05 13.14ZM219.61 13.14C219.61 14.39 220.67 15.44 221.91 15.44C223.15 15.44 224.26 14.38 224.26 13.14C224.26 11.9 223.2 10.79 221.91 10.79C220.62 10.79 219.61 11.85 219.61 13.14Z" fill="#006CB6"/>
<path d="M270.849 23.4099C270.849 24.5099 270.369 25.4299 269.789 26.2899C266.379 31.1899 262.159 35.5999 257.599 39.3899C252.849 43.3699 247.519 46.9299 241.809 49.3299C239.699 50.1899 239.069 50.3399 238.309 50.3399C235.909 50.3399 234.129 47.9399 234.129 45.6799C234.129 43.4199 235.519 42.9899 237.829 42.0799C247.619 38.2399 256.649 30.7999 262.789 22.3499C263.939 20.7699 264.999 19.4199 266.679 19.4199C268.839 19.4199 270.859 21.1999 270.859 23.3999L270.849 23.4099ZM244.879 18.7999C246.369 19.8099 248.099 21.0599 248.099 23.0699C248.099 25.0799 246.369 27.5299 244.119 27.5299C243.159 27.5299 242.389 26.9999 240.899 25.9499C239.699 25.1299 238.499 24.3199 237.199 23.4999C235.229 22.2999 234.269 21.6799 234.269 19.9999C234.269 17.6999 236.189 15.6799 238.449 15.6799C240.129 15.6799 242.479 17.1199 244.879 18.7999Z" fill="#006CB6"/>
<path d="M291.142 14.7699C291.092 14.3899 291.042 13.9999 291.042 13.6699C291.042 11.2199 292.772 10.1699 295.462 10.1699C297.622 10.1699 298.632 11.4199 298.962 13.3899L299.822 18.5699L307.312 17.4199C307.652 17.3699 307.982 17.3199 308.272 17.3199C310.532 17.3699 311.822 18.8099 311.822 21.2599C311.822 23.4199 310.522 24.4799 308.562 24.7599L301.022 25.9099L301.692 29.9399L312.402 28.3599C312.742 28.3099 313.022 28.2599 313.362 28.2599C315.522 28.3099 316.912 29.7499 316.912 32.1999C316.912 34.3599 315.762 35.4199 313.602 35.7499L302.892 37.3299L304.672 48.0299C304.772 48.6099 304.862 49.4199 304.862 49.7599C304.862 52.1599 303.322 53.2599 300.542 53.2599C298.242 53.2599 297.322 52.1599 296.942 49.9499L295.022 38.4799L282.882 40.2599C282.592 40.3099 282.302 40.3599 282.022 40.3599C279.762 40.3599 278.422 38.8699 278.422 36.3799C278.422 34.2699 279.722 33.1599 281.682 32.8799L293.822 31.0999L293.152 27.0699L285.092 28.2699C284.802 28.3199 284.512 28.3699 284.232 28.3699C281.972 28.3699 280.582 26.9299 280.582 24.4299C280.582 22.3199 281.882 21.2599 283.842 20.9699L291.952 19.7199L291.132 14.7799L291.142 14.7699Z" fill="#006CB6"/>
<path d="M347.889 50.9201C347.939 51.2101 347.939 51.4501 347.939 51.7401C347.939 53.7601 346.209 54.9101 344.339 54.9101C342.709 54.9101 341.599 54.0501 341.269 52.3701L338.199 37.0101L330.999 38.4001C330.759 38.4501 330.469 38.4501 330.179 38.4501C328.259 38.4501 327.199 37.0101 327.199 35.1401C327.199 33.5601 328.019 32.4001 329.739 32.1201L336.939 30.8201L335.739 24.5301C335.689 24.2401 335.639 23.9501 335.639 23.6701C335.639 21.6501 337.219 20.6001 339.289 20.6001C340.919 20.6001 342.029 21.5101 342.359 23.1001L343.659 29.5801L354.939 27.5201C355.369 27.4201 355.609 27.4201 355.949 27.4201C357.869 27.4201 359.599 28.7601 359.599 30.7801C359.599 32.6501 357.149 36.0101 355.659 38.0301C354.749 39.2801 353.789 40.5701 352.679 41.6301C352.059 42.2501 351.189 42.6401 350.519 42.6401C348.789 42.6401 347.059 41.2501 347.059 39.4701C347.059 38.4101 347.679 37.6901 348.689 36.5901C349.269 35.9701 349.839 35.3401 350.369 34.6701L344.849 35.7301L347.869 50.9501L347.889 50.9201Z" fill="#006CB6"/>
<path d="M404.572 23.4099C404.572 24.5099 404.092 25.4299 403.512 26.2899C400.102 31.1899 395.882 35.5999 391.322 39.3899C386.572 43.3699 381.242 46.9299 375.532 49.3299C373.422 50.1899 372.792 50.3399 372.032 50.3399C369.632 50.3399 367.852 47.9399 367.852 45.6799C367.852 43.4199 369.242 42.9899 371.552 42.0799C381.342 38.2399 390.372 30.7999 396.512 22.3499C397.662 20.7699 398.722 19.4199 400.402 19.4199C402.562 19.4199 404.582 21.1999 404.582 23.3999L404.572 23.4099ZM378.602 18.7999C380.092 19.8099 381.822 21.0599 381.822 23.0699C381.822 25.0799 380.092 27.5299 377.842 27.5299C376.882 27.5299 376.112 26.9999 374.622 25.9499C373.422 25.1299 372.222 24.3199 370.922 23.4999C368.952 22.2999 367.992 21.6799 367.992 19.9999C367.992 17.6999 369.912 15.6799 372.172 15.6799C373.852 15.6799 376.202 17.1199 378.602 18.7999Z" fill="#006CB6"/>
<path d="M426.359 23.22C426.359 24.52 425.689 26.29 424.729 28.5C423.099 32.29 420.889 35.99 418.349 39.3C416.569 41.65 414.029 44.82 411.579 44.82C409.319 44.82 406.969 43.04 406.969 40.69C406.969 39.35 407.739 38.58 409.179 37.09C413.689 32.53 416.089 28.11 418.249 21.97C418.869 20.19 420.069 19.57 421.709 19.57C423.869 19.57 426.369 20.77 426.369 23.22H426.359ZM440.959 22.74C442.059 24.13 443.119 25.57 444.129 27.01C445.859 29.55 450.849 37.14 450.849 39.92C450.849 42.32 448.449 44.1 446.189 44.1C443.739 44.1 443.019 42.32 442.209 40.36C440.149 35.51 437.309 31.14 433.999 27.02C433.329 26.2 432.749 25.34 432.749 24.24C432.749 22.03 434.909 20.45 436.969 20.45C438.839 20.45 439.849 21.41 440.949 22.75L440.959 22.74ZM451.229 16.4C451.229 19.28 448.779 21.73 445.849 21.73C442.919 21.73 440.469 19.28 440.469 16.4C440.469 13.52 442.919 11.02 445.849 11.02C448.779 11.02 451.229 13.47 451.229 16.4ZM443.399 16.4C443.399 17.7 444.499 18.85 445.849 18.85C447.199 18.85 448.299 17.7 448.299 16.4C448.299 15.1 447.199 13.9 445.849 13.9C444.499 13.9 443.399 15.05 443.399 16.4Z" fill="#006CB6"/>
<path d="M492.211 38.67C494.131 40.64 495.431 42.03 495.431 43.76C495.431 46.02 493.411 48.08 491.161 48.08C489.621 48.08 488.661 47.12 487.461 45.63C485.061 42.7 482.521 40.01 479.591 37.66C476.331 40.68 472.731 43.37 468.841 45.53C467.111 46.49 464.041 48.22 462.311 48.22C460.051 48.22 458.281 46.2 458.281 44C458.281 41.94 459.771 41.22 461.451 40.5C469.611 36.95 476.481 31.14 481.321 23.65H467.251C464.801 23.65 463.411 22.45 463.411 19.95C463.411 17.45 464.801 16.25 467.251 16.25H486.021C488.761 16.25 491.161 17.26 491.161 20.38C491.161 23.5 486.701 29.5 484.821 31.95C487.461 34.01 489.911 36.27 492.211 38.67Z" fill="#006CB6"/>
<path d="M511.79 47.4599C505.84 47.4599 504.16 41.2199 504.16 36.4199C504.16 23.7999 514.39 14.1899 526.87 14.1899C537.19 14.1899 544.87 20.8599 544.87 31.4199C544.87 38.9599 541.08 45.0099 534.5 48.6099C532.87 49.4699 530.66 50.5299 528.74 50.5299C526.48 50.5299 524.9 48.4199 524.9 46.3099C524.9 44.3899 525.76 43.7699 528.36 42.9499C533.83 41.2199 537.15 37.0899 537.15 31.4299C537.15 26.1999 533.93 22.0699 528.7 21.1599C527.26 28.8899 521.6 47.4699 511.8 47.4699L511.79 47.4599ZM514.77 26.7699C512.47 29.5999 511.12 33.2499 511.12 36.8999C511.12 37.5699 511.12 39.5899 512.13 39.5899C512.66 39.5899 513.71 38.4899 514.58 37.2399C515.35 36.0899 516.02 34.8399 516.31 34.3099C518.42 30.4699 519.86 26.2899 520.97 22.0199C518.47 23.1699 516.51 24.6099 514.78 26.7699H514.77Z" fill="#006CB6"/>
<path d="M584.751 44.39H578.221V46.7901H592.051C594.451 46.7901 595.511 47.7501 595.511 50.2001C595.511 52.4101 594.071 53.18 592.051 53.18H557.201C554.801 53.18 553.741 52.22 553.741 49.82C553.741 47.56 555.181 46.8 557.201 46.8H571.171V44.4001H564.791C562.921 44.4001 561.911 43.68 561.861 41.76C560.231 43.1 557.151 45.46 554.991 45.46C553.021 45.46 551.921 43.49 551.921 41.96C551.921 40.28 552.981 39.56 554.321 38.84C556.481 37.64 557.251 37.02 559.121 35.43H554.851C552.931 35.43 551.871 34.57 551.871 32.55C551.871 30.53 552.931 29.67 554.851 29.67H559.411V17.33H555.861C553.941 17.33 552.841 16.51 552.841 14.5C552.841 12.49 553.941 11.67 555.861 11.67H559.411V10.95C559.411 8.74005 561.471 8.55005 562.871 8.55005C564.891 8.55005 566.521 9.03005 566.521 10.95V11.67H583.031V10.9C583.031 8.74005 585.091 8.55005 586.291 8.55005C588.591 8.55005 590.081 9.03005 590.081 10.95V11.67H593.781C595.701 11.67 596.761 12.49 596.761 14.5C596.761 16.51 595.701 17.33 593.781 17.33H590.081V29.67H594.401C596.321 29.67 597.381 30.53 597.381 32.55C597.381 34.57 596.321 35.43 594.401 35.43H590.221C591.851 37.01 593.241 37.9301 595.261 39.0301C596.461 39.7501 597.371 40.3301 597.371 41.8601C597.371 43.6801 595.981 45.51 594.061 45.51C592.041 45.51 589.261 43.3 587.681 42.05C587.441 43.83 586.431 44.4001 584.751 44.4001V44.39ZM581.631 35.41H567.661C566.801 36.61 565.841 37.81 564.831 38.91H571.171V38.14C571.171 36.08 573.381 35.84 574.961 35.84C576.401 35.84 578.221 36.27 578.221 38.1V38.92H584.321C583.311 37.82 582.451 36.71 581.631 35.42V35.41ZM566.511 17.07V18.8H583.021V17.07H566.511ZM566.511 22.64V24.27H583.021V22.64H566.511ZM566.511 28.16V29.9401H583.021V28.16H566.511Z" fill="#006CB6"/>
<path d="M637.528 43.3799C637.528 45.7299 636.278 46.6399 634.028 46.6399H629.318V50.8199C629.318 53.5999 628.308 54.5199 625.528 54.5199C622.938 54.5199 622.218 53.1799 622.218 50.8199V46.6399H617.518C615.258 46.6399 614.018 45.6799 614.018 43.3299C614.018 43.0399 614.068 42.7499 614.118 42.4699C612.778 44.0099 611.378 45.4899 609.848 46.7899C609.128 47.3699 608.408 47.7999 607.498 47.7999C605.238 47.7999 603.228 45.7799 603.228 43.5799C603.228 41.8999 604.188 40.9899 605.388 40.0799C609.328 36.9599 611.628 34.6599 614.508 30.5299C616.288 28.0299 617.728 25.3499 619.068 22.6099H606.678C604.178 22.6099 603.078 21.5099 603.078 19.0099C603.078 16.6599 604.418 15.6999 606.678 15.6999H622.228V12.1499C622.228 9.3199 623.478 8.6499 626.118 8.6499C628.568 8.6499 629.478 9.7999 629.478 12.1499V15.6999H645.228C647.818 15.6999 648.778 16.7999 648.778 19.3499C648.778 21.6999 647.478 22.6099 645.228 22.6099H632.508C633.808 25.7299 635.338 28.2299 637.358 30.8699C640.528 34.9999 642.588 37.0099 646.668 40.1799C647.818 41.0399 648.488 41.7599 648.488 43.2499C648.488 45.5499 646.708 47.7099 644.308 47.7099C642.528 47.7099 641.288 46.4599 640.088 45.2599C639.178 44.3499 638.308 43.3899 637.498 42.4299C637.548 42.7199 637.548 43.0499 637.548 43.3899L637.528 43.3799ZM622.218 29.9899C620.248 33.9299 618.568 36.6099 615.978 40.1199C616.508 39.9799 616.988 39.9299 617.518 39.9299H622.218V29.9899ZM629.318 29.9399V39.9199H634.028C634.608 39.9199 635.088 39.9699 635.608 40.1099C633.158 36.9399 631.188 33.4399 629.318 29.9299V29.9399Z" fill="#006CB6"/>
<path d="M677.568 10.9301C677.998 9.25008 678.908 8.58008 680.638 8.58008C682.178 8.58008 684.428 9.11008 684.428 10.9801C684.428 11.8901 684.048 13.3801 683.608 14.8201H692.148C697.768 14.8201 698.048 17.7501 698.048 22.4501C698.048 28.3501 697.808 43.8601 696.418 49.0401C695.798 51.3001 694.878 52.9801 692.528 53.7401C691.188 54.1201 688.688 54.1701 686.868 54.1701H684.758C683.178 54.1701 680.778 54.1701 680.008 53.8801C678.518 53.3001 677.898 51.9101 677.898 50.4201C677.898 48.0701 679.288 46.8701 681.598 46.8701H687.218C689.668 46.8701 689.858 44.7601 690.198 40.1501C690.538 35.7801 690.728 27.6701 690.728 23.2001C690.728 22.2901 690.628 21.5201 689.288 21.5201H681.178C680.358 23.3901 679.398 25.4101 678.348 27.1401C677.728 28.2001 677.008 28.7701 675.758 28.7701C674.698 28.7701 673.598 28.3401 672.878 27.5701V46.2001C672.878 50.3301 671.198 52.0101 667.068 52.0101H661.068C656.938 52.0101 655.258 50.3301 655.258 46.2001V21.2501C655.258 18.0301 656.168 16.0701 659.198 15.5901L660.058 15.4501C660.348 14.7301 660.778 12.9101 660.918 12.0901C661.348 9.64008 661.928 8.73008 664.138 8.73008C665.768 8.73008 668.118 9.40008 668.118 11.4201C668.118 12.4801 667.448 14.4401 667.058 15.4501H667.588C671.478 15.5001 672.868 17.5601 672.868 21.2601V22.7501C675.268 18.7701 676.368 15.4101 677.578 10.9401L677.568 10.9301ZM666.428 30.1801V22.6901C666.428 22.0701 666.088 21.6801 665.468 21.6801H662.968C662.348 21.6801 662.008 22.0601 662.008 22.6901V30.1801H666.428ZM662.018 36.2701V44.4801C662.018 45.1001 662.358 45.4901 662.978 45.4901H665.478C666.098 45.4901 666.438 45.1101 666.438 44.4801V36.2701H662.018ZM680.548 27.1101C682.328 27.1101 683.238 28.3601 684.678 30.8101C685.588 32.3501 687.608 35.7501 687.608 37.5301C687.608 39.5901 685.588 40.7901 683.668 40.7901C682.368 40.7901 681.458 40.1201 680.878 38.9701C679.778 36.8601 679.098 35.3201 677.808 32.8701C677.378 32.0501 676.848 31.0901 676.848 30.1801C676.848 28.3101 678.868 27.1101 680.548 27.1101Z" fill="#006CB6"/>
<path d="M716.849 11.2199C717.429 10.0699 718.719 9.63989 719.919 9.63989C721.789 9.63989 723.859 10.5499 723.859 12.6599C723.859 13.7199 723.569 14.7699 723.279 15.7299C723.949 15.5899 724.619 15.4399 725.299 15.4399C727.459 15.4399 728.659 16.9299 728.659 19.0399C728.659 20.8199 727.799 21.9199 726.119 22.4499C724.489 22.9799 722.809 23.1699 721.129 23.4599C719.549 28.3999 717.719 33.2099 715.609 38.0099C714.989 39.4499 714.309 41.0299 713.399 42.3299C712.679 43.3899 711.769 43.9599 710.469 43.9599C708.449 43.9599 706.289 42.4699 706.289 40.3099C706.289 39.2999 706.769 38.4399 707.249 37.6199C709.649 33.3499 711.569 28.9299 713.249 24.3199C712.629 24.3699 711.999 24.4199 711.379 24.4199C708.929 24.4199 707.439 23.1699 707.439 20.6799C707.439 18.1899 708.929 17.2199 711.279 17.2199H712.239C713.299 17.2199 714.349 17.1699 715.409 17.0799C715.749 15.7799 716.369 12.2299 716.849 11.2199ZM725.829 31.7599C725.829 28.9799 726.839 24.4599 730.339 24.4599C732.119 24.4599 734.319 25.7599 734.319 27.7199C734.319 28.4399 733.979 29.0199 733.599 29.6399C733.119 30.4099 732.929 31.2699 732.929 32.1799C732.929 34.0999 733.409 37.0799 733.599 39.1399C735.569 39.9099 737.389 40.8699 739.259 42.1599C740.559 43.0699 741.659 44.1799 741.659 45.8099C741.659 47.7799 740.219 49.8399 738.159 49.8399C737.249 49.8399 736.479 49.3599 735.759 48.8299C735.039 48.2999 734.269 47.7299 733.499 47.1999C732.639 51.1399 728.599 52.7199 724.959 52.7199C720.499 52.7199 716.129 50.3699 716.129 45.4199C716.129 40.1399 720.829 37.4999 725.589 37.4999C725.829 37.4999 726.069 37.5499 726.359 37.5499C726.119 35.6299 725.829 33.6599 725.829 31.7399V31.7599ZM725.159 43.6699C724.249 43.6699 722.569 43.9099 722.569 45.1599C722.569 46.1699 723.719 46.4599 724.539 46.4599C726.409 46.4599 726.889 45.4999 726.989 43.8699C726.409 43.7699 725.789 43.6799 725.169 43.6799L725.159 43.6699ZM736.009 17.1699C737.789 17.1699 739.079 18.5099 740.809 20.2399C742.829 22.2599 743.979 23.3599 743.979 25.0399C743.979 27.0599 742.159 28.7799 740.189 28.7799C738.849 28.7799 738.169 28.1099 737.169 26.9099C736.159 25.6599 735.109 24.5599 733.909 23.4999C733.049 22.7299 732.229 21.9599 732.229 20.7199C732.229 18.6999 734.099 17.1699 736.019 17.1699H736.009Z" fill="#006CB6"/>
<path d="M763.068 37.7099C763.068 38.8099 761.818 43.0399 759.568 49.0899C758.228 52.7399 757.308 53.9899 755.438 53.9899C753.568 53.9899 751.648 52.6499 751.648 50.6799C751.648 50.0599 751.888 49.3799 753.228 46.5499C753.658 45.5899 755.098 41.9399 755.868 39.4899C757.018 35.7899 757.598 34.7899 759.518 34.7899C761.248 34.7899 763.068 35.7999 763.068 37.7199V37.7099ZM756.778 30.1799C755.768 29.4599 754.758 28.6899 753.798 27.9699C752.118 26.7199 751.738 26.1899 751.738 25.0899C751.738 23.4599 753.278 21.4399 755.338 21.4399C756.198 21.4399 757.448 21.8699 760.518 24.1799C762.438 25.6199 763.058 26.5799 763.058 27.6799C763.058 29.5499 761.618 31.5199 759.558 31.5199C758.788 31.5199 758.258 31.2799 756.768 30.1799H756.778ZM790.098 19.9999C791.198 21.0099 792.688 22.6399 793.648 23.8399C795.948 26.7199 796.478 27.4899 796.478 28.7799C796.478 30.6999 794.608 32.0899 792.778 32.0899C791.528 32.0899 791.098 31.7499 789.078 28.8299C783.658 29.5499 770.978 30.5599 768.098 30.5599C765.698 30.5599 764.448 29.4999 764.448 27.0099C764.448 23.9399 766.418 23.7499 768.628 23.7499H769.638C770.498 21.9699 771.028 20.7299 771.558 18.8099H767.338C765.658 18.8099 764.358 18.3799 763.928 16.5999C763.448 17.9899 762.348 19.1399 760.758 19.1399C759.988 19.1399 759.558 18.9999 758.118 17.9399C757.258 17.3199 756.148 16.4999 754.898 15.5899C753.118 14.2899 752.788 13.7199 752.788 12.6599C752.788 11.0799 754.328 9.05993 756.438 9.05993C757.398 9.05993 758.548 9.48993 761.718 11.9399C763.158 13.0399 763.778 13.6199 763.978 14.2899C764.458 12.6599 765.798 12.2299 767.338 12.2299H776.648V11.3699C776.648 9.15993 778.618 8.67993 780.438 8.67993C782.168 8.67993 783.898 9.34993 783.898 11.3699V12.2299H793.158C795.608 12.2299 796.658 13.2399 796.658 15.6899C796.658 17.9899 795.268 18.8099 793.158 18.8099H787.978C788.598 18.9099 789.368 19.3899 790.088 20.0099L790.098 19.9999ZM773.438 34.4999C773.438 39.8799 772.818 45.4899 770.178 50.0999C768.398 53.2199 767.108 54.3199 765.378 54.3199C763.508 54.3199 761.588 52.9799 761.588 50.9599C761.588 50.2399 761.778 49.5699 762.688 48.4599C766.428 43.8999 766.768 40.0599 767.108 34.3999C767.248 32.1899 768.018 31.2799 770.278 31.2799C772.538 31.2799 773.448 32.2899 773.448 34.4999H773.438ZM781.408 50.7199C781.408 52.9799 780.398 53.6999 778.188 53.6999C776.168 53.6999 775.358 52.6399 775.358 50.7199V34.2499C775.358 31.9899 776.368 31.2699 778.528 31.2699C780.688 31.2699 781.408 32.2799 781.408 34.2499V50.7199ZM779.008 18.7999C778.388 20.4299 777.708 22.0599 776.898 23.6499C780.118 23.5499 781.118 23.5099 784.718 23.3099C784.288 22.7799 783.998 22.2499 783.998 21.5799C783.998 20.1399 785.248 19.0799 786.538 18.7999H778.998H779.008ZM789.948 46.5499C789.948 47.3699 790.188 47.4599 790.908 47.4599C792.058 47.4599 792.058 47.3599 792.108 43.9999C792.158 41.6999 792.488 40.9299 794.368 40.9299C796.628 40.9299 796.718 42.5599 796.718 43.7599C796.718 53.7399 795.758 54.2199 790.858 54.2199H789.178C786.488 54.2199 785.238 53.7899 784.478 52.8799C783.898 52.2099 783.568 50.7699 783.568 49.0399V33.8699C783.568 31.6599 784.628 30.7999 786.788 30.7999C788.948 30.7999 789.958 31.6599 789.958 33.8699V46.5399L789.948 46.5499Z" fill="#006CB6"/>
<path d="M831.982 17.2199C836.402 17.2199 838.512 20.3899 838.512 24.5199C838.512 26.7299 837.932 30.6199 837.452 33.5899C837.162 35.5099 836.592 38.3899 836.592 40.3099C836.592 40.7399 836.732 41.2199 837.262 41.2199C837.742 41.2199 838.272 40.9299 839.182 40.3099C840.092 39.6899 841.002 39.0599 842.162 39.0599C844.132 39.0599 845.522 41.0299 845.522 42.8999C845.522 44.7699 843.982 45.7799 842.642 46.7399C840.622 48.1299 838.222 48.9999 835.822 48.9999C830.922 48.9999 829.052 45.7399 829.052 41.2699C829.052 37.5299 830.012 32.5799 830.632 28.8899C830.822 27.7899 831.012 26.6799 831.012 25.9599C831.012 25.3399 830.912 24.6199 830.152 24.6199C827.892 24.6199 821.082 31.3899 819.442 33.2099C819.392 35.0299 819.392 36.8099 819.392 38.5899C819.392 41.7599 819.442 44.9699 819.442 48.1399C819.442 50.8299 818.772 52.5599 815.742 52.5599C812.712 52.5599 811.952 51.0699 811.952 48.0999C811.952 46.7599 812.002 45.4599 812.002 44.1199C811.042 45.7999 810.222 47.8599 807.972 47.8599C805.862 47.8599 803.992 46.2299 803.992 44.0699C803.992 42.7699 804.612 41.8599 805.722 40.3299C808.262 36.6799 810.472 32.7499 812.442 28.7099V28.0899C810.812 28.6199 808.942 29.3399 807.212 29.3399C805.002 29.3399 803.992 27.3699 803.992 25.3999C803.992 22.4199 805.722 22.0399 808.502 21.6599C809.942 21.4699 811.332 21.1299 812.722 20.7499C812.822 18.4899 812.862 16.3799 813.062 13.9299C813.112 13.3099 813.252 12.5899 813.642 12.0599C814.312 11.0999 815.562 10.8599 816.712 10.8599C818.732 10.8599 820.362 11.8699 820.362 14.0799C820.362 15.8599 820.122 17.6299 820.022 19.4099C820.882 19.9399 821.412 20.8999 821.412 21.9099C821.412 22.1999 821.362 22.4399 821.312 22.6799C824.192 20.0899 827.842 17.2599 831.972 17.2599L831.982 17.2199Z" fill="#006CB6"/>
</g>
<defs>
<linearGradient id="paint0_linear_294_4165" x1="936.102" y1="1.8978" x2="876.898" y2="61.1043" gradientUnits="userSpaceOnUse">
<stop stop-color="#FFE066"/>
<stop offset="1" stop-color="#FF99C3"/>
</linearGradient>
<linearGradient id="paint1_linear_294_4165" x1="1.89779" y1="61.1022" x2="61.1022" y2="1.89568" gradientUnits="userSpaceOnUse">
<stop stop-color="#FFE066"/>
<stop offset="1" stop-color="#FF99C3"/>
</linearGradient>
<clipPath id="clip0_294_4165">
<rect width="752.52" height="46.9" fill="white" transform="translate(93 8)"/>
</clipPath>
</defs>
</svg>
