<svg width="241" height="38" viewBox="0 0 241 38" fill="none" xmlns="http://www.w3.org/2000/svg">
<g clip-path="url(#clip0_294_11146)">
<g clip-path="url(#clip1_294_11146)">
<path d="M58.3496 11.6473C56.8718 11.6473 56.0938 10.9537 56.0938 9.44572C56.0938 7.93778 56.8779 7.27429 58.3496 7.27429H72.8258C74.3036 7.27429 75.0576 7.96794 75.0576 9.44572C75.0576 10.9235 74.3036 11.6473 72.8258 11.6473H68.109V29.1333C68.109 30.8403 67.2103 31.5098 65.5877 31.5098C63.9652 31.5098 63.0664 30.8464 63.0664 29.1333V11.6473H58.3496Z" fill="#006CB6"/>
<path d="M96.5793 9.06574C99.6193 11.587 100.693 15.2302 100.693 19.0543C100.693 22.8784 99.6193 26.5819 96.5793 29.073C94.4682 30.78 91.8564 31.5038 89.1964 31.5038C86.5364 31.5038 83.8945 30.78 81.8136 29.073C78.7434 26.5518 77.6758 22.9026 77.6758 19.0543C77.6758 15.2061 78.7494 11.581 81.8136 9.06574C83.9005 7.35876 86.5063 6.63495 89.1964 6.63495C91.8866 6.63495 94.4682 7.3286 96.5793 9.06574ZM84.3288 13.4086C83.1405 15.0311 82.851 17.088 82.851 19.0543C82.851 21.0207 83.1405 22.9629 84.3288 24.6699C85.4567 26.3226 87.1939 27.0464 89.1904 27.0464C91.1869 27.0464 92.8698 26.3226 94.052 24.6699C95.2402 23.0172 95.4996 21.0508 95.4996 19.0543C95.4996 17.0578 95.1799 15.1156 94.052 13.4629C92.924 11.8102 91.1567 11.0623 89.1904 11.0623C87.224 11.0623 85.4567 11.8464 84.3288 13.4086Z" fill="#006CB6"/>
<path d="M110.965 29.1333C110.965 30.8704 110.036 31.5098 108.39 31.5098C106.743 31.5098 105.898 30.786 105.898 29.1333V11.3818C105.898 8.42628 107.087 7.26819 110.012 7.26819H115.543C117.22 7.26819 119.223 7.38279 120.67 8.25136C123.017 9.66882 124.205 12.0755 124.205 14.7958C124.205 17.5161 123.107 20.0676 120.845 21.485C119.397 22.4139 117.256 22.6431 115.543 22.6431H110.971V29.1272L110.965 29.1333ZM115.308 18.2761C117.54 18.2761 119.042 17.3231 119.042 14.9164C119.042 12.5098 117.51 11.6472 115.308 11.6472H111.918C111.309 11.6472 110.965 11.9971 110.965 12.6003V18.2761H115.308Z" fill="#006CB6"/>
<path d="M134.005 29.1334C134.005 30.8705 133.076 31.5099 131.43 31.5099C129.783 31.5099 128.969 30.7861 128.969 29.1334V8.9813C128.969 7.24416 129.898 6.63495 131.544 6.63495C133.191 6.63495 134.005 7.3286 134.005 8.9813V29.1334Z" fill="#006CB6"/>
<path d="M142.006 10.3143C144.237 7.62416 147.332 6.63495 150.752 6.63495C154.485 6.63495 158.279 8.31177 159.962 11.8162C160.252 12.4254 160.481 13.1191 160.481 13.8127C160.481 15.2905 159.353 15.8997 157.99 15.8997C156.253 15.8997 155.933 15.0915 155.704 14.3375C155.499 13.674 155.209 12.9743 154.721 12.4857C153.677 11.4121 152 11.0683 150.553 11.0683C145.806 11.0683 144.328 15.007 144.328 19.1207C144.328 23.2343 145.806 27.0524 150.468 27.0524C151.801 27.0524 153.569 26.7629 154.522 25.7797C155.131 25.1403 155.42 24.4467 155.65 23.6083C155.939 22.5105 156.229 21.6419 158.141 21.6419C159.474 21.6419 160.541 22.2813 160.541 23.7289C160.541 25.261 159.703 26.9981 158.744 28.1562C156.747 30.587 153.617 31.5159 150.547 31.5159C143.134 31.5159 139.141 26.22 139.141 19.1207C139.141 15.9057 139.925 12.8115 142.006 10.3203V10.3143Z" fill="#006CB6"/>
<path d="M181.391 8.92098C182.519 9.90416 183.502 11.4965 183.502 13.0588C183.502 14.4461 182.259 14.9407 181.071 14.9407C179.418 14.9407 178.839 14.3918 178.405 13.2035C177.766 11.4965 176.668 11.0623 174.436 11.0623C173.049 11.0623 170.497 11.3518 170.497 13.2337C170.497 14.6813 171.595 15.3448 174.116 16.1892C175.015 16.4788 175.938 16.8286 176.782 17.1181C178.664 17.7816 180.287 18.421 181.505 19.2051C183.242 20.333 184.111 21.8108 184.111 23.9219C184.111 25.9184 183.303 27.7159 181.879 29.073C179.967 30.8946 177.506 31.5038 174.931 31.5038C172.12 31.5038 169.11 30.8645 167.023 28.8981C165.925 27.8546 164.852 26.2321 164.852 24.6699C164.852 23.1076 166.215 22.613 167.542 22.613C169.363 22.613 169.629 23.1921 170.033 24.5251C170.642 26.5518 172.868 27.0464 174.726 27.0464C175.739 27.0464 177.102 26.9016 177.94 26.3226C178.55 25.9184 178.924 25.2248 178.924 24.3803C178.924 23.9461 178.749 23.4816 178.429 23.1921C177.53 22.408 175.039 21.5696 173.857 21.1654C171.686 20.4416 168.471 19.4584 166.848 17.8359C165.805 16.7924 165.316 15.2 165.316 13.7524C165.316 11.6413 166.185 9.78352 167.922 8.45654C169.659 7.12352 172.12 6.63495 174.261 6.63495C176.782 6.63495 179.473 7.24416 181.385 8.92098H181.391Z" fill="#006CB6"/>
</g>
<path d="M6.67137 36.8553C5.1451 38.3816 2.67097 38.3816 1.1447 36.8553C-0.381567 35.329 -0.381567 32.8549 1.1447 31.3286C2.67097 29.8024 5.1451 29.8024 6.67137 31.3286C8.19764 32.8549 8.19764 35.329 6.67137 36.8553ZM36.8553 1.1447C35.329 -0.381567 32.8549 -0.381567 31.3286 1.1447L8.88179 23.5903C7.35552 25.1165 7.35552 27.5907 8.88179 29.1169C10.4081 30.6432 12.8822 30.6432 14.4085 29.1169L36.8553 6.67137C38.3816 5.1451 38.3816 2.67097 36.8553 1.1447Z" fill="url(#paint0_linear_294_11146)"/>
<path d="M233.391 1.14471C234.917 -0.38156 237.392 -0.38156 238.918 1.14471C240.444 2.67098 240.444 5.14511 238.918 6.67138C237.392 8.19765 234.917 8.19765 233.391 6.67138C231.865 5.14511 231.865 2.67098 233.391 1.14471ZM203.207 36.8553C204.733 38.3816 207.208 38.3816 208.734 36.8553L231.181 14.4097C232.707 12.8835 232.707 10.4093 231.181 8.88306C229.654 7.3568 227.18 7.3568 225.654 8.88306L203.207 31.3286C201.681 32.8549 201.681 35.329 203.207 36.8553Z" fill="url(#paint1_linear_294_11146)"/>
</g>
<defs>
<linearGradient id="paint0_linear_294_11146" x1="1.1447" y1="36.8553" x2="36.8553" y2="1.14342" gradientUnits="userSpaceOnUse">
<stop stop-color="#FFE066"/>
<stop offset="1" stop-color="#FF99C3"/>
</linearGradient>
<linearGradient id="paint1_linear_294_11146" x1="238.918" y1="1.1447" x2="203.207" y2="36.8566" gradientUnits="userSpaceOnUse">
<stop stop-color="#FFE066"/>
<stop offset="1" stop-color="#FF99C3"/>
</linearGradient>
<clipPath id="clip0_294_11146">
<rect width="240.064" height="38" fill="white"/>
</clipPath>
<clipPath id="clip1_294_11146">
<rect width="128.018" height="24.8749" fill="white" transform="translate(56.0938 6.63495)"/>
</clipPath>
</defs>
</svg>
