<svg width="742" height="63" viewBox="0 0 742 63" fill="none" xmlns="http://www.w3.org/2000/svg">
<g clip-path="url(#clip0_294_4213)">
<path d="M11.0604 61.0354C8.53004 63.5646 4.42819 63.5646 1.89779 61.0354C-0.632598 58.5061 -0.632598 54.406 1.89779 51.8768C4.42819 49.3475 8.53004 49.3475 11.0604 51.8768C13.5908 54.406 13.5908 58.5061 11.0604 61.0354ZM61.1022 1.85716C58.5718 -0.672113 54.47 -0.672113 51.9396 1.85716L14.7251 39.0531C12.1947 41.5823 12.1947 45.6824 14.7251 48.2117C17.2555 50.7409 21.3573 50.7409 23.8877 48.2117L61.1022 11.0157C63.6326 8.48647 63.6326 4.38643 61.1022 1.85716Z" fill="url(#paint0_linear_294_4213)"/>
<path d="M730.94 1.85722C733.47 -0.672049 737.572 -0.672049 740.102 1.85722C742.633 4.38649 742.633 8.48653 740.102 11.0158C737.572 13.5451 733.47 13.5451 730.94 11.0158C728.409 8.48653 728.409 4.38649 730.94 1.85722ZM680.898 61.0354C683.428 63.5647 687.53 63.5647 690.06 61.0354L727.275 23.8395C729.805 21.3102 729.805 17.2102 727.275 14.6809C724.745 12.1517 720.643 12.1517 718.112 14.6809L680.898 51.8768C678.367 54.4061 678.367 58.5061 680.898 61.0354Z" fill="url(#paint1_linear_294_4213)"/>
<g clip-path="url(#clip1_294_4213)">
<path d="M102.65 44.5902C100.78 46.0302 98.62 47.6602 96.98 47.6602C94.87 47.6602 93 45.6902 93 43.5802C93 42.0902 93.82 41.2802 95.69 39.9802C100.59 36.6702 104.95 32.8802 108.84 28.4602L98.81 28.6002C97.37 28.6002 95.02 28.5002 95.02 24.8102C95.02 22.5102 96.32 21.3102 98.62 21.2602L112.59 21.0202L112.49 14.7302C112.49 13.3402 112.68 11.0302 116.38 11.0302C118.73 11.0302 120.08 12.1802 120.13 14.6302L120.23 20.8702L128.44 20.7302C129.64 20.7302 132.23 20.9202 132.23 24.4702C132.23 26.7702 130.93 28.0202 128.63 28.0702L120.33 28.2102L120.57 43.7201C120.57 45.1602 120.52 47.8002 119.32 49.4802C118.26 50.9202 116.01 51.5002 113.51 51.5002C110.44 51.5002 107.89 51.1602 107.89 47.4202C107.89 45.7402 108.85 44.0602 110.72 44.0602C111.01 44.0602 111.44 44.1602 111.68 44.1602H111.92C112.78 44.1602 112.93 43.9202 112.93 42.6702L112.83 34.8002C109.76 38.4002 106.4 41.7102 102.65 44.5902Z" fill="#006CB6"/>
<path d="M176.58 27.6403C178.93 27.6403 180.47 29.2203 180.47 31.5303C180.47 33.8403 178.93 35.4703 176.58 35.4703H143.07C140.72 35.4703 139.18 33.8903 139.18 31.5303C139.18 29.1703 140.67 27.6403 143.07 27.6403H176.58Z" fill="#006CB6"/>
<path d="M190.67 24.0902C188.37 24.0902 187.02 22.6002 187.02 20.3002C187.02 18.0002 188.32 16.5102 190.67 16.5102H212.94C217.26 16.5102 219.81 17.9002 219.81 22.6502C219.81 25.5802 218.85 28.4102 217.51 31.1002C214.92 36.2802 211.22 40.8502 206.71 44.4902C203.97 46.7002 196.68 51.3502 193.22 51.3502C190.96 51.3502 189.24 49.2402 189.24 47.0802C189.24 44.6302 191.59 44.0602 193.46 43.2902C198.74 41.1802 203.49 37.6302 207.09 33.2102C208.39 31.5802 211.6 27.0202 211.6 24.9502C211.6 24.2302 211.12 24.0902 210.5 24.0902H190.67ZM227.05 13.1002C227.05 15.8802 224.7 18.1902 221.91 18.1902C219.12 18.1902 216.82 15.8902 216.82 13.1002C216.82 10.3102 219.12 7.96021 221.91 7.96021C224.93 7.96021 227.05 10.3102 227.05 13.1002ZM219.61 13.1002C219.61 14.3502 220.67 15.4002 221.91 15.4002C223.15 15.4002 224.26 14.3402 224.26 13.1002C224.26 11.8602 223.2 10.7502 221.91 10.7502C220.62 10.7502 219.61 11.8102 219.61 13.1002Z" fill="#006CB6"/>
<path d="M270.849 23.3703C270.849 24.4703 270.369 25.3903 269.789 26.2503C266.379 31.1503 262.159 35.5603 257.599 39.3503C252.849 43.3303 247.519 46.8903 241.809 49.2903C239.699 50.1503 239.069 50.3003 238.309 50.3003C235.909 50.3003 234.129 47.9003 234.129 45.6403C234.129 43.3803 235.519 42.9503 237.829 42.0403C247.619 38.2003 256.649 30.7603 262.789 22.3103C263.939 20.7303 264.999 19.3803 266.679 19.3803C268.839 19.3803 270.859 21.1603 270.859 23.3603L270.849 23.3703ZM244.879 18.7603C246.369 19.7703 248.099 21.0203 248.099 23.0303C248.099 25.0403 246.369 27.4903 244.119 27.4903C243.159 27.4903 242.389 26.9603 240.899 25.9103C239.699 25.0903 238.499 24.2803 237.199 23.4603C235.229 22.2603 234.269 21.6403 234.269 19.9603C234.269 17.6603 236.189 15.6403 238.449 15.6403C240.129 15.6403 242.479 17.0803 244.879 18.7603Z" fill="#006CB6"/>
<path d="M291.142 14.7302C291.092 14.3502 291.042 13.9602 291.042 13.6302C291.042 11.1802 292.772 10.1302 295.462 10.1302C297.622 10.1302 298.632 11.3802 298.962 13.3502L299.822 18.5302L307.312 17.3802C307.652 17.3302 307.982 17.2802 308.272 17.2802C310.532 17.3302 311.822 18.7702 311.822 21.2202C311.822 23.3802 310.522 24.4402 308.562 24.7202L301.022 25.8702L301.692 29.9002L312.402 28.3202C312.742 28.2702 313.022 28.2202 313.362 28.2202C315.522 28.2702 316.912 29.7102 316.912 32.1602C316.912 34.3202 315.762 35.3802 313.602 35.7102L302.892 37.2902L304.672 47.9902C304.772 48.5702 304.862 49.3802 304.862 49.7202C304.862 52.1202 303.322 53.2202 300.542 53.2202C298.242 53.2202 297.322 52.1202 296.942 49.9102L295.022 38.4402L282.882 40.2202C282.592 40.2702 282.302 40.3202 282.022 40.3202C279.762 40.3202 278.422 38.8302 278.422 36.3402C278.422 34.2302 279.722 33.1202 281.682 32.8402L293.822 31.0602L293.152 27.0302L285.092 28.2302C284.802 28.2802 284.512 28.3302 284.232 28.3302C281.972 28.3302 280.582 26.8902 280.582 24.3902C280.582 22.2802 281.882 21.2202 283.842 20.9302L291.952 19.6802L291.132 14.7402L291.142 14.7302Z" fill="#006CB6"/>
<path d="M347.889 50.8802C347.939 51.1702 347.939 51.4102 347.939 51.7002C347.939 53.7202 346.209 54.8702 344.339 54.8702C342.709 54.8702 341.599 54.0102 341.269 52.3302L338.199 36.9702L330.999 38.3602C330.759 38.4102 330.469 38.4102 330.179 38.4102C328.259 38.4102 327.199 36.9702 327.199 35.1002C327.199 33.5202 328.019 32.3602 329.739 32.0802L336.939 30.7802L335.739 24.4902C335.689 24.2002 335.639 23.9102 335.639 23.6302C335.639 21.6102 337.219 20.5602 339.289 20.5602C340.919 20.5602 342.029 21.4702 342.359 23.0602L343.659 29.5402L354.939 27.4802C355.369 27.3802 355.609 27.3802 355.949 27.3802C357.869 27.3802 359.599 28.7202 359.599 30.7402C359.599 32.6102 357.149 35.9702 355.659 37.9902C354.749 39.2402 353.789 40.5302 352.679 41.5902C352.059 42.2102 351.189 42.6002 350.519 42.6002C348.789 42.6002 347.059 41.2102 347.059 39.4302C347.059 38.3702 347.679 37.6502 348.689 36.5502C349.269 35.9302 349.839 35.3002 350.369 34.6302L344.849 35.6902L347.869 50.9102L347.889 50.8802Z" fill="#006CB6"/>
<path d="M404.572 23.3703C404.572 24.4703 404.092 25.3903 403.512 26.2503C400.102 31.1503 395.882 35.5603 391.322 39.3503C386.572 43.3303 381.242 46.8903 375.532 49.2903C373.422 50.1503 372.792 50.3003 372.032 50.3003C369.632 50.3003 367.852 47.9003 367.852 45.6403C367.852 43.3803 369.242 42.9503 371.552 42.0403C381.342 38.2003 390.372 30.7603 396.512 22.3103C397.662 20.7303 398.722 19.3803 400.402 19.3803C402.562 19.3803 404.582 21.1603 404.582 23.3603L404.572 23.3703ZM378.602 18.7603C380.092 19.7703 381.822 21.0203 381.822 23.0303C381.822 25.0403 380.092 27.4903 377.842 27.4903C376.882 27.4903 376.112 26.9603 374.622 25.9103C373.422 25.0903 372.222 24.2803 370.922 23.4603C368.952 22.2603 367.992 21.6403 367.992 19.9603C367.992 17.6603 369.912 15.6403 372.172 15.6403C373.852 15.6403 376.202 17.0803 378.602 18.7603Z" fill="#006CB6"/>
<path d="M426.359 23.1802C426.359 24.4802 425.689 26.2502 424.729 28.4602C423.099 32.2502 420.889 35.9502 418.349 39.2602C416.569 41.6102 414.029 44.7802 411.579 44.7802C409.319 44.7802 406.969 43.0002 406.969 40.6502C406.969 39.3102 407.739 38.5402 409.179 37.0502C413.689 32.4902 416.089 28.0702 418.249 21.9302C418.869 20.1502 420.069 19.5302 421.709 19.5302C423.869 19.5302 426.369 20.7302 426.369 23.1802H426.359ZM440.959 22.7002C442.059 24.0902 443.119 25.5302 444.129 26.9702C445.859 29.5102 450.849 37.1002 450.849 39.8802C450.849 42.2802 448.449 44.0602 446.189 44.0602C443.739 44.0602 443.019 42.2802 442.209 40.3202C440.149 35.4702 437.309 31.1002 433.999 26.9802C433.329 26.1602 432.749 25.3002 432.749 24.2002C432.749 21.9902 434.909 20.4102 436.969 20.4102C438.839 20.4102 439.849 21.3702 440.949 22.7102L440.959 22.7002ZM451.229 16.3602C451.229 19.2402 448.779 21.6902 445.849 21.6902C442.919 21.6902 440.469 19.2402 440.469 16.3602C440.469 13.4802 442.919 10.9802 445.849 10.9802C448.779 10.9802 451.229 13.4302 451.229 16.3602ZM443.399 16.3602C443.399 17.6602 444.499 18.8102 445.849 18.8102C447.199 18.8102 448.299 17.6602 448.299 16.3602C448.299 15.0602 447.199 13.8602 445.849 13.8602C444.499 13.8602 443.399 15.0102 443.399 16.3602Z" fill="#006CB6"/>
<path d="M492.211 38.6302C494.131 40.6002 495.431 41.9902 495.431 43.7202C495.431 45.9802 493.411 48.0402 491.161 48.0402C489.621 48.0402 488.661 47.0802 487.461 45.5902C485.061 42.6602 482.521 39.9702 479.591 37.6202C476.331 40.6402 472.731 43.3302 468.841 45.4902C467.111 46.4502 464.041 48.1802 462.311 48.1802C460.051 48.1802 458.281 46.1602 458.281 43.9602C458.281 41.9002 459.771 41.1802 461.451 40.4602C469.611 36.9102 476.481 31.1002 481.321 23.6102H467.251C464.801 23.6102 463.411 22.4102 463.411 19.9102C463.411 17.4102 464.801 16.2102 467.251 16.2102H486.021C488.761 16.2102 491.161 17.2202 491.161 20.3402C491.161 23.4602 486.701 29.4602 484.821 31.9102C487.461 33.9702 489.911 36.2302 492.211 38.6302Z" fill="#006CB6"/>
<path d="M511.79 47.4201C505.84 47.4201 504.16 41.1801 504.16 36.3801C504.16 23.7601 514.39 14.1501 526.87 14.1501C537.19 14.1501 544.87 20.8201 544.87 31.3801C544.87 38.9201 541.08 44.9701 534.5 48.5701C532.87 49.4301 530.66 50.4901 528.74 50.4901C526.48 50.4901 524.9 48.3801 524.9 46.2701C524.9 44.3501 525.76 43.7301 528.36 42.9101C533.83 41.1801 537.15 37.0501 537.15 31.3901C537.15 26.1601 533.93 22.0301 528.7 21.1201C527.26 28.8501 521.6 47.4301 511.8 47.4301L511.79 47.4201ZM514.77 26.7301C512.47 29.5601 511.12 33.2101 511.12 36.8601C511.12 37.5301 511.12 39.5501 512.13 39.5501C512.66 39.5501 513.71 38.4501 514.58 37.2001C515.35 36.0501 516.02 34.8001 516.31 34.2701C518.42 30.4301 519.86 26.2501 520.97 21.9801C518.47 23.1301 516.51 24.5701 514.78 26.7301H514.77Z" fill="#006CB6"/>
<path d="M567.5 37.7202V51.0602C567.5 53.7002 566.35 54.5602 563.8 54.5602C561.5 54.5602 560.58 53.2602 560.58 51.0602V41.3602C559.38 41.9402 556.5 43.5202 555.3 43.5202C553.04 43.5202 551.75 41.3602 551.75 39.3002C551.75 37.6202 552.57 36.7602 554.39 35.9902C555.97 35.3202 557.89 34.6502 560.58 33.4002V24.6602H558.52C557.99 29.1702 557.66 31.3302 555.02 31.3302C553.34 31.3302 551.8 30.2302 551.8 28.4502C551.8 27.7302 552.04 26.8702 552.18 26.1502C553.24 21.6902 553.48 19.0002 553.62 14.4402C553.72 12.5202 554.44 11.5102 556.45 11.5102C559.14 11.5102 559.19 13.3302 559.19 14.8202C559.19 15.7302 559.14 16.6402 559.09 17.5602H560.58V12.0902C560.58 9.5502 561.64 8.5902 564.18 8.5902C566.53 8.5902 567.49 9.8402 567.49 12.0902V17.6102H568.11C570.22 17.6102 571.04 19.2902 571.04 21.1602C571.04 21.5902 570.99 21.9802 570.9 22.3602C571.38 22.1202 572.2 22.0202 572.77 22.0202H579.44V19.2802H573.87C571.57 19.2802 570.7 18.1802 570.7 15.9702C570.7 13.7602 571.76 12.8502 573.87 12.8502H579.44V11.3602C579.44 8.8202 581.31 8.5802 583.38 8.5802C585.3 8.5802 586.69 9.2502 586.69 11.3602V12.8502H593.03C595.29 12.8502 596.2 13.9502 596.2 16.2102C596.2 18.3202 595.1 19.2802 593.03 19.2802H586.69V22.0202H594.13C596.53 22.0202 597.49 23.1702 597.49 25.5202C597.49 27.8702 596.34 28.8302 594.13 28.8302H592.55V31.4202H594.09C596.49 31.4202 597.35 32.5702 597.35 34.8802C597.35 37.1902 596.25 38.1402 594.09 38.1402H592.55V48.2702C592.55 53.8902 589.53 54.0802 585.21 54.0802H582.62C581.61 54.0802 580.51 54.0802 580.03 53.8902C578.45 53.3102 577.97 51.7302 577.97 50.1902C577.97 49.4202 578.02 48.9402 578.31 48.2702C577.88 48.3702 577.49 48.4602 577.06 48.4602C575.24 48.4602 574.76 47.5502 573.99 46.1102C573.61 45.3902 573.03 44.5302 572.55 43.8502C571.93 42.9402 571.35 42.0702 571.35 40.9702C571.35 39.5302 572.31 38.6202 573.56 38.1402H573.13C571.59 38.1402 570.54 37.7102 570.06 36.1702C569.2 36.7002 568.38 37.1802 567.52 37.7102L567.5 37.7202ZM573.11 31.4302H585.35V28.8402H572.77C570.42 28.8402 569.46 27.6902 569.46 25.3802C569.46 25.0002 569.46 24.6602 569.56 24.2302C569.13 24.5202 568.65 24.6102 568.12 24.6102H567.5V29.7902C567.98 29.6002 568.32 29.5002 568.84 29.5002C570.28 29.5002 571.14 30.3602 571.67 31.6102C572.15 31.4702 572.58 31.4202 573.11 31.4202V31.4302ZM581.75 46.6502H583.53C585.16 46.6502 585.35 46.1702 585.35 44.9202V38.1502H576.71C578.29 38.8702 581.22 43.2902 581.22 45.0102C581.22 45.6802 581.03 46.1602 580.64 46.6902C581.02 46.6402 581.36 46.6402 581.74 46.6402L581.75 46.6502Z" fill="#006CB6"/>
<path d="M611.031 54.4802C608.921 54.4802 607.861 53.5702 607.861 51.4102V36.6702C607.331 37.0502 606.801 37.2902 606.131 37.2902C604.071 37.2902 602.871 35.0802 602.871 33.2602C602.871 31.2902 603.931 30.1402 605.701 28.5602C608.481 25.9702 609.971 23.8102 611.991 20.6902C612.571 19.8702 613.291 19.3902 614.291 19.3902C614.871 19.3902 615.351 19.5302 615.871 19.8202V14.8302C614.771 16.3702 613.331 17.9002 611.981 19.2002C610.301 20.8302 608.671 22.4202 606.751 22.4202C604.971 22.4202 603.391 20.3602 603.391 18.2902C603.391 16.4202 604.351 15.7902 606.131 14.5902C607.381 13.7702 609.061 12.2402 610.071 11.1302C611.171 9.98015 612.181 8.97015 613.331 8.97015C614.821 8.97015 616.071 10.0702 616.591 11.4202C617.071 10.9902 617.551 10.8902 618.171 10.8902C619.951 10.8902 620.471 11.9902 620.471 13.5802V18.1902C620.471 18.7702 620.761 19.1002 621.331 19.1002H622.101V11.5102C622.101 9.59015 622.721 8.53015 624.791 8.53015C627.431 8.53015 627.431 10.5902 627.431 11.5102V19.0902H628.201C628.781 19.0902 629.111 18.7502 629.111 18.1802V13.6202C629.111 12.0802 629.641 10.7902 631.411 10.7902C633.181 10.7902 633.711 12.0902 633.711 13.6202V18.2802C635.101 15.1102 635.251 14.0602 636.111 10.7902C636.491 9.21015 637.551 8.53015 639.131 8.53015C640.911 8.53015 642.351 9.25015 642.351 11.2202C642.351 12.2802 641.771 14.4802 641.491 15.5902H646.101C648.501 15.5902 649.361 17.0802 649.361 19.2902C649.361 22.1702 648.161 22.6002 646.771 22.7002C646.531 29.3202 646.101 36.1402 643.511 42.3302C644.811 44.2002 645.811 45.3102 647.351 46.9402C648.311 47.9502 649.371 49.1002 649.371 50.5402C649.371 52.2202 647.831 54.2802 645.671 54.2802C643.131 54.2802 640.921 51.0202 639.671 49.1002C638.761 50.3002 637.271 51.9802 636.121 52.9902C635.301 53.7102 634.491 54.2902 633.341 54.2902C631.421 54.2902 629.361 52.5102 629.361 50.5002C629.361 50.4002 629.411 50.3102 629.411 50.2102C626.911 50.6902 620.871 51.7002 618.511 51.7002C615.921 51.7002 614.861 50.4002 614.861 47.9102C614.861 45.2202 616.061 44.7402 618.271 44.5502C619.181 44.4502 620.481 44.3602 621.631 44.2602V41.3302H618.801C616.691 41.3302 615.921 40.3202 615.921 38.3102C615.921 36.3002 616.881 35.4802 618.801 35.4802H621.631V33.1802H618.651C616.491 33.1802 615.631 32.1202 615.631 30.0102C615.631 28.0402 616.691 27.0802 618.651 27.0802H629.601C629.551 26.8402 629.501 26.6002 629.501 26.3602C629.501 25.9302 629.601 25.5402 629.691 25.1602C629.071 25.2102 628.441 25.2102 627.821 25.2102H621.771C620.471 25.2102 618.601 25.2102 617.551 24.5402C617.071 25.7902 615.291 28.1402 614.481 29.3402V51.4202C614.481 53.8202 613.281 54.4902 611.021 54.4902L611.031 54.4802ZM636.181 42.0902C634.691 38.0602 633.781 33.8302 633.441 29.6102H633.101C632.911 29.6102 632.761 29.6102 632.571 29.5602C632.571 29.7502 632.621 29.9402 632.621 30.1402C632.621 32.1602 631.661 33.1602 629.601 33.1602H628.061V35.4602H630.221C632.281 35.4602 633.101 36.4702 633.101 38.4802C633.101 40.4902 632.141 41.3102 630.221 41.3102H628.061V43.6602C628.921 43.5202 629.931 43.4202 630.801 43.4202C632.241 43.4202 633.101 44.0002 633.581 45.3402C634.541 44.3302 635.401 43.2302 636.171 42.0802L636.181 42.0902ZM640.791 22.7002H638.921C638.631 23.3202 638.341 23.9002 638.101 24.4802C638.201 27.6002 638.721 30.9602 639.591 33.9402C640.411 30.2402 640.791 26.5002 640.791 22.7102V22.7002Z" fill="#006CB6"/>
</g>
</g>
<defs>
<linearGradient id="paint0_linear_294_4213" x1="1.89779" y1="61.0354" x2="61.076" y2="1.82884" gradientUnits="userSpaceOnUse">
<stop stop-color="#FFE066"/>
<stop offset="1" stop-color="#FF99C3"/>
</linearGradient>
<linearGradient id="paint1_linear_294_4213" x1="740.102" y1="1.85722" x2="680.924" y2="61.0637" gradientUnits="userSpaceOnUse">
<stop stop-color="#FFE066"/>
<stop offset="1" stop-color="#FF99C3"/>
</linearGradient>
<clipPath id="clip0_294_4213">
<rect width="742" height="63" fill="white"/>
</clipPath>
<clipPath id="clip1_294_4213">
<rect width="556.39" height="46.9" fill="white" transform="translate(93 7.96021)"/>
</clipPath>
</defs>
</svg>
