<svg width="342" height="61" viewBox="0 0 342 61" fill="none" xmlns="http://www.w3.org/2000/svg">
<path d="M6.67137 50.4886C5.1451 52.0149 2.67097 52.0149 1.1447 50.4886C-0.381567 48.9623 -0.381567 46.4882 1.1447 44.9619C2.67097 43.4357 5.1451 43.4357 6.67137 44.9619C8.19764 46.4882 8.19764 48.9623 6.67137 50.4886ZM36.8553 14.778C35.329 13.2517 32.8549 13.2517 31.3286 14.778L8.88178 37.2236C7.35552 38.7498 7.35552 41.224 8.88178 42.7502C10.4081 44.2765 12.8822 44.2765 14.4085 42.7502L36.8553 20.3047C38.3816 18.7784 38.3816 16.3043 36.8553 14.778Z" fill="url(#paint0_linear_294_7164)"/>
<path d="M335.329 11.9054C336.855 10.3792 339.329 10.3792 340.855 11.9054C342.382 13.4317 342.382 15.9058 340.855 17.4321C339.329 18.9584 336.855 18.9584 335.329 17.4321C333.802 15.9058 333.802 13.4317 335.329 11.9054ZM305.145 47.616C306.671 49.1423 309.145 49.1423 310.671 47.616L333.118 25.1705C334.644 23.6442 334.644 21.1701 333.118 19.6438C331.592 18.1175 329.118 18.1175 327.592 19.6438L305.145 42.0894C303.618 43.6156 303.618 46.0898 305.145 47.616Z" fill="url(#paint1_linear_294_7164)"/>
<path d="M109.689 12.2151C108.608 12.2151 108 11.2837 108 10.2031C108 8.78224 108.814 8.47179 110.218 8.22105C112.49 7.82105 113.34 6.42403 114.094 4.29269C114.385 3.45687 115.23 3.17627 115.989 3.17627C116.894 3.17627 118 3.70164 118 4.81806V27.3136C118 29.1703 117.095 29.7554 115.461 29.7554C113.826 29.7554 113.067 29.0449 113.067 27.3136V12.2151H109.689Z" fill="#006CB6"/>
<path d="M126.65 12.2151C125.568 12.2151 124.961 11.2837 124.961 10.2031C124.961 8.78224 125.775 8.47179 127.178 8.22105C129.451 7.82105 130.301 6.42403 131.055 4.29269C131.346 3.45687 132.191 3.17627 132.95 3.17627C133.855 3.17627 134.961 3.70164 134.961 4.81806V27.3136C134.961 29.1703 134.056 29.7554 132.422 29.7554C130.787 29.7554 130.028 29.0449 130.028 27.3136V12.2151H126.644H126.65Z" fill="#006CB6"/>
<path d="M153.443 6.78805C153.151 6.21491 152.391 4.57909 152.391 4.00596C152.391 2.77611 153.91 2.31641 154.931 2.31641C156.213 2.31641 156.565 3.03282 157.057 4.00596C157.349 4.63879 157.786 5.58208 157.786 6.26864C157.786 6.44178 157.756 6.61491 157.701 6.78208H160.441C160.879 6.00596 161.256 5.20596 161.608 4.37611C162.076 3.28954 162.422 2.48357 163.765 2.48357C164.901 2.48357 166.304 3.0567 166.304 4.34626C166.304 5.14626 165.606 6.09551 165.198 6.78208L165.575 6.81193C166.274 6.84178 167.064 7.21193 167.501 7.73133C168.115 8.4179 168.23 9.39103 168.23 10.2507V12.3164C168.23 13.7791 167.501 14.3224 166.043 14.3224C165.575 14.3224 164.876 14.2388 164.469 13.9522C164.439 15.1283 163.971 15.7552 163.072 16.388C161.699 17.3313 160.156 18.1075 158.637 18.7403H166.918C168.291 18.7403 169.044 19.3433 169.044 20.7463C169.044 22.1492 168.2 22.6686 166.918 22.6686H157.525V26.0239C157.525 29.5463 155.63 29.6657 152.89 29.6657H151.024C150.119 29.6657 149.099 29.6358 148.661 29.4388C147.902 29.1224 147.61 28.1791 147.61 27.4328C147.61 26.1731 148.339 25.4567 149.621 25.4567C150.265 25.4567 150.933 25.5164 151.577 25.5164C152.598 25.5164 152.859 25.3433 152.859 24.3104V22.6746H143.29C141.893 22.6746 141.164 22.0716 141.164 20.6388C141.164 19.2895 142.009 18.7463 143.29 18.7463H152.859V18.4C152.859 17.6836 153.327 17.4567 153.995 17.2537C154.494 17.1104 156.268 16.3642 156.268 16.0239C156.268 15.8209 156.037 15.8209 155.915 15.8209H147.373C146.146 15.8209 145.623 15.2776 145.538 14.0716C145.162 14.2746 144.457 14.3283 144.05 14.3283C142.677 14.3283 141.978 13.6716 141.978 12.3224V10.2567C141.978 7.88059 142.914 6.8179 145.362 6.78805C144.84 5.92835 144.226 4.89551 144.226 4.32238C144.226 3.11641 145.715 2.51939 146.735 2.51939C148.017 2.51939 148.485 3.40894 149.038 4.41193C149.36 5.01491 149.797 5.92835 149.797 6.62088V6.79402H153.443V6.78805ZM147.404 12.0597H162.161C162.744 12.0597 163.388 12.0895 163.85 12.4597V11.0866C163.85 10.7164 163.643 10.5134 163.236 10.5134H146.936C146.559 10.5134 146.352 10.7164 146.352 11.0866V12.3463C146.644 12.1731 147.051 12.0597 147.404 12.0597Z" fill="#006CB6"/>
<path d="M185.527 19.4805L193.37 18.0476V4.49538C193.37 2.91926 194.129 2.37598 195.673 2.37598C197.131 2.37598 197.775 3.12225 197.775 4.49538V17.2476L198.066 17.1879C198.242 17.1581 198.419 17.1282 198.564 17.1282C199.846 17.1581 200.375 18.1909 200.375 19.4805C200.375 20.6566 199.907 21.17 198.71 21.4267L197.775 21.6297V27.6178C197.775 29.1939 197.015 29.767 195.472 29.767C194.014 29.767 193.37 29.0208 193.37 27.6178V22.4297L186.256 23.7491C186.049 23.779 185.934 23.779 185.757 23.779C184.476 23.779 183.923 22.5193 183.923 21.4267C183.923 21.1402 183.953 20.9133 184.008 20.6506C183.746 20.8536 183.455 20.967 183.102 20.967C182.112 20.967 181.584 20.0775 181.177 19.3073V27.5879C181.177 28.9372 180.533 29.7073 179.105 29.7073C177.677 29.7073 177.033 28.9312 177.033 27.5879V22.3163C176.45 23.5461 175.605 25.0984 174.469 25.0984C173.242 25.0984 172.312 23.8387 172.312 22.7222C172.312 22.1193 172.604 21.4924 173.011 20.9431C173.303 20.5431 173.625 20.1431 173.886 19.7969C175.259 17.964 176.158 15.8685 176.887 13.7491H174.785C173.443 13.7491 172.568 13.176 172.568 11.7431C172.568 10.3103 173.443 9.76702 174.785 9.76702H177.033V7.53419C176.365 7.61777 175.721 7.70732 175.077 7.70732C174.494 7.70732 173.734 7.67747 173.297 7.21777C172.89 6.78792 172.744 6.27448 172.744 5.6715C172.744 4.23866 173.558 3.86851 174.609 3.80881C175.046 3.77896 175.599 3.72523 176.097 3.69538C177.671 3.58195 179.22 3.37896 180.763 3.03866C181.784 2.8118 182.367 2.7521 182.659 2.7521C183.856 2.7521 184.469 3.6715 184.469 4.75807C184.469 6.36404 183.364 6.5909 181.177 6.96702V9.77299H182.112C183.424 9.77299 184.239 10.4596 184.239 11.7491C184.239 13.0387 183.424 13.7551 182.112 13.7551H181.177V13.8387C182.258 15.5879 182.841 16.2148 184.239 17.7073C184.615 18.1073 184.822 18.5372 184.822 19.0805C184.822 19.3372 184.761 19.57 184.706 19.7372C184.968 19.5939 185.229 19.5342 185.52 19.4805H185.527ZM189.524 12.376C190.606 13.2357 191.505 13.9819 191.505 14.8715C191.505 15.9581 190.253 17.1939 189.141 17.1939C188.558 17.1939 188.121 16.8775 187.422 16.2506C187.015 15.8805 186.517 15.4208 185.903 14.8476C185.381 14.3581 184.883 13.9043 184.883 13.1581C184.883 12.0954 185.988 11.0387 187.039 11.0387C187.799 11.0387 188.674 11.7252 189.518 12.3879L189.524 12.376ZM190.66 5.09239C191.596 5.80881 192.702 6.72821 192.702 7.58792C192.702 8.6506 191.62 9.8506 190.515 9.8506C189.901 9.8506 189.202 9.4506 188.589 8.9312C188.066 8.50135 187.568 8.04165 187.216 7.72523C186.426 7.03866 185.988 6.63866 185.988 6.00583C185.988 5.03269 186.863 3.77299 188.206 3.77299C188.996 3.77299 190.041 4.60284 190.654 5.09239H190.66Z" fill="#006CB6"/>
<path d="M209.1 25.558C205.486 25.558 204.465 21.8326 204.465 18.967C204.465 11.4326 210.68 5.69531 218.262 5.69531C224.532 5.69531 229.198 9.6774 229.198 15.9819C229.198 20.4834 226.895 24.0953 222.898 26.2446C221.907 26.758 220.565 27.3908 219.398 27.3908C218.025 27.3908 217.065 26.1311 217.065 24.8714C217.065 23.7252 217.588 23.355 219.167 22.8655C222.491 21.8326 224.508 19.367 224.508 15.9878C224.508 12.8655 222.551 10.3998 219.374 9.85651C218.499 14.4714 215.06 25.564 209.106 25.564L209.1 25.558ZM210.911 13.2058C209.514 14.8953 208.693 17.0744 208.693 19.2535C208.693 19.6535 208.693 20.8595 209.307 20.8595C209.629 20.8595 210.267 20.2028 210.795 19.4565C211.263 18.7699 211.67 18.0237 211.846 17.7073C213.128 15.4147 214.003 12.9192 214.678 10.3699C213.159 11.0565 211.968 11.9162 210.917 13.2058H210.911Z" fill="#006CB6"/>
<path d="M51.8628 54.6359C50.7267 55.4956 49.4144 56.4688 48.418 56.4688C47.1361 56.4688 46 55.2926 46 54.0329C46 53.1434 46.4982 52.6598 47.6343 51.8837C50.6113 49.9076 53.2601 47.6449 55.6235 45.0061L49.5298 45.0896C48.655 45.0896 47.2272 45.0299 47.2272 42.827C47.2272 41.4538 48.017 40.7374 49.4144 40.7076L57.9018 40.5643L57.841 36.8091C57.841 35.9792 57.9565 34.6001 60.2044 34.6001C61.6321 34.6001 62.4523 35.2867 62.4827 36.7494L62.5434 40.4747L67.5313 40.3911C68.2604 40.3911 69.8339 40.5046 69.8339 42.624C69.8339 43.9971 69.0441 44.7434 67.6468 44.7732L62.6042 44.8568L62.75 54.1165C62.75 54.9762 62.7196 56.5523 61.9905 57.5553C61.3465 58.415 59.9796 58.7613 58.4607 58.7613C56.5956 58.7613 55.0463 58.5583 55.0463 56.3255C55.0463 55.3225 55.6296 54.3195 56.7657 54.3195C56.9419 54.3195 57.2031 54.3792 57.3489 54.3792H57.4947C58.0172 54.3792 58.1083 54.2359 58.1083 53.4896L58.0476 48.7911C56.1824 50.9404 54.1411 52.9165 51.8628 54.6359Z" fill="#006CB6"/>
<path d="M96.7768 44.5161C98.2045 44.5161 99.1402 45.4594 99.1402 46.8385C99.1402 48.2176 98.2045 49.1907 96.7768 49.1907H76.418C74.9903 49.1907 74.0547 48.2475 74.0547 46.8385C74.0547 45.4295 74.9599 44.5161 76.418 44.5161H96.7768Z" fill="#006CB6"/>
<path d="M105.339 42.3969C103.941 42.3969 103.121 41.5074 103.121 40.1343C103.121 38.7611 103.911 37.8716 105.339 37.8716H118.869C121.493 37.8716 123.042 38.7014 123.042 41.5372C123.042 43.2865 122.459 44.976 121.645 46.582C120.072 49.6746 117.824 52.4029 115.084 54.576C113.419 55.8954 108.99 58.6716 106.888 58.6716C105.515 58.6716 104.47 57.4119 104.47 56.1223C104.47 54.6596 105.898 54.3193 107.034 53.8596C110.242 52.5999 113.127 50.4805 115.314 47.8417C116.104 46.8686 118.055 44.1462 118.055 42.9104C118.055 42.4805 117.763 42.3969 117.386 42.3969H105.339ZM127.441 35.8357C127.441 37.4954 126.013 38.8746 124.318 38.8746C122.623 38.8746 121.226 37.5014 121.226 35.8357C121.226 34.1701 122.623 32.7671 124.318 32.7671C126.153 32.7671 127.441 34.1701 127.441 35.8357ZM122.921 35.8357C122.921 36.582 123.565 37.2089 124.318 37.2089C125.072 37.2089 125.746 36.576 125.746 35.8357C125.746 35.0954 125.102 34.4328 124.318 34.4328C123.535 34.4328 122.921 35.0656 122.921 35.8357Z" fill="#006CB6"/>
<path d="M154.051 41.967C154.051 42.6237 153.76 43.1729 153.407 43.6864C151.335 46.6118 148.772 49.2446 146.001 51.5073C143.115 53.8834 139.877 56.0088 136.408 57.4416C135.126 57.955 134.743 58.0446 134.282 58.0446C132.824 58.0446 131.742 56.6118 131.742 55.2625C131.742 53.9132 132.587 53.6565 133.99 53.1132C139.938 50.8207 145.424 46.3789 149.154 41.3341C149.853 40.3909 150.497 39.5849 151.518 39.5849C152.83 39.5849 154.057 40.6476 154.057 41.961L154.051 41.967ZM138.273 39.2147C139.179 39.8177 140.23 40.564 140.23 41.764C140.23 42.964 139.179 44.4267 137.812 44.4267C137.228 44.4267 136.761 44.1103 135.855 43.4834C135.126 42.9938 134.397 42.5103 133.607 42.0207C132.41 41.3043 131.827 40.9341 131.827 39.9312C131.827 38.558 132.994 37.3521 134.367 37.3521C135.387 37.3521 136.815 38.2118 138.273 39.2147Z" fill="#006CB6"/>
<path d="M166.38 36.8088C166.35 36.5819 166.32 36.3491 166.32 36.1521C166.32 34.6894 167.371 34.0625 169.005 34.0625C170.317 34.0625 170.931 34.8088 171.131 35.9849L171.654 39.0774L176.204 38.3909C176.411 38.361 176.611 38.3312 176.788 38.3312C178.161 38.361 178.944 39.2207 178.944 40.6834C178.944 41.9729 178.154 42.6058 176.964 42.7729L172.383 43.4595L172.79 45.8655L179.297 44.9222C179.503 44.8924 179.673 44.8625 179.88 44.8625C181.192 44.8924 182.037 45.7521 182.037 47.2147C182.037 48.5043 181.338 49.1371 180.026 49.3341L173.519 50.2774L174.6 56.6655C174.661 57.0118 174.716 57.4953 174.716 57.6983C174.716 59.1312 173.78 59.7879 172.091 59.7879C170.694 59.7879 170.135 59.1312 169.904 57.8118L168.738 50.964L161.362 52.0267C161.186 52.0565 161.01 52.0864 160.84 52.0864C159.466 52.0864 158.652 51.1968 158.652 49.7103C158.652 48.4506 159.442 47.7879 160.633 47.6207L168.009 46.558L167.601 44.1521L162.705 44.8685C162.528 44.8983 162.352 44.9282 162.182 44.9282C160.809 44.9282 159.965 44.0685 159.965 42.5759C159.965 41.3162 160.754 40.6834 161.945 40.5103L166.872 39.764L166.374 36.8147L166.38 36.8088Z" fill="#006CB6"/>
<path d="M200.855 58.391C200.886 58.5642 200.886 58.7075 200.886 58.8806C200.886 60.0866 199.835 60.7731 198.698 60.7731C197.708 60.7731 197.034 60.2597 196.833 59.2567L194.968 50.0866L190.594 50.9164C190.448 50.9463 190.272 50.9463 190.096 50.9463C188.929 50.9463 188.285 50.0866 188.285 48.9701C188.285 48.0269 188.783 47.3343 189.828 47.1672L194.203 46.391L193.474 42.6358C193.443 42.4627 193.413 42.2896 193.413 42.1224C193.413 40.9164 194.373 40.2896 195.63 40.2896C196.621 40.2896 197.295 40.8328 197.496 41.7821L198.285 45.6507L205.138 44.4209C205.4 44.3612 205.545 44.3612 205.752 44.3612C206.919 44.3612 207.97 45.1612 207.97 46.3672C207.97 47.4836 206.481 49.4896 205.576 50.6955C205.023 51.4418 204.44 52.2119 203.765 52.8448C203.389 53.2149 202.86 53.4478 202.453 53.4478C201.402 53.4478 200.351 52.6179 200.351 51.5552C200.351 50.9224 200.728 50.4925 201.341 49.8358C201.694 49.4657 202.04 49.0896 202.362 48.6896L199.008 49.3224L200.843 58.409L200.855 58.391Z" fill="#006CB6"/>
<path d="M235.293 41.967C235.293 42.6237 235.002 43.1729 234.649 43.6864C232.578 46.6118 230.014 49.2446 227.243 51.5073C224.358 53.8834 221.119 56.0088 217.65 57.4416C216.368 57.955 215.986 58.0446 215.524 58.0446C214.066 58.0446 212.984 56.6118 212.984 55.2625C212.984 53.9132 213.829 53.6565 215.232 53.1132C221.18 50.8207 226.666 46.3789 230.397 41.3341C231.095 40.3909 231.739 39.5849 232.76 39.5849C234.072 39.5849 235.299 40.6476 235.299 41.961L235.293 41.967ZM219.515 39.2147C220.421 39.8177 221.472 40.564 221.472 41.764C221.472 42.964 220.421 44.4267 219.054 44.4267C218.471 44.4267 218.003 44.1103 217.097 43.4834C216.368 42.9938 215.639 42.5103 214.85 42.0207C213.653 41.3043 213.069 40.9341 213.069 39.9312C213.069 38.558 214.236 37.3521 215.609 37.3521C216.63 37.3521 218.057 38.2118 219.515 39.2147Z" fill="#006CB6"/>
<path d="M248.53 41.8539C248.53 42.63 248.123 43.6867 247.54 45.0061C246.55 47.2688 245.207 49.4778 243.664 51.4539C242.582 52.8569 241.039 54.7494 239.551 54.7494C238.178 54.7494 236.75 53.6867 236.75 52.2837C236.75 51.4837 237.218 51.024 238.093 50.1345C240.833 47.4121 242.291 44.7733 243.603 41.1076C243.98 40.0449 244.709 39.6748 245.705 39.6748C247.017 39.6748 248.536 40.3912 248.536 41.8539H248.53ZM257.4 41.5673C258.069 42.3972 258.713 43.2569 259.326 44.1166C260.377 45.633 263.409 50.1643 263.409 51.824C263.409 53.2569 261.951 54.3196 260.578 54.3196C259.089 54.3196 258.652 53.2569 258.16 52.0867C256.908 49.1912 255.183 46.5823 253.172 44.1226C252.765 43.633 252.412 43.1196 252.412 42.4628C252.412 41.1434 253.725 40.2002 254.976 40.2002C256.112 40.2002 256.726 40.7733 257.394 41.5733L257.4 41.5673ZM263.64 37.7823C263.64 39.5017 262.151 40.9643 260.371 40.9643C258.591 40.9643 257.103 39.5017 257.103 37.7823C257.103 36.0628 258.591 34.5703 260.371 34.5703C262.151 34.5703 263.64 36.033 263.64 37.7823ZM258.889 37.7823C258.889 38.5584 259.557 39.2449 260.377 39.2449C261.198 39.2449 261.866 38.5584 261.866 37.7823C261.866 37.0061 261.198 36.2897 260.377 36.2897C259.557 36.2897 258.889 36.9763 258.889 37.7823Z" fill="#006CB6"/>
<path d="M288.544 51.0775C289.71 52.2536 290.5 53.0834 290.5 54.1163C290.5 55.4655 289.273 56.6954 287.906 56.6954C286.97 56.6954 286.387 56.1222 285.658 55.2327C284.2 53.4834 282.657 51.8775 280.876 50.4745C278.896 52.2775 276.709 53.8834 274.345 55.173C273.294 55.7461 271.429 56.779 270.378 56.779C269.005 56.779 267.93 55.573 267.93 54.2595C267.93 53.0297 268.835 52.5998 269.856 52.17C274.813 50.0506 278.987 46.5819 281.927 42.1103H273.379C271.891 42.1103 271.046 41.3939 271.046 39.9013C271.046 38.4088 271.891 37.6924 273.379 37.6924H284.783C286.448 37.6924 287.906 38.2954 287.906 40.1581C287.906 42.0207 285.196 45.6028 284.054 47.0655C285.658 48.2954 287.146 49.6446 288.544 51.0775Z" fill="#006CB6"/>
<defs>
<linearGradient id="paint0_linear_294_7164" x1="1.1447" y1="50.4886" x2="36.8553" y2="14.7767" gradientUnits="userSpaceOnUse">
<stop stop-color="#FFE066"/>
<stop offset="1" stop-color="#FF99C3"/>
</linearGradient>
<linearGradient id="paint1_linear_294_7164" x1="340.855" y1="11.9054" x2="305.145" y2="47.6173" gradientUnits="userSpaceOnUse">
<stop stop-color="#FFE066"/>
<stop offset="1" stop-color="#FF99C3"/>
</linearGradient>
</defs>
</svg>
