<svg width="368" height="59" viewBox="0 0 368 59" fill="none" xmlns="http://www.w3.org/2000/svg">
<g clip-path="url(#clip0_294_7083)">
<path d="M6.67137 47.9489C5.1451 49.4752 2.67097 49.4752 1.1447 47.9489C-0.381567 46.4227 -0.381567 43.9485 1.1447 42.4223C2.67097 40.896 5.1451 40.896 6.67137 42.4223C8.19764 43.9485 8.19764 46.4227 6.67137 47.9489ZM36.8553 12.2383C35.329 10.7121 32.8549 10.7121 31.3286 12.2383L8.88178 34.6839C7.35552 36.2102 7.35552 38.6843 8.88178 40.2106C10.4081 41.7368 12.8822 41.7368 14.4085 40.2106L36.8553 17.765C38.3816 16.2387 38.3816 13.7646 36.8553 12.2383Z" fill="url(#paint0_linear_294_7083)"/>
<path d="M361.329 12.5615C362.855 11.0352 365.329 11.0352 366.855 12.5615C368.382 14.0877 368.382 16.5619 366.855 18.0881C365.329 19.6144 362.855 19.6144 361.329 18.0881C359.802 16.5619 359.802 14.0877 361.329 12.5615ZM331.145 48.272C332.671 49.7983 335.145 49.7983 336.671 48.272L359.118 25.8265C360.644 24.3002 360.644 21.8261 359.118 20.2998C357.592 18.7735 355.118 18.7735 353.592 20.2998L331.145 42.7454C329.618 44.2716 329.618 46.7458 331.145 48.272Z" fill="url(#paint1_linear_294_7083)"/>
<path d="M165.568 48.8449V56.8769C165.568 58.4664 164.869 58.9842 163.32 58.9842C161.923 58.9842 161.364 58.2015 161.364 56.8769V51.0366C160.635 51.3858 158.886 52.3371 158.157 52.3371C156.784 52.3371 156 51.0366 156 49.7963C156 48.7847 156.498 48.2669 157.604 47.8033C158.564 47.3999 159.73 46.9965 161.364 46.2439V40.9816H160.113C159.791 43.697 159.59 44.9976 157.986 44.9976C156.966 44.9976 156.03 44.3353 156.03 43.2635C156.03 42.83 156.176 42.3122 156.261 41.8787C156.905 39.1934 157.051 37.5737 157.136 34.8282C157.197 33.6722 157.634 33.0641 158.855 33.0641C160.489 33.0641 160.52 34.1599 160.52 35.057C160.52 35.6049 160.489 36.1528 160.459 36.7067H161.364V33.4133C161.364 31.884 162.008 31.3059 163.551 31.3059C164.979 31.3059 165.562 32.0586 165.562 33.4133V36.7368H165.938C167.22 36.7368 167.718 37.7484 167.718 38.8743C167.718 39.1332 167.688 39.368 167.633 39.5968C167.925 39.4523 168.423 39.3921 168.769 39.3921H172.821V37.7423H169.438C168.04 37.7423 167.512 37.08 167.512 35.7494C167.512 34.4188 168.156 33.8709 169.438 33.8709H172.821V32.9737C172.821 31.4444 173.957 31.2999 175.215 31.2999C176.381 31.2999 177.226 31.7033 177.226 32.9737V33.8709H181.077C182.45 33.8709 183.003 34.5332 183.003 35.8939C183.003 37.1643 182.335 37.7423 181.077 37.7423H177.226V39.3921H181.745C183.203 39.3921 183.786 40.0845 183.786 41.4994C183.786 42.9143 183.088 43.4923 181.745 43.4923H180.785V45.0518H181.721C183.179 45.0518 183.701 45.7442 183.701 47.135C183.701 48.5258 183.033 49.0978 181.721 49.0978H180.785V55.197C180.785 58.5808 178.951 58.6952 176.327 58.6952H174.753C174.14 58.6952 173.471 58.6952 173.18 58.5808C172.22 58.2316 171.928 57.2803 171.928 56.3531C171.928 55.8894 171.959 55.6004 172.135 55.197C171.874 55.2572 171.637 55.3114 171.376 55.3114C170.27 55.3114 169.978 54.7635 169.511 53.8965C169.28 53.463 168.927 52.9452 168.636 52.5358C168.259 51.9879 167.907 51.4641 167.907 50.8017C167.907 49.9347 168.49 49.3868 169.249 49.0978H168.988C168.053 49.0978 167.415 48.8389 167.123 47.9117C166.601 48.2308 166.103 48.5198 165.58 48.8389L165.568 48.8449ZM168.976 45.0578H176.412V43.4983H168.769C167.342 43.4983 166.759 42.8059 166.759 41.4151C166.759 41.1863 166.759 40.9816 166.819 40.7227C166.558 40.8973 166.267 40.9515 165.945 40.9515H165.568V44.0703C165.86 43.9559 166.066 43.8957 166.382 43.8957C167.257 43.8957 167.779 44.4135 168.101 45.1661C168.393 45.0819 168.654 45.0518 168.976 45.0518V45.0578ZM174.225 54.2216H175.306C176.296 54.2216 176.412 53.9326 176.412 53.18V49.1038H171.163C172.123 49.5374 173.903 52.1986 173.903 53.2342C173.903 53.6376 173.787 53.9266 173.55 54.2457C173.781 54.2156 173.988 54.2156 174.219 54.2156L174.225 54.2216Z" fill="#006CB6"/>
<path d="M192.012 58.9361C190.73 58.9361 190.086 58.3882 190.086 57.0877V48.2128C189.764 48.4416 189.442 48.5861 189.035 48.5861C187.784 48.5861 187.055 47.2555 187.055 46.1597C187.055 44.9736 187.699 44.2811 188.774 43.3298C190.463 41.7704 191.368 40.4699 192.595 38.5914C192.947 38.0976 193.385 37.8086 193.992 37.8086C194.345 37.8086 194.636 37.8929 194.952 38.0675V35.0631C194.284 35.9903 193.409 36.9115 192.589 37.6942C191.568 38.6757 190.578 39.633 189.412 39.633C188.33 39.633 187.371 38.3927 187.371 37.1463C187.371 36.0204 187.954 35.6411 189.035 34.9186C189.794 34.4249 190.815 33.5037 191.429 32.8353C192.097 32.1429 192.71 31.5348 193.409 31.5348C194.314 31.5348 195.074 32.1971 195.389 33.0099C195.681 32.751 195.973 32.6908 196.349 32.6908C197.431 32.6908 197.746 33.3531 197.746 34.3105V37.0861C197.746 37.4353 197.923 37.634 198.269 37.634H198.737V33.0641C198.737 31.9081 199.113 31.2699 200.371 31.2699C201.975 31.2699 201.975 32.5102 201.975 33.0641V37.628H202.442C202.795 37.628 202.995 37.4233 202.995 37.0801V34.3346C202.995 33.4073 203.317 32.6306 204.392 32.6306C205.468 32.6306 205.79 33.4134 205.79 34.3346V37.1403C206.634 35.2317 206.725 34.5995 207.248 32.6306C207.478 31.6793 208.122 31.2699 209.082 31.2699C210.164 31.2699 211.038 31.7034 211.038 32.8895C211.038 33.5277 210.686 34.8524 210.516 35.5207H213.316C214.774 35.5207 215.297 36.4178 215.297 37.7484C215.297 39.4825 214.568 39.7414 213.723 39.8016C213.578 43.7874 213.316 47.8937 211.743 51.6207C212.533 52.7466 213.14 53.4149 214.076 54.3963C214.659 55.0044 215.303 55.6968 215.303 56.5639C215.303 57.5754 214.367 58.8157 213.055 58.8157C211.512 58.8157 210.17 56.8529 209.41 55.6968C208.857 56.4194 207.952 57.4309 207.254 58.039C206.756 58.4725 206.263 58.8217 205.565 58.8217C204.398 58.8217 203.147 57.75 203.147 56.5398C203.147 56.4796 203.177 56.4254 203.177 56.3652C201.659 56.6542 197.989 57.2623 196.556 57.2623C194.982 57.2623 194.338 56.4796 194.338 54.9804C194.338 53.3607 195.067 53.0717 196.41 52.9573C196.963 52.8971 197.753 52.8429 198.451 52.7827V51.0186H196.732C195.45 51.0186 194.982 50.4105 194.982 49.2003C194.982 47.99 195.566 47.4963 196.732 47.4963H198.451V46.1115H196.641C195.329 46.1115 194.806 45.4733 194.806 44.2029C194.806 43.0167 195.45 42.4387 196.641 42.4387H203.293C203.262 42.2942 203.232 42.1497 203.232 42.0052C203.232 41.7463 203.293 41.5115 203.348 41.2827C202.971 41.3128 202.588 41.3128 202.212 41.3128H198.536C197.746 41.3128 196.61 41.3128 195.973 40.9094C195.681 41.662 194.6 43.077 194.108 43.7995V57.0937C194.108 58.5387 193.379 58.9421 192.006 58.9421L192.012 58.9361ZM207.29 51.4762C206.385 49.0497 205.832 46.5029 205.626 43.962H205.419C205.304 43.962 205.212 43.962 205.097 43.9319C205.097 44.0463 205.127 44.1607 205.127 44.2811C205.127 45.4974 204.544 46.0995 203.293 46.0995H202.357V47.4843H203.669C204.921 47.4843 205.419 48.0924 205.419 49.3026C205.419 50.5128 204.836 51.0065 203.669 51.0065H202.357V52.4215C202.88 52.3372 203.493 52.277 204.022 52.277C204.897 52.277 205.419 52.6262 205.711 53.433C206.294 52.8249 206.816 52.1626 207.284 51.4701L207.29 51.4762ZM210.091 39.8016H208.955C208.778 40.1749 208.602 40.5241 208.456 40.8733C208.517 42.7518 208.833 44.7749 209.362 46.5691C209.86 44.3414 210.091 42.0895 210.091 39.8076V39.8016Z" fill="#006CB6"/>
<path d="M53.8623 22.0547C52.7263 22.9217 51.4141 23.9031 50.4178 23.9031C49.136 23.9031 48 22.717 48 21.4465C48 20.5494 48.4981 20.0617 49.6341 19.279C52.6108 17.2861 55.2595 15.0041 57.6226 12.3429L51.5295 12.4272C50.6547 12.4272 49.2271 12.367 49.2271 10.1452C49.2271 8.76043 50.0169 8.03791 51.4141 8.00781L59.9007 7.86331L59.8399 4.07614C59.8399 3.23923 59.9554 1.84839 62.2031 1.84839C63.6307 1.84839 64.4508 2.5408 64.4811 4.01593L64.5419 7.77299L69.5294 7.6887C70.2583 7.6887 71.8317 7.8031 71.8317 9.94053C71.8317 11.3253 71.042 12.078 69.6448 12.1081L64.6026 12.1924L64.7484 21.5308C64.7484 22.3979 64.7181 23.9874 63.9891 24.9989C63.3451 25.8659 61.9783 26.2151 60.4596 26.2151C58.5946 26.2151 57.0455 26.0104 57.0455 23.7586C57.0455 22.7471 57.6287 21.7356 58.7647 21.7356C58.9409 21.7356 59.2021 21.7958 59.3479 21.7958H59.4937C60.0161 21.7958 60.1072 21.6513 60.1072 20.8986L60.0465 16.1602C58.1815 18.3277 56.1403 20.3206 53.8623 22.0547Z" fill="#006CB6"/>
<path d="M98.7747 11.8492C100.202 11.8492 101.138 12.8006 101.138 14.1914C101.138 15.5822 100.202 16.5636 98.7747 16.5636H78.4178C76.9902 16.5636 76.0547 15.6123 76.0547 14.1914C76.0547 12.7704 76.9598 11.8492 78.4178 11.8492H98.7747Z" fill="#006CB6"/>
<path d="M107.335 9.71177C105.937 9.71177 105.117 8.81466 105.117 7.42984C105.117 6.04502 105.907 5.1479 107.335 5.1479H120.863C123.488 5.1479 125.037 5.98481 125.037 8.84476C125.037 10.6089 124.454 12.3128 123.639 13.9325C122.066 17.0513 119.818 19.8029 117.079 21.9945C115.414 23.3251 110.986 26.1249 108.884 26.1249C107.511 26.1249 106.466 24.8544 106.466 23.5539C106.466 22.0788 107.893 21.7356 109.029 21.272C112.237 20.0016 115.123 17.8641 117.309 15.2029C118.099 14.2215 120.049 11.4759 120.049 10.2296C120.049 9.79607 119.758 9.71177 119.381 9.71177H107.335ZM129.435 3.09476C129.435 4.76858 128.007 6.15942 126.312 6.15942C124.618 6.15942 123.22 4.7746 123.22 3.09476C123.22 1.41492 124.618 0 126.312 0C128.147 0 129.435 1.41492 129.435 3.09476ZM124.915 3.09476C124.915 3.84738 125.559 4.47958 126.312 4.47958C127.066 4.47958 127.74 3.84136 127.74 3.09476C127.74 2.34817 127.096 1.67984 126.312 1.67984C125.529 1.67984 124.915 2.31806 124.915 3.09476Z" fill="#006CB6"/>
<path d="M156.041 9.27821C156.041 9.94051 155.75 10.4944 155.397 11.0122C153.326 13.9625 150.762 16.6177 147.992 18.8997C145.107 21.296 141.869 23.4395 138.4 24.8845C137.118 25.4023 136.735 25.4926 136.274 25.4926C134.816 25.4926 133.734 24.0476 133.734 22.6868C133.734 21.3261 134.579 21.0672 135.982 20.5193C141.929 18.2073 147.415 13.7277 151.145 8.63999C151.844 7.68868 152.488 6.87585 153.508 6.87585C154.82 6.87585 156.047 7.94758 156.047 9.27219L156.041 9.27821ZM140.265 6.50256C141.17 7.11067 142.221 7.86329 142.221 9.0735C142.221 10.2837 141.17 11.7588 139.803 11.7588C139.22 11.7588 138.752 11.4397 137.847 10.8075C137.118 10.3138 136.389 9.82612 135.599 9.3324C134.403 8.60989 133.819 8.23659 133.819 7.22507C133.819 5.84025 134.986 4.62402 136.359 4.62402C137.379 4.62402 138.807 5.49104 140.265 6.50256Z" fill="#006CB6"/>
<path d="M168.368 4.07603C168.337 3.84723 168.307 3.61242 168.307 3.41373C168.307 1.9386 169.358 1.3064 170.992 1.3064C172.304 1.3064 172.918 2.05901 173.118 3.24514L173.641 6.36399L178.191 5.67158C178.397 5.64147 178.598 5.61137 178.774 5.61137C180.147 5.64147 180.931 6.50849 180.931 7.98362C180.931 9.28414 180.141 9.92236 178.95 10.0909L174.37 10.7834L174.777 13.2098L181.283 12.2585C181.49 12.2284 181.66 12.1983 181.866 12.1983C183.178 12.2284 184.023 13.0954 184.023 14.5705C184.023 15.871 183.324 16.5093 182.012 16.708L175.506 17.6593L176.587 24.1017C176.648 24.4509 176.703 24.9386 176.703 25.1433C176.703 26.5883 175.767 27.2506 174.078 27.2506C172.681 27.2506 172.122 26.5883 171.891 25.2577L170.725 18.3517L163.35 19.4234C163.174 19.4535 162.998 19.4836 162.828 19.4836C161.455 19.4836 160.641 18.5865 160.641 17.0873C160.641 15.8169 161.43 15.1485 162.621 14.9799L169.996 13.9082L169.589 11.4818L164.693 12.2043C164.516 12.2344 164.34 12.2645 164.17 12.2645C162.797 12.2645 161.953 11.3975 161.953 9.89226C161.953 8.62184 162.743 7.98362 163.933 7.80901L168.86 7.05639L168.362 4.08205L168.368 4.07603Z" fill="#006CB6"/>
<path d="M202.842 25.8419C202.873 26.0165 202.873 26.161 202.873 26.3356C202.873 27.5519 201.822 28.2443 200.686 28.2443C199.696 28.2443 199.021 27.7265 198.821 26.7149L196.956 17.4668L192.582 18.3037C192.436 18.3338 192.26 18.3338 192.084 18.3338C190.917 18.3338 190.273 17.4668 190.273 16.3409C190.273 15.3896 190.772 14.6911 191.816 14.5225L196.19 13.7398L195.461 9.95266C195.431 9.77805 195.401 9.60344 195.401 9.43485C195.401 8.21862 196.36 7.58643 197.618 7.58643C198.608 7.58643 199.282 8.13433 199.483 9.09166L200.273 12.9932L207.125 11.7529C207.386 11.6927 207.532 11.6927 207.739 11.6927C208.905 11.6927 209.956 12.4995 209.956 13.7157C209.956 14.8417 208.468 16.8647 207.563 18.0809C207.01 18.8335 206.427 19.6102 205.752 20.2485C205.376 20.6218 204.847 20.8566 204.44 20.8566C203.389 20.8566 202.338 20.0197 202.338 18.9479C202.338 18.3097 202.715 17.8762 203.328 17.2139C203.681 16.8406 204.027 16.4613 204.349 16.0579L200.996 16.6961L202.83 25.86L202.842 25.8419Z" fill="#006CB6"/>
<path d="M237.276 9.27821C237.276 9.94051 236.984 10.4944 236.632 11.0122C234.56 13.9625 231.997 16.6177 229.226 18.8997C226.341 21.296 223.103 23.4395 219.634 24.8845C218.352 25.4023 217.97 25.4926 217.508 25.4926C216.05 25.4926 214.969 24.0476 214.969 22.6868C214.969 21.3261 215.813 21.0672 217.216 20.5193C223.164 18.2073 228.649 13.7277 232.379 8.63999C233.078 7.68868 233.722 6.87585 234.742 6.87585C236.055 6.87585 237.282 7.94758 237.282 9.27219L237.276 9.27821ZM221.499 6.50256C222.404 7.11067 223.455 7.86329 223.455 9.0735C223.455 10.2837 222.404 11.7588 221.038 11.7588C220.454 11.7588 219.987 11.4397 219.081 10.8075C218.352 10.3138 217.623 9.82612 216.834 9.3324C215.637 8.60989 215.054 8.23659 215.054 7.22507C215.054 5.84025 216.22 4.62402 217.593 4.62402C218.614 4.62402 220.041 5.49104 221.499 6.50256Z" fill="#006CB6"/>
<path d="M250.514 9.16391C250.514 9.94663 250.107 11.0123 249.523 12.343C248.533 14.6249 247.191 16.8526 245.648 18.8456C244.566 20.2605 243.023 22.1691 241.535 22.1691C240.162 22.1691 238.734 21.0974 238.734 19.6825C238.734 18.8757 239.202 18.4121 240.077 17.5149C242.817 14.7694 244.275 12.1081 245.587 8.41129C245.963 7.33956 246.692 6.96626 247.689 6.96626C249.001 6.96626 250.52 7.68878 250.52 9.16391H250.514ZM259.383 8.8749C260.051 9.71181 260.695 10.5788 261.309 11.4458C262.36 12.9752 265.391 17.5451 265.391 19.2189C265.391 20.6639 263.933 21.7356 262.56 21.7356C261.072 21.7356 260.634 20.6639 260.142 19.4838C258.891 16.5636 257.166 13.9325 255.155 11.4519C254.748 10.9581 254.395 10.4403 254.395 9.77804C254.395 8.44741 255.708 7.49611 256.959 7.49611C258.095 7.49611 258.709 8.07412 259.377 8.88092L259.383 8.8749ZM265.622 5.05762C265.622 6.79166 264.133 8.26678 262.353 8.26678C260.574 8.26678 259.085 6.79166 259.085 5.05762C259.085 3.32359 260.574 1.81836 262.353 1.81836C264.133 1.81836 265.622 3.29349 265.622 5.05762ZM260.865 5.05762C260.865 5.84035 261.533 6.53276 262.353 6.53276C263.174 6.53276 263.842 5.84035 263.842 5.05762C263.842 4.2749 263.174 3.55239 262.353 3.55239C261.533 3.55239 260.865 4.2448 260.865 5.05762Z" fill="#006CB6"/>
<path d="M290.514 18.4661C291.681 19.6522 292.471 20.4891 292.471 21.5308C292.471 22.8915 291.243 24.1318 289.877 24.1318C288.941 24.1318 288.358 23.5538 287.629 22.6567C286.171 20.8925 284.628 19.2729 282.848 17.858C280.867 19.6763 278.681 21.2959 276.317 22.5965C275.266 23.1745 273.401 24.2161 272.351 24.2161C270.978 24.2161 269.902 22.9999 269.902 21.6753C269.902 20.435 270.808 20.0014 271.828 19.5679C276.785 17.4305 280.959 13.9323 283.899 9.42266H275.352C273.863 9.42266 273.019 8.70015 273.019 7.19491C273.019 5.68968 273.863 4.96716 275.352 4.96716H286.754C288.419 4.96716 289.877 5.57528 289.877 7.45381C289.877 9.33234 287.167 12.9449 286.025 14.42C287.629 15.6604 289.117 17.0211 290.514 18.4661Z" fill="#006CB6"/>
<path d="M302.409 23.7587C298.794 23.7587 297.773 20.0016 297.773 17.1116C297.773 9.51317 303.988 3.72705 311.569 3.72705C317.839 3.72705 322.504 7.74302 322.504 14.1011C322.504 18.6409 320.202 22.2836 316.205 24.4511C315.214 24.9689 313.872 25.6071 312.705 25.6071C311.333 25.6071 310.373 24.3367 310.373 23.0663C310.373 21.9103 310.895 21.537 312.475 21.0433C315.798 20.0016 317.814 17.515 317.814 14.1072C317.814 10.9582 315.858 8.47155 312.681 7.92365C311.806 12.5778 308.368 23.7647 302.415 23.7647L302.409 23.7587ZM304.219 11.3014C302.822 13.0053 302.002 15.203 302.002 17.4006C302.002 17.804 302.002 19.0202 302.615 19.0202C302.937 19.0202 303.575 18.3579 304.103 17.6053C304.571 16.9129 304.978 16.1603 305.154 15.8412C306.436 13.5291 307.311 11.0124 307.985 8.44145C306.467 9.13385 305.276 10.0009 304.225 11.3014H304.219Z" fill="#006CB6"/>
</g>
<defs>
<linearGradient id="paint0_linear_294_7083" x1="1.1447" y1="47.9489" x2="36.8553" y2="12.2371" gradientUnits="userSpaceOnUse">
<stop stop-color="#FFE066"/>
<stop offset="1" stop-color="#FF99C3"/>
</linearGradient>
<linearGradient id="paint1_linear_294_7083" x1="366.855" y1="12.5614" x2="331.145" y2="48.2733" gradientUnits="userSpaceOnUse">
<stop stop-color="#FFE066"/>
<stop offset="1" stop-color="#FF99C3"/>
</linearGradient>
<clipPath id="clip0_294_7083">
<rect width="368" height="59" fill="white"/>
</clipPath>
</defs>
</svg>
