<svg width="104" height="9" viewBox="0 0 104 9" fill="none" xmlns="http://www.w3.org/2000/svg">
<g clip-path="url(#clip0_294_4245)">
<path d="M3 2.71362C6.49247 2.71362 6.49247 5.71362 10 5.71362C13.5075 5.71362 13.4925 2.71362 17 2.71362C20.5075 2.71362 20.5075 5.71362 24 5.71362C27.4925 5.71362 27.4925 2.71362 31 2.71362C34.5075 2.71362 34.4925 5.71362 38 5.71362C41.5075 5.71362 41.4925 2.71362 45 2.71362C48.5075 2.71362 48.4925 5.71362 52 5.71362C55.5075 5.71362 55.5075 2.71362 59 2.71362C62.4925 2.71362 62.4925 5.71362 66 5.71362C69.5075 5.71362 69.4925 2.71362 73 2.71362C76.5075 2.71362 76.5075 5.71362 80 5.71362C83.4925 5.71362 83.5075 2.71362 87 2.71362C90.4925 2.71362 90.5075 5.71362 94 5.71362C97.4925 5.71362 97.4925 2.71362 101 2.71362" stroke="#00DEC7" stroke-width="5" stroke-miterlimit="10" stroke-linecap="round"/>
</g>
<defs>
<clipPath id="clip0_294_4245">
<rect width="104" height="9" fill="white"/>
</clipPath>
</defs>
</svg>
