<svg width="20" height="19" viewBox="0 0 20 19" fill="none" xmlns="http://www.w3.org/2000/svg">
<g clip-path="url(#clip0_294_6794)">
<path d="M19.4941 10.7181C19.5269 10.6839 19.5597 10.6519 19.5902 10.6154C19.6089 10.5926 19.6276 10.5675 19.6464 10.5424C19.6628 10.5196 19.6815 10.4991 19.6956 10.4763C19.7143 10.4489 19.7307 10.4216 19.7471 10.3919C19.7611 10.3714 19.7728 10.3509 19.7869 10.328C19.8033 10.3007 19.815 10.271 19.829 10.2436C19.8407 10.2208 19.8525 10.1957 19.8618 10.1729C19.8735 10.1456 19.8829 10.1182 19.8923 10.0885C19.9016 10.0612 19.9133 10.0361 19.9204 10.0087C19.9297 9.98134 19.9344 9.95169 19.9438 9.92432C19.9508 9.89695 19.9578 9.86958 19.9649 9.84221C19.9719 9.81027 19.9766 9.77606 19.9813 9.74413C19.9836 9.72132 19.9883 9.69623 19.9906 9.67342C20.0023 9.55709 20.0023 9.44077 19.9906 9.32672C19.9883 9.30163 19.9836 9.27882 19.9813 9.25601C19.9766 9.2218 19.9719 9.18987 19.9649 9.15565C19.9602 9.12828 19.9508 9.10091 19.9438 9.07354C19.9368 9.04617 19.9297 9.01652 19.9204 8.98915C19.911 8.96178 19.9016 8.93669 19.8923 8.90931C19.8829 8.88194 19.8735 8.85457 19.8618 8.8272C19.8525 8.80211 19.8384 8.7793 19.8267 8.75649C19.8126 8.72912 19.8009 8.69947 19.7845 8.6721C19.7728 8.64929 19.7588 8.62876 19.7447 8.60595C19.7283 8.57858 19.7119 8.55121 19.6932 8.52384C19.6768 8.50103 19.6581 8.47822 19.6417 8.45541C19.623 8.4326 19.6066 8.40751 19.5878 8.3847C19.555 8.34593 19.5222 8.30943 19.4848 8.27522C19.4778 8.26838 19.4731 8.26382 19.4684 8.25697L11.5222 0.515557C10.8173 -0.170998 9.67447 -0.170998 8.96956 0.515557C8.26464 1.20211 8.26464 2.3152 8.96956 3.00175L13.8384 7.74377H1.80562V7.74149C0.807963 7.73921 0 8.52612 0 9.49779C0 10.4695 0.807963 11.2564 1.80562 11.2564H13.8384L8.96956 16.0007C8.26464 16.6872 8.26464 17.8003 8.96956 18.4869C9.32084 18.829 9.78454 19.0023 10.2459 19.0023C10.7073 19.0023 11.1686 18.8313 11.5222 18.4869L19.4707 10.7454C19.4707 10.7454 19.4871 10.7272 19.4941 10.7204V10.7181Z" fill="url(#paint0_linear_294_6794)"/>
</g>
<defs>
<linearGradient id="paint0_linear_294_6794" x1="0.000718445" y1="9.50129" x2="20.0017" y2="9.50129" gradientUnits="userSpaceOnUse">
<stop stop-color="#FFE066"/>
<stop offset="1" stop-color="#FF99C3"/>
</linearGradient>
<clipPath id="clip0_294_6794">
<rect width="20" height="19" fill="white"/>
</clipPath>
</defs>
</svg>
