<svg width="20" height="19" viewBox="0 0 20 19" fill="none" xmlns="http://www.w3.org/2000/svg">
<g clip-path="url(#clip0_294_6796)">
<path d="M0.505856 8.28192C0.473069 8.31613 0.440281 8.34807 0.409836 8.38456C0.391101 8.40737 0.372366 8.43246 0.353631 8.45755C0.337237 8.48036 0.318502 8.50089 0.30445 8.5237C0.285715 8.55107 0.269321 8.57844 0.252928 8.60809C0.238876 8.62862 0.227167 8.64915 0.213116 8.67196C0.196722 8.69933 0.185013 8.72898 0.170961 8.75635C0.159251 8.77916 0.147542 8.80425 0.138174 8.82706C0.126465 8.85443 0.117096 8.8818 0.107728 8.91145C0.0983604 8.93882 0.086652 8.96391 0.0796262 8.99128C0.0702585 9.01866 0.0655733 9.04831 0.0562056 9.07568C0.0491798 9.10305 0.0421549 9.13042 0.0351291 9.15779C0.0281034 9.18972 0.0234196 9.22394 0.0187358 9.25587C0.0163938 9.27868 0.0117098 9.30377 0.00936787 9.32658C-0.00234175 9.44291 -0.00234176 9.55923 0.00936784 9.67328C0.0117098 9.69837 0.0163938 9.72118 0.0187357 9.74398C0.0234196 9.7782 0.0281033 9.81013 0.0351291 9.84435C0.0398129 9.87172 0.0491797 9.89909 0.0562055 9.92646C0.0632313 9.95383 0.0702585 9.98348 0.0796261 10.0109C0.0889938 10.0382 0.0983603 10.0633 0.107728 10.0907C0.117096 10.1181 0.126465 10.1454 0.138174 10.1728C0.147542 10.1979 0.161592 10.2207 0.173302 10.2435C0.187353 10.2709 0.199063 10.3005 0.215456 10.3279C0.227166 10.3507 0.241219 10.3712 0.25527 10.394C0.271664 10.4214 0.288057 10.4488 0.306793 10.4762C0.323186 10.499 0.34192 10.5218 0.358313 10.5446C0.377049 10.5674 0.393443 10.5925 0.412178 10.6153C0.444965 10.6541 0.477753 10.6906 0.515223 10.7248C0.522249 10.7316 0.526933 10.7362 0.531617 10.743L8.47775 18.4844C9.18267 19.171 10.3255 19.171 11.0304 18.4844C11.7354 17.7979 11.7354 16.6848 11.0304 15.9982L6.16159 11.2562L18.1944 11.2562L18.1944 11.2585C19.192 11.2608 20 10.4739 20 9.50221C20 8.53054 19.192 7.74363 18.1944 7.74363L6.16159 7.74363L11.0304 2.99933C11.7354 2.31277 11.7354 1.19969 11.0304 0.513135C10.6792 0.170998 10.2155 -0.00235034 9.7541 -0.00235038C9.29274 -0.00235042 8.83138 0.168717 8.47775 0.513134L0.529275 8.25455C0.529275 8.25455 0.512881 8.2728 0.505856 8.27964L0.505856 8.28192Z" fill="url(#paint0_linear_294_6796)"/>
</g>
<defs>
<linearGradient id="paint0_linear_294_6796" x1="19.9993" y1="9.49871" x2="-0.00173789" y2="9.49871" gradientUnits="userSpaceOnUse">
<stop stop-color="#FFE066"/>
<stop offset="1" stop-color="#FF99C3"/>
</linearGradient>
<clipPath id="clip0_294_6796">
<rect width="20" height="19" fill="white" transform="translate(20 19) rotate(-180)"/>
</clipPath>
</defs>
</svg>
