<svg width="361" height="167" viewBox="0 0 361 167" fill="none" xmlns="http://www.w3.org/2000/svg">
<path d="M337.873 68.49C337.873 68.49 339.428 63.9176 338.885 62.2426L327.862 45.5378L322.577 30.3872C321.052 29.2554 314.997 26.5996 314.031 26.7957C310.21 27.6106 306.36 28.1689 302.51 28.8329C297.089 29.2554 291.653 29.6931 286.232 30.1156C268.898 30.2212 251.563 30.3268 234.229 30.4325C234.229 31.2323 234.214 32.032 234.199 32.8318C239.182 32.8771 244.164 32.9224 249.162 32.9676C244.18 32.9224 239.197 32.8771 234.199 32.8469C234.199 32.0471 234.214 31.2473 234.229 30.4476C251.563 30.3419 268.898 30.2363 286.232 30.1307C285.009 29.844 283.786 29.3309 282.563 29.3158C266.452 29.1045 250.355 28.9687 234.244 28.8178C232.341 28.4557 230.424 27.7313 228.521 27.7615C214.78 27.9728 201.04 28.6216 187.314 28.5764C166.763 28.5009 146.228 27.9728 125.677 27.6408C123.926 27.2032 122.174 26.4185 120.407 26.3883C112.239 26.2525 104.054 26.3883 95.8705 26.2525C94.1189 26.2223 92.3673 25.4376 90.6007 25H87.2637C85.6631 25.4376 84.0474 25.7545 82.462 26.3581C80.6953 27.0372 78.9739 27.9879 77.2224 28.8178C81.0577 28.7876 84.893 28.7424 88.7283 28.7122C90.9933 29.2403 93.2582 29.7534 95.5383 30.2816C93.2733 29.7534 91.0084 29.2403 88.7283 28.7122C84.893 28.7575 81.0577 28.7876 77.2224 28.8329C75.199 29.2856 73.1605 29.7232 71.1372 30.1759C61.7452 31.0814 52.3381 31.9868 42.9461 32.8771C33.7202 33.0431 24.3584 32.5602 22.184 34.2201L17.2766 59.4208C17.8051 59.8131 18.3487 60.1904 18.8772 60.5827L14 83.0973C17.0501 84.0178 38.4917 86.221 41.5267 87.1264C47.1589 86.7793 52.7911 86.4473 58.4233 86.1002C57.6381 87.0358 56.868 87.9714 56.0828 88.907C55.6298 90.0991 55.1919 91.3064 54.7389 92.4985C54.6181 93.6453 54.5124 94.7922 54.3916 95.939C54.3916 95.939 52.8515 99.3796 53.1233 100.768L61.2469 118.016C61.5338 118.197 62.0774 118.408 62.6965 118.65L62.772 125.274C63.3156 125.486 63.844 125.682 64.3876 125.893L64.146 144.967C66.9848 145.103 86.2067 142.673 89.0303 142.824C96.1423 140.817 103.254 138.825 110.351 136.773C111.166 136.532 111.906 135.973 112.692 135.566C107.437 136.26 102.182 136.954 96.9425 137.648C102.197 136.954 107.437 136.26 112.692 135.566C114.337 135.113 115.983 134.676 117.644 134.223C121.661 134.027 125.677 133.831 129.679 133.619C131.566 132.548 133.454 131.492 135.356 130.42C135.386 130.42 135.432 130.405 135.462 130.39C135.462 130.39 135.386 130.405 135.356 130.42C133.469 131.492 131.566 132.548 129.679 133.619C128.758 133.831 127.821 134.042 126.885 134.253C129.935 134.283 132.94 134.132 135.915 133.846C136.005 135.234 136.202 137.06 136.594 137.995L148.795 157.613C149.837 158.231 153.461 159.258 153.853 158.941C155.439 157.658 157.115 156.556 158.761 155.394C161.222 154.127 163.683 152.874 166.129 151.607C174.328 148.559 182.543 145.51 190.742 142.462C190.53 141.843 190.304 141.225 190.092 140.591C190.304 141.21 190.53 141.828 190.742 142.462C182.543 145.51 174.328 148.559 166.129 151.607C166.794 151.607 167.518 151.803 168.092 151.607C175.808 149.011 183.494 146.371 191.18 143.73C192.191 143.684 193.294 143.911 194.2 143.564C200.662 141.044 207.019 138.192 213.557 135.883C223.342 132.427 233.247 129.319 243.107 126.059C244.059 126.104 245.116 126.406 245.961 126.135C249.887 124.837 253.723 123.328 257.648 122.045C258.494 121.773 259.536 122.075 260.502 122.105C261.031 121.909 261.559 121.728 262.088 121.532C262.722 120.913 263.401 120.4 263.99 119.661C264.64 118.831 265.198 117.805 265.787 116.854C266.618 116.16 267.463 115.466 268.294 114.772C267.584 114.606 266.889 114.425 266.18 114.259C266.723 113.263 267.267 112.267 267.826 111.286C267.282 112.282 266.738 113.278 266.18 114.259C266.889 114.425 267.584 114.606 268.294 114.772C272.507 112.463 276.719 110.154 280.932 107.845C285.266 106.14 289.856 104.918 290.43 103.258L289.599 99.6512C299.761 97.3726 309.742 94.4149 319.21 89.3446C324.057 86.8095 328.889 84.2743 333.736 81.7392C334.702 80.366 335.653 78.9777 336.62 77.6044C337.043 76.0351 337.465 74.4506 337.888 72.8812C337.888 71.4326 337.873 69.9839 337.858 68.5201L337.873 68.49ZM249.283 117.02C246.882 117.775 244.482 118.529 242.066 119.284C244.466 118.529 246.867 117.775 249.283 117.02ZM227.177 118.665C227.177 118.997 227.162 119.314 227.117 119.6C227.147 119.329 227.162 119.012 227.177 118.665C227.177 118.001 227.177 117.262 227.192 116.643C227.162 117.262 227.192 118.001 227.177 118.665ZM184.959 123.735C178.345 126.104 171.746 128.474 165.133 130.858C171.746 128.489 178.345 126.119 184.959 123.735ZM157.371 44.904C154.593 44.904 151.83 44.904 149.052 44.8889C149.656 44.0287 150.199 42.9121 150.803 42.0519C150.199 42.9272 149.656 44.0287 149.052 44.8889C151.83 44.8889 154.593 44.904 157.371 44.9191V44.904ZM156.541 64.8381C157.432 64.8381 158.323 65.0494 159.183 65.4719C158.323 65.0645 157.432 64.8532 156.541 64.8381ZM172.35 68.4296C171.535 68.1731 170.689 67.9014 169.783 67.5996C170.704 67.8864 171.535 68.158 172.35 68.4296ZM233.444 60.5827C227.857 59.7829 222.285 58.9831 216.698 58.1834C222.285 58.9831 227.872 59.7829 233.444 60.5827ZM79.7742 54.1694C76.4372 53.7317 73.1002 53.279 69.748 52.8414C73.0851 53.279 76.4221 53.7317 79.7742 54.1694ZM84.7722 67.4035C88.1092 66.9659 91.4463 66.5282 94.7984 66.1057C91.4614 66.5433 88.1243 66.9809 84.7722 67.4035ZM175.083 126.089C173.845 126.542 172.667 127.146 171.399 127.523C172.652 127.146 173.845 126.542 175.083 126.089ZM266.15 54.1694C254.946 54.1694 243.727 54.1543 232.523 54.1392C232.643 54.0788 232.749 54.0034 232.87 53.9279C232.749 53.9883 232.643 54.0637 232.523 54.1392C243.727 54.1392 254.946 54.1543 266.15 54.1694ZM82.2657 71.4175C79.8044 71.4929 77.3583 71.5533 74.897 71.6287C77.3583 71.5533 79.8044 71.508 82.2657 71.4175ZM204.362 117.895C204.211 117.895 204.06 117.895 203.924 117.895C204.075 117.895 204.226 117.895 204.362 117.895ZM199.983 34.205C193.565 34.205 187.133 34.205 180.716 34.205C187.133 34.205 193.55 34.205 199.983 34.205ZM65.4899 98.3837C67.4831 97.8857 69.4611 97.4028 71.4543 96.9048C74.8064 96.8596 78.1585 96.8294 81.5258 96.7841C78.1736 96.8294 74.8215 96.8596 71.4543 96.9048C69.4611 97.4028 67.4831 97.8857 65.4899 98.3837C65.2936 98.4138 65.0973 98.444 64.8859 98.4742C65.0822 98.444 65.2785 98.4138 65.4899 98.3837ZM145.035 133.423C144.899 133.483 144.763 133.559 144.612 133.619C144.748 133.559 144.884 133.483 145.035 133.423ZM179.402 132.91C179.372 132.065 179.341 131.235 179.296 130.39C179.326 131.22 179.357 132.065 179.402 132.91ZM252.53 34.3107C252.801 34.3107 253.088 34.3107 253.36 34.2956C260.079 34.2956 266.799 34.2654 273.533 34.2654C266.814 34.2654 260.095 34.2956 253.36 34.2956C253.088 34.2956 252.801 34.2956 252.53 34.3107ZM160.693 34.2201C162.928 33.5712 165.163 32.696 167.413 32.1377C165.163 32.696 162.943 33.5712 160.693 34.2201ZM51.3868 83.0671C55.2372 83.4444 59.0876 83.8065 62.923 84.1838C59.0725 83.8065 55.2221 83.4444 51.3868 83.0671ZM60.6731 95.3807C60.3862 96.2861 60.1144 97.1915 59.8275 98.0819C60.1144 97.1764 60.3862 96.271 60.6731 95.3807ZM139.539 133.408C139.916 133.559 140.309 133.71 140.686 133.846C140.309 133.695 139.916 133.544 139.539 133.408ZM181.002 142.553C181.002 142.553 180.867 142.613 180.806 142.628C180.867 142.598 180.942 142.568 181.002 142.553ZM224.656 126.904C224.067 127.493 223.508 128.157 222.934 128.79C223.508 128.172 224.067 127.508 224.656 126.904Z" fill="black" fill-opacity="0.75"/>
<path d="M205.516 164.132C206.123 163.511 207.112 163.511 207.72 164.132C208.327 164.753 208.327 165.764 207.72 166.385C207.112 167.006 206.123 167.006 205.516 166.385C204.908 165.764 204.908 164.753 205.516 164.132ZM198.044 166.385C198.652 167.006 199.64 167.006 200.248 166.385C200.855 165.764 200.855 164.753 200.248 164.132C199.64 163.511 198.652 163.511 198.044 164.132C197.437 164.753 197.437 165.764 198.044 166.385ZM194.308 162.57C194.916 163.191 195.905 163.191 196.512 162.57C197.12 161.949 197.12 160.938 196.512 160.317C195.905 159.696 194.916 159.696 194.308 160.317C193.701 160.938 193.701 161.949 194.308 162.57ZM201.78 162.57C202.388 163.191 203.376 163.191 203.984 162.57C204.591 161.949 204.591 160.938 203.984 160.317C203.376 159.696 202.388 159.696 201.78 160.317C201.172 160.938 201.172 161.949 201.78 162.57ZM198.044 158.751C198.652 159.372 199.64 159.372 200.248 158.751C200.855 158.13 200.855 157.12 200.248 156.499C199.64 155.877 198.652 155.877 198.044 156.499C197.437 157.12 197.437 158.13 198.044 158.751ZM209.248 162.57C209.855 163.191 210.844 163.191 211.452 162.57C212.059 161.949 212.059 160.938 211.452 160.317C210.844 159.696 209.855 159.696 209.248 160.317C208.64 160.938 208.64 161.949 209.248 162.57ZM205.516 158.751C206.123 159.372 207.112 159.372 207.72 158.751C208.327 158.13 208.327 157.12 207.72 156.499C207.112 155.877 206.123 155.877 205.516 156.499C204.908 157.12 204.908 158.13 205.516 158.751ZM201.78 154.932C202.388 155.553 203.376 155.553 203.984 154.932C204.591 154.311 204.591 153.301 203.984 152.68C203.376 152.059 202.388 152.059 201.78 152.68C201.172 153.301 201.172 154.311 201.78 154.932ZM190.576 158.751C191.184 159.372 192.172 159.372 192.78 158.751C193.388 158.13 193.388 157.12 192.78 156.499C192.172 155.877 191.184 155.877 190.576 156.499C189.969 157.12 189.969 158.13 190.576 158.751ZM194.308 154.932C194.916 155.553 195.905 155.553 196.512 154.932C197.12 154.311 197.12 153.301 196.512 152.68C195.905 152.059 194.916 152.059 194.308 152.68C193.701 153.301 193.701 154.311 194.308 154.932ZM186.84 154.932C187.448 155.553 188.437 155.553 189.044 154.932C189.652 154.311 189.652 153.301 189.044 152.68C188.437 152.059 187.448 152.059 186.84 152.68C186.233 153.301 186.233 154.311 186.84 154.932ZM190.576 151.114C191.184 151.735 192.172 151.735 192.78 151.114C193.388 150.493 193.388 149.482 192.78 148.861C192.172 148.24 191.184 148.24 190.576 148.861C189.969 149.482 189.969 150.493 190.576 151.114ZM186.84 147.299C187.448 147.92 188.437 147.92 189.044 147.299C189.652 146.678 189.652 145.667 189.044 145.046C188.437 144.425 187.448 144.425 186.84 145.046C186.233 145.667 186.233 146.678 186.84 147.299ZM198.044 151.114C198.652 151.735 199.64 151.735 200.248 151.114C200.855 150.493 200.855 149.482 200.248 148.861C199.64 148.24 198.652 148.24 198.044 148.861C197.437 149.482 197.437 150.493 198.044 151.114ZM194.308 147.299C194.916 147.92 195.905 147.92 196.512 147.299C197.12 146.678 197.12 145.667 196.512 145.046C195.905 144.425 194.916 144.425 194.308 145.046C193.701 145.667 193.701 146.678 194.308 147.299ZM190.576 143.48C191.184 144.101 192.172 144.101 192.78 143.48C193.388 142.859 193.388 141.848 192.78 141.227C192.172 140.606 191.184 140.606 190.576 141.227C189.969 141.848 189.969 142.859 190.576 143.48ZM212.984 158.751C213.591 159.372 214.58 159.372 215.187 158.751C215.795 158.13 215.795 157.12 215.187 156.499C214.58 155.877 213.591 155.877 212.984 156.499C212.376 157.12 212.376 158.13 212.984 158.751ZM216.719 154.932C217.327 155.553 218.316 155.553 218.923 154.932C219.531 154.311 219.531 153.301 218.923 152.68C218.316 152.059 217.327 152.059 216.719 152.68C216.112 153.301 216.112 154.311 216.719 154.932ZM209.248 154.932C209.855 155.553 210.844 155.553 211.452 154.932C212.059 154.311 212.059 153.301 211.452 152.68C210.844 152.059 209.855 152.059 209.248 152.68C208.64 153.301 208.64 154.311 209.248 154.932ZM205.516 151.114C206.123 151.735 207.112 151.735 207.72 151.114C208.327 150.493 208.327 149.482 207.72 148.861C207.112 148.24 206.123 148.24 205.516 148.861C204.908 149.482 204.908 150.493 205.516 151.114ZM212.984 151.114C213.591 151.735 214.58 151.735 215.187 151.114C215.795 150.493 215.795 149.482 215.187 148.861C214.58 148.24 213.591 148.24 212.984 148.861C212.376 149.482 212.376 150.493 212.984 151.114ZM209.248 147.299C209.855 147.92 210.844 147.92 211.452 147.299C212.059 146.678 212.059 145.667 211.452 145.046C210.844 144.425 209.855 144.425 209.248 145.046C208.64 145.667 208.64 146.678 209.248 147.299ZM216.719 147.299C217.327 147.92 218.316 147.92 218.923 147.299C219.531 146.678 219.531 145.667 218.923 145.046C218.316 144.425 217.327 144.425 216.719 145.046C216.112 145.667 216.112 146.678 216.719 147.299ZM212.984 143.48C213.591 144.101 214.58 144.101 215.187 143.48C215.795 142.859 215.795 141.848 215.187 141.227C214.58 140.606 213.591 140.606 212.984 141.227C212.376 141.848 212.376 142.859 212.984 143.48ZM201.78 147.299C202.388 147.92 203.376 147.92 203.984 147.299C204.591 146.678 204.591 145.667 203.984 145.046C203.376 144.425 202.388 144.425 201.78 145.046C201.172 145.667 201.172 146.678 201.78 147.299ZM205.516 143.48C206.123 144.101 207.112 144.101 207.72 143.48C208.327 142.859 208.327 141.848 207.72 141.227C207.112 140.606 206.123 140.606 205.516 141.227C204.908 141.848 204.908 142.859 205.516 143.48ZM198.044 143.48C198.652 144.101 199.64 144.101 200.248 143.48C200.855 142.859 200.855 141.848 200.248 141.227C199.64 140.606 198.652 140.606 198.044 141.227C197.437 141.848 197.437 142.859 198.044 143.48ZM194.308 139.661C194.916 140.282 195.905 140.282 196.512 139.661C197.12 139.04 197.12 138.029 196.512 137.408C195.905 136.787 194.916 136.787 194.308 137.408C193.701 138.029 193.701 139.04 194.308 139.661ZM201.78 139.661C202.388 140.282 203.376 140.282 203.984 139.661C204.591 139.04 204.591 138.029 203.984 137.408C203.376 136.787 202.388 136.787 201.78 137.408C201.172 138.029 201.172 139.04 201.78 139.661ZM198.044 135.842C198.652 136.463 199.64 136.463 200.248 135.842C200.855 135.221 200.855 134.21 200.248 133.589C199.64 132.968 198.652 132.968 198.044 133.589C197.437 134.21 197.437 135.221 198.044 135.842ZM209.248 139.661C209.855 140.282 210.844 140.282 211.452 139.661C212.059 139.04 212.059 138.029 211.452 137.408C210.844 136.787 209.855 136.787 209.248 137.408C208.64 138.029 208.64 139.04 209.248 139.661ZM205.516 135.842C206.123 136.463 207.112 136.463 207.72 135.842C208.327 135.221 208.327 134.21 207.72 133.589C207.112 132.968 206.123 132.968 205.516 133.589C204.908 134.21 204.908 135.221 205.516 135.842Z" fill="url(#paint0_linear_232_2979)" fill-opacity="0.8"/>
<path d="M311.992 84.6836C312.512 85.5144 312.263 86.6105 311.437 87.133C310.607 87.6532 309.51 87.4036 308.988 86.5784C308.467 85.7476 308.717 84.6516 309.542 84.129C310.373 83.6088 311.469 83.8584 311.992 84.6836ZM312.745 89.219C311.914 89.7393 311.662 90.8408 312.19 91.6684C312.711 92.4992 313.812 92.7511 314.64 92.223C315.471 91.7028 315.723 90.6012 315.194 89.7737C314.674 88.9429 313.572 88.6909 312.745 89.219ZM314.635 80.9221C313.804 81.4424 313.552 82.5439 314.08 83.3715C314.601 84.2023 315.702 84.4542 316.53 83.9261C317.361 83.4059 317.613 82.3043 317.084 81.4767C316.564 80.6459 315.462 80.394 314.635 80.9221ZM319.727 77.7153C318.896 78.2355 318.645 79.337 319.173 80.1646C319.693 80.9954 320.795 81.2474 321.623 80.7193C322.454 80.199 322.705 79.0974 322.177 78.2698C321.657 77.439 320.555 77.1872 319.727 77.7153ZM317.843 86.0145C317.012 86.5347 316.76 87.6363 317.288 88.4638C317.809 89.2946 318.911 89.5466 319.738 89.0185C320.569 88.4982 320.821 87.3966 320.293 86.5691C319.772 85.7383 318.67 85.4864 317.843 86.0145ZM322.935 82.8076C322.105 83.3278 321.853 84.4294 322.381 85.2569C322.902 86.0877 324.003 86.3397 324.831 85.8116C325.662 85.2913 325.914 84.1898 325.385 83.3622C324.865 82.5314 323.763 82.2795 322.935 82.8076ZM315.953 94.3114C315.122 94.8316 314.87 95.9332 315.399 96.7607C315.919 97.5915 317.021 97.8435 317.848 97.3154C318.676 96.7872 318.931 95.6935 318.403 94.866C317.882 94.0352 316.78 93.7833 315.953 94.3114ZM321.051 91.1068C320.22 91.627 319.968 92.7286 320.497 93.5562C321.017 94.387 322.119 94.6389 322.947 94.1108C323.777 93.5906 324.029 92.489 323.501 91.6614C322.98 90.8306 321.879 90.5787 321.051 91.1068ZM326.141 87.9055C325.31 88.4257 325.059 89.5273 325.587 90.3548C326.107 91.1857 327.209 91.4375 328.037 90.9094C328.868 90.3892 329.119 89.2876 328.591 88.4601C328.071 87.6293 326.969 87.3774 326.141 87.9055ZM324.825 74.5107C323.994 75.0309 323.743 76.1325 324.271 76.96C324.791 77.7908 325.893 78.0427 326.721 77.5146C327.552 76.9944 327.803 75.8929 327.275 75.0653C326.755 74.2345 325.653 73.9826 324.825 74.5107ZM328.034 79.603C327.203 80.1233 326.951 81.2248 327.479 82.0524C328 82.8832 329.101 83.1351 329.929 82.607C330.76 82.0867 331.012 80.9852 330.483 80.1576C329.963 79.3268 328.861 79.0749 328.034 79.603ZM329.918 71.3038C329.087 71.824 328.835 72.9256 329.364 73.7532C329.884 74.584 330.986 74.8359 331.813 74.3077C332.644 73.7875 332.896 72.686 332.368 71.8584C331.847 71.0276 330.746 70.7757 329.918 71.3038ZM335.011 68.0969C334.18 68.6171 333.928 69.7187 334.456 70.5463C334.977 71.3771 336.078 71.629 336.906 71.1009C337.737 70.5806 337.989 69.4791 337.46 68.6515C336.94 67.8207 335.838 67.5688 335.011 68.0969ZM333.126 76.3962C332.295 76.9164 332.044 78.0179 332.572 78.8455C333.092 79.6763 334.194 79.9282 335.022 79.4001C335.853 78.8799 336.104 77.7783 335.576 76.9507C335.056 76.1199 333.954 75.8681 333.126 76.3962ZM338.219 73.1892C337.388 73.7095 337.136 74.8111 337.665 75.6386C338.185 76.4694 339.287 76.7213 340.114 76.1932C340.942 75.6651 341.197 74.5714 340.669 73.7439C340.148 72.9131 339.046 72.6611 338.219 73.1892ZM331.239 84.7009C330.409 85.2211 330.157 86.3227 330.685 87.1503C331.206 87.9811 332.307 88.233 333.135 87.7049C333.966 87.1846 334.218 86.0831 333.689 85.2555C333.169 84.4247 332.067 84.1728 331.239 84.7009ZM336.332 81.494C335.501 82.0142 335.249 83.1158 335.778 83.9434C336.298 84.7742 337.4 85.0261 338.228 84.498C339.058 83.9778 339.31 82.8762 338.782 82.0486C338.261 81.2178 337.16 80.9659 336.332 81.494ZM341.425 78.2871C340.594 78.8073 340.342 79.9089 340.87 80.7365C341.391 81.5673 342.493 81.8192 343.32 81.2911C344.151 80.7709 344.403 79.6693 343.875 78.8417C343.354 78.0109 342.252 77.759 341.425 78.2871ZM319.159 99.4093C318.328 99.9295 318.076 101.031 318.604 101.859C319.125 102.689 320.227 102.941 321.054 102.413C321.885 101.893 322.137 100.791 321.609 99.9638C321.088 99.133 319.986 98.8812 319.159 99.4093ZM322.367 104.502C321.536 105.022 321.284 106.123 321.813 106.951C322.333 107.782 323.435 108.034 324.262 107.506C325.093 106.985 325.345 105.884 324.817 105.056C324.296 104.225 323.194 103.973 322.367 104.502ZM324.257 96.2047C323.426 96.7249 323.174 97.8265 323.703 98.654C324.223 99.4848 325.325 99.7368 326.152 99.2087C326.983 98.6884 327.235 97.5869 326.707 96.7593C326.186 95.9285 325.084 95.6766 324.257 96.2047ZM329.349 92.9978C328.519 93.518 328.267 94.6196 328.795 95.4472C329.316 96.278 330.417 96.5299 331.245 96.0018C332.076 95.4815 332.328 94.38 331.799 93.5524C331.279 92.7216 330.177 92.4697 329.349 92.9978ZM327.465 101.297C326.634 101.817 326.382 102.919 326.911 103.746C327.431 104.577 328.533 104.829 329.361 104.301C330.191 103.781 330.443 102.679 329.915 101.852C329.395 101.021 328.293 100.769 327.465 101.297ZM332.558 98.0901C331.727 98.6104 331.475 99.7119 332.003 100.54C332.524 101.37 333.626 101.622 334.453 101.094C335.281 100.566 335.536 99.4723 335.008 98.6447C334.487 97.8139 333.385 97.562 332.558 98.0901ZM325.573 109.599C324.742 110.12 324.49 111.221 325.018 112.049C325.539 112.88 326.641 113.132 327.468 112.603C328.299 112.083 328.551 110.982 328.023 110.154C327.502 109.323 326.4 109.071 325.573 109.599ZM330.671 106.395C329.84 106.915 329.588 108.017 330.117 108.844C330.637 109.675 331.739 109.927 332.567 109.399C333.397 108.879 333.649 107.777 333.121 106.95C332.6 106.119 331.499 105.867 330.671 106.395ZM335.764 103.188C334.933 103.708 334.681 104.81 335.209 105.637C335.73 106.468 336.832 106.72 337.659 106.192C338.49 105.672 338.742 104.57 338.213 103.743C337.693 102.912 336.591 102.66 335.764 103.188ZM334.442 89.7909C333.611 90.3112 333.359 91.4127 333.888 92.2403C334.408 93.0711 335.51 93.323 336.338 92.7949C337.168 92.2746 337.42 91.1731 336.892 90.3455C336.372 89.5147 335.27 89.2628 334.442 89.7909ZM337.65 94.8833C336.819 95.4035 336.568 96.5051 337.096 97.3326C337.616 98.1634 338.718 98.4153 339.546 97.8872C340.374 97.3591 340.629 96.2654 340.1 95.4379C339.58 94.6071 338.478 94.3551 337.65 94.8833ZM339.54 86.5863C338.709 87.1066 338.458 88.2082 338.986 89.0357C339.506 89.8665 340.608 90.1184 341.436 89.5903C342.267 89.0701 342.518 87.9685 341.99 87.141C341.47 86.3102 340.368 86.0582 339.54 86.5863ZM344.633 83.3795C343.802 83.8997 343.55 85.0013 344.079 85.8288C344.599 86.6596 345.701 86.9115 346.528 86.3834C347.356 85.8553 347.611 84.7617 347.083 83.9341C346.562 83.1033 345.461 82.8514 344.633 83.3795ZM342.748 91.6787C341.918 92.1989 341.666 93.3005 342.194 94.1281C342.715 94.9589 343.816 95.2108 344.644 94.6827C345.475 94.1624 345.727 93.0608 345.198 92.2333C344.678 91.4025 343.576 91.1506 342.748 91.6787ZM347.839 88.4773C347.008 88.9976 346.756 90.0991 347.285 90.9267C347.805 91.7575 348.907 92.0094 349.734 91.4813C350.565 90.9611 350.817 89.8595 350.289 89.032C349.768 88.2012 348.666 87.9492 347.839 88.4773ZM340.856 99.9811C340.025 100.501 339.774 101.603 340.302 102.431C340.822 103.261 341.924 103.513 342.752 102.985C343.583 102.465 343.834 101.363 343.306 100.536C342.786 99.7049 341.684 99.453 340.856 99.9811ZM345.954 96.7766C345.124 97.2968 344.872 98.3984 345.4 99.2259C345.921 100.057 347.022 100.309 347.85 99.7805C348.681 99.2603 348.933 98.1588 348.404 97.3312C347.884 96.5004 346.782 96.2485 345.954 96.7766ZM351.047 93.5697C350.216 94.0899 349.964 95.1915 350.493 96.019C351.013 96.8498 352.115 97.1018 352.943 96.5736C353.773 96.0534 354.025 94.9519 353.497 94.1243C352.969 93.2967 351.875 93.0416 351.047 93.5697Z" fill="url(#paint1_linear_232_2979)"/>
<path d="M157.592 4.25781C157.43 4.25781 157.263 4.2166 157.112 4.1239L153.314 1.85264C152.877 1.58998 152.736 1.02344 153.002 0.590816C153.267 0.158192 153.84 0.0191161 154.278 0.28178L158.076 2.55307C158.514 2.81573 158.655 3.38227 158.389 3.81489C158.212 4.10331 157.904 4.25781 157.592 4.25781ZM157.316 7.64154C157.581 7.20892 157.441 6.64238 157.003 6.37972L150.053 2.2286C149.615 1.96594 149.042 2.10498 148.776 2.5376C148.51 2.97023 148.651 3.53676 149.089 3.79943L156.039 7.95055C156.19 8.0381 156.357 8.08446 156.518 8.08446C156.831 8.08446 157.138 7.92481 157.316 7.64154ZM156.242 11.4682C156.508 11.0356 156.367 10.469 155.93 10.2064L145.838 4.17539C145.4 3.91272 144.827 4.0518 144.561 4.48442C144.295 4.91705 144.436 5.48358 144.874 5.74625L154.966 11.7772C155.117 11.8648 155.284 11.9111 155.445 11.9111C155.758 11.9111 156.065 11.7515 156.242 11.4682ZM155.174 15.2948C155.44 14.8622 155.299 14.2957 154.862 14.033L141.617 6.11705C141.18 5.85439 140.607 5.99346 140.341 6.42609C140.075 6.85871 140.216 7.42522 140.654 7.68788L153.898 15.6039C154.049 15.6914 154.216 15.7378 154.377 15.7378C154.69 15.7378 154.997 15.5781 155.174 15.2948ZM154.106 19.1215C154.372 18.6889 154.231 18.1223 153.794 17.8597L137.402 8.05872C136.965 7.79605 136.392 7.9351 136.126 8.36772C135.86 8.80034 136.001 9.36688 136.439 9.62954L152.83 19.4305C152.981 19.5181 153.147 19.5644 153.309 19.5644C153.622 19.5644 153.929 19.4048 154.106 19.1215ZM153.033 22.9481C153.299 22.5155 153.158 21.949 152.72 21.6863L133.177 10.0055C132.739 9.74284 132.166 9.88192 131.901 10.3145C131.635 10.7472 131.776 11.3137 132.213 11.5764L151.756 23.2572C151.907 23.3447 152.074 23.3911 152.236 23.3911C152.548 23.3911 152.856 23.2314 153.033 22.9481ZM151.965 26.7748C152.23 26.3422 152.09 25.7757 151.652 25.513L128.962 11.9523C128.524 11.6897 127.951 11.8287 127.686 12.2613C127.42 12.6939 127.561 13.2605 127.998 13.5232L150.688 27.0838C150.839 27.1714 151.006 27.2177 151.168 27.2177C151.48 27.2177 151.788 27.0581 151.965 26.7748ZM150.891 30.6015C151.157 30.1688 151.017 29.6023 150.579 29.3397L124.742 13.894C124.304 13.6313 123.731 13.7704 123.465 14.203C123.2 14.6356 123.34 15.2022 123.778 15.4648L149.615 30.9105C149.766 30.998 149.933 31.0444 150.094 31.0444C150.407 31.0444 150.714 30.8847 150.891 30.6015ZM149.823 34.423C150.089 33.9904 149.948 33.4238 149.511 33.1612L120.527 15.8356C120.089 15.573 119.516 15.712 119.25 16.1447C118.985 16.5773 119.125 17.1438 119.563 17.4064L148.547 34.732C148.698 34.8195 148.865 34.8659 149.026 34.8659C149.339 34.8659 149.646 34.7062 149.823 34.423ZM148.75 38.2496C149.016 37.817 148.875 37.2505 148.438 36.9878L116.307 17.7773C115.869 17.5146 115.296 17.6537 115.03 18.0863C114.764 18.5189 114.905 19.0854 115.343 19.3481L147.474 38.5586C147.625 38.6462 147.791 38.6925 147.953 38.6925C148.266 38.6925 148.573 38.5329 148.75 38.2496ZM147.682 42.0763C147.948 41.6437 147.807 41.0771 147.369 40.8145L112.092 19.7241C111.654 19.4614 111.081 19.6005 110.815 20.0331C110.549 20.4657 110.69 21.0323 111.128 21.2949L146.406 42.3853C146.557 42.4728 146.723 42.5192 146.885 42.5192C147.197 42.5192 147.505 42.3595 147.682 42.0763ZM146.614 45.8978C146.88 45.4652 146.739 44.8986 146.301 44.636L107.877 21.6657C107.439 21.4031 106.866 21.5421 106.6 21.9747C106.335 22.4074 106.475 22.9739 106.913 23.2366L145.337 46.2068C145.489 46.2944 145.655 46.3407 145.817 46.3407C146.129 46.3407 146.437 46.181 146.614 45.8978Z" fill="url(#paint2_linear_232_2979)"/>
<path d="M1.34921 118.333L4.21794 123.9L0.884766 125.527L1.35376 118.333H1.34921ZM6.15771 122.954L10.2422 120.964L2.19162 105.341L1.61787 114.152L6.15318 122.959L6.15771 122.954ZM12.182 120.019L16.2665 118.029L3.03401 92.3481L2.46026 101.159L12.1774 120.023L12.182 120.019ZM18.2109 117.083L22.2954 115.093L7.43728 86.2484L3.59864 83.7341L3.31177 88.1621L18.2109 117.083ZM24.2352 114.148L28.3197 112.158L18.8165 93.7106L11.1028 88.6551L24.2398 114.152L24.2352 114.148ZM30.2595 111.207L34.344 109.218L30.1957 101.164L22.4821 96.1083L30.2595 111.207ZM33.8613 103.566L36.2838 108.272L39.0113 106.941L33.8613 103.566Z" fill="url(#paint3_linear_232_2979)"/>
<defs>
<linearGradient id="paint0_linear_232_2979" x1="192.444" y1="160.661" x2="213.782" y2="139.787" gradientUnits="userSpaceOnUse">
<stop stop-color="#CAEDC2"/>
<stop offset="1" stop-color="#FFEDA6"/>
</linearGradient>
<linearGradient id="paint1_linear_232_2979" x1="313.493" y1="97.6342" x2="348.988" y2="83.0604" gradientUnits="userSpaceOnUse">
<stop stop-color="#FFD2A6"/>
<stop offset="1" stop-color="#FFC4CE"/>
</linearGradient>
<linearGradient id="paint2_linear_232_2979" x1="122.147" y1="38.3423" x2="157.816" y2="2.25944" gradientUnits="userSpaceOnUse">
<stop stop-color="#D6D0F7"/>
<stop offset="1" stop-color="#FFC4CE"/>
</linearGradient>
<linearGradient id="paint3_linear_232_2979" x1="0.880212" y1="104.628" x2="39.0113" y2="104.628" gradientUnits="userSpaceOnUse">
<stop stop-color="#BDE3FF"/>
<stop offset="1" stop-color="#FFC4CE"/>
</linearGradient>
</defs>
</svg>
