<svg width="493" height="237" viewBox="0 0 493 237" fill="none" xmlns="http://www.w3.org/2000/svg">
<path d="M459.512 94.4457C459.512 94.4457 461.565 88.4061 460.848 86.1936L446.298 64.1282L439.322 44.1159C437.309 42.621 429.316 39.1129 428.04 39.372C422.998 40.4483 417.915 41.1858 412.833 42.0629C405.677 42.621 398.502 43.199 391.346 43.7571C368.465 43.8967 345.584 44.0362 322.702 44.1757C322.702 45.2322 322.682 46.2886 322.662 47.345C329.24 47.4048 335.817 47.4646 342.414 47.5244C335.837 47.4646 329.26 47.4048 322.662 47.3649C322.662 46.3085 322.682 45.2521 322.702 44.1957C345.584 44.0561 368.465 43.9166 391.346 43.7771C389.732 43.3984 388.118 42.7207 386.503 42.7007C365.236 42.4217 343.989 42.2423 322.722 42.0429C320.211 41.5646 317.679 40.6078 315.168 40.6477C297.03 40.9267 278.892 41.7838 260.775 41.724C233.648 41.6244 206.541 40.9267 179.414 40.4882C177.102 39.9102 174.79 38.8737 172.458 38.8338C161.675 38.6544 150.872 38.8338 140.069 38.6544C137.757 38.6145 135.445 37.578 133.113 37H128.708C126.595 37.578 124.463 37.9966 122.37 38.7939C120.038 39.6909 117.766 40.9467 115.454 42.0429C120.516 42.0031 125.579 41.9433 130.641 41.9034C133.631 42.6011 136.621 43.2788 139.631 43.9764C136.641 43.2788 133.651 42.6011 130.641 41.9034C125.579 41.9632 120.516 42.0031 115.454 42.0629C112.783 42.6609 110.092 43.2389 107.421 43.8369C95.0237 45.0328 82.6063 46.2288 70.2088 47.4048C58.0306 47.6241 45.6731 46.9862 42.8029 49.1788L36.3252 82.4662C37.0228 82.9845 37.7403 83.4828 38.4379 84.001L32 113.74C36.0262 114.956 64.329 117.866 68.3353 119.062C75.7697 118.604 83.2042 118.165 90.6387 117.707C89.6023 118.943 88.5858 120.179 87.5493 121.414C86.9514 122.989 86.3733 124.584 85.7754 126.158C85.6159 127.673 85.4764 129.188 85.317 130.703C85.317 130.703 83.284 135.248 83.6427 137.081L94.3659 159.864C94.7446 160.104 95.4621 160.383 96.2793 160.702L96.379 169.452C97.0965 169.731 97.7941 169.99 98.5117 170.269L98.1928 195.464C101.94 195.643 127.313 192.434 131.04 192.634C140.428 189.983 149.816 187.351 159.183 184.641C160.26 184.322 161.236 183.584 162.273 183.046C155.337 183.963 148.4 184.88 141.484 185.797C148.42 184.88 155.337 183.963 162.273 183.046C164.445 182.448 166.618 181.87 168.81 181.272C174.112 181.013 179.414 180.754 184.696 180.475C187.187 179.06 189.679 177.664 192.19 176.249C192.23 176.249 192.29 176.229 192.33 176.209C192.33 176.209 192.23 176.229 192.19 176.249C189.699 177.664 187.187 179.06 184.696 180.475C183.48 180.754 182.244 181.033 181.008 181.312C185.035 181.352 189.001 181.152 192.928 180.774C193.047 182.608 193.306 185.019 193.824 186.255L209.929 212.168C211.304 212.985 216.088 214.34 216.606 213.922C218.699 212.227 220.911 210.772 223.084 209.237C226.333 207.563 229.582 205.909 232.811 204.234C243.634 200.208 254.476 196.182 265.299 192.155C265.02 191.338 264.721 190.521 264.442 189.684C264.721 190.501 265.02 191.318 265.299 192.155C254.476 196.182 243.634 200.208 232.811 204.234C233.688 204.234 234.644 204.493 235.402 204.234C245.587 200.806 255.732 197.318 265.877 193.83C267.213 193.77 268.668 194.069 269.863 193.61C278.394 190.282 286.785 186.514 295.416 183.465C308.331 178.9 321.407 174.794 334.422 170.489C335.678 170.548 337.073 170.947 338.189 170.588C343.371 168.874 348.434 166.881 353.616 165.186C354.732 164.828 356.107 165.226 357.383 165.266C358.081 165.007 358.778 164.768 359.476 164.509C360.313 163.691 361.21 163.014 361.987 162.037C362.844 160.941 363.582 159.585 364.359 158.33C365.455 157.413 366.571 156.496 367.668 155.579C366.731 155.36 365.814 155.12 364.877 154.901C365.595 153.586 366.312 152.27 367.05 150.975C366.332 152.29 365.615 153.606 364.877 154.901C365.814 155.12 366.731 155.36 367.668 155.579C373.229 152.529 378.79 149.48 384.35 146.43C390.071 144.177 396.13 142.563 396.887 140.37L395.791 135.606C409.205 132.597 422.38 128.69 434.877 121.993C441.275 118.644 447.653 115.295 454.051 111.947C455.327 110.133 456.582 108.299 457.858 106.485C458.416 104.412 458.974 102.319 459.532 100.246C459.532 98.3326 459.512 96.419 459.493 94.4856L459.512 94.4457ZM342.574 158.549C339.405 159.546 336.236 160.542 333.047 161.539C336.216 160.542 339.385 159.546 342.574 158.549ZM313.394 160.722C313.394 161.16 313.374 161.579 313.314 161.957C313.354 161.599 313.374 161.18 313.394 160.722C313.394 159.845 313.394 158.868 313.414 158.051C313.374 158.868 313.414 159.845 313.394 160.722ZM257.665 167.419C248.935 170.548 240.225 173.678 231.495 176.827C240.225 173.698 248.935 170.568 257.665 167.419ZM221.25 63.2911C217.583 63.2911 213.935 63.2911 210.268 63.2711C211.065 62.135 211.783 60.66 212.58 59.5238C211.783 60.6799 211.065 62.135 210.268 63.2711C213.935 63.2711 217.583 63.2911 221.25 63.311V63.2911ZM220.154 89.622C221.33 89.622 222.506 89.9011 223.642 90.4592C222.506 89.921 221.33 89.6419 220.154 89.622ZM241.022 94.366C239.946 94.0271 238.83 93.6683 237.634 93.2697C238.85 93.6484 239.946 94.0072 241.022 94.366ZM321.666 84.001C314.291 82.9446 306.936 81.8882 299.562 80.8317C306.936 81.8882 314.311 82.9446 321.666 84.001ZM118.822 75.5297C114.417 74.9516 110.012 74.3537 105.587 73.7756C109.992 74.3537 114.397 74.9516 118.822 75.5297ZM125.419 93.0106C129.824 92.4325 134.229 91.8545 138.654 91.2964C134.249 91.8744 129.844 92.4524 125.419 93.0106ZM244.63 170.528C242.996 171.126 241.441 171.924 239.767 172.422C241.421 171.924 242.996 171.126 244.63 170.528ZM364.837 75.5297C350.048 75.5297 335.239 75.5097 320.45 75.4898C320.609 75.4101 320.749 75.3104 320.908 75.2108C320.749 75.2905 320.609 75.3902 320.45 75.4898C335.239 75.4898 350.048 75.5097 364.837 75.5297ZM122.111 98.3126C118.862 98.4123 115.633 98.492 112.384 98.5917C115.633 98.492 118.862 98.4322 122.111 98.3126ZM283.277 159.705C283.078 159.705 282.879 159.705 282.699 159.705C282.899 159.705 283.098 159.705 283.277 159.705ZM277.497 49.1589C269.026 49.1589 260.535 49.1589 252.065 49.1589C260.535 49.1589 269.006 49.1589 277.497 49.1589ZM99.9667 133.932C102.598 133.274 105.209 132.637 107.84 131.979C112.264 131.919 116.689 131.879 121.134 131.819C116.709 131.879 112.284 131.919 107.84 131.979C105.209 132.637 102.598 133.274 99.9667 133.932C99.7076 133.972 99.4485 134.012 99.1694 134.052C99.4285 134.012 99.6876 133.972 99.9667 133.932ZM204.966 180.216C204.787 180.295 204.607 180.395 204.408 180.475C204.588 180.395 204.767 180.295 204.966 180.216ZM250.33 179.538C250.291 178.422 250.251 177.325 250.191 176.209C250.231 177.305 250.271 178.422 250.33 179.538ZM346.859 49.2984C347.218 49.2984 347.597 49.2984 347.955 49.2785C356.825 49.2785 365.694 49.2386 374.584 49.2386C365.714 49.2386 356.845 49.2785 347.955 49.2785C347.597 49.2785 347.218 49.2785 346.859 49.2984ZM225.635 49.1788C228.585 48.3217 231.535 47.1656 234.505 46.4281C231.535 47.1656 228.605 48.3217 225.635 49.1788ZM81.3506 113.701C86.4331 114.199 91.5157 114.677 96.5783 115.176C91.4958 114.677 86.4132 114.199 81.3506 113.701ZM93.6085 129.966C93.2298 131.162 92.871 132.357 92.4923 133.533C92.871 132.338 93.2298 131.142 93.6085 129.966ZM197.711 180.196C198.209 180.395 198.728 180.594 199.226 180.774C198.728 180.574 198.209 180.375 197.711 180.196ZM252.443 192.275C252.443 192.275 252.264 192.355 252.184 192.374C252.264 192.335 252.364 192.295 252.443 192.275ZM310.065 171.605C309.288 172.382 308.551 173.259 307.793 174.096C308.551 173.279 309.288 172.402 310.065 171.605Z" fill="black" fill-opacity="0.75"/>
<path d="M271.092 233.292C271.921 232.445 273.269 232.445 274.098 233.292C274.927 234.139 274.927 235.518 274.098 236.365C273.269 237.212 271.921 237.212 271.092 236.365C270.264 235.518 270.264 234.139 271.092 233.292ZM260.902 236.365C261.731 237.212 263.079 237.212 263.908 236.365C264.736 235.518 264.736 234.139 263.908 233.292C263.079 232.445 261.731 232.445 260.902 233.292C260.073 234.139 260.073 235.518 260.902 236.365ZM255.807 231.162C256.635 232.009 257.984 232.009 258.812 231.162C259.641 230.315 259.641 228.936 258.812 228.089C257.984 227.242 256.635 227.242 255.807 228.089C254.978 228.936 254.978 230.315 255.807 231.162ZM265.997 231.162C266.826 232.009 268.174 232.009 269.003 231.162C269.831 230.315 269.831 228.936 269.003 228.089C268.174 227.242 266.826 227.242 265.997 228.089C265.169 228.936 265.169 230.315 265.997 231.162ZM260.902 225.953C261.731 226.8 263.079 226.8 263.908 225.953C264.736 225.106 264.736 223.728 263.908 222.881C263.079 222.034 261.731 222.034 260.902 222.881C260.073 223.728 260.073 225.106 260.902 225.953ZM276.182 231.162C277.011 232.009 278.359 232.009 279.188 231.162C280.017 230.315 280.017 228.936 279.188 228.089C278.359 227.242 277.011 227.242 276.182 228.089C275.354 228.936 275.354 230.315 276.182 231.162ZM271.092 225.953C271.921 226.8 273.269 226.8 274.098 225.953C274.927 225.106 274.927 223.728 274.098 222.881C273.269 222.034 271.921 222.034 271.092 222.881C270.264 223.728 270.264 225.106 271.092 225.953ZM265.997 220.745C266.826 221.592 268.174 221.592 269.003 220.745C269.831 219.898 269.831 218.519 269.003 217.672C268.174 216.825 266.826 216.825 265.997 217.672C265.169 218.519 265.169 219.898 265.997 220.745ZM250.717 225.953C251.545 226.8 252.894 226.8 253.722 225.953C254.551 225.106 254.551 223.728 253.722 222.881C252.894 222.034 251.545 222.034 250.717 222.881C249.888 223.728 249.888 225.106 250.717 225.953ZM255.807 220.745C256.635 221.592 257.984 221.592 258.812 220.745C259.641 219.898 259.641 218.519 258.812 217.672C257.984 216.825 256.635 216.825 255.807 217.672C254.978 218.519 254.978 219.898 255.807 220.745ZM245.621 220.745C246.45 221.592 247.799 221.592 248.627 220.745C249.456 219.898 249.456 218.519 248.627 217.672C247.799 216.825 246.45 216.825 245.621 217.672C244.793 218.519 244.793 219.898 245.621 220.745ZM250.717 215.536C251.545 216.383 252.894 216.383 253.722 215.536C254.551 214.689 254.551 213.311 253.722 212.464C252.894 211.617 251.545 211.617 250.717 212.464C249.888 213.311 249.888 214.689 250.717 215.536ZM245.621 210.333C246.45 211.18 247.799 211.18 248.627 210.333C249.456 209.486 249.456 208.108 248.627 207.261C247.799 206.414 246.45 206.414 245.621 207.261C244.793 208.108 244.793 209.486 245.621 210.333ZM260.902 215.536C261.731 216.383 263.079 216.383 263.908 215.536C264.736 214.689 264.736 213.311 263.908 212.464C263.079 211.617 261.731 211.617 260.902 212.464C260.073 213.311 260.073 214.689 260.902 215.536ZM255.807 210.333C256.635 211.18 257.984 211.18 258.812 210.333C259.641 209.486 259.641 208.108 258.812 207.261C257.984 206.414 256.635 206.414 255.807 207.261C254.978 208.108 254.978 209.486 255.807 210.333ZM250.717 205.125C251.545 205.972 252.894 205.972 253.722 205.125C254.551 204.278 254.551 202.899 253.722 202.052C252.894 201.205 251.545 201.205 250.717 202.052C249.888 202.899 249.888 204.278 250.717 205.125ZM281.278 225.953C282.106 226.8 283.455 226.8 284.283 225.953C285.112 225.106 285.112 223.728 284.283 222.881C283.455 222.034 282.106 222.034 281.278 222.881C280.449 223.728 280.449 225.106 281.278 225.953ZM286.373 220.745C287.201 221.592 288.55 221.592 289.379 220.745C290.207 219.898 290.207 218.519 289.379 217.672C288.55 216.825 287.201 216.825 286.373 217.672C285.544 218.519 285.544 219.898 286.373 220.745ZM276.182 220.745C277.011 221.592 278.359 221.592 279.188 220.745C280.017 219.898 280.017 218.519 279.188 217.672C278.359 216.825 277.011 216.825 276.182 217.672C275.354 218.519 275.354 219.898 276.182 220.745ZM271.092 215.536C271.921 216.383 273.269 216.383 274.098 215.536C274.927 214.689 274.927 213.311 274.098 212.464C273.269 211.617 271.921 211.617 271.092 212.464C270.264 213.311 270.264 214.689 271.092 215.536ZM281.278 215.536C282.106 216.383 283.455 216.383 284.283 215.536C285.112 214.689 285.112 213.311 284.283 212.464C283.455 211.617 282.106 211.617 281.278 212.464C280.449 213.311 280.449 214.689 281.278 215.536ZM276.182 210.333C277.011 211.18 278.359 211.18 279.188 210.333C280.017 209.486 280.017 208.108 279.188 207.261C278.359 206.414 277.011 206.414 276.182 207.261C275.354 208.108 275.354 209.486 276.182 210.333ZM286.373 210.333C287.201 211.18 288.55 211.18 289.379 210.333C290.207 209.486 290.207 208.108 289.379 207.261C288.55 206.414 287.201 206.414 286.373 207.261C285.544 208.108 285.544 209.486 286.373 210.333ZM281.278 205.125C282.106 205.972 283.455 205.972 284.283 205.125C285.112 204.278 285.112 202.899 284.283 202.052C283.455 201.205 282.106 201.205 281.278 202.052C280.449 202.899 280.449 204.278 281.278 205.125ZM265.997 210.333C266.826 211.18 268.174 211.18 269.003 210.333C269.831 209.486 269.831 208.108 269.003 207.261C268.174 206.414 266.826 206.414 265.997 207.261C265.169 208.108 265.169 209.486 265.997 210.333ZM271.092 205.125C271.921 205.972 273.269 205.972 274.098 205.125C274.927 204.278 274.927 202.899 274.098 202.052C273.269 201.205 271.921 201.205 271.092 202.052C270.264 202.899 270.264 204.278 271.092 205.125ZM260.902 205.125C261.731 205.972 263.079 205.972 263.908 205.125C264.736 204.278 264.736 202.899 263.908 202.052C263.079 201.205 261.731 201.205 260.902 202.052C260.073 202.899 260.073 204.278 260.902 205.125ZM255.807 199.916C256.635 200.763 257.984 200.763 258.812 199.916C259.641 199.069 259.641 197.691 258.812 196.844C257.984 195.997 256.635 195.997 255.807 196.844C254.978 197.691 254.978 199.069 255.807 199.916ZM265.997 199.916C266.826 200.763 268.174 200.763 269.003 199.916C269.831 199.069 269.831 197.691 269.003 196.844C268.174 195.997 266.826 195.997 265.997 196.844C265.169 197.691 265.169 199.069 265.997 199.916ZM260.902 194.708C261.731 195.555 263.079 195.555 263.908 194.708C264.736 193.861 264.736 192.482 263.908 191.635C263.079 190.788 261.731 190.788 260.902 191.635C260.073 192.482 260.073 193.861 260.902 194.708ZM276.182 199.916C277.011 200.763 278.359 200.763 279.188 199.916C280.017 199.069 280.017 197.691 279.188 196.844C278.359 195.997 277.011 195.997 276.182 196.844C275.354 197.691 275.354 199.069 276.182 199.916ZM271.092 194.708C271.921 195.555 273.269 195.555 274.098 194.708C274.927 193.861 274.927 192.482 274.098 191.635C273.269 190.788 271.921 190.788 271.092 191.635C270.264 192.482 270.264 193.861 271.092 194.708Z" fill="url(#paint0_linear_232_2661)" fill-opacity="0.8"/>
<path d="M426.042 115.295C426.752 116.428 426.412 117.923 425.286 118.636C424.153 119.345 422.658 119.005 421.945 117.879C421.235 116.746 421.576 115.251 422.701 114.538C423.834 113.829 425.329 114.169 426.042 115.295ZM427.069 121.481C425.936 122.19 425.593 123.693 426.313 124.821C427.023 125.954 428.526 126.298 429.654 125.578C430.788 124.868 431.131 123.366 430.41 122.237C429.701 121.104 428.198 120.76 427.069 121.481ZM429.647 110.165C428.514 110.874 428.17 112.377 428.891 113.505C429.601 114.638 431.103 114.982 432.232 114.262C433.365 113.552 433.709 112.05 432.988 110.921C432.278 109.788 430.776 109.444 429.647 110.165ZM436.593 105.791C435.459 106.5 435.116 108.003 435.837 109.131C436.546 110.265 438.049 110.608 439.178 109.888C440.311 109.178 440.654 107.676 439.934 106.547C439.224 105.414 437.721 105.071 436.593 105.791ZM434.023 117.11C432.889 117.82 432.546 119.322 433.267 120.451C433.976 121.584 435.479 121.927 436.608 121.207C437.741 120.498 438.084 118.995 437.364 117.866C436.654 116.733 435.151 116.39 434.023 117.11ZM440.968 112.736C439.835 113.446 439.492 114.948 440.212 116.077C440.922 117.21 442.425 117.554 443.553 116.833C444.687 116.124 445.03 114.621 444.31 113.493C443.6 112.359 442.097 112.016 440.968 112.736ZM431.445 128.426C430.312 129.135 429.968 130.638 430.689 131.767C431.399 132.9 432.901 133.243 434.03 132.523C435.159 131.803 435.507 130.311 434.786 129.182C434.076 128.049 432.574 127.706 431.445 128.426ZM438.398 124.055C437.265 124.765 436.922 126.267 437.642 127.396C438.352 128.529 439.855 128.873 440.983 128.152C442.117 127.443 442.46 125.94 441.739 124.812C441.03 123.679 439.527 123.335 438.398 124.055ZM445.341 119.689C444.207 120.399 443.864 121.901 444.585 123.03C445.295 124.163 446.797 124.506 447.926 123.786C449.059 123.077 449.402 121.574 448.682 120.445C447.972 119.312 446.469 118.969 445.341 119.689ZM443.546 101.42C442.413 102.13 442.069 103.632 442.79 104.761C443.5 105.894 445.002 106.238 446.131 105.517C447.264 104.808 447.608 103.305 446.887 102.177C446.177 101.044 444.675 100.7 443.546 101.42ZM447.922 108.366C446.788 109.075 446.445 110.577 447.166 111.706C447.875 112.839 449.378 113.183 450.507 112.463C451.64 111.753 451.983 110.251 451.263 109.122C450.553 107.989 449.05 107.645 447.922 108.366ZM450.492 97.0465C449.358 97.756 449.015 99.2584 449.736 100.387C450.445 101.52 451.948 101.864 453.077 101.143C454.21 100.434 454.553 98.9316 453.833 97.8028C453.123 96.6697 451.62 96.3262 450.492 97.0465ZM457.437 92.6726C456.304 93.3821 455.961 94.8846 456.681 96.0133C457.391 97.1464 458.894 97.4899 460.023 96.7697C461.156 96.0601 461.499 94.5578 460.779 93.429C460.069 92.2959 458.566 91.9523 457.437 92.6726ZM454.867 103.992C453.734 104.701 453.391 106.204 454.111 107.332C454.821 108.466 456.324 108.809 457.453 108.089C458.586 107.379 458.929 105.877 458.209 104.748C457.499 103.615 455.996 103.272 454.867 103.992ZM461.813 99.6179C460.68 100.327 460.336 101.83 461.057 102.959C461.767 104.092 463.269 104.435 464.398 103.715C465.527 102.995 465.875 101.503 465.154 100.374C464.444 99.2413 462.942 98.8977 461.813 99.6179ZM452.294 115.318C451.161 116.028 450.817 117.53 451.538 118.659C452.248 119.792 453.751 120.136 454.879 119.416C456.012 118.706 456.356 117.204 455.635 116.075C454.925 114.942 453.423 114.598 452.294 115.318ZM459.24 110.945C458.106 111.654 457.763 113.157 458.484 114.285C459.193 115.418 460.696 115.762 461.825 115.042C462.958 114.332 463.302 112.83 462.581 111.701C461.871 110.568 460.368 110.224 459.24 110.945ZM466.185 106.571C465.052 107.28 464.709 108.783 465.429 109.911C466.139 111.045 467.642 111.388 468.771 110.668C469.904 109.958 470.247 108.456 469.527 107.327C468.817 106.194 467.314 105.851 466.185 106.571ZM435.817 135.379C434.684 136.088 434.341 137.591 435.061 138.719C435.771 139.853 437.274 140.196 438.403 139.476C439.536 138.766 439.879 137.264 439.159 136.135C438.449 135.002 436.946 134.659 435.817 135.379ZM440.193 142.324C439.06 143.034 438.716 144.536 439.437 145.665C440.147 146.798 441.649 147.142 442.778 146.421C443.911 145.712 444.255 144.209 443.534 143.081C442.824 141.947 441.322 141.604 440.193 142.324ZM442.771 131.008C441.637 131.718 441.294 133.22 442.015 134.349C442.724 135.482 444.227 135.826 445.356 135.105C446.489 134.396 446.832 132.893 446.112 131.765C445.402 130.632 443.899 130.288 442.771 131.008ZM449.716 126.634C448.583 127.344 448.24 128.846 448.96 129.975C449.67 131.108 451.173 131.452 452.302 130.731C453.435 130.022 453.778 128.52 453.058 127.391C452.348 126.258 450.845 125.914 449.716 126.634ZM447.146 137.954C446.013 138.663 445.67 140.165 446.39 141.294C447.1 142.427 448.603 142.771 449.731 142.051C450.865 141.341 451.208 139.839 450.488 138.71C449.778 137.577 448.275 137.233 447.146 137.954ZM454.092 133.58C452.959 134.289 452.615 135.792 453.336 136.92C454.046 138.054 455.548 138.397 456.677 137.677C457.806 136.957 458.154 135.465 457.433 134.336C456.723 133.203 455.221 132.859 454.092 133.58ZM444.565 149.277C443.432 149.987 443.089 151.489 443.809 152.618C444.519 153.751 446.022 154.094 447.151 153.374C448.284 152.665 448.627 151.162 447.907 150.033C447.197 148.9 445.694 148.557 444.565 149.277ZM451.519 144.906C450.385 145.616 450.042 147.118 450.763 148.247C451.472 149.38 452.975 149.724 454.104 149.003C455.237 148.294 455.58 146.792 454.86 145.663C454.15 144.53 452.647 144.186 451.519 144.906ZM458.464 140.533C457.331 141.242 456.988 142.745 457.708 143.873C458.418 145.006 459.921 145.35 461.05 144.63C462.183 143.92 462.526 142.418 461.806 141.289C461.096 140.156 459.593 139.812 458.464 140.533ZM456.662 122.261C455.529 122.97 455.185 124.473 455.906 125.601C456.616 126.734 458.119 127.078 459.247 126.358C460.38 125.648 460.724 124.146 460.003 123.017C459.293 121.884 457.791 121.54 456.662 122.261ZM461.038 129.206C459.904 129.915 459.561 131.418 460.282 132.547C460.991 133.68 462.494 134.023 463.623 133.303C464.752 132.583 465.1 131.091 464.379 129.962C463.669 128.829 462.166 128.486 461.038 129.206ZM463.615 117.89C462.482 118.599 462.139 120.102 462.859 121.231C463.569 122.364 465.072 122.707 466.201 121.987C467.334 121.277 467.677 119.775 466.957 118.646C466.247 117.513 464.744 117.17 463.615 117.89ZM470.561 113.516C469.428 114.226 469.084 115.728 469.805 116.857C470.515 117.99 472.018 118.333 473.146 117.613C474.275 116.893 474.623 115.401 473.902 114.273C473.192 113.139 471.69 112.796 470.561 113.516ZM467.991 124.835C466.858 125.545 466.514 127.047 467.235 128.176C467.945 129.309 469.447 129.653 470.576 128.932C471.709 128.223 472.053 126.72 471.332 125.592C470.622 124.459 469.12 124.115 467.991 124.835ZM474.933 120.469C473.8 121.179 473.457 122.681 474.178 123.81C474.887 124.943 476.39 125.286 477.519 124.566C478.652 123.857 478.995 122.354 478.275 121.225C477.565 120.092 476.062 119.749 474.933 120.469ZM465.41 136.159C464.277 136.868 463.933 138.371 464.654 139.499C465.364 140.633 466.867 140.976 467.995 140.256C469.129 139.546 469.472 138.044 468.751 136.915C468.042 135.782 466.539 135.439 465.41 136.159ZM472.363 131.788C471.23 132.498 470.887 134 471.607 135.129C472.317 136.262 473.82 136.606 474.949 135.885C476.082 135.176 476.425 133.673 475.705 132.545C474.995 131.412 473.492 131.068 472.363 131.788ZM479.309 127.414C478.176 128.124 477.833 129.626 478.553 130.755C479.263 131.888 480.766 132.232 481.894 131.511C483.028 130.802 483.371 129.3 482.65 128.171C481.93 127.042 480.438 126.694 479.309 127.414Z" fill="url(#paint1_linear_232_2661)"/>
<path d="M205.729 5.60402C205.509 5.60402 205.282 5.54782 205.076 5.42138L199.895 2.32366C199.299 1.96542 199.107 1.19273 199.469 0.602684C199.832 0.0126385 200.613 -0.177045 201.21 0.181197L206.39 3.27896C206.987 3.6372 207.179 4.40989 206.817 4.99993C206.575 5.3933 206.156 5.60402 205.729 5.60402ZM205.353 10.219C205.715 9.62898 205.523 8.85629 204.927 8.49805L195.447 2.83642C194.85 2.47818 194.069 2.66782 193.706 3.25787C193.344 3.84791 193.536 4.6206 194.133 4.97884L203.612 10.6405C203.818 10.7599 204.045 10.8231 204.266 10.8231C204.692 10.8231 205.111 10.6054 205.353 10.219ZM203.889 15.4381C204.251 14.8481 204.06 14.0754 203.463 13.7171L189.698 5.4916C189.102 5.13336 188.32 5.32305 187.957 5.91309C187.595 6.50314 187.787 7.27582 188.384 7.63407L202.148 15.8596C202.354 15.979 202.582 16.0422 202.802 16.0422C203.228 16.0422 203.647 15.8244 203.889 15.4381ZM202.432 20.6572C202.795 20.0671 202.603 19.2945 202.006 18.9362L183.943 8.1398C183.346 7.78156 182.564 7.97124 182.202 8.56128C181.839 9.15133 182.031 9.92397 182.628 10.2822L200.691 21.0786C200.897 21.1981 201.125 21.2613 201.345 21.2613C201.771 21.2613 202.191 21.0435 202.432 20.6572ZM200.976 25.8763C201.338 25.2862 201.146 24.5136 200.549 24.1553L178.194 10.788C177.597 10.4297 176.815 10.6194 176.453 11.2094C176.09 11.7995 176.282 12.5722 176.879 12.9304L199.235 26.2978C199.441 26.4172 199.668 26.4804 199.888 26.4804C200.315 26.4804 200.734 26.2626 200.976 25.8763ZM199.512 31.0954C199.874 30.5053 199.682 29.7326 199.085 29.3744L172.431 13.4432C171.834 13.0849 171.052 13.2746 170.69 13.8647C170.328 14.4547 170.519 15.2274 171.116 15.5856L197.771 31.5169C197.977 31.6363 198.204 31.6995 198.425 31.6995C198.851 31.6995 199.27 31.4817 199.512 31.0954ZM198.055 36.3145C198.417 35.7244 198.226 34.9518 197.629 34.5935L166.682 16.0984C166.085 15.7402 165.304 15.9298 164.941 16.5198C164.579 17.1099 164.771 17.8826 165.368 18.2408L196.314 36.7359C196.52 36.8554 196.748 36.9186 196.968 36.9186C197.394 36.9186 197.813 36.7008 198.055 36.3145ZM196.591 41.5335C196.954 40.9435 196.762 40.1709 196.165 39.8126L160.926 18.7466C160.329 18.3884 159.548 18.578 159.185 19.168C158.823 19.7581 159.015 20.5308 159.612 20.889L194.85 41.955C195.056 42.0744 195.284 42.1377 195.504 42.1377C195.93 42.1377 196.35 41.9199 196.591 41.5335ZM195.134 46.7456C195.497 46.1556 195.305 45.3829 194.708 45.0247L155.178 21.3947C154.581 21.0365 153.799 21.2262 153.437 21.8162C153.074 22.4063 153.266 23.1789 153.863 23.5372L193.394 47.1671C193.6 47.2865 193.827 47.3497 194.047 47.3497C194.474 47.3497 194.893 47.132 195.134 46.7456ZM193.671 51.9647C194.033 51.3747 193.841 50.602 193.244 50.2438L149.422 24.0429C148.825 23.6847 148.043 23.8743 147.681 24.4644C147.318 25.0544 147.51 25.8271 148.107 26.1854L191.93 52.3862C192.136 52.5056 192.363 52.5688 192.583 52.5688C193.01 52.5688 193.429 52.3511 193.671 51.9647ZM192.214 57.1838C192.576 56.5938 192.384 55.8211 191.788 55.4628L143.673 26.6981C143.076 26.3399 142.294 26.5296 141.932 27.1196C141.57 27.7097 141.762 28.4823 142.358 28.8406L190.473 57.6053C190.679 57.7247 190.906 57.7879 191.127 57.7879C191.553 57.7879 191.972 57.5702 192.214 57.1838ZM190.757 62.3959C191.12 61.8058 190.928 61.0331 190.331 60.6749L137.924 29.3463C137.327 28.9881 136.546 29.1777 136.183 29.7678C135.821 30.3578 136.013 31.1305 136.61 31.4887L189.016 62.8174C189.222 62.9368 189.45 63 189.67 63C190.096 63 190.516 62.7822 190.757 62.3959Z" fill="url(#paint2_linear_232_2661)"/>
<path d="M0.633439 161.189L4.54605 168.781L0 171L0.639656 161.189H0.633439ZM7.19166 167.491L12.7624 164.777L1.78239 143.469L0.999872 155.486L7.18548 167.497L7.19166 167.491ZM15.4081 163.488L20.9789 160.774L2.93131 125.748L2.14879 137.766L15.4018 163.494L15.4081 163.488ZM23.6307 159.484L29.2015 156.77L8.93683 117.429L3.7014 114L3.31014 120.039L23.6307 159.484ZM31.8472 155.48L37.4179 152.766L24.4567 127.607L13.9362 120.712L31.8534 155.486L31.8472 155.48ZM40.0636 151.47L45.6343 148.756L39.9766 137.772L29.4561 130.877L40.0636 151.47ZM44.976 141.048L48.28 147.466L52 145.651L44.976 141.048Z" fill="url(#paint3_linear_232_2661)"/>
<defs>
<linearGradient id="paint0_linear_232_2661" x1="253.264" y1="228.557" x2="282.367" y2="200.088" gradientUnits="userSpaceOnUse">
<stop stop-color="#CAEDC2"/>
<stop offset="1" stop-color="#FFEDA6"/>
</linearGradient>
<linearGradient id="paint1_linear_232_2661" x1="428.091" y1="132.958" x2="476.5" y2="113.081" gradientUnits="userSpaceOnUse">
<stop stop-color="#FFD2A6"/>
<stop offset="1" stop-color="#FFC4CE"/>
</linearGradient>
<linearGradient id="paint2_linear_232_2661" x1="157.388" y1="52.0912" x2="206.035" y2="2.87849" gradientUnits="userSpaceOnUse">
<stop stop-color="#D6D0F7"/>
<stop offset="1" stop-color="#FFC4CE"/>
</linearGradient>
<linearGradient id="paint3_linear_232_2661" x1="-0.00621044" y1="142.497" x2="52" y2="142.497" gradientUnits="userSpaceOnUse">
<stop stop-color="#BDE3FF"/>
<stop offset="1" stop-color="#FFC4CE"/>
</linearGradient>
</defs>
</svg>
