<svg width="293" height="46" viewBox="0 0 293 46" fill="none" xmlns="http://www.w3.org/2000/svg">
<g filter="url(#filter0_d_232_4234)">
<path d="M284.139 23.5839L284.623 23.4959C285.019 23.4079 285.679 23.2759 285.943 23.2759C287.571 23.2759 288.363 24.4639 288.363 26.1799C288.363 27.6759 287.703 28.3799 286.251 28.6439L284.139 29.0839V39.2039C284.139 41.1839 283.215 41.9319 281.279 41.9319C279.475 41.9319 278.683 40.9639 278.683 39.2039V30.1399L267.683 32.2519C267.155 32.3399 266.363 32.5159 266.011 32.5159C264.383 32.5159 263.767 30.8439 263.767 29.5679C263.767 28.1159 264.427 27.3679 265.835 27.1039L278.683 24.6399V2.81589C278.683 0.791893 279.607 0.0878906 281.543 0.0878906C283.347 0.0878906 284.139 1.05589 284.139 2.81589V23.5839ZM259.235 6.20389V11.5719H261.743C263.327 11.5719 264.383 12.4079 264.383 14.0799C264.383 15.7519 263.327 16.5879 261.743 16.5879H259.235V17.0279C260.907 19.7999 261.963 21.0319 264.075 23.4079C264.559 23.9359 264.867 24.5079 264.867 25.2559C264.867 26.4439 263.987 27.7199 262.711 27.7199C261.259 27.7199 260.159 25.8719 259.235 23.9359V39.1599C259.235 40.8759 258.487 41.8879 256.683 41.8879C254.879 41.8879 254.087 40.8759 254.087 39.1599V27.4999C253.559 28.6879 252.899 29.7879 252.239 30.9319C251.667 31.9439 250.611 33.7479 249.291 33.7479C247.795 33.7479 246.431 32.2519 246.431 30.7999C246.431 29.7879 246.959 29.1279 247.531 28.3799C250.655 24.5079 252.327 21.2959 253.911 16.5879H249.687C248.015 16.5879 246.915 15.8839 246.915 14.0799C246.915 12.2759 248.015 11.5719 249.687 11.5719H254.087V6.99589C252.855 7.17189 251.183 7.34789 249.951 7.34789C248.191 7.34789 247.179 6.68789 247.179 4.75189C247.179 2.85989 247.751 2.41989 252.107 2.24389C255.407 2.11189 258.091 1.45189 261.259 0.703891C261.611 0.615892 261.963 0.571893 262.315 0.571893C263.591 0.571893 264.471 1.75989 264.471 3.12389C264.471 5.27989 262.931 5.54389 259.235 6.20389ZM270.147 2.41989C271.115 2.41989 272.787 3.65189 273.887 4.57589C275.119 5.54389 277.099 7.12789 277.099 8.35989C277.099 9.72389 275.779 11.2639 274.371 11.2639C273.491 11.2639 272.215 10.2959 271.115 9.32789C270.455 8.75589 269.839 8.18389 269.355 7.78789C267.991 6.64389 267.419 6.15989 267.419 5.23589C267.419 3.95989 268.563 2.41989 270.147 2.41989ZM268.343 13.5079C269.091 13.5079 269.795 13.9039 272.127 15.7519C274.547 17.6439 275.251 18.6119 275.251 19.4919C275.251 20.8559 273.755 22.4399 272.303 22.4399C271.423 22.4399 270.587 21.6479 269.223 20.3719C268.651 19.8439 268.035 19.2719 267.287 18.6119C266.275 17.7759 265.659 17.1599 265.659 16.1919C265.659 14.8719 267.023 13.5079 268.343 13.5079Z" fill="#E75297"/>
<path d="M212.463 7.48H219.811C219.239 6.644 218.579 5.192 218.095 4.136C217.787 3.52 217.479 2.86 217.479 2.156C217.479 0.659999 219.371 0 220.603 0C222.187 0 222.627 0.924001 223.287 2.2C223.859 3.256 224.651 4.708 224.651 5.94C224.651 6.6 224.519 7.04 223.991 7.48H229.623C230.415 6.116 231.163 4.708 231.823 3.256C232.703 1.232 233.099 0.352 234.771 0.352C236.179 0.352 237.895 1.1 237.895 2.684C237.895 3.916 236.311 6.38 235.563 7.48H236.839C238.027 7.48 239.303 8.008 240.051 8.976C240.755 9.944 240.931 11.352 240.931 12.54V15.796C240.931 17.864 240.007 18.48 238.027 18.48C236.223 18.48 235.431 17.6 235.431 15.84V13.464C235.431 12.628 234.991 12.188 234.155 12.188H208.503C207.623 12.188 207.227 12.628 207.227 13.464V15.796C207.227 17.864 206.303 18.48 204.367 18.48C202.563 18.48 201.727 17.6 201.727 15.84V12.54C201.727 8.888 203.179 7.48 206.831 7.48H207.667C207.315 6.776 206.963 6.116 206.567 5.456C205.731 4.048 205.291 3.344 205.291 2.596C205.291 1.188 207.139 0.352 208.371 0.352C209.955 0.352 210.571 1.452 211.275 2.684C211.847 3.608 212.771 5.324 212.771 6.38C212.771 6.82 212.683 7.084 212.463 7.48ZM224.431 30.756V36.3C224.431 40.436 222.847 41.492 218.931 41.58C218.359 41.58 217.127 41.58 215.895 41.58C214.355 41.58 212.727 41.58 212.155 41.448C210.923 41.184 210.439 39.82 210.439 38.72C210.439 37.048 211.319 36.168 212.991 36.168C214.179 36.168 215.411 36.212 216.599 36.212C218.183 36.212 218.623 35.86 218.623 34.276V30.756H203.179C201.419 30.756 200.495 30.008 200.495 28.16C200.495 26.444 201.551 25.784 203.179 25.784H218.623V24.64C218.623 23.54 219.327 23.144 220.339 23.1C224.167 21.384 225.355 20.636 225.355 20.284C225.355 20.02 224.827 20.02 224.695 20.02H209.779C208.195 20.02 207.447 19.228 207.447 17.644C207.447 16.148 208.371 15.224 209.823 15.224H231.251C232.747 15.224 234.727 15.312 234.727 17.82C234.727 20.02 233.143 21.076 231.515 22.132C229.007 23.76 227.291 24.552 224.607 25.784H239.391C241.151 25.784 242.119 26.488 242.119 28.292C242.119 30.052 241.019 30.756 239.391 30.756H224.431Z" fill="#E75297"/>
<path d="M177.976 27.1918C181.936 25.3438 185.192 23.2758 188.448 20.6358C189.548 19.7118 190.296 19.2278 191.264 19.2278C192.892 19.2278 193.992 20.7238 193.992 22.2638C193.992 23.2318 193.464 24.0678 192.76 24.6838C191.22 26.0918 189.592 27.2798 187.92 28.4238C185.28 30.1838 178.196 34.4958 175.292 34.4958C172.784 34.4958 172.036 32.8238 172.036 30.6238V9.59182C172.036 7.56782 173.136 6.81982 175.028 6.81982C176.832 6.81982 177.976 7.69982 177.976 9.59182V27.1918ZM165.48 7.87582C167.856 7.87582 168.516 8.93182 168.516 11.1318C168.516 16.2358 167.944 21.3838 165.92 26.1358C164.776 28.8198 163.236 31.3278 161.212 33.4398C160.288 34.4078 159.276 35.3318 157.868 35.3318C156.24 35.3318 154.612 34.0118 154.612 32.3398C154.612 31.4158 155.096 30.7558 155.712 30.1398C160.508 25.2998 162.488 19.4918 162.488 12.9798V11.7918C162.488 9.59182 162.576 7.87582 165.48 7.87582Z" fill="#E75297"/>
<path d="M134.22 16.5441C132.592 22.3961 130.128 28.0721 126.432 32.9561C125.156 34.6721 122.296 38.3241 120.008 38.3241C118.424 38.3241 116.928 37.0921 116.928 35.4201C116.928 34.2761 117.676 33.5721 118.468 32.8241C123.176 28.3361 126.3 22.6601 128.06 16.5441H120.316C118.424 16.5441 117.412 15.6201 117.412 13.6841C117.412 11.8361 118.512 10.9561 120.316 10.9561H129.336C129.644 9.24008 129.82 7.70008 129.952 5.76408C130.084 3.74008 130.7 2.68408 132.9 2.68408C134.704 2.68408 135.936 3.43208 135.936 5.36808C135.936 7.26008 135.672 9.15208 135.408 10.9561H140.688C143.988 10.9561 146.936 11.8361 146.936 15.7521C146.936 19.0081 145.704 25.6961 144.912 28.9961C143.812 33.5281 142.184 37.4001 136.816 37.4001C135.232 37.4001 133.472 37.1801 132.02 36.5201C130.964 36.0361 130.48 35.0241 130.48 33.8801C130.48 32.4721 131.184 31.0201 132.9 31.0201C133.516 31.0201 135.628 31.5921 136.2 31.5921C138.092 31.5921 138.708 29.5681 139.236 27.6321C139.984 24.9041 140.336 22.1761 140.732 19.3601C140.864 18.4361 140.952 17.7761 140.952 17.4681C140.952 16.8081 140.6 16.5441 139.984 16.5441H134.22Z" fill="#E75297"/>
<path d="M76.391 18.04H107.455C109.215 18.04 110.491 19.272 110.491 21.032C110.491 22.836 109.171 24.024 107.455 24.024H76.347C74.631 24.024 73.355 22.924 73.355 21.032C73.355 19.14 74.587 18.128 76.391 18.04Z" fill="#E75297"/>
<path d="M52.9919 28.4242C51.0559 30.8442 48.8559 33.0002 46.4799 34.9802C44.6319 36.5202 42.5639 38.1922 41.1999 38.1922C39.7479 38.1922 38.5159 37.0042 38.5159 35.5522C38.5159 34.5402 39.1319 33.8802 39.9239 33.3522C43.7959 30.7122 47.2719 27.6762 50.2639 24.1122L42.6079 24.2442C41.3759 24.2442 39.9239 23.8042 39.9239 21.6482C39.9239 20.1522 40.8039 19.2722 42.4759 19.2282L52.8599 19.0522L52.7719 14.2122C52.7719 13.0242 53.2119 11.6602 55.3679 11.6602C57.1279 11.6602 57.9199 12.4082 57.9639 14.0362L58.0519 18.9202L64.1679 18.8322C65.6639 18.8322 66.8079 19.2722 66.8079 21.3842C66.8079 22.9242 65.8839 23.8042 64.2999 23.8482L58.1399 23.9362L58.3159 36.2562C58.3159 36.8722 58.2279 38.5882 57.2599 39.5562C56.3359 40.4802 55.0599 40.8762 53.2119 40.8762C51.2319 40.8762 49.2519 40.7002 49.2519 38.2362C49.2519 37.0482 49.8679 35.9042 51.2759 35.9042C51.6279 35.9042 52.1999 35.9922 52.4639 35.9922C52.9479 35.9922 53.0799 35.9042 53.0799 35.3322L52.9919 28.4242Z" fill="#E75297"/>
<path d="M29.92 1.89216C29.92 1.01216 30.756 0.26416 31.592 0.26416C32.428 0.26416 34.364 2.20016 35.112 2.94816C36.212 4.09216 36.696 4.88416 36.696 5.41216C36.696 6.29216 35.904 6.99616 35.024 6.99616C34.452 6.99616 34.056 6.64416 33.704 6.20416C32.78 5.14816 31.812 4.18016 30.756 3.25616C30.316 2.86016 29.92 2.46416 29.92 1.89216ZM12.144 8.44816V4.79616C12.144 2.72816 13.288 1.89216 15.268 1.89216C17.16 1.89216 18.172 2.90416 18.172 4.79616V8.44816H24.508C28.468 8.44816 30.624 10.0762 30.624 14.2122C30.624 20.0642 27.412 27.0602 23.628 31.5482C21.032 34.5842 17.996 37.0482 14.3 38.8962C12.804 39.6442 11.88 40.0842 10.912 40.0842C9.152 40.0842 7.832 38.5442 7.832 36.8282C7.832 35.4202 8.976 34.8042 10.12 34.3202C15.708 31.9442 19.888 28.2042 22.396 22.7922C23.408 20.6362 24.552 17.3802 24.552 15.0042C24.552 14.1682 24.2 13.9482 23.408 13.9482H7.26C6.292 13.9482 5.896 14.3442 5.896 15.4442V21.3842C5.896 23.3202 4.84 24.2882 2.904 24.2882C1.012 24.2882 0 23.2322 0 21.3842V14.9162C0 10.7802 2.156 8.44816 6.336 8.44816H12.144ZM26.356 4.97216C26.356 4.04816 27.148 3.34416 28.028 3.34416C28.644 3.34416 29.744 4.31216 30.976 5.45616C32.384 6.77616 33.132 7.87616 33.132 8.44816C33.132 9.37216 32.296 10.0762 31.416 10.0762C30.8 10.0762 30.448 9.63616 29.656 8.75616C28.776 7.78816 28.072 7.08416 27.148 6.33616C26.62 5.89616 26.356 5.54416 26.356 4.97216Z" fill="#E75297"/>
</g>
<defs>
<filter id="filter0_d_232_4234" x="0" y="0" width="292.363" height="45.9316" filterUnits="userSpaceOnUse" color-interpolation-filters="sRGB">
<feFlood flood-opacity="0" result="BackgroundImageFix"/>
<feColorMatrix in="SourceAlpha" type="matrix" values="0 0 0 0 0 0 0 0 0 0 0 0 0 0 0 0 0 0 127 0" result="hardAlpha"/>
<feOffset dx="4" dy="4"/>
<feComposite in2="hardAlpha" operator="out"/>
<feColorMatrix type="matrix" values="0 0 0 0 0 0 0 0 0 0 0 0 0 0 0 0 0 0 0.6 0"/>
<feBlend mode="normal" in2="BackgroundImageFix" result="effect1_dropShadow_232_4234"/>
<feBlend mode="normal" in="SourceGraphic" in2="effect1_dropShadow_232_4234" result="shape"/>
</filter>
</defs>
</svg>
