<svg width="375" height="47" viewBox="0 0 375 47" fill="none" xmlns="http://www.w3.org/2000/svg">
<g filter="url(#filter0_d_232_4104)">
<path d="M365.939 23.7157L366.423 23.6277C366.819 23.5397 367.479 23.4077 367.743 23.4077C369.371 23.4077 370.163 24.5957 370.163 26.3117C370.163 27.8077 369.503 28.5117 368.051 28.7757L365.939 29.2157V39.3357C365.939 41.3157 365.015 42.0637 363.079 42.0637C361.275 42.0637 360.483 41.0957 360.483 39.3357V30.2717L349.483 32.3837C348.955 32.4717 348.163 32.6477 347.811 32.6477C346.183 32.6477 345.567 30.9757 345.567 29.6997C345.567 28.2477 346.227 27.4997 347.635 27.2357L360.483 24.7717V2.94773C360.483 0.923729 361.407 0.219727 363.343 0.219727C365.147 0.219727 365.939 1.18773 365.939 2.94773V23.7157ZM341.035 6.33573V11.7037H343.543C345.127 11.7037 346.183 12.5397 346.183 14.2117C346.183 15.8837 345.127 16.7197 343.543 16.7197H341.035V17.1597C342.707 19.9317 343.763 21.1637 345.875 23.5397C346.359 24.0677 346.667 24.6397 346.667 25.3877C346.667 26.5757 345.787 27.8517 344.511 27.8517C343.059 27.8517 341.959 26.0037 341.035 24.0677V39.2917C341.035 41.0077 340.287 42.0197 338.483 42.0197C336.679 42.0197 335.887 41.0077 335.887 39.2917V27.6317C335.359 28.8197 334.699 29.9197 334.039 31.0637C333.467 32.0757 332.411 33.8797 331.091 33.8797C329.595 33.8797 328.231 32.3837 328.231 30.9317C328.231 29.9197 328.759 29.2597 329.331 28.5117C332.455 24.6397 334.127 21.4277 335.711 16.7197H331.487C329.815 16.7197 328.715 16.0157 328.715 14.2117C328.715 12.4077 329.815 11.7037 331.487 11.7037H335.887V7.12773C334.655 7.30373 332.983 7.47973 331.751 7.47973C329.991 7.47973 328.979 6.81973 328.979 4.88373C328.979 2.99173 329.551 2.55173 333.907 2.37573C337.207 2.24373 339.891 1.58373 343.059 0.835727C343.411 0.747728 343.763 0.703729 344.115 0.703729C345.391 0.703729 346.271 1.89173 346.271 3.25573C346.271 5.41173 344.731 5.67573 341.035 6.33573ZM351.947 2.55173C352.915 2.55173 354.587 3.78373 355.687 4.70773C356.919 5.67573 358.899 7.25973 358.899 8.49173C358.899 9.85573 357.579 11.3957 356.171 11.3957C355.291 11.3957 354.015 10.4277 352.915 9.45973C352.255 8.88773 351.639 8.31573 351.155 7.91973C349.791 6.77573 349.219 6.29173 349.219 5.36773C349.219 4.09173 350.363 2.55173 351.947 2.55173ZM350.143 13.6397C350.891 13.6397 351.595 14.0357 353.927 15.8837C356.347 17.7757 357.051 18.7437 357.051 19.6237C357.051 20.9877 355.555 22.5717 354.103 22.5717C353.223 22.5717 352.387 21.7797 351.023 20.5037C350.451 19.9757 349.835 19.4037 349.087 18.7437C348.075 17.9077 347.459 17.2917 347.459 16.3237C347.459 15.0037 348.823 13.6397 350.143 13.6397Z" fill="#29B5B2"/>
<path d="M294.263 7.61184H301.611C301.039 6.77584 300.379 5.32384 299.895 4.26783C299.587 3.65183 299.279 2.99184 299.279 2.28784C299.279 0.791835 301.171 0.131836 302.403 0.131836C303.987 0.131836 304.427 1.05584 305.087 2.33184C305.659 3.38784 306.451 4.83984 306.451 6.07184C306.451 6.73184 306.319 7.17184 305.791 7.61184H311.423C312.215 6.24784 312.963 4.83984 313.623 3.38784C314.503 1.36384 314.899 0.483836 316.571 0.483836C317.979 0.483836 319.695 1.23183 319.695 2.81583C319.695 4.04783 318.111 6.51184 317.363 7.61184H318.639C319.827 7.61184 321.103 8.13984 321.851 9.10784C322.555 10.0758 322.731 11.4838 322.731 12.6718V15.9278C322.731 17.9958 321.807 18.6118 319.827 18.6118C318.023 18.6118 317.231 17.7318 317.231 15.9718V13.5958C317.231 12.7598 316.791 12.3198 315.955 12.3198H290.303C289.423 12.3198 289.027 12.7598 289.027 13.5958V15.9278C289.027 17.9958 288.103 18.6118 286.167 18.6118C284.363 18.6118 283.527 17.7318 283.527 15.9718V12.6718C283.527 9.01984 284.979 7.61184 288.631 7.61184H289.467C289.115 6.90784 288.763 6.24784 288.367 5.58784C287.531 4.17984 287.091 3.47583 287.091 2.72784C287.091 1.31984 288.939 0.483836 290.171 0.483836C291.755 0.483836 292.371 1.58384 293.075 2.81583C293.647 3.73984 294.571 5.45584 294.571 6.51184C294.571 6.95184 294.483 7.21584 294.263 7.61184ZM306.231 30.8878V36.4318C306.231 40.5678 304.647 41.6238 300.731 41.7118C300.159 41.7118 298.927 41.7118 297.695 41.7118C296.155 41.7118 294.527 41.7118 293.955 41.5798C292.723 41.3158 292.239 39.9518 292.239 38.8518C292.239 37.1798 293.119 36.2998 294.791 36.2998C295.979 36.2998 297.211 36.3438 298.399 36.3438C299.983 36.3438 300.423 35.9918 300.423 34.4078V30.8878H284.979C283.219 30.8878 282.295 30.1398 282.295 28.2918C282.295 26.5758 283.351 25.9158 284.979 25.9158H300.423V24.7718C300.423 23.6718 301.127 23.2758 302.139 23.2318C305.967 21.5158 307.155 20.7678 307.155 20.4158C307.155 20.1518 306.627 20.1518 306.495 20.1518H291.579C289.995 20.1518 289.247 19.3598 289.247 17.7758C289.247 16.2798 290.171 15.3558 291.623 15.3558H313.051C314.547 15.3558 316.527 15.4438 316.527 17.9518C316.527 20.1518 314.943 21.2078 313.315 22.2638C310.807 23.8918 309.091 24.6838 306.407 25.9158H321.191C322.951 25.9158 323.919 26.6198 323.919 28.4238C323.919 30.1838 322.819 30.8878 321.191 30.8878H306.231Z" fill="#29B5B2"/>
<path d="M248.812 6.64362V3.03562C248.812 1.18762 249.648 0.307617 251.54 0.307617C253.3 0.307617 254.092 1.36362 254.092 3.03562V6.64362H259.9V3.03562C259.9 1.18762 260.736 0.307617 262.628 0.307617C264.432 0.307617 265.18 1.31962 265.18 3.03562V6.64362H270.856C274.772 6.64362 276.312 8.18362 276.312 12.0996V35.2876C276.312 39.2036 274.772 40.7436 270.856 40.7436H243.048C239.132 40.7436 237.592 39.2036 237.592 35.2876V12.0996C237.592 8.18362 239.132 6.64362 243.048 6.64362H248.812ZM248.812 21.0756V11.6596H244.456C243.4 11.6596 242.916 12.1876 242.916 13.1996V21.0756H248.812ZM259.9 21.0756V11.6596H254.092V21.0756H259.9ZM265.18 21.0756H271.032V13.1996C271.032 12.1876 270.548 11.6596 269.492 11.6596H265.18V21.0756ZM248.812 25.9596H242.916V34.2756C242.916 35.2876 243.4 35.8156 244.456 35.8156H248.812V25.9596ZM259.9 25.9596H254.092V35.8156H259.9V25.9596ZM265.18 25.9596V35.8156H269.492C270.504 35.8156 271.032 35.2876 271.032 34.2756V25.9596H265.18Z" fill="#29B5B2"/>
<path d="M212.071 12.2316C210.883 14.3436 209.475 16.8956 207.979 18.7876C207.363 19.4916 206.835 20.0196 205.823 20.0196C204.151 20.0196 202.831 18.5676 202.831 16.9396C202.831 15.7956 204.063 14.4756 205.515 12.4956C207.275 10.1636 209.519 5.49962 210.267 2.68362C210.663 1.05562 211.103 0.307617 212.907 0.307617C214.447 0.307617 215.899 0.791616 215.899 2.55162C215.899 3.47562 215.195 5.32362 214.843 6.24762H228.791C230.771 6.24762 231.475 7.12762 231.475 9.06362C231.475 10.8676 230.507 11.6156 228.791 11.6156H217.703V16.9396H227.867C229.627 16.9396 230.551 17.6876 230.551 19.5356C230.551 21.3396 229.671 22.1756 227.867 22.1756H217.703V27.5436H227.867C229.847 27.5436 230.551 28.4236 230.551 30.3596C230.551 32.1636 229.539 32.8676 227.867 32.8676H217.703V39.3356C217.703 41.4916 216.691 42.0196 214.667 42.0196C212.819 42.0196 212.071 41.0956 212.071 39.3356V12.2316ZM201.335 10.3396V39.3356C201.335 41.4916 200.279 42.0196 198.255 42.0196C196.407 42.0196 195.659 41.1396 195.659 39.3356V20.0196C194.515 21.5596 193.723 22.6596 192.491 22.6596C190.775 22.6596 189.587 20.9436 189.587 19.3596C189.587 17.6436 190.995 16.3236 193.019 13.7276C195.483 10.6036 197.331 6.11562 198.563 2.33162C199.003 0.967617 199.487 0.395616 201.027 0.395616C202.391 0.395616 203.931 1.05562 203.931 2.63962C203.931 4.17962 202.171 8.40362 201.335 10.3396Z" fill="#29B5B2"/>
<path d="M173.102 15.9717C175.962 15.9717 178.294 18.3037 178.294 21.1637C178.294 24.0237 175.962 26.3557 173.102 26.3557C170.242 26.3557 167.91 24.0237 167.91 21.1637C167.91 18.3037 170.242 15.9717 173.102 15.9717Z" fill="#29B5B2"/>
<path d="M149.53 1.672C149.53 0.792 150.322 0 151.202 0C151.994 0 153.93 1.584 155.294 3.124C155.998 3.916 156.394 4.576 156.394 5.016C156.394 5.852 155.602 6.644 154.766 6.644C154.238 6.644 153.842 6.248 153.534 5.94C152.522 4.928 151.51 3.96 150.454 3.08C149.926 2.64 149.53 2.288 149.53 1.672ZM146.054 4.84C146.054 3.96 146.934 3.256 147.77 3.256C148.474 3.256 150.014 4.576 151.07 5.588C151.73 6.248 152.962 7.612 152.962 8.228C152.962 9.108 152.17 9.856 151.29 9.856C150.806 9.856 150.322 9.416 149.926 9.02C149.002 8.052 147.99 7.128 146.934 6.248C146.494 5.896 146.054 5.456 146.054 4.84ZM126.474 9.064C126.474 7.392 127.838 5.94 129.51 5.94C130.654 5.94 132.898 7.216 134.262 8.008C136.374 9.24 137.474 10.032 137.474 11.616C137.474 13.2 136.374 14.916 134.658 14.916C134.086 14.916 133.558 14.696 132.986 14.344C132.414 13.992 131.754 13.64 131.138 13.244C130.038 12.584 129.246 12.1 128.278 11.528C127.266 10.956 126.474 10.252 126.474 9.064ZM151.29 11.264C152.918 11.264 154.634 12.54 154.634 14.256C154.634 15.136 154.282 16.016 153.886 16.808C151.906 20.592 149.046 23.98 145.878 26.884C141.258 31.108 136.154 34.276 129.906 36.52C127.926 37.224 126.606 37.62 125.682 37.62C123.834 37.62 122.47 36.08 122.47 34.276C122.47 32.34 123.658 31.812 125.286 31.372C134.878 28.82 143.942 22.44 148.562 13.508C149.134 12.364 149.882 11.264 151.29 11.264ZM121.37 17.6C121.37 15.928 122.778 14.344 124.494 14.344C125.638 14.344 128.322 15.796 129.686 16.544C131.094 17.336 132.634 18.172 132.634 19.976C132.634 21.56 131.49 23.276 129.774 23.276C129.026 23.276 128.102 22.704 127.31 22.22C125.902 21.34 124.846 20.768 123.218 19.976C122.25 19.492 121.37 18.788 121.37 17.6Z" fill="#29B5B2"/>
<path d="M84.553 6.99561C86.005 6.99561 88.117 8.44761 90.229 9.8996C92.121 11.2196 93.309 12.0116 93.309 13.4636C93.309 15.0916 92.077 16.8956 90.273 16.8956C89.481 16.8956 88.777 16.4116 87.677 15.5756C86.181 14.4316 84.685 13.5076 83.101 12.5836C82.177 12.0556 81.385 11.3956 81.385 10.2516C81.385 8.5356 82.837 6.99561 84.553 6.99561ZM81.385 34.5396C81.385 33.1316 82.353 32.3396 83.585 31.8556C87.413 30.3596 91.021 28.3796 94.365 26.0916C99.557 22.5276 104.001 18.0836 107.785 13.0236C108.621 11.9236 109.501 10.3836 111.085 10.3836C112.713 10.3836 114.209 11.7476 114.209 13.4196C114.209 14.3436 113.725 15.1356 113.197 15.8836C109.985 20.5036 106.025 24.6396 101.713 28.2036C97.357 31.8116 92.649 34.8036 87.325 37.1796C86.489 37.5316 85.301 37.9716 84.553 37.9716C82.749 37.9716 81.385 36.2556 81.385 34.5396Z" fill="#29B5B2"/>
<path d="M48.8209 28.5558C56.0809 25.9598 62.9009 21.8678 68.6209 16.7198C69.6769 15.7518 70.4249 15.1798 71.4369 15.1798C73.0649 15.1798 74.3409 16.7638 74.3409 18.3478C74.3409 19.8878 72.7569 21.2958 70.8649 22.7038C68.3569 24.5958 65.8049 26.4878 63.0769 28.1158C59.0289 30.5358 54.7169 32.6478 50.2289 34.2318C48.9089 34.7158 47.0609 35.1998 46.1369 35.1998C43.7169 35.1998 42.6609 33.7918 42.6609 31.5038V9.63582C42.6609 7.65582 43.9369 6.81982 45.7849 6.81982C47.6329 6.81982 48.8209 7.74382 48.8209 9.63582V28.5558Z" fill="#29B5B2"/>
<path d="M25.432 11.22H2.992C1.012 11.22 0 10.252 0 8.272C0 6.38 1.144 5.5 2.992 5.5H28.732C29.656 5.5 30.668 5.632 31.504 6.028C32.604 6.556 33.176 7.656 33.176 8.844C33.176 10.78 30.888 13.376 29.612 14.828C28.116 16.544 26.62 18.348 24.86 19.8C24.156 20.416 23.364 20.9 22.396 20.9C20.856 20.9 19.448 19.624 19.448 18.04C19.448 17.072 20.02 16.368 21.252 15.356C22.792 14.08 24.112 12.672 25.432 11.22ZM16.104 12.892C17.732 12.892 19.316 13.684 19.316 15.488C19.316 17.028 19.008 18.524 18.48 20.68C17.38 25.036 15.664 29.348 12.936 32.912C11.484 34.848 7.172 39.6 4.708 39.6C3.124 39.6 1.672 38.28 1.672 36.696C1.672 35.508 2.42 34.848 3.784 33.836C10.076 29.04 12.804 23.1 13.464 15.356C13.596 13.816 14.52 12.892 16.104 12.892Z" fill="#29B5B2"/>
</g>
<defs>
<filter id="filter0_d_232_4104" x="0" y="0" width="374.163" height="46.064" filterUnits="userSpaceOnUse" color-interpolation-filters="sRGB">
<feFlood flood-opacity="0" result="BackgroundImageFix"/>
<feColorMatrix in="SourceAlpha" type="matrix" values="0 0 0 0 0 0 0 0 0 0 0 0 0 0 0 0 0 0 127 0" result="hardAlpha"/>
<feOffset dx="4" dy="4"/>
<feComposite in2="hardAlpha" operator="out"/>
<feColorMatrix type="matrix" values="0 0 0 0 0 0 0 0 0 0 0 0 0 0 0 0 0 0 0.6 0"/>
<feBlend mode="normal" in2="BackgroundImageFix" result="effect1_dropShadow_232_4104"/>
<feBlend mode="normal" in="SourceGraphic" in2="effect1_dropShadow_232_4104" result="shape"/>
</filter>
</defs>
</svg>
