<svg width="330" height="47" viewBox="0 0 330 47" fill="none" xmlns="http://www.w3.org/2000/svg">
<g filter="url(#filter0_d_232_3972)">
<path d="M320.818 23.7157L321.302 23.6277C321.698 23.5397 322.358 23.4077 322.622 23.4077C324.25 23.4077 325.042 24.5957 325.042 26.3117C325.042 27.8077 324.382 28.5117 322.93 28.7757L320.818 29.2157V39.3357C320.818 41.3157 319.894 42.0637 317.958 42.0637C316.154 42.0637 315.362 41.0957 315.362 39.3357V30.2717L304.362 32.3837C303.834 32.4717 303.042 32.6477 302.69 32.6477C301.062 32.6477 300.446 30.9757 300.446 29.6997C300.446 28.2477 301.106 27.4997 302.514 27.2357L315.362 24.7717V2.94773C315.362 0.923729 316.286 0.219727 318.222 0.219727C320.026 0.219727 320.818 1.18773 320.818 2.94773V23.7157ZM295.914 6.33573V11.7037H298.422C300.006 11.7037 301.062 12.5397 301.062 14.2117C301.062 15.8837 300.006 16.7197 298.422 16.7197H295.914V17.1597C297.586 19.9317 298.642 21.1637 300.754 23.5397C301.238 24.0677 301.546 24.6397 301.546 25.3877C301.546 26.5757 300.666 27.8517 299.39 27.8517C297.938 27.8517 296.838 26.0037 295.914 24.0677V39.2917C295.914 41.0077 295.166 42.0197 293.362 42.0197C291.558 42.0197 290.766 41.0077 290.766 39.2917V27.6317C290.238 28.8197 289.578 29.9197 288.918 31.0637C288.346 32.0757 287.29 33.8797 285.97 33.8797C284.474 33.8797 283.11 32.3837 283.11 30.9317C283.11 29.9197 283.638 29.2597 284.21 28.5117C287.334 24.6397 289.006 21.4277 290.59 16.7197H286.366C284.694 16.7197 283.594 16.0157 283.594 14.2117C283.594 12.4077 284.694 11.7037 286.366 11.7037H290.766V7.12773C289.534 7.30373 287.862 7.47973 286.63 7.47973C284.87 7.47973 283.858 6.81973 283.858 4.88373C283.858 2.99173 284.43 2.55173 288.786 2.37573C292.086 2.24373 294.77 1.58373 297.938 0.835727C298.29 0.747728 298.642 0.703729 298.994 0.703729C300.27 0.703729 301.15 1.89173 301.15 3.25573C301.15 5.41173 299.61 5.67573 295.914 6.33573ZM306.826 2.55173C307.794 2.55173 309.466 3.78373 310.566 4.70773C311.798 5.67573 313.778 7.25973 313.778 8.49173C313.778 9.85573 312.458 11.3957 311.05 11.3957C310.17 11.3957 308.894 10.4277 307.794 9.45973C307.134 8.88773 306.518 8.31573 306.034 7.91973C304.67 6.77573 304.098 6.29173 304.098 5.36773C304.098 4.09173 305.242 2.55173 306.826 2.55173ZM305.022 13.6397C305.77 13.6397 306.474 14.0357 308.806 15.8837C311.226 17.7757 311.93 18.7437 311.93 19.6237C311.93 20.9877 310.434 22.5717 308.982 22.5717C308.102 22.5717 307.266 21.7797 305.902 20.5037C305.33 19.9757 304.714 19.4037 303.966 18.7437C302.954 17.9077 302.338 17.2917 302.338 16.3237C302.338 15.0037 303.702 13.6397 305.022 13.6397Z" fill="#F29600"/>
<path d="M249.142 7.61184H256.49C255.918 6.77584 255.258 5.32384 254.774 4.26783C254.466 3.65183 254.158 2.99184 254.158 2.28784C254.158 0.791835 256.05 0.131836 257.282 0.131836C258.866 0.131836 259.306 1.05584 259.966 2.33184C260.538 3.38784 261.33 4.83984 261.33 6.07184C261.33 6.73184 261.198 7.17184 260.67 7.61184H266.302C267.094 6.24784 267.842 4.83984 268.502 3.38784C269.382 1.36384 269.778 0.483836 271.45 0.483836C272.858 0.483836 274.574 1.23183 274.574 2.81583C274.574 4.04783 272.99 6.51184 272.242 7.61184H273.518C274.706 7.61184 275.982 8.13984 276.73 9.10784C277.434 10.0758 277.61 11.4838 277.61 12.6718V15.9278C277.61 17.9958 276.686 18.6118 274.706 18.6118C272.902 18.6118 272.11 17.7318 272.11 15.9718V13.5958C272.11 12.7598 271.67 12.3198 270.834 12.3198H245.182C244.302 12.3198 243.906 12.7598 243.906 13.5958V15.9278C243.906 17.9958 242.982 18.6118 241.046 18.6118C239.242 18.6118 238.406 17.7318 238.406 15.9718V12.6718C238.406 9.01984 239.858 7.61184 243.51 7.61184H244.346C243.994 6.90784 243.642 6.24784 243.246 5.58784C242.41 4.17984 241.97 3.47583 241.97 2.72784C241.97 1.31984 243.818 0.483836 245.05 0.483836C246.634 0.483836 247.25 1.58384 247.954 2.81583C248.526 3.73984 249.45 5.45584 249.45 6.51184C249.45 6.95184 249.362 7.21584 249.142 7.61184ZM261.11 30.8878V36.4318C261.11 40.5678 259.526 41.6238 255.61 41.7118C255.038 41.7118 253.806 41.7118 252.574 41.7118C251.034 41.7118 249.406 41.7118 248.834 41.5798C247.602 41.3158 247.118 39.9518 247.118 38.8518C247.118 37.1798 247.998 36.2998 249.67 36.2998C250.858 36.2998 252.09 36.3438 253.278 36.3438C254.862 36.3438 255.302 35.9918 255.302 34.4078V30.8878H239.858C238.098 30.8878 237.174 30.1398 237.174 28.2918C237.174 26.5758 238.23 25.9158 239.858 25.9158H255.302V24.7718C255.302 23.6718 256.006 23.2758 257.018 23.2318C260.846 21.5158 262.034 20.7678 262.034 20.4158C262.034 20.1518 261.506 20.1518 261.374 20.1518H246.458C244.874 20.1518 244.126 19.3598 244.126 17.7758C244.126 16.2798 245.05 15.3558 246.502 15.3558H267.93C269.426 15.3558 271.406 15.4438 271.406 17.9518C271.406 20.1518 269.822 21.2078 268.194 22.2638C265.686 23.8918 263.97 24.6838 261.286 25.9158H276.07C277.83 25.9158 278.798 26.6198 278.798 28.4238C278.798 30.1838 277.698 30.8878 276.07 30.8878H261.11Z" fill="#F29600"/>
<path d="M216.655 27.3237C220.615 25.4757 223.871 23.4077 227.127 20.7677C228.227 19.8437 228.975 19.3597 229.943 19.3597C231.571 19.3597 232.671 20.8557 232.671 22.3957C232.671 23.3637 232.143 24.1997 231.439 24.8157C229.899 26.2237 228.271 27.4117 226.599 28.5557C223.959 30.3157 216.875 34.6277 213.971 34.6277C211.463 34.6277 210.715 32.9557 210.715 30.7557V9.72366C210.715 7.69966 211.815 6.95166 213.707 6.95166C215.511 6.95166 216.655 7.83166 216.655 9.72366V27.3237ZM204.159 8.00766C206.535 8.00766 207.195 9.06366 207.195 11.2637C207.195 16.3677 206.623 21.5157 204.599 26.2677C203.455 28.9517 201.915 31.4597 199.891 33.5717C198.967 34.5397 197.955 35.4637 196.547 35.4637C194.919 35.4637 193.291 34.1437 193.291 32.4717C193.291 31.5477 193.775 30.8877 194.391 30.2717C199.187 25.4317 201.167 19.6237 201.167 13.1117V11.9237C201.167 9.72366 201.255 8.00766 204.159 8.00766Z" fill="#F29600"/>
<path d="M172.899 16.6759C171.271 22.5279 168.807 28.2039 165.111 33.0879C163.835 34.8039 160.975 38.4559 158.687 38.4559C157.103 38.4559 155.607 37.2239 155.607 35.5519C155.607 34.4079 156.355 33.7039 157.147 32.9559C161.855 28.4679 164.979 22.7919 166.739 16.6759H158.995C157.103 16.6759 156.091 15.7519 156.091 13.8159C156.091 11.9679 157.191 11.0879 158.995 11.0879H168.015C168.323 9.37192 168.499 7.83192 168.631 5.89592C168.763 3.87192 169.379 2.81592 171.579 2.81592C173.383 2.81592 174.615 3.56392 174.615 5.49992C174.615 7.39192 174.351 9.28392 174.087 11.0879H179.367C182.667 11.0879 185.615 11.9679 185.615 15.8839C185.615 19.1399 184.383 25.8279 183.591 29.1279C182.491 33.6599 180.863 37.5319 175.495 37.5319C173.911 37.5319 172.151 37.3119 170.699 36.6519C169.643 36.1679 169.159 35.1559 169.159 34.0119C169.159 32.6039 169.863 31.1519 171.579 31.1519C172.195 31.1519 174.307 31.7239 174.879 31.7239C176.771 31.7239 177.387 29.6999 177.915 27.7639C178.663 25.0359 179.015 22.3079 179.411 19.4919C179.543 18.5679 179.631 17.9079 179.631 17.5999C179.631 16.9399 179.279 16.6759 178.663 16.6759H172.899Z" fill="#F29600"/>
<path d="M142.831 1.672C142.831 0.792 143.623 0 144.503 0C145.295 0 147.231 1.584 148.595 3.124C149.299 3.916 149.695 4.576 149.695 5.016C149.695 5.852 148.903 6.644 148.067 6.644C147.539 6.644 147.143 6.248 146.835 5.94C145.823 4.928 144.811 3.96 143.755 3.08C143.227 2.64 142.831 2.288 142.831 1.672ZM139.355 4.84C139.355 3.96 140.235 3.256 141.071 3.256C141.775 3.256 143.315 4.576 144.371 5.588C145.031 6.248 146.263 7.612 146.263 8.228C146.263 9.108 145.471 9.856 144.591 9.856C144.107 9.856 143.623 9.416 143.227 9.02C142.303 8.052 141.291 7.128 140.235 6.248C139.795 5.896 139.355 5.456 139.355 4.84ZM119.775 9.064C119.775 7.392 121.139 5.94 122.811 5.94C123.955 5.94 126.199 7.216 127.563 8.008C129.675 9.24 130.775 10.032 130.775 11.616C130.775 13.2 129.675 14.916 127.959 14.916C127.387 14.916 126.859 14.696 126.287 14.344C125.715 13.992 125.055 13.64 124.439 13.244C123.339 12.584 122.547 12.1 121.579 11.528C120.567 10.956 119.775 10.252 119.775 9.064ZM144.591 11.264C146.219 11.264 147.935 12.54 147.935 14.256C147.935 15.136 147.583 16.016 147.187 16.808C145.207 20.592 142.347 23.98 139.179 26.884C134.559 31.108 129.455 34.276 123.207 36.52C121.227 37.224 119.907 37.62 118.983 37.62C117.135 37.62 115.771 36.08 115.771 34.276C115.771 32.34 116.959 31.812 118.587 31.372C128.179 28.82 137.243 22.44 141.863 13.508C142.435 12.364 143.183 11.264 144.591 11.264ZM114.671 17.6C114.671 15.928 116.079 14.344 117.795 14.344C118.939 14.344 121.623 15.796 122.987 16.544C124.395 17.336 125.935 18.172 125.935 19.976C125.935 21.56 124.791 23.276 123.075 23.276C122.327 23.276 121.403 22.704 120.611 22.22C119.203 21.34 118.147 20.768 116.519 19.976C115.551 19.492 114.671 18.788 114.671 17.6Z" fill="#F29600"/>
<path d="M72.7372 18.1719H103.801C105.561 18.1719 106.837 19.4039 106.837 21.1639C106.837 22.9679 105.517 24.1559 103.801 24.1559H72.6932C70.9772 24.1559 69.7012 23.0559 69.7012 21.1639C69.7012 19.2719 70.9332 18.2599 72.7372 18.1719Z" fill="#F29600"/>
<path d="M49.9441 31.1077L50.8681 23.4957C50.9121 23.0997 50.9121 22.9677 50.9121 22.9237C50.9121 22.6597 50.7361 22.6157 50.3401 22.6157H40.5281C38.9441 22.6157 37.9761 21.6917 37.9761 20.0637C37.9761 18.5237 38.9881 17.5117 40.5281 17.5117H51.0001C54.2121 17.5117 56.5001 18.7437 56.5001 22.0877C56.5001 22.4397 56.4561 22.7917 56.4121 23.1877L55.4881 31.1077H61.1201C62.8361 31.1077 63.5841 32.1637 63.5841 33.7477C63.5841 35.2877 62.7041 36.2557 61.1201 36.2557H34.1041C32.4761 36.2557 31.6401 35.1997 31.6401 33.6157C31.6401 32.1197 32.6081 31.1077 34.1041 31.1077H49.9441Z" fill="#F29600"/>
<path d="M3.08 7.03958C3.08 5.19158 4.224 3.87158 6.116 3.87158C8.316 3.87158 13.464 5.63158 15.752 6.33558C17.248 6.81958 19.932 7.65558 21.12 8.57958C21.824 9.15158 22.132 9.81158 22.132 10.8236C22.132 12.4076 21.252 13.9476 19.492 13.9476C18.744 13.9476 18.084 13.6396 17.38 13.3316C13.816 11.7476 10.076 10.5596 6.292 9.67958C4.268 9.19558 3.08 8.93158 3.08 7.03958ZM5.764 15.3116C8.272 15.3116 14.388 17.3796 16.896 18.3476C19.008 19.1396 21.208 19.9316 21.208 21.9996C21.208 23.4956 20.284 25.2116 18.612 25.2116C18.04 25.2116 17.644 25.1236 16.764 24.7276C13.244 23.1436 9.548 21.8676 5.808 21.1636C4.18 20.8556 2.904 20.3716 2.904 18.4796C2.904 16.8076 4.004 15.3116 5.764 15.3116ZM0 30.7996C0 28.8636 1.1 27.5876 3.08 27.5876C6.996 27.5876 14.476 29.5236 18.26 30.7996C20.196 31.4596 22.704 32.2516 24.376 33.3956C25.124 33.9236 25.476 34.7156 25.476 35.6396C25.476 37.1796 24.464 38.8516 22.792 38.8516C22 38.8516 20.856 38.3236 19.976 37.9276C14.432 35.4636 8.712 34.0556 2.728 33.3516C1.188 33.1756 0 32.5596 0 30.7996Z" fill="#F29600"/>
</g>
<defs>
<filter id="filter0_d_232_3972" x="0" y="0" width="329.042" height="46.064" filterUnits="userSpaceOnUse" color-interpolation-filters="sRGB">
<feFlood flood-opacity="0" result="BackgroundImageFix"/>
<feColorMatrix in="SourceAlpha" type="matrix" values="0 0 0 0 0 0 0 0 0 0 0 0 0 0 0 0 0 0 127 0" result="hardAlpha"/>
<feOffset dx="4" dy="4"/>
<feComposite in2="hardAlpha" operator="out"/>
<feColorMatrix type="matrix" values="0 0 0 0 0 0 0 0 0 0 0 0 0 0 0 0 0 0 0.6 0"/>
<feBlend mode="normal" in2="BackgroundImageFix" result="effect1_dropShadow_232_3972"/>
<feBlend mode="normal" in="SourceGraphic" in2="effect1_dropShadow_232_3972" result="shape"/>
</filter>
</defs>
</svg>
