<svg width="323" height="46" viewBox="0 0 323 46" fill="none" xmlns="http://www.w3.org/2000/svg">
<g filter="url(#filter0_d_232_3712)">
<path d="M314.644 23.6278L315.128 23.5398C315.524 23.4518 316.184 23.3198 316.448 23.3198C318.076 23.3198 318.868 24.5078 318.868 26.2238C318.868 27.7198 318.208 28.4238 316.756 28.6878L314.644 29.1278V39.2478C314.644 41.2278 313.72 41.9758 311.784 41.9758C309.98 41.9758 309.188 41.0078 309.188 39.2478V30.1838L298.188 32.2958C297.66 32.3838 296.868 32.5598 296.516 32.5598C294.888 32.5598 294.272 30.8878 294.272 29.6118C294.272 28.1598 294.932 27.4118 296.34 27.1478L309.188 24.6838V2.85984C309.188 0.835838 310.112 0.131836 312.048 0.131836C313.852 0.131836 314.644 1.09984 314.644 2.85984V23.6278ZM289.74 6.24784V11.6158H292.248C293.832 11.6158 294.888 12.4518 294.888 14.1238C294.888 15.7958 293.832 16.6318 292.248 16.6318H289.74V17.0718C291.412 19.8438 292.468 21.0758 294.58 23.4518C295.064 23.9798 295.372 24.5518 295.372 25.2998C295.372 26.4878 294.492 27.7638 293.216 27.7638C291.764 27.7638 290.664 25.9158 289.74 23.9798V39.2038C289.74 40.9198 288.992 41.9318 287.188 41.9318C285.384 41.9318 284.592 40.9198 284.592 39.2038V27.5438C284.064 28.7318 283.404 29.8318 282.744 30.9758C282.172 31.9878 281.116 33.7918 279.796 33.7918C278.3 33.7918 276.936 32.2958 276.936 30.8438C276.936 29.8318 277.464 29.1718 278.036 28.4238C281.16 24.5518 282.832 21.3398 284.416 16.6318H280.192C278.52 16.6318 277.42 15.9278 277.42 14.1238C277.42 12.3198 278.52 11.6158 280.192 11.6158H284.592V7.03984C283.36 7.21584 281.688 7.39184 280.456 7.39184C278.696 7.39184 277.684 6.73184 277.684 4.79584C277.684 2.90384 278.256 2.46384 282.612 2.28784C285.912 2.15584 288.596 1.49584 291.764 0.747836C292.116 0.659837 292.468 0.615838 292.82 0.615838C294.096 0.615838 294.976 1.80384 294.976 3.16784C294.976 5.32384 293.436 5.58784 289.74 6.24784ZM300.652 2.46384C301.62 2.46384 303.292 3.69584 304.392 4.61984C305.624 5.58784 307.604 7.17184 307.604 8.40384C307.604 9.76784 306.284 11.3078 304.876 11.3078C303.996 11.3078 302.72 10.3398 301.62 9.37184C300.96 8.79984 300.344 8.22784 299.86 7.83184C298.496 6.68784 297.924 6.20384 297.924 5.27984C297.924 4.00384 299.068 2.46384 300.652 2.46384ZM298.848 13.5518C299.596 13.5518 300.3 13.9478 302.632 15.7958C305.052 17.6878 305.756 18.6558 305.756 19.5358C305.756 20.8998 304.26 22.4838 302.808 22.4838C301.928 22.4838 301.092 21.6918 299.728 20.4158C299.156 19.8878 298.54 19.3158 297.792 18.6558C296.78 17.8198 296.164 17.2038 296.164 16.2358C296.164 14.9158 297.528 13.5518 298.848 13.5518Z" fill="#008532"/>
<path d="M242.968 7.52395H250.316C249.744 6.68795 249.084 5.23595 248.6 4.17994C248.292 3.56394 247.984 2.90395 247.984 2.19995C247.984 0.703945 249.876 0.0439453 251.108 0.0439453C252.692 0.0439453 253.132 0.967947 253.792 2.24395C254.364 3.29995 255.156 4.75195 255.156 5.98394C255.156 6.64395 255.024 7.08395 254.496 7.52395H260.128C260.92 6.15995 261.668 4.75194 262.328 3.29994C263.208 1.27594 263.604 0.395946 265.276 0.395946C266.684 0.395946 268.4 1.14394 268.4 2.72794C268.4 3.95994 266.816 6.42394 266.068 7.52395H267.344C268.532 7.52395 269.808 8.05195 270.556 9.01995C271.26 9.98795 271.436 11.3959 271.436 12.5839V15.8399C271.436 17.9079 270.512 18.5239 268.532 18.5239C266.728 18.5239 265.936 17.6439 265.936 15.8839V13.5079C265.936 12.6719 265.496 12.2319 264.66 12.2319H239.008C238.128 12.2319 237.732 12.6719 237.732 13.5079V15.8399C237.732 17.9079 236.808 18.5239 234.872 18.5239C233.068 18.5239 232.232 17.6439 232.232 15.8839V12.5839C232.232 8.93195 233.684 7.52395 237.336 7.52395H238.172C237.82 6.81994 237.468 6.15995 237.072 5.49995C236.236 4.09195 235.796 3.38794 235.796 2.63995C235.796 1.23195 237.644 0.395946 238.876 0.395946C240.46 0.395946 241.076 1.49594 241.78 2.72794C242.352 3.65195 243.276 5.36795 243.276 6.42395C243.276 6.86395 243.188 7.12795 242.968 7.52395ZM254.936 30.7999V36.3439C254.936 40.4799 253.352 41.5359 249.436 41.6239C248.864 41.6239 247.632 41.6239 246.4 41.6239C244.86 41.6239 243.232 41.6239 242.66 41.4919C241.428 41.2279 240.944 39.8639 240.944 38.7639C240.944 37.0919 241.824 36.2119 243.496 36.2119C244.684 36.2119 245.916 36.2559 247.104 36.2559C248.688 36.2559 249.128 35.9039 249.128 34.3199V30.7999H233.684C231.924 30.7999 231 30.0519 231 28.2039C231 26.4879 232.056 25.8279 233.684 25.8279H249.128V24.6839C249.128 23.5839 249.832 23.1879 250.844 23.1439C254.672 21.4279 255.86 20.6799 255.86 20.3279C255.86 20.0639 255.332 20.0639 255.2 20.0639H240.284C238.7 20.0639 237.952 19.2719 237.952 17.6879C237.952 16.1919 238.876 15.2679 240.328 15.2679H261.756C263.252 15.2679 265.232 15.3559 265.232 17.8639C265.232 20.0639 263.648 21.1199 262.02 22.1759C259.512 23.8039 257.796 24.5959 255.112 25.8279H269.896C271.656 25.8279 272.624 26.5319 272.624 28.3359C272.624 30.0959 271.524 30.7999 269.896 30.7999H254.936Z" fill="#008532"/>
<path d="M197.032 26.4879H199.144C203.192 26.4879 204.072 27.4119 204.072 31.4599V35.9479C204.072 39.9959 203.192 40.9199 199.144 40.9199H192.72C188.672 40.9199 187.792 39.9959 187.792 35.9479V31.3719C187.616 31.3719 187.44 31.4159 187.264 31.4159C185.812 31.4159 185.02 29.7879 185.02 28.5119C185.02 27.0599 185.856 26.6639 187 26.1799C190.124 24.9039 192.94 23.4959 195.58 21.3839H187.44C185.768 21.3839 184.8 20.7679 184.8 19.0079C184.8 17.3799 185.988 16.8519 187.44 16.8519H199.892C200.552 15.8839 201.08 14.8279 201.652 13.8599C200.772 14.0799 199.848 14.0799 198.924 14.0799H192.236C188.188 14.0799 187.308 13.1999 187.308 9.15188V6.59987C187.308 2.55187 188.188 1.67188 192.236 1.67188H198.924C202.972 1.67188 203.852 2.55187 203.852 6.59987V9.15188C203.852 10.3399 203.852 11.9679 203.104 12.8919H203.456C204.644 12.8919 206.228 13.5959 206.228 14.9599C206.228 15.6199 205.92 16.2799 205.656 16.8519H223.872C225.588 16.8519 226.512 17.4239 226.512 19.2279C226.512 20.8559 225.368 21.3839 223.872 21.3839H215.952C216.876 22.1319 217.844 23.0119 218.9 23.5839C220.704 24.5959 222.728 25.5199 224.708 26.1359C225.808 26.5319 226.6 26.9279 226.6 28.2039C226.6 29.5679 225.852 31.2399 224.18 31.2399C224.004 31.2399 223.828 31.2399 223.652 31.1959V35.9479C223.652 39.9959 222.772 40.9199 218.724 40.9199H211.992C207.944 40.9199 207.064 39.9959 207.064 35.9479V31.4599C207.064 27.4119 207.944 26.4879 211.992 26.4879H214.192C212.036 24.9479 210.232 23.5399 208.648 21.3839H202.576C200.904 23.4079 199.144 24.9479 197.032 26.4879ZM224.136 6.59987V9.15188C224.136 13.1999 223.256 14.0799 219.208 14.0799H212.168C208.12 14.0799 207.24 13.1999 207.24 9.15188V6.59987C207.24 2.55187 208.12 1.67188 212.168 1.67188H219.208C223.212 1.67188 224.136 2.55187 224.136 6.59987ZM197.824 5.98387H193.336C192.632 5.98387 192.28 6.37987 192.28 7.03987V8.84387C192.28 9.54788 192.632 9.94388 193.336 9.94388H197.824C198.528 9.94388 198.88 9.54788 198.88 8.84387V7.03987C198.88 6.29188 198.528 5.98387 197.824 5.98387ZM218.064 5.98387H213.224C212.52 5.98387 212.168 6.37987 212.168 7.03987V8.84387C212.168 9.54788 212.52 9.94388 213.224 9.94388H218.064C218.768 9.94388 219.12 9.54788 219.12 8.84387V7.03987C219.12 6.29188 218.768 5.98387 218.064 5.98387ZM217.624 30.6239H213.092C212.432 30.6239 212.08 30.9759 212.08 31.6799V35.5519C212.08 36.2559 212.388 36.6079 213.092 36.6079H217.624C218.328 36.6079 218.68 36.2559 218.68 35.5519V31.6799C218.68 30.9319 218.328 30.6239 217.624 30.6239ZM198 30.6239H193.82C193.116 30.6239 192.764 30.9759 192.764 31.6799V35.5519C192.764 36.2559 193.116 36.6079 193.82 36.6079H198C198.704 36.6079 199.056 36.2559 199.056 35.5519V31.6799C199.056 30.9319 198.704 30.6239 198 30.6239Z" fill="#008532"/>
<path d="M162.008 21.648V23.848H177.364C179.3 23.848 180.004 24.64 180.004 26.576C180.004 28.336 178.992 28.952 177.364 28.952H165.924C166.628 29.524 167.376 30.052 168.168 30.58C171.776 32.956 174.064 33.748 177.98 35.288C178.992 35.684 179.696 36.212 179.696 37.356C179.696 38.808 178.684 40.568 177.1 40.568C175.296 40.568 171.248 38.236 169.664 37.268C166.672 35.376 164.472 33.572 162.008 31.02V39.292C162.008 41.36 161.128 41.932 159.148 41.932C157.344 41.932 156.64 41.008 156.64 39.292V31.152C154.44 33.44 151.932 35.42 149.248 37.136C147.576 38.148 143.44 40.568 141.548 40.568C140.008 40.568 138.996 38.984 138.996 37.576C138.996 36.124 139.876 35.596 141.108 35.112C145.596 33.484 149.116 32.076 152.856 28.952H141.284C139.392 28.952 138.6 28.16 138.6 26.268C138.6 24.508 139.612 23.848 141.284 23.848H156.64V21.648H155.364C151.36 21.648 150.48 20.768 150.48 16.764V7.832C150.48 4.576 151.008 2.948 154.66 2.948H155.76C156.2 0.747998 156.86 0 159.148 0C160.204 0 161.92 0.0879991 161.92 1.496C161.92 1.848 161.656 2.596 161.524 2.948H163.504C167.552 2.948 168.432 3.828 168.432 7.832V16.764C168.432 20.768 167.552 21.648 163.504 21.648H162.008ZM179.344 4.84C179.344 5.984 177.672 7.568 176.352 8.712C174.988 9.988 173.404 11.396 172.216 11.396C170.808 11.396 169.444 9.944 169.444 8.536C169.444 7.7 169.884 7.128 170.984 6.204C171.732 5.588 172.744 4.708 174.108 3.432C174.812 2.772 175.648 2.112 176.66 2.112C178.024 2.112 179.344 3.476 179.344 4.84ZM139.436 5.104C139.436 3.608 140.668 2.2 142.208 2.2C143.264 2.2 145.508 3.74 146.388 4.4C148.72 6.072 149.556 6.644 149.556 7.92C149.556 9.328 148.412 10.912 146.828 10.912C146.036 10.912 145.156 10.296 144.188 9.504C143.396 8.888 142.516 8.272 141.548 7.656C140.228 6.776 139.436 6.248 139.436 5.104ZM163.284 10.12V8.14C163.284 7.436 162.932 7.084 162.184 7.084H156.684C155.98 7.084 155.628 7.436 155.628 8.14V10.12H163.284ZM168.784 15.796C168.784 14.344 170.016 12.936 171.512 12.936C172.612 12.936 175.164 14.52 176.616 15.488C179.212 17.204 180.092 17.82 180.092 19.14C180.092 20.504 178.948 22.088 177.496 22.088C176.396 22.088 175.56 21.516 174.46 20.724C173.712 20.152 171.996 19.052 171.204 18.568C169.62 17.644 168.784 17.16 168.784 15.796ZM147.884 13.068C149.468 13.068 150.26 14.608 150.26 16.06C150.26 17.336 149.336 17.908 146.872 19.36C145.596 20.108 142.384 21.912 140.976 21.912C139.348 21.912 138.556 20.152 138.556 18.876C138.556 16.764 140.536 16.676 144.98 14.212C146.212 13.508 147.18 13.068 147.884 13.068ZM155.628 13.948V16.192C155.628 16.94 155.98 17.292 156.684 17.292H162.184C162.932 17.292 163.284 16.94 163.284 16.192V13.948H155.628Z" fill="#008532"/>
<path d="M104.412 20.1078C105.556 19.6678 107.316 19.0518 108.02 19.0518C109.428 19.0518 110.044 20.4158 110.044 21.6478C110.044 23.9358 108.328 24.2878 104.412 25.6958V36.8278C104.412 41.0518 102.344 41.5798 98.648 41.5798C94.952 41.5798 93.412 41.3158 93.412 38.4558C93.412 36.9158 93.984 35.9038 95.656 35.9038C96.316 35.9038 96.976 35.9478 97.636 35.9478C98.56 35.9478 99 35.7718 99 34.7598V27.5438C97.196 28.1158 95.568 28.5998 94.732 28.5998C93.104 28.5998 92.356 27.0158 92.356 25.5638C92.356 23.7598 93.456 23.3198 95.656 22.7478C96.58 22.5278 97.768 22.2198 99 21.8238V13.4198H94.996C93.324 13.4198 92.4 12.5838 92.4 10.8678C92.4 9.15178 93.324 8.27178 94.996 8.27178H99V2.72778C99 0.83578 100.012 0.175781 101.816 0.175781C103.532 0.175781 104.412 1.01178 104.412 2.72778V8.27178H106.832C108.504 8.27178 109.428 9.15178 109.428 10.8678C109.428 12.5838 108.504 13.4198 106.832 13.4198H104.412V20.1078ZM127.512 7.39178V36.0358C127.512 41.4038 124.564 41.5798 120.384 41.5798H118.228C115.632 41.5798 113.564 41.3598 113.564 38.2798C113.564 36.6078 114.4 35.5518 116.16 35.5518C117.436 35.5518 118.756 35.6398 120.032 35.6398C121.396 35.6398 121.792 35.2878 121.792 33.9238V7.39178H110.836C108.944 7.39178 108.152 6.37978 108.152 4.57578C108.152 2.81578 109.076 1.89178 110.836 1.89178H131.472C133.276 1.89178 134.156 2.85978 134.156 4.66378C134.156 6.42378 133.276 7.39178 131.472 7.39178H127.512Z" fill="#008532"/>
<path d="M72.952 24.3757C75.064 21.2077 78.012 16.1917 78.496 15.4877C79.024 14.6957 79.596 14.3437 80.564 14.3437C82.06 14.3437 83.512 15.3557 83.512 16.9397C83.512 18.0837 81.884 20.3717 81.18 21.3397C77.616 26.5757 75.372 29.9637 71.236 34.8917C74.272 34.5837 77.308 34.3197 80.344 33.8357C79.904 32.7357 78.496 29.6117 78.496 28.6877C78.496 27.2797 80.036 26.6197 81.268 26.6197C83.16 26.6197 83.512 28.1597 84.436 30.2717C85.712 33.0437 87.692 37.7077 87.692 39.4237C87.692 41.0077 86.064 41.7557 84.7 41.7557C82.896 41.7557 82.676 40.9637 81.928 38.4117C78.408 39.0717 74.888 39.5557 71.368 39.9077C69.96 40.0397 64.812 40.6117 63.712 40.6117C61.996 40.6117 61.16 39.5557 61.16 37.8837C61.16 35.1997 63.404 35.4197 64.636 35.3317C66.44 33.2637 68.156 31.0637 69.784 28.8637C68.244 27.0157 65.472 24.1117 63.668 22.6157C62.128 21.3837 61.204 20.5917 61.204 19.3157C61.204 18.1277 62.304 16.6757 63.976 16.6757C64.504 16.6757 65.076 16.8957 65.912 17.5997C67.584 15.3997 68.728 13.2877 69.872 10.7797H64.24C62.436 10.7797 61.512 9.98773 61.512 8.18373C61.512 6.37973 62.568 5.67573 64.24 5.67573H71.808V2.90373C71.808 0.923725 72.732 0.219727 74.668 0.219727C76.516 0.219727 77.308 1.14372 77.308 2.90373V5.67573H85.008C86.724 5.67573 87.736 6.42372 87.736 8.22773C87.736 10.0317 86.724 10.7797 85.008 10.7797H75.768C74.492 13.7277 71.588 18.3037 69.696 20.9437C70.884 22.0877 71.896 23.0997 72.952 24.3757ZM49.016 1.62773H56.364C59.796 1.62773 61.16 2.99173 61.16 6.42373V11.8797C61.16 15.3117 59.796 16.6757 56.364 16.6757H53.768C52.932 16.6757 52.756 16.8957 52.624 17.9517C52.58 18.3037 52.316 20.3717 52.316 20.5917C52.316 21.4717 53.108 21.4717 53.504 21.4717H57.2C59.84 21.4717 61.512 22.8357 61.512 25.5637C61.512 28.4237 60.984 36.9157 59.796 39.2477C58.696 41.5357 56.32 41.6237 54.076 41.6237H52.36C48.796 41.6237 47.564 41.2277 47.564 38.7197C47.564 36.7837 48.752 36.1677 50.512 36.1677C51.48 36.1677 52.448 36.2997 53.416 36.2997C55.088 36.2997 55.44 35.7717 55.748 34.2317C56.012 32.7797 56.364 29.3917 56.364 27.8957C56.364 27.1037 56.188 26.6197 55.22 26.6197H51.26C49.94 26.6197 48.752 26.4877 47.828 25.3877C47.212 24.6837 46.948 23.8037 46.948 22.8357C46.948 22.3517 47.212 19.5797 47.256 19.0517C47.652 15.3557 47.784 14.1677 48.312 13.3317C49.016 12.1877 50.468 11.8797 51.876 11.8797H54.868C55.704 11.8797 56.144 11.4397 56.144 10.6037V7.91973C56.144 7.08373 55.704 6.64373 54.868 6.64373H49.016C47.344 6.64373 46.332 5.93973 46.332 4.13573C46.332 2.33173 47.344 1.67173 49.016 1.62773Z" fill="#008532"/>
<path d="M33.704 7.65584C34.364 8.84384 34.76 9.94384 34.76 10.2518C34.76 11.7038 32.956 12.0118 31.812 12.0118C30.008 12.0118 29.524 11.2198 28.996 9.89984C28.732 9.28384 28.468 8.49184 28.072 7.65584H26.004C25.212 8.71184 24.2 10.0758 23.1 10.8238C23.232 11.0878 23.32 11.3078 23.32 11.6158V12.3638H35.552C39.6 12.3638 40.48 13.1998 40.48 17.2918V19.7118C40.48 21.6918 39.424 22.0438 37.62 22.0438C36.696 22.0438 35.86 21.8678 35.376 21.0318C35.42 21.4718 35.42 21.9118 35.42 22.3958V24.1558C35.42 27.6318 34.628 28.3798 31.196 28.3798H11.308V30.3158H33C36.96 30.3158 37.928 31.1518 37.928 35.1558V36.2998C37.928 40.3038 36.96 41.1398 33 41.1398H10.604C6.688 41.1398 5.632 40.0398 5.632 36.1678V23.0998C5.632 22.6158 5.632 22.1758 5.676 21.6918C5.06 21.9998 4.356 22.0438 3.696 22.0438C2.024 22.0438 1.188 21.4278 1.188 19.7118V17.2918C1.188 13.2438 2.112 12.3638 6.16 12.3638H18.216V11.6158C18.216 10.8238 18.744 10.2078 19.536 9.98784C19.228 9.54784 19.008 9.19584 19.008 8.66784C19.008 8.22784 19.14 7.87584 19.316 7.52384C18.92 7.61184 18.612 7.65584 18.216 7.65584H14.74C15.224 8.88784 15.488 9.76784 15.488 10.1638C15.488 11.6598 13.816 12.0118 12.628 12.0118C10.956 12.0118 10.516 11.2638 10.12 9.94384C9.9 9.23984 9.724 8.53584 9.372 7.65584H8.096C7.04 9.01984 4.488 12.1878 2.684 12.1878C1.32 12.1878 0 10.8238 0 9.41584C0 8.49184 0.22 8.22784 2.2 6.33584C3.344 5.23584 4.444 3.87184 5.324 2.55184C6.38 0.879838 6.908 0.131836 8.404 0.131836C9.592 0.131836 11.264 0.791839 11.264 2.24384C11.264 2.59584 11.176 2.81584 11.044 3.12384H18.216C19.8 3.12384 20.504 3.82784 20.504 5.45584C20.504 5.71984 20.504 5.93984 20.46 6.15984C21.296 5.27984 22.572 3.38784 23.144 2.28784C23.848 0.879838 24.42 0.131836 25.74 0.131836C26.972 0.131836 28.82 0.791838 28.82 2.33184C28.82 2.63984 28.776 2.85984 28.688 3.12384H39.248C40.876 3.12384 41.58 3.87184 41.58 5.49984C41.58 7.03984 40.7 7.65584 39.248 7.65584H33.704ZM35.156 19.7998V17.3358C35.156 16.7198 34.804 16.4118 34.188 16.4118H7.48C6.864 16.4118 6.512 16.7198 6.512 17.3358V19.3598C7.612 18.1278 9.108 18.1278 10.604 18.1278H31.196C32.736 18.1278 34.496 18.1278 35.156 19.7998ZM11.308 24.5958H29.128C29.7 24.5958 30.008 24.2878 30.008 23.7158V23.0558C30.008 22.4838 29.7 22.1758 29.128 22.1758H12.364C11.66 22.1758 11.308 22.5278 11.308 23.2318V24.5958ZM11.308 34.2318V35.9478C11.308 36.6518 11.66 37.0038 12.364 37.0038H31.46C32.076 37.0038 32.472 36.6078 32.472 35.9478V35.2878C32.472 34.6718 32.076 34.2318 31.46 34.2318H11.308Z" fill="#008532"/>
</g>
<defs>
<filter id="filter0_d_232_3712" x="0" y="0" width="322.868" height="45.9758" filterUnits="userSpaceOnUse" color-interpolation-filters="sRGB">
<feFlood flood-opacity="0" result="BackgroundImageFix"/>
<feColorMatrix in="SourceAlpha" type="matrix" values="0 0 0 0 0 0 0 0 0 0 0 0 0 0 0 0 0 0 127 0" result="hardAlpha"/>
<feOffset dx="4" dy="4"/>
<feComposite in2="hardAlpha" operator="out"/>
<feColorMatrix type="matrix" values="0 0 0 0 0 0 0 0 0 0 0 0 0 0 0 0 0 0 0.6 0"/>
<feBlend mode="normal" in2="BackgroundImageFix" result="effect1_dropShadow_232_3712"/>
<feBlend mode="normal" in="SourceGraphic" in2="effect1_dropShadow_232_3712" result="shape"/>
</filter>
</defs>
</svg>
