<svg width="214" height="47" viewBox="0 0 214 47" fill="none" xmlns="http://www.w3.org/2000/svg">
<g filter="url(#filter0_d_232_2669)">
<path d="M25.57 28.82C25.57 30.45 24.25 32.12 22.53 32.12C21.03 32.12 20.02 30.76 19.1 29.83C16.06 33.39 12.72 36.56 8.67 39.07C6.91 40.17 4.4 41.62 2.95 41.62C1.32 41.62 0 40.12 0 38.54C0 37.13 1.01 36.43 2.2 35.86C7.48 33.31 11 30.27 14.74 26.05C13.64 25.17 12.41 24.38 11.26 23.59C10.42 23.02 9.68 22.36 9.68 21.26C9.68 19.68 11.09 18.27 12.67 18.27C14.34 18.27 16.94 20.47 18.3 21.44C19.84 19.15 21.25 16.69 22.3 14.14H13.01C11.29 16.78 9.31 19.38 7.2 21.71C5.7 23.38 4.69 24.44 3.2 24.44C1.62 24.44 0.16 23.12 0.16 21.49C0.16 20.35 0.95 19.6 1.7 18.85C5.7 15.06 8.7 10.31 11.38 5.52C12.04 4.33 12.79 3.27 14.28 3.27C15.64 3.27 17.54 4.06 17.54 5.65C17.54 6.57 17.1 7.45 16.31 8.77H24.06C25.16 8.77 26.22 8.9 27.14 9.47C28.06 10.04 28.64 11.23 28.64 12.37C28.64 15.14 24.37 22.4 22.74 24.91C24.32 26.19 25.56 27.37 25.56 28.83L25.57 28.82ZM27.24 2.82C28.03 2.82 29.53 4.45 30.14 5.2C30.76 5.9 31.99 7.66 31.99 8.24C31.99 9.16 31.15 9.87 30.27 9.87C29.7 9.87 29.26 9.39 28.55 8.46C27.76 7.45 26.97 6.48 26.09 5.56C25.78 5.21 25.56 4.81 25.56 4.37C25.56 3.49 26.4 2.83 27.23 2.83L27.24 2.82ZM31.07 0C31.78 0 32.52 0.7 33.4 1.72C34.32 2.78 35.82 4.54 35.82 5.46C35.82 6.38 34.94 7.09 34.1 7.09C33.48 7.09 33.13 6.61 32.56 5.86C31.86 4.98 31.15 4.1 30.4 3.22C29.7 2.43 29.39 2.12 29.39 1.55C29.39 0.71 30.23 0.01 31.06 0.01L31.07 0Z" fill="#E9545D"/>
<path d="M50.67 10.39C52.56 11.71 53.75 12.5 53.75 13.95C53.75 15.58 52.52 17.38 50.71 17.38C49.92 17.38 49.21 16.9 48.11 16.06C46.61 14.92 45.12 13.99 43.53 13.07C42.61 12.54 41.81 11.88 41.81 10.74C41.81 9.02 43.26 7.48 44.98 7.48C46.43 7.48 48.54 8.93 50.66 10.39H50.67ZM44.02 32.34C47.85 30.84 51.46 28.86 54.8 26.58C59.99 23.01 64.44 18.57 68.22 13.51C69.06 12.41 69.94 10.87 71.52 10.87C73.1 10.87 74.64 12.23 74.64 13.91C74.64 14.83 74.16 15.63 73.63 16.37C70.42 20.99 66.46 25.13 62.14 28.69C57.78 32.3 53.07 35.29 47.75 37.67C46.91 38.02 45.73 38.46 44.98 38.46C43.18 38.46 41.81 36.74 41.81 35.03C41.81 33.62 42.78 32.83 44.01 32.35L44.02 32.34Z" fill="#E9545D"/>
<path d="M111.92 29.88C113.02 31.11 113.77 31.95 113.77 33.18C113.77 34.9 112.23 36.44 110.51 36.44C109.37 36.44 108.62 35.82 107.96 34.99C105.45 31.87 102.77 28.96 99.64 26.5C97 29.05 94.05 31.3 90.84 33.28C88.82 34.51 85.16 36.62 83.49 36.62C81.73 36.62 80.41 35.17 80.41 33.45C80.41 31.91 81.33 31.38 83.14 30.59C91.37 27.07 97.84 21.22 102.37 13.69H88.16C86.27 13.69 85.17 12.85 85.17 10.87C85.17 8.89 86.27 8.05 88.16 8.05H105.63C108.05 8.05 109.77 8.8 109.77 11.26C109.77 13.9 105.37 20.02 103.61 22.13C106.6 24.46 109.42 27.06 111.93 29.88H111.92Z" fill="#E9545D"/>
<path d="M145 36.92C145 41.06 143.42 42.11 139.5 42.2H136.46C134.92 42.2 133.29 42.2 132.72 42.07C131.49 41.81 131 40.44 131 39.34C131 37.67 131.88 36.79 133.55 36.79C134.74 36.79 135.97 36.83 137.16 36.83C138.74 36.83 139.18 36.48 139.18 34.89V31.37H123.73C121.97 31.37 121.05 30.62 121.05 28.77C121.05 27.05 122.11 26.39 123.73 26.39H139.18V25.25C139.18 24.15 139.88 23.75 140.9 23.71C144.73 21.99 145.92 21.25 145.92 20.89C145.92 20.63 145.39 20.63 145.26 20.63H130.34C128.76 20.63 128.01 19.84 128.01 18.25C128.01 16.75 128.93 15.83 130.39 15.83H151.82C153.32 15.83 155.3 15.92 155.3 18.43C155.3 20.63 153.72 21.69 152.09 22.74C149.58 24.37 147.87 25.16 145.18 26.39H159.97C161.73 26.39 162.7 27.09 162.7 28.9C162.7 30.71 161.6 31.36 159.97 31.36H145.01V36.9L145 36.92ZM140.38 8.1C139.81 7.26 139.15 5.81 138.66 4.76C138.35 4.14 138.04 3.48 138.04 2.78C138.04 1.28 139.93 0.62 141.16 0.62C142.74 0.62 143.18 1.54 143.84 2.82C144.41 3.88 145.2 5.33 145.2 6.56C145.2 7.22 145.07 7.66 144.54 8.1H150.17C150.96 6.74 151.71 5.33 152.37 3.88C153.25 1.86 153.65 0.98 155.32 0.98C156.73 0.98 158.44 1.73 158.44 3.31C158.44 4.54 156.86 7.01 156.11 8.11H157.39C158.58 8.11 159.85 8.64 160.6 9.61C161.3 10.58 161.48 11.99 161.48 13.17V16.43C161.48 18.5 160.56 19.11 158.58 19.11C156.78 19.11 155.98 18.23 155.98 16.47V14.09C155.98 13.25 155.54 12.81 154.7 12.81H129.04C128.16 12.81 127.76 13.25 127.76 14.09V16.42C127.76 18.49 126.84 19.1 124.9 19.1C123.1 19.1 122.26 18.22 122.26 16.46V13.16C122.26 9.51 123.71 8.1 127.37 8.1H128.21C127.86 7.4 127.51 6.74 127.11 6.08C126.27 4.67 125.83 3.97 125.83 3.22C125.83 1.81 127.68 0.98 128.91 0.98C130.49 0.98 131.11 2.08 131.81 3.31C132.38 4.23 133.31 5.95 133.31 7.01C133.31 7.45 133.22 7.71 133 8.11H140.35L140.38 8.1Z" fill="#E9545D"/>
<path d="M183.33 12.19C184.91 12.19 185.97 13.03 185.97 14.7C185.97 16.37 184.91 17.21 183.33 17.21H180.82V17.65C182.49 20.42 183.55 21.65 185.66 24.03C186.14 24.56 186.45 25.13 186.45 25.88C186.45 27.07 185.57 28.34 184.29 28.34C182.84 28.34 181.74 26.49 180.81 24.56V39.79C180.81 41.51 180.06 42.52 178.26 42.52C176.46 42.52 175.66 41.51 175.66 39.79V28.13C175.13 29.32 174.47 30.42 173.81 31.56C173.24 32.57 172.18 34.38 170.86 34.38C169.36 34.38 168 32.88 168 31.43C168 30.42 168.53 29.76 169.1 29.01C172.22 25.14 173.9 21.93 175.48 17.22H171.26C169.59 17.22 168.49 16.52 168.49 14.71C168.49 12.9 169.59 12.2 171.26 12.2H175.66V7.62C174.43 7.8 172.76 7.97 171.52 7.97C169.76 7.97 168.75 7.31 168.75 5.37C168.75 3.43 169.32 3.04 173.68 2.86C176.98 2.73 179.67 2.07 182.83 1.32C183.18 1.23 183.53 1.19 183.89 1.19C185.17 1.19 186.05 2.38 186.05 3.74C186.05 5.9 184.51 6.16 180.81 6.82V12.19H183.33ZM206.21 24.12C206.61 24.03 207.27 23.9 207.53 23.9C209.16 23.9 209.95 25.09 209.95 26.8C209.95 28.3 209.29 29 207.84 29.26L205.73 29.7V39.82C205.73 41.8 204.81 42.55 202.87 42.55C201.07 42.55 200.27 41.58 200.27 39.82V30.75L189.27 32.86C188.74 32.95 187.95 33.12 187.6 33.12C185.97 33.12 185.36 31.45 185.36 30.17C185.36 28.72 186.02 27.97 187.43 27.71L200.28 25.25V3.43C200.28 1.41 201.2 0.7 203.14 0.7C204.94 0.7 205.74 1.67 205.74 3.43V24.2L206.22 24.11L206.21 24.12ZM193.71 16.37C196.13 18.26 196.83 19.23 196.83 20.11C196.83 21.47 195.33 23.06 193.88 23.06C193 23.06 192.16 22.27 190.8 20.99C190.23 20.46 189.61 19.89 188.86 19.23C187.85 18.39 187.23 17.78 187.23 16.81C187.23 15.49 188.59 14.13 189.91 14.13C190.66 14.13 191.36 14.53 193.7 16.37H193.71ZM195.47 5.19C196.7 6.16 198.68 7.74 198.68 8.98C198.68 10.34 197.36 11.88 195.95 11.88C195.07 11.88 193.79 10.91 192.69 9.94C192.03 9.37 191.41 8.8 190.93 8.4C189.57 7.26 188.99 6.77 188.99 5.85C188.99 4.57 190.13 3.03 191.72 3.03C192.69 3.03 194.36 4.26 195.46 5.19H195.47Z" fill="#E9545D"/>
</g>
<defs>
<filter id="filter0_d_232_2669" x="0" y="0" width="213.95" height="46.55" filterUnits="userSpaceOnUse" color-interpolation-filters="sRGB">
<feFlood flood-opacity="0" result="BackgroundImageFix"/>
<feColorMatrix in="SourceAlpha" type="matrix" values="0 0 0 0 0 0 0 0 0 0 0 0 0 0 0 0 0 0 127 0" result="hardAlpha"/>
<feOffset dx="4" dy="4"/>
<feComposite in2="hardAlpha" operator="out"/>
<feColorMatrix type="matrix" values="0 0 0 0 0 0 0 0 0 0 0 0 0 0 0 0 0 0 0.6 0"/>
<feBlend mode="normal" in2="BackgroundImageFix" result="effect1_dropShadow_232_2669"/>
<feBlend mode="normal" in="SourceGraphic" in2="effect1_dropShadow_232_2669" result="shape"/>
</filter>
</defs>
</svg>
