<svg width="434" height="47" viewBox="0 0 434 47" fill="none" xmlns="http://www.w3.org/2000/svg">
<g filter="url(#filter0_d_232_3777)">
<path d="M425.125 23.7157L425.608 23.6277C426.004 23.5397 426.664 23.4077 426.928 23.4077C428.556 23.4077 429.349 24.5957 429.349 26.3117C429.349 27.8077 428.689 28.5117 427.237 28.7757L425.125 29.2157V39.3357C425.125 41.3157 424.2 42.0637 422.264 42.0637C420.46 42.0637 419.668 41.0957 419.668 39.3357V30.2717L408.668 32.3837C408.14 32.4717 407.348 32.6477 406.996 32.6477C405.368 32.6477 404.753 30.9757 404.753 29.6997C404.753 28.2477 405.412 27.4997 406.82 27.2357L419.668 24.7717V2.94773C419.668 0.923729 420.593 0.219727 422.529 0.219727C424.333 0.219727 425.125 1.18773 425.125 2.94773V23.7157ZM400.22 6.33573V11.7037H402.729C404.313 11.7037 405.368 12.5397 405.368 14.2117C405.368 15.8837 404.313 16.7197 402.729 16.7197H400.22V17.1597C401.892 19.9317 402.948 21.1637 405.06 23.5397C405.544 24.0677 405.853 24.6397 405.853 25.3877C405.853 26.5757 404.973 27.8517 403.697 27.8517C402.245 27.8517 401.144 26.0037 400.22 24.0677V39.2917C400.22 41.0077 399.472 42.0197 397.668 42.0197C395.864 42.0197 395.073 41.0077 395.073 39.2917V27.6317C394.545 28.8197 393.884 29.9197 393.224 31.0637C392.652 32.0757 391.596 33.8797 390.276 33.8797C388.78 33.8797 387.417 32.3837 387.417 30.9317C387.417 29.9197 387.945 29.2597 388.517 28.5117C391.641 24.6397 393.312 21.4277 394.896 16.7197H390.672C389 16.7197 387.901 16.0157 387.901 14.2117C387.901 12.4077 389 11.7037 390.672 11.7037H395.073V7.12773C393.841 7.30373 392.168 7.47973 390.936 7.47973C389.176 7.47973 388.164 6.81973 388.164 4.88373C388.164 2.99173 388.736 2.55173 393.092 2.37573C396.392 2.24373 399.077 1.58373 402.245 0.835727C402.597 0.747728 402.949 0.703729 403.301 0.703729C404.577 0.703729 405.457 1.89173 405.457 3.25573C405.457 5.41173 403.916 5.67573 400.22 6.33573ZM411.133 2.55173C412.101 2.55173 413.772 3.78373 414.872 4.70773C416.104 5.67573 418.085 7.25973 418.085 8.49173C418.085 9.85573 416.765 11.3957 415.357 11.3957C414.477 11.3957 413.2 10.4277 412.1 9.45973C411.44 8.88773 410.824 8.31573 410.34 7.91973C408.976 6.77573 408.405 6.29173 408.405 5.36773C408.405 4.09173 409.549 2.55173 411.133 2.55173ZM409.328 13.6397C410.076 13.6397 410.78 14.0357 413.112 15.8837C415.532 17.7757 416.237 18.7437 416.237 19.6237C416.237 20.9877 414.741 22.5717 413.289 22.5717C412.409 22.5717 411.572 21.7797 410.208 20.5037C409.636 19.9757 409.02 19.4037 408.272 18.7437C407.26 17.9077 406.645 17.2917 406.645 16.3237C406.645 15.0037 408.008 13.6397 409.328 13.6397Z" fill="#015DAE"/>
<path d="M353.449 7.61184H360.797C360.225 6.77584 359.565 5.32384 359.081 4.26783C358.773 3.65183 358.465 2.99184 358.465 2.28784C358.465 0.791835 360.357 0.131836 361.589 0.131836C363.173 0.131836 363.613 1.05584 364.273 2.33184C364.845 3.38784 365.637 4.83984 365.637 6.07184C365.637 6.73184 365.505 7.17184 364.977 7.61184H370.609C371.401 6.24784 372.149 4.83984 372.809 3.38784C373.689 1.36384 374.085 0.483836 375.757 0.483836C377.165 0.483836 378.881 1.23183 378.881 2.81583C378.881 4.04783 377.297 6.51184 376.549 7.61184H377.825C379.013 7.61184 380.289 8.13984 381.037 9.10784C381.741 10.0758 381.917 11.4838 381.917 12.6718V15.9278C381.917 17.9958 380.993 18.6118 379.013 18.6118C377.209 18.6118 376.417 17.7318 376.417 15.9718V13.5958C376.417 12.7598 375.977 12.3198 375.141 12.3198H349.489C348.609 12.3198 348.213 12.7598 348.213 13.5958V15.9278C348.213 17.9958 347.289 18.6118 345.353 18.6118C343.549 18.6118 342.713 17.7318 342.713 15.9718V12.6718C342.713 9.01984 344.165 7.61184 347.817 7.61184H348.653C348.301 6.90784 347.949 6.24784 347.553 5.58784C346.717 4.17984 346.277 3.47583 346.277 2.72784C346.277 1.31984 348.125 0.483836 349.357 0.483836C350.941 0.483836 351.557 1.58384 352.261 2.81583C352.833 3.73984 353.757 5.45584 353.757 6.51184C353.757 6.95184 353.669 7.21584 353.449 7.61184ZM365.417 30.8878V36.4318C365.417 40.5678 363.833 41.6238 359.917 41.7118C359.345 41.7118 358.113 41.7118 356.881 41.7118C355.341 41.7118 353.713 41.7118 353.141 41.5798C351.909 41.3158 351.425 39.9518 351.425 38.8518C351.425 37.1798 352.305 36.2998 353.977 36.2998C355.165 36.2998 356.397 36.3438 357.585 36.3438C359.169 36.3438 359.609 35.9918 359.609 34.4078V30.8878H344.165C342.405 30.8878 341.481 30.1398 341.481 28.2918C341.481 26.5758 342.537 25.9158 344.165 25.9158H359.609V24.7718C359.609 23.6718 360.313 23.2758 361.325 23.2318C365.153 21.5158 366.341 20.7678 366.341 20.4158C366.341 20.1518 365.813 20.1518 365.681 20.1518H350.765C349.181 20.1518 348.433 19.3598 348.433 17.7758C348.433 16.2798 349.357 15.3558 350.809 15.3558H372.237C373.733 15.3558 375.713 15.4438 375.713 17.9518C375.713 20.1518 374.129 21.2078 372.501 22.2638C369.993 23.8918 368.277 24.6838 365.593 25.9158H380.377C382.137 25.9158 383.105 26.6198 383.105 28.4238C383.105 30.1838 382.005 30.8878 380.377 30.8878H365.417Z" fill="#015DAE"/>
<path d="M301.808 18.1719H332.872C334.632 18.1719 335.908 19.4039 335.908 21.1639C335.908 22.9679 334.588 24.1559 332.872 24.1559H301.764C300.048 24.1559 298.772 23.0559 298.772 21.1639C298.772 19.2719 300.004 18.2599 301.808 18.1719Z" fill="#015DAE"/>
<path d="M269.198 4.92773H284.554C286.402 4.92773 287.37 5.89573 287.37 7.69973C287.37 9.45973 286.314 10.4277 284.554 10.4277H269.198C267.438 10.4277 266.382 9.45973 266.382 7.65573C266.382 5.80773 267.394 4.92773 269.198 4.92773ZM284.642 19.4037H264.358C262.642 19.4037 261.63 18.3917 261.63 16.6317C261.63 14.9157 262.642 13.9037 264.358 13.9037H287.018C290.01 13.9037 291.902 15.7077 291.902 18.6997C291.902 24.0237 286.534 30.4477 282.706 33.7037C280.418 35.6397 274.478 39.7317 271.53 39.7317C269.858 39.7317 268.494 38.4117 268.494 36.7397C268.494 35.1117 269.858 34.5837 271.134 34.0557C275.446 32.2517 278.966 29.9197 282.134 26.2677C283.41 24.8157 285.742 21.2077 285.742 20.1517C285.742 19.5357 285.434 19.4037 284.642 19.4037Z" fill="#015DAE"/>
<path d="M244.416 31.1077L245.34 23.4957C245.384 23.0997 245.384 22.9677 245.384 22.9237C245.384 22.6597 245.208 22.6157 244.812 22.6157H235C233.416 22.6157 232.448 21.6917 232.448 20.0637C232.448 18.5237 233.46 17.5117 235 17.5117H245.472C248.684 17.5117 250.972 18.7437 250.972 22.0877C250.972 22.4397 250.928 22.7917 250.884 23.1877L249.96 31.1077H255.592C257.308 31.1077 258.056 32.1637 258.056 33.7477C258.056 35.2877 257.176 36.2557 255.592 36.2557H228.576C226.948 36.2557 226.112 35.1997 226.112 33.6157C226.112 32.1197 227.08 31.1077 228.576 31.1077H244.416Z" fill="#015DAE"/>
<path d="M217.499 2.02393C220.051 2.02393 222.163 4.13593 222.163 6.64393C222.163 9.19593 220.051 11.3079 217.499 11.3079C214.991 11.3079 212.879 9.19593 212.879 6.64393C212.879 4.13593 214.991 2.02393 217.499 2.02393ZM217.499 4.35593C216.267 4.35593 215.211 5.41193 215.211 6.64393C215.211 7.91993 216.267 8.93193 217.499 8.93193C218.775 8.93193 219.831 7.91993 219.831 6.64393C219.831 5.41193 218.775 4.35593 217.499 4.35593ZM196.687 17.6439C200.691 16.5879 204.475 14.6519 207.863 12.3199C208.787 11.6599 209.755 10.9559 210.943 10.9559C212.615 10.9559 213.891 12.5839 213.891 14.1679C213.891 15.8399 212.219 16.8959 210.459 17.9959C206.235 20.6799 201.483 22.3079 196.687 23.6279V28.9519C196.687 30.4919 196.775 30.8439 197.611 31.1959C198.227 31.4599 200.295 31.5039 201.615 31.5039H202.451C205.927 31.5039 209.359 31.2399 212.791 30.6679C213.275 30.5799 213.759 30.4919 214.287 30.4919C216.091 30.4919 217.015 31.7239 217.015 33.4399C217.015 36.1679 215.431 36.4759 213.187 36.6959C209.227 37.0919 205.267 37.3119 201.307 37.3119C194.443 37.3119 190.747 36.8279 190.747 28.8639V8.09593C190.747 6.11593 191.891 5.32393 193.739 5.32393C195.587 5.32393 196.687 6.20393 196.687 8.09593V17.6439Z" fill="#015DAE"/>
<path d="M177.693 1.53955C180.245 1.53955 182.357 3.65155 182.357 6.15955C182.357 8.71155 180.245 10.8236 177.693 10.8236C175.185 10.8236 173.029 8.71155 173.029 6.15955C173.029 3.65155 175.185 1.53955 177.693 1.53955ZM160.313 12.4516V6.64355C160.313 4.75155 161.457 3.87155 163.261 3.87155C165.065 3.87155 166.209 4.83955 166.209 6.64355V12.4516H177.825C179.585 12.4516 180.597 13.4636 180.597 15.2676C180.597 17.0716 179.585 18.0836 177.825 18.0836H166.209V31.0636C166.209 36.1676 164.361 38.3236 159.125 38.3236C156.969 38.3236 155.429 37.6196 155.429 35.1996C155.429 32.9995 156.705 32.6036 158.597 32.5156C159.697 32.4716 159.873 32.4276 160.093 32.2076C160.313 31.9436 160.313 31.1516 160.313 30.1396V18.0836H148.609C146.761 18.0836 146.057 17.0276 146.057 15.2236C146.057 13.4195 147.069 12.4516 148.829 12.4516H160.313ZM177.693 3.87155C176.461 3.87155 175.405 4.92755 175.405 6.15955C175.405 7.43555 176.461 8.49155 177.693 8.49155C178.969 8.49155 179.981 7.43555 179.981 6.15955C179.981 4.92755 178.969 3.87155 177.693 3.87155ZM145.485 30.2716C145.485 29.3476 145.969 28.7756 146.893 27.7636C148.301 26.1796 149.621 24.5516 150.721 22.7476C151.689 21.2076 152.129 20.5036 153.669 20.5036C155.209 20.5036 156.837 21.7796 156.837 23.4076C156.837 24.8156 154.813 27.6316 153.449 29.3476C152.569 30.4476 151.601 31.8996 150.545 32.7356C150.017 33.1316 149.357 33.3516 148.697 33.3516C147.025 33.3516 145.485 31.9876 145.485 30.2716ZM169.905 23.4516C169.905 21.8236 171.401 20.5036 172.985 20.5036C173.777 20.5036 174.481 20.8116 175.053 21.3836C176.153 22.5276 176.593 23.2316 177.957 24.9036C179.453 26.7076 180.949 28.7756 180.949 29.9196C180.949 31.6356 179.409 33.0436 177.693 33.0436C176.505 33.0436 175.757 32.2076 175.141 31.2836C173.865 29.3476 172.501 27.4996 171.005 25.7396C170.433 25.0796 169.905 24.3316 169.905 23.4516Z" fill="#015DAE"/>
<path d="M127.719 15.9717C130.579 15.9717 132.911 18.3037 132.911 21.1637C132.911 24.0237 130.579 26.3557 127.719 26.3557C124.859 26.3557 122.527 24.0237 122.527 21.1637C122.527 18.3037 124.859 15.9717 127.719 15.9717Z" fill="#015DAE"/>
<path d="M105.394 2.11189C105.394 1.18789 106.23 0.483887 107.11 0.483887C107.814 0.483887 109.354 2.02389 110.014 2.68389C111.202 3.91589 112.082 5.10389 112.082 5.71989C112.082 6.59989 111.246 7.34789 110.366 7.34789C109.75 7.34789 109.398 6.90789 109.046 6.46789C108.21 5.49989 107.286 4.53189 106.45 3.78389C105.614 3.03589 105.394 2.63989 105.394 2.11189ZM101.786 5.14789C101.786 4.26789 102.622 3.56389 103.458 3.56389C104.03 3.56389 105.042 4.35589 106.23 5.58789C107.11 6.46789 108.474 7.96389 108.474 8.75589C108.474 9.67989 107.638 10.3839 106.758 10.3839C106.142 10.3839 105.79 9.94389 105.438 9.50389C104.558 8.44789 103.59 7.47989 102.622 6.55589C102.182 6.15989 101.786 5.76389 101.786 5.14789ZM96.7695 21.9999C99.7615 24.3319 102.578 26.9279 105.086 29.7439C106.186 30.9759 106.934 31.8119 106.934 33.0439C106.934 34.7599 105.394 36.2999 103.678 36.2999C102.534 36.2999 101.786 35.6839 101.126 34.8479C98.6175 31.7239 95.9335 28.8199 92.8095 26.3559C90.1695 28.9079 87.2655 31.1519 84.0095 33.1319C81.8095 34.4959 78.2895 36.4759 76.6615 36.4759C74.9015 36.4759 73.5815 35.0239 73.5815 33.3079C73.5815 31.7679 74.5055 31.2399 76.3095 30.4479C84.5815 26.8839 91.0055 21.0759 95.5375 13.5519H81.3255C79.4335 13.5519 78.3335 12.7159 78.3335 10.7359C78.3335 8.79989 79.4335 7.91989 81.3255 7.91989H98.7935C100.906 7.91989 102.93 8.66789 102.93 11.1319C102.93 13.7719 98.5295 19.8879 96.7695 21.9999Z" fill="#015DAE"/>
<path d="M53.4638 24.6836L56.3678 39.1156C56.4118 39.3356 56.4558 39.5116 56.4558 39.7316C56.4558 41.3156 55.1358 42.3276 53.5958 42.3276C52.3198 42.3276 51.4398 41.5796 51.1758 40.3036L48.1838 25.7396L41.0558 27.1036C40.8358 27.1476 40.5718 27.1916 40.3518 27.1916C38.8558 27.1916 37.9758 25.9596 37.9758 24.5076C37.9758 23.2316 38.7678 22.3076 40.0438 22.0876L47.2158 20.7236L45.9398 14.4756C45.8958 14.2116 45.8518 13.9916 45.8518 13.7716C45.8518 12.2756 47.0838 11.3516 48.7118 11.3516C49.9878 11.3516 50.9118 12.0996 51.1758 13.3316L52.4518 19.7556L63.4518 17.6876C63.7158 17.6436 64.0238 17.5996 64.2878 17.5996C65.8278 17.5996 67.2358 18.6556 67.2358 20.2836C67.2358 21.9116 64.4198 25.6956 63.3638 27.1036C62.4838 28.2476 61.6038 29.4796 60.5478 30.4916C60.0198 30.9756 59.4918 31.2836 58.7878 31.2836C57.3798 31.2836 56.0598 30.1836 56.0598 28.7316C56.0598 27.8516 56.4998 27.2796 57.4238 26.3116C58.2598 25.4316 59.0078 24.4636 59.7558 23.4956L53.4638 24.6836Z" fill="#015DAE"/>
<path d="M28.16 1.672C28.16 0.792 28.952 0 29.832 0C30.624 0 32.56 1.584 33.924 3.124C34.628 3.916 35.024 4.576 35.024 5.016C35.024 5.852 34.232 6.644 33.396 6.644C32.868 6.644 32.472 6.248 32.164 5.94C31.152 4.928 30.14 3.96 29.084 3.08C28.556 2.64 28.16 2.288 28.16 1.672ZM24.684 4.84C24.684 3.96 25.564 3.256 26.4 3.256C27.104 3.256 28.644 4.576 29.7 5.588C30.36 6.248 31.592 7.612 31.592 8.228C31.592 9.108 30.8 9.856 29.92 9.856C29.436 9.856 28.952 9.416 28.556 9.02C27.632 8.052 26.62 7.128 25.564 6.248C25.124 5.896 24.684 5.456 24.684 4.84ZM5.104 9.064C5.104 7.392 6.468 5.94 8.14 5.94C9.284 5.94 11.528 7.216 12.892 8.008C15.004 9.24 16.104 10.032 16.104 11.616C16.104 13.2 15.004 14.916 13.288 14.916C12.716 14.916 12.188 14.696 11.616 14.344C11.044 13.992 10.384 13.64 9.768 13.244C8.668 12.584 7.876 12.1 6.908 11.528C5.896 10.956 5.104 10.252 5.104 9.064ZM29.92 11.264C31.548 11.264 33.264 12.54 33.264 14.256C33.264 15.136 32.912 16.016 32.516 16.808C30.536 20.592 27.676 23.98 24.508 26.884C19.888 31.108 14.784 34.276 8.536 36.52C6.556 37.224 5.236 37.62 4.312 37.62C2.464 37.62 1.1 36.08 1.1 34.276C1.1 32.34 2.288 31.812 3.916 31.372C13.508 28.82 22.572 22.44 27.192 13.508C27.764 12.364 28.512 11.264 29.92 11.264ZM0 17.6C0 15.928 1.408 14.344 3.124 14.344C4.268 14.344 6.952 15.796 8.316 16.544C9.724 17.336 11.264 18.172 11.264 19.976C11.264 21.56 10.12 23.276 8.404 23.276C7.656 23.276 6.732 22.704 5.94 22.22C4.532 21.34 3.476 20.768 1.848 19.976C0.88 19.492 0 18.788 0 17.6Z" fill="#015DAE"/>
</g>
<defs>
<filter id="filter0_d_232_3777" x="0" y="0" width="433.349" height="46.3276" filterUnits="userSpaceOnUse" color-interpolation-filters="sRGB">
<feFlood flood-opacity="0" result="BackgroundImageFix"/>
<feColorMatrix in="SourceAlpha" type="matrix" values="0 0 0 0 0 0 0 0 0 0 0 0 0 0 0 0 0 0 127 0" result="hardAlpha"/>
<feOffset dx="4" dy="4"/>
<feComposite in2="hardAlpha" operator="out"/>
<feColorMatrix type="matrix" values="0 0 0 0 0 0 0 0 0 0 0 0 0 0 0 0 0 0 0.8 0"/>
<feBlend mode="normal" in2="BackgroundImageFix" result="effect1_dropShadow_232_3777"/>
<feBlend mode="normal" in="SourceGraphic" in2="effect1_dropShadow_232_3777" result="shape"/>
</filter>
</defs>
</svg>
