<svg width="185" height="46" viewBox="0 0 185 46" fill="none" xmlns="http://www.w3.org/2000/svg">
<g filter="url(#filter0_d_232_4023)">
<path d="M175.956 23.5839L176.44 23.4959C176.836 23.4079 177.496 23.2759 177.76 23.2759C179.388 23.2759 180.18 24.4639 180.18 26.1799C180.18 27.6759 179.52 28.3799 178.068 28.6439L175.956 29.0839V39.2039C175.956 41.1839 175.032 41.9319 173.096 41.9319C171.292 41.9319 170.5 40.9639 170.5 39.2039V30.1399L159.5 32.2519C158.972 32.3399 158.18 32.5159 157.828 32.5159C156.2 32.5159 155.584 30.8439 155.584 29.5679C155.584 28.1159 156.244 27.3679 157.652 27.1039L170.5 24.6399V2.81589C170.5 0.791893 171.424 0.0878906 173.36 0.0878906C175.164 0.0878906 175.956 1.05589 175.956 2.81589V23.5839ZM151.052 6.20389V11.5719H153.56C155.144 11.5719 156.2 12.4079 156.2 14.0799C156.2 15.7519 155.144 16.5879 153.56 16.5879H151.052V17.0279C152.724 19.7999 153.78 21.0319 155.892 23.4079C156.376 23.9359 156.684 24.5079 156.684 25.2559C156.684 26.4439 155.804 27.7199 154.528 27.7199C153.076 27.7199 151.976 25.8719 151.052 23.9359V39.1599C151.052 40.8759 150.304 41.8879 148.5 41.8879C146.696 41.8879 145.904 40.8759 145.904 39.1599V27.4999C145.376 28.6879 144.716 29.7879 144.056 30.9319C143.484 31.9439 142.428 33.7479 141.108 33.7479C139.612 33.7479 138.248 32.2519 138.248 30.7999C138.248 29.7879 138.776 29.1279 139.348 28.3799C142.472 24.5079 144.144 21.2959 145.728 16.5879H141.504C139.832 16.5879 138.732 15.8839 138.732 14.0799C138.732 12.2759 139.832 11.5719 141.504 11.5719H145.904V6.99589C144.672 7.17189 143 7.34789 141.768 7.34789C140.008 7.34789 138.996 6.68789 138.996 4.75189C138.996 2.85989 139.568 2.41989 143.924 2.24389C147.224 2.11189 149.908 1.45189 153.076 0.703891C153.428 0.615892 153.78 0.571893 154.132 0.571893C155.408 0.571893 156.288 1.75989 156.288 3.12389C156.288 5.27989 154.748 5.54389 151.052 6.20389ZM161.964 2.41989C162.932 2.41989 164.604 3.65189 165.704 4.57589C166.936 5.54389 168.916 7.12789 168.916 8.35989C168.916 9.72389 167.596 11.2639 166.188 11.2639C165.308 11.2639 164.032 10.2959 162.932 9.32789C162.272 8.75589 161.656 8.18389 161.172 7.78789C159.808 6.64389 159.236 6.15989 159.236 5.23589C159.236 3.95989 160.38 2.41989 161.964 2.41989ZM160.16 13.5079C160.908 13.5079 161.612 13.9039 163.944 15.7519C166.364 17.6439 167.068 18.6119 167.068 19.4919C167.068 20.8559 165.572 22.4399 164.12 22.4399C163.24 22.4399 162.404 21.6479 161.04 20.3719C160.468 19.8439 159.852 19.2719 159.104 18.6119C158.092 17.7759 157.476 17.1599 157.476 16.1919C157.476 14.8719 158.84 13.5079 160.16 13.5079Z" fill="#7FBE26"/>
<path d="M104.28 7.48H111.628C111.056 6.644 110.396 5.192 109.912 4.136C109.604 3.52 109.296 2.86 109.296 2.156C109.296 0.659999 111.188 0 112.42 0C114.004 0 114.444 0.924001 115.104 2.2C115.676 3.256 116.468 4.708 116.468 5.94C116.468 6.6 116.336 7.04 115.808 7.48H121.44C122.232 6.116 122.98 4.708 123.64 3.256C124.52 1.232 124.916 0.352 126.588 0.352C127.996 0.352 129.712 1.1 129.712 2.684C129.712 3.916 128.128 6.38 127.38 7.48H128.656C129.844 7.48 131.12 8.008 131.868 8.976C132.572 9.944 132.748 11.352 132.748 12.54V15.796C132.748 17.864 131.824 18.48 129.844 18.48C128.04 18.48 127.248 17.6 127.248 15.84V13.464C127.248 12.628 126.808 12.188 125.972 12.188H100.32C99.44 12.188 99.044 12.628 99.044 13.464V15.796C99.044 17.864 98.12 18.48 96.184 18.48C94.38 18.48 93.544 17.6 93.544 15.84V12.54C93.544 8.888 94.996 7.48 98.648 7.48H99.484C99.132 6.776 98.78 6.116 98.384 5.456C97.548 4.048 97.108 3.344 97.108 2.596C97.108 1.188 98.956 0.352 100.188 0.352C101.772 0.352 102.388 1.452 103.092 2.684C103.664 3.608 104.588 5.324 104.588 6.38C104.588 6.82 104.5 7.084 104.28 7.48ZM116.248 30.756V36.3C116.248 40.436 114.664 41.492 110.748 41.58C110.176 41.58 108.944 41.58 107.712 41.58C106.172 41.58 104.544 41.58 103.972 41.448C102.74 41.184 102.256 39.82 102.256 38.72C102.256 37.048 103.136 36.168 104.808 36.168C105.996 36.168 107.228 36.212 108.416 36.212C110 36.212 110.44 35.86 110.44 34.276V30.756H94.996C93.236 30.756 92.312 30.008 92.312 28.16C92.312 26.444 93.368 25.784 94.996 25.784H110.44V24.64C110.44 23.54 111.144 23.144 112.156 23.1C115.984 21.384 117.172 20.636 117.172 20.284C117.172 20.02 116.644 20.02 116.512 20.02H101.596C100.012 20.02 99.264 19.228 99.264 17.644C99.264 16.148 100.188 15.224 101.64 15.224H123.068C124.564 15.224 126.544 15.312 126.544 17.82C126.544 20.02 124.96 21.076 123.332 22.132C120.824 23.76 119.108 24.552 116.424 25.784H131.208C132.968 25.784 133.936 26.488 133.936 28.292C133.936 30.052 132.836 30.756 131.208 30.756H116.248Z" fill="#7FBE26"/>
<path d="M55.3521 11.7477V39.2477C55.3521 40.9197 54.5601 41.9317 52.8001 41.9317C50.9961 41.9317 50.2481 40.9197 50.2481 39.2477V21.3837C49.7641 21.9997 49.2361 22.3517 48.4001 22.3517C46.7721 22.3517 45.6721 20.6357 45.6721 19.1397C45.6721 18.0397 46.0681 17.2917 47.2121 15.7077C49.3681 12.6277 51.5681 7.21573 52.3601 3.51973C52.8001 1.49573 53.1521 0.219727 55.1761 0.219727C56.5841 0.219727 57.9041 0.879725 57.9041 2.46373C57.9041 4.26773 56.0561 9.89973 55.3521 11.7477ZM72.9521 20.7677C73.7441 21.3397 74.1401 21.6917 74.1401 22.3077C74.1401 23.1877 73.2601 24.0677 72.3801 24.0677C71.9401 24.0677 71.4121 23.7157 70.8841 23.2757C70.4441 22.9237 69.9601 22.5277 69.5201 22.2197C68.9481 21.8237 68.4201 21.5597 68.4641 20.7677H62.2161C61.6441 20.7677 61.3361 20.9877 61.3361 21.6037V21.9997C61.6001 21.9117 61.7321 21.8677 61.9961 21.8677C62.8761 21.8677 64.1961 22.4837 64.1961 23.4957C64.1961 24.6837 62.4361 26.9277 61.6881 27.8077C60.6761 29.0837 59.7521 29.7877 59.0041 29.7877C57.9481 29.7877 56.9361 28.7757 56.9361 27.6757C56.9361 27.0597 57.2881 26.7077 58.3001 25.7837C58.5641 25.5197 58.8281 25.2117 59.0921 24.9037C57.5081 24.9037 56.6721 24.2877 56.6721 22.6597V21.2957C56.6721 19.7117 57.0241 17.9077 58.9161 17.9077H59.6641V11.2197C59.6641 7.39173 60.4561 6.59973 64.2841 6.59973H68.3321C68.4641 6.15973 68.5961 5.71973 68.7281 5.27973H60.1921C58.8721 5.27973 57.9921 4.75173 57.9921 3.34373C57.9921 1.89173 58.8721 1.36373 60.1921 1.36373H85.3161C86.7681 1.36373 87.5601 1.89173 87.5601 3.43173C87.5601 4.79573 86.5481 5.27973 85.3161 5.27973H73.9641C73.7881 5.71973 73.6121 6.15973 73.4361 6.59973H79.3321C83.1601 6.59973 83.9521 7.39173 83.9521 11.2197V17.9077H84.5681C86.5041 17.9077 86.8121 19.6677 86.8121 21.2957V22.6597C86.8121 24.0237 86.2841 24.7277 84.9201 24.9037C85.8881 25.9597 86.7241 26.9277 86.7241 27.8077C86.7241 28.9517 85.6241 29.7437 84.6121 29.7437C83.6001 29.7437 83.1161 29.0397 82.3681 27.9397C81.8401 27.2357 80.9601 26.0477 80.3881 25.3877C79.5081 24.4197 79.2001 23.9357 79.2001 23.3637C79.2001 22.3957 80.2121 21.6037 81.1801 21.6037C81.5321 21.6037 81.7521 21.6917 82.0601 21.9117V21.6477C82.0601 21.0317 81.7961 20.7677 81.1801 20.7677H72.9521ZM64.6361 10.7357H78.8481V10.1637C78.8481 9.54773 78.5841 9.28373 77.9681 9.28373H65.5161C64.9001 9.28373 64.6361 9.54773 64.6361 10.1637V10.7357ZM78.8481 12.8037H64.6361V14.2557H78.8481V12.8037ZM78.8481 16.3237H64.6361V17.8637H78.8481V16.3237ZM70.4441 28.9957H79.1561C80.8281 28.9957 82.1481 29.4357 82.1481 31.4157C82.1481 33.9237 79.1121 35.5957 77.1761 36.6517C80.1681 37.2237 82.4561 37.3557 85.4481 37.5757C86.7241 37.7077 87.5161 38.0597 87.5161 39.5117C87.5161 41.1837 86.6801 41.7557 85.0961 41.7557C81.4441 41.7557 74.9761 40.4357 71.5881 39.0717C68.2881 40.2597 61.8641 41.7117 58.4321 41.7117C57.0241 41.7117 56.1881 41.0077 56.1881 39.5557C56.1881 38.1477 57.1121 37.7517 58.3441 37.6637C61.1601 37.5317 64.0201 37.2677 66.8361 36.7397C65.5601 35.9037 64.4601 35.0677 63.4041 34.0557C62.2601 34.6277 59.7961 35.7277 58.5641 35.7277C57.5521 35.7277 56.9361 34.8917 56.9361 33.9237C56.9361 32.7357 57.9921 32.2957 59.0481 31.8557C61.7321 30.7557 63.9321 29.5237 66.1761 27.7197C64.8561 27.3237 64.6361 26.3117 64.6361 25.0797V23.5397C64.6361 22.1757 65.1641 21.3837 66.6601 21.3837C67.7601 21.3837 68.5961 21.9117 68.5961 23.0997V23.6717C68.5961 24.5517 68.8161 24.9037 69.6961 24.9037H73.6121C74.8881 24.9037 74.9321 24.8597 75.3281 23.8037C75.6361 22.9677 75.9881 22.7037 76.9121 22.7037C78.1441 22.7037 78.9801 23.1877 78.9801 24.5517C78.9801 25.6957 78.4521 27.0157 77.3081 27.4997C76.4721 27.8517 74.5801 27.8957 73.1281 27.8957H71.3681C71.0601 28.3357 70.7961 28.5997 70.4441 28.9957ZM66.8801 32.1197C68.5521 33.4397 70.1801 34.3197 72.1161 35.1117C72.8641 34.8037 75.9001 33.4837 75.9001 32.6477C75.9001 32.1197 75.3721 32.1197 75.1961 32.1197H66.8801Z" fill="#7FBE26"/>
<path d="M23.452 3.73973H38.764C40.568 3.73973 41.448 4.53173 41.448 6.37973C41.448 8.13973 40.436 8.88773 38.764 8.88773H23.452V11.4837H36.652C38.324 11.4837 38.984 12.2317 38.984 13.9037C38.984 15.5317 38.192 16.1917 36.652 16.1917H4.84C3.256 16.1917 2.464 15.4437 2.464 13.8157C2.464 12.1877 3.3 11.4837 4.84 11.4837H17.996V8.88773H2.684C0.88 8.88773 0 8.09573 0 6.20373C0 4.44373 1.012 3.73973 2.684 3.73973H17.996V2.28773C17.996 0.483725 19.448 0.219727 20.9 0.219727C22.308 0.219727 23.452 0.747727 23.452 2.28773V3.73973ZM8.492 32.0757C8.184 34.4957 7.568 36.5637 6.512 38.7637C5.852 40.1277 4.884 41.9317 3.168 41.9317C1.892 41.9317 0.0880001 41.0077 0.0880001 39.5117C0.0880001 38.8957 0.352 38.2797 1.012 37.1357C2.816 33.8797 3.564 31.1517 3.564 27.4117V23.1877C3.564 19.5357 5.016 18.1277 8.668 18.1277H32.956C36.608 18.1277 38.016 19.5357 38.016 23.1877V26.9717C38.016 30.6237 36.608 32.0757 32.956 32.0757H8.492ZM18.172 27.2797V22.8797H10.296C9.284 22.8797 8.8 23.3637 8.8 24.4197V27.2797H18.172ZM23.188 27.2797H31.108C32.12 27.2797 32.648 26.7517 32.648 25.7397V24.4197C32.648 23.3637 32.12 22.8797 31.108 22.8797H23.188V27.2797Z" fill="#7FBE26"/>
</g>
<defs>
<filter id="filter0_d_232_4023" x="0" y="0" width="184.18" height="45.9321" filterUnits="userSpaceOnUse" color-interpolation-filters="sRGB">
<feFlood flood-opacity="0" result="BackgroundImageFix"/>
<feColorMatrix in="SourceAlpha" type="matrix" values="0 0 0 0 0 0 0 0 0 0 0 0 0 0 0 0 0 0 127 0" result="hardAlpha"/>
<feOffset dx="4" dy="4"/>
<feComposite in2="hardAlpha" operator="out"/>
<feColorMatrix type="matrix" values="0 0 0 0 0 0 0 0 0 0 0 0 0 0 0 0 0 0 0.6 0"/>
<feBlend mode="normal" in2="BackgroundImageFix" result="effect1_dropShadow_232_4023"/>
<feBlend mode="normal" in="SourceGraphic" in2="effect1_dropShadow_232_4023" result="shape"/>
</filter>
</defs>
</svg>
