<svg width="428" height="47" viewBox="0 0 428 47" fill="none" xmlns="http://www.w3.org/2000/svg">
<g filter="url(#filter0_d_232_3842)">
<path d="M418.911 23.6278L419.395 23.5398C419.791 23.4518 420.451 23.3198 420.715 23.3198C422.343 23.3198 423.135 24.5078 423.135 26.2238C423.135 27.7198 422.475 28.4238 421.023 28.6878L418.911 29.1278V39.2478C418.911 41.2278 417.987 41.9758 416.051 41.9758C414.247 41.9758 413.455 41.0078 413.455 39.2478V30.1838L402.455 32.2958C401.927 32.3838 401.135 32.5598 400.783 32.5598C399.155 32.5598 398.539 30.8878 398.539 29.6118C398.539 28.1598 399.199 27.4118 400.607 27.1478L413.455 24.6838V2.85984C413.455 0.835838 414.379 0.131836 416.315 0.131836C418.119 0.131836 418.911 1.09984 418.911 2.85984V23.6278ZM394.007 6.24784V11.6158H396.515C398.099 11.6158 399.155 12.4518 399.155 14.1238C399.155 15.7958 398.099 16.6318 396.515 16.6318H394.007V17.0718C395.679 19.8438 396.735 21.0758 398.847 23.4518C399.331 23.9798 399.639 24.5518 399.639 25.2998C399.639 26.4878 398.759 27.7638 397.483 27.7638C396.031 27.7638 394.931 25.9158 394.007 23.9798V39.2038C394.007 40.9198 393.259 41.9318 391.455 41.9318C389.651 41.9318 388.859 40.9198 388.859 39.2038V27.5438C388.331 28.7318 387.671 29.8318 387.011 30.9758C386.439 31.9878 385.383 33.7918 384.063 33.7918C382.567 33.7918 381.203 32.2958 381.203 30.8438C381.203 29.8318 381.731 29.1718 382.303 28.4238C385.427 24.5518 387.099 21.3398 388.683 16.6318H384.459C382.787 16.6318 381.687 15.9278 381.687 14.1238C381.687 12.3198 382.787 11.6158 384.459 11.6158H388.859V7.03984C387.627 7.21584 385.955 7.39184 384.723 7.39184C382.963 7.39184 381.951 6.73184 381.951 4.79584C381.951 2.90384 382.523 2.46384 386.879 2.28784C390.179 2.15584 392.863 1.49584 396.031 0.747836C396.383 0.659837 396.735 0.615838 397.087 0.615838C398.363 0.615838 399.243 1.80384 399.243 3.16784C399.243 5.32384 397.703 5.58784 394.007 6.24784ZM404.919 2.46384C405.887 2.46384 407.559 3.69584 408.659 4.61984C409.891 5.58784 411.871 7.17184 411.871 8.40384C411.871 9.76784 410.551 11.3078 409.143 11.3078C408.263 11.3078 406.987 10.3398 405.887 9.37184C405.227 8.79984 404.611 8.22784 404.127 7.83184C402.763 6.68784 402.191 6.20384 402.191 5.27984C402.191 4.00384 403.335 2.46384 404.919 2.46384ZM403.115 13.5518C403.863 13.5518 404.567 13.9478 406.899 15.7958C409.319 17.6878 410.023 18.6558 410.023 19.5358C410.023 20.8998 408.527 22.4838 407.075 22.4838C406.195 22.4838 405.359 21.6918 403.995 20.4158C403.423 19.8878 402.807 19.3158 402.059 18.6558C401.047 17.8198 400.431 17.2038 400.431 16.2358C400.431 14.9158 401.795 13.5518 403.115 13.5518Z" fill="#0098D8"/>
<path d="M347.235 7.52395H354.583C354.011 6.68795 353.351 5.23595 352.867 4.17994C352.559 3.56394 352.251 2.90395 352.251 2.19995C352.251 0.703945 354.143 0.0439453 355.375 0.0439453C356.959 0.0439453 357.399 0.967947 358.059 2.24395C358.631 3.29995 359.423 4.75195 359.423 5.98394C359.423 6.64395 359.291 7.08395 358.763 7.52395H364.395C365.187 6.15995 365.935 4.75194 366.595 3.29994C367.475 1.27594 367.871 0.395946 369.543 0.395946C370.951 0.395946 372.667 1.14394 372.667 2.72794C372.667 3.95994 371.083 6.42394 370.335 7.52395H371.611C372.799 7.52395 374.075 8.05195 374.823 9.01995C375.527 9.98795 375.703 11.3959 375.703 12.5839V15.8399C375.703 17.9079 374.779 18.5239 372.799 18.5239C370.995 18.5239 370.203 17.6439 370.203 15.8839V13.5079C370.203 12.6719 369.763 12.2319 368.927 12.2319H343.275C342.395 12.2319 341.999 12.6719 341.999 13.5079V15.8399C341.999 17.9079 341.075 18.5239 339.139 18.5239C337.335 18.5239 336.499 17.6439 336.499 15.8839V12.5839C336.499 8.93195 337.951 7.52395 341.603 7.52395H342.439C342.087 6.81994 341.735 6.15995 341.339 5.49995C340.503 4.09195 340.063 3.38794 340.063 2.63995C340.063 1.23195 341.911 0.395946 343.143 0.395946C344.727 0.395946 345.343 1.49594 346.047 2.72794C346.619 3.65195 347.543 5.36795 347.543 6.42395C347.543 6.86395 347.455 7.12795 347.235 7.52395ZM359.203 30.7999V36.3439C359.203 40.4799 357.619 41.5359 353.703 41.6239C353.131 41.6239 351.899 41.6239 350.667 41.6239C349.127 41.6239 347.499 41.6239 346.927 41.4919C345.695 41.2279 345.211 39.8639 345.211 38.7639C345.211 37.0919 346.091 36.2119 347.763 36.2119C348.951 36.2119 350.183 36.2559 351.371 36.2559C352.955 36.2559 353.395 35.9039 353.395 34.3199V30.7999H337.951C336.191 30.7999 335.267 30.0519 335.267 28.2039C335.267 26.4879 336.323 25.8279 337.951 25.8279H353.395V24.6839C353.395 23.5839 354.099 23.1879 355.111 23.1439C358.939 21.4279 360.127 20.6799 360.127 20.3279C360.127 20.0639 359.599 20.0639 359.467 20.0639H344.551C342.967 20.0639 342.219 19.2719 342.219 17.6879C342.219 16.1919 343.143 15.2679 344.595 15.2679H366.023C367.519 15.2679 369.499 15.3559 369.499 17.8639C369.499 20.0639 367.915 21.1199 366.287 22.1759C363.779 23.8039 362.063 24.5959 359.379 25.8279H374.163C375.923 25.8279 376.891 26.5319 376.891 28.3359C376.891 30.0959 375.791 30.7999 374.163 30.7999H359.203Z" fill="#0098D8"/>
<path d="M324.179 27.8081H314.191C313.663 32.0321 311.859 35.7721 309.043 38.7641C308.515 39.2921 307.679 40.0841 306.755 40.7441C305.831 41.4041 304.819 41.9321 304.027 41.9321C302.487 41.9321 301.123 40.4361 301.123 38.9401C301.123 37.7521 301.871 37.1801 302.795 36.6081C305.787 34.6721 307.415 32.6481 308.515 29.5241C309.263 27.4121 309.527 25.2561 309.527 22.9241V6.55609C309.527 2.90409 310.935 1.49609 314.631 1.49609H324.355C328.007 1.49609 329.459 2.90409 329.459 6.55609V36.1681C329.459 40.5681 327.171 41.2721 323.959 41.2721H319.559C317.843 41.2721 316.479 40.6561 316.479 38.2361C316.479 36.4761 317.359 35.5521 319.119 35.5521C320.175 35.5521 321.275 35.5961 322.375 35.5961C323.871 35.5961 324.179 35.1561 324.179 33.7041V27.8081ZM306.183 7.17209V30.4921C306.183 34.1441 304.775 35.5521 301.123 35.5521H295.447C291.751 35.5521 290.343 34.1441 290.343 30.4921V7.17209C290.343 3.47609 291.795 2.06809 295.447 2.06809H301.123C304.775 2.06809 306.183 3.47609 306.183 7.17209ZM314.675 12.1001H324.179V7.9641C324.179 6.9521 323.695 6.46809 322.683 6.46809H316.171C315.159 6.46809 314.675 6.99609 314.675 7.9641V12.1001ZM301.343 16.2361V8.3601C301.343 7.5241 300.947 7.0841 300.067 7.0841H296.679C295.843 7.0841 295.403 7.5241 295.403 8.3601V16.2361H301.343ZM324.179 16.8961H314.675V22.9681H324.179V16.8961ZM301.343 20.9001H295.403V29.3041C295.403 30.1401 295.843 30.5801 296.679 30.5801H300.067C300.947 30.5801 301.343 30.1841 301.343 29.3041V20.9001Z" fill="#0098D8"/>
<path d="M272.479 5.93998C271.643 8.88799 269.927 11.44 267.595 13.464C266.627 14.3 264.031 15.928 262.755 15.928C261.479 15.928 260.291 14.652 260.291 13.2C260.291 11.704 261.347 11.44 263.019 10.604C264.955 9.63598 266.363 7.91998 267.111 5.93998H263.151C261.655 5.93998 260.819 5.32398 260.819 3.73998C260.819 2.19999 261.655 1.58398 263.151 1.58398H278.991C281.499 1.58398 283.303 2.15598 283.303 5.05998C283.303 7.12798 282.819 12.012 281.543 13.552C280.619 14.652 279.123 14.74 277.627 14.74H275.471C273.271 14.74 271.775 14.564 271.775 12.452C271.775 10.956 272.567 10.296 274.019 10.296C274.767 10.296 275.559 10.34 276.307 10.34C277.231 10.34 277.583 10.076 277.803 9.19598C277.935 8.66798 278.243 7.25998 278.243 6.68798C278.243 6.15998 277.935 5.93998 277.407 5.93998H272.479ZM259.235 6.33598V23.892C259.235 27.5 258.223 28.512 254.615 28.512H249.291C245.683 28.512 244.671 27.5 244.671 23.892V6.33598C244.671 2.72798 245.683 1.71598 249.291 1.71598H254.615C258.179 1.71598 259.235 2.72798 259.235 6.33598ZM249.423 12.716H254.571V7.43598C254.571 6.68798 254.219 6.33598 253.515 6.33598H250.479C249.731 6.33598 249.423 6.68798 249.423 7.43598V12.716ZM282.599 20.988V24.376C282.599 27.984 281.587 28.996 277.979 28.996H266.715C263.107 28.996 262.095 27.984 262.095 24.376V20.988C262.095 17.38 263.107 16.368 266.715 16.368H277.979C281.587 16.368 282.599 17.38 282.599 20.988ZM249.423 17.204V22.704C249.423 23.452 249.731 23.804 250.479 23.804H253.515C254.219 23.804 254.571 23.452 254.571 22.704V17.204H249.423ZM276.307 20.328H268.431C267.551 20.328 267.155 20.768 267.155 21.604V23.716C267.155 24.596 267.551 25.036 268.431 25.036H276.307C277.143 25.036 277.583 24.596 277.583 23.716V21.604C277.583 20.68 277.143 20.328 276.307 20.328ZM249.203 29.524C250.523 29.524 251.931 30.316 251.931 31.812C251.931 33.352 250.479 36.432 249.731 37.84C248.675 39.864 247.751 41.58 246.167 41.58C244.759 41.58 243.175 40.568 243.175 39.028C243.175 38.28 243.747 37.18 244.627 35.948C245.947 34.1 246.255 32.912 247.135 30.888C247.531 29.964 248.191 29.524 249.203 29.524ZM277.627 29.788C279.123 29.788 280.091 31.284 281.719 33.88C282.291 34.76 283.171 36.124 283.699 37.268C283.963 37.884 284.139 38.456 284.139 38.896C284.139 40.568 282.555 41.712 281.059 41.712C279.607 41.712 279.299 41.096 278.463 39.38C277.891 38.192 276.439 35.552 275.691 34.364C275.251 33.66 274.723 32.824 274.723 32.208C274.723 30.668 276.219 29.788 277.627 29.788ZM255.715 32.384C255.715 30.8 256.639 30.096 258.179 30.096C259.631 30.096 260.335 30.932 260.511 32.252C260.731 33.924 260.995 36.696 260.995 38.412C260.995 39.468 260.951 41.448 258.399 41.448C255.979 41.448 255.803 39.82 255.803 38.104V36.916C255.803 35.332 255.715 33.44 255.715 32.384ZM267.771 30.228C269.487 30.228 269.927 31.548 270.631 33.748C271.511 36.52 271.951 38.236 271.951 38.984C271.951 40.568 270.631 41.448 269.135 41.448C267.595 41.448 267.111 40.656 266.715 39.072C266.451 38.016 266.187 36.476 265.703 34.628C265.395 33.528 265.219 32.912 265.219 32.296C265.219 30.932 266.539 30.228 267.771 30.228Z" fill="#0098D8"/>
<path d="M226.074 15.8838C228.934 15.8838 231.266 18.2158 231.266 21.0758C231.266 23.9358 228.934 26.2678 226.074 26.2678C223.214 26.2678 220.882 23.9358 220.882 21.0758C220.882 18.2158 223.214 15.8838 226.074 15.8838Z" fill="#0098D8"/>
<path d="M199.115 19.756C199.555 21.252 200.083 22.792 200.699 24.244C203.823 21.604 204.439 21.252 205.275 21.252C206.639 21.252 207.827 22.44 207.827 23.804C207.827 24.904 206.727 25.74 205.143 26.884C204.527 27.324 203.603 27.94 202.767 28.468C204.747 31.68 206.111 33.264 208.707 35.904C209.279 36.476 209.631 37.004 209.631 37.84C209.631 39.248 208.487 40.744 206.991 40.744C206.111 40.744 205.495 40.304 204.923 39.688C203.471 38.148 202.195 36.476 201.095 34.672C198.851 31.02 195.859 23.98 194.715 19.756H194.231C193.747 20.196 193.263 20.636 192.735 21.076C196.343 24.376 198.411 29.876 198.411 34.672C198.411 37.752 197.443 40.656 194.143 41.404C193.219 41.624 192.295 41.668 191.371 41.668H189.479C187.939 41.668 186.531 41.492 186.531 39.336C186.531 37.444 188.115 37.356 189.611 37.356H190.711C192.383 37.356 193.527 36.916 193.527 33.968C193.527 33.616 193.527 33.264 193.483 32.912C190.711 35.2 187.631 37.092 184.419 38.676C183.363 39.204 181.075 40.304 179.975 40.304C178.655 40.304 177.995 38.852 177.995 37.708C177.995 36.432 178.699 36.08 179.755 35.728C184.771 34.012 188.335 32.252 192.559 28.908C192.427 28.424 192.251 28.028 192.031 27.588C189.567 29.48 186.619 31.064 183.715 32.428C182.835 32.868 180.811 33.66 179.887 33.66C178.655 33.66 178.171 32.428 178.171 31.372C178.171 30.14 178.743 29.832 179.799 29.524C183.495 28.424 186.971 26.752 190.095 24.508L189.303 23.584C187.411 24.728 181.999 27.456 179.931 27.456C178.655 27.456 178.039 26.224 178.039 25.124C178.039 23.672 179.447 23.232 182.043 22.484C183.935 21.956 186.223 20.812 187.851 19.756H185.035C181.251 19.756 180.503 18.876 180.503 15.136V12.54C180.283 12.584 180.019 12.628 179.799 12.628C178.611 12.628 177.863 11.528 177.555 10.472C177.423 10.912 177.247 11.396 177.071 11.836V39.292C177.071 41.008 176.279 42.02 174.475 42.02C172.671 42.02 171.923 41.008 171.923 39.292V21.56C171.395 22.22 170.867 22.572 170.031 22.572C168.315 22.572 167.171 20.9 167.171 19.272C167.171 18.216 167.567 17.6 168.095 16.764C170.867 12.584 172.407 9.02 173.595 4.4C174.431 1.232 174.651 0.307999 176.719 0.307999C178.127 0.307999 179.535 0.923999 179.535 2.508C179.535 3.96 178.655 7.04 178.259 8.36C179.183 7.7 179.843 7.216 181.603 5.676C183.231 4.224 183.891 3.432 185.211 1.76C185.915 0.879999 186.575 0 187.851 0C189.039 0 190.535 0.616001 190.535 1.98C190.535 2.2 190.447 2.464 190.359 2.684H198.631C200.523 2.684 202.415 3.08 202.415 5.412C202.415 6.908 201.447 7.832 200.391 8.756H203.515C207.299 8.756 208.047 9.636 208.047 13.376V15.136C208.047 18.876 207.299 19.756 203.515 19.756H199.115ZM187.807 6.38C187.191 7.084 186.223 8.14 185.519 8.756H194.407C194.891 8.492 196.123 7.524 196.123 6.952C196.123 6.468 195.683 6.38 195.287 6.38H187.807ZM191.855 12.628H186.399C185.695 12.628 185.387 12.936 185.387 13.64V14.872C185.387 15.532 185.695 15.884 186.399 15.884H191.855V12.628ZM196.563 12.628V15.884H202.107C202.811 15.884 203.119 15.576 203.119 14.872V13.64C203.119 12.936 202.811 12.628 202.107 12.628H196.563Z" fill="#0098D8"/>
<path d="M146.447 5.41173V2.90373C146.447 0.923725 147.283 0.219727 149.219 0.219727C151.023 0.219727 151.683 1.18773 151.683 2.90373V5.41173H155.335C159.647 5.41173 160.615 6.37972 160.615 10.6477V20.5037H161.055C162.595 20.5037 163.167 21.4277 163.167 22.8797C163.167 24.5517 162.507 25.4317 160.747 25.4317H152.123C153.223 28.1157 153.927 29.6997 155.731 31.8997C157.227 33.7037 159.075 35.0677 161.187 36.2117C162.155 36.7397 162.991 37.3557 162.991 38.6317C162.991 39.7757 162.023 41.7117 160.131 41.7117C158.547 41.7117 155.775 39.4237 154.631 38.3237C152.387 36.1237 150.583 33.4837 149.351 30.6237C148.295 32.9997 146.579 35.4197 144.731 37.3117C143.411 38.6317 139.759 41.7117 137.955 41.7117C136.195 41.7117 135.139 39.7317 135.139 38.7197C135.139 37.4437 136.151 36.9157 137.119 36.3877C141.299 34.0557 144.511 30.1397 145.655 25.4317H137.779C136.987 25.4317 136.283 25.2997 135.799 24.5957V33.9237C135.799 37.9717 134.919 38.8517 130.871 38.8517H127.571C123.523 38.8517 122.643 37.9717 122.643 33.9237V7.03973C122.643 2.99173 123.523 2.11173 127.571 2.11173H130.871C134.919 2.11173 135.799 2.99173 135.799 7.03973V21.2517C136.239 20.6357 136.723 20.5037 137.471 20.5037H137.911V10.6477C137.911 6.37972 138.879 5.41173 143.147 5.41173H146.447ZM131.267 17.9957V8.09573C131.267 7.39173 130.915 7.03973 130.255 7.03973H128.539C127.879 7.03973 127.483 7.39173 127.483 8.09573V17.9957H131.267ZM151.595 20.5037H155.731V11.5717C155.731 10.7357 155.335 10.2957 154.455 10.2957H151.683V17.8197C151.683 18.6997 151.683 19.6237 151.595 20.5037ZM146.403 20.5037C146.447 19.6677 146.447 18.8757 146.447 18.0397V10.2957H143.763C142.883 10.2957 142.487 10.7357 142.487 11.5717V20.5037H146.403ZM131.267 22.6157H127.483V32.8237C127.483 33.5277 127.879 33.8797 128.539 33.8797H130.255C130.959 33.8797 131.267 33.5277 131.267 32.8237V22.6157Z" fill="#0098D8"/>
<path d="M104.618 15.8838C107.478 15.8838 109.81 18.2158 109.81 21.0758C109.81 23.9358 107.478 26.2678 104.618 26.2678C101.758 26.2678 99.4263 23.9358 99.4263 21.0758C99.4263 18.2158 101.758 15.8838 104.618 15.8838Z" fill="#0098D8"/>
<path d="M48.9718 21.5161C47.8718 21.4281 47.1678 20.3721 47.1678 19.3601C47.1678 18.2161 47.9598 17.7761 48.8838 17.3801C50.4678 16.6321 51.7438 16.0161 53.1078 14.9161C51.8318 15.0041 49.4118 15.2681 48.1798 15.2681C46.7278 15.2681 46.1998 14.9161 46.1998 13.3761C46.1998 11.5721 47.2998 11.5721 48.7958 11.5281C49.3238 10.9561 49.8518 10.3841 50.3798 9.81211C49.6758 9.10811 48.9718 8.44811 48.1358 7.83211C47.1678 7.08411 46.5078 6.55611 46.5078 5.72011C46.5078 4.66411 47.5198 3.47611 48.6638 3.47611C48.8838 3.47611 49.0158 3.52011 49.2358 3.60811C49.8078 2.72811 50.2038 2.02411 50.5118 1.49611C50.9958 0.660106 51.3478 0.308105 52.0958 0.308105C53.0638 0.308105 54.3838 1.10011 54.3838 2.15611C54.3838 3.08011 52.7998 4.97211 52.1838 5.72011C52.4918 5.98411 52.7998 6.24811 53.1078 6.51211C53.7678 5.67611 54.3398 4.92811 54.7358 4.31211C55.6158 3.08011 56.0998 2.42011 56.8918 2.42011C57.8598 2.42011 59.1798 3.34411 59.1798 4.40011C59.1798 5.58811 54.9118 10.3401 53.8998 11.4401C54.6478 11.4401 55.3958 11.3961 56.1438 11.3961C56.6278 10.5601 57.0678 9.59211 57.3758 8.66811C57.6398 7.92011 57.7718 7.43611 58.6958 7.43611C59.4878 7.43611 60.1478 7.78811 60.1478 8.66811C60.1478 9.28411 59.7518 10.6041 59.5318 11.2201C58.8718 13.1121 57.9478 14.9161 56.7158 16.5001C55.6158 17.9521 54.2958 19.1841 52.7558 20.1521H64.2398V19.5801C64.2398 18.3481 65.9998 18.2161 66.9238 18.2161C67.8038 18.2161 69.5638 18.3481 69.5638 19.5361V20.1521H76.0758C75.0638 19.7121 74.8878 18.9641 74.8878 17.9521V6.16011C74.8878 2.15611 75.7678 1.23211 79.8158 1.23211H83.2918C85.4918 1.23211 86.9438 1.67211 86.9438 4.22411C86.9438 6.16011 85.9758 7.43611 84.8758 8.93211C84.6558 9.24011 84.6118 9.37211 84.6118 9.46011C84.6118 9.72411 84.7878 9.85611 84.9638 10.0321C86.5918 11.6161 87.6918 13.5081 87.6918 15.6641C87.6918 18.1721 86.4158 19.2281 83.9518 19.2281H82.8958C81.1358 19.2281 79.9038 19.0961 79.9038 17.2041C79.9038 15.6201 80.8718 15.6201 81.4438 15.6201H81.7958C82.5438 15.6201 83.3358 15.5761 83.3358 14.6081C83.3358 13.3761 82.2358 12.0121 81.4438 11.1321C81.0038 10.6041 80.6518 10.1641 80.6518 9.41611C80.6518 8.80011 81.0478 8.18411 81.7518 7.21611C82.0158 6.86411 82.5878 6.11611 82.5878 5.67611C82.5878 5.23611 82.3238 5.10411 81.9278 5.10411H80.3878C79.6838 5.10411 79.3318 5.45611 79.3318 6.16011V17.9521C79.3318 18.9641 79.1558 19.7121 78.1438 20.1521H83.0718C84.2598 20.1521 84.8758 20.6361 84.8758 21.8681C84.8758 23.0121 84.1718 23.4521 83.0718 23.4521H77.6598C77.4398 24.1561 77.2638 24.6401 76.9118 25.3001H85.7998C87.1198 25.3001 87.7798 25.7401 87.7798 27.0601C87.7798 28.2921 86.9438 28.7321 85.7998 28.7321H48.0478C46.7718 28.7321 46.1118 28.2481 46.1118 26.9281C46.1118 25.6961 46.9478 25.3001 48.0478 25.3001H57.1998C56.8918 24.4641 56.7598 24.2441 56.4078 23.4521H50.7318C49.6758 23.4521 48.9278 23.0121 48.9278 21.8681C48.9278 21.7361 48.9718 21.6481 48.9718 21.5161ZM70.2678 17.1601C67.9798 17.6441 61.6878 18.7441 59.5758 18.7441C58.4318 18.7441 57.8598 18.0841 57.8598 16.9841C57.8598 15.6641 58.7398 15.4001 60.4558 15.2241V5.63211C60.4558 2.20011 61.2478 1.45211 64.6358 1.45211H69.2118C72.6438 1.45211 73.4358 2.20011 73.4358 5.63211V7.74411C73.4358 9.50411 73.3918 11.3521 71.2798 11.7921C72.2038 12.6721 74.7118 16.0161 74.7118 17.2481C74.7118 18.3481 73.5238 19.2721 72.4238 19.2721C71.6758 19.2721 71.3238 18.8761 70.9278 18.2161C70.7078 17.8641 70.5318 17.5561 70.2678 17.1601ZM69.6078 5.63211V5.10411C69.6078 4.53211 69.3438 4.22411 68.7718 4.22411H65.2958C64.7238 4.22411 64.4598 4.53211 64.4598 5.10411V5.63211H69.6078ZM64.4598 9.28411H68.7718C69.3438 9.28411 69.6078 8.97611 69.6078 8.40411V7.83211H64.4598V9.28411ZM68.4198 14.2121C68.2438 13.8601 68.1118 13.5521 68.1118 13.1561C68.1118 12.6281 68.3318 12.2761 68.7278 11.9681H64.4598V14.7841C65.7798 14.6081 67.0998 14.4321 68.4198 14.2121ZM72.2478 23.3641H61.7758C62.0838 23.9801 62.3918 24.6401 62.6558 25.3001H71.4558C71.7638 24.6401 72.0278 24.0241 72.2478 23.3641ZM83.2918 33.6161V37.3121C83.2918 40.0841 82.2358 41.1401 79.4638 41.1401H54.3838C51.6118 41.1401 50.5558 40.0841 50.5558 37.3121V33.6161C50.5558 30.8441 51.6118 29.8321 54.3838 29.8321H79.4638C82.1918 29.8321 83.2918 30.8881 83.2918 33.6161ZM56.0558 34.2761H77.7918V33.5721C77.7918 33.0001 77.5278 32.6921 76.9118 32.6921H56.9358C56.3638 32.6921 56.0558 33.0001 56.0558 33.5721V34.2761ZM56.0558 36.5641V37.2241C56.0558 37.7961 56.3638 38.1041 56.9358 38.1041H76.9118C77.5278 38.1041 77.7918 37.7961 77.7918 37.2241V36.5641H56.0558Z" fill="#0098D8"/>
<path d="M23.716 3.91584H36.872C38.72 3.91584 39.556 4.66384 39.556 6.51184C39.556 8.27184 38.456 8.93184 36.872 8.93184H32.648C32.252 10.5158 31.768 12.0998 31.196 13.6838H38.94C40.788 13.6838 41.624 14.3878 41.624 16.2798C41.624 17.9958 40.568 18.6558 38.94 18.6558H2.684C0.88 18.6558 0 17.9078 0 16.0598C0 14.2998 1.056 13.6838 2.684 13.6838H10.56C10.164 12.0998 9.768 10.4718 9.328 8.93184H4.884C2.992 8.93184 2.2 8.13984 2.2 6.24784C2.2 4.53184 3.256 3.91584 4.884 3.91584H17.996V2.24384C17.996 0.351839 19.492 0.131836 21.032 0.131836C22.484 0.131836 23.716 0.571839 23.716 2.24384V3.91584ZM26.708 8.93184H15.092C15.312 9.59184 16.192 13.1118 16.236 13.6838H25.212C25.74 12.4958 26.4 10.1638 26.708 8.93184ZM36.828 25.8718V36.0358C36.828 39.6878 35.376 41.1398 31.724 41.1398H9.856C6.204 41.1398 4.752 39.6878 4.752 36.0358V25.8718C4.752 22.2198 6.204 20.7678 9.856 20.7678H31.724C35.376 20.7678 36.828 22.2198 36.828 25.8718ZM31.24 28.7758V26.8398C31.24 25.9598 30.8 25.5198 29.92 25.5198H11.704C10.824 25.5198 10.428 25.9598 10.428 26.8398V28.7758H31.24ZM31.24 33.0438H10.428V35.0678C10.428 35.9478 10.868 36.3878 11.704 36.3878H29.92C30.8 36.3878 31.24 35.9478 31.24 35.0678V33.0438Z" fill="#0098D8"/>
</g>
<defs>
<filter id="filter0_d_232_3842" x="0" y="0" width="427.135" height="46.02" filterUnits="userSpaceOnUse" color-interpolation-filters="sRGB">
<feFlood flood-opacity="0" result="BackgroundImageFix"/>
<feColorMatrix in="SourceAlpha" type="matrix" values="0 0 0 0 0 0 0 0 0 0 0 0 0 0 0 0 0 0 127 0" result="hardAlpha"/>
<feOffset dx="4" dy="4"/>
<feComposite in2="hardAlpha" operator="out"/>
<feColorMatrix type="matrix" values="0 0 0 0 0 0 0 0 0 0 0 0 0 0 0 0 0 0 0.6 0"/>
<feBlend mode="normal" in2="BackgroundImageFix" result="effect1_dropShadow_232_3842"/>
<feBlend mode="normal" in="SourceGraphic" in2="effect1_dropShadow_232_3842" result="shape"/>
</filter>
</defs>
</svg>
