<svg width="478" height="47" viewBox="0 0 478 47" fill="none" xmlns="http://www.w3.org/2000/svg">
<g filter="url(#filter0_d_232_3907)">
<path d="M469.138 23.7157L469.622 23.6277C470.018 23.5397 470.678 23.4077 470.942 23.4077C472.57 23.4077 473.362 24.5957 473.362 26.3117C473.362 27.8077 472.702 28.5117 471.25 28.7757L469.138 29.2157V39.3357C469.138 41.3157 468.214 42.0637 466.278 42.0637C464.474 42.0637 463.682 41.0957 463.682 39.3357V30.2717L452.682 32.3837C452.154 32.4717 451.362 32.6477 451.01 32.6477C449.382 32.6477 448.766 30.9757 448.766 29.6997C448.766 28.2477 449.426 27.4997 450.834 27.2357L463.682 24.7717V2.94773C463.682 0.923729 464.606 0.219727 466.542 0.219727C468.346 0.219727 469.138 1.18773 469.138 2.94773V23.7157ZM444.234 6.33573V11.7037H446.742C448.326 11.7037 449.382 12.5397 449.382 14.2117C449.382 15.8837 448.326 16.7197 446.742 16.7197H444.234V17.1597C445.906 19.9317 446.962 21.1637 449.074 23.5397C449.558 24.0677 449.866 24.6397 449.866 25.3877C449.866 26.5757 448.986 27.8517 447.71 27.8517C446.258 27.8517 445.158 26.0037 444.234 24.0677V39.2917C444.234 41.0077 443.486 42.0197 441.682 42.0197C439.878 42.0197 439.086 41.0077 439.086 39.2917V27.6317C438.558 28.8197 437.898 29.9197 437.238 31.0637C436.666 32.0757 435.61 33.8797 434.29 33.8797C432.794 33.8797 431.43 32.3837 431.43 30.9317C431.43 29.9197 431.958 29.2597 432.53 28.5117C435.654 24.6397 437.326 21.4277 438.91 16.7197H434.686C433.014 16.7197 431.914 16.0157 431.914 14.2117C431.914 12.4077 433.014 11.7037 434.686 11.7037H439.086V7.12773C437.854 7.30373 436.182 7.47973 434.95 7.47973C433.19 7.47973 432.178 6.81973 432.178 4.88373C432.178 2.99173 432.75 2.55173 437.106 2.37573C440.406 2.24373 443.09 1.58373 446.258 0.835727C446.61 0.747728 446.962 0.703729 447.314 0.703729C448.59 0.703729 449.47 1.89173 449.47 3.25573C449.47 5.41173 447.93 5.67573 444.234 6.33573ZM455.146 2.55173C456.114 2.55173 457.786 3.78373 458.886 4.70773C460.118 5.67573 462.098 7.25973 462.098 8.49173C462.098 9.85573 460.778 11.3957 459.37 11.3957C458.49 11.3957 457.214 10.4277 456.114 9.45973C455.454 8.88773 454.838 8.31573 454.354 7.91973C452.99 6.77573 452.418 6.29173 452.418 5.36773C452.418 4.09173 453.562 2.55173 455.146 2.55173ZM453.342 13.6397C454.09 13.6397 454.794 14.0357 457.126 15.8837C459.546 17.7757 460.25 18.7437 460.25 19.6237C460.25 20.9877 458.754 22.5717 457.302 22.5717C456.422 22.5717 455.586 21.7797 454.222 20.5037C453.65 19.9757 453.034 19.4037 452.286 18.7437C451.274 17.9077 450.658 17.2917 450.658 16.3237C450.658 15.0037 452.022 13.6397 453.342 13.6397Z" fill="#F4C200"/>
<path d="M397.462 7.61184H404.81C404.238 6.77584 403.578 5.32384 403.094 4.26783C402.786 3.65183 402.478 2.99184 402.478 2.28784C402.478 0.791835 404.37 0.131836 405.602 0.131836C407.186 0.131836 407.626 1.05584 408.286 2.33184C408.858 3.38784 409.65 4.83984 409.65 6.07184C409.65 6.73184 409.518 7.17184 408.99 7.61184H414.622C415.414 6.24784 416.162 4.83984 416.822 3.38784C417.702 1.36384 418.098 0.483836 419.77 0.483836C421.178 0.483836 422.894 1.23183 422.894 2.81583C422.894 4.04783 421.31 6.51184 420.562 7.61184H421.838C423.026 7.61184 424.302 8.13984 425.05 9.10784C425.754 10.0758 425.93 11.4838 425.93 12.6718V15.9278C425.93 17.9958 425.006 18.6118 423.026 18.6118C421.222 18.6118 420.43 17.7318 420.43 15.9718V13.5958C420.43 12.7598 419.99 12.3198 419.154 12.3198H393.502C392.622 12.3198 392.226 12.7598 392.226 13.5958V15.9278C392.226 17.9958 391.302 18.6118 389.366 18.6118C387.562 18.6118 386.726 17.7318 386.726 15.9718V12.6718C386.726 9.01984 388.178 7.61184 391.83 7.61184H392.666C392.314 6.90784 391.962 6.24784 391.566 5.58784C390.73 4.17984 390.29 3.47583 390.29 2.72784C390.29 1.31984 392.138 0.483836 393.37 0.483836C394.954 0.483836 395.57 1.58384 396.274 2.81583C396.846 3.73984 397.77 5.45584 397.77 6.51184C397.77 6.95184 397.682 7.21584 397.462 7.61184ZM409.43 30.8878V36.4318C409.43 40.5678 407.846 41.6238 403.93 41.7118C403.358 41.7118 402.126 41.7118 400.894 41.7118C399.354 41.7118 397.726 41.7118 397.154 41.5798C395.922 41.3158 395.438 39.9518 395.438 38.8518C395.438 37.1798 396.318 36.2998 397.99 36.2998C399.178 36.2998 400.41 36.3438 401.598 36.3438C403.182 36.3438 403.622 35.9918 403.622 34.4078V30.8878H388.178C386.418 30.8878 385.494 30.1398 385.494 28.2918C385.494 26.5758 386.55 25.9158 388.178 25.9158H403.622V24.7718C403.622 23.6718 404.326 23.2758 405.338 23.2318C409.166 21.5158 410.354 20.7678 410.354 20.4158C410.354 20.1518 409.826 20.1518 409.694 20.1518H394.778C393.194 20.1518 392.446 19.3598 392.446 17.7758C392.446 16.2798 393.37 15.3558 394.822 15.3558H416.25C417.746 15.3558 419.726 15.4438 419.726 17.9518C419.726 20.1518 418.142 21.2078 416.514 22.2638C414.006 23.8918 412.29 24.6838 409.606 25.9158H424.39C426.15 25.9158 427.118 26.6198 427.118 28.4238C427.118 30.1838 426.018 30.8878 424.39 30.8878H409.43Z" fill="#F4C200"/>
<path d="M369.479 21.6479C372.471 23.9799 375.287 26.5759 377.795 29.3919C378.895 30.6239 379.643 31.4599 379.643 32.6919C379.643 34.4079 378.103 35.9479 376.387 35.9479C375.243 35.9479 374.495 35.3319 373.835 34.4959C371.327 31.3719 368.643 28.4679 365.519 26.0039C362.879 28.5559 359.931 30.7999 356.719 32.7799C354.695 34.0119 351.043 36.1239 349.371 36.1239C347.611 36.1239 346.291 34.6719 346.291 32.9559C346.291 31.4159 347.215 30.8879 349.019 30.0959C357.247 26.5759 363.715 20.7239 368.247 13.1999H354.035C352.143 13.1999 351.043 12.3639 351.043 10.3839C351.043 8.44787 352.143 7.56787 354.035 7.56787H371.503C373.923 7.56787 375.639 8.31587 375.639 10.7799C375.639 13.4199 371.239 19.5359 369.479 21.6479Z" fill="#F4C200"/>
<path d="M319.049 1.53955C320.633 1.53955 323.581 2.46355 325.297 2.94755C327.541 3.56355 329.565 4.09155 329.565 6.33555C329.565 7.87555 328.685 9.28355 327.013 9.28355C326.485 9.28355 326.001 9.15155 324.989 8.79955C322.965 8.13955 320.941 7.56755 318.873 7.08355C317.377 6.73155 316.189 6.33555 316.189 4.57555C316.189 2.72755 317.201 1.53955 319.049 1.53955ZM326.705 22.9236V38.4556C326.705 40.3475 325.429 41.2276 323.669 41.2276C321.909 41.2276 320.765 40.2596 320.765 38.4556V27.6756C318.521 29.2596 310.997 33.9236 308.533 33.9236C306.817 33.9236 305.541 32.5156 305.541 30.7996C305.541 29.2156 306.817 28.5996 309.149 27.6316C315.925 24.8596 321.205 21.0756 326.309 15.8396H312.889C311.129 15.8396 310.117 14.8716 310.117 13.0676C310.117 11.3076 311.173 10.4276 312.889 10.4276H330.357C332.293 10.4276 334.405 10.6036 334.405 13.1116C334.405 14.6076 333.393 15.8396 332.073 17.3356C330.357 19.2716 328.597 21.1636 326.705 22.9236ZM329.125 24.9916C329.125 23.3195 330.621 22.0436 332.249 22.0436C333.481 22.0436 335.065 23.4516 336.473 24.7276C337.485 25.6076 338.585 26.5756 339.421 27.6316C339.905 28.2476 340.257 28.9076 340.257 29.6996C340.257 31.2836 338.981 32.7356 337.353 32.7356C336.121 32.7356 335.373 31.9876 334.141 30.6236C332.953 29.3475 331.633 28.1596 330.269 27.0596C329.609 26.5316 329.125 25.8716 329.125 24.9916Z" fill="#F4C200"/>
<path d="M294.588 1.672C294.588 0.792 295.38 0 296.26 0C297.052 0 298.988 1.584 300.352 3.124C301.056 3.916 301.452 4.576 301.452 5.016C301.452 5.852 300.66 6.644 299.824 6.644C299.296 6.644 298.9 6.248 298.592 5.94C297.58 4.928 296.568 3.96 295.512 3.08C294.984 2.64 294.588 2.288 294.588 1.672ZM291.112 4.84C291.112 3.96 291.992 3.256 292.828 3.256C293.532 3.256 295.072 4.576 296.128 5.588C296.788 6.248 298.02 7.612 298.02 8.228C298.02 9.108 297.228 9.856 296.348 9.856C295.864 9.856 295.38 9.416 294.984 9.02C294.06 8.052 293.048 7.128 291.992 6.248C291.552 5.896 291.112 5.456 291.112 4.84ZM271.532 9.064C271.532 7.392 272.896 5.94 274.568 5.94C275.712 5.94 277.956 7.216 279.32 8.008C281.432 9.24 282.532 10.032 282.532 11.616C282.532 13.2 281.432 14.916 279.716 14.916C279.144 14.916 278.616 14.696 278.044 14.344C277.472 13.992 276.812 13.64 276.196 13.244C275.096 12.584 274.304 12.1 273.336 11.528C272.324 10.956 271.532 10.252 271.532 9.064ZM296.348 11.264C297.976 11.264 299.692 12.54 299.692 14.256C299.692 15.136 299.34 16.016 298.944 16.808C296.964 20.592 294.104 23.98 290.936 26.884C286.316 31.108 281.212 34.276 274.964 36.52C272.984 37.224 271.664 37.62 270.74 37.62C268.892 37.62 267.528 36.08 267.528 34.276C267.528 32.34 268.716 31.812 270.344 31.372C279.936 28.82 289 22.44 293.62 13.508C294.192 12.364 294.94 11.264 296.348 11.264ZM266.428 17.6C266.428 15.928 267.836 14.344 269.552 14.344C270.696 14.344 273.38 15.796 274.744 16.544C276.152 17.336 277.692 18.172 277.692 19.976C277.692 21.56 276.548 23.276 274.832 23.276C274.084 23.276 273.16 22.704 272.368 22.22C270.96 21.34 269.904 20.768 268.276 19.976C267.308 19.492 266.428 18.788 266.428 17.6Z" fill="#F4C200"/>
<path d="M254.688 3.34377C254.688 2.46376 255.524 1.75977 256.404 1.75977C257.24 1.75977 258.648 3.43176 259.264 4.17977C259.836 4.88376 261.068 6.64376 261.068 7.25976C261.068 8.13976 260.232 8.84377 259.352 8.84377C258.736 8.84377 258.384 8.40377 258.076 7.96377C257.196 6.73177 256.492 5.85176 255.568 4.88376C254.908 4.17977 254.688 3.78377 254.688 3.34377ZM250.86 6.11576C250.86 5.19177 251.652 4.53177 252.532 4.53177C253.368 4.53177 254.248 5.54377 255.392 6.95177C256.228 7.96377 257.196 9.19577 257.196 10.0318C257.196 10.9118 256.36 11.6158 255.524 11.6158C254.952 11.6158 254.512 11.1758 254.16 10.6918C253.368 9.63577 252.576 8.57977 251.696 7.61177C251.036 6.90776 250.86 6.55577 250.86 6.11576ZM235.372 17.6438C239.376 16.5878 243.16 14.6518 246.548 12.3198C247.472 11.6598 248.44 10.9558 249.628 10.9558C251.3 10.9558 252.576 12.5838 252.576 14.1678C252.576 15.8398 250.904 16.8958 249.144 17.9958C244.92 20.6798 240.168 22.3078 235.372 23.6278V28.9518C235.372 30.4478 235.46 30.7998 236.296 31.1958C236.912 31.5038 238.98 31.5038 240.3 31.5038H241.136C244.612 31.5038 248.044 31.2398 251.476 30.6678C251.96 30.5798 252.444 30.4918 252.972 30.4918C254.776 30.4918 255.7 31.7238 255.7 33.4398C255.7 36.1678 254.116 36.4318 251.872 36.6958C247.868 37.1798 243.952 37.3118 239.992 37.3118C233.128 37.3118 229.432 36.8278 229.432 28.8638V8.09577C229.432 6.11576 230.576 5.32377 232.424 5.32377C234.272 5.32377 235.372 6.20377 235.372 8.09577V17.6438Z" fill="#F4C200"/>
<path d="M207.552 8.05187H215.076C216.132 8.05187 217.188 8.18387 218.068 8.88787C218.904 9.54787 219.388 10.5599 219.388 11.6599C219.388 13.2439 217.54 17.2039 216.66 18.9199C213.976 24.2439 210.5 29.1719 206.188 33.2639C203.372 35.9039 200.204 38.1039 196.728 39.8199C195.54 40.3919 194.616 40.7879 193.692 40.7879C192.108 40.7879 190.744 39.4239 190.744 37.7959C190.744 36.4319 191.404 35.9039 193.076 35.1119C197.256 33.0879 199.544 31.3279 202.36 28.6879C206.76 24.5519 210.236 19.0959 212.788 13.4639H204.208C202.492 15.9719 200.556 18.3039 198.488 20.5919C197.256 21.9559 195.98 23.3199 194.484 23.3199C192.944 23.3199 191.36 22.0879 191.36 20.4599C191.36 19.4039 191.976 18.7879 192.988 17.7759C196.772 13.9479 200.292 9.50387 202.668 4.48787C203.328 3.07987 203.944 2.06787 205.704 2.06787C207.156 2.06787 208.916 2.85987 208.916 4.53187C208.916 5.58787 208.432 6.59987 207.552 8.05187Z" fill="#F4C200"/>
<path d="M164.657 16.5876C164.657 15.0476 166.021 14.0796 167.473 14.0796C168.925 14.0796 169.673 15.2236 170.377 16.3236C171.389 17.8636 172.313 19.4036 172.313 20.5916C172.313 22.1756 170.861 23.2756 169.365 23.2756C167.957 23.2756 167.385 22.1316 166.813 20.9876C166.373 20.1076 165.889 19.2276 165.317 18.3916C164.965 17.8636 164.657 17.2916 164.657 16.5876ZM157.837 37.7956C157.837 35.9476 159.157 35.5956 160.653 35.1556C169.541 32.6036 175.789 26.7516 178.077 17.6876C178.473 16.1036 178.869 15.0916 180.761 15.0916C182.081 15.0916 183.533 15.9716 183.533 17.4676C183.533 18.3476 183.225 19.4476 182.609 21.2076C181.025 25.6516 178.517 29.8316 175.085 33.0876C171.477 36.5196 167.165 38.8076 162.457 40.1716C161.445 40.4796 160.961 40.5676 160.477 40.5676C158.981 40.5676 157.837 39.2916 157.837 37.7956ZM156.209 19.0516C156.209 17.5116 157.661 16.4556 159.113 16.4556C160.917 16.4556 161.753 18.3916 162.589 19.7116C163.469 21.0756 164.085 22.0876 164.085 23.1436C164.085 24.7276 162.633 25.9156 161.137 25.9156C159.949 25.9156 159.333 25.1676 158.849 24.1996C158.277 23.0116 157.661 21.9116 156.869 20.8116C156.429 20.1956 156.209 19.7116 156.209 19.0516Z" fill="#F4C200"/>
<path d="M142.831 1.672C142.831 0.792 143.623 0 144.503 0C145.295 0 147.231 1.584 148.595 3.124C149.299 3.916 149.695 4.576 149.695 5.016C149.695 5.852 148.903 6.644 148.067 6.644C147.539 6.644 147.143 6.248 146.835 5.94C145.823 4.928 144.811 3.96 143.755 3.08C143.227 2.64 142.831 2.288 142.831 1.672ZM139.355 4.84C139.355 3.96 140.235 3.256 141.071 3.256C141.775 3.256 143.315 4.576 144.371 5.588C145.031 6.248 146.263 7.612 146.263 8.228C146.263 9.108 145.471 9.856 144.591 9.856C144.107 9.856 143.623 9.416 143.227 9.02C142.303 8.052 141.291 7.128 140.235 6.248C139.795 5.896 139.355 5.456 139.355 4.84ZM119.775 9.064C119.775 7.392 121.139 5.94 122.811 5.94C123.955 5.94 126.199 7.216 127.563 8.008C129.675 9.24 130.775 10.032 130.775 11.616C130.775 13.2 129.675 14.916 127.959 14.916C127.387 14.916 126.859 14.696 126.287 14.344C125.715 13.992 125.055 13.64 124.439 13.244C123.339 12.584 122.547 12.1 121.579 11.528C120.567 10.956 119.775 10.252 119.775 9.064ZM144.591 11.264C146.219 11.264 147.935 12.54 147.935 14.256C147.935 15.136 147.583 16.016 147.187 16.808C145.207 20.592 142.347 23.98 139.179 26.884C134.559 31.108 129.455 34.276 123.207 36.52C121.227 37.224 119.907 37.62 118.983 37.62C117.135 37.62 115.771 36.08 115.771 34.276C115.771 32.34 116.959 31.812 118.587 31.372C128.179 28.82 137.243 22.44 141.863 13.508C142.435 12.364 143.183 11.264 144.591 11.264ZM114.671 17.6C114.671 15.928 116.079 14.344 117.795 14.344C118.939 14.344 121.623 15.796 122.987 16.544C124.395 17.336 125.935 18.172 125.935 19.976C125.935 21.56 124.791 23.276 123.075 23.276C122.327 23.276 121.403 22.704 120.611 22.22C119.203 21.34 118.147 20.768 116.519 19.976C115.551 19.492 114.671 18.788 114.671 17.6Z" fill="#F4C200"/>
<path d="M72.7372 18.1719H103.801C105.561 18.1719 106.837 19.4039 106.837 21.1639C106.837 22.9679 105.517 24.1559 103.801 24.1559H72.6932C70.9772 24.1559 69.7012 23.0559 69.7012 21.1639C69.7012 19.2719 70.9332 18.2599 72.7372 18.1719Z" fill="#F4C200"/>
<path d="M49.9441 31.1077L50.8681 23.4957C50.9121 23.0997 50.9121 22.9677 50.9121 22.9237C50.9121 22.6597 50.7361 22.6157 50.3401 22.6157H40.5281C38.9441 22.6157 37.9761 21.6917 37.9761 20.0637C37.9761 18.5237 38.9881 17.5117 40.5281 17.5117H51.0001C54.2121 17.5117 56.5001 18.7437 56.5001 22.0877C56.5001 22.4397 56.4561 22.7917 56.4121 23.1877L55.4881 31.1077H61.1201C62.8361 31.1077 63.5841 32.1637 63.5841 33.7477C63.5841 35.2877 62.7041 36.2557 61.1201 36.2557H34.1041C32.4761 36.2557 31.6401 35.1997 31.6401 33.6157C31.6401 32.1197 32.6081 31.1077 34.1041 31.1077H49.9441Z" fill="#F4C200"/>
<path d="M3.08 7.03958C3.08 5.19158 4.224 3.87158 6.116 3.87158C8.316 3.87158 13.464 5.63158 15.752 6.33558C17.248 6.81958 19.932 7.65558 21.12 8.57958C21.824 9.15158 22.132 9.81158 22.132 10.8236C22.132 12.4076 21.252 13.9476 19.492 13.9476C18.744 13.9476 18.084 13.6396 17.38 13.3316C13.816 11.7476 10.076 10.5596 6.292 9.67958C4.268 9.19558 3.08 8.93158 3.08 7.03958ZM5.764 15.3116C8.272 15.3116 14.388 17.3796 16.896 18.3476C19.008 19.1396 21.208 19.9316 21.208 21.9996C21.208 23.4956 20.284 25.2116 18.612 25.2116C18.04 25.2116 17.644 25.1236 16.764 24.7276C13.244 23.1436 9.548 21.8676 5.808 21.1636C4.18 20.8556 2.904 20.3716 2.904 18.4796C2.904 16.8076 4.004 15.3116 5.764 15.3116ZM0 30.7996C0 28.8636 1.1 27.5876 3.08 27.5876C6.996 27.5876 14.476 29.5236 18.26 30.7996C20.196 31.4596 22.704 32.2516 24.376 33.3956C25.124 33.9236 25.476 34.7156 25.476 35.6396C25.476 37.1796 24.464 38.8516 22.792 38.8516C22 38.8516 20.856 38.3236 19.976 37.9276C14.432 35.4636 8.712 34.0556 2.728 33.3516C1.188 33.1756 0 32.5596 0 30.7996Z" fill="#F4C200"/>
</g>
<defs>
<filter id="filter0_d_232_3907" x="0" y="0" width="477.361" height="46.064" filterUnits="userSpaceOnUse" color-interpolation-filters="sRGB">
<feFlood flood-opacity="0" result="BackgroundImageFix"/>
<feColorMatrix in="SourceAlpha" type="matrix" values="0 0 0 0 0 0 0 0 0 0 0 0 0 0 0 0 0 0 127 0" result="hardAlpha"/>
<feOffset dx="4" dy="4"/>
<feComposite in2="hardAlpha" operator="out"/>
<feColorMatrix type="matrix" values="0 0 0 0 0 0 0 0 0 0 0 0 0 0 0 0 0 0 0.6 0"/>
<feBlend mode="normal" in2="BackgroundImageFix" result="effect1_dropShadow_232_3907"/>
<feBlend mode="normal" in="SourceGraphic" in2="effect1_dropShadow_232_3907" result="shape"/>
</filter>
</defs>
</svg>
