<svg width="476" height="47" viewBox="0 0 476 47" fill="none" xmlns="http://www.w3.org/2000/svg">
<g filter="url(#filter0_d_232_3647)">
<path d="M467.044 23.9799L467.528 23.8919C467.924 23.8039 468.584 23.6719 468.848 23.6719C470.476 23.6719 471.268 24.8599 471.268 26.5759C471.268 28.0719 470.608 28.7759 469.156 29.0399L467.044 29.4799V39.5999C467.044 41.5799 466.12 42.3279 464.184 42.3279C462.38 42.3279 461.588 41.3599 461.588 39.5999V30.5359L450.588 32.6479C450.06 32.7359 449.268 32.9119 448.916 32.9119C447.288 32.9119 446.672 31.2399 446.672 29.9639C446.672 28.5119 447.332 27.7639 448.74 27.4999L461.588 25.0359V3.21189C461.588 1.18789 462.512 0.483887 464.448 0.483887C466.252 0.483887 467.044 1.45189 467.044 3.21189V23.9799ZM442.14 6.59989V11.9679H444.648C446.232 11.9679 447.288 12.8039 447.288 14.4759C447.288 16.1479 446.232 16.9839 444.648 16.9839H442.14V17.4239C443.812 20.1959 444.868 21.4279 446.98 23.8039C447.464 24.3319 447.772 24.9039 447.772 25.6519C447.772 26.8399 446.892 28.1159 445.616 28.1159C444.164 28.1159 443.064 26.2679 442.14 24.3319V39.5559C442.14 41.2719 441.392 42.2839 439.588 42.2839C437.784 42.2839 436.992 41.2719 436.992 39.5559V27.8959C436.464 29.0839 435.804 30.1839 435.144 31.3279C434.572 32.3399 433.516 34.1439 432.196 34.1439C430.7 34.1439 429.336 32.6479 429.336 31.1959C429.336 30.1839 429.864 29.5239 430.436 28.7759C433.56 24.9039 435.232 21.6919 436.816 16.9839H432.592C430.92 16.9839 429.82 16.2799 429.82 14.4759C429.82 12.6719 430.92 11.9679 432.592 11.9679H436.992V7.39189C435.76 7.56789 434.088 7.74389 432.856 7.74389C431.096 7.74389 430.084 7.08389 430.084 5.14789C430.084 3.25589 430.656 2.81589 435.012 2.63989C438.312 2.50789 440.996 1.84789 444.164 1.09989C444.516 1.01189 444.868 0.967889 445.22 0.967889C446.496 0.967889 447.376 2.15589 447.376 3.51989C447.376 5.67589 445.836 5.93989 442.14 6.59989ZM453.052 2.81589C454.02 2.81589 455.692 4.04789 456.792 4.97189C458.024 5.93989 460.004 7.52389 460.004 8.75589C460.004 10.1199 458.684 11.6599 457.276 11.6599C456.396 11.6599 455.12 10.6919 454.02 9.72389C453.36 9.15189 452.744 8.57989 452.26 8.18389C450.896 7.03989 450.324 6.55589 450.324 5.63189C450.324 4.35589 451.468 2.81589 453.052 2.81589ZM451.248 13.9039C451.996 13.9039 452.7 14.2999 455.032 16.1479C457.452 18.0399 458.156 19.0079 458.156 19.8879C458.156 21.2519 456.66 22.8359 455.208 22.8359C454.328 22.8359 453.492 22.0439 452.128 20.7679C451.556 20.2399 450.94 19.6679 450.192 19.0079C449.18 18.1719 448.564 17.5559 448.564 16.5879C448.564 15.2679 449.928 13.9039 451.248 13.9039Z" fill="#C10147"/>
<path d="M395.369 7.876H402.717C402.145 7.04 401.485 5.588 401.001 4.53199C400.693 3.91599 400.385 3.256 400.385 2.552C400.385 1.056 402.277 0.395996 403.509 0.395996C405.093 0.395996 405.533 1.32 406.193 2.596C406.765 3.652 407.557 5.104 407.557 6.336C407.557 6.996 407.425 7.436 406.897 7.876H412.529C413.321 6.512 414.069 5.104 414.729 3.652C415.609 1.628 416.005 0.747996 417.677 0.747996C419.085 0.747996 420.801 1.49599 420.801 3.08C420.801 4.312 419.217 6.776 418.469 7.876H419.745C420.933 7.876 422.209 8.404 422.957 9.372C423.661 10.34 423.837 11.748 423.837 12.936V16.192C423.837 18.26 422.913 18.876 420.933 18.876C419.129 18.876 418.337 17.996 418.337 16.236V13.86C418.337 13.024 417.897 12.584 417.061 12.584H391.409C390.529 12.584 390.133 13.024 390.133 13.86V16.192C390.133 18.26 389.209 18.876 387.273 18.876C385.469 18.876 384.633 17.996 384.633 16.236V12.936C384.633 9.284 386.085 7.876 389.737 7.876H390.573C390.221 7.172 389.869 6.512 389.473 5.852C388.637 4.444 388.197 3.74 388.197 2.992C388.197 1.584 390.045 0.747996 391.277 0.747996C392.861 0.747996 393.477 1.848 394.181 3.08C394.753 4.004 395.677 5.72 395.677 6.776C395.677 7.216 395.589 7.48 395.369 7.876ZM407.337 31.152V36.696C407.337 40.832 405.753 41.888 401.837 41.976C401.265 41.976 400.033 41.976 398.801 41.976C397.261 41.976 395.633 41.976 395.061 41.844C393.829 41.58 393.345 40.216 393.345 39.116C393.345 37.444 394.225 36.564 395.897 36.564C397.085 36.564 398.317 36.608 399.505 36.608C401.089 36.608 401.529 36.256 401.529 34.672V31.152H386.085C384.325 31.152 383.401 30.404 383.401 28.556C383.401 26.84 384.457 26.18 386.085 26.18H401.529V25.036C401.529 23.936 402.233 23.54 403.245 23.496C407.073 21.78 408.261 21.032 408.261 20.68C408.261 20.416 407.733 20.416 407.601 20.416H392.685C391.101 20.416 390.353 19.624 390.353 18.04C390.353 16.544 391.277 15.62 392.729 15.62H414.157C415.653 15.62 417.633 15.708 417.633 18.216C417.633 20.416 416.049 21.472 414.421 22.528C411.913 24.156 410.197 24.948 407.513 26.18H422.297C424.057 26.18 425.025 26.884 425.025 28.688C425.025 30.448 423.925 31.152 422.297 31.152H407.337Z" fill="#C10147"/>
<path d="M343.728 18.436H374.792C376.552 18.436 377.828 19.668 377.828 21.428C377.828 23.232 376.508 24.42 374.792 24.42H343.684C341.968 24.42 340.692 23.32 340.692 21.428C340.692 19.536 341.924 18.524 343.728 18.436Z" fill="#C10147"/>
<path d="M312.708 7.30374C312.708 5.45574 313.852 4.13574 315.744 4.13574C317.944 4.13574 323.092 5.89574 325.38 6.59974C326.876 7.08374 329.56 7.91974 330.748 8.84374C331.452 9.41574 331.76 10.0757 331.76 11.0877C331.76 12.6717 330.88 14.2117 329.12 14.2117C328.372 14.2117 327.712 13.9037 327.008 13.5957C323.444 12.0117 319.704 10.8237 315.92 9.94374C313.896 9.45974 312.708 9.19574 312.708 7.30374ZM315.392 15.5757C317.9 15.5757 324.016 17.6437 326.524 18.6117C328.636 19.4037 330.836 20.1957 330.836 22.2637C330.836 23.7597 329.912 25.4757 328.24 25.4757C327.668 25.4757 327.272 25.3877 326.392 24.9917C322.872 23.4077 319.176 22.1317 315.436 21.4277C313.808 21.1197 312.532 20.6357 312.532 18.7437C312.532 17.0717 313.632 15.5757 315.392 15.5757ZM309.628 31.0637C309.628 29.1277 310.728 27.8517 312.708 27.8517C316.624 27.8517 324.104 29.7877 327.888 31.0637C329.824 31.7237 332.332 32.5157 334.004 33.6597C334.752 34.1877 335.104 34.9797 335.104 35.9037C335.104 37.4437 334.092 39.1157 332.42 39.1157C331.628 39.1157 330.484 38.5877 329.604 38.1917C324.06 35.7277 318.34 34.3197 312.356 33.6157C310.816 33.4397 309.628 32.8237 309.628 31.0637Z" fill="#C10147"/>
<path d="M298.936 1.584C298.936 0.659999 299.772 0 300.652 0C301.444 0 302.148 0.835999 303.468 2.508C304.348 3.608 305.184 4.972 305.184 5.588C305.184 6.468 304.304 7.172 303.468 7.172C302.808 7.172 302.456 6.644 302.104 6.116C301.312 4.928 300.564 3.96 299.64 2.904C299.2 2.42 298.936 2.112 298.936 1.584ZM295.064 4.224C295.064 3.344 295.9 2.684 296.736 2.684C297.572 2.684 298.408 3.652 299.376 4.928C300.256 6.116 301.312 7.612 301.312 8.316C301.312 9.196 300.476 9.856 299.596 9.856C298.936 9.856 298.54 9.416 298.188 8.888C297.44 7.7 296.648 6.6 295.68 5.544C295.24 5.06 295.064 4.752 295.064 4.224ZM274.12 5.06H292.248C294.008 5.06 295.064 6.072 295.064 7.832C295.064 9.592 293.92 10.516 292.248 10.516H274.12C272.36 10.516 271.304 9.548 271.304 7.744C271.304 5.896 272.448 5.06 274.12 5.06ZM287.1 20.988C286.44 27.016 283.888 32.736 278.96 36.52C277.332 37.796 274.384 39.82 272.272 39.82C270.512 39.82 269.192 38.368 269.192 36.652C269.192 35.2 270.336 34.672 271.48 34.1C277.2 31.24 280.28 27.368 281.116 20.988H267.872C266.024 20.988 265.012 19.976 265.012 18.216C265.012 16.456 266.156 15.488 267.872 15.488H298.496C300.212 15.488 301.356 16.456 301.356 18.216C301.356 19.976 300.212 20.988 298.496 20.988H287.1Z" fill="#C10147"/>
<path d="M244.429 16.9401C242.801 22.7921 240.337 28.4681 236.641 33.3521C235.365 35.0681 232.505 38.7201 230.217 38.7201C228.633 38.7201 227.137 37.4881 227.137 35.8161C227.137 34.6721 227.885 33.9681 228.677 33.2201C233.385 28.7321 236.509 23.0561 238.269 16.9401H230.525C228.633 16.9401 227.621 16.0161 227.621 14.0801C227.621 12.2321 228.721 11.3521 230.525 11.3521H239.545C239.853 9.63608 240.029 8.09608 240.161 6.16008C240.293 4.13608 240.909 3.08008 243.109 3.08008C244.913 3.08008 246.145 3.82808 246.145 5.76408C246.145 7.65608 245.881 9.54808 245.617 11.3521H250.897C254.197 11.3521 257.145 12.2321 257.145 16.1481C257.145 19.4041 255.913 26.0921 255.121 29.3921C254.021 33.9241 252.393 37.7961 247.025 37.7961C245.441 37.7961 243.681 37.5761 242.229 36.9161C241.173 36.4321 240.689 35.4201 240.689 34.2761C240.689 32.8681 241.393 31.4161 243.109 31.4161C243.725 31.4161 245.837 31.9881 246.409 31.9881C248.301 31.9881 248.917 29.9641 249.445 28.0281C250.193 25.3001 250.545 22.5721 250.941 19.7561C251.073 18.8321 251.161 18.1721 251.161 17.8641C251.161 17.2041 250.809 16.9401 250.193 16.9401H244.429Z" fill="#C10147"/>
<path d="M211.976 11.4842H189.536C187.556 11.4842 186.544 10.5162 186.544 8.53616C186.544 6.64416 187.688 5.76416 189.536 5.76416H215.276C216.2 5.76416 217.212 5.89616 218.048 6.29216C219.148 6.82016 219.72 7.92016 219.72 9.10816C219.72 11.0442 217.432 13.6402 216.156 15.0922C214.66 16.8082 213.164 18.6122 211.404 20.0642C210.7 20.6802 209.908 21.1642 208.94 21.1642C207.4 21.1642 205.992 19.8882 205.992 18.3042C205.992 17.3362 206.564 16.6322 207.796 15.6202C209.336 14.3442 210.656 12.9362 211.976 11.4842ZM202.648 13.1562C204.276 13.1562 205.86 13.9482 205.86 15.7522C205.86 17.2922 205.552 18.7882 205.024 20.9442C203.924 25.3002 202.208 29.6122 199.48 33.1762C198.028 35.1122 193.716 39.8642 191.252 39.8642C189.668 39.8642 188.216 38.5442 188.216 36.9602C188.216 35.7722 188.964 35.1122 190.328 34.1002C196.62 29.3042 199.348 23.3642 200.008 15.6202C200.14 14.0802 201.064 13.1562 202.648 13.1562Z" fill="#C10147"/>
<path d="M148.324 15.2242C146.036 16.7202 142.868 18.6562 141.328 18.6562C139.568 18.6562 138.468 16.9402 138.468 15.3122C138.468 13.2002 139.876 12.9362 144.144 10.8242C148.368 8.75616 151.844 5.45616 155.144 2.15616C156.464 0.88016 157.476 0.26416 159.324 0.26416C161.612 0.26416 162.536 1.14416 164.604 3.16816C169.136 7.56816 172.436 9.94416 178.288 12.6282C179.608 13.2442 180.268 13.8162 180.268 15.3562C180.268 16.8962 179.212 18.6562 177.584 18.6562C175.912 18.6562 173.272 17.0722 170.632 15.3562C170.676 15.5762 170.72 15.7522 170.72 15.9722C170.72 17.7762 169.84 18.5242 168.08 18.5242H150.832C149.116 18.5242 148.236 17.7322 148.236 16.0162C148.236 15.7522 148.236 15.5322 148.324 15.2242ZM150.788 13.5082H168.036C165.66 11.7922 162.8 9.46016 160.82 7.30416C160.512 6.95216 159.896 6.20416 159.412 6.20416C158.884 6.20416 158.268 6.95216 157.96 7.30416C156.156 9.32816 152.988 11.9682 150.788 13.5082ZM176 27.4562V36.0362C176 39.9522 174.46 41.4922 170.544 41.4922H148.456C144.54 41.4922 143 39.9522 143 36.0362V27.4562C143 23.4962 144.54 21.9562 148.456 21.9562H170.544C174.46 21.9562 176 23.4962 176 27.4562ZM168.696 26.9722H150.304C149.204 26.9722 148.676 27.5442 148.676 28.6002V34.8042C148.676 35.8602 149.204 36.4322 150.304 36.4322H168.696C169.752 36.4322 170.28 35.8602 170.28 34.8042V28.6002C170.28 27.5002 169.752 27.0162 168.696 26.9722Z" fill="#C10147"/>
<path d="M97.46 16.456C96.404 15.136 95.304 13.86 94.072 12.672C92.62 11.308 92.136 10.78 92.136 9.76799C92.136 8.53599 93.104 7.12799 94.468 7.12799C94.864 7.12799 95.172 7.25999 95.568 7.47999C96.448 6.07199 97.372 4.53199 98.032 3.16799C98.648 1.89199 99.176 0.791992 100.452 0.791992C101.684 0.791992 103.4 1.71599 103.4 3.07999C103.4 4.70799 100.188 9.37199 99.132 10.824C99.572 11.308 99.968 11.792 100.364 12.276C101.64 10.34 102.564 8.79999 103.224 7.61199C104.5 5.36799 105.028 4.44399 106.216 4.44399C107.316 4.44399 108.768 5.27999 108.768 6.51199C108.768 8.27199 101.64 17.292 100.1 19.096C101.464 19.052 102.828 18.964 104.192 18.832C103.84 17.82 103.532 16.852 103.532 16.412C103.532 15.312 104.588 14.696 105.6 14.696C106.92 14.696 107.36 15.664 109.032 21.032V20.768C109.032 18.788 110.264 18.568 111.76 18.524C112.64 17.072 114.576 13.112 115.192 11.572C116.248 8.93199 116.512 8.18399 118.096 8.18399C119.328 8.18399 120.912 8.79999 120.912 10.252C120.912 10.912 119.9 12.98 118.888 15.004C118.316 16.148 117.7 17.336 117.04 18.436C119.68 18.392 122.32 18.348 125.004 18.172C123.112 15.708 122.364 14.74 122.364 13.992C122.364 12.76 123.728 11.748 124.916 11.748C125.664 11.748 126.148 12.1 126.632 12.584C127.38 13.332 128.92 15.312 129.58 16.192C130.372 17.248 131.78 19.184 132.484 20.328C132.836 20.9 133.144 21.472 133.144 22.132C133.144 23.54 131.692 24.596 130.372 24.596C129.184 24.596 128.612 23.716 127.732 22.22C124.784 22.484 121.836 22.748 118.888 22.924C120.604 23.672 122.32 24.464 123.86 25.52C124.652 26.048 125.224 26.576 125.224 27.588C125.224 28.82 124.256 30.14 122.936 30.14C122.276 30.14 121.572 29.7 121.044 29.348C119.548 28.424 118.008 27.544 116.424 26.752C115.544 26.312 114.972 25.872 114.972 24.816C114.972 24.156 115.236 23.584 115.632 23.1C114.752 23.188 112.376 23.276 111.408 23.276C110.484 23.276 109.912 23.1 109.384 22.308C109.472 22.66 109.56 23.1 109.56 23.496C109.56 24.772 108.284 25.388 107.184 25.388C105.82 25.388 105.6 24.42 105.336 23.144C104.676 23.232 104.016 23.32 103.356 23.408V39.952C103.356 41.404 102.784 42.284 101.244 42.284C99.704 42.284 99.132 41.404 99.132 39.952V23.804C98.12 23.936 95.568 24.2 94.688 24.2C93.016 24.2 92.268 23.276 92.268 21.604C92.268 19.448 93.676 19.36 95.304 19.316C96.052 18.348 96.756 17.424 97.46 16.456ZM125.532 0.791992C126.544 0.791992 127.116 1.40799 128.128 2.68399C129.536 4.44399 131.12 6.24799 132.792 7.69999C133.452 8.27199 134.024 8.88799 134.024 9.81199C134.024 11.264 132.704 12.628 131.296 12.628C129.712 12.628 127.072 9.59199 126.06 8.40399C125.092 7.30399 122.716 4.57599 122.716 3.16799C122.716 1.80399 124.3 0.791992 125.532 0.791992ZM118.888 3.21199C118.888 3.73999 118.58 4.26799 118.316 4.66399C117.216 6.29199 115.456 8.35999 114.004 9.81199C111.496 12.32 110.88 12.76 110.176 12.76C108.812 12.76 107.448 11.308 107.448 9.94399C107.448 9.19599 107.888 8.62399 109.12 7.61199C111.056 6.07199 112.684 4.04799 114.136 2.11199C114.664 1.40799 115.236 0.835992 116.204 0.835992C117.436 0.835992 118.888 1.89199 118.888 3.21199ZM95.92 25.872C97.416 25.872 98.076 26.708 98.076 28.16C98.076 30.228 97.372 34.892 96.932 37.004C96.668 38.324 96.404 39.424 94.864 39.424C93.676 39.424 92.444 38.852 92.444 37.532C92.444 37.092 92.488 36.432 92.84 35.244C93.368 33.484 93.764 30.096 93.984 27.456C94.072 26.356 94.82 25.872 95.92 25.872ZM108.68 32.384C108.812 31.724 108.988 30.888 109.12 30.272C109.472 28.556 109.736 27.588 111.232 27.588C112.464 27.588 113.696 28.116 113.696 29.524C113.696 31.152 112.728 35.2 112.244 36.828C111.584 39.028 111.188 40.26 109.604 40.26C108.284 40.26 106.832 39.468 106.832 38.016C106.832 37.532 107.008 36.696 107.404 36.036C107.184 36.124 106.964 36.168 106.7 36.168C105.028 36.168 104.808 35.2 104.676 32.252C104.632 31.328 104.5 30.184 104.324 28.82C104.28 28.424 104.236 28.028 104.236 27.632C104.236 26.488 105.248 26.004 106.216 26.004C107.58 26.004 107.844 26.884 108.02 27.896C108.284 29.392 108.504 30.888 108.68 32.384ZM126.456 29.26C126.456 27.896 127.82 27.192 129.008 27.192C130.548 27.192 131.076 28.292 132.088 30.976C132.616 32.34 134.024 36.256 134.024 37.576C134.024 39.292 132.704 39.952 131.164 39.952C129.492 39.952 129.228 39.292 128.612 36.476C128.392 35.508 127.864 33.396 127.292 32.032C126.984 31.284 126.456 30.008 126.456 29.26ZM119.108 30.624V35.64C119.108 36.74 119.724 36.784 120.516 36.784H120.868C122.584 36.784 122.804 36.564 122.98 34.892C123.112 33.66 123.42 32.736 124.872 32.736C126.544 32.736 127.292 33.352 127.292 35.024C127.292 36.564 126.984 38.896 126.192 40.216C125.4 41.58 123.684 41.712 122.144 41.712H121.176C116.38 41.712 114.62 41.624 114.62 36.74V30.624C114.62 28.996 115.324 28.292 116.952 28.292C118.536 28.292 119.108 29.172 119.108 30.624Z" fill="#C10147"/>
<path d="M69.5641 22.0001V24.2001H84.9201C86.8561 24.2001 87.5601 24.9921 87.5601 26.9281C87.5601 28.6881 86.5481 29.3041 84.9201 29.3041H73.4801C74.1841 29.8761 74.9321 30.4041 75.7241 30.9321C79.3321 33.3081 81.6201 34.1001 85.5361 35.6401C86.5481 36.0361 87.2521 36.5641 87.2521 37.7081C87.2521 39.1601 86.2401 40.9201 84.6561 40.9201C82.8521 40.9201 78.8041 38.5881 77.2201 37.6201C74.2281 35.7281 72.0281 33.9241 69.5641 31.3721V39.6441C69.5641 41.7121 68.6841 42.2841 66.7041 42.2841C64.9001 42.2841 64.1961 41.3601 64.1961 39.6441V31.5041C61.9961 33.7921 59.4881 35.7721 56.8041 37.4881C55.1321 38.5001 50.9961 40.9201 49.1041 40.9201C47.5641 40.9201 46.5521 39.3361 46.5521 37.9281C46.5521 36.4761 47.4321 35.9481 48.6641 35.4641C53.1521 33.8361 56.6721 32.4281 60.4121 29.3041H48.8401C46.9481 29.3041 46.1561 28.5121 46.1561 26.6201C46.1561 24.8601 47.1681 24.2001 48.8401 24.2001H64.1961V22.0001H62.9201C58.9161 22.0001 58.0361 21.1201 58.0361 17.1161V8.18405C58.0361 4.92805 58.5641 3.30005 62.2161 3.30005H63.3161C63.7561 1.10005 64.4161 0.352051 66.7041 0.352051C67.7601 0.352051 69.4761 0.44005 69.4761 1.84805C69.4761 2.20005 69.2121 2.94805 69.0801 3.30005H71.0601C75.1081 3.30005 75.9881 4.18005 75.9881 8.18405V17.1161C75.9881 21.1201 75.1081 22.0001 71.0601 22.0001H69.5641ZM86.9001 5.19205C86.9001 6.33605 85.2281 7.92005 83.9081 9.06405C82.5441 10.3401 80.9601 11.7481 79.7721 11.7481C78.3641 11.7481 77.0001 10.2961 77.0001 8.88805C77.0001 8.05205 77.4401 7.48005 78.5401 6.55605C79.2881 5.94005 80.3001 5.06005 81.6641 3.78405C82.3681 3.12405 83.2041 2.46405 84.2161 2.46405C85.5801 2.46405 86.9001 3.82805 86.9001 5.19205ZM46.9921 5.45605C46.9921 3.96005 48.2241 2.55205 49.7641 2.55205C50.8201 2.55205 53.0641 4.09205 53.9441 4.75205C56.2761 6.42405 57.1121 6.99605 57.1121 8.27205C57.1121 9.68005 55.9681 11.2641 54.3841 11.2641C53.5921 11.2641 52.7121 10.6481 51.7441 9.85605C50.9521 9.24005 50.0721 8.62405 49.1041 8.00805C47.7841 7.12805 46.9921 6.60005 46.9921 5.45605ZM70.8401 10.4721V8.49205C70.8401 7.78805 70.4881 7.43605 69.7401 7.43605H64.2401C63.5361 7.43605 63.1841 7.78805 63.1841 8.49205V10.4721H70.8401ZM76.3401 16.1481C76.3401 14.696 77.5721 13.2881 79.0681 13.2881C80.1681 13.2881 82.7201 14.8721 84.1721 15.8401C86.7681 17.5561 87.6481 18.1721 87.6481 19.4921C87.6481 20.8561 86.5041 22.4401 85.0521 22.4401C83.9521 22.4401 83.1161 21.8681 82.0161 21.0761C81.2681 20.5041 79.5521 19.4041 78.7601 18.9201C77.1761 17.996 76.3401 17.5121 76.3401 16.1481ZM55.4401 13.4201C57.0241 13.4201 57.8161 14.9601 57.8161 16.4121C57.8161 17.6881 56.8921 18.2601 54.4281 19.7121C53.1521 20.4601 49.9401 22.264 48.5321 22.264C46.9041 22.264 46.1121 20.5041 46.1121 19.2281C46.1121 17.1161 48.0921 17.0281 52.5361 14.5641C53.7681 13.8601 54.7361 13.4201 55.4401 13.4201ZM63.1841 14.3V16.5441C63.1841 17.292 63.5361 17.6441 64.2401 17.6441H69.7401C70.4881 17.6441 70.8401 17.292 70.8401 16.5441V14.3H63.1841Z" fill="#C10147"/>
<path d="M23.716 4.26789H36.872C38.72 4.26789 39.556 5.01589 39.556 6.86389C39.556 8.62389 38.456 9.28389 36.872 9.28389H32.648C32.252 10.8679 31.768 12.4519 31.196 14.0359H38.94C40.788 14.0359 41.624 14.7399 41.624 16.6319C41.624 18.3479 40.568 19.0079 38.94 19.0079H2.684C0.88 19.0079 0 18.2599 0 16.4119C0 14.6519 1.056 14.0359 2.684 14.0359H10.56C10.164 12.4519 9.768 10.8239 9.328 9.28389H4.884C2.992 9.28389 2.2 8.49189 2.2 6.59989C2.2 4.88389 3.256 4.26789 4.884 4.26789H17.996V2.59589C17.996 0.70389 19.492 0.483887 21.032 0.483887C22.484 0.483887 23.716 0.92389 23.716 2.59589V4.26789ZM26.708 9.28389H15.092C15.312 9.94389 16.192 13.4639 16.236 14.0359H25.212C25.74 12.8479 26.4 10.5159 26.708 9.28389ZM36.828 26.2239V36.3879C36.828 40.0399 35.376 41.4919 31.724 41.4919H9.856C6.204 41.4919 4.752 40.0399 4.752 36.3879V26.2239C4.752 22.5719 6.204 21.1199 9.856 21.1199H31.724C35.376 21.1199 36.828 22.5719 36.828 26.2239ZM31.24 29.1279V27.1919C31.24 26.3119 30.8 25.8719 29.92 25.8719H11.704C10.824 25.8719 10.428 26.3119 10.428 27.1919V29.1279H31.24ZM31.24 33.3959H10.428V35.4199C10.428 36.2999 10.868 36.7399 11.704 36.7399H29.92C30.8 36.7399 31.24 36.2999 31.24 35.4199V33.3959Z" fill="#C10147"/>
</g>
<defs>
<filter id="filter0_d_232_3647" x="0" y="0" width="475.269" height="46.3279" filterUnits="userSpaceOnUse" color-interpolation-filters="sRGB">
<feFlood flood-opacity="0" result="BackgroundImageFix"/>
<feColorMatrix in="SourceAlpha" type="matrix" values="0 0 0 0 0 0 0 0 0 0 0 0 0 0 0 0 0 0 127 0" result="hardAlpha"/>
<feOffset dx="4" dy="4"/>
<feComposite in2="hardAlpha" operator="out"/>
<feColorMatrix type="matrix" values="0 0 0 0 0 0 0 0 0 0 0 0 0 0 0 0 0 0 0.6 0"/>
<feBlend mode="normal" in2="BackgroundImageFix" result="effect1_dropShadow_232_3647"/>
<feBlend mode="normal" in="SourceGraphic" in2="effect1_dropShadow_232_3647" result="shape"/>
</filter>
</defs>
</svg>
