<svg width="441" height="47" viewBox="0 0 441 47" fill="none" xmlns="http://www.w3.org/2000/svg">
<g filter="url(#filter0_d_232_4169)">
<path d="M432.571 23.9799L433.055 23.8919C433.451 23.8039 434.111 23.6719 434.375 23.6719C436.003 23.6719 436.795 24.8599 436.795 26.5759C436.795 28.0719 436.135 28.7759 434.683 29.0399L432.571 29.4799V39.5999C432.571 41.5799 431.647 42.3279 429.711 42.3279C427.907 42.3279 427.115 41.3599 427.115 39.5999V30.5359L416.115 32.6479C415.587 32.7359 414.795 32.9119 414.443 32.9119C412.815 32.9119 412.199 31.2399 412.199 29.9639C412.199 28.5119 412.859 27.7639 414.267 27.4999L427.115 25.0359V3.21189C427.115 1.18789 428.039 0.483887 429.975 0.483887C431.779 0.483887 432.571 1.45189 432.571 3.21189V23.9799ZM407.667 6.59989V11.9679H410.175C411.759 11.9679 412.815 12.8039 412.815 14.4759C412.815 16.1479 411.759 16.9839 410.175 16.9839H407.667V17.4239C409.339 20.1959 410.395 21.4279 412.507 23.8039C412.991 24.3319 413.299 24.9039 413.299 25.6519C413.299 26.8399 412.419 28.1159 411.143 28.1159C409.691 28.1159 408.591 26.2679 407.667 24.3319V39.5559C407.667 41.2719 406.919 42.2839 405.115 42.2839C403.311 42.2839 402.519 41.2719 402.519 39.5559V27.8959C401.991 29.0839 401.331 30.1839 400.671 31.3279C400.099 32.3399 399.043 34.1439 397.723 34.1439C396.227 34.1439 394.863 32.6479 394.863 31.1959C394.863 30.1839 395.391 29.5239 395.963 28.7759C399.087 24.9039 400.759 21.6919 402.343 16.9839H398.119C396.447 16.9839 395.347 16.2799 395.347 14.4759C395.347 12.6719 396.447 11.9679 398.119 11.9679H402.519V7.39189C401.287 7.56789 399.615 7.74389 398.383 7.74389C396.623 7.74389 395.611 7.08389 395.611 5.14789C395.611 3.25589 396.183 2.81589 400.539 2.63989C403.839 2.50789 406.523 1.84789 409.691 1.09989C410.043 1.01189 410.395 0.967889 410.747 0.967889C412.023 0.967889 412.903 2.15589 412.903 3.51989C412.903 5.67589 411.363 5.93989 407.667 6.59989ZM418.579 2.81589C419.547 2.81589 421.219 4.04789 422.319 4.97189C423.551 5.93989 425.531 7.52389 425.531 8.75589C425.531 10.1199 424.211 11.6599 422.803 11.6599C421.923 11.6599 420.647 10.6919 419.547 9.72389C418.887 9.15189 418.271 8.57989 417.787 8.18389C416.423 7.03989 415.851 6.55589 415.851 5.63189C415.851 4.35589 416.995 2.81589 418.579 2.81589ZM416.775 13.9039C417.523 13.9039 418.227 14.2999 420.559 16.1479C422.979 18.0399 423.683 19.0079 423.683 19.8879C423.683 21.2519 422.187 22.8359 420.735 22.8359C419.855 22.8359 419.019 22.0439 417.655 20.7679C417.083 20.2399 416.467 19.6679 415.719 19.0079C414.707 18.1719 414.091 17.5559 414.091 16.5879C414.091 15.2679 415.455 13.9039 416.775 13.9039Z" fill="#D70C18"/>
<path d="M360.895 7.876H368.243C367.671 7.04 367.011 5.588 366.527 4.53199C366.219 3.91599 365.911 3.256 365.911 2.552C365.911 1.056 367.803 0.395996 369.035 0.395996C370.619 0.395996 371.059 1.32 371.719 2.596C372.291 3.652 373.083 5.104 373.083 6.336C373.083 6.996 372.951 7.436 372.423 7.876H378.055C378.847 6.512 379.595 5.104 380.255 3.652C381.135 1.628 381.531 0.747996 383.203 0.747996C384.611 0.747996 386.327 1.49599 386.327 3.08C386.327 4.312 384.743 6.776 383.995 7.876H385.271C386.459 7.876 387.735 8.404 388.483 9.372C389.187 10.34 389.363 11.748 389.363 12.936V16.192C389.363 18.26 388.439 18.876 386.459 18.876C384.655 18.876 383.863 17.996 383.863 16.236V13.86C383.863 13.024 383.423 12.584 382.587 12.584H356.935C356.055 12.584 355.659 13.024 355.659 13.86V16.192C355.659 18.26 354.735 18.876 352.799 18.876C350.995 18.876 350.159 17.996 350.159 16.236V12.936C350.159 9.284 351.611 7.876 355.263 7.876H356.099C355.747 7.172 355.395 6.512 354.999 5.852C354.163 4.444 353.723 3.74 353.723 2.992C353.723 1.584 355.571 0.747996 356.803 0.747996C358.387 0.747996 359.003 1.848 359.707 3.08C360.279 4.004 361.203 5.72 361.203 6.776C361.203 7.216 361.115 7.48 360.895 7.876ZM372.863 31.152V36.696C372.863 40.832 371.279 41.888 367.363 41.976C366.791 41.976 365.559 41.976 364.327 41.976C362.787 41.976 361.159 41.976 360.587 41.844C359.355 41.58 358.871 40.216 358.871 39.116C358.871 37.444 359.751 36.564 361.423 36.564C362.611 36.564 363.843 36.608 365.031 36.608C366.615 36.608 367.055 36.256 367.055 34.672V31.152H351.611C349.851 31.152 348.927 30.404 348.927 28.556C348.927 26.84 349.983 26.18 351.611 26.18H367.055V25.036C367.055 23.936 367.759 23.54 368.771 23.496C372.599 21.78 373.787 21.032 373.787 20.68C373.787 20.416 373.259 20.416 373.127 20.416H358.211C356.627 20.416 355.879 19.624 355.879 18.04C355.879 16.544 356.803 15.62 358.255 15.62H379.683C381.179 15.62 383.159 15.708 383.159 18.216C383.159 20.416 381.575 21.472 379.947 22.528C377.439 24.156 375.723 24.948 373.039 26.18H387.823C389.583 26.18 390.551 26.884 390.551 28.688C390.551 30.448 389.451 31.152 387.823 31.152H372.863Z" fill="#D70C18"/>
<path d="M312.371 7.25977C313.823 7.25977 315.935 8.71177 318.047 10.1638C319.939 11.4838 321.127 12.2758 321.127 13.7278C321.127 15.3558 319.895 17.1598 318.091 17.1598C317.299 17.1598 316.595 16.6758 315.495 15.8398C313.999 14.6958 312.503 13.7718 310.919 12.8478C309.995 12.3198 309.203 11.6598 309.203 10.5158C309.203 8.79976 310.655 7.25977 312.371 7.25977ZM309.203 34.8038C309.203 33.3958 310.171 32.6038 311.403 32.1198C315.231 30.6238 318.839 28.6438 322.183 26.3558C327.375 22.7918 331.819 18.3478 335.603 13.2878C336.439 12.1878 337.319 10.6478 338.903 10.6478C340.531 10.6478 342.027 12.0118 342.027 13.6838C342.027 14.6078 341.543 15.3998 341.015 16.1478C337.803 20.7678 333.843 24.9038 329.531 28.4678C325.175 32.0758 320.467 35.0678 315.143 37.4438C314.307 37.7958 313.119 38.2358 312.371 38.2358C310.567 38.2358 309.203 36.5198 309.203 34.8038Z" fill="#D70C18"/>
<path d="M287.899 24.9477L290.803 39.3797C290.847 39.5997 290.891 39.7757 290.891 39.9957C290.891 41.5797 289.571 42.5917 288.031 42.5917C286.755 42.5917 285.875 41.8437 285.611 40.5677L282.619 26.0037L275.491 27.3677C275.271 27.4117 275.007 27.4557 274.787 27.4557C273.291 27.4557 272.411 26.2237 272.411 24.7717C272.411 23.4957 273.203 22.5717 274.479 22.3517L281.651 20.9877L280.375 14.7397C280.331 14.4757 280.287 14.2557 280.287 14.0357C280.287 12.5397 281.519 11.6157 283.147 11.6157C284.423 11.6157 285.347 12.3637 285.611 13.5957L286.887 20.0197L297.887 17.9517C298.151 17.9077 298.459 17.8637 298.723 17.8637C300.263 17.8637 301.671 18.9197 301.671 20.5477C301.671 22.1757 298.855 25.9597 297.799 27.3677C296.919 28.5117 296.039 29.7437 294.983 30.7557C294.455 31.2397 293.927 31.5477 293.223 31.5477C291.815 31.5477 290.495 30.4477 290.495 28.9957C290.495 28.1157 290.935 27.5437 291.859 26.5757C292.695 25.6957 293.443 24.7277 294.191 23.7597L287.899 24.9477Z" fill="#D70C18"/>
<path d="M238.946 8.97605C238.946 7.30405 240.31 5.85205 241.982 5.85205C243.126 5.85205 245.502 7.21605 246.734 7.92005C248.406 8.84405 249.946 9.76805 249.946 11.5281C249.946 13.1121 248.846 14.8281 247.13 14.8281C246.558 14.8281 245.898 14.5641 245.458 14.2561C244.798 13.8161 244.226 13.5081 243.61 13.1561C242.554 12.5401 241.718 12.0121 240.75 11.4401C239.738 10.8681 238.946 10.1641 238.946 8.97605ZM264.422 10.0761C266.094 10.0761 267.81 11.3961 267.81 13.1121C267.81 13.9481 267.238 15.2681 266.71 16.2361C263.982 21.2081 260.154 25.5641 255.666 29.0841C251.178 32.6041 245.766 35.5961 240.574 37.0481C239.386 37.4001 238.902 37.5321 238.154 37.5321C236.306 37.5321 234.942 35.9921 234.942 34.1881C234.942 32.2521 236.13 31.7241 237.758 31.2841C247.922 28.6001 256.854 21.7361 261.694 12.3641C262.31 11.2201 263.014 10.0761 264.422 10.0761ZM233.842 17.5121C233.842 15.8401 235.25 14.2561 236.966 14.2561C238.154 14.2561 240.618 15.6641 242.158 16.4561C243.566 17.2041 245.106 18.0841 245.106 19.8881C245.106 21.4721 243.962 23.1881 242.246 23.1881C241.322 23.1881 240.574 22.6161 239.782 22.1761C238.11 21.2081 237.098 20.5921 235.69 19.8881C234.458 19.2721 233.842 18.7001 233.842 17.5121Z" fill="#D70C18"/>
<path d="M220.564 1.93616C220.564 1.05616 221.356 0.26416 222.236 0.26416C223.028 0.26416 224.964 1.84816 226.328 3.38816C227.032 4.18016 227.428 4.84016 227.428 5.28016C227.428 6.11616 226.636 6.90816 225.8 6.90816C225.272 6.90816 224.876 6.51216 224.568 6.20416C223.556 5.19216 222.544 4.22416 221.488 3.34416C220.96 2.90416 220.564 2.55216 220.564 1.93616ZM217.088 5.10416C217.088 4.22416 217.968 3.52016 218.804 3.52016C219.508 3.52016 221.048 4.84016 222.104 5.85216C222.764 6.51216 223.996 7.87616 223.996 8.49216C223.996 9.37216 223.204 10.1202 222.324 10.1202C221.84 10.1202 221.356 9.68016 220.96 9.28416C220.036 8.31616 219.024 7.39216 217.968 6.51216C217.528 6.16016 217.088 5.72016 217.088 5.10416ZM197.508 9.32816C197.508 7.65616 198.872 6.20416 200.544 6.20416C201.688 6.20416 203.932 7.48016 205.296 8.27216C207.408 9.50416 208.508 10.2962 208.508 11.8802C208.508 13.4642 207.408 15.1802 205.692 15.1802C205.12 15.1802 204.592 14.9602 204.02 14.6082C203.448 14.2562 202.788 13.9042 202.172 13.5082C201.072 12.8482 200.28 12.3642 199.312 11.7922C198.3 11.2202 197.508 10.5162 197.508 9.32816ZM222.324 11.5282C223.952 11.5282 225.668 12.8042 225.668 14.5202C225.668 15.4002 225.316 16.2802 224.92 17.0722C222.94 20.8562 220.08 24.2442 216.912 27.1482C212.292 31.3722 207.188 34.5402 200.94 36.7842C198.96 37.4882 197.64 37.8842 196.716 37.8842C194.868 37.8842 193.504 36.3442 193.504 34.5402C193.504 32.6042 194.692 32.0762 196.32 31.6362C205.912 29.0842 214.976 22.7042 219.596 13.7722C220.168 12.6282 220.916 11.5282 222.324 11.5282ZM192.404 17.8642C192.404 16.1922 193.812 14.6082 195.528 14.6082C196.672 14.6082 199.356 16.0602 200.72 16.8082C202.128 17.6002 203.668 18.4362 203.668 20.2402C203.668 21.8242 202.524 23.5402 200.808 23.5402C200.06 23.5402 199.136 22.9682 198.344 22.4842C196.936 21.6042 195.88 21.0322 194.252 20.2402C193.284 19.7562 192.404 19.0522 192.404 17.8642Z" fill="#D70C18"/>
<path d="M150.47 18.436H181.534C183.294 18.436 184.57 19.668 184.57 21.428C184.57 23.232 183.25 24.42 181.534 24.42H150.426C148.71 24.42 147.434 23.32 147.434 21.428C147.434 19.536 148.666 18.524 150.47 18.436Z" fill="#D70C18"/>
<path d="M127.677 31.3719L128.601 23.7599C128.645 23.3639 128.645 23.2319 128.645 23.1879C128.645 22.9239 128.469 22.8799 128.073 22.8799H118.261C116.677 22.8799 115.709 21.9559 115.709 20.3279C115.709 18.7879 116.721 17.7759 118.261 17.7759H128.733C131.945 17.7759 134.233 19.0079 134.233 22.3519C134.233 22.7039 134.189 23.0559 134.145 23.4519L133.221 31.3719H138.853C140.569 31.3719 141.317 32.4279 141.317 34.0119C141.317 35.5519 140.437 36.5199 138.853 36.5199H111.837C110.209 36.5199 109.373 35.4639 109.373 33.8799C109.373 32.3839 110.341 31.3719 111.837 31.3719H127.677Z" fill="#D70C18"/>
<path d="M80.8127 7.30374C80.8127 5.45574 81.9567 4.13574 83.8487 4.13574C86.0487 4.13574 91.1967 5.89574 93.4847 6.59974C94.9807 7.08374 97.6647 7.91974 98.8527 8.84374C99.5567 9.41574 99.8647 10.0757 99.8647 11.0877C99.8647 12.6717 98.9847 14.2117 97.2247 14.2117C96.4767 14.2117 95.8167 13.9037 95.1127 13.5957C91.5487 12.0117 87.8087 10.8237 84.0247 9.94374C82.0007 9.45974 80.8127 9.19574 80.8127 7.30374ZM83.4967 15.5757C86.0047 15.5757 92.1207 17.6437 94.6287 18.6117C96.7407 19.4037 98.9407 20.1957 98.9407 22.2637C98.9407 23.7597 98.0167 25.4757 96.3447 25.4757C95.7727 25.4757 95.3767 25.3877 94.4967 24.9917C90.9767 23.4077 87.2807 22.1317 83.5407 21.4277C81.9127 21.1197 80.6367 20.6357 80.6367 18.7437C80.6367 17.0717 81.7367 15.5757 83.4967 15.5757ZM77.7327 31.0637C77.7327 29.1277 78.8327 27.8517 80.8127 27.8517C84.7287 27.8517 92.2087 29.7877 95.9927 31.0637C97.9287 31.7237 100.437 32.5157 102.109 33.6597C102.857 34.1877 103.209 34.9797 103.209 35.9037C103.209 37.4437 102.197 39.1157 100.525 39.1157C99.7327 39.1157 98.5887 38.5877 97.7087 38.1917C92.1647 35.7277 86.4447 34.3197 80.4607 33.6157C78.9207 33.4397 77.7327 32.8237 77.7327 31.0637Z" fill="#D70C18"/>
<path d="M69.161 14.4761V28.6881C69.161 32.6481 67.181 34.6281 63.221 34.6281H46.325C42.365 34.6281 40.385 32.6481 40.385 28.6881V14.4761C40.385 10.5161 42.365 8.53613 46.325 8.53613H63.221C67.225 8.53613 69.161 10.4721 69.161 14.4761ZM62.209 14.1681H47.337C46.677 14.1681 46.413 14.5201 46.413 15.1801V27.9401C46.413 28.6001 46.677 28.9961 47.337 28.9961H62.209C62.869 28.9961 63.133 28.6001 63.133 27.9401V15.1801C63.133 14.4761 62.869 14.1681 62.209 14.1681Z" fill="#D70C18"/>
<path d="M31.24 0C33.792 0 35.904 2.112 35.904 4.62C35.904 7.172 33.792 9.284 31.24 9.284C28.688 9.284 26.576 7.172 26.576 4.62C26.576 2.112 28.688 0 31.24 0ZM31.24 2.332C29.964 2.332 28.952 3.388 28.952 4.62C28.952 5.896 29.964 6.952 31.24 6.952C32.472 6.952 33.528 5.896 33.528 4.62C33.528 3.388 32.472 2.332 31.24 2.332ZM21.824 13.948H2.86C1.012 13.948 0 12.804 0 11C0 9.24 1.056 8.096 2.86 8.096H23.364C27.192 8.096 29.304 9.416 29.304 13.332C29.304 15.884 28.292 18.348 27.192 20.636C25.3 24.552 22.616 28.028 19.492 30.976C16.104 34.188 12.144 36.696 7.876 38.5C6.908 38.896 5.896 39.292 4.84 39.292C3.08 39.292 1.848 37.752 1.848 36.08C1.848 34.54 2.508 34.1 5.148 33.088C10.12 31.152 14.872 27.72 18.436 23.408C19.844 21.692 23.056 17.116 23.056 14.916C23.056 14.124 22.528 13.948 21.824 13.948Z" fill="#D70C18"/>
</g>
<defs>
<filter id="filter0_d_232_4169" x="0" y="0" width="440.795" height="46.5918" filterUnits="userSpaceOnUse" color-interpolation-filters="sRGB">
<feFlood flood-opacity="0" result="BackgroundImageFix"/>
<feColorMatrix in="SourceAlpha" type="matrix" values="0 0 0 0 0 0 0 0 0 0 0 0 0 0 0 0 0 0 127 0" result="hardAlpha"/>
<feOffset dx="4" dy="4"/>
<feComposite in2="hardAlpha" operator="out"/>
<feColorMatrix type="matrix" values="0 0 0 0 0 0 0 0 0 0 0 0 0 0 0 0 0 0 0.6 0"/>
<feBlend mode="normal" in2="BackgroundImageFix" result="effect1_dropShadow_232_4169"/>
<feBlend mode="normal" in="SourceGraphic" in2="effect1_dropShadow_232_4169" result="shape"/>
</filter>
</defs>
</svg>
