<svg fill="none" height="58" viewBox="0 0 742 58" width="742" xmlns="http://www.w3.org/2000/svg" xmlns:xlink="http://www.w3.org/1999/xlink"><linearGradient id="a" gradientUnits="userSpaceOnUse" x1="5.6149" x2="30.7698" y1="38.2672" y2="12.8101"><stop offset="0" stop-color="#caedc2"/><stop offset="1" stop-color="#bde3ff"/></linearGradient><linearGradient id="b" gradientUnits="userSpaceOnUse" x1="720.485" x2="748.003" y1="49.5127" y2="22.1395"><stop offset="0" stop-color="#bde3ff"/><stop offset="1" stop-color="#d6d0f7"/></linearGradient><linearGradient id="c" gradientUnits="userSpaceOnUse" x1="678.906" x2="711.004" y1="57.9857" y2="6.17201"><stop offset="0" stop-color="#caedc2"/><stop offset="1" stop-color="#ffeda6"/></linearGradient><linearGradient id="d" gradientUnits="userSpaceOnUse" x1="41.2635" x2="69.2329" y1="9.8175" y2="48.6478"><stop offset="0" stop-color="#ffd2a6"/><stop offset="1" stop-color="#ffc4ce"/></linearGradient><path d="m10.4505 42.161c-3.22335-1.5549-5.78967-3.9202-7.57993-6.7348l17.57183 8.4703c-3.316.3523-6.7686-.185-9.9919-1.7399zm-10.335856-14.4343c.154332 1.2642.440948 2.5063.846621 3.7088l23.793635 11.4743c1.1949-.4273 2.3458-.9779 3.435-1.643l-28.075256-13.5357zm.304256-6.2238c-.229293 1.0307-.3659862 2.0658-.4189 3.0965l30.7121 14.8087c.7805-.6828 1.5036-1.436 2.1694-2.2553l-32.4626-15.6543zm35.3509 10.677-33.24317-16.0288c-.24693.4229-.48063.8634-.7011 1.3127-.21607.4492-.41449.9073-.59087 1.3654l33.24314 16.0288c.2469-.4229.4806-.8633.7011-1.3126.2161-.4493.4145-.9074.5909-1.3655zm-29.48187-20.5832c-.78048.6827-1.50364 1.4359-2.16947 2.2552l32.46264 15.6543c.2293-1.0307.366-2.0658.4189-3.0965l-30.71207-14.8086zm5.95277-3.50179c-1.1949.42726-2.34581.97784-3.43495 1.64295l28.07515 13.53574c-.1543-1.2642-.4409-2.5063-.8466-3.7088l-23.7936-11.4743zm4.3169-.98665 17.5674 8.47024c-1.7858-2.8146-4.3521-5.1799-7.5799-6.73478-3.2233-1.55487-6.676-2.09225-9.9919-1.73987z" fill="url(#a)"/><path d="m712.374 32.6324-3.888 4.1308-1.486-.8083 5.374-3.3199zm11.099-6.8591-6.673 4.1231-7.089 7.5324 1.847 1.0046 11.917-12.6601zm11.098-6.8592-6.672 4.1231-15.119 16.0617 1.846 1.0047zm-16.873 22.8597 23.262-24.7135-.056-2.0603-1.904 1.178-23.149 24.5911zm23.394-19.9197-.079-2.8814-22.09 23.4691 1.846 1.0047zm.129 4.7912-.078-2.8814-19.151 20.3456 1.846 1.0046 17.386-18.4688zm.132 4.7938-.078-2.8814-16.212 17.2245 1.846 1.0046 14.447-15.3477zm.132 4.7912-.078-2.8814-13.275 14.1009 1.846 1.0047zm.132 4.7938-.079-2.8814-10.335 10.9798 1.847 1.0047zm.132 4.7912-.079-2.8813-7.395 7.8587 1.846 1.0046 5.63-5.9794zm.129 4.7938-.078-2.8814-4.457 4.7352 1.847 1.0046 2.691-2.8584zm.122 4.3883-.068-2.4759-1.52 1.6141 1.588.8644z" fill="url(#b)" fill-opacity=".8"/><path d="m668.079 38.9268c1.254.4627 1.899 1.8535 1.444 3.1057-.463 1.2543-1.854 1.899-3.106 1.4443-1.255-.4627-1.9-1.8536-1.445-3.1058.463-1.2543 1.855-1.899 3.107-1.4442zm4.594 4.2672c-.462 1.2542.184 2.6531 1.445 3.1057 1.254.4627 2.653-.1841 3.106-1.4442.463-1.2543-.184-2.6531-1.444-3.1058-1.255-.4627-2.654.1842-3.107 1.4443zm-4.878-10.5306c-.463 1.2542.184 2.6531 1.444 3.1057 1.254.4627 2.654-.1842 3.107-1.4443.462-1.2542-.184-2.6531-1.445-3.1057-1.254-.4627-2.653.1842-3.106 1.4443zm2.822-7.7077c-.463 1.2543.184 2.6531 1.444 3.1057 1.255.4627 2.654-.1841 3.107-1.4442.463-1.2543-.184-2.6532-1.445-3.1058-1.254-.4627-2.653.1842-3.106 1.4443zm4.887 10.5285c-.463 1.2543.184 2.6531 1.444 3.1057 1.254.4627 2.653-.1841 3.106-1.4442.463-1.2543-.184-2.6532-1.444-3.1058-1.254-.4627-2.653.1842-3.106 1.4443zm2.822-7.7077c-.463 1.2543.184 2.6531 1.444 3.1058 1.255.4626 2.654-.1842 3.107-1.4443.462-1.2543-.184-2.6531-1.445-3.1058-1.254-.4627-2.653.1842-3.106 1.4443zm2.056 18.2383c-.463 1.2543.184 2.6531 1.445 3.1057 1.254.4627 2.653-.1841 3.106-1.4442s-.184-2.6531-1.444-3.1057c-1.255-.4627-2.654.1841-3.107 1.4442zm2.83-7.7098c-.462 1.2543.184 2.6531 1.445 3.1057 1.254.4627 2.653-.1841 3.106-1.4442.463-1.2543-.184-2.6531-1.444-3.1058-1.255-.4627-2.654.1842-3.107 1.4443zm2.825-7.6997c-.463 1.2543.184 2.6531 1.444 3.1057 1.255.4627 2.654-.1842 3.107-1.4443.462-1.2543-.184-2.6531-1.445-3.1057-1.254-.4627-2.653.1842-3.106 1.4443zm-12.59-13.3594c-.463 1.2543.184 2.6531 1.444 3.1058 1.255.4626 2.654-.1842 3.107-1.4443.463-1.2543-.184-2.6531-1.444-3.1058-1.255-.4627-2.654.1842-3.107 1.4443zm7.709 2.8208c-.463 1.2543.184 2.6531 1.444 3.1058 1.255.4627 2.654-.1842 3.107-1.4443.463-1.2543-.184-2.6531-1.444-3.1058-1.255-.4626-2.654.1842-3.107 1.4443zm-4.887-10.52845c-.462 1.25425.184 2.65315 1.445 3.10575 1.254.4627 2.653-.1842 3.106-1.4443.463-1.25427-.184-2.6531-1.444-3.10573-1.255-.46268-2.654.18419-3.107 1.44428zm2.823-7.70771c-.463 1.25429.184 2.65317 1.444 3.1058 1.254.46268 2.653-.18419 3.106-1.44428.463-1.25428-.184-2.653114-1.444-3.105744-1.254-.462685-2.653.184137-3.106 1.444224zm4.886 10.52856c-.463 1.2542.184 2.6531 1.444 3.1057 1.255.4627 2.654-.1842 3.107-1.4443.463-1.2543-.184-2.6531-1.444-3.1057-1.255-.4627-2.654.1842-3.107 1.4443zm2.823-7.70774c-.463 1.25428.183 2.65316 1.444 3.10579 1.254.46268 2.653-.18419 3.106-1.44428s-.184-2.65311-1.444-3.10574c-1.254-.46269-2.654.18414-3.106 1.44423zm2.066 18.24414c-.463 1.2543.184 2.6531 1.444 3.1057 1.255.4627 2.654-.1842 3.107-1.4443.463-1.2542-.184-2.653-1.444-3.1057-1.255-.4627-2.654.1842-3.107 1.4443zm2.822-7.7077c-.463 1.2543.184 2.6532 1.444 3.1058 1.255.4627 2.654-.1842 3.107-1.4443.463-1.2543-.184-2.6531-1.444-3.1057-1.255-.4627-2.654.1841-3.107 1.4442zm2.823-7.70767c-.463 1.25429.183 2.65317 1.444 3.10577 1.254.4627 2.653-.1842 3.106-1.44428.463-1.25428-.184-2.65308-1.444-3.10572-1.254-.46268-2.654.18414-3.106 1.44423zm-6.419 41.36337c-.463 1.2543.184 2.6532 1.444 3.1058 1.255.4627 2.654-.1842 3.107-1.4442.463-1.2543-.184-2.6532-1.444-3.1058-1.255-.4627-2.654.1842-3.107 1.4442zm7.709 2.8209c-.463 1.2543.184 2.6531 1.444 3.1057 1.255.4627 2.654-.1841 3.107-1.4442.463-1.2543-.184-2.6532-1.444-3.1058-1.255-.4627-2.654.1842-3.107 1.4443zm-4.879-10.5306c-.462 1.2542.184 2.6531 1.445 3.1057 1.254.4627 2.653-.1841 3.106-1.4442.463-1.2543-.184-2.6532-1.444-3.1058-1.255-.4627-2.654.1842-3.107 1.4443zm2.823-7.7077c-.463 1.2543.184 2.6531 1.444 3.1057 1.254.4627 2.654-.1841 3.106-1.4442.463-1.2543-.183-2.6531-1.444-3.1058-1.254-.4627-2.653.1842-3.106 1.4443zm4.886 10.5285c-.463 1.2543.184 2.6531 1.445 3.1057 1.254.4627 2.653-.1841 3.106-1.4442.463-1.2543-.184-2.6532-1.444-3.1058-1.255-.4627-2.654.1842-3.107 1.4443zm2.823-7.7077c-.463 1.2543.183 2.6531 1.444 3.1058 1.254.4626 2.653-.1842 3.106-1.4443s-.184-2.6531-1.444-3.1058c-1.254-.4626-2.654.1842-3.106 1.4443zm2.058 18.2462c-.463 1.2543.184 2.6531 1.444 3.1058 1.255.4627 2.654-.1842 3.107-1.4443.463-1.2542-.184-2.6531-1.444-3.1057-1.255-.4627-2.654.1841-3.107 1.4442zm2.83-7.7098c-.463 1.2543.184 2.6532 1.444 3.1058 1.255.4627 2.654-.1842 3.107-1.4443.463-1.2543-.184-2.6531-1.444-3.1057-1.255-.4627-2.654.1842-3.107 1.4442zm2.823-7.7076c-.463 1.2543.183 2.6531 1.444 3.1057 1.254.4627 2.653-.1842 3.106-1.4442.463-1.2543-.184-2.6532-1.444-3.1058-1.254-.4627-2.654.1842-3.106 1.4443zm-12.598-13.3573c-.463 1.2543.184 2.6532 1.444 3.1058 1.255.4627 2.654-.1842 3.107-1.4443.463-1.2543-.184-2.6531-1.445-3.1057-1.254-.4627-2.653.1841-3.106 1.4442zm7.709 2.8209c-.463 1.2543.184 2.6531 1.444 3.1057 1.255.4627 2.654-.1842 3.107-1.4443.452-1.2601-.184-2.6531-1.445-3.1057-1.254-.4627-2.653.1842-3.106 1.4443zm-4.879-10.5307c-.463 1.2543.184 2.6532 1.444 3.1058 1.255.4627 2.654-.1842 3.107-1.4443.463-1.2543-.184-2.6531-1.444-3.1057-1.255-.4627-2.654.1841-3.107 1.4442zm2.822-7.7077c-.463 1.2543.184 2.6532 1.445 3.1058 1.254.4627 2.653-.1841 3.106-1.4442s-.184-2.65315-1.444-3.10578c-1.255-.46269-2.654.18413-3.107 1.44418zm4.887 10.5285c-.463 1.2543.184 2.6532 1.444 3.1058 1.255.4627 2.654-.1842 3.107-1.4443.463-1.2543-.184-2.6531-1.445-3.1057-1.254-.4627-2.653.1842-3.106 1.4442zm2.824-7.6997c-.463 1.2543.184 2.6531 1.445 3.1057 1.254.4627 2.653-.1841 3.106-1.4442.463-1.2543-.184-2.6531-1.444-3.1057-1.255-.4627-2.654.1841-3.107 1.4442zm2.057 18.2383c-.463 1.2543.184 2.6531 1.444 3.1058 1.254.4627 2.654-.1842 3.106-1.4443.463-1.2543-.183-2.6531-1.444-3.1057-1.254-.4627-2.653.1841-3.106 1.4442zm2.83-7.7098c-.463 1.2543.184 2.6532 1.444 3.1058 1.255.4627 2.654-.1842 3.107-1.4443.463-1.2543-.184-2.6531-1.444-3.1057-1.255-.4627-2.654.1841-3.107 1.4442zm2.822-7.7077c-.463 1.2543.184 2.6531 1.444 3.1058 1.255.4627 2.654-.1842 3.107-1.4442.463-1.2543-.184-2.6532-1.444-3.1058-1.261-.4526-2.654.1841-3.107 1.4442z" fill="url(#c)"/><path d="m56.5376 4.24114c-.8569.87219-2.2587.88744-3.1319.03783-.8719-.85701-.887-2.25921-.0375-3.13261.8569-.87219 2.2587-.887345 3.1319-.03774.8719.85701.887 2.25912.0375 3.13252zm-5.2833 2.2282c-.872-.85701-2.2812-.84306-3.1319.03775-.8569.87219-.843 2.2817.0375 3.13251.872.857 2.2812.8431 3.1319-.03774.8569-.87219.843-2.28171-.0375-3.13252zm10.6123-.11299c-.8719-.85701-2.2811-.84306-3.1318.03775-.8569.87219-.8431 2.28179.0375 3.1326.8719.857 2.2812.843 3.1319-.03782.8569-.8722.843-2.28172-.0376-3.13253zm5.3666 5.24775c-.8719-.857-2.2812-.8431-3.1319.0377-.8568.8722-.843 2.2818.0375 3.1326.872.8571 2.2813.843 3.132-.0378.8568-.8722.843-2.2817-.0376-3.1325zm-10.6136.1204c-.8719-.857-2.2811-.8431-3.1318.0377-.8569.8722-.8431 2.2817.0375 3.1326.8719.857 2.2812.843 3.1319-.0378.8569-.8722.843-2.2817-.0376-3.1325zm5.3666 5.2477c-.8719-.857-2.2812-.843-3.1319.0378-.8568.8722-.843 2.2817.0376 3.1325.8719.857 2.2812.8431 3.1319-.0378.8568-.8721.843-2.2817-.0376-3.1325zm-15.9789-5.1348c-.8719-.857-2.2812-.843-3.1319.0378-.8569.8722-.843 2.2817.0375 3.1325.8806.8509 2.2812.843 3.1319-.0378.8569-.8722.8431-2.2817-.0375-3.1325zm5.3654 5.2551c-.872-.857-2.2812-.8429-3.1319.0379-.8569.8722-.8431 2.2817.0375 3.1325.8719.857 2.2812.843 3.1319-.0378.8569-.8722.843-2.2817-.0375-3.1326zm5.3591 5.2466c-.8719-.8571-2.2812-.843-3.1319.0378-.8569.8722-.843 2.2817.0376 3.1325.8719.857 2.2812.843 3.1319-.0378.8568-.8722.843-2.2817-.0376-3.1325zm15.8668-5.4799c-.872-.857-2.2812-.843-3.1319.0378-.8569.8722-.843 2.2817.0376 3.1325.8719.857 2.2811.8431 3.1318-.0377.8569-.8722.843-2.2818-.0375-3.1326zm-5.247 5.3682c-.872-.857-2.2812-.8431-3.1319.0377-.8569.8722-.843 2.2817.0376 3.1325.8719.8571 2.2811.8431 3.1318-.0377.8569-.8722.843-2.2817-.0375-3.1325zm10.6135-.1204c-.8719-.8571-2.2811-.8431-3.1318.0377-.8569.8722-.843 2.2817.0375 3.1325.872.857 2.2812.8431 3.1319-.0377.8569-.8722.843-2.2817-.0376-3.1325zm5.3666 5.2477c-.8719-.857-2.2812-.8431-3.1319.0377-.8569.8722-.843 2.2818.0376 3.1326.8719.857 2.2811.843 3.1318-.0378.8569-.8722.8431-2.2817-.0375-3.1325zm-10.6136.1204c-.8719-.857-2.2811-.8431-3.1318.0377-.8569.8722-.843 2.2818.0375 3.1326.872.857 2.2812.843 3.1319-.0378.8569-.8722.843-2.2817-.0376-3.1325zm5.3666 5.2477c-.8719-.857-2.2812-.843-3.1319.0378-.8569.8722-.843 2.2817.0376 3.1325.8805.8508 2.2811.8431 3.1318-.0377.8569-.8722.8431-2.2817-.0375-3.1326zm-15.9875-5.1286c-.872-.857-2.2812-.8431-3.1319.0378-.8569.8721-.843 2.2818.0375 3.1326.872.857 2.2812.8429 3.1319-.0379.8569-.8722.843-2.2817-.0375-3.1325zm5.3666 5.2477c-.872-.857-2.2812-.843-3.1319.0378-.8569.8722-.843 2.2818.0375 3.1326.872.857 2.2812.843 3.1319-.0378.8569-.8722.843-2.2817-.0375-3.1326zm5.3665 5.2478c-.8719-.857-2.2812-.8431-3.1319.0377-.8569.8722-.843 2.2818.0376 3.1326.8719.857 2.2811.843 3.1318-.0378.8569-.8722.8431-2.2817-.0375-3.1325zm-32.0774-20.8854c-.872-.857-2.2812-.843-3.1319.0378-.8569.8722-.843 2.2817.0375 3.1325.872.857 2.2812.8431 3.1319-.0378.8569-.8721.843-2.2817-.0375-3.1325zm-5.247 5.3681c-.8719-.857-2.2812-.843-3.1319.0378-.8569.8722-.843 2.2817.0376 3.1325.8719.857 2.2812.8431 3.1318-.0377.8569-.8722.8431-2.2818-.0375-3.1326zm10.6123-.1129c-.8719-.857-2.2811-.8431-3.1318.0377-.8569.8722-.8431 2.2817.0375 3.1325.8719.857 2.2812.8431 3.1319-.0377.8569-.8722.843-2.2817-.0376-3.1325zm5.3666 5.2477c-.8719-.857-2.2812-.8431-3.1318.0377-.8569.8722-.843 2.2818.0375 3.1326.872.857 2.2812.843 3.1319-.0378.8569-.8722.843-2.2817-.0376-3.1325zm-10.6135.1203c-.872-.857-2.2812-.843-3.1319.0379-.8569.8721-.8431 2.2817.0375 3.1325.872.857 2.2812.843 3.1319-.0378.8569-.8722.843-2.2818-.0375-3.1326zm5.3665 5.2478c-.8719-.8571-2.2811-.843-3.1318.0378-.8569.8722-.843 2.2817.0375 3.1325.8806.8508 2.2812.8431 3.1319-.0377.8569-.8722.843-2.2818-.0376-3.1326zm-15.9863-5.136c-.872-.857-2.2812-.8431-3.1319.0377-.8568.8722-.843 2.2818.0376 3.1326.8719.857 2.2812.843 3.1318-.0378.8569-.8722.8431-2.2817-.0375-3.1325zm5.3653 5.2552c-.8719-.8571-2.2811-.8431-3.1318.0377-.8569.8722-.843 2.2817.0376 3.1325.8719.857 2.2811.8431 3.1318-.0377.8569-.8722.843-2.2817-.0376-3.1325zm5.3666 5.2477c-.8719-.857-2.2811-.8431-3.1318.0377-.8569.8722-.843 2.2817.0375 3.1326.872.857 2.2812.843 3.1319-.0378.8569-.8722.843-2.2817-.0376-3.1325zm15.868-5.4873c-.872-.857-2.2812-.843-3.1319.0378-.8569.8722-.843 2.2817.0376 3.1325.8719.857 2.2811.8431 3.1318-.0377.8569-.8722.843-2.2818-.0375-3.1326zm-5.247 5.3681c-.872-.857-2.2812-.843-3.1319.0378-.8569.8722-.843 2.2817.0376 3.1325.8805.8509 2.2811.8431 3.1318-.0377.8569-.8722.843-2.2818-.0375-3.1326zm10.6124-.1129c-.872-.857-2.2812-.8431-3.1319.0377-.8569.8722-.843 2.2817.0375 3.1326.872.857 2.2812.843 3.1319-.0378.8569-.8722.843-2.2817-.0375-3.1325zm5.3665 5.2477c-.8719-.857-2.2812-.8431-3.1319.0378-.8569.8722-.843 2.2817.0376 3.1325s2.2812.843 3.1318-.0378c.8569-.8722.8431-2.2817-.0375-3.1325zm-10.6135.1203c-.872-.857-2.2812-.8429-3.1319.0379-.8569.8722-.843 2.2817.0375 3.1325.872.857 2.2812.843 3.1319-.0378.8569-.8722.843-2.2818-.0375-3.1326zm5.3591 5.2466c-.8719-.8571-2.2811-.843-3.1318.0378-.8569.8722-.8431 2.2817.0375 3.1325.8719.857 2.2812.843 3.1318-.0378.8569-.8722.8431-2.2817-.0375-3.1325zm-15.9789-5.1348c-.8719-.857-2.2812-.8431-3.1319.0378-.8569.8722-.843 2.2817.0376 3.1325.8719.857 2.2811.843 3.1318-.0378.8569-.8722.8431-2.2817-.0375-3.1325zm5.3654 5.2552c-.872-.857-2.2812-.8431-3.1319.0377-.8569.8722-.843 2.2817.0375 3.1325.872.857 2.2812.8431 3.1319-.0377.8569-.8722.843-2.2817-.0375-3.1325zm5.3665 5.2477c-.8719-.857-2.2811-.8431-3.1318.0377-.8569.8722-.8431 2.2818.0375 3.1326.8719.857 2.2812.843 3.1318-.0378.8507-.8808.8431-2.2817-.0375-3.1325z" fill="url(#d)"/><g fill="#e9545d"><path d="m110.36 32.36c1.68 0 2.36.56 2.92 2.2.4 1.16.76 2.08 2.04 2.68 1.32.64 3.24.72 4.68.72 2.88 0 5.68-.52 8.48-1.08.6-.12 1.2-.24 1.8-.24 2 0 2.92 1.68 2.92 3.52 0 2.04-1.04 2.92-2.92 3.36-3.04.68-7.16.96-10.28.96-4.04 0-8.48-.56-11.12-4-1.08-1.44-1.88-3.36-1.88-5.2s1.6-2.92 3.36-2.92zm2.96-16.6c.64 0 1.24.12 1.88.24 1.84.32 3.72.48 5.6.48 1.56 0 3.04-.08 4.68-.32.44-.08.92-.12 1.4-.12 2.12 0 3.08 1.36 3.08 3.4 0 1.88-.76 2.88-2.64 3.24-2 .4-3.96.4-5.92.4-2.52 0-6.08-.08-8.48-.68-1.8-.44-2.56-1.52-2.56-3.36s1-3.28 2.96-3.28z"/><path d="m165.44 17.68c3.68 0 5.44 2.64 5.44 6.08 0 1.84-.48 5.08-.88 7.56-.24 1.6-.72 4-.72 5.6 0 .36.12.76.56.76.4 0 .84-.24 1.6-.76s1.52-1.04 2.48-1.04c1.64 0 2.8 1.64 2.8 3.2s-1.28 2.4-2.4 3.2c-1.68 1.16-3.68 1.88-5.68 1.88-4.08 0-5.64-2.72-5.64-6.44 0-3.12.8-7.24 1.32-10.32.16-.92.32-1.84.32-2.44 0-.52-.08-1.12-.72-1.12-1.88 0-7.56 5.64-8.92 7.16-.04 1.52-.04 3-.04 4.48 0 2.64.04 5.32.04 7.96 0 2.24-.56 3.68-3.08 3.68s-3.16-1.24-3.16-3.72c0-1.12.04-2.2.04-3.32-.8 1.4-1.48 3.12-3.36 3.12-1.76 0-3.32-1.36-3.32-3.16 0-1.08.52-1.84 1.44-3.12 2.12-3.04 3.96-6.32 5.6-9.68v-.52c-1.36.44-2.92 1.04-4.36 1.04-1.84 0-2.68-1.64-2.68-3.28 0-2.48 1.44-2.8 3.76-3.12 1.2-.16 2.36-.44 3.52-.76.08-1.88.12-3.64.28-5.68.04-.52.16-1.12.48-1.56.56-.8 1.6-1 2.56-1 1.68 0 3.04.84 3.04 2.68 0 1.48-.2 2.96-.28 4.44.72.44 1.16 1.24 1.16 2.08 0 .24-.04.44-.08.64 2.4-2.16 5.44-4.52 8.88-4.52z"/><path d="m190.5 40.55c-.6.96-1.24 2-2.04 2.84-.56.6-1.24.88-2 .88-1.76 0-3.52-1.36-3.52-3.2 0-.84.4-1.52.88-2.2 2.52-3.36 4.48-7.04 6-10.92-1.2.2-2.44.56-3.68.56-1.8 0-2.68-1.44-2.68-3.12 0-1.36.68-2.52 2.04-2.76 2.12-.4 4.2-.72 6.28-.96.28-1.08.4-2.04.64-3.36.16-.92.32-1.72.56-2.68.36-1.36 1.68-1.84 2.96-1.84 1.68 0 3.36.84 3.36 2.68 0 1.12-.4 2.84-.92 4.64h.28c2 0 4.12.24 5.64 1.68 1.48 1.4 2 3.4 2 5.36 0 3.6-.8 8.4-2.2 11.68-1.32 3.08-3.24 4.6-6.64 4.6-2.16 0-5.36-.4-5.36-3.2 0-1.52.72-3.36 2.52-3.36.64 0 1.68.44 2.24.44 1.16 0 1.76-1.76 2.2-3.36.52-1.96 1.08-4.48 1.08-6.52 0-1.36-.76-1.56-1.96-1.56-.52 0-1 .04-1.52.08-1.56 4.72-3.56 9.36-6.16 13.6zm23.56-7.07c-2 0-2.52-1.28-3.32-3.32-.8-2-1.76-3.96-3.08-5.68-.52-.68-1.08-1.4-1.08-2.28 0-1.8 1.8-2.96 3.44-2.96 1.08 0 1.92.52 2.6 1.36.64.76 1.2 1.6 1.76 2.48 1.04 1.68 3.24 5.24 3.24 7.2s-1.72 3.2-3.56 3.2z"/><path d="m241.18 26.16c5.68 0 9.96 3.92 9.96 9.72 0 4.28-2.24 7.6-6.16 9.36-2.8 1.24-6 1.76-9.08 1.76-.8 0-1.64-.08-2.32-.48-1.12-.64-1.4-1.72-1.4-2.76 0-2.44 1.52-2.8 3.56-2.8h.36c3.4 0 8.56-1 8.56-5.32 0-2.28-1.6-3.88-3.84-3.88-1.76 0-3.52.88-4.96 1.8-1.68 1.08-3.04 2.44-4.2 4.08-.6.88-1.44 1.32-2.52 1.32-1.6 0-3.16-.92-3.16-2.64 0-1.28.48-3.28.68-4.6.48-2.92.88-5.88 1.24-8.84.28-2.24.56-3.64 3-3.64 1.48 0 3.32.72 3.32 2.4s-.76 5.52-1.08 7.28c2.36-1.68 5.08-2.76 8.04-2.76zm-6.72-14.28c1.64 0 5.04 1.64 6.6 2.4 1.44.68 2.8 1.32 2.8 3.12 0 1.68-1.16 3.36-2.96 3.36-1 0-1.88-.52-2.72-1-1.52-.84-3.12-1.48-4.76-2.12-1.04-.4-1.96-1.12-1.96-2.32 0-1.76 1.08-3.44 3-3.44z"/><path d="m266.06 42.88c-4.96 0-6.36-5.2-6.36-9.2 0-10.52 8.52-18.52 18.92-18.52 8.6 0 15 5.56 15 14.36 0 6.28-3.16 11.32-8.64 14.32-1.36.72-3.2 1.6-4.8 1.6-1.88 0-3.2-1.76-3.2-3.52 0-1.6.72-2.12 2.88-2.8 4.56-1.44 7.32-4.88 7.32-9.6 0-4.36-2.68-7.8-7.04-8.56-1.2 6.44-5.92 21.92-14.08 21.92zm2.48-17.24c-1.92 2.36-3.04 5.4-3.04 8.44 0 .56 0 2.24.84 2.24.44 0 1.32-.92 2.04-1.96.64-.96 1.2-2 1.44-2.44 1.76-3.2 2.96-6.68 3.88-10.24-2.08.96-3.72 2.16-5.16 3.96z"/><path d="m307.72 40.51c-1.56 1.2-3.36 2.56-4.72 2.56-1.76 0-3.32-1.64-3.32-3.4 0-1.24.68-1.92 2.24-3 4.08-2.76 7.72-5.92 10.96-9.6l-8.36.12c-1.2 0-3.16-.08-3.16-3.16 0-1.92 1.08-2.92 3-2.96l11.64-.2-.08-5.24c0-1.16.16-3.08 3.24-3.08 1.96 0 3.08.96 3.12 3l.08 5.2 6.84-.12c1 0 3.16.16 3.16 3.12 0 1.92-1.08 2.96-3 3l-6.92.12.2 12.92c0 1.2-.04 3.4-1.04 4.8-.88 1.2-2.76 1.68-4.84 1.68-2.56 0-4.68-.28-4.68-3.4 0-1.4.8-2.8 2.36-2.8.24 0 .6.08.8.08h.2c.72 0 .84-.2.84-1.24l-.08-6.56c-2.56 3-5.36 5.76-8.48 8.16z"/><path d="m369.47 26.4c1.96 0 3.24 1.32 3.24 3.24s-1.28 3.28-3.24 3.28h-27.92c-1.96 0-3.24-1.32-3.24-3.28s1.24-3.24 3.24-3.24z"/><path d="m381.39 23.44c-1.92 0-3.04-1.24-3.04-3.16s1.08-3.16 3.04-3.16h18.56c3.6 0 5.72 1.16 5.72 5.12 0 2.44-.8 4.8-1.92 7.04-2.16 4.32-5.24 8.12-9 11.16-2.28 1.84-8.36 5.72-11.24 5.72-1.88 0-3.32-1.76-3.32-3.56 0-2.04 1.96-2.52 3.52-3.16 4.4-1.76 8.36-4.72 11.36-8.4 1.08-1.36 3.76-5.16 3.76-6.88 0-.6-.4-.72-.92-.72zm30.32-9.16c0 2.32-1.96 4.24-4.28 4.24s-4.24-1.92-4.24-4.24 1.92-4.28 4.24-4.28c2.52 0 4.28 1.96 4.28 4.28zm-6.2 0c0 1.04.88 1.92 1.92 1.92s1.96-.88 1.96-1.92-.88-1.96-1.96-1.96-1.92.88-1.92 1.96z"/><path d="m448.34 22.84c0 .92-.4 1.68-.88 2.4-2.84 4.08-6.36 7.76-10.16 10.92-3.96 3.32-8.4 6.28-13.16 8.28-1.76.72-2.28.84-2.92.84-2 0-3.48-2-3.48-3.88s1.16-2.24 3.08-3c8.16-3.2 15.68-9.4 20.8-16.44.96-1.32 1.84-2.44 3.24-2.44 1.8 0 3.48 1.48 3.48 3.32zm-21.63-3.84c1.24.84 2.68 1.88 2.68 3.56s-1.44 3.72-3.32 3.72c-.8 0-1.44-.44-2.68-1.32-1-.68-2-1.36-3.08-2.04-1.64-1-2.44-1.52-2.44-2.92 0-1.92 1.6-3.6 3.48-3.6 1.4 0 3.36 1.2 5.36 2.6z"/><path d="m465.4 15.64c-.04-.32-.08-.64-.08-.92 0-2.04 1.44-2.92 3.68-2.92 1.8 0 2.64 1.04 2.92 2.68l.72 4.32 6.24-.96c.28-.04.56-.08.8-.08 1.88.04 2.96 1.24 2.96 3.28 0 1.8-1.08 2.68-2.72 2.92l-6.28.96.56 3.36 8.92-1.32c.28-.04.52-.08.8-.08 1.8.04 2.96 1.24 2.96 3.28 0 1.8-.96 2.68-2.76 2.96l-8.92 1.32 1.48 8.92c.08.48.16 1.16.16 1.44 0 2-1.28 2.92-3.6 2.92-1.92 0-2.68-.92-3-2.76l-1.6-9.56-10.12 1.48c-.24.04-.48.08-.72.08-1.88 0-3-1.24-3-3.32 0-1.76 1.08-2.68 2.72-2.92l10.12-1.48-.56-3.36-6.72 1c-.24.04-.48.08-.72.08-1.88 0-3.04-1.2-3.04-3.28 0-1.76 1.08-2.64 2.72-2.88l6.76-1.04z"/><path d="m512.85 45.75c.04.24.04.44.04.68 0 1.68-1.44 2.64-3 2.64-1.36 0-2.28-.72-2.56-2.12l-2.56-12.8-6 1.16c-.2.04-.44.04-.68.04-1.6 0-2.48-1.2-2.48-2.76 0-1.32.68-2.28 2.12-2.52l6-1.08-1-5.24c-.04-.24-.08-.48-.08-.72 0-1.68 1.32-2.56 3.04-2.56 1.36 0 2.28.76 2.56 2.08l1.08 5.4 9.4-1.72c.36-.08.56-.08.84-.08 1.6 0 3.04 1.12 3.04 2.8 0 1.56-2.04 4.36-3.28 6.04-.76 1.04-1.56 2.12-2.48 3-.52.52-1.24.84-1.8.84-1.44 0-2.88-1.16-2.88-2.64 0-.88.52-1.48 1.36-2.4.48-.52.96-1.04 1.4-1.6l-4.6.88z"/><path d="m560.29 22.84c0 .92-.4 1.68-.88 2.4-2.84 4.08-6.36 7.76-10.16 10.92-3.96 3.32-8.4 6.28-13.16 8.28-1.76.72-2.28.84-2.92.84-2 0-3.48-2-3.48-3.88s1.16-2.24 3.08-3c8.16-3.2 15.68-9.4 20.8-16.44.96-1.32 1.84-2.44 3.24-2.44 1.8 0 3.48 1.48 3.48 3.32zm-21.64-3.84c1.24.84 2.68 1.88 2.68 3.56s-1.44 3.72-3.32 3.72c-.8 0-1.44-.44-2.68-1.32-1-.68-2-1.36-3.08-2.04-1.64-1-2.44-1.52-2.44-2.92 0-1.92 1.6-3.6 3.48-3.6 1.4 0 3.36 1.2 5.36 2.6z"/><path d="m578.63 22.68c0 1.08-.56 2.56-1.36 4.4-1.36 3.16-3.2 6.24-5.32 9-1.48 1.96-3.6 4.6-5.64 4.6-1.88 0-3.84-1.48-3.84-3.44 0-1.12.64-1.76 1.84-3 3.76-3.8 5.76-7.48 7.56-12.6.52-1.48 1.52-2 2.88-2 1.8 0 3.88 1 3.88 3.04zm12.15-.4c.92 1.16 1.8 2.36 2.64 3.56 1.44 2.12 5.6 8.44 5.6 10.76 0 2-2 3.48-3.88 3.48-2.04 0-2.64-1.48-3.32-3.12-1.72-4.04-4.08-7.68-6.84-11.12-.56-.68-1.04-1.4-1.04-2.32 0-1.84 1.8-3.16 3.52-3.16 1.56 0 2.4.8 3.32 1.92zm8.56-5.28c0 2.4-2.04 4.44-4.48 4.44s-4.48-2.04-4.48-4.44 2.04-4.48 4.48-4.48 4.48 2.04 4.48 4.48zm-6.52 0c0 1.08.92 2.04 2.04 2.04s2.04-.96 2.04-2.04-.92-2.08-2.04-2.08-2.04.96-2.04 2.08z"/><path d="m633.63 35.56c1.6 1.64 2.68 2.8 2.68 4.24 0 1.88-1.68 3.6-3.56 3.6-1.28 0-2.08-.8-3.08-2.04-2-2.44-4.12-4.68-6.56-6.64-2.72 2.52-5.72 4.76-8.96 6.56-1.44.8-4 2.24-5.44 2.24-1.88 0-3.36-1.68-3.36-3.52 0-1.72 1.24-2.32 2.64-2.92 6.8-2.96 12.52-7.8 16.56-14.04h-11.72c-2.04 0-3.2-1-3.2-3.08s1.16-3.08 3.2-3.08h15.64c2.28 0 4.28.84 4.28 3.44s-3.72 7.6-5.28 9.64c2.2 1.72 4.24 3.6 6.16 5.6z"/></g></svg>