<svg width="742" height="58" viewBox="0 0 742 58" fill="none" xmlns="http://www.w3.org/2000/svg">
<path d="M10.4505 42.161C7.22715 40.6061 4.66083 38.2408 2.87057 35.4261L20.4424 43.8964C17.1264 44.2488 13.6738 43.7114 10.4505 42.1566V42.161ZM0.114644 27.7267C0.268976 28.9909 0.555592 30.233 0.961265 31.4355L24.7549 42.9098C25.9498 42.4825 27.1007 41.9319 28.1899 41.2668L0.114644 27.7311V27.7267ZM0.4189 21.5028C0.189607 22.5335 0.0529138 23.5687 0 24.5994L30.7121 39.408C31.4926 38.7253 32.2157 37.9721 32.8815 37.1528L0.4189 21.4984V21.5028ZM35.7698 32.1799L2.52663 16.1511C2.2797 16.5739 2.046 17.0144 1.82553 17.4637C1.60946 17.913 1.41104 18.3711 1.23466 18.8292L34.4778 34.8579C34.7247 34.4351 34.9584 33.9946 35.1789 33.5453C35.395 33.0961 35.5934 32.638 35.7698 32.1799ZM6.28793 11.5966C5.50745 12.2794 4.78429 13.0326 4.11846 13.8518L36.5811 29.5062C36.8104 28.4755 36.9471 27.4404 37 26.4097L6.28793 11.601V11.5966ZM12.2407 8.09488C11.0458 8.52214 9.89489 9.07272 8.80575 9.73783L36.8809 23.2735C36.7266 22.0094 36.44 20.7672 36.0343 19.5648L12.2407 8.09047V8.09488ZM16.5576 7.10823L34.125 15.5785C32.3392 12.7639 29.7729 10.3986 26.5451 8.84369C23.3218 7.28882 19.8691 6.75144 16.5532 7.10382L16.5576 7.10823Z" fill="url(#paint0_linear_410_7176)"/>
<path d="M712.374 32.6324L708.486 36.7632L707 35.9549L712.374 32.635V32.6324ZM723.473 25.7733L716.8 29.8964L709.711 37.4288L711.558 38.4334L723.475 25.7733H723.473ZM734.571 18.9141L727.899 23.0372L712.78 39.0989L714.626 40.1036L734.571 18.9141ZM717.698 41.7738L740.96 17.0603L740.904 15L739 16.178L715.851 40.7691L717.698 41.7738ZM741.092 21.8541L741.013 18.9727L718.923 42.4418L720.769 43.4465L741.092 21.8541ZM741.221 26.6453L741.143 23.7639L721.992 44.1095L723.838 45.1141L741.224 26.6453H741.221ZM741.353 31.4391L741.275 28.5577L725.063 45.7822L726.909 46.7868L741.356 31.4391H741.353ZM741.485 36.2303L741.407 33.3489L728.132 47.4498L729.978 48.4545L741.485 36.2303ZM741.617 41.0241L741.538 38.1427L731.203 49.1225L733.05 50.1272L741.617 41.0241ZM741.749 45.8153L741.67 42.934L734.275 50.7927L736.121 51.7973L741.751 45.8179L741.749 45.8153ZM741.878 50.6091L741.8 47.7277L737.343 52.4629L739.19 53.4675L741.881 50.6091H741.878ZM742 54.9974L741.932 52.5215L740.412 54.1356L742 55V54.9974Z" fill="url(#paint1_linear_410_7176)" fill-opacity="0.8"/>
<path d="M668.079 38.9268C669.333 39.3894 669.978 40.7803 669.523 42.0325C669.06 43.2868 667.669 43.9315 666.416 43.4767C665.162 43.014 664.517 41.6231 664.972 40.371C665.435 39.1167 666.826 38.472 668.079 38.9268ZM672.673 43.1939C672.21 44.4482 672.857 45.847 674.117 46.2997C675.372 46.7624 676.771 46.1155 677.224 44.8554C677.687 43.6012 677.04 42.2023 675.779 41.7497C674.525 41.287 673.126 41.9338 672.673 43.1939ZM667.794 32.6633C667.331 33.9176 667.978 35.3164 669.238 35.7691C670.493 36.2318 671.892 35.5849 672.345 34.3248C672.808 33.0705 672.161 31.6717 670.901 31.219C669.646 30.7564 668.247 31.4032 667.794 32.6633ZM670.617 24.9557C670.154 26.2099 670.8 27.6088 672.061 28.0614C673.315 28.5241 674.714 27.8772 675.167 26.6172C675.63 25.3629 674.983 23.964 673.723 23.5114C672.469 23.0487 671.069 23.6956 670.617 24.9557ZM675.503 35.4841C675.04 36.7384 675.687 38.1373 676.947 38.5899C678.202 39.0526 679.601 38.4057 680.054 37.1457C680.517 35.8914 679.87 34.4925 678.61 34.0399C677.355 33.5772 675.956 34.224 675.503 35.4841ZM678.325 27.7765C677.862 29.0308 678.509 30.4296 679.77 30.8822C681.024 31.3449 682.423 30.6981 682.876 29.438C683.339 28.1837 682.692 26.7848 681.432 26.3322C680.177 25.8695 678.778 26.5164 678.325 27.7765ZM680.382 46.0148C679.919 47.269 680.566 48.6678 681.826 49.1205C683.08 49.5832 684.48 48.9363 684.933 47.6763C685.385 46.4162 684.749 45.0232 683.488 44.5705C682.234 44.1078 680.835 44.7547 680.382 46.0148ZM683.212 38.305C682.749 39.5593 683.396 40.9581 684.656 41.4107C685.911 41.8734 687.31 41.2266 687.763 39.9665C688.226 38.7122 687.579 37.3133 686.318 36.8607C685.064 36.398 683.665 37.0449 683.212 38.305ZM686.036 30.6053C685.573 31.8595 686.22 33.2583 687.481 33.711C688.735 34.1737 690.134 33.5268 690.587 32.2667C691.05 31.0124 690.403 29.6136 689.143 29.161C687.888 28.6983 686.489 29.3452 686.036 30.6053ZM673.447 17.2459C672.984 18.5002 673.631 19.899 674.891 20.3516C676.145 20.8143 677.544 20.1674 677.997 18.9073C678.46 17.6531 677.813 16.2542 676.553 15.8016C675.299 15.3389 673.9 15.9858 673.447 17.2459ZM681.156 20.0667C680.693 21.321 681.339 22.7198 682.6 23.1724C683.854 23.6351 685.253 22.9882 685.706 21.7282C686.169 20.4739 685.522 19.075 684.262 18.6224C683.008 18.1597 681.608 18.8066 681.156 20.0667ZM676.269 9.53822C675.806 10.7925 676.453 12.1913 677.713 12.644C678.968 13.1066 680.367 12.4598 680.82 11.1997C681.283 9.9454 680.636 8.54657 679.375 8.09394C678.121 7.63126 676.722 8.27813 676.269 9.53822ZM679.091 1.83051C678.628 3.0848 679.275 4.48367 680.535 4.93631C681.79 5.39899 683.189 4.75212 683.642 3.49203C684.105 2.23774 683.458 0.838916 682.198 0.386285C680.943 -0.0763995 679.544 0.570422 679.091 1.83051ZM683.978 12.359C683.515 13.6133 684.162 15.0121 685.422 15.4648C686.676 15.9275 688.076 15.2806 688.529 14.0205C688.991 12.7662 688.345 11.3674 687.084 10.9148C685.83 10.4521 684.431 11.0989 683.978 12.359ZM686.8 4.65133C686.337 5.90561 686.984 7.30449 688.244 7.75712C689.499 8.2198 690.898 7.57293 691.351 6.31284C691.804 5.05275 691.167 3.65973 689.907 3.2071C688.652 2.74441 687.253 3.39124 686.8 4.65133ZM688.867 22.8955C688.404 24.1498 689.05 25.5486 690.311 26.0012C691.565 26.4639 692.964 25.817 693.417 24.5569C693.88 23.3026 693.233 21.9038 691.973 21.4512C690.719 20.9885 689.319 21.6354 688.867 22.8955ZM691.689 15.1878C691.226 16.442 691.873 17.8409 693.133 18.2936C694.387 18.7562 695.787 18.1093 696.24 16.8493C696.702 15.595 696.056 14.1962 694.795 13.7435C693.541 13.2808 692.142 13.9277 691.689 15.1878ZM694.511 7.4801C694.048 8.73439 694.695 10.1333 695.955 10.5859C697.21 11.0486 698.609 10.4017 699.062 9.14159C699.525 7.88731 698.878 6.4885 697.618 6.03587C696.363 5.57319 694.964 6.22001 694.511 7.4801ZM688.093 48.8435C687.63 50.0978 688.277 51.4966 689.537 51.9493C690.791 52.4119 692.191 51.7651 692.643 50.505C693.106 49.2507 692.46 47.8519 691.199 47.3992C689.945 46.9366 688.546 47.5834 688.093 48.8435ZM695.802 51.6643C695.339 52.9186 695.986 54.3174 697.246 54.7701C698.5 55.2328 699.9 54.5859 700.352 53.3258C700.815 52.0716 700.168 50.6727 698.908 50.22C697.654 49.7574 696.254 50.4043 695.802 51.6643ZM690.923 41.1337C690.46 42.388 691.107 43.7868 692.367 44.2395C693.622 44.7022 695.021 44.0553 695.474 42.7952C695.937 41.541 695.29 40.1421 694.029 39.6894C692.775 39.2268 691.376 39.8736 690.923 41.1337ZM693.745 33.4261C693.282 34.6804 693.929 36.0792 695.189 36.5318C696.444 36.9945 697.843 36.3476 698.296 35.0875C698.759 33.8333 698.112 32.4344 696.852 31.9818C695.597 31.5191 694.198 32.166 693.745 33.4261ZM698.632 43.9546C698.169 45.2088 698.816 46.6077 700.076 47.0603C701.331 47.523 702.73 46.8761 703.183 45.6161C703.645 44.3618 702.999 42.9629 701.738 42.5103C700.484 42.0476 699.085 42.6945 698.632 43.9546ZM701.454 36.2469C700.991 37.5012 701.638 38.9 702.898 39.3526C704.153 39.8153 705.552 39.1684 706.005 37.9083C706.458 36.6483 705.821 35.2552 704.561 34.8026C703.306 34.3399 701.907 34.9868 701.454 36.2469ZM703.513 54.4931C703.05 55.7474 703.696 57.1462 704.957 57.5988C706.211 58.0615 707.61 57.4147 708.063 56.1546C708.526 54.9003 707.879 53.5015 706.619 53.0488C705.365 52.5861 703.965 53.233 703.513 54.4931ZM706.343 46.7833C705.88 48.0376 706.527 49.4364 707.787 49.8891C709.041 50.3517 710.441 49.7049 710.893 48.4448C711.356 47.1905 710.71 45.7917 709.449 45.339C708.195 44.8764 706.796 45.5232 706.343 46.7833ZM709.165 39.0757C708.702 40.3299 709.349 41.7288 710.609 42.1814C711.864 42.6441 713.263 41.9972 713.716 40.7371C714.179 39.4828 713.532 38.084 712.272 37.6314C711.017 37.1687 709.618 37.8156 709.165 39.0757ZM696.567 25.7184C696.105 26.9727 696.751 28.3715 698.012 28.8242C699.266 29.2868 700.665 28.64 701.118 27.3799C701.581 26.1256 700.934 24.7268 699.674 24.2741C698.42 23.8114 697.02 24.4583 696.567 25.7184ZM704.276 28.5392C703.813 29.7935 704.46 31.1923 705.721 31.645C706.975 32.1077 708.374 31.4608 708.827 30.2007C709.28 28.9406 708.643 27.5476 707.383 27.0949C706.128 26.6323 704.729 27.2792 704.276 28.5392ZM699.398 18.0086C698.935 19.2629 699.582 20.6617 700.842 21.1144C702.096 21.577 703.495 20.9302 703.948 19.6701C704.411 18.4158 703.764 17.017 702.504 16.5643C701.25 16.1017 699.851 16.7485 699.398 18.0086ZM702.22 10.3009C701.757 11.5552 702.404 12.9541 703.664 13.4067C704.919 13.8694 706.318 13.2225 706.771 11.9624C707.223 10.7023 706.587 9.30932 705.326 8.85669C704.072 8.394 702.673 9.04082 702.22 10.3009ZM707.106 20.8294C706.644 22.0837 707.29 23.4825 708.551 23.9352C709.805 24.3979 711.204 23.751 711.657 22.4909C712.12 21.2366 711.473 19.8378 710.213 19.3852C708.959 18.9225 707.559 19.5693 707.106 20.8294ZM709.931 13.1297C709.468 14.384 710.115 15.7828 711.375 16.2354C712.63 16.6981 714.029 16.0513 714.482 14.7912C714.945 13.5369 714.298 12.1381 713.037 11.6855C711.783 11.2228 710.384 11.8696 709.931 13.1297ZM711.987 31.3679C711.524 32.6222 712.171 34.0211 713.431 34.4737C714.686 34.9364 716.085 34.2896 716.538 33.0295C717.001 31.7752 716.354 30.3764 715.094 29.9237C713.839 29.461 712.44 30.1079 711.987 31.3679ZM714.817 23.6582C714.355 24.9124 715.001 26.3113 716.262 26.764C717.516 27.2266 718.915 26.5798 719.368 25.3197C719.831 24.0654 719.184 22.6666 717.924 22.2139C716.67 21.7512 715.27 22.3981 714.817 23.6582ZM717.64 15.9505C717.177 17.2048 717.824 18.6036 719.084 19.0562C720.338 19.5189 721.738 18.8721 722.19 17.612C722.653 16.3577 722.007 14.9589 720.746 14.5063C719.486 14.0536 718.093 14.6904 717.64 15.9505Z" fill="url(#paint2_linear_410_7176)"/>
<path d="M56.5376 4.2412C55.6807 5.11339 54.2789 5.12864 53.4057 4.27903C52.5338 3.42202 52.5187 2.01982 53.3682 1.14642C54.2251 0.274231 55.6269 0.259076 56.5001 1.10868C57.372 1.9657 57.3871 3.3678 56.5376 4.2412ZM51.2543 6.4694C50.3823 5.61239 48.9731 5.62634 48.1224 6.50715C47.2655 7.37934 47.2794 8.78885 48.1599 9.63966C49.0319 10.4967 50.4411 10.4827 51.2918 9.60192C52.1487 8.72973 52.1348 7.32021 51.2543 6.4694ZM61.8666 6.35641C60.9947 5.4994 59.5855 5.51335 58.7348 6.39416C57.8779 7.26635 57.8917 8.67595 58.7723 9.52676C59.6442 10.3838 61.0535 10.3697 61.9042 9.48894C62.7611 8.61674 62.7472 7.20722 61.8666 6.35641ZM67.2332 11.6041C66.3613 10.7471 64.952 10.7611 64.1013 11.6419C63.2445 12.5141 63.2583 13.9237 64.1388 14.7745C65.0108 15.6315 66.4201 15.6175 67.2708 14.7367C68.1276 13.8645 68.1138 12.455 67.2332 11.6041ZM56.6196 11.7246C55.7477 10.8675 54.3385 10.8815 53.4878 11.7623C52.6309 12.6345 52.6447 14.044 53.5253 14.8948C54.3972 15.7518 55.8065 15.7379 56.6572 14.8571C57.5141 13.9849 57.5002 12.5754 56.6196 11.7246ZM61.9862 16.9723C61.1143 16.1153 59.705 16.1292 58.8543 17.01C57.9975 17.8822 58.0113 19.2917 58.8919 20.1425C59.7638 20.9996 61.1731 20.9856 62.0238 20.1048C62.8806 19.2326 62.8668 17.8231 61.9862 16.9723ZM46.0073 11.8375C45.1354 10.9804 43.7261 10.9945 42.8754 11.8753C42.0185 12.7475 42.0324 14.157 42.9129 15.0078C43.7935 15.8586 45.1941 15.8508 46.0448 14.97C46.9017 14.0978 46.8879 12.6883 46.0073 11.8375ZM51.3727 17.0926C50.5007 16.2356 49.0915 16.2496 48.2408 17.1304C47.3839 18.0026 47.3977 19.4121 48.2783 20.263C49.1502 21.12 50.5595 21.1059 51.4102 20.2251C52.2671 19.3529 52.2532 17.9434 51.3727 17.0926ZM56.7318 22.3391C55.8599 21.4821 54.4506 21.4961 53.5999 22.377C52.743 23.2492 52.7569 24.6587 53.6375 25.5095C54.5094 26.3665 55.9187 26.3525 56.7694 25.4716C57.6262 24.5995 57.6124 23.1899 56.7318 22.3391ZM72.5986 16.8593C71.7266 16.0023 70.3174 16.0162 69.4667 16.897C68.6098 17.7692 68.6237 19.1788 69.5043 20.0296C70.3762 20.8866 71.7854 20.8726 72.6361 19.9918C73.493 19.1196 73.4791 17.7101 72.5986 16.8593ZM67.3516 22.2274C66.4796 21.3704 65.0704 21.3844 64.2197 22.2652C63.3628 23.1374 63.3767 24.5469 64.2573 25.3977C65.1292 26.2547 66.5384 26.2408 67.3891 25.36C68.246 24.4878 68.2321 23.0782 67.3516 22.2274ZM77.9651 22.107C77.0932 21.25 75.684 21.264 74.8333 22.1448C73.9764 23.017 73.9903 24.4265 74.8708 25.2773C75.7428 26.1343 77.152 26.1204 78.0027 25.2395C78.8596 24.3674 78.8457 22.9578 77.9651 22.107ZM83.3317 27.3548C82.4598 26.4977 81.0505 26.5117 80.1998 27.3925C79.3429 28.2647 79.3568 29.6742 80.2374 30.525C81.1093 31.382 82.5185 31.3681 83.3692 30.4873C84.2261 29.6151 84.2123 28.2056 83.3317 27.3548ZM72.7181 27.4752C71.8462 26.6181 70.437 26.6321 69.5863 27.5129C68.7294 28.3851 68.7433 29.7946 69.6238 30.6454C70.4958 31.5024 71.905 31.4885 72.7557 30.6077C73.6126 29.7355 73.5987 28.326 72.7181 27.4752ZM78.0847 32.7229C77.2128 31.8659 75.8035 31.8798 74.9528 32.7606C74.0959 33.6328 74.1098 35.0424 74.9904 35.8932C75.8709 36.744 77.2715 36.7362 78.1222 35.8554C78.9791 34.9832 78.9653 33.5737 78.0847 32.7229ZM62.0972 27.5943C61.2252 26.7373 59.816 26.7512 58.9653 27.632C58.1084 28.5042 58.1223 29.9138 59.0028 30.7646C59.8748 31.6216 61.284 31.6076 62.1347 30.7268C62.9916 29.8546 62.9777 28.4451 62.0972 27.5943ZM67.4638 32.842C66.5918 31.985 65.1826 31.9989 64.3319 32.8797C63.475 33.7519 63.4889 35.1616 64.3694 36.0124C65.2414 36.8694 66.6506 36.8553 67.5013 35.9745C68.3582 35.1023 68.3443 33.6928 67.4638 32.842ZM72.8303 38.0897C71.9584 37.2327 70.5491 37.2467 69.6984 38.1275C68.8415 38.9997 68.8554 40.4093 69.736 41.2601C70.6079 42.1171 72.0171 42.1031 72.8678 41.2223C73.7247 40.3501 73.7109 38.9406 72.8303 38.0897ZM40.7529 17.2044C39.8809 16.3474 38.4717 16.3613 37.621 17.2421C36.7641 18.1143 36.778 19.5238 37.6585 20.3746C38.5305 21.2317 39.9397 21.2177 40.7904 20.3369C41.6473 19.4647 41.6334 18.0552 40.7529 17.2044ZM35.5059 22.5724C34.634 21.7154 33.2247 21.7295 32.374 22.6103C31.5171 23.4825 31.531 24.892 32.4116 25.7428C33.2835 26.5998 34.6928 26.5859 35.5434 25.705C36.4003 24.8329 36.3865 23.4232 35.5059 22.5724ZM46.1182 22.4595C45.2463 21.6025 43.8371 21.6165 42.9864 22.4973C42.1295 23.3695 42.1433 24.779 43.0239 25.6298C43.8958 26.4868 45.3051 26.4729 46.1558 25.5921C47.0127 24.7199 46.9988 23.3103 46.1182 22.4595ZM51.4848 27.7073C50.6129 26.8502 49.2036 26.8642 48.353 27.745C47.4961 28.6172 47.51 30.0267 48.3905 30.8775C49.2625 31.7345 50.6717 31.7206 51.5224 30.8398C52.3793 29.9676 52.3654 28.5581 51.4848 27.7073ZM40.8713 27.8276C39.9993 26.9706 38.5901 26.9846 37.7394 27.8654C36.8825 28.7376 36.8963 30.1471 37.7769 30.9979C38.6489 31.8549 40.0581 31.841 40.9088 30.9602C41.7657 30.088 41.7518 28.6784 40.8713 27.8276ZM46.2378 33.0753C45.3659 32.2183 43.9567 32.2323 43.106 33.1131C42.2491 33.9853 42.263 35.3949 43.1435 36.2457C44.0241 37.0965 45.4247 37.0887 46.2754 36.2079C47.1323 35.3357 47.1184 33.9261 46.2378 33.0753ZM30.2515 27.9394C29.3795 27.0823 27.9703 27.0963 27.1196 27.9771C26.2628 28.8493 26.2766 30.2588 27.1572 31.1096C28.0291 31.9666 29.4384 31.9527 30.289 31.0719C31.1459 30.1997 31.1321 28.7902 30.2515 27.9394ZM35.6168 33.1945C34.7449 32.3375 33.3357 32.3514 32.485 33.2323C31.6281 34.1045 31.642 35.514 32.5226 36.3648C33.3945 37.2218 34.8037 37.2078 35.6544 36.327C36.5113 35.4548 36.4974 34.0453 35.6168 33.1945ZM40.9834 38.4422C40.1115 37.5852 38.7023 37.5992 37.8516 38.48C36.9947 39.3522 37.0086 40.7617 37.8891 41.6125C38.7611 42.4695 40.1703 42.4556 41.021 41.5748C41.8779 40.7026 41.864 39.2931 40.9834 38.4422ZM56.8514 32.955C55.9794 32.098 54.5702 32.1119 53.7195 32.9927C52.8626 33.8649 52.8765 35.2745 53.7571 36.1253C54.629 36.9823 56.0382 36.9683 56.8889 36.0875C57.7458 35.2153 57.7319 33.8058 56.8514 32.955ZM51.6044 38.323C50.7324 37.466 49.3232 37.4801 48.4725 38.3609C47.6156 39.2331 47.6295 40.6426 48.5101 41.4934C49.3906 42.3442 50.7912 42.3365 51.6419 41.4557C52.4988 40.5835 52.4849 39.1739 51.6044 38.323ZM62.2168 38.2102C61.3448 37.3531 59.9356 37.3671 59.0849 38.2479C58.228 39.1201 58.2419 40.5296 59.1224 41.3804C59.9944 42.2374 61.4036 42.2235 62.2543 41.3427C63.1112 40.4705 63.0973 39.061 62.2168 38.2102ZM67.5833 43.4579C66.7114 42.6009 65.3021 42.6148 64.4514 43.4956C63.5945 44.3678 63.6084 45.7773 64.489 46.6281C65.3696 47.479 66.7702 47.4712 67.6208 46.5904C68.4777 45.7182 68.4639 44.3087 67.5833 43.4579ZM56.9698 43.5782C56.0978 42.7212 54.6886 42.7352 53.8379 43.616C52.981 44.4882 52.9949 45.8977 53.8754 46.7486C54.7474 47.6056 56.1566 47.5915 57.0073 46.7107C57.8642 45.8385 57.8503 44.429 56.9698 43.5782ZM62.3289 48.8247C61.457 47.9677 60.0478 47.9817 59.1971 48.8626C58.3402 49.7348 58.354 51.1443 59.2346 51.9951C60.1065 52.8521 61.5158 52.8381 62.3664 51.9572C63.2233 51.0851 63.2095 49.6755 62.3289 48.8247ZM46.35 43.69C45.4781 42.833 44.0688 42.8469 43.2181 43.7277C42.3612 44.5999 42.3751 46.0094 43.2557 46.8602C44.1276 47.7173 45.5368 47.7033 46.3875 46.8225C47.2444 45.9503 47.2306 44.5408 46.35 43.69ZM51.7154 48.9451C50.8434 48.0881 49.4342 48.1021 48.5835 48.9829C47.7266 49.8551 47.7405 51.2646 48.621 52.1154C49.493 52.9724 50.9022 52.9585 51.7529 52.0777C52.6098 51.2055 52.5959 49.7959 51.7154 48.9451ZM57.0819 54.1929C56.21 53.3358 54.8008 53.3498 53.9501 54.2306C53.0932 55.1028 53.107 56.5123 53.9876 57.3631C54.8595 58.2201 56.2688 58.2062 57.1194 57.3254C57.9701 56.4446 57.9625 55.0437 57.0819 54.1929Z" fill="url(#paint3_linear_410_7176)"/>
<path d="M110.36 32.36C112.04 32.36 112.72 32.92 113.28 34.56C113.68 35.72 114.04 36.64 115.32 37.24C116.64 37.88 118.56 37.96 120 37.96C122.88 37.96 125.68 37.44 128.48 36.88C129.08 36.76 129.68 36.64 130.28 36.64C132.28 36.64 133.2 38.32 133.2 40.16C133.2 42.2 132.16 43.08 130.28 43.52C127.24 44.2 123.12 44.48 120 44.48C115.96 44.48 111.52 43.92 108.88 40.48C107.8 39.04 107 37.12 107 35.28C107 33.44 108.6 32.36 110.36 32.36ZM113.32 15.76C113.96 15.76 114.56 15.88 115.2 16C117.04 16.32 118.92 16.48 120.8 16.48C122.36 16.48 123.84 16.4 125.48 16.16C125.92 16.08 126.4 16.04 126.88 16.04C129 16.04 129.96 17.4 129.96 19.44C129.96 21.32 129.2 22.32 127.32 22.68C125.32 23.08 123.36 23.08 121.4 23.08C118.88 23.08 115.32 23 112.92 22.4C111.12 21.96 110.36 20.88 110.36 19.04C110.36 17.2 111.36 15.76 113.32 15.76Z" fill="#E75297"/>
<path d="M165.44 17.68C169.12 17.68 170.88 20.32 170.88 23.76C170.88 25.6 170.4 28.84 170 31.32C169.76 32.92 169.28 35.32 169.28 36.92C169.28 37.28 169.4 37.68 169.84 37.68C170.24 37.68 170.68 37.44 171.44 36.92C172.2 36.4 172.96 35.88 173.92 35.88C175.56 35.88 176.72 37.52 176.72 39.08C176.72 40.64 175.44 41.48 174.32 42.28C172.64 43.44 170.64 44.16 168.64 44.16C164.56 44.16 163 41.44 163 37.72C163 34.6 163.8 30.48 164.32 27.4C164.48 26.48 164.64 25.56 164.64 24.96C164.64 24.44 164.56 23.84 163.92 23.84C162.04 23.84 156.36 29.48 155 31C154.96 32.52 154.96 34 154.96 35.48C154.96 38.12 155 40.8 155 43.44C155 45.68 154.44 47.12 151.92 47.12C149.4 47.12 148.76 45.88 148.76 43.4C148.76 42.28 148.8 41.2 148.8 40.08C148 41.48 147.32 43.2 145.44 43.2C143.68 43.2 142.12 41.84 142.12 40.04C142.12 38.96 142.64 38.2 143.56 36.92C145.68 33.88 147.52 30.6 149.16 27.24V26.72C147.8 27.16 146.24 27.76 144.8 27.76C142.96 27.76 142.12 26.12 142.12 24.48C142.12 22 143.56 21.68 145.88 21.36C147.08 21.2 148.24 20.92 149.4 20.6C149.48 18.72 149.52 16.96 149.68 14.92C149.72 14.4 149.84 13.8 150.16 13.36C150.72 12.56 151.76 12.36 152.72 12.36C154.4 12.36 155.76 13.2 155.76 15.04C155.76 16.52 155.56 18 155.48 19.48C156.2 19.92 156.64 20.72 156.64 21.56C156.64 21.8 156.6 22 156.56 22.2C158.96 20.04 162 17.68 165.44 17.68Z" fill="#E75297"/>
<path d="M190.5 40.55C189.9 41.51 189.26 42.55 188.46 43.39C187.9 43.99 187.22 44.27 186.46 44.27C184.7 44.27 182.94 42.91 182.94 41.07C182.94 40.23 183.34 39.55 183.82 38.87C186.34 35.51 188.3 31.83 189.82 27.95C188.62 28.15 187.38 28.51 186.14 28.51C184.34 28.51 183.46 27.07 183.46 25.39C183.46 24.03 184.14 22.87 185.5 22.63C187.62 22.23 189.7 21.91 191.78 21.67C192.06 20.59 192.18 19.63 192.42 18.31C192.58 17.39 192.74 16.59 192.98 15.63C193.34 14.27 194.66 13.79 195.94 13.79C197.62 13.79 199.3 14.63 199.3 16.47C199.3 17.59 198.9 19.31 198.38 21.11H198.66C200.66 21.11 202.78 21.35 204.3 22.79C205.78 24.19 206.3 26.19 206.3 28.15C206.3 31.75 205.5 36.55 204.1 39.83C202.78 42.91 200.86 44.43 197.46 44.43C195.3 44.43 192.1 44.03 192.1 41.23C192.1 39.71 192.82 37.87 194.62 37.87C195.26 37.87 196.3 38.31 196.86 38.31C198.02 38.31 198.62 36.55 199.06 34.95C199.58 32.99 200.14 30.47 200.14 28.43C200.14 27.07 199.38 26.87 198.18 26.87C197.66 26.87 197.18 26.91 196.66 26.95C195.1 31.67 193.1 36.31 190.5 40.55ZM214.06 33.48C212.06 33.48 211.54 32.2 210.74 30.16C209.94 28.16 208.98 26.2 207.66 24.48C207.14 23.8 206.58 23.08 206.58 22.2C206.58 20.4 208.38 19.24 210.02 19.24C211.1 19.24 211.94 19.76 212.62 20.6C213.26 21.36 213.82 22.2 214.38 23.08C215.42 24.76 217.62 28.32 217.62 30.28C217.62 32.24 215.9 33.48 214.06 33.48Z" fill="#E75297"/>
<path d="M241.18 26.16C246.86 26.16 251.14 30.08 251.14 35.88C251.14 40.16 248.9 43.48 244.98 45.24C242.18 46.48 238.98 47 235.9 47C235.1 47 234.26 46.92 233.58 46.52C232.46 45.88 232.18 44.8 232.18 43.76C232.18 41.32 233.7 40.96 235.74 40.96H236.1C239.5 40.96 244.66 39.96 244.66 35.64C244.66 33.36 243.06 31.76 240.82 31.76C239.06 31.76 237.3 32.64 235.86 33.56C234.18 34.64 232.82 36 231.66 37.64C231.06 38.52 230.22 38.96 229.14 38.96C227.54 38.96 225.98 38.04 225.98 36.32C225.98 35.04 226.46 33.04 226.66 31.72C227.14 28.8 227.54 25.84 227.9 22.88C228.18 20.64 228.46 19.24 230.9 19.24C232.38 19.24 234.22 19.96 234.22 21.64C234.22 23.32 233.46 27.16 233.14 28.92C235.5 27.24 238.22 26.16 241.18 26.16ZM234.46 11.88C236.1 11.88 239.5 13.52 241.06 14.28C242.5 14.96 243.86 15.6 243.86 17.4C243.86 19.08 242.7 20.76 240.9 20.76C239.9 20.76 239.02 20.24 238.18 19.76C236.66 18.92 235.06 18.28 233.42 17.64C232.38 17.24 231.46 16.52 231.46 15.32C231.46 13.56 232.54 11.88 234.46 11.88Z" fill="#E75297"/>
<path d="M266.06 42.88C261.1 42.88 259.7 37.68 259.7 33.68C259.7 23.16 268.22 15.16 278.62 15.16C287.22 15.16 293.62 20.72 293.62 29.52C293.62 35.8 290.46 40.84 284.98 43.84C283.62 44.56 281.78 45.44 280.18 45.44C278.3 45.44 276.98 43.68 276.98 41.92C276.98 40.32 277.7 39.8 279.86 39.12C284.42 37.68 287.18 34.24 287.18 29.52C287.18 25.16 284.5 21.72 280.14 20.96C278.94 27.4 274.22 42.88 266.06 42.88ZM268.54 25.64C266.62 28 265.5 31.04 265.5 34.08C265.5 34.64 265.5 36.32 266.34 36.32C266.78 36.32 267.66 35.4 268.38 34.36C269.02 33.4 269.58 32.36 269.82 31.92C271.58 28.72 272.78 25.24 273.7 21.68C271.62 22.64 269.98 23.84 268.54 25.64Z" fill="#E75297"/>
<path d="M307.72 40.51C306.16 41.71 304.36 43.07 303 43.07C301.24 43.07 299.68 41.43 299.68 39.67C299.68 38.43 300.36 37.75 301.92 36.67C306 33.91 309.64 30.75 312.88 27.07L304.52 27.19C303.32 27.19 301.36 27.11 301.36 24.03C301.36 22.11 302.44 21.11 304.36 21.07L316 20.87L315.92 15.63C315.92 14.47 316.08 12.55 319.16 12.55C321.12 12.55 322.24 13.51 322.28 15.55L322.36 20.75L329.2 20.63C330.2 20.63 332.36 20.79 332.36 23.75C332.36 25.67 331.28 26.71 329.36 26.75L322.44 26.87L322.64 39.7901C322.64 40.9901 322.6 43.19 321.6 44.59C320.72 45.79 318.84 46.2701 316.76 46.2701C314.2 46.2701 312.08 45.99 312.08 42.87C312.08 41.47 312.88 40.07 314.44 40.07C314.68 40.07 315.04 40.15 315.24 40.15H315.44C316.16 40.15 316.28 39.95 316.28 38.91L316.2 32.35C313.64 35.35 310.84 38.11 307.72 40.51Z" fill="#E75297"/>
<path d="M369.47 26.4C371.43 26.4 372.71 27.72 372.71 29.64C372.71 31.56 371.43 32.92 369.47 32.92H341.55C339.59 32.92 338.31 31.6 338.31 29.64C338.31 27.68 339.55 26.4 341.55 26.4H369.47Z" fill="#E75297"/>
<path d="M381.39 23.44C379.47 23.44 378.35 22.2 378.35 20.28C378.35 18.36 379.43 17.12 381.39 17.12H399.95C403.55 17.12 405.67 18.28 405.67 22.24C405.67 24.68 404.87 27.04 403.75 29.28C401.59 33.6 398.51 37.4 394.75 40.44C392.47 42.28 386.39 46.16 383.51 46.16C381.63 46.16 380.19 44.4 380.19 42.6C380.19 40.56 382.15 40.08 383.71 39.44C388.11 37.68 392.07 34.72 395.07 31.04C396.15 29.68 398.83 25.88 398.83 24.16C398.83 23.56 398.43 23.44 397.91 23.44H381.39ZM411.71 14.28C411.71 16.6 409.75 18.52 407.43 18.52C405.11 18.52 403.19 16.6 403.19 14.28C403.19 11.96 405.11 10 407.43 10C409.95 10 411.71 11.96 411.71 14.28ZM405.51 14.28C405.51 15.32 406.39 16.2 407.43 16.2C408.47 16.2 409.39 15.32 409.39 14.28C409.39 13.24 408.51 12.32 407.43 12.32C406.35 12.32 405.51 13.2 405.51 14.28Z" fill="#E75297"/>
<path d="M448.34 22.84C448.34 23.76 447.94 24.52 447.46 25.24C444.62 29.32 441.1 33 437.3 36.16C433.34 39.48 428.9 42.44 424.14 44.44C422.38 45.16 421.86 45.28 421.22 45.28C419.22 45.28 417.74 43.28 417.74 41.4C417.74 39.52 418.9 39.16 420.82 38.4C428.98 35.2 436.5 29 441.62 21.96C442.58 20.64 443.46 19.52 444.86 19.52C446.66 19.52 448.34 21 448.34 22.84ZM426.71 19C427.95 19.84 429.39 20.88 429.39 22.56C429.39 24.24 427.95 26.28 426.07 26.28C425.27 26.28 424.63 25.84 423.39 24.96C422.39 24.28 421.39 23.6 420.31 22.92C418.67 21.92 417.87 21.4 417.87 20C417.87 18.08 419.47 16.4 421.35 16.4C422.75 16.4 424.71 17.6 426.71 19Z" fill="#E75297"/>
<path d="M465.4 15.64C465.36 15.32 465.32 15 465.32 14.72C465.32 12.68 466.76 11.8 469 11.8C470.8 11.8 471.64 12.84 471.92 14.48L472.64 18.8L478.88 17.84C479.16 17.8 479.44 17.76 479.68 17.76C481.56 17.8 482.64 19 482.64 21.04C482.64 22.84 481.56 23.72 479.92 23.96L473.64 24.92L474.2 28.2801L483.12 26.96C483.4 26.92 483.64 26.88 483.92 26.88C485.72 26.92 486.88 28.12 486.88 30.16C486.88 31.96 485.92 32.8401 484.12 33.1201L475.2 34.4401L476.68 43.3601C476.76 43.8401 476.84 44.52 476.84 44.8C476.84 46.8 475.56 47.7201 473.24 47.7201C471.32 47.7201 470.56 46.8 470.24 44.96L468.64 35.4L458.52 36.88C458.28 36.92 458.04 36.96 457.8 36.96C455.92 36.96 454.8 35.72 454.8 33.64C454.8 31.88 455.88 30.96 457.52 30.72L467.64 29.24L467.08 25.88L460.36 26.88C460.12 26.92 459.88 26.96 459.64 26.96C457.76 26.96 456.6 25.76 456.6 23.68C456.6 21.92 457.68 21.04 459.32 20.8L466.08 19.76L465.4 15.64Z" fill="#E75297"/>
<path d="M512.85 45.75C512.89 45.99 512.89 46.19 512.89 46.43C512.89 48.11 511.45 49.07 509.89 49.07C508.53 49.07 507.61 48.35 507.33 46.95L504.77 34.15L498.77 35.31C498.57 35.35 498.33 35.35 498.09 35.35C496.49 35.35 495.61 34.15 495.61 32.59C495.61 31.27 496.29 30.31 497.73 30.07L503.73 28.99L502.73 23.75C502.69 23.51 502.65 23.27 502.65 23.03C502.65 21.35 503.97 20.47 505.69 20.47C507.05 20.47 507.97 21.23 508.25 22.55L509.33 27.95L518.73 26.23C519.09 26.15 519.29 26.15 519.57 26.15C521.17 26.15 522.61 27.27 522.61 28.95C522.61 30.51 520.57 33.31 519.33 34.99C518.57 36.03 517.77 37.11 516.85 37.99C516.33 38.51 515.61 38.83 515.05 38.83C513.61 38.83 512.17 37.67 512.17 36.19C512.17 35.31 512.69 34.71 513.53 33.79C514.01 33.27 514.49 32.75 514.93 32.19L510.33 33.07L512.85 45.75Z" fill="#E75297"/>
<path d="M560.29 22.84C560.29 23.76 559.89 24.52 559.41 25.24C556.57 29.32 553.05 33 549.25 36.16C545.29 39.48 540.85 42.44 536.09 44.44C534.33 45.16 533.81 45.28 533.17 45.28C531.17 45.28 529.69 43.28 529.69 41.4C529.69 39.52 530.85 39.16 532.77 38.4C540.93 35.2 548.45 29 553.57 21.96C554.53 20.64 555.41 19.52 556.81 19.52C558.61 19.52 560.29 21 560.29 22.84ZM538.65 19C539.89 19.84 541.33 20.88 541.33 22.56C541.33 24.24 539.89 26.28 538.01 26.28C537.21 26.28 536.57 25.84 535.33 24.96C534.33 24.28 533.33 23.6 532.25 22.92C530.61 21.92 529.81 21.4 529.81 20C529.81 18.08 531.41 16.4 533.29 16.4C534.69 16.4 536.65 17.6 538.65 19Z" fill="#E75297"/>
<path d="M578.63 22.68C578.63 23.76 578.07 25.24 577.27 27.08C575.91 30.24 574.07 33.32 571.95 36.08C570.47 38.04 568.35 40.68 566.31 40.68C564.43 40.68 562.47 39.2 562.47 37.24C562.47 36.12 563.11 35.48 564.31 34.24C568.07 30.44 570.07 26.76 571.87 21.64C572.39 20.16 573.39 19.64 574.75 19.64C576.55 19.64 578.63 20.64 578.63 22.68ZM590.78 22.28C591.7 23.44 592.58 24.64 593.42 25.84C594.86 27.96 599.02 34.28 599.02 36.6C599.02 38.6 597.02 40.08 595.14 40.08C593.1 40.08 592.5 38.6 591.82 36.96C590.1 32.92 587.74 29.28 584.98 25.84C584.42 25.16 583.94 24.44 583.94 23.52C583.94 21.68 585.74 20.36 587.46 20.36C589.02 20.36 589.86 21.16 590.78 22.28ZM599.34 17C599.34 19.4 597.3 21.44 594.86 21.44C592.42 21.44 590.38 19.4 590.38 17C590.38 14.6 592.42 12.52 594.86 12.52C597.3 12.52 599.34 14.56 599.34 17ZM592.82 17C592.82 18.08 593.74 19.04 594.86 19.04C595.98 19.04 596.9 18.08 596.9 17C596.9 15.92 595.98 14.92 594.86 14.92C593.74 14.92 592.82 15.88 592.82 17Z" fill="#E75297"/>
<path d="M633.63 35.56C635.23 37.2 636.31 38.36 636.31 39.8C636.31 41.68 634.63 43.4 632.75 43.4C631.47 43.4 630.67 42.6 629.67 41.36C627.67 38.92 625.55 36.68 623.11 34.72C620.39 37.24 617.39 39.48 614.15 41.28C612.71 42.08 610.15 43.52 608.71 43.52C606.83 43.52 605.35 41.84 605.35 40C605.35 38.28 606.59 37.68 607.99 37.08C614.79 34.12 620.51 29.28 624.55 23.04H612.83C610.79 23.04 609.63 22.04 609.63 19.96C609.63 17.88 610.79 16.88 612.83 16.88H628.47C630.75 16.88 632.75 17.72 632.75 20.32C632.75 22.92 629.03 27.92 627.47 29.96C629.67 31.68 631.71 33.56 633.63 35.56Z" fill="#E75297"/>
<defs>
<linearGradient id="paint0_linear_410_7176" x1="5.6149" y1="38.2672" x2="30.7698" y2="12.8101" gradientUnits="userSpaceOnUse">
<stop stop-color="#CAEDC2"/>
<stop offset="1" stop-color="#BDE3FF"/>
</linearGradient>
<linearGradient id="paint1_linear_410_7176" x1="720.485" y1="49.5127" x2="748.003" y2="22.1395" gradientUnits="userSpaceOnUse">
<stop stop-color="#BDE3FF"/>
<stop offset="1" stop-color="#D6D0F7"/>
</linearGradient>
<linearGradient id="paint2_linear_410_7176" x1="678.905" y1="57.9857" x2="711.003" y2="6.17198" gradientUnits="userSpaceOnUse">
<stop stop-color="#CAEDC2"/>
<stop offset="1" stop-color="#FFEDA6"/>
</linearGradient>
<linearGradient id="paint3_linear_410_7176" x1="41.2635" y1="9.81756" x2="69.2329" y2="48.6479" gradientUnits="userSpaceOnUse">
<stop stop-color="#FFD2A6"/>
<stop offset="1" stop-color="#FFC4CE"/>
</linearGradient>
</defs>
</svg>
