<svg width="350" height="59" viewBox="0 0 350 59" fill="none" xmlns="http://www.w3.org/2000/svg">
<path d="M324.607 32.9876L321.274 36.4988L320 35.8117L324.607 32.9897V32.9876ZM334.12 27.1573L328.4 30.6619L322.324 37.0644L323.907 37.9184L334.122 27.1573H334.12ZM343.633 21.327L337.913 24.8316L324.954 38.4841L326.537 39.338L343.633 21.327ZM329.17 40.7577L349.109 19.7513L349.061 18L347.428 19.0013L327.587 39.9037L329.17 40.7577ZM349.222 23.826L349.154 21.3768L330.22 41.3256L331.802 42.1795L349.222 23.826ZM349.333 27.8985L349.265 25.4494L332.85 42.743L334.433 43.597L349.335 27.8985H349.333ZM349.446 31.9732L349.378 29.5241L335.483 44.1648L337.065 45.0188L349.448 31.9732H349.446ZM349.559 36.0458L349.491 33.5966L338.113 45.5823L339.696 46.4363L349.559 36.0458ZM349.672 40.1205L349.604 37.6713L340.746 47.0041L342.328 47.8581L349.672 40.1205ZM349.785 44.193L349.717 41.7439L343.378 48.4238L344.961 49.2777L349.787 44.1952L349.785 44.193ZM349.896 48.2677L349.828 45.8186L346.009 49.8434L347.591 50.6974L349.898 48.2677H349.896ZM350 51.9978L349.941 49.8933L348.639 51.2653L350 52V51.9978Z" fill="url(#paint0_linear_80_17027)" fill-opacity="0.8"/>
<path d="M286.647 38.3605C287.717 38.7501 288.266 39.9214 287.878 40.9759C287.484 42.0321 286.297 42.5751 285.229 42.1921C284.16 41.8025 283.61 40.6312 283.998 39.5767C284.393 38.5204 285.579 37.9775 286.647 38.3605ZM290.565 41.954C290.17 43.0102 290.722 44.1882 291.796 44.5694C292.866 44.959 294.059 44.4143 294.445 43.3532C294.84 42.2969 294.289 41.1189 293.214 40.7377C292.144 40.3481 290.951 40.8928 290.565 41.954ZM286.404 33.0858C286.01 34.1421 286.561 35.3201 287.636 35.7013C288.706 36.0909 289.899 35.5462 290.285 34.485C290.68 33.4288 290.128 32.2508 289.054 31.8696C287.984 31.4799 286.791 32.0247 286.404 33.0858ZM288.811 26.595C288.416 27.6513 288.968 28.8293 290.043 29.2104C291.112 29.6001 292.306 29.0554 292.692 27.9942C293.087 26.9379 292.535 25.7599 291.46 25.3787C290.39 24.9891 289.197 25.5339 288.811 26.595ZM292.978 35.4613C292.584 36.5176 293.135 37.6956 294.21 38.0768C295.28 38.4664 296.473 37.9217 296.859 36.8605C297.254 35.8043 296.702 34.6262 295.627 34.2451C294.558 33.8554 293.364 34.4002 292.978 35.4613ZM295.385 28.9705C294.99 30.0268 295.542 31.2048 296.616 31.5859C297.686 31.9756 298.879 31.4309 299.266 30.3697C299.66 29.3134 299.109 28.1354 298.034 27.7542C296.964 27.3646 295.771 27.9093 295.385 28.9705ZM297.139 44.3295C296.744 45.3857 297.295 46.5637 298.37 46.9449C299.44 47.3345 300.633 46.7898 301.019 45.7287C301.405 44.6675 300.862 43.4944 299.788 43.1132C298.718 42.7236 297.525 43.2683 297.139 44.3295ZM299.552 37.8368C299.157 38.8931 299.709 40.0711 300.784 40.4523C301.853 40.8419 303.046 40.2972 303.433 39.236C303.827 38.1798 303.276 37.0017 302.201 36.6206C301.131 36.2309 299.938 36.7757 299.552 37.8368ZM301.96 31.3527C301.566 32.409 302.117 33.5869 303.192 33.9681C304.262 34.3577 305.455 33.813 305.841 32.7518C306.236 31.6956 305.684 30.5176 304.61 30.1364C303.54 29.7468 302.347 30.2915 301.96 31.3527ZM291.225 20.1024C290.83 21.1587 291.381 22.3366 292.456 22.7178C293.526 23.1075 294.719 22.5627 295.105 21.5016C295.5 20.4453 294.948 19.2673 293.874 18.8861C292.804 18.4965 291.611 19.0412 291.225 20.1024ZM297.798 22.4779C297.404 23.5341 297.955 24.7121 299.03 25.0933C300.1 25.4829 301.293 24.9382 301.679 23.877C302.074 22.8208 301.522 21.6428 300.447 21.2616C299.378 20.872 298.185 21.4167 297.798 22.4779ZM293.631 13.6116C293.237 14.6678 293.788 15.8458 294.863 16.227C295.933 16.6166 297.126 16.0719 297.512 15.0107C297.907 13.9545 297.355 12.7765 296.28 12.3953C295.211 12.0056 294.017 12.5504 293.631 13.6116ZM296.038 7.12068C295.643 8.17695 296.195 9.35498 297.27 9.73615C298.339 10.1258 299.532 9.58105 299.919 8.51989C300.313 7.46362 299.762 6.28563 298.687 5.90446C297.617 5.51482 296.424 6.05952 296.038 7.12068ZM300.205 15.987C299.81 17.0433 300.362 18.2213 301.437 18.6025C302.506 18.9921 303.7 18.4474 304.086 17.3862C304.48 16.3299 303.929 15.1519 302.854 14.7708C301.784 14.3811 300.591 14.9259 300.205 15.987ZM302.612 9.49616C302.217 10.5524 302.769 11.7305 303.843 12.1116C304.913 12.5013 306.106 11.9565 306.492 10.8954C306.879 9.83422 306.336 8.66111 305.261 8.27994C304.191 7.8903 302.998 8.43501 302.612 9.49616ZM304.374 24.8601C303.979 25.9163 304.531 27.0943 305.605 27.4755C306.675 27.8651 307.868 27.3204 308.255 26.2592C308.649 25.2029 308.098 24.025 307.023 23.6438C305.953 23.2542 304.76 23.7989 304.374 24.8601ZM306.781 18.3692C306.386 19.4255 306.937 20.6035 308.012 20.9847C309.082 21.3743 310.275 20.8295 310.661 19.7684C311.056 18.7121 310.504 17.5341 309.43 17.153C308.36 16.7633 307.167 17.308 306.781 18.3692ZM309.187 11.8784C308.793 12.9346 309.344 14.1127 310.419 14.4938C311.489 14.8835 312.682 14.3387 313.068 13.2775C313.463 12.2213 312.911 11.0433 311.836 10.6621C310.767 10.2725 309.573 10.8172 309.187 11.8784ZM303.714 46.7116C303.319 47.7679 303.871 48.9459 304.946 49.3271C306.015 49.7167 307.209 49.172 307.595 48.1108C307.99 47.0546 307.438 45.8765 306.363 45.4954C305.293 45.1057 304.1 45.6505 303.714 46.7116ZM310.288 49.0871C309.893 50.1434 310.445 51.3214 311.519 51.7026C312.589 52.0922 313.782 51.5475 314.169 50.4863C314.563 49.4301 314.012 48.252 312.937 47.8709C311.867 47.4812 310.674 48.026 310.288 49.0871ZM306.128 40.219C305.733 41.2753 306.284 42.4533 307.359 42.8344C308.429 43.2241 309.622 42.6794 310.008 41.6182C310.403 40.5619 309.851 39.3839 308.777 39.0027C307.707 38.6131 306.514 39.1579 306.128 40.219ZM308.534 33.7282C308.14 34.7844 308.691 35.9624 309.766 36.3436C310.836 36.7332 312.029 36.1885 312.415 35.1273C312.81 34.0711 312.258 32.8931 311.183 32.5119C310.114 32.1223 308.92 32.667 308.534 33.7282ZM312.701 42.5945C312.307 43.6508 312.858 44.8288 313.933 45.2099C315.003 45.5996 316.196 45.0549 316.582 43.9937C316.977 42.9374 316.425 41.7594 315.35 41.3782C314.281 40.9886 313.087 41.5334 312.701 42.5945ZM315.108 36.1037C314.713 37.16 315.265 38.3379 316.34 38.7191C317.409 39.1087 318.603 38.564 318.989 37.5028C319.375 36.4417 318.832 35.2686 317.757 34.8874C316.687 34.4978 315.494 35.0425 315.108 36.1037ZM316.863 51.4693C316.469 52.5256 317.02 53.7036 318.095 54.0847C319.165 54.4744 320.358 53.9297 320.744 52.8685C321.139 51.8122 320.587 50.6342 319.513 50.253C318.443 49.8634 317.25 50.4081 316.863 51.4693ZM319.277 44.9767C318.882 46.033 319.434 47.2109 320.508 47.5921C321.578 47.9818 322.771 47.437 323.158 46.3759C323.552 45.3196 323.001 44.1416 321.926 43.7604C320.856 43.3708 319.663 43.9155 319.277 44.9767ZM321.684 38.4859C321.289 39.5421 321.84 40.7201 322.915 41.1013C323.985 41.4909 325.178 40.9462 325.564 39.885C325.959 38.8288 325.407 37.6508 324.333 37.2696C323.263 36.8799 322.07 37.4247 321.684 38.4859ZM310.941 27.2373C310.546 28.2936 311.098 29.4716 312.172 29.8528C313.242 30.2424 314.435 29.6977 314.822 28.6365C315.216 27.5802 314.665 26.4022 313.59 26.0211C312.52 25.6314 311.327 26.1762 310.941 27.2373ZM317.515 29.6128C317.12 30.6691 317.672 31.8471 318.746 32.2283C319.816 32.6179 321.009 32.0732 321.395 31.012C321.782 29.9508 321.239 28.7777 320.164 28.3966C319.094 28.0069 317.901 28.5517 317.515 29.6128ZM313.354 20.7447C312.96 21.8009 313.511 22.979 314.586 23.3601C315.656 23.7498 316.849 23.205 317.235 22.1439C317.63 21.0876 317.078 19.9096 316.004 19.5284C314.934 19.1388 313.741 19.6835 313.354 20.7447ZM315.761 14.2538C315.366 15.3101 315.918 16.4881 316.993 16.8693C318.062 17.259 319.256 16.7142 319.642 15.6531C320.028 14.5919 319.485 13.4188 318.41 13.0376C317.34 12.648 316.147 13.1927 315.761 14.2538ZM319.928 23.1202C319.533 24.1765 320.085 25.3545 321.16 25.7356C322.23 26.1253 323.423 25.5805 323.809 24.5194C324.204 23.4631 323.652 22.2851 322.577 21.904C321.507 21.5143 320.314 22.059 319.928 23.1202ZM322.337 16.636C321.942 17.6923 322.494 18.8703 323.568 19.2514C324.638 19.6411 325.831 19.0964 326.217 18.0352C326.612 16.9789 326.06 15.801 324.986 15.4198C323.916 15.0302 322.723 15.5749 322.337 16.636ZM324.09 31.995C323.696 33.0512 324.247 34.2293 325.322 34.6104C326.392 35.0001 327.585 34.4553 327.971 33.3942C328.366 32.3379 327.814 31.1599 326.739 30.7788C325.67 30.3891 324.476 30.9338 324.09 31.995ZM326.504 25.5024C326.109 26.5586 326.661 27.7367 327.735 28.1178C328.805 28.5075 329.998 27.9627 330.384 26.9016C330.779 25.8453 330.228 24.6673 329.153 24.2861C328.083 23.8965 326.89 24.4412 326.504 25.5024ZM328.91 19.0115C328.516 20.0678 329.067 21.2458 330.142 21.6269C331.212 22.0166 332.405 21.4719 332.791 20.4107C333.186 19.3545 332.634 18.1765 331.56 17.7953C330.485 17.4141 329.297 17.9504 328.91 19.0115Z" fill="url(#paint1_linear_80_17027)"/>
<path d="M8.75581 41.4094C6.05518 40.0646 3.90502 38.0189 2.40508 35.5847L17.1274 42.9103C14.3492 43.2151 11.4564 42.7503 8.75581 41.4056V41.4094ZM0.0960533 28.9257C0.225359 30.019 0.465496 31.0933 0.805384 32.1333L20.7406 42.057C21.7418 41.6875 22.706 41.2113 23.6185 40.636L0.0960533 28.9295V28.9257ZM0.35097 23.5429C0.15886 24.4343 0.0443332 25.3295 0 26.221L25.7317 39.0285C26.3857 38.438 26.9915 37.7866 27.5494 37.078L0.35097 23.5391V23.5429ZM29.9693 32.7771L2.11691 18.9144C1.91002 19.2801 1.71422 19.661 1.5295 20.0496C1.34847 20.4382 1.18222 20.8343 1.03444 21.2305L28.8868 35.0932C29.0937 34.7275 29.2895 34.3466 29.4742 33.958C29.6552 33.5695 29.8215 33.1733 29.9693 32.7771ZM5.26826 14.9754C4.61435 15.5658 4.00846 16.2173 3.4506 16.9258L30.649 30.4647C30.8411 29.5733 30.9557 28.6781 31 27.7867L5.26826 14.9792V14.9754ZM10.2557 11.9468C9.25456 12.3163 8.29031 12.7925 7.37779 13.3677L30.9003 25.0743C30.771 23.981 30.5308 22.9067 30.1909 21.8667L10.2557 11.943V11.9468ZM13.8726 11.0935L28.5912 18.4191C27.095 15.9849 24.9448 13.9392 22.2405 12.5944C19.5399 11.2497 16.6471 10.7849 13.8689 11.0897L13.8726 11.0935Z" fill="url(#paint2_linear_80_17027)"/>
<path d="M47.9492 9.15063C47.2185 9.88513 46.0231 9.89797 45.2785 9.18249C44.535 8.46077 44.5221 7.27995 45.2465 6.54443C45.9773 5.80993 47.1727 5.79717 47.9172 6.51265C48.6608 7.23436 48.6736 8.41511 47.9492 9.15063ZM43.4439 11.0271C42.7003 10.3053 41.4986 10.3171 40.7732 11.0588C40.0425 11.7933 40.0543 12.9803 40.8052 13.6968C41.5487 14.4185 42.7504 14.4068 43.4759 13.665C44.2066 12.9305 44.1948 11.7436 43.4439 11.0271ZM52.4936 10.9319C51.7501 10.2102 50.5483 10.2219 49.8229 10.9637C49.0922 11.6982 49.104 12.8853 49.8549 13.6017C50.5984 14.3235 51.8002 14.3116 52.5256 13.5699C53.2564 12.8354 53.2445 11.6484 52.4936 10.9319ZM57.07 15.3512C56.3264 14.6295 55.1247 14.6412 54.3993 15.383C53.6686 16.1175 53.6803 17.3045 54.4312 18.021C55.1748 18.7427 56.3766 18.7309 57.102 17.9892C57.8327 17.2547 57.8209 16.0677 57.07 15.3512ZM48.0192 15.4526C47.2757 14.7309 46.0739 14.7426 45.3485 15.4844C44.6178 16.2189 44.6296 17.4058 45.3805 18.1223C46.124 18.8441 47.3258 18.8323 48.0512 18.0906C48.782 17.3561 48.7701 16.1691 48.0192 15.4526ZM52.5956 19.8718C51.852 19.1501 50.6503 19.1619 49.9249 19.9036C49.1941 20.6381 49.206 21.8251 49.9569 22.5416C50.7004 23.2633 51.9022 23.2516 52.6276 22.5098C53.3583 21.7753 53.3465 20.5883 52.5956 19.8718ZM38.9695 15.5476C38.2259 14.8259 37.0242 14.8378 36.2988 15.5795C35.568 16.314 35.5799 17.501 36.3308 18.2175C37.0817 18.934 38.276 18.9274 39.0015 18.1856C39.7322 17.4511 39.7204 16.2641 38.9695 15.5476ZM43.5448 19.9732C42.8013 19.2514 41.5995 19.2633 40.8741 20.005C40.1434 20.7395 40.1552 21.9265 40.9061 22.643C41.6496 23.3647 42.8514 23.3529 43.5768 22.6111C44.3076 21.8766 44.2957 20.6896 43.5448 19.9732ZM48.1149 24.3914C47.3713 23.6697 46.1696 23.6815 45.4441 24.4233C44.7134 25.1578 44.7253 26.3448 45.4762 27.0612C46.2197 27.783 47.4214 27.7711 48.1469 27.0294C48.8776 26.2949 48.8658 25.1079 48.1149 24.3914ZM61.6453 19.7767C60.9018 19.055 59.7 19.0667 58.9746 19.8085C58.2439 20.543 58.2557 21.73 59.0066 22.4464C59.7502 23.1682 60.9519 23.1564 61.6773 22.4147C62.4081 21.6802 62.3962 20.4932 61.6453 19.7767ZM57.1709 24.2973C56.4273 23.5756 55.2256 23.5874 54.5002 24.3291C53.7695 25.0636 53.7813 26.2506 54.5322 26.9671C55.2758 27.6888 56.4775 27.6771 57.2029 26.9353C57.9337 26.2008 57.9218 25.0138 57.1709 24.2973ZM66.2217 24.1959C65.4781 23.4742 64.2764 23.486 63.551 24.2277C62.8203 24.9622 62.8321 26.1492 63.583 26.8657C64.3266 27.5874 65.5283 27.5757 66.2537 26.8339C66.9844 26.0994 66.9726 24.9124 66.2217 24.1959ZM70.7981 28.6152C70.0545 27.8935 68.8528 27.9052 68.1273 28.647C67.3966 29.3815 67.4085 30.5685 68.1594 31.285C68.9029 32.0067 70.1046 31.9949 70.8301 31.2532C71.5608 30.5187 71.549 29.3317 70.7981 28.6152ZM61.7473 28.7166C61.0037 27.9949 59.802 28.0066 59.0766 28.7484C58.3458 29.4829 58.3577 30.6699 59.1086 31.3864C59.8522 32.1081 61.0539 32.0963 61.7793 31.3546C62.51 30.6201 62.4982 29.4331 61.7473 28.7166ZM66.3237 33.1359C65.5801 32.4141 64.3784 32.4259 63.6529 33.1676C62.9222 33.9021 62.9341 35.0891 63.685 35.8056C64.4359 36.5221 65.6302 36.5156 66.3557 35.7738C67.0864 35.0393 67.0746 33.8524 66.3237 33.1359ZM52.6902 28.8169C51.9466 28.0952 50.7449 28.1069 50.0195 28.8487C49.2888 29.5832 49.3006 30.7703 50.0515 31.4868C50.7951 32.2085 51.9968 32.1966 52.7222 31.4549C53.4529 30.7204 53.4411 29.5334 52.6902 28.8169ZM57.2666 33.2362C56.523 32.5145 55.3213 32.5262 54.5959 33.2679C53.8651 34.0024 53.877 35.1895 54.6279 35.906C55.3714 36.6277 56.5731 36.6159 57.2986 35.8742C58.0293 35.1397 58.0175 33.9527 57.2666 33.2362ZM61.843 37.6554C61.0994 36.9337 59.8977 36.9455 59.1722 37.6872C58.4415 38.4217 58.4533 39.6088 59.2042 40.3253C59.9478 41.047 61.1495 41.0352 61.8749 40.2934C62.6057 39.5589 62.5939 38.3719 61.843 37.6554ZM34.4888 20.0673C33.7452 19.3456 32.5435 19.3573 31.8181 20.0991C31.0873 20.8336 31.0991 22.0206 31.85 22.7371C32.5936 23.4588 33.7953 23.447 34.5208 22.7053C35.2515 21.9708 35.2397 20.7838 34.4888 20.0673ZM30.0144 24.5879C29.2708 23.8662 28.0691 23.878 27.3437 24.6197C26.6129 25.3542 26.6247 26.5412 27.3756 27.2577C28.1192 27.9794 29.3209 27.9677 30.0464 27.2259C30.7771 26.4914 30.7653 25.3044 30.0144 24.5879ZM39.0641 24.4928C38.3205 23.7711 37.1188 23.7828 36.3934 24.5246C35.6627 25.2591 35.6745 26.4461 36.4254 27.1626C37.1689 27.8843 38.3707 27.8725 39.0961 27.1308C39.8268 26.3963 39.815 25.2093 39.0641 24.4928ZM43.6405 28.9121C42.8969 28.1903 41.6952 28.2021 40.9698 28.9438C40.239 29.6783 40.2509 30.8653 41.0018 31.5818C41.7453 32.3035 42.947 32.2918 43.6725 31.55C44.4032 30.8155 44.3914 29.6285 43.6405 28.9121ZM34.5897 29.0134C33.8461 28.2917 32.6444 28.3035 31.919 29.0452C31.1883 29.7797 31.2001 30.9667 31.951 31.6832C32.6945 32.4049 33.8963 32.3932 34.6217 31.6514C35.3524 30.9169 35.3406 29.7299 34.5897 29.0134ZM39.1661 33.4326C38.4225 32.7109 37.2208 32.7227 36.4953 33.4645C35.7646 34.199 35.7765 35.386 36.5274 36.1025C37.2783 36.819 38.4726 36.8125 39.1981 36.0707C39.9288 35.3362 39.917 34.1491 39.1661 33.4326ZM25.5336 29.1075C24.7901 28.3858 23.5884 28.3975 22.8629 29.1393C22.1322 29.8738 22.144 31.0608 22.8949 31.7773C23.6385 32.499 24.8402 32.4873 25.5657 31.7455C26.2964 31.011 26.2845 29.824 25.5336 29.1075ZM30.109 33.533C29.3654 32.8113 28.1637 32.8231 27.4383 33.5648C26.7076 34.2993 26.7194 35.4863 27.4703 36.2028C28.2139 36.9245 29.4156 36.9128 30.141 36.171C30.8717 35.4365 30.8599 34.2495 30.109 33.533ZM34.6853 37.9523C33.9418 37.2306 32.7401 37.2423 32.0146 37.9841C31.2839 38.7186 31.2958 39.9056 32.0467 40.6221C32.7902 41.3438 33.9919 41.332 34.7174 40.5903C35.4481 39.8558 35.4362 38.6688 34.6853 37.9523ZM48.2168 33.3313C47.4733 32.6096 46.2715 32.6213 45.5461 33.3631C44.8154 34.0976 44.8272 35.2846 45.5781 36.0011C46.3217 36.7228 47.5234 36.7111 48.2488 35.9693C48.9796 35.2348 48.9677 34.0478 48.2168 33.3313ZM43.7424 37.8519C42.9989 37.1302 41.7971 37.142 41.0717 37.8838C40.341 38.6183 40.3528 39.8053 41.1037 40.5217C41.8546 41.2382 43.049 41.2317 43.7744 40.49C44.5052 39.7555 44.4933 38.5684 43.7424 37.8519ZM52.7922 37.7568C52.0486 37.0351 50.8469 37.0469 50.1215 37.7886C49.3907 38.5231 49.4026 39.7101 50.1535 40.4266C50.897 41.1483 52.0987 41.1366 52.8242 40.3948C53.5549 39.6603 53.5431 38.4733 52.7922 37.7568ZM57.3686 42.1761C56.625 41.4544 55.4232 41.4661 54.6978 42.2079C53.9671 42.9424 53.9789 44.1294 54.7298 44.8459C55.4807 45.5623 56.6751 45.5558 57.4005 44.8141C58.1313 44.0796 58.1195 42.8926 57.3686 42.1761ZM48.3178 42.2774C47.5742 41.5557 46.3725 41.5675 45.647 42.3093C44.9163 43.0438 44.9282 44.2308 45.6791 44.9473C46.4226 45.669 47.6244 45.6571 48.3498 44.9154C49.0805 44.1809 49.0687 42.9939 48.3178 42.2774ZM52.8878 46.6957C52.1443 45.9739 50.9426 45.9858 50.2171 46.7275C49.4864 47.462 49.4982 48.649 50.2491 49.3655C50.9927 50.0872 52.1944 50.0754 52.9198 49.3336C53.6505 48.5991 53.6387 47.4121 52.8878 46.6957ZM39.2617 42.3715C38.5182 41.6498 37.3164 41.6616 36.591 42.4033C35.8603 43.1378 35.8721 44.3248 36.623 45.0413C37.3666 45.763 38.5683 45.7513 39.2937 45.0095C40.0244 44.275 40.0126 43.088 39.2617 42.3715ZM43.8371 46.7971C43.0935 46.0753 41.8918 46.0871 41.1663 46.8288C40.4356 47.5633 40.4475 48.7503 41.1984 49.4668C41.9419 50.1885 43.1436 50.1768 43.8691 49.435C44.5998 48.7005 44.588 47.5136 43.8371 46.7971ZM48.4134 51.2163C47.6699 50.4946 46.4682 50.5063 45.7427 51.2481C45.012 51.9826 45.0238 53.1696 45.7747 53.8861C46.5183 54.6078 47.72 54.5961 48.4454 53.8543C49.1709 53.1125 49.1643 51.9328 48.4134 51.2163Z" fill="url(#paint3_linear_80_17027)"/>
<path d="M110.107 15.2917C111.332 15.2917 111.828 15.6949 112.236 16.8754C112.527 17.7104 112.79 18.3726 113.723 18.8046C114.685 19.2652 116.085 19.3228 117.134 19.3228C119.233 19.3228 121.274 18.9485 123.315 18.5454C123.753 18.459 124.19 18.3726 124.627 18.3726C126.085 18.3726 126.756 19.582 126.756 20.9065C126.756 22.3749 125.998 23.0084 124.627 23.3251C122.412 23.8146 119.408 24.0162 117.134 24.0162C114.189 24.0162 110.953 23.6131 109.029 21.1368C108.241 20.1003 107.658 18.7182 107.658 17.3937C107.658 16.0692 108.824 15.2917 110.107 15.2917ZM112.265 3.34247C112.731 3.34247 113.169 3.42885 113.635 3.51523C114.977 3.74558 116.347 3.86075 117.717 3.86075C118.854 3.86075 119.933 3.80316 121.129 3.6304C121.449 3.57282 121.799 3.54402 122.149 3.54402C123.694 3.54402 124.394 4.523 124.394 5.99147C124.394 7.34476 123.84 8.06459 122.47 8.32374C121.012 8.61167 119.583 8.61167 118.155 8.61167C116.318 8.61167 113.723 8.55408 111.973 8.12218C110.661 7.80545 110.107 7.02803 110.107 5.70353C110.107 4.37903 110.836 3.34247 112.265 3.34247Z" fill="#E9545D"/>
<path d="M150.256 4.72491C152.939 4.72491 154.222 6.62528 154.222 9.10152C154.222 10.426 153.872 12.7583 153.58 14.5435C153.405 15.6952 153.055 17.4228 153.055 18.5746C153.055 18.8337 153.143 19.1216 153.463 19.1216C153.755 19.1216 154.076 18.9489 154.63 18.5746C155.184 18.2002 155.738 17.8259 156.437 17.8259C157.633 17.8259 158.478 19.0065 158.478 20.1294C158.478 21.2524 157.545 21.857 156.729 22.4329C155.504 23.2679 154.047 23.7862 152.589 23.7862C149.615 23.7862 148.478 21.8282 148.478 19.1504C148.478 16.9045 149.061 13.9388 149.44 11.7217C149.556 11.0595 149.673 10.3972 149.673 9.96532C149.673 9.59101 149.615 9.15911 149.148 9.15911C147.778 9.15911 143.638 13.219 142.646 14.3131C142.617 15.4073 142.617 16.4726 142.617 17.538C142.617 19.4384 142.646 21.3675 142.646 23.2679C142.646 24.8803 142.238 25.9169 140.401 25.9169C138.564 25.9169 138.098 25.0243 138.098 23.2391C138.098 22.4329 138.127 21.6555 138.127 20.8492C137.544 21.857 137.048 23.0951 135.678 23.0951C134.395 23.0951 133.258 22.1162 133.258 20.8205C133.258 20.043 133.637 19.496 134.307 18.5746C135.853 16.3863 137.194 14.0252 138.389 11.6065V11.2322C137.398 11.549 136.261 11.9809 135.211 11.9809C133.87 11.9809 133.258 10.8003 133.258 9.6198C133.258 7.83461 134.307 7.60426 135.999 7.37391C136.873 7.25874 137.719 7.05718 138.564 6.82684C138.623 5.47354 138.652 4.20663 138.768 2.73817C138.798 2.36385 138.885 1.93195 139.118 1.61522C139.527 1.03935 140.285 0.895386 140.984 0.895386C142.209 0.895386 143.2 1.50005 143.2 2.82455C143.2 3.8899 143.054 4.95526 142.996 6.02062C143.521 6.33735 143.842 6.91322 143.842 7.51788C143.842 7.69064 143.813 7.83461 143.783 7.97857C145.533 6.42373 147.749 4.72491 150.256 4.72491Z" fill="#E9545D"/>
<path d="M168.523 21.1872C168.085 21.8782 167.619 22.6269 167.036 23.2315C166.628 23.6634 166.132 23.865 165.578 23.865C164.295 23.865 163.012 22.886 163.012 21.5615C163.012 20.9568 163.304 20.4674 163.654 19.9779C165.491 17.5592 166.919 14.9102 168.027 12.1173C167.152 12.2612 166.249 12.5204 165.345 12.5204C164.033 12.5204 163.391 11.4838 163.391 10.2745C163.391 9.2955 163.887 8.46049 164.878 8.28773C166.424 7.9998 167.94 7.76945 169.456 7.59669C169.66 6.81926 169.747 6.12822 169.922 5.17804C170.039 4.51579 170.156 3.93992 170.331 3.24888C170.593 2.2699 171.555 1.92438 172.488 1.92438C173.713 1.92438 174.937 2.52904 174.937 3.85354C174.937 4.65975 174.646 5.89787 174.267 7.19358H174.471C175.929 7.19358 177.474 7.36634 178.582 8.4029C179.661 9.41067 180.04 10.8503 180.04 12.2612C180.04 14.8526 179.457 18.3078 178.436 20.6689C177.474 22.886 176.074 23.9802 173.596 23.9802C172.022 23.9802 169.689 23.6922 169.689 21.6767C169.689 20.5825 170.214 19.258 171.526 19.258C171.993 19.258 172.751 19.5748 173.159 19.5748C174.004 19.5748 174.442 18.3078 174.762 17.1561C175.141 15.7452 175.55 13.9312 175.55 12.4628C175.55 11.4838 174.996 11.3398 174.121 11.3398C173.742 11.3398 173.392 11.3686 173.013 11.3974C171.876 14.795 170.418 18.1351 168.523 21.1872ZM185.696 16.098C184.238 16.098 183.859 15.1766 183.276 13.7081C182.693 12.2684 181.993 10.8575 181.031 9.61943C180.652 9.12994 180.244 8.61166 180.244 7.9782C180.244 6.6825 181.556 5.84748 182.751 5.84748C183.539 5.84748 184.151 6.2218 184.647 6.82646C185.113 7.37354 185.521 7.9782 185.929 8.61166C186.688 9.82098 188.291 12.3836 188.291 13.7945C188.291 15.2054 187.037 16.098 185.696 16.098Z" fill="#E9545D"/>
<path d="M205.465 10.8291C209.605 10.8291 212.725 13.6509 212.725 17.8259C212.725 20.9068 211.092 23.2967 208.235 24.5636C206.194 25.4562 203.861 25.8305 201.616 25.8305C201.033 25.8305 200.421 25.7729 199.925 25.485C199.109 25.0243 198.905 24.2469 198.905 23.4982C198.905 21.7418 200.013 21.4827 201.5 21.4827H201.762C204.24 21.4827 208.001 20.7629 208.001 17.6532C208.001 16.0119 206.835 14.8602 205.202 14.8602C203.92 14.8602 202.637 15.4937 201.587 16.1559C200.362 16.9333 199.371 17.9123 198.526 19.0928C198.088 19.7263 197.476 20.043 196.689 20.043C195.522 20.043 194.385 19.3808 194.385 18.1427C194.385 17.2213 194.735 15.7816 194.881 14.8314C195.231 12.7295 195.522 10.5988 195.785 8.46806C195.989 6.85563 196.193 5.84786 197.972 5.84786C199.05 5.84786 200.392 6.36614 200.392 7.57547C200.392 8.78479 199.838 11.549 199.604 12.8159C201.325 11.6066 203.307 10.8291 205.465 10.8291ZM200.566 0.549866C201.762 0.549866 204.24 1.7304 205.377 2.27747C206.427 2.76696 207.418 3.22766 207.418 4.52336C207.418 5.73269 206.573 6.94201 205.261 6.94201C204.532 6.94201 203.89 6.5677 203.278 6.22218C202.17 5.61751 201.004 5.15682 199.808 4.69612C199.05 4.40819 198.38 3.88991 198.38 3.0261C198.38 1.75919 199.167 0.549866 200.566 0.549866Z" fill="#E9545D"/>
<path d="M223.6 22.8646C219.985 22.8646 218.964 19.1214 218.964 16.2421C218.964 8.6694 225.175 2.91071 232.756 2.91071C239.024 2.91071 243.689 6.913 243.689 13.2476C243.689 17.7681 241.386 21.3961 237.391 23.5556C236.4 24.0739 235.059 24.7073 233.893 24.7073C232.522 24.7073 231.56 23.4404 231.56 22.1735C231.56 21.0218 232.085 20.6475 233.659 20.158C236.983 19.1214 238.995 16.6452 238.995 13.2476C238.995 10.1091 237.042 7.63283 233.863 7.08576C232.989 11.7215 229.548 22.8646 223.6 22.8646ZM225.408 10.4546C224.008 12.1534 223.192 14.3417 223.192 16.53C223.192 16.9331 223.192 18.1424 223.804 18.1424C224.125 18.1424 224.767 17.4802 225.291 16.7316C225.758 16.0405 226.166 15.2919 226.341 14.9752C227.624 12.6717 228.499 10.1667 229.169 7.60404C227.653 8.29508 226.458 9.15888 225.408 10.4546Z" fill="#E9545D"/>
<path d="M58.4841 51.9159C57.3469 52.7797 56.0349 53.7587 55.0436 53.7587C53.7607 53.7587 52.6235 52.5782 52.6235 51.3113C52.6235 50.4187 53.1192 49.9292 54.2563 49.1518C57.2303 47.165 59.8836 44.8903 62.2453 42.2413L56.1515 42.3277C55.2768 42.3277 53.8481 42.2701 53.8481 40.053C53.8481 38.6709 54.6354 37.9511 56.0349 37.9223L64.5195 37.7783L64.4612 34.0064C64.4612 33.1714 64.5778 31.7893 66.8229 31.7893C68.2516 31.7893 69.068 32.4803 69.0971 33.9488L69.1554 37.692L74.1413 37.6056C74.8702 37.6056 76.4447 37.7208 76.4447 39.8515C76.4447 41.2336 75.6574 41.9822 74.2579 42.011L69.2138 42.0974L69.3595 51.3976C69.3595 52.2614 69.3304 53.8451 68.6015 54.8529C67.96 55.7167 66.5896 56.0622 65.0735 56.0622C63.2075 56.0622 61.6622 55.8606 61.6622 53.6147C61.6622 52.607 62.2453 51.5992 63.3824 51.5992C63.5573 51.5992 63.8198 51.6568 63.9655 51.6568H64.1113C64.6361 51.6568 64.7236 51.5128 64.7236 50.7642L64.6653 46.0421C62.7993 48.2016 60.7583 50.1883 58.4841 51.9159Z" fill="#E9545D"/>
<path d="M103.495 41.7588C104.924 41.7588 105.857 42.709 105.857 44.0911C105.857 45.4731 104.924 46.4521 103.495 46.4521H83.1434C81.7148 46.4521 80.7817 45.5019 80.7817 44.0911C80.7817 42.6802 81.6856 41.7588 83.1434 41.7588H103.495Z" fill="#E9545D"/>
<path d="M112.184 39.628C110.784 39.628 109.968 38.7354 109.968 37.3533C109.968 35.9713 110.755 35.0787 112.184 35.0787H125.712C128.337 35.0787 129.882 35.9137 129.882 38.7642C129.882 40.5206 129.299 42.2194 128.482 43.8319C126.908 46.9416 124.663 49.6769 121.922 51.8652C120.26 53.1897 115.828 55.9827 113.729 55.9827C112.359 55.9827 111.309 54.7158 111.309 53.4201C111.309 51.9516 112.738 51.6061 113.875 51.1454C117.082 49.8785 119.969 47.7478 122.155 45.0988C122.943 44.1198 124.896 41.3844 124.896 40.1463C124.896 39.7144 124.604 39.628 124.225 39.628H112.184ZM134.285 33.0343C134.285 34.7043 132.856 36.0864 131.165 36.0864C129.474 36.0864 128.074 34.7043 128.074 33.0343C128.074 31.3643 129.474 29.9534 131.165 29.9534C133.002 29.9534 134.285 31.3643 134.285 33.0343ZM129.765 33.0343C129.765 33.783 130.407 34.4164 131.165 34.4164C131.923 34.4164 132.593 33.783 132.593 33.0343C132.593 32.2857 131.952 31.6235 131.165 31.6235C130.378 31.6235 129.765 32.2569 129.765 33.0343Z" fill="#E9545D"/>
<path d="M160.985 39.1961C160.985 39.8584 160.693 40.4054 160.343 40.9237C158.273 43.8606 155.707 46.5096 152.937 48.7843C150.051 51.1742 146.814 53.3049 143.345 54.7446C142.062 55.2629 141.683 55.3492 141.216 55.3492C139.758 55.3492 138.68 53.9096 138.68 52.5563C138.68 51.203 139.525 50.9438 140.925 50.3968C146.873 48.0933 152.354 43.6303 156.086 38.5627C156.786 37.6125 157.428 36.8063 158.448 36.8063C159.76 36.8063 160.985 37.8716 160.985 39.1961ZM145.218 36.4319C146.122 37.0366 147.172 37.7852 147.172 38.9946C147.172 40.2039 146.122 41.6723 144.752 41.6723C144.168 41.6723 143.702 41.3556 142.798 40.7222C142.069 40.2327 141.34 39.7432 140.553 39.2537C139.358 38.5339 138.774 38.1595 138.774 37.1518C138.774 35.7697 139.941 34.5604 141.311 34.5604C142.332 34.5604 143.76 35.4242 145.218 36.4319Z" fill="#E9545D"/>
<path d="M173.42 34.0134C173.391 33.783 173.362 33.5527 173.362 33.3511C173.362 31.8827 174.412 31.2492 176.045 31.2492C177.357 31.2492 177.969 31.9978 178.173 33.1784L178.698 36.2881L183.246 35.597C183.45 35.5682 183.654 35.5394 183.829 35.5394C185.2 35.5682 185.987 36.432 185.987 37.9005C185.987 39.1962 185.2 39.8297 184.004 40.0024L179.427 40.6935L179.835 43.1121L186.337 42.1619C186.541 42.1331 186.716 42.1043 186.92 42.1043C188.232 42.1331 189.078 42.9969 189.078 44.4654C189.078 45.7611 188.378 46.3946 187.066 46.5961L180.564 47.5463L181.643 53.9672C181.701 54.3128 181.759 54.8022 181.759 55.0038C181.759 56.4435 180.826 57.1057 179.135 57.1057C177.736 57.1057 177.182 56.4435 176.948 55.119L175.782 48.2373L168.405 49.3027C168.23 49.3315 168.056 49.3603 167.881 49.3603C166.51 49.3603 165.694 48.4677 165.694 46.9704C165.694 45.7035 166.481 45.0413 167.677 44.8685L175.053 43.8032L174.645 41.3845L169.747 42.1043C169.572 42.1331 169.397 42.1619 169.222 42.1619C167.851 42.1619 167.006 41.2981 167.006 39.8009C167.006 38.5339 167.793 37.9005 168.989 37.7277L173.916 36.9791L173.42 34.0134Z" fill="#E9545D"/>
<path d="M208.008 55.6878C208.037 55.8606 208.037 56.0045 208.037 56.1773C208.037 57.3866 206.987 58.0777 205.85 58.0777C204.859 58.0777 204.188 57.5594 203.984 56.5516L202.118 47.3377L197.744 48.1727C197.599 48.2015 197.424 48.2015 197.249 48.2015C196.082 48.2015 195.441 47.3377 195.441 46.2148C195.441 45.2646 195.937 44.5735 196.986 44.4008L201.36 43.6234L200.631 39.8514C200.602 39.6787 200.573 39.5059 200.573 39.3331C200.573 38.1238 201.535 37.4904 202.788 37.4904C203.78 37.4904 204.45 38.0374 204.654 38.9876L205.442 42.8747L212.294 41.6366C212.556 41.579 212.702 41.579 212.906 41.579C214.072 41.579 215.122 42.3852 215.122 43.5946C215.122 44.7175 213.635 46.7331 212.731 47.9424C212.177 48.691 211.594 49.4684 210.923 50.1019C210.544 50.4762 210.019 50.7066 209.611 50.7066C208.561 50.7066 207.512 49.8715 207.512 48.8062C207.512 48.1727 207.891 47.7408 208.503 47.0786C208.853 46.7043 209.203 46.3299 209.524 45.9268L206.171 46.5603L208.008 55.6878Z" fill="#E9545D"/>
<path d="M242.588 39.1961C242.588 39.8584 242.296 40.4054 241.946 40.9237C239.876 43.8606 237.31 46.5096 234.54 48.7843C231.654 51.1742 228.417 53.3049 224.948 54.7446C223.665 55.2629 223.286 55.3492 222.819 55.3492C221.362 55.3492 220.283 53.9096 220.283 52.5563C220.283 51.203 221.128 50.9438 222.528 50.3968C228.476 48.0933 233.957 43.6303 237.689 38.5627C238.389 37.6125 239.031 36.8063 240.051 36.8063C241.363 36.8063 242.588 37.8716 242.588 39.1961ZM226.814 36.4319C227.718 37.0366 228.767 37.7852 228.767 38.9946C228.767 40.2039 227.718 41.6723 226.347 41.6723C225.764 41.6723 225.298 41.3556 224.394 40.7222C223.665 40.2327 222.936 39.7432 222.149 39.2537C220.953 38.5339 220.37 38.1595 220.37 37.1518C220.37 35.7697 221.536 34.5604 222.907 34.5604C223.927 34.5604 225.356 35.4242 226.814 36.4319Z" fill="#E9545D"/>
<path d="M255.956 39.0807C255.956 39.8582 255.547 40.9235 254.964 42.248C253.973 44.5227 252.632 46.7398 251.086 48.7266C250.008 50.1374 248.462 52.0378 246.975 52.0378C245.605 52.0378 244.176 50.9724 244.176 49.5616C244.176 48.7553 244.643 48.2947 245.517 47.4021C248.258 44.6667 249.716 42.0177 251.028 38.3321C251.407 37.2668 252.136 36.8924 253.127 36.8924C254.439 36.8924 255.956 37.6123 255.956 39.0807ZM264.812 38.7928C265.483 39.6278 266.124 40.4916 266.736 41.3554C267.786 42.8815 270.818 47.4308 270.818 49.1009C270.818 50.5405 269.36 51.6059 267.99 51.6059C266.503 51.6059 266.066 50.5405 265.57 49.36C264.316 46.4519 262.596 43.8317 260.584 41.3554C260.176 40.8659 259.826 40.3477 259.826 39.6854C259.826 38.3609 261.138 37.4107 262.392 37.4107C263.529 37.4107 264.141 37.9866 264.812 38.7928ZM271.052 34.9921C271.052 36.7197 269.565 38.1882 267.786 38.1882C266.007 38.1882 264.52 36.7197 264.52 34.9921C264.52 33.2645 266.007 31.7672 267.786 31.7672C269.565 31.7672 271.052 33.2357 271.052 34.9921ZM266.299 34.9921C266.299 35.7695 266.97 36.4605 267.786 36.4605C268.602 36.4605 269.273 35.7695 269.273 34.9921C269.273 34.2147 268.602 33.4948 267.786 33.4948C266.97 33.4948 266.299 34.1859 266.299 34.9921Z" fill="#E9545D"/>
<path d="M296.046 48.3524C297.213 49.5329 298 50.3679 298 51.4045C298 52.7578 296.775 53.9959 295.405 53.9959C294.472 53.9959 293.889 53.42 293.16 52.5274C291.702 50.771 290.157 49.1586 288.378 47.7477C286.396 49.5617 284.209 51.1741 281.847 52.4698C280.797 53.0457 278.931 54.0823 277.882 54.0823C276.511 54.0823 275.433 52.8729 275.433 51.5484C275.433 50.3103 276.336 49.8784 277.357 49.4465C282.314 47.3158 286.483 43.8318 289.428 39.34H280.885C279.398 39.34 278.552 38.6202 278.552 37.1229C278.552 35.6257 279.398 34.9058 280.885 34.9058H292.285C293.947 34.9058 295.405 35.5105 295.405 37.3821C295.405 39.2536 292.693 42.8528 291.556 44.3213C293.16 45.5594 294.647 46.9127 296.046 48.3524Z" fill="#E9545D"/>
<defs>
<linearGradient id="paint0_linear_80_17027" x1="331.559" y1="47.3358" x2="354.949" y2="23.8728" gradientUnits="userSpaceOnUse">
<stop stop-color="#BDE3FF"/>
<stop offset="1" stop-color="#D6D0F7"/>
</linearGradient>
<linearGradient id="paint1_linear_80_17027" x1="295.879" y1="54.4105" x2="322.758" y2="10.4749" gradientUnits="userSpaceOnUse">
<stop stop-color="#CAEDC2"/>
<stop offset="1" stop-color="#FFEDA6"/>
</linearGradient>
<linearGradient id="paint2_linear_80_17027" x1="4.70437" y1="38.0418" x2="26.4572" y2="16.7155" gradientUnits="userSpaceOnUse">
<stop stop-color="#CAEDC2"/>
<stop offset="1" stop-color="#BDE3FF"/>
</linearGradient>
<linearGradient id="paint3_linear_80_17027" x1="34.9242" y1="13.8466" x2="58.383" y2="46.8258" gradientUnits="userSpaceOnUse">
<stop stop-color="#FFD2A6"/>
<stop offset="1" stop-color="#FFC4CE"/>
</linearGradient>
</defs>
</svg>
