<svg width="350" height="59" viewBox="0 0 350 59" fill="none" xmlns="http://www.w3.org/2000/svg">
<path d="M324.607 32.9876L321.274 36.4988L320 35.8117L324.607 32.9897V32.9876ZM334.12 27.1573L328.4 30.6619L322.324 37.0644L323.907 37.9184L334.122 27.1573H334.12ZM343.633 21.327L337.913 24.8316L324.954 38.4841L326.537 39.338L343.633 21.327ZM329.17 40.7577L349.109 19.7513L349.061 18L347.428 19.0013L327.587 39.9037L329.17 40.7577ZM349.222 23.826L349.154 21.3768L330.22 41.3256L331.802 42.1795L349.222 23.826ZM349.333 27.8985L349.265 25.4494L332.85 42.743L334.433 43.597L349.335 27.8985H349.333ZM349.446 31.9732L349.378 29.5241L335.483 44.1648L337.065 45.0188L349.448 31.9732H349.446ZM349.559 36.0458L349.491 33.5966L338.113 45.5823L339.696 46.4363L349.559 36.0458ZM349.672 40.1205L349.604 37.6713L340.746 47.0041L342.328 47.8581L349.672 40.1205ZM349.785 44.193L349.717 41.7439L343.378 48.4238L344.961 49.2777L349.787 44.1952L349.785 44.193ZM349.896 48.2677L349.828 45.8186L346.009 49.8434L347.591 50.6974L349.898 48.2677H349.896ZM350 51.9978L349.941 49.8933L348.639 51.2652L350 52V51.9978Z" fill="url(#paint0_linear_410_7950)" fill-opacity="0.8"/>
<path d="M286.647 38.3606C287.717 38.7502 288.266 39.9215 287.878 40.976C287.484 42.0323 286.297 42.5752 285.229 42.1922C284.16 41.8026 283.61 40.6313 283.998 39.5768C284.393 38.5205 285.579 37.9776 286.647 38.3606ZM290.565 41.9541C290.17 43.0103 290.722 44.1883 291.796 44.5695C292.866 44.9592 294.059 44.4144 294.445 43.3533C294.84 42.297 294.289 41.119 293.214 40.7379C292.144 40.3482 290.951 40.8929 290.565 41.9541ZM286.404 33.086C286.01 34.1422 286.561 35.3202 287.636 35.7014C288.706 36.091 289.899 35.5463 290.285 34.4852C290.68 33.4289 290.128 32.2509 289.054 31.8697C287.984 31.4801 286.791 32.0248 286.404 33.086ZM288.811 26.5951C288.416 27.6514 288.968 28.8294 290.043 29.2106C291.112 29.6002 292.306 29.0555 292.692 27.9943C293.087 26.9381 292.535 25.76 291.46 25.3789C290.39 24.9892 289.197 25.534 288.811 26.5951ZM292.978 35.4615C292.584 36.5177 293.135 37.6957 294.21 38.0769C295.28 38.4665 296.473 37.9218 296.859 36.8607C297.254 35.8044 296.702 34.6264 295.627 34.2452C294.558 33.8556 293.364 34.4003 292.978 35.4615ZM295.385 28.9706C294.99 30.0269 295.542 31.2049 296.616 31.5861C297.686 31.9757 298.879 31.431 299.266 30.3698C299.66 29.3136 299.109 28.1355 298.034 27.7544C296.964 27.3647 295.771 27.9095 295.385 28.9706ZM297.139 44.3296C296.744 45.3859 297.295 46.5638 298.37 46.945C299.44 47.3346 300.633 46.7899 301.019 45.7288C301.405 44.6676 300.862 43.4945 299.788 43.1134C298.718 42.7237 297.525 43.2684 297.139 44.3296ZM299.552 37.837C299.157 38.8932 299.709 40.0712 300.784 40.4524C301.853 40.842 303.046 40.2973 303.433 39.2362C303.827 38.1799 303.276 37.0019 302.201 36.6207C301.131 36.2311 299.938 36.7758 299.552 37.837ZM301.96 31.3528C301.566 32.4091 302.117 33.5871 303.192 33.9682C304.262 34.3579 305.455 33.8131 305.841 32.752C306.236 31.6957 305.684 30.5177 304.61 30.1365C303.54 29.7469 302.347 30.2917 301.96 31.3528ZM291.225 20.1025C290.83 21.1588 291.381 22.3368 292.456 22.7179C293.526 23.1076 294.719 22.5628 295.105 21.5017C295.5 20.4454 294.948 19.2674 293.874 18.8862C292.804 18.4966 291.611 19.0414 291.225 20.1025ZM297.798 22.478C297.404 23.5343 297.955 24.7123 299.03 25.0934C300.1 25.4831 301.293 24.9383 301.679 23.8772C302.074 22.8209 301.522 21.6429 300.447 21.2617C299.378 20.8721 298.185 21.4168 297.798 22.478ZM293.631 13.6117C293.237 14.6679 293.788 15.8459 294.863 16.2271C295.933 16.6167 297.126 16.072 297.512 15.0108C297.907 13.9546 297.355 12.7766 296.28 12.3954C295.211 12.0058 294.017 12.5505 293.631 13.6117ZM296.038 7.1208C295.643 8.17707 296.195 9.3551 297.269 9.73628C298.339 10.1259 299.532 9.58117 299.919 8.52001C300.313 7.46374 299.762 6.28575 298.687 5.90458C297.617 5.51494 296.424 6.05964 296.038 7.1208ZM300.205 15.9872C299.81 17.0434 300.362 18.2214 301.437 18.6026C302.506 18.9922 303.7 18.4475 304.086 17.3863C304.48 16.3301 303.929 15.1521 302.854 14.7709C301.784 14.3813 300.591 14.926 300.205 15.9872ZM302.612 9.49629C302.217 10.5526 302.769 11.7306 303.843 12.1118C304.913 12.5014 306.106 11.9567 306.492 10.8955C306.879 9.83434 306.336 8.66124 305.261 8.28006C304.191 7.89042 302.998 8.43513 302.612 9.49629ZM304.374 24.8602C303.979 25.9165 304.531 27.0944 305.605 27.4756C306.675 27.8653 307.868 27.3205 308.255 26.2593C308.649 25.2031 308.098 24.0251 307.023 23.6439C305.953 23.2543 304.76 23.799 304.374 24.8602ZM306.781 18.3693C306.386 19.4256 306.937 20.6036 308.012 20.9848C309.082 21.3744 310.275 20.8297 310.661 19.7685C311.056 18.7122 310.504 17.5343 309.43 17.1531C308.36 16.7634 307.167 17.3082 306.781 18.3693ZM309.187 11.8785C308.793 12.9347 309.344 14.1128 310.419 14.494C311.489 14.8836 312.682 14.3388 313.068 13.2777C313.463 12.2214 312.911 11.0434 311.836 10.6623C310.767 10.2726 309.573 10.8173 309.187 11.8785ZM303.714 46.7118C303.319 47.768 303.871 48.946 304.946 49.3272C306.015 49.7168 307.209 49.1721 307.595 48.111C307.99 47.0547 307.438 45.8767 306.363 45.4955C305.293 45.1059 304.1 45.6506 303.714 46.7118ZM310.288 49.0873C309.893 50.1435 310.445 51.3215 311.519 51.7027C312.589 52.0923 313.782 51.5476 314.169 50.4864C314.563 49.4302 314.012 48.2521 312.937 47.871C311.867 47.4813 310.674 48.0261 310.288 49.0873ZM306.128 40.2191C305.733 41.2754 306.284 42.4534 307.359 42.8346C308.429 43.2242 309.622 42.6795 310.008 41.6183C310.403 40.5621 309.851 39.384 308.777 39.0029C307.707 38.6132 306.514 39.158 306.128 40.2191ZM308.534 33.7283C308.14 34.7846 308.691 35.9626 309.766 36.3437C310.836 36.7334 312.029 36.1886 312.415 35.1275C312.81 34.0712 312.258 32.8932 311.183 32.512C310.114 32.1224 308.92 32.6671 308.534 33.7283ZM312.701 42.5946C312.307 43.6509 312.858 44.8289 313.933 45.2101C315.003 45.5997 316.196 45.055 316.582 43.9938C316.977 42.9376 316.425 41.7595 315.35 41.3784C314.281 40.9887 313.087 41.5335 312.701 42.5946ZM315.108 36.1038C314.713 37.1601 315.265 38.338 316.34 38.7192C317.409 39.1089 318.603 38.5641 318.989 37.503C319.375 36.4418 318.832 35.2687 317.757 34.8875C316.687 34.4979 315.494 35.0426 315.108 36.1038ZM316.863 51.4694C316.469 52.5257 317.02 53.7037 318.095 54.0849C319.165 54.4745 320.358 53.9298 320.744 52.8686C321.139 51.8124 320.587 50.6343 319.513 50.2532C318.443 49.8635 317.25 50.4083 316.863 51.4694ZM319.277 44.9768C318.882 46.0331 319.434 47.2111 320.508 47.5922C321.578 47.9819 322.771 47.4371 323.158 46.376C323.552 45.3197 323.001 44.1417 321.926 43.7605C320.856 43.3709 319.663 43.9157 319.277 44.9768ZM321.684 38.486C321.289 39.5422 321.84 40.7202 322.915 41.1014C323.985 41.491 325.178 40.9463 325.564 39.8851C325.959 38.8289 325.407 37.6509 324.333 37.2697C323.263 36.8801 322.07 37.4248 321.684 38.486ZM310.941 27.2375C310.546 28.2937 311.098 29.4717 312.172 29.8529C313.242 30.2425 314.435 29.6978 314.822 28.6366C315.216 27.5804 314.665 26.4024 313.59 26.0212C312.52 25.6316 311.327 26.1763 310.941 27.2375ZM317.515 29.613C317.12 30.6692 317.672 31.8472 318.746 32.2284C319.816 32.618 321.009 32.0733 321.395 31.0121C321.782 29.951 321.239 28.7779 320.164 28.3967C319.094 28.007 317.901 28.5518 317.515 29.613ZM313.354 20.7448C312.96 21.8011 313.511 22.9791 314.586 23.3603C315.656 23.7499 316.849 23.2052 317.235 22.144C317.63 21.0877 317.078 19.9097 316.004 19.5286C314.934 19.1389 313.741 19.6836 313.354 20.7448ZM315.761 14.254C315.366 15.3102 315.918 16.4883 316.993 16.8694C318.062 17.2591 319.256 16.7143 319.642 15.6532C320.028 14.592 319.485 13.4189 318.41 13.0377C317.34 12.6481 316.147 13.1928 315.761 14.254ZM319.928 23.1203C319.533 24.1766 320.085 25.3546 321.16 25.7358C322.23 26.1254 323.423 25.5806 323.809 24.5195C324.204 23.4632 323.652 22.2853 322.577 21.9041C321.507 21.5144 320.314 22.0591 319.928 23.1203ZM322.337 16.6362C321.942 17.6924 322.494 18.8704 323.568 19.2516C324.638 19.6412 325.831 19.0965 326.217 18.0353C326.612 16.9791 326.06 15.8011 324.986 15.4199C323.916 15.0303 322.723 15.575 322.337 16.6362ZM324.09 31.9951C323.696 33.0514 324.247 34.2294 325.322 34.6106C326.392 35.0002 327.585 34.4555 327.971 33.3943C328.366 32.338 327.814 31.16 326.739 30.7789C325.67 30.3892 324.476 30.9339 324.09 31.9951ZM326.504 25.5025C326.109 26.5587 326.661 27.7368 327.735 28.1179C328.805 28.5076 329.998 27.9628 330.384 26.9017C330.779 25.8454 330.228 24.6674 329.153 24.2862C328.083 23.8966 326.89 24.4413 326.504 25.5025ZM328.91 19.0116C328.516 20.0679 329.067 21.2459 330.142 21.6271C331.212 22.0167 332.405 21.472 332.791 20.4108C333.186 19.3546 332.634 18.1766 331.56 17.7954C330.485 17.4142 329.297 17.9505 328.91 19.0116Z" fill="url(#paint1_linear_410_7950)"/>
<path d="M8.75581 41.4094C6.05518 40.0646 3.90502 38.0189 2.40508 35.5847L17.1274 42.9103C14.3492 43.2151 11.4564 42.7503 8.75581 41.4056V41.4094ZM0.0960533 28.9257C0.225359 30.019 0.465496 31.0933 0.805384 32.1333L20.7406 42.057C21.7418 41.6875 22.706 41.2113 23.6185 40.636L0.0960533 28.9295V28.9257ZM0.35097 23.5429C0.15886 24.4343 0.0443332 25.3295 0 26.221L25.7317 39.0285C26.3857 38.438 26.9915 37.7866 27.5494 37.078L0.35097 23.5391V23.5429ZM29.9693 32.7771L2.11691 18.9144C1.91002 19.2801 1.71422 19.661 1.5295 20.0496C1.34847 20.4382 1.18222 20.8343 1.03444 21.2305L28.8868 35.0932C29.0937 34.7275 29.2895 34.3466 29.4742 33.958C29.6552 33.5695 29.8215 33.1733 29.9693 32.7771ZM5.26826 14.9754C4.61435 15.5658 4.00846 16.2173 3.4506 16.9258L30.649 30.4647C30.8411 29.5733 30.9557 28.6781 31 27.7867L5.26826 14.9792V14.9754ZM10.2557 11.9468C9.25456 12.3163 8.29031 12.7925 7.37779 13.3677L30.9003 25.0743C30.7709 23.981 30.5308 22.9067 30.1909 21.8667L10.2557 11.943V11.9468ZM13.8726 11.0935L28.5912 18.4191C27.095 15.9849 24.9448 13.9392 22.2405 12.5944C19.5399 11.2497 16.6471 10.7849 13.8689 11.0897L13.8726 11.0935Z" fill="url(#paint2_linear_410_7950)"/>
<path d="M47.9492 9.15063C47.2185 9.88513 46.0231 9.89797 45.2785 9.18249C44.535 8.46077 44.5221 7.27995 45.2465 6.54443C45.9773 5.80993 47.1727 5.79717 47.9172 6.51265C48.6608 7.23436 48.6736 8.41511 47.9492 9.15063ZM43.4439 11.0271C42.7003 10.3053 41.4986 10.3171 40.7732 11.0588C40.0425 11.7933 40.0543 12.9803 40.8052 13.6968C41.5487 14.4185 42.7504 14.4068 43.4759 13.665C44.2066 12.9305 44.1948 11.7436 43.4439 11.0271ZM52.4936 10.9319C51.7501 10.2102 50.5483 10.2219 49.8229 10.9637C49.0922 11.6982 49.104 12.8853 49.8549 13.6017C50.5984 14.3235 51.8002 14.3116 52.5256 13.5699C53.2564 12.8354 53.2445 11.6484 52.4936 10.9319ZM57.07 15.3512C56.3264 14.6295 55.1247 14.6412 54.3993 15.383C53.6686 16.1175 53.6803 17.3045 54.4313 18.021C55.1748 18.7427 56.3766 18.7309 57.102 17.9892C57.8327 17.2547 57.8209 16.0677 57.07 15.3512ZM48.0192 15.4526C47.2757 14.7309 46.0739 14.7426 45.3485 15.4844C44.6178 16.2189 44.6296 17.4058 45.3805 18.1223C46.124 18.8441 47.3258 18.8323 48.0512 18.0906C48.782 17.3561 48.7701 16.1691 48.0192 15.4526ZM52.5956 19.8718C51.852 19.1501 50.6503 19.1619 49.9249 19.9036C49.1942 20.6381 49.206 21.8251 49.9569 22.5416C50.7004 23.2633 51.9022 23.2516 52.6276 22.5098C53.3583 21.7753 53.3465 20.5883 52.5956 19.8718ZM38.9695 15.5476C38.2259 14.8259 37.0242 14.8378 36.2988 15.5795C35.568 16.314 35.5799 17.501 36.3308 18.2175C37.0817 18.934 38.276 18.9274 39.0015 18.1856C39.7322 17.4511 39.7204 16.2641 38.9695 15.5476ZM43.5448 19.9732C42.8013 19.2514 41.5995 19.2633 40.8741 20.005C40.1434 20.7395 40.1552 21.9265 40.9061 22.643C41.6496 23.3647 42.8514 23.3529 43.5768 22.6111C44.3076 21.8766 44.2957 20.6896 43.5448 19.9732ZM48.1149 24.3914C47.3713 23.6697 46.1696 23.6815 45.4441 24.4233C44.7134 25.1578 44.7253 26.3448 45.4762 27.0612C46.2197 27.783 47.4214 27.7711 48.1469 27.0294C48.8776 26.2949 48.8658 25.1079 48.1149 24.3914ZM61.6453 19.7767C60.9018 19.055 59.7 19.0667 58.9746 19.8085C58.2439 20.543 58.2557 21.73 59.0066 22.4464C59.7502 23.1682 60.9519 23.1564 61.6773 22.4147C62.4081 21.6802 62.3962 20.4932 61.6453 19.7767ZM57.1709 24.2973C56.4273 23.5756 55.2256 23.5874 54.5002 24.3291C53.7695 25.0636 53.7813 26.2506 54.5322 26.9671C55.2758 27.6888 56.4775 27.6771 57.2029 26.9353C57.9337 26.2008 57.9218 25.0138 57.1709 24.2973ZM66.2217 24.1959C65.4781 23.4742 64.2764 23.486 63.551 24.2277C62.8203 24.9622 62.8321 26.1492 63.583 26.8657C64.3266 27.5874 65.5283 27.5757 66.2537 26.8339C66.9844 26.0994 66.9726 24.9124 66.2217 24.1959ZM70.7981 28.6152C70.0545 27.8935 68.8528 27.9052 68.1273 28.647C67.3966 29.3815 67.4085 30.5685 68.1594 31.285C68.9029 32.0067 70.1046 31.9949 70.8301 31.2532C71.5608 30.5187 71.549 29.3317 70.7981 28.6152ZM61.7473 28.7166C61.0037 27.9949 59.802 28.0066 59.0766 28.7484C58.3458 29.4829 58.3577 30.6699 59.1086 31.3864C59.8522 32.1081 61.0539 32.0963 61.7793 31.3546C62.51 30.6201 62.4982 29.4331 61.7473 28.7166ZM66.3237 33.1359C65.5801 32.4141 64.3784 32.4259 63.6529 33.1676C62.9222 33.9021 62.9341 35.0891 63.685 35.8056C64.4359 36.5221 65.6302 36.5156 66.3557 35.7738C67.0864 35.0393 67.0746 33.8524 66.3237 33.1359ZM52.6902 28.8169C51.9466 28.0952 50.7449 28.1069 50.0195 28.8487C49.2888 29.5832 49.3006 30.7703 50.0515 31.4868C50.7951 32.2085 51.9968 32.1966 52.7222 31.4549C53.4529 30.7204 53.4411 29.5334 52.6902 28.8169ZM57.2666 33.2362C56.523 32.5145 55.3213 32.5262 54.5959 33.2679C53.8651 34.0024 53.877 35.1895 54.6279 35.906C55.3714 36.6277 56.5731 36.6159 57.2986 35.8742C58.0293 35.1397 58.0175 33.9527 57.2666 33.2362ZM61.843 37.6554C61.0994 36.9337 59.8977 36.9455 59.1722 37.6872C58.4415 38.4217 58.4533 39.6088 59.2042 40.3253C59.9478 41.047 61.1495 41.0352 61.8749 40.2934C62.6057 39.5589 62.5939 38.3719 61.843 37.6554ZM34.4888 20.0673C33.7452 19.3456 32.5435 19.3573 31.8181 20.0991C31.0873 20.8336 31.0991 22.0206 31.85 22.7371C32.5936 23.4588 33.7953 23.447 34.5208 22.7053C35.2515 21.9708 35.2397 20.7838 34.4888 20.0673ZM30.0144 24.5879C29.2708 23.8662 28.0691 23.878 27.3437 24.6197C26.6129 25.3542 26.6247 26.5412 27.3756 27.2577C28.1192 27.9794 29.3209 27.9677 30.0464 27.2259C30.7771 26.4914 30.7653 25.3044 30.0144 24.5879ZM39.0641 24.4928C38.3205 23.7711 37.1188 23.7828 36.3934 24.5246C35.6627 25.2591 35.6745 26.4461 36.4254 27.1626C37.1689 27.8843 38.3707 27.8725 39.0961 27.1308C39.8268 26.3963 39.815 25.2093 39.0641 24.4928ZM43.6405 28.9121C42.8969 28.1903 41.6952 28.2021 40.9698 28.9438C40.239 29.6783 40.2509 30.8653 41.0018 31.5818C41.7453 32.3035 42.947 32.2918 43.6725 31.55C44.4032 30.8155 44.3914 29.6285 43.6405 28.9121ZM34.5897 29.0134C33.8461 28.2917 32.6444 28.3035 31.919 29.0452C31.1883 29.7797 31.2001 30.9667 31.951 31.6832C32.6945 32.4049 33.8963 32.3932 34.6217 31.6514C35.3524 30.9169 35.3406 29.7299 34.5897 29.0134ZM39.1661 33.4326C38.4225 32.7109 37.2208 32.7227 36.4954 33.4645C35.7646 34.199 35.7765 35.386 36.5274 36.1025C37.2783 36.819 38.4726 36.8125 39.1981 36.0707C39.9288 35.3362 39.917 34.1491 39.1661 33.4326ZM25.5336 29.1075C24.7901 28.3858 23.5884 28.3975 22.8629 29.1393C22.1322 29.8738 22.144 31.0608 22.8949 31.7773C23.6385 32.499 24.8402 32.4873 25.5657 31.7455C26.2964 31.011 26.2845 29.824 25.5336 29.1075ZM30.109 33.533C29.3654 32.8113 28.1637 32.8231 27.4383 33.5648C26.7076 34.2993 26.7194 35.4863 27.4703 36.2028C28.2139 36.9245 29.4156 36.9128 30.141 36.171C30.8717 35.4365 30.8599 34.2495 30.109 33.533ZM34.6853 37.9523C33.9418 37.2306 32.7401 37.2423 32.0146 37.9841C31.2839 38.7186 31.2958 39.9056 32.0467 40.6221C32.7902 41.3438 33.9919 41.332 34.7174 40.5903C35.4481 39.8558 35.4362 38.6688 34.6853 37.9523ZM48.2168 33.3313C47.4733 32.6096 46.2715 32.6213 45.5461 33.3631C44.8154 34.0976 44.8272 35.2846 45.5781 36.0011C46.3217 36.7228 47.5234 36.7111 48.2488 35.9693C48.9796 35.2348 48.9677 34.0478 48.2168 33.3313ZM43.7424 37.8519C42.9989 37.1302 41.7971 37.142 41.0717 37.8838C40.341 38.6183 40.3528 39.8053 41.1037 40.5217C41.8546 41.2382 43.049 41.2317 43.7744 40.49C44.5052 39.7555 44.4933 38.5684 43.7424 37.8519ZM52.7922 37.7568C52.0486 37.0351 50.8469 37.0469 50.1215 37.7886C49.3907 38.5231 49.4026 39.7101 50.1535 40.4266C50.897 41.1483 52.0987 41.1366 52.8242 40.3948C53.5549 39.6603 53.5431 38.4733 52.7922 37.7568ZM57.3686 42.1761C56.625 41.4544 55.4232 41.4661 54.6978 42.2079C53.9671 42.9424 53.9789 44.1294 54.7298 44.8459C55.4807 45.5623 56.6751 45.5558 57.4005 44.8141C58.1313 44.0796 58.1195 42.8926 57.3686 42.1761ZM48.3178 42.2774C47.5742 41.5557 46.3725 41.5675 45.647 42.3093C44.9163 43.0438 44.9282 44.2308 45.6791 44.9473C46.4226 45.669 47.6244 45.6571 48.3498 44.9154C49.0805 44.1809 49.0687 42.9939 48.3178 42.2774ZM52.8878 46.6957C52.1443 45.9739 50.9426 45.9858 50.2171 46.7275C49.4864 47.462 49.4982 48.649 50.2491 49.3655C50.9927 50.0872 52.1944 50.0754 52.9198 49.3336C53.6505 48.5991 53.6387 47.4121 52.8878 46.6957ZM39.2617 42.3715C38.5182 41.6498 37.3164 41.6616 36.591 42.4033C35.8603 43.1378 35.8721 44.3248 36.623 45.0413C37.3666 45.763 38.5683 45.7513 39.2937 45.0095C40.0244 44.275 40.0126 43.088 39.2617 42.3715ZM43.8371 46.7971C43.0935 46.0753 41.8918 46.0871 41.1663 46.8288C40.4356 47.5633 40.4475 48.7503 41.1984 49.4668C41.9419 50.1885 43.1436 50.1768 43.8691 49.435C44.5998 48.7005 44.588 47.5136 43.8371 46.7971ZM48.4134 51.2163C47.6699 50.4946 46.4682 50.5064 45.7427 51.2481C45.012 51.9826 45.0238 53.1696 45.7747 53.8861C46.5183 54.6078 47.72 54.5961 48.4454 53.8543C49.1709 53.1125 49.1643 51.9328 48.4134 51.2163Z" fill="url(#paint3_linear_410_7950)"/>
<path d="M110.107 15.2918C111.332 15.2918 111.828 15.6949 112.236 16.8754C112.527 17.7105 112.79 18.3727 113.723 18.8046C114.685 19.2653 116.085 19.3229 117.134 19.3229C119.233 19.3229 121.274 18.9486 123.315 18.5455C123.753 18.4591 124.19 18.3727 124.627 18.3727C126.085 18.3727 126.756 19.582 126.756 20.9065C126.756 22.375 125.998 23.0085 124.627 23.3252C122.412 23.8147 119.408 24.0162 117.134 24.0162C114.189 24.0162 110.953 23.6131 109.029 21.1369C108.241 20.1003 107.658 18.7182 107.658 17.3937C107.658 16.0692 108.824 15.2918 110.107 15.2918ZM112.265 3.34253C112.731 3.34253 113.169 3.42891 113.635 3.51529C114.977 3.74564 116.347 3.86081 117.717 3.86081C118.854 3.86081 119.933 3.80322 121.129 3.63046C121.449 3.57288 121.799 3.54408 122.149 3.54408C123.694 3.54408 124.394 4.52306 124.394 5.99153C124.394 7.34482 123.84 8.06466 122.47 8.3238C121.012 8.61173 119.583 8.61173 118.155 8.61173C116.318 8.61173 113.723 8.55414 111.973 8.12224C110.661 7.80551 110.107 7.02809 110.107 5.70359C110.107 4.37909 110.836 3.34253 112.265 3.34253Z" fill="#008532"/>
<path d="M150.256 4.72479C152.939 4.72479 154.222 6.62516 154.222 9.1014C154.222 10.4259 153.872 12.7582 153.58 14.5434C153.405 15.6951 153.055 17.4227 153.055 18.5744C153.055 18.8336 153.143 19.1215 153.463 19.1215C153.755 19.1215 154.076 18.9488 154.63 18.5744C155.184 18.2001 155.738 17.8258 156.437 17.8258C157.633 17.8258 158.478 19.0063 158.478 20.1293C158.478 21.2522 157.545 21.8569 156.729 22.4328C155.504 23.2678 154.047 23.7861 152.589 23.7861C149.615 23.7861 148.478 21.8281 148.478 19.1503C148.478 16.9044 149.061 13.9387 149.44 11.7216C149.556 11.0594 149.673 10.3971 149.673 9.9652C149.673 9.59089 149.615 9.15898 149.148 9.15898C147.778 9.15898 143.638 13.2189 142.646 14.313C142.617 15.4072 142.617 16.4725 142.617 17.5379C142.617 19.4382 142.646 21.3674 142.646 23.2678C142.646 24.8802 142.238 25.9168 140.401 25.9168C138.564 25.9168 138.098 25.0242 138.098 23.239C138.098 22.4328 138.127 21.6553 138.127 20.8491C137.544 21.8569 137.048 23.095 135.678 23.095C134.395 23.095 133.258 22.116 133.258 20.8203C133.258 20.0429 133.637 19.4958 134.307 18.5744C135.853 16.3861 137.194 14.0251 138.389 11.6064V11.2321C137.398 11.5488 136.261 11.9807 135.211 11.9807C133.87 11.9807 133.258 10.8002 133.258 9.61968C133.258 7.83448 134.307 7.60414 135.999 7.37379C136.873 7.25862 137.719 7.05706 138.564 6.82671C138.623 5.47342 138.652 4.20651 138.768 2.73804C138.798 2.36373 138.885 1.93183 139.118 1.6151C139.527 1.03923 140.285 0.895264 140.984 0.895264C142.209 0.895264 143.2 1.49993 143.2 2.82442C143.2 3.88978 143.054 4.95514 142.996 6.0205C143.521 6.33723 143.842 6.9131 143.842 7.51776C143.842 7.69052 143.813 7.83449 143.783 7.97845C145.533 6.42361 147.749 4.72479 150.256 4.72479Z" fill="#008532"/>
<path d="M168.523 21.1871C168.085 21.8782 167.619 22.6268 167.036 23.2315C166.628 23.6634 166.132 23.8649 165.578 23.8649C164.295 23.8649 163.012 22.8859 163.012 21.5614C163.012 20.9568 163.304 20.4673 163.654 19.9778C165.491 17.5592 166.919 14.9102 168.027 12.1172C167.152 12.2612 166.249 12.5203 165.345 12.5203C164.033 12.5203 163.391 11.4837 163.391 10.2744C163.391 9.29544 163.887 8.46043 164.878 8.28767C166.424 7.99973 167.94 7.76939 169.456 7.59663C169.66 6.8192 169.747 6.12816 169.922 5.17798C170.039 4.51573 170.156 3.93986 170.331 3.24882C170.593 2.26984 171.555 1.92432 172.488 1.92432C173.713 1.92432 174.937 2.52898 174.937 3.85348C174.937 4.65969 174.646 5.89781 174.267 7.19352H174.471C175.929 7.19352 177.474 7.36628 178.582 8.40284C179.661 9.41061 180.04 10.8503 180.04 12.2612C180.04 14.8526 179.457 18.3078 178.436 20.6689C177.474 22.8859 176.074 23.9801 173.596 23.9801C172.022 23.9801 169.689 23.6922 169.689 21.6766C169.689 20.5825 170.214 19.258 171.526 19.258C171.993 19.258 172.751 19.5747 173.159 19.5747C174.004 19.5747 174.442 18.3078 174.762 17.1561C175.141 15.7452 175.55 13.9312 175.55 12.4627C175.55 11.4837 174.996 11.3398 174.121 11.3398C173.742 11.3398 173.392 11.3686 173.013 11.3974C171.876 14.795 170.418 18.135 168.523 21.1871ZM185.696 16.0979C184.238 16.0979 183.859 15.1765 183.276 13.708C182.693 12.2684 181.993 10.8575 181.031 9.61937C180.652 9.12988 180.244 8.61159 180.244 7.97814C180.244 6.68243 181.556 5.84742 182.751 5.84742C183.539 5.84742 184.151 6.22174 184.647 6.8264C185.113 7.37348 185.521 7.97814 185.929 8.6116C186.688 9.82092 188.291 12.3835 188.291 13.7944C188.291 15.2053 187.037 16.0979 185.696 16.0979Z" fill="#008532"/>
<path d="M205.465 10.8291C209.605 10.8291 212.725 13.6508 212.725 17.8259C212.725 20.9068 211.092 23.2966 208.235 24.5635C206.194 25.4561 203.861 25.8305 201.616 25.8305C201.033 25.8305 200.421 25.7729 199.925 25.4849C199.109 25.0242 198.905 24.2468 198.905 23.4982C198.905 21.7418 200.013 21.4826 201.5 21.4826H201.762C204.24 21.4826 208.001 20.7628 208.001 17.6531C208.001 16.0119 206.835 14.8601 205.202 14.8601C203.92 14.8601 202.637 15.4936 201.587 16.1559C200.362 16.9333 199.371 17.9123 198.526 19.0928C198.088 19.7262 197.476 20.043 196.689 20.043C195.522 20.043 194.385 19.3807 194.385 18.1426C194.385 17.2212 194.735 15.7815 194.881 14.8314C195.231 12.7294 195.522 10.5987 195.785 8.468C195.989 6.85557 196.193 5.8478 197.972 5.8478C199.05 5.8478 200.392 6.36608 200.392 7.57541C200.392 8.78473 199.838 11.5489 199.604 12.8158C201.325 11.6065 203.307 10.8291 205.465 10.8291ZM200.566 0.549805C201.762 0.549805 204.24 1.73034 205.377 2.27741C206.427 2.7669 207.418 3.2276 207.418 4.5233C207.418 5.73263 206.573 6.94195 205.261 6.94195C204.532 6.94195 203.89 6.56764 203.278 6.22211C202.17 5.61745 201.004 5.15676 199.808 4.69606C199.05 4.40813 198.38 3.88984 198.38 3.02604C198.38 1.75913 199.167 0.549805 200.566 0.549805Z" fill="#008532"/>
<path d="M223.6 22.8645C219.985 22.8645 218.964 19.1214 218.964 16.242C218.964 8.66933 225.175 2.91064 232.756 2.91064C239.024 2.91064 243.689 6.91293 243.689 13.2475C243.689 17.7681 241.386 21.396 237.391 23.5555C236.4 24.0738 235.059 24.7073 233.893 24.7073C232.522 24.7073 231.56 23.4404 231.56 22.1735C231.56 21.0217 232.085 20.6474 233.659 20.1579C236.983 19.1214 238.995 16.6451 238.995 13.2475C238.995 10.109 237.042 7.63277 233.863 7.08569C232.989 11.7214 229.548 22.8645 223.6 22.8645ZM225.408 10.4545C224.008 12.1533 223.192 14.3416 223.192 16.5299C223.192 16.9331 223.192 18.1424 223.804 18.1424C224.125 18.1424 224.767 17.4801 225.291 16.7315C225.758 16.0405 226.166 15.2918 226.341 14.9751C227.624 12.6716 228.499 10.1666 229.169 7.60398C227.653 8.29502 226.458 9.15882 225.408 10.4545Z" fill="#008532"/>
<path d="M58.4841 51.9159C57.3469 52.7797 56.0349 53.7587 55.0436 53.7587C53.7607 53.7587 52.6235 52.5782 52.6235 51.3113C52.6235 50.4187 53.1192 49.9292 54.2563 49.1518C57.2303 47.165 59.8836 44.8903 62.2453 42.2413L56.1515 42.3277C55.2768 42.3277 53.8481 42.2701 53.8481 40.053C53.8481 38.6709 54.6354 37.9511 56.0349 37.9223L64.5195 37.7783L64.4612 34.0064C64.4612 33.1714 64.5778 31.7893 66.8229 31.7893C68.2516 31.7893 69.068 32.4803 69.0971 33.9488L69.1554 37.692L74.1413 37.6056C74.8702 37.6056 76.4446 37.7208 76.4446 39.8515C76.4446 41.2336 75.6574 41.9822 74.2579 42.011L69.2138 42.0974L69.3595 51.3976C69.3595 52.2615 69.3304 53.8451 68.6015 54.8529C67.96 55.7167 66.5896 56.0622 65.0735 56.0622C63.2075 56.0622 61.6622 55.8606 61.6622 53.6147C61.6622 52.607 62.2453 51.5992 63.3824 51.5992C63.5573 51.5992 63.8198 51.6568 63.9655 51.6568H64.1113C64.6361 51.6568 64.7236 51.5128 64.7236 50.7642L64.6653 46.0421C62.7993 48.2016 60.7583 50.1883 58.4841 51.9159Z" fill="#008532"/>
<path d="M103.495 41.7588C104.924 41.7588 105.857 42.709 105.857 44.0911C105.857 45.4731 104.924 46.4521 103.495 46.4521H83.1434C81.7148 46.4521 80.7817 45.5019 80.7817 44.0911C80.7817 42.6802 81.6856 41.7588 83.1434 41.7588H103.495Z" fill="#008532"/>
<path d="M112.184 39.6282C110.784 39.6282 109.968 38.7356 109.968 37.3535C109.968 35.9714 110.755 35.0788 112.184 35.0788H125.712C128.337 35.0788 129.882 35.9139 129.882 38.7644C129.882 40.5208 129.299 42.2196 128.482 43.8321C126.908 46.9417 124.663 49.6771 121.922 51.8654C120.26 53.1899 115.828 55.9829 113.729 55.9829C112.359 55.9829 111.309 54.716 111.309 53.4203C111.309 51.9518 112.738 51.6063 113.875 51.1456C117.082 49.8787 119.969 47.748 122.155 45.099C122.943 44.12 124.896 41.3846 124.896 40.1465C124.896 39.7146 124.604 39.6282 124.225 39.6282H112.184ZM134.285 33.0345C134.285 34.7045 132.856 36.0866 131.165 36.0866C129.474 36.0866 128.074 34.7045 128.074 33.0345C128.074 31.3645 129.474 29.9536 131.165 29.9536C133.002 29.9536 134.285 31.3645 134.285 33.0345ZM129.765 33.0345C129.765 33.7831 130.407 34.4166 131.165 34.4166C131.923 34.4166 132.593 33.7831 132.593 33.0345C132.593 32.2859 131.952 31.6236 131.165 31.6236C130.378 31.6236 129.765 32.2571 129.765 33.0345Z" fill="#008532"/>
<path d="M160.985 39.1963C160.985 39.8585 160.693 40.4056 160.343 40.9239C158.273 43.8608 155.707 46.5098 152.937 48.7845C150.051 51.1744 146.814 53.3051 143.345 54.7448C142.062 55.263 141.683 55.3494 141.216 55.3494C139.758 55.3494 138.68 53.9097 138.68 52.5565C138.68 51.2032 139.525 50.944 140.925 50.3969C146.873 48.0935 152.354 43.6305 156.086 38.5628C156.786 37.6127 157.428 36.8064 158.448 36.8064C159.76 36.8064 160.985 37.8718 160.985 39.1963ZM145.218 36.4321C146.122 37.0368 147.172 37.7854 147.172 38.9947C147.172 40.2041 146.122 41.6725 144.752 41.6725C144.168 41.6725 143.702 41.3558 142.798 40.7223C142.069 40.2329 141.34 39.7434 140.553 39.2539C139.358 38.534 138.774 38.1597 138.774 37.152C138.774 35.7699 139.941 34.5605 141.311 34.5605C142.332 34.5605 143.76 35.4244 145.218 36.4321Z" fill="#008532"/>
<path d="M173.42 34.0134C173.391 33.7831 173.362 33.5527 173.362 33.3512C173.362 31.8827 174.412 31.2493 176.045 31.2493C177.357 31.2493 177.969 31.9979 178.173 33.1784L178.698 36.2881L183.246 35.5971C183.45 35.5683 183.654 35.5395 183.829 35.5395C185.2 35.5683 185.987 36.4321 185.987 37.9006C185.987 39.1963 185.2 39.8297 184.004 40.0025L179.427 40.6935L179.835 43.1122L186.337 42.162C186.541 42.1332 186.716 42.1044 186.92 42.1044C188.232 42.1332 189.078 42.997 189.078 44.4655C189.078 45.7612 188.378 46.3946 187.066 46.5962L180.564 47.5464L181.643 53.9673C181.701 54.3128 181.759 54.8023 181.759 55.0039C181.759 56.4435 180.826 57.1058 179.135 57.1058C177.736 57.1058 177.182 56.4435 176.948 55.119L175.782 48.2374L168.405 49.3028C168.23 49.3316 168.056 49.3603 167.881 49.3603C166.51 49.3603 165.694 48.4677 165.694 46.9705C165.694 45.7036 166.481 45.0413 167.677 44.8686L175.053 43.8032L174.645 41.3846L169.747 42.1044C169.572 42.1332 169.397 42.162 169.222 42.162C167.851 42.162 167.006 41.2982 167.006 39.8009C167.006 38.534 167.793 37.9006 168.989 37.7278L173.916 36.9792L173.42 34.0134Z" fill="#008532"/>
<path d="M208.008 55.6879C208.037 55.8607 208.037 56.0047 208.037 56.1774C208.037 57.3868 206.987 58.0778 205.85 58.0778C204.859 58.0778 204.188 57.5595 203.984 56.5517L202.118 47.3378L197.744 48.1728C197.599 48.2016 197.424 48.2016 197.249 48.2016C196.082 48.2016 195.441 47.3378 195.441 46.2149C195.441 45.2647 195.937 44.5737 196.986 44.4009L201.36 43.6235L200.631 39.8515C200.602 39.6788 200.573 39.506 200.573 39.3333C200.573 38.1239 201.535 37.4905 202.788 37.4905C203.78 37.4905 204.45 38.0376 204.654 38.9877L205.442 42.8749L212.294 41.6367C212.556 41.5791 212.702 41.5791 212.906 41.5791C214.072 41.5791 215.122 42.3854 215.122 43.5947C215.122 44.7176 213.635 46.7332 212.731 47.9425C212.177 48.6911 211.594 49.4686 210.923 50.102C210.544 50.4763 210.019 50.7067 209.611 50.7067C208.561 50.7067 207.512 49.8717 207.512 48.8063C207.512 48.1728 207.891 47.7409 208.503 47.0787C208.853 46.7044 209.203 46.3301 209.524 45.927L206.171 46.5604L208.008 55.6879Z" fill="#008532"/>
<path d="M242.588 39.1963C242.588 39.8585 242.296 40.4056 241.946 40.9239C239.876 43.8608 237.31 46.5098 234.54 48.7845C231.654 51.1744 228.417 53.3051 224.948 54.7448C223.665 55.263 223.286 55.3494 222.819 55.3494C221.362 55.3494 220.283 53.9097 220.283 52.5565C220.283 51.2032 221.128 50.944 222.528 50.3969C228.476 48.0935 233.957 43.6305 237.689 38.5628C238.389 37.6127 239.031 36.8064 240.051 36.8064C241.363 36.8064 242.588 37.8718 242.588 39.1963ZM226.814 36.4321C227.718 37.0368 228.767 37.7854 228.767 38.9947C228.767 40.2041 227.718 41.6725 226.347 41.6725C225.764 41.6725 225.298 41.3558 224.394 40.7223C223.665 40.2329 222.936 39.7434 222.149 39.2539C220.953 38.534 220.37 38.1597 220.37 37.152C220.37 35.7699 221.536 34.5605 222.907 34.5605C223.927 34.5605 225.356 35.4244 226.814 36.4321Z" fill="#008532"/>
<path d="M255.956 39.0809C255.956 39.8583 255.547 40.9237 254.964 42.2481C253.973 44.5228 252.632 46.7399 251.086 48.7267C250.008 50.1376 248.462 52.0379 246.975 52.0379C245.605 52.0379 244.176 50.9726 244.176 49.5617C244.176 48.7555 244.643 48.2948 245.517 47.4022C248.258 44.6668 249.716 42.0178 251.028 38.3322C251.407 37.2669 252.136 36.8926 253.127 36.8926C254.439 36.8926 255.956 37.6124 255.956 39.0809ZM264.812 38.7929C265.483 39.6279 266.124 40.4917 266.736 41.3556C267.786 42.8816 270.818 47.431 270.818 49.101C270.818 50.5407 269.36 51.606 267.99 51.606C266.503 51.606 266.066 50.5407 265.57 49.3601C264.316 46.452 262.596 43.8318 260.584 41.3556C260.176 40.8661 259.826 40.3478 259.826 39.6855C259.826 38.361 261.138 37.4108 262.392 37.4108C263.529 37.4108 264.141 37.9867 264.812 38.7929ZM271.052 34.9922C271.052 36.7198 269.565 38.1883 267.786 38.1883C266.007 38.1883 264.52 36.7198 264.52 34.9922C264.52 33.2646 266.007 31.7673 267.786 31.7673C269.565 31.7673 271.052 33.2358 271.052 34.9922ZM266.299 34.9922C266.299 35.7696 266.97 36.4607 267.786 36.4607C268.602 36.4607 269.273 35.7696 269.273 34.9922C269.273 34.2148 268.602 33.4949 267.786 33.4949C266.97 33.4949 266.299 34.186 266.299 34.9922Z" fill="#008532"/>
<path d="M296.046 48.3525C297.213 49.5331 298 50.3681 298 51.4046C298 52.7579 296.775 53.9961 295.405 53.9961C294.472 53.9961 293.889 53.4202 293.16 52.5276C291.702 50.7712 290.157 49.1588 288.378 47.7479C286.396 49.5619 284.209 51.1743 281.847 52.47C280.797 53.0459 278.931 54.0824 277.882 54.0824C276.511 54.0824 275.433 52.8731 275.433 51.5486C275.433 50.3105 276.336 49.8786 277.357 49.4467C282.314 47.316 286.483 43.832 289.428 39.3402H280.885C279.398 39.3402 278.552 38.6204 278.552 37.1231C278.552 35.6258 279.398 34.906 280.885 34.906H292.285C293.947 34.906 295.405 35.5107 295.405 37.3822C295.405 39.2538 292.693 42.853 291.556 44.3215C293.16 45.5596 294.647 46.9129 296.046 48.3525Z" fill="#008532"/>
<defs>
<linearGradient id="paint0_linear_410_7950" x1="331.559" y1="47.3358" x2="354.949" y2="23.8728" gradientUnits="userSpaceOnUse">
<stop stop-color="#BDE3FF"/>
<stop offset="1" stop-color="#D6D0F7"/>
</linearGradient>
<linearGradient id="paint1_linear_410_7950" x1="295.879" y1="54.4106" x2="322.758" y2="10.4751" gradientUnits="userSpaceOnUse">
<stop stop-color="#CAEDC2"/>
<stop offset="1" stop-color="#FFEDA6"/>
</linearGradient>
<linearGradient id="paint2_linear_410_7950" x1="4.70437" y1="38.0418" x2="26.4572" y2="16.7155" gradientUnits="userSpaceOnUse">
<stop stop-color="#CAEDC2"/>
<stop offset="1" stop-color="#BDE3FF"/>
</linearGradient>
<linearGradient id="paint3_linear_410_7950" x1="34.9242" y1="13.8466" x2="58.383" y2="46.8258" gradientUnits="userSpaceOnUse">
<stop stop-color="#FFD2A6"/>
<stop offset="1" stop-color="#FFC4CE"/>
</linearGradient>
</defs>
</svg>
