<svg width="128" height="25" viewBox="0 0 128 25" fill="none" xmlns="http://www.w3.org/2000/svg">
<path d="M2.25556 5.03734C0.777987 5.03734 0 4.3402 0 2.82468C0 1.30916 0.784018 0.642336 2.25556 0.642336H16.7297C18.2073 0.642336 18.9612 1.33947 18.9612 2.82468C18.9612 4.30989 18.2073 5.03734 16.7297 5.03734H12.0136V22.6113C12.0136 24.3269 11.115 24.9998 9.49265 24.9998C7.87033 24.9998 6.97173 24.3329 6.97173 22.6113V5.03734H2.25556Z" fill="#006CB6"/>
<path d="M40.4795 2.44277C43.519 4.97672 44.5925 8.63821 44.5925 12.4816C44.5925 16.3249 43.519 20.047 40.4795 22.5507C38.3686 24.2662 35.7573 24.9937 33.0976 24.9937C30.438 24.9937 27.7965 24.2662 25.7158 22.5507C22.6461 20.0167 21.5786 16.3492 21.5786 12.4816C21.5786 8.61397 22.6521 4.97066 25.7158 2.44277C27.8025 0.727205 30.4078 -0.000244141 33.0976 -0.000244141C35.7874 -0.000244141 38.3686 0.696895 40.4795 2.44277ZM28.2307 6.80747C27.0426 8.43816 26.7531 10.5053 26.7531 12.4816C26.7531 14.4578 27.0426 16.4098 28.2307 18.1254C29.3585 19.7864 31.0954 20.5138 33.0916 20.5138C35.0878 20.5138 36.7704 19.7864 37.9525 18.1254C39.1406 16.4644 39.3999 14.4881 39.3999 12.4816C39.3999 10.475 39.0803 8.52303 37.9525 6.86203C36.8247 5.20102 35.0577 4.44932 33.0916 4.44932C31.1255 4.44932 29.3585 5.23739 28.2307 6.80747Z" fill="#006CB6"/>
<path d="M54.8632 22.6113C54.8632 24.3572 53.9344 24.9998 52.288 24.9998C50.6415 24.9998 49.7972 24.2723 49.7972 22.6113V4.77061C49.7972 1.80019 50.9853 0.636274 53.9103 0.636274H59.4406C61.1172 0.636274 63.1195 0.751453 64.5669 1.62439C66.9129 3.04898 68.101 5.46775 68.101 8.20174C68.101 10.9357 67.0034 13.5 64.7418 14.9246C63.2944 15.8581 61.1534 16.0885 59.4406 16.0885H54.8692V22.6052L54.8632 22.6113ZM59.2054 11.6996C61.4369 11.6996 62.9386 10.7418 62.9386 8.32299C62.9386 5.90422 61.4067 5.03734 59.2054 5.03734H55.8161C55.2069 5.03734 54.8632 5.38894 54.8632 5.99515V11.6996H59.2054Z" fill="#006CB6"/>
<path d="M77.9012 22.6113C77.9012 24.3572 76.9725 24.9998 75.326 24.9998C73.6796 24.9998 72.8654 24.2723 72.8654 22.6113V2.3579C72.8654 0.612025 73.7942 -0.000244141 75.4406 -0.000244141C77.0871 -0.000244141 77.9012 0.696895 77.9012 2.3579V22.6113Z" fill="#006CB6"/>
<path d="M85.8982 3.69762C88.1297 0.993936 91.2235 -0.000244141 94.643 -0.000244141C98.3762 -0.000244141 102.17 1.68501 103.852 5.20708C104.142 5.81935 104.371 6.51649 104.371 7.21363C104.371 8.69883 103.243 9.3111 101.88 9.3111C100.143 9.3111 99.8236 8.49879 99.5944 7.74103C99.3894 7.0742 99.0999 6.371 98.6114 5.87997C97.568 4.80092 95.8914 4.45538 94.444 4.45538C89.6977 4.45538 88.2201 8.41392 88.2201 12.5483C88.2201 16.6826 89.6977 20.5199 94.3596 20.5199C95.6924 20.5199 97.4595 20.2289 98.4124 19.2408C99.0215 18.5982 99.311 17.9011 99.5401 17.0584C99.8296 15.9551 100.119 15.0822 102.031 15.0822C103.364 15.0822 104.431 15.7248 104.431 17.1797C104.431 18.7194 103.593 20.4653 102.634 21.6292C100.638 24.0723 97.5077 25.0058 94.438 25.0058C87.026 25.0058 83.0335 19.6833 83.0335 12.5483C83.0335 9.31717 83.8176 6.20732 85.8982 3.70368V3.69762Z" fill="#006CB6"/>
<path d="M125.28 2.29728C126.408 3.2854 127.391 4.88579 127.391 6.45587C127.391 7.85014 126.149 8.34723 124.96 8.34723C123.308 8.34723 122.729 7.79559 122.295 6.60136C121.655 4.88579 120.558 4.44932 118.326 4.44932C116.939 4.44932 114.388 4.7403 114.388 6.63167C114.388 8.08656 115.486 8.75339 118.007 9.60208C118.905 9.89306 119.828 10.2447 120.672 10.5356C122.554 11.2025 124.176 11.8451 125.395 12.6331C127.132 13.7667 128 15.2519 128 17.3737C128 19.3802 127.192 21.1867 125.769 22.5507C123.857 24.3814 121.396 24.9937 118.821 24.9937C116.011 24.9937 113.001 24.3511 110.914 22.3749C109.817 21.3261 108.743 19.6954 108.743 18.1254C108.743 16.5553 110.106 16.0582 111.433 16.0582C113.254 16.0582 113.52 16.6402 113.924 17.9799C114.533 20.0167 116.758 20.5138 118.616 20.5138C119.629 20.5138 120.992 20.3683 121.83 19.7864C122.439 19.3802 122.813 18.6831 122.813 17.8344C122.813 17.3979 122.639 16.9311 122.319 16.6402C121.42 15.8521 118.93 15.0095 117.747 14.6033C115.576 13.8758 112.362 12.8877 110.74 11.257C109.696 10.2083 109.208 8.6079 109.208 7.15301C109.208 5.03128 110.076 3.16416 111.813 1.8305C113.55 0.490784 116.011 -0.000244141 118.152 -0.000244141C120.672 -0.000244141 123.362 0.612025 125.274 2.29728H125.28Z" fill="#006CB6"/>
</svg>
