<svg width="213" height="42" viewBox="0 0 213 42" fill="none" xmlns="http://www.w3.org/2000/svg">
<path d="M3.74 8.31C1.29 8.31 0 7.16 0 4.66C0 2.16 1.3 1.06 3.74 1.06H27.74C30.19 1.06 31.44 2.21 31.44 4.66C31.44 7.11 30.19 8.31 27.74 8.31H19.92V37.3C19.92 40.13 18.43 41.24 15.74 41.24C13.05 41.24 11.56 40.14 11.56 37.3V8.31H3.74Z" fill="#006CB6"/>
<path d="M67.12 4.03C72.16 8.21 73.94 14.25 73.94 20.59C73.94 26.93 72.16 33.07 67.12 37.2C63.62 40.03 59.29 41.23 54.88 41.23C50.47 41.23 46.09 40.03 42.64 37.2C37.55 33.02 35.78 26.97 35.78 20.59C35.78 14.21 37.56 8.2 42.64 4.03C46.1 1.2 50.42 0 54.88 0C59.34 0 63.62 1.15 67.12 4.03ZM46.81 11.23C44.84 13.92 44.36 17.33 44.36 20.59C44.36 23.85 44.84 27.07 46.81 29.9C48.68 32.64 51.56 33.84 54.87 33.84C58.18 33.84 60.97 32.64 62.93 29.9C64.9 27.16 65.33 23.9 65.33 20.59C65.33 17.28 64.8 14.06 62.93 11.32C61.06 8.58 58.13 7.34 54.87 7.34C51.61 7.34 48.68 8.64 46.81 11.23Z" fill="#006CB6"/>
<path d="M90.97 37.3C90.97 40.18 89.43 41.24 86.7 41.24C83.97 41.24 82.57 40.04 82.57 37.3V7.87C82.57 2.97 84.54 1.05 89.39 1.05H98.56C101.34 1.05 104.66 1.24 107.06 2.68C110.95 5.03 112.92 9.02 112.92 13.53C112.92 18.04 111.1 22.27 107.35 24.62C104.95 26.16 101.4 26.54 98.56 26.54H90.98V37.29L90.97 37.3ZM98.17 19.3C101.87 19.3 104.36 17.72 104.36 13.73C104.36 9.74 101.82 8.31 98.17 8.31H92.55C91.54 8.31 90.97 8.89 90.97 9.89V19.3H98.17Z" fill="#006CB6"/>
<path d="M129.17 37.3C129.17 40.18 127.63 41.24 124.9 41.24C122.17 41.24 120.82 40.04 120.82 37.3V3.89C120.82 1.01 122.36 0 125.09 0C127.82 0 129.17 1.15 129.17 3.89V37.3Z" fill="#006CB6"/>
<path d="M142.43 6.1C146.13 1.64 151.26 0 156.93 0C163.12 0 169.41 2.78 172.2 8.59C172.68 9.6 173.06 10.75 173.06 11.9C173.06 14.35 171.19 15.36 168.93 15.36C166.05 15.36 165.52 14.02 165.14 12.77C164.8 11.67 164.32 10.51 163.51 9.7C161.78 7.92 159 7.35 156.6 7.35C148.73 7.35 146.28 13.88 146.28 20.7C146.28 27.52 148.73 33.85 156.46 33.85C158.67 33.85 161.6 33.37 163.18 31.74C164.19 30.68 164.67 29.53 165.05 28.14C165.53 26.32 166.01 24.88 169.18 24.88C171.39 24.88 173.16 25.94 173.16 28.34C173.16 30.88 171.77 33.76 170.18 35.68C166.87 39.71 161.68 41.25 156.59 41.25C144.3 41.25 137.68 32.47 137.68 20.7C137.68 15.37 138.98 10.24 142.43 6.11V6.1Z" fill="#006CB6"/>
<path d="M207.73 3.79C209.6 5.42 211.23 8.06 211.23 10.65C211.23 12.95 209.17 13.77 207.2 13.77C204.46 13.77 203.5 12.86 202.78 10.89C201.72 8.06 199.9 7.34 196.2 7.34C193.9 7.34 189.67 7.82 189.67 10.94C189.67 13.34 191.49 14.44 195.67 15.84C197.16 16.32 198.69 16.9 200.09 17.38C203.21 18.48 205.9 19.54 207.92 20.84C210.8 22.71 212.24 25.16 212.24 28.66C212.24 31.97 210.9 34.95 208.54 37.2C205.37 40.22 201.29 41.23 197.02 41.23C192.36 41.23 187.37 40.17 183.91 36.91C182.09 35.18 180.31 32.49 180.31 29.9C180.31 27.31 182.57 26.49 184.77 26.49C187.79 26.49 188.23 27.45 188.9 29.66C189.91 33.02 193.6 33.84 196.68 33.84C198.36 33.84 200.62 33.6 202.01 32.64C203.02 31.97 203.64 30.82 203.64 29.42C203.64 28.7 203.35 27.93 202.82 27.45C201.33 26.15 197.2 24.76 195.24 24.09C191.64 22.89 186.31 21.26 183.62 18.57C181.89 16.84 181.08 14.2 181.08 11.8C181.08 8.3 182.52 5.22 185.4 3.02C188.28 0.81 192.36 0 195.91 0C200.09 0 204.55 1.01 207.72 3.79H207.73Z" fill="#006CB6"/>
</svg>
