<svg width="190" height="184" viewBox="0 0 190 184" fill="none" xmlns="http://www.w3.org/2000/svg">
<path d="M10.4214 84.21C8.0384 86.5935 4.17339 86.5935 1.78726 84.21C-0.595754 81.8265 -0.595754 77.9607 1.78726 75.574C4.17028 73.1905 8.03529 73.1905 10.4214 75.574C12.8044 77.9576 12.8044 81.8234 10.4214 84.21ZM77.1832 172.866C74.8001 175.25 74.8001 179.116 77.1832 181.502C79.5662 183.886 83.4312 183.886 85.8173 181.502C88.2003 179.119 88.2003 175.253 85.8173 172.866C83.4343 170.483 79.5693 170.483 77.1832 172.866ZM160.294 55.1976C162.677 52.8141 162.677 48.9483 160.294 46.5617C157.911 44.1781 154.046 44.1781 151.659 46.5617C149.276 48.9452 149.276 52.811 151.659 55.1976C154.042 57.5811 157.907 57.5811 160.294 55.1976ZM118.726 10.4236C121.109 8.04008 121.109 4.17426 118.726 1.78764C116.343 -0.595879 112.478 -0.595879 110.092 1.78764C107.709 4.17115 107.709 8.03697 110.092 10.4236C112.475 12.8071 116.34 12.8071 118.726 10.4236ZM178.283 106.283L170.22 114.347C167.837 116.731 163.972 116.731 161.586 114.347C159.203 111.964 159.203 108.098 161.586 105.711L185.864 81.4318C190.633 76.6617 190.633 68.93 185.864 64.163C181.094 59.3929 173.364 59.3929 168.598 64.163L152.974 79.791L153.489 79.2752C151.106 81.6587 147.241 81.6587 144.855 79.2752C142.469 76.8917 142.472 73.0258 144.855 70.6392L148.565 66.9288C150.948 64.5452 150.948 60.6794 148.565 58.2928C146.182 55.9093 142.317 55.9093 139.931 58.2928L139.194 59.0293C136.811 61.4128 132.946 61.4128 130.56 59.0293C128.177 56.6458 128.177 52.7799 130.56 50.3933L136.616 44.3366C141.385 39.5665 141.385 31.8348 136.616 27.0678C131.847 22.2977 124.116 22.2977 119.35 27.0678L117.931 28.488L112.09 34.3302C109.707 36.7137 105.841 36.7137 103.455 34.3302C101.072 31.9467 101.072 28.0809 103.455 25.6943L107.212 21.9372C109.595 19.5537 109.595 15.6878 107.212 13.3012C104.829 10.9177 100.964 10.9177 98.5775 13.3012L83.9438 27.9379C81.5608 30.3214 77.6958 30.3214 75.3097 27.9379C72.9267 25.5544 72.9267 21.6886 75.3097 19.302L76.8259 17.7855C79.2089 15.4019 79.2089 11.5361 76.8259 9.14949C74.4429 6.76597 70.5778 6.76597 68.1917 9.14949L13.6495 63.7031C11.2665 66.0866 11.2665 69.9524 13.6495 72.339C16.0325 74.7226 19.8976 74.7226 22.2837 72.339L24.8407 69.7815C27.2237 67.398 31.0887 67.398 33.4749 69.7815C35.8579 72.165 35.8579 76.0308 33.4749 78.4175L24.9867 86.9074L12.9971 98.8995C8.22794 103.67 8.22794 111.401 12.9971 116.168C17.7662 120.939 25.4963 120.939 30.2623 116.168L31.5206 114.944C33.9191 112.94 37.4921 113.061 39.7446 115.314C42.1277 117.697 42.1277 121.563 39.7446 123.947L28.5877 135.106C26.2046 137.489 26.2046 141.355 28.5877 143.742C30.9707 146.125 34.8357 146.125 37.2218 143.742L39.6825 141.281C42.0655 138.897 45.9305 138.897 48.3167 141.281C50.7028 143.664 50.6997 147.53 48.3167 149.917L40.1081 158.127C35.339 162.897 35.339 170.629 40.1081 175.396C44.8773 180.166 52.6073 180.166 57.3734 175.396L81.7255 151.039C84.1085 148.655 87.9735 148.655 90.3597 151.039C92.7458 153.422 92.7427 157.288 90.3597 159.675L88.393 161.642C86.01 164.025 86.01 167.891 88.393 170.278C90.776 172.661 94.641 172.661 97.0271 170.278L115.451 151.85C117.834 149.466 121.699 149.466 124.085 151.85C126.468 154.233 126.468 158.099 124.085 160.486L116.7 167.872C114.317 170.256 114.317 174.122 116.7 176.508C119.083 178.892 122.948 178.892 125.334 176.508L186.914 114.916C189.297 112.532 189.297 108.667 186.914 106.28C184.531 103.897 180.666 103.897 178.28 106.28L178.283 106.283Z" fill="url(#paint0_linear_232_2773)"/>
<defs>
<linearGradient id="paint0_linear_232_2773" x1="28.5091" y1="163.166" x2="159.928" y2="35.5153" gradientUnits="userSpaceOnUse">
<stop stop-color="#CAEDC2"/>
<stop offset="1" stop-color="#FFEDA6"/>
</linearGradient>
</defs>
</svg>
