<svg width="308" height="298" viewBox="0 0 308 298" fill="none" xmlns="http://www.w3.org/2000/svg">
<path d="M16.9436 136.912C13.0692 140.787 6.78526 140.787 2.9058 136.912C-0.968601 133.037 -0.968601 126.752 2.9058 122.871C6.78021 118.996 13.0641 118.996 16.9436 122.871C20.818 126.747 20.818 133.032 16.9436 136.912ZM125.488 281.053C121.613 284.928 121.613 291.213 125.488 295.094C129.362 298.969 135.646 298.969 139.525 295.094C143.4 291.218 143.4 284.933 139.525 281.053C135.651 277.178 129.367 277.178 125.488 281.053ZM260.612 89.7426C264.486 85.8673 264.486 79.5821 260.612 75.7018C256.737 71.8266 250.453 71.8266 246.574 75.7018C242.7 79.577 242.7 85.8623 246.574 89.7426C250.448 93.6178 256.732 93.6178 260.612 89.7426ZM193.029 16.9471C196.904 13.0719 196.904 6.78668 193.029 2.90641C189.155 -0.968804 182.871 -0.968804 178.992 2.90641C175.117 6.78163 175.117 13.0668 178.992 16.9471C182.866 20.8223 189.15 20.8223 193.029 16.9471ZM289.859 172.799L276.751 185.911C272.877 189.786 266.593 189.786 262.713 185.911C258.839 182.035 258.839 175.75 262.713 171.87L302.185 132.395C309.938 124.64 309.938 112.069 302.185 104.319C294.431 96.5633 281.863 96.5633 274.114 104.319L248.711 129.728L249.549 128.889C245.675 132.764 239.391 132.764 235.512 128.889C231.632 125.014 231.637 118.728 235.512 114.848L241.543 108.815C245.417 104.94 245.417 98.655 241.543 94.7748C237.668 90.8995 231.385 90.8995 227.505 94.7748L226.308 95.9722C222.434 99.8474 216.15 99.8474 212.27 95.9722C208.396 92.097 208.396 85.8118 212.27 81.9315L222.115 72.0843C229.869 64.3288 229.869 51.7584 222.115 44.0079C214.361 36.2525 201.794 36.2525 194.045 44.0079L191.736 46.3169L182.24 55.8155C178.365 59.6907 172.081 59.6907 168.202 55.8155C164.328 51.9402 164.328 45.655 168.202 41.7748L174.309 35.6664C178.183 31.7912 178.183 25.5059 174.309 21.6257C170.435 17.7504 164.151 17.7504 160.271 21.6257L136.479 45.4226C132.605 49.2978 126.321 49.2978 122.442 45.4226C118.567 41.5474 118.567 35.2622 122.442 31.3819L124.907 28.9163C128.781 25.0411 128.781 18.7559 124.907 14.8756C121.032 11.0004 114.748 11.0004 110.869 14.8756L22.1919 103.571C18.3175 107.446 18.3175 113.731 22.1919 117.612C26.0664 121.487 32.3503 121.487 36.2297 117.612L40.387 113.454C44.2614 109.578 50.5453 109.578 54.4248 113.454C58.2992 117.329 58.2992 123.614 54.4248 127.494L40.6244 141.298L21.1312 160.795C13.3773 168.55 13.3773 181.121 21.1312 188.871C28.885 196.627 41.4529 196.627 49.2017 188.871L51.2475 186.881C55.1471 183.622 60.9562 183.819 64.6184 187.482C68.4928 191.357 68.4928 197.642 64.6184 201.517L46.479 219.661C42.6046 223.536 42.6046 229.821 46.479 233.701C50.3534 237.577 56.6373 237.577 60.5167 233.701L64.5174 229.7C68.3918 225.825 74.6757 225.825 78.5552 229.7C82.4347 233.575 82.4296 239.86 78.5552 243.741L65.2094 257.089C57.4556 264.845 57.4556 277.415 65.2094 285.166C72.9633 292.921 85.5311 292.921 93.2799 285.166L132.873 245.565C136.747 241.689 143.031 241.689 146.91 245.565C150.79 249.44 150.785 255.725 146.91 259.605L143.713 262.803C139.838 266.679 139.838 272.964 143.713 276.844C147.587 280.719 153.871 280.719 157.751 276.844L187.705 246.883C191.58 243.008 197.864 243.008 201.743 246.883C205.617 250.759 205.617 257.044 201.743 260.924L189.736 272.934C185.862 276.809 185.862 283.094 189.736 286.974C193.61 290.85 199.894 290.85 203.774 286.974L303.892 186.835C307.766 182.96 307.766 176.675 303.892 172.794C300.018 168.919 293.734 168.919 289.854 172.794L289.859 172.799Z" fill="url(#paint0_linear_232_2621)"/>
<defs>
<linearGradient id="paint0_linear_232_2621" x1="46.3513" y1="265.281" x2="260.017" y2="57.7421" gradientUnits="userSpaceOnUse">
<stop stop-color="#CAEDC2"/>
<stop offset="1" stop-color="#FFEDA6"/>
</linearGradient>
</defs>
</svg>
