<svg width="350" height="59" viewBox="0 0 350 59" fill="none" xmlns="http://www.w3.org/2000/svg">
<path d="M324.607 32.9876L321.274 36.4988L320 35.8117L324.607 32.9897V32.9876ZM334.12 27.1573L328.4 30.6619L322.324 37.0644L323.907 37.9184L334.122 27.1573H334.12ZM343.633 21.327L337.913 24.8316L324.954 38.4841L326.537 39.338L343.633 21.327ZM329.17 40.7577L349.109 19.7513L349.061 18L347.428 19.0013L327.587 39.9037L329.17 40.7577ZM349.222 23.826L349.154 21.3768L330.22 41.3256L331.802 42.1795L349.222 23.826ZM349.333 27.8985L349.265 25.4494L332.85 42.743L334.433 43.597L349.335 27.8985H349.333ZM349.446 31.9732L349.378 29.5241L335.483 44.1648L337.065 45.0188L349.448 31.9732H349.446ZM349.559 36.0458L349.491 33.5966L338.113 45.5823L339.696 46.4363L349.559 36.0458ZM349.672 40.1205L349.604 37.6713L340.746 47.0041L342.328 47.8581L349.672 40.1205ZM349.785 44.193L349.717 41.7439L343.378 48.4238L344.961 49.2777L349.787 44.1952L349.785 44.193ZM349.896 48.2677L349.828 45.8186L346.009 49.8434L347.591 50.6974L349.898 48.2677H349.896ZM350 51.9978L349.941 49.8933L348.639 51.2653L350 52V51.9978Z" fill="url(#paint0_linear_80_17084)" fill-opacity="0.8"/>
<path d="M286.647 38.3605C287.717 38.7501 288.266 39.9214 287.878 40.9759C287.484 42.0321 286.297 42.5751 285.229 42.1921C284.16 41.8025 283.61 40.6312 283.998 39.5767C284.393 38.5204 285.579 37.9775 286.647 38.3605ZM290.565 41.954C290.17 43.0102 290.722 44.1882 291.796 44.5694C292.866 44.959 294.059 44.4143 294.445 43.3532C294.84 42.2969 294.289 41.1189 293.214 40.7377C292.144 40.3481 290.951 40.8928 290.565 41.954ZM286.404 33.0858C286.01 34.1421 286.561 35.3201 287.636 35.7013C288.706 36.0909 289.899 35.5462 290.285 34.485C290.68 33.4288 290.128 32.2508 289.054 31.8696C287.984 31.4799 286.791 32.0247 286.404 33.0858ZM288.811 26.595C288.416 27.6513 288.968 28.8293 290.043 29.2104C291.112 29.6001 292.306 29.0554 292.692 27.9942C293.087 26.9379 292.535 25.7599 291.46 25.3787C290.39 24.9891 289.197 25.5339 288.811 26.595ZM292.978 35.4613C292.584 36.5176 293.135 37.6956 294.21 38.0768C295.28 38.4664 296.473 37.9217 296.859 36.8605C297.254 35.8043 296.702 34.6262 295.627 34.2451C294.558 33.8554 293.364 34.4002 292.978 35.4613ZM295.385 28.9705C294.99 30.0268 295.542 31.2048 296.616 31.5859C297.686 31.9756 298.879 31.4309 299.266 30.3697C299.66 29.3134 299.109 28.1354 298.034 27.7542C296.964 27.3646 295.771 27.9093 295.385 28.9705ZM297.139 44.3295C296.744 45.3857 297.295 46.5637 298.37 46.9449C299.44 47.3345 300.633 46.7898 301.019 45.7287C301.405 44.6675 300.862 43.4944 299.788 43.1132C298.718 42.7236 297.525 43.2683 297.139 44.3295ZM299.552 37.8368C299.157 38.8931 299.709 40.0711 300.784 40.4523C301.853 40.8419 303.046 40.2972 303.433 39.236C303.827 38.1798 303.276 37.0017 302.201 36.6206C301.131 36.2309 299.938 36.7757 299.552 37.8368ZM301.96 31.3527C301.566 32.409 302.117 33.5869 303.192 33.9681C304.262 34.3577 305.455 33.813 305.841 32.7518C306.236 31.6956 305.684 30.5176 304.61 30.1364C303.54 29.7468 302.347 30.2915 301.96 31.3527ZM291.225 20.1024C290.83 21.1587 291.381 22.3366 292.456 22.7178C293.526 23.1075 294.719 22.5627 295.105 21.5016C295.5 20.4453 294.948 19.2673 293.874 18.8861C292.804 18.4965 291.611 19.0412 291.225 20.1024ZM297.798 22.4779C297.404 23.5341 297.955 24.7121 299.03 25.0933C300.1 25.4829 301.293 24.9382 301.679 23.877C302.074 22.8208 301.522 21.6428 300.447 21.2616C299.378 20.872 298.185 21.4167 297.798 22.4779ZM293.631 13.6116C293.237 14.6678 293.788 15.8458 294.863 16.227C295.933 16.6166 297.126 16.0719 297.512 15.0107C297.907 13.9545 297.355 12.7765 296.28 12.3953C295.211 12.0056 294.017 12.5504 293.631 13.6116ZM296.038 7.12068C295.643 8.17695 296.195 9.35498 297.27 9.73615C298.339 10.1258 299.532 9.58105 299.919 8.51989C300.313 7.46362 299.762 6.28563 298.687 5.90446C297.617 5.51482 296.424 6.05952 296.038 7.12068ZM300.205 15.987C299.81 17.0433 300.362 18.2213 301.437 18.6025C302.506 18.9921 303.7 18.4474 304.086 17.3862C304.48 16.3299 303.929 15.1519 302.854 14.7708C301.784 14.3811 300.591 14.9259 300.205 15.987ZM302.612 9.49616C302.217 10.5524 302.769 11.7305 303.843 12.1116C304.913 12.5013 306.106 11.9565 306.492 10.8954C306.879 9.83422 306.336 8.66111 305.261 8.27994C304.191 7.8903 302.998 8.43501 302.612 9.49616ZM304.374 24.8601C303.979 25.9163 304.531 27.0943 305.605 27.4755C306.675 27.8651 307.868 27.3204 308.255 26.2592C308.649 25.2029 308.098 24.025 307.023 23.6438C305.953 23.2542 304.76 23.7989 304.374 24.8601ZM306.781 18.3692C306.386 19.4255 306.937 20.6035 308.012 20.9847C309.082 21.3743 310.275 20.8295 310.661 19.7684C311.056 18.7121 310.504 17.5341 309.43 17.153C308.36 16.7633 307.167 17.308 306.781 18.3692ZM309.187 11.8784C308.793 12.9346 309.344 14.1127 310.419 14.4938C311.489 14.8835 312.682 14.3387 313.068 13.2775C313.463 12.2213 312.911 11.0433 311.836 10.6621C310.767 10.2725 309.573 10.8172 309.187 11.8784ZM303.714 46.7116C303.319 47.7679 303.871 48.9459 304.946 49.3271C306.015 49.7167 307.209 49.172 307.595 48.1108C307.99 47.0546 307.438 45.8765 306.363 45.4954C305.293 45.1057 304.1 45.6505 303.714 46.7116ZM310.288 49.0871C309.893 50.1434 310.445 51.3214 311.519 51.7026C312.589 52.0922 313.782 51.5475 314.169 50.4863C314.563 49.4301 314.012 48.252 312.937 47.8709C311.867 47.4812 310.674 48.026 310.288 49.0871ZM306.128 40.219C305.733 41.2753 306.284 42.4533 307.359 42.8344C308.429 43.2241 309.622 42.6794 310.008 41.6182C310.403 40.5619 309.851 39.3839 308.777 39.0027C307.707 38.6131 306.514 39.1579 306.128 40.219ZM308.534 33.7282C308.14 34.7844 308.691 35.9624 309.766 36.3436C310.836 36.7332 312.029 36.1885 312.415 35.1273C312.81 34.0711 312.258 32.8931 311.183 32.5119C310.114 32.1223 308.92 32.667 308.534 33.7282ZM312.701 42.5945C312.307 43.6508 312.858 44.8288 313.933 45.2099C315.003 45.5996 316.196 45.0549 316.582 43.9937C316.977 42.9374 316.425 41.7594 315.35 41.3782C314.281 40.9886 313.087 41.5334 312.701 42.5945ZM315.108 36.1037C314.713 37.16 315.265 38.3379 316.34 38.7191C317.409 39.1087 318.603 38.564 318.989 37.5028C319.375 36.4417 318.832 35.2686 317.757 34.8874C316.687 34.4978 315.494 35.0425 315.108 36.1037ZM316.863 51.4693C316.469 52.5256 317.02 53.7036 318.095 54.0847C319.165 54.4744 320.358 53.9297 320.744 52.8685C321.139 51.8122 320.587 50.6342 319.513 50.253C318.443 49.8634 317.25 50.4081 316.863 51.4693ZM319.277 44.9767C318.882 46.033 319.434 47.2109 320.508 47.5921C321.578 47.9818 322.771 47.437 323.158 46.3759C323.552 45.3196 323.001 44.1416 321.926 43.7604C320.856 43.3708 319.663 43.9155 319.277 44.9767ZM321.684 38.4859C321.289 39.5421 321.84 40.7201 322.915 41.1013C323.985 41.4909 325.178 40.9462 325.564 39.885C325.959 38.8288 325.407 37.6508 324.333 37.2696C323.263 36.8799 322.07 37.4247 321.684 38.4859ZM310.941 27.2373C310.546 28.2936 311.098 29.4716 312.172 29.8528C313.242 30.2424 314.435 29.6977 314.822 28.6365C315.216 27.5802 314.665 26.4022 313.59 26.0211C312.52 25.6314 311.327 26.1762 310.941 27.2373ZM317.515 29.6128C317.12 30.6691 317.672 31.8471 318.746 32.2283C319.816 32.6179 321.009 32.0732 321.395 31.012C321.782 29.9508 321.239 28.7777 320.164 28.3966C319.094 28.0069 317.901 28.5517 317.515 29.6128ZM313.354 20.7447C312.96 21.8009 313.511 22.979 314.586 23.3601C315.656 23.7498 316.849 23.205 317.235 22.1439C317.63 21.0876 317.078 19.9096 316.004 19.5284C314.934 19.1388 313.741 19.6835 313.354 20.7447ZM315.761 14.2538C315.366 15.3101 315.918 16.4881 316.993 16.8693C318.062 17.259 319.256 16.7142 319.642 15.6531C320.028 14.5919 319.485 13.4188 318.41 13.0376C317.34 12.648 316.147 13.1927 315.761 14.2538ZM319.928 23.1202C319.533 24.1765 320.085 25.3545 321.16 25.7356C322.23 26.1253 323.423 25.5805 323.809 24.5194C324.204 23.4631 323.652 22.2851 322.577 21.904C321.507 21.5143 320.314 22.059 319.928 23.1202ZM322.337 16.636C321.942 17.6923 322.494 18.8703 323.568 19.2514C324.638 19.6411 325.831 19.0964 326.217 18.0352C326.612 16.9789 326.06 15.801 324.986 15.4198C323.916 15.0302 322.723 15.5749 322.337 16.636ZM324.09 31.995C323.696 33.0512 324.247 34.2293 325.322 34.6104C326.392 35.0001 327.585 34.4553 327.971 33.3942C328.366 32.3379 327.814 31.1599 326.739 30.7788C325.67 30.3891 324.476 30.9338 324.09 31.995ZM326.504 25.5024C326.109 26.5586 326.661 27.7367 327.735 28.1178C328.805 28.5075 329.998 27.9627 330.384 26.9016C330.779 25.8453 330.228 24.6673 329.153 24.2861C328.083 23.8965 326.89 24.4412 326.504 25.5024ZM328.91 19.0115C328.516 20.0678 329.067 21.2458 330.142 21.6269C331.212 22.0166 332.405 21.4719 332.791 20.4107C333.186 19.3545 332.634 18.1765 331.56 17.7953C330.485 17.4141 329.297 17.9504 328.91 19.0115Z" fill="url(#paint1_linear_80_17084)"/>
<path d="M8.75581 41.4094C6.05518 40.0646 3.90502 38.0189 2.40508 35.5847L17.1274 42.9103C14.3492 43.2151 11.4564 42.7503 8.75581 41.4056V41.4094ZM0.0960533 28.9257C0.225359 30.019 0.465496 31.0933 0.805384 32.1333L20.7406 42.057C21.7418 41.6875 22.706 41.2113 23.6185 40.636L0.0960533 28.9295V28.9257ZM0.35097 23.5429C0.15886 24.4343 0.0443332 25.3295 0 26.221L25.7317 39.0285C26.3857 38.438 26.9915 37.7866 27.5494 37.078L0.35097 23.5391V23.5429ZM29.9693 32.7771L2.11691 18.9144C1.91002 19.2801 1.71422 19.661 1.5295 20.0496C1.34847 20.4382 1.18222 20.8343 1.03444 21.2305L28.8868 35.0932C29.0937 34.7275 29.2895 34.3466 29.4742 33.958C29.6552 33.5695 29.8215 33.1733 29.9693 32.7771ZM5.26826 14.9754C4.61435 15.5658 4.00846 16.2173 3.4506 16.9258L30.649 30.4647C30.8411 29.5733 30.9557 28.6781 31 27.7867L5.26826 14.9792V14.9754ZM10.2557 11.9468C9.25456 12.3163 8.29031 12.7925 7.37779 13.3677L30.9003 25.0743C30.771 23.981 30.5308 22.9067 30.1909 21.8667L10.2557 11.943V11.9468ZM13.8726 11.0935L28.5912 18.4191C27.095 15.9849 24.9448 13.9392 22.2405 12.5944C19.5399 11.2497 16.6471 10.7849 13.8689 11.0897L13.8726 11.0935Z" fill="url(#paint2_linear_80_17084)"/>
<path d="M47.9492 9.15063C47.2185 9.88513 46.0231 9.89797 45.2785 9.18249C44.535 8.46077 44.5221 7.27995 45.2465 6.54443C45.9773 5.80993 47.1727 5.79717 47.9172 6.51265C48.6608 7.23436 48.6736 8.41511 47.9492 9.15063ZM43.4439 11.0271C42.7003 10.3053 41.4986 10.3171 40.7732 11.0588C40.0425 11.7933 40.0543 12.9803 40.8052 13.6968C41.5487 14.4185 42.7504 14.4068 43.4759 13.665C44.2066 12.9305 44.1948 11.7436 43.4439 11.0271ZM52.4936 10.9319C51.7501 10.2102 50.5483 10.2219 49.8229 10.9637C49.0922 11.6982 49.104 12.8853 49.8549 13.6017C50.5984 14.3235 51.8002 14.3116 52.5256 13.5699C53.2564 12.8354 53.2445 11.6484 52.4936 10.9319ZM57.07 15.3512C56.3264 14.6295 55.1247 14.6412 54.3993 15.383C53.6686 16.1175 53.6803 17.3045 54.4312 18.021C55.1748 18.7427 56.3766 18.7309 57.102 17.9892C57.8327 17.2547 57.8209 16.0677 57.07 15.3512ZM48.0192 15.4526C47.2757 14.7309 46.0739 14.7426 45.3485 15.4844C44.6178 16.2189 44.6296 17.4058 45.3805 18.1223C46.124 18.8441 47.3258 18.8323 48.0512 18.0906C48.782 17.3561 48.7701 16.1691 48.0192 15.4526ZM52.5956 19.8718C51.852 19.1501 50.6503 19.1619 49.9249 19.9036C49.1941 20.6381 49.206 21.8251 49.9569 22.5416C50.7004 23.2633 51.9022 23.2516 52.6276 22.5098C53.3583 21.7753 53.3465 20.5883 52.5956 19.8718ZM38.9695 15.5476C38.2259 14.8259 37.0242 14.8378 36.2988 15.5795C35.568 16.314 35.5799 17.501 36.3308 18.2175C37.0817 18.934 38.276 18.9274 39.0015 18.1856C39.7322 17.4511 39.7204 16.2641 38.9695 15.5476ZM43.5448 19.9732C42.8013 19.2514 41.5995 19.2633 40.8741 20.005C40.1434 20.7395 40.1552 21.9265 40.9061 22.643C41.6496 23.3647 42.8514 23.3529 43.5768 22.6111C44.3076 21.8766 44.2957 20.6896 43.5448 19.9732ZM48.1149 24.3914C47.3713 23.6697 46.1696 23.6815 45.4441 24.4233C44.7134 25.1578 44.7253 26.3448 45.4762 27.0612C46.2197 27.783 47.4214 27.7711 48.1469 27.0294C48.8776 26.2949 48.8658 25.1079 48.1149 24.3914ZM61.6453 19.7767C60.9018 19.055 59.7 19.0667 58.9746 19.8085C58.2439 20.543 58.2557 21.73 59.0066 22.4464C59.7502 23.1682 60.9519 23.1564 61.6773 22.4147C62.4081 21.6802 62.3962 20.4932 61.6453 19.7767ZM57.1709 24.2973C56.4273 23.5756 55.2256 23.5874 54.5002 24.3291C53.7695 25.0636 53.7813 26.2506 54.5322 26.9671C55.2758 27.6888 56.4775 27.6771 57.2029 26.9353C57.9337 26.2008 57.9218 25.0138 57.1709 24.2973ZM66.2217 24.1959C65.4781 23.4742 64.2764 23.486 63.551 24.2277C62.8203 24.9622 62.8321 26.1492 63.583 26.8657C64.3266 27.5874 65.5283 27.5757 66.2537 26.8339C66.9844 26.0994 66.9726 24.9124 66.2217 24.1959ZM70.7981 28.6152C70.0545 27.8935 68.8528 27.9052 68.1273 28.647C67.3966 29.3815 67.4085 30.5685 68.1594 31.285C68.9029 32.0067 70.1046 31.9949 70.8301 31.2532C71.5608 30.5187 71.549 29.3317 70.7981 28.6152ZM61.7473 28.7166C61.0037 27.9949 59.802 28.0066 59.0766 28.7484C58.3458 29.4829 58.3577 30.6699 59.1086 31.3864C59.8522 32.1081 61.0539 32.0963 61.7793 31.3546C62.51 30.6201 62.4982 29.4331 61.7473 28.7166ZM66.3237 33.1359C65.5801 32.4141 64.3784 32.4259 63.6529 33.1676C62.9222 33.9021 62.9341 35.0891 63.685 35.8056C64.4359 36.5221 65.6302 36.5156 66.3557 35.7738C67.0864 35.0393 67.0746 33.8524 66.3237 33.1359ZM52.6902 28.8169C51.9466 28.0952 50.7449 28.1069 50.0195 28.8487C49.2888 29.5832 49.3006 30.7703 50.0515 31.4868C50.7951 32.2085 51.9968 32.1966 52.7222 31.4549C53.4529 30.7204 53.4411 29.5334 52.6902 28.8169ZM57.2666 33.2362C56.523 32.5145 55.3213 32.5262 54.5959 33.2679C53.8651 34.0024 53.877 35.1895 54.6279 35.906C55.3714 36.6277 56.5731 36.6159 57.2986 35.8742C58.0293 35.1397 58.0175 33.9527 57.2666 33.2362ZM61.843 37.6554C61.0994 36.9337 59.8977 36.9455 59.1722 37.6872C58.4415 38.4217 58.4533 39.6088 59.2042 40.3253C59.9478 41.047 61.1495 41.0352 61.8749 40.2934C62.6057 39.5589 62.5939 38.3719 61.843 37.6554ZM34.4888 20.0673C33.7452 19.3456 32.5435 19.3573 31.8181 20.0991C31.0873 20.8336 31.0991 22.0206 31.85 22.7371C32.5936 23.4588 33.7953 23.447 34.5208 22.7053C35.2515 21.9708 35.2397 20.7838 34.4888 20.0673ZM30.0144 24.5879C29.2708 23.8662 28.0691 23.878 27.3437 24.6197C26.6129 25.3542 26.6247 26.5412 27.3756 27.2577C28.1192 27.9794 29.3209 27.9677 30.0464 27.2259C30.7771 26.4914 30.7653 25.3044 30.0144 24.5879ZM39.0641 24.4928C38.3205 23.7711 37.1188 23.7828 36.3934 24.5246C35.6627 25.2591 35.6745 26.4461 36.4254 27.1626C37.1689 27.8843 38.3707 27.8725 39.0961 27.1308C39.8268 26.3963 39.815 25.2093 39.0641 24.4928ZM43.6405 28.9121C42.8969 28.1903 41.6952 28.2021 40.9698 28.9438C40.239 29.6783 40.2509 30.8653 41.0018 31.5818C41.7453 32.3035 42.947 32.2918 43.6725 31.55C44.4032 30.8155 44.3914 29.6285 43.6405 28.9121ZM34.5897 29.0134C33.8461 28.2917 32.6444 28.3035 31.919 29.0452C31.1883 29.7797 31.2001 30.9667 31.951 31.6832C32.6945 32.4049 33.8963 32.3932 34.6217 31.6514C35.3524 30.9169 35.3406 29.7299 34.5897 29.0134ZM39.1661 33.4326C38.4225 32.7109 37.2208 32.7227 36.4953 33.4645C35.7646 34.199 35.7765 35.386 36.5274 36.1025C37.2783 36.819 38.4726 36.8125 39.1981 36.0707C39.9288 35.3362 39.917 34.1491 39.1661 33.4326ZM25.5336 29.1075C24.7901 28.3858 23.5884 28.3975 22.8629 29.1393C22.1322 29.8738 22.144 31.0608 22.8949 31.7773C23.6385 32.499 24.8402 32.4873 25.5657 31.7455C26.2964 31.011 26.2845 29.824 25.5336 29.1075ZM30.109 33.533C29.3654 32.8113 28.1637 32.8231 27.4383 33.5648C26.7076 34.2993 26.7194 35.4863 27.4703 36.2028C28.2139 36.9245 29.4156 36.9128 30.141 36.171C30.8717 35.4365 30.8599 34.2495 30.109 33.533ZM34.6853 37.9523C33.9418 37.2306 32.7401 37.2423 32.0146 37.9841C31.2839 38.7186 31.2958 39.9056 32.0467 40.6221C32.7902 41.3438 33.9919 41.332 34.7174 40.5903C35.4481 39.8558 35.4362 38.6688 34.6853 37.9523ZM48.2168 33.3313C47.4733 32.6096 46.2715 32.6213 45.5461 33.3631C44.8154 34.0976 44.8272 35.2846 45.5781 36.0011C46.3217 36.7228 47.5234 36.7111 48.2488 35.9693C48.9796 35.2348 48.9677 34.0478 48.2168 33.3313ZM43.7424 37.8519C42.9989 37.1302 41.7971 37.142 41.0717 37.8838C40.341 38.6183 40.3528 39.8053 41.1037 40.5217C41.8546 41.2382 43.049 41.2317 43.7744 40.49C44.5052 39.7555 44.4933 38.5684 43.7424 37.8519ZM52.7922 37.7568C52.0486 37.0351 50.8469 37.0469 50.1215 37.7886C49.3907 38.5231 49.4026 39.7101 50.1535 40.4266C50.897 41.1483 52.0987 41.1366 52.8242 40.3948C53.5549 39.6603 53.5431 38.4733 52.7922 37.7568ZM57.3686 42.1761C56.625 41.4544 55.4232 41.4661 54.6978 42.2079C53.9671 42.9424 53.9789 44.1294 54.7298 44.8459C55.4807 45.5623 56.6751 45.5558 57.4005 44.8141C58.1313 44.0796 58.1195 42.8926 57.3686 42.1761ZM48.3178 42.2774C47.5742 41.5557 46.3725 41.5675 45.647 42.3093C44.9163 43.0438 44.9282 44.2308 45.6791 44.9473C46.4226 45.669 47.6244 45.6571 48.3498 44.9154C49.0805 44.1809 49.0687 42.9939 48.3178 42.2774ZM52.8878 46.6957C52.1443 45.9739 50.9426 45.9858 50.2171 46.7275C49.4864 47.462 49.4982 48.649 50.2491 49.3655C50.9927 50.0872 52.1944 50.0754 52.9198 49.3336C53.6505 48.5991 53.6387 47.4121 52.8878 46.6957ZM39.2617 42.3715C38.5182 41.6498 37.3164 41.6616 36.591 42.4033C35.8603 43.1378 35.8721 44.3248 36.623 45.0413C37.3666 45.763 38.5683 45.7513 39.2937 45.0095C40.0244 44.275 40.0126 43.088 39.2617 42.3715ZM43.8371 46.7971C43.0935 46.0753 41.8918 46.0871 41.1663 46.8288C40.4356 47.5633 40.4475 48.7503 41.1984 49.4668C41.9419 50.1885 43.1436 50.1768 43.8691 49.435C44.5998 48.7005 44.588 47.5136 43.8371 46.7971ZM48.4134 51.2163C47.6699 50.4946 46.4682 50.5063 45.7427 51.2481C45.012 51.9826 45.0238 53.1696 45.7747 53.8861C46.5183 54.6078 47.72 54.5961 48.4454 53.8543C49.1709 53.1125 49.1643 51.9328 48.4134 51.2163Z" fill="url(#paint3_linear_80_17084)"/>
<path d="M58.8418 21.8924C57.7084 22.7535 56.4005 23.7293 55.4123 23.7293C54.1335 23.7293 53 22.5526 53 21.2897C53 20.4 53.4941 19.912 54.6276 19.1371C57.5921 17.1567 60.2369 14.8892 62.5911 12.2487L56.5167 12.3348C55.6448 12.3348 54.2207 12.2774 54.2207 10.0673C54.2207 8.68966 55.0054 7.97212 56.4005 7.94342L64.8581 7.79991L64.7999 4.03999C64.7999 3.20764 64.9162 1.82996 67.1541 1.82996C68.5782 1.82996 69.392 2.5188 69.4211 3.98258L69.4792 7.7138L74.4492 7.6277C75.1758 7.6277 76.7452 7.7425 76.7452 9.86643C76.7452 11.2441 75.9605 11.9904 74.5654 12.0191L69.5374 12.1052L69.6827 21.3758C69.6827 22.2369 69.6536 23.8155 68.927 24.82C68.2876 25.6811 66.9216 26.0255 65.4103 26.0255C63.5502 26.0255 62.0098 25.8246 62.0098 23.5858C62.0098 22.5813 62.5911 21.5767 63.7246 21.5767C63.899 21.5767 64.1605 21.6341 64.3059 21.6341H64.4512C64.9743 21.6341 65.0615 21.4906 65.0615 20.7444L65.0034 16.0373C63.1433 18.1899 61.1088 20.1703 58.8418 21.8924Z" fill="#E9545D"/>
<path d="M103.709 11.7677C105.133 11.7677 106.063 12.7149 106.063 14.0925C106.063 15.4702 105.133 16.4461 103.709 16.4461H83.4225C81.9984 16.4461 81.0684 15.4989 81.0684 14.0925C81.0684 12.6862 81.9693 11.7677 83.4225 11.7677H103.709Z" fill="#E9545D"/>
<path d="M112.37 9.64377C110.975 9.64377 110.162 8.75402 110.162 7.37633C110.162 5.99865 110.946 5.1089 112.37 5.1089H125.856C128.472 5.1089 130.012 5.94125 130.012 8.78272C130.012 10.5335 129.431 12.2269 128.617 13.8342C127.048 16.934 124.81 19.6607 122.078 21.842C120.421 23.1623 116.003 25.9463 113.911 25.9463C112.545 25.9463 111.499 24.6835 111.499 23.3919C111.499 21.9281 112.923 21.5837 114.056 21.1244C117.253 19.8616 120.131 17.7376 122.31 15.0971C123.095 14.1212 125.042 11.3946 125.042 10.1604C125.042 9.72987 124.752 9.64377 124.374 9.64377H112.37ZM134.394 3.07108C134.394 4.73578 132.97 6.11346 131.284 6.11346C129.598 6.11346 128.203 4.73578 128.203 3.07108C128.203 1.40638 129.598 0 131.284 0C133.115 0 134.394 1.40638 134.394 3.07108ZM129.889 3.07108C129.889 3.81733 130.528 4.44876 131.284 4.44876C132.039 4.44876 132.708 3.81733 132.708 3.07108C132.708 2.32484 132.069 1.6647 131.284 1.6647C130.499 1.6647 129.889 2.29614 129.889 3.07108Z" fill="#E9545D"/>
<path d="M161.016 9.2132C161.016 9.87334 160.725 10.4187 160.377 10.9353C158.313 13.8629 155.756 16.5034 152.994 18.7709C150.117 21.1531 146.891 23.277 143.432 24.7121C142.154 25.2287 141.776 25.3148 141.311 25.3148C139.858 25.3148 138.782 23.8798 138.782 22.5308C138.782 21.1818 139.625 20.9235 141.02 20.3782C146.949 18.082 152.413 13.6333 156.133 8.58176C156.831 7.6346 157.47 6.83096 158.488 6.83096C159.795 6.83096 161.016 7.89292 161.016 9.2132ZM145.293 6.45783C146.194 7.06057 147.24 7.80681 147.24 9.01228C147.24 10.2178 146.194 11.6815 144.828 11.6815C144.246 11.6815 143.781 11.3658 142.88 10.7344C142.154 10.2465 141.427 9.75853 140.642 9.2706C139.451 8.55306 138.869 8.17994 138.869 7.17538C138.869 5.7977 140.032 4.59222 141.398 4.59222C142.415 4.59222 143.839 5.45327 145.293 6.45783Z" fill="#E9545D"/>
<path d="M173.412 4.04699C173.383 3.81737 173.354 3.58776 173.354 3.38685C173.354 1.92306 174.4 1.29163 176.028 1.29163C177.336 1.29163 177.946 2.03787 178.149 3.21464L178.672 6.31442L183.206 5.62558C183.41 5.59688 183.613 5.56818 183.788 5.56818C185.154 5.59688 185.938 6.45793 185.938 7.92172C185.938 9.21329 185.154 9.84473 183.962 10.0169L179.399 10.7058L179.806 13.1167L186.287 12.1696C186.491 12.1409 186.665 12.1122 186.868 12.1122C188.176 12.1409 189.019 13.0019 189.019 14.4657C189.019 15.7573 188.322 16.3887 187.014 16.5896L180.533 17.5368L181.608 23.9373C181.666 24.2817 181.724 24.7696 181.724 24.9705C181.724 26.4056 180.794 27.0657 179.108 27.0657C177.713 27.0657 177.161 26.4056 176.929 25.0853L175.766 18.2256L168.413 19.2876C168.239 19.3163 168.064 19.345 167.89 19.345C166.524 19.345 165.71 18.4552 165.71 16.9627C165.71 15.6999 166.495 15.0397 167.686 14.8675L175.039 13.8056L174.633 11.3946L169.75 12.1122C169.575 12.1409 169.401 12.1696 169.227 12.1696C167.861 12.1696 167.018 11.3085 167.018 9.81603C167.018 8.55315 167.803 7.92172 168.994 7.74951L173.906 7.00326L173.412 4.04699Z" fill="#E9545D"/>
<path d="M207.889 25.6523C207.918 25.8246 207.918 25.9681 207.918 26.1403C207.918 27.3457 206.872 28.0346 205.738 28.0346C204.75 28.0346 204.081 27.518 203.878 26.5134L202.018 17.3289L197.658 18.1612C197.513 18.1899 197.339 18.1899 197.164 18.1899C196.002 18.1899 195.362 17.3289 195.362 16.2095C195.362 15.2623 195.856 14.5735 196.903 14.4013L201.262 13.6263L200.536 9.86642C200.507 9.69421 200.478 9.522 200.478 9.34979C200.478 8.14432 201.437 7.51288 202.686 7.51288C203.675 7.51288 204.343 8.05821 204.547 9.00537L205.331 12.8801L212.161 11.6459C212.423 11.5885 212.568 11.5885 212.772 11.5885C213.934 11.5885 214.98 12.3922 214.98 13.5976C214.98 14.717 213.498 16.7261 212.597 17.9316C212.045 18.6778 211.464 19.4528 210.795 20.0842C210.417 20.4573 209.894 20.687 209.487 20.687C208.441 20.687 207.395 19.8546 207.395 18.7926C207.395 18.1612 207.773 17.7307 208.383 17.0705C208.732 16.6974 209.08 16.3243 209.4 15.9225L206.058 16.5539L207.889 25.6523Z" fill="#E9545D"/>
<path d="M242.351 9.2132C242.351 9.87334 242.06 10.4187 241.712 10.9353C239.648 13.8629 237.09 16.5034 234.329 18.7709C231.452 21.1531 228.226 23.277 224.767 24.7121C223.489 25.2287 223.111 25.3148 222.646 25.3148C221.193 25.3148 220.117 23.8798 220.117 22.5308C220.117 21.1818 220.96 20.9235 222.355 20.3782C228.284 18.082 233.748 13.6333 237.468 8.58176C238.166 7.6346 238.805 6.83096 239.823 6.83096C241.13 6.83096 242.351 7.89292 242.351 9.2132ZM226.635 6.45783C227.536 7.06057 228.582 7.80681 228.582 9.01228C228.582 10.2178 227.536 11.6815 226.17 11.6815C225.588 11.6815 225.123 11.3658 224.222 10.7344C223.496 10.2465 222.769 9.75853 221.985 9.2706C220.793 8.55306 220.212 8.17994 220.212 7.17538C220.212 5.7977 221.374 4.59222 222.74 4.59222C223.757 4.59222 225.182 5.45327 226.635 6.45783Z" fill="#E9545D"/>
<path d="M255.677 9.09821C255.677 9.87316 255.27 10.9351 254.689 12.2554C253.701 14.5228 252.364 16.7329 250.823 18.7133C249.748 20.1197 248.207 22.014 246.725 22.014C245.359 22.014 243.935 20.952 243.935 19.5456C243.935 18.742 244.4 18.2828 245.272 17.393C248.004 14.6663 249.457 12.0258 250.765 8.35197C251.143 7.29001 251.87 6.91689 252.858 6.91689C254.166 6.91689 255.677 7.63443 255.677 9.09821ZM264.512 8.8112C265.181 9.64355 265.82 10.5046 266.431 11.3656C267.477 12.8868 270.499 17.4217 270.499 19.0864C270.499 20.5215 269.046 21.5835 267.68 21.5835C266.198 21.5835 265.762 20.5215 265.268 19.3447C264.018 16.4458 262.303 13.834 260.298 11.3656C259.891 10.8777 259.542 10.3611 259.542 9.70095C259.542 8.38067 260.85 7.43352 262.1 7.43352C263.233 7.43352 263.844 8.00755 264.512 8.8112ZM270.732 5.02257C270.732 6.74467 269.25 8.20846 267.477 8.20846C265.704 8.20846 264.222 6.74467 264.222 5.02257C264.222 3.30047 265.704 1.80798 267.477 1.80798C269.25 1.80798 270.732 3.27177 270.732 5.02257ZM265.995 5.02257C265.995 5.79752 266.663 6.48636 267.477 6.48636C268.291 6.48636 268.959 5.79752 268.959 5.02257C268.959 4.24763 268.291 3.53009 267.477 3.53009C266.663 3.53009 265.995 4.21893 265.995 5.02257Z" fill="#E9545D"/>
<path d="M295.64 18.3403C296.803 19.517 297.587 20.3494 297.587 21.3827C297.587 22.7316 296.367 23.9658 295.001 23.9658C294.071 23.9658 293.489 23.3918 292.763 22.502C291.309 20.7512 289.769 19.1439 287.996 17.7375C286.02 19.5457 283.84 21.153 281.486 22.4446C280.44 23.0187 278.579 24.0519 277.533 24.0519C276.167 24.0519 275.092 22.8464 275.092 21.5262C275.092 20.292 275.993 19.8615 277.01 19.4309C281.951 17.307 286.107 13.8341 289.042 9.35665H280.527C279.044 9.35665 278.202 8.6391 278.202 7.14661C278.202 5.65413 279.044 4.93658 280.527 4.93658H291.891C293.547 4.93658 295.001 5.53932 295.001 7.40493C295.001 9.27054 292.298 12.8583 291.164 14.322C292.763 15.5562 294.245 16.9052 295.64 18.3403Z" fill="#E9545D"/>
<path d="M89.7858 38.6119H89.1755C88.2745 38.6119 87.4025 38.6406 86.5306 38.6406C85.1937 38.6406 84.409 38.4397 84.409 36.8898C84.409 35.3399 85.8331 35.1677 86.5888 35.1677H87.0828C87.7804 35.1677 88.4779 35.139 89.1755 35.139C89.6986 34.3354 90.1055 33.6752 90.4542 33.1299C91.3843 31.6661 91.8784 31.0347 93.07 31.0347C94.0872 31.0347 95.6567 31.4078 95.6567 32.642C95.6567 33.3021 94.8429 34.3067 94.0582 35.2251H94.6976C96.9936 35.2251 99.3187 35.1677 101.615 35.139C100.888 34.5363 100.423 34.1632 100.423 33.5317C100.423 32.3836 101.702 31.5513 102.777 31.5513C103.33 31.5513 103.766 31.8096 104.231 32.0966C105.19 32.7281 106.091 33.4169 106.992 34.1345C108.445 35.2251 109.782 36.2297 109.782 37.3203C109.782 38.411 108.706 39.4443 107.515 39.4443C106.73 39.4443 106.352 39.0998 105.19 38.0666C102.865 38.2675 100.568 38.3536 98.2434 38.411C98.0399 38.8415 97.8365 39.2434 97.604 39.6452H109.113C110.334 39.6452 111.235 40.1331 111.235 41.4534C111.235 42.7737 110.421 43.2329 109.113 43.2329H104.986C106.527 44.2948 106.759 44.5245 108.881 45.3855C110.043 45.8447 111.177 46.0744 111.177 47.5094C111.177 48.6001 110.45 49.863 109.23 49.863C107.864 49.863 104.957 47.8539 103.824 47.0215C102.283 45.8734 101.063 44.6967 99.8419 43.2329H95.1045C94 44.5245 92.605 45.7299 91.268 46.7632C93.7675 46.1605 94.901 45.6725 97.139 44.4384C97.5168 44.2374 97.9527 44.0078 98.3887 44.0078C99.2606 44.0078 99.9872 44.8976 99.9872 45.7299C99.9872 46.1605 99.8128 46.4475 99.4641 46.7058C98.7956 47.1937 97.2552 47.94 96.4705 48.2844C94.9882 48.8871 91.5587 50.0065 90.0183 50.0065C89.1754 50.0065 88.7395 49.2889 88.6523 48.5427C87.8385 49.0019 86.6178 49.6621 85.6587 49.6621C84.438 49.6621 83.7114 48.4853 83.7114 47.3946C83.7114 46.304 84.3799 45.9882 85.3681 45.5864C86.8794 44.9263 88.3035 44.18 89.6114 43.2329H85.8622C84.6706 43.2329 83.7405 42.745 83.7405 41.4534C83.7405 40.1618 84.6706 39.6452 85.8622 39.6452H93.4188C93.7094 39.3008 93.9129 38.9563 94.1163 38.5545C92.6631 38.5832 91.239 38.6119 89.7858 38.6119ZM88.2454 51.1259C92.7794 50.5805 96.732 49.7195 100.714 47.3659C101.063 47.1363 101.499 46.9067 101.934 46.9067C102.806 46.9067 103.562 47.8539 103.562 48.6575C103.562 49.088 103.33 49.4038 103.01 49.6908C102.08 50.5231 99.4059 51.5851 98.2143 52.0443C95.6567 52.9628 90.5996 54.2256 87.9548 54.2256C86.8794 54.2256 86.4434 53.422 86.4434 52.5896C86.4434 51.4703 87.2863 51.2407 88.2454 51.1259ZM107.776 51.8721C107.776 52.647 107.195 53.1637 106.585 53.5655C104.696 54.8284 102.283 55.8329 100.133 56.5792C97.5749 57.4402 94.9301 58.0143 92.2271 58.33C91.2099 58.4448 89.4951 58.617 88.4779 58.617C87.2572 58.617 86.5016 57.9569 86.5016 56.7227C86.5016 55.2589 87.6641 55.1154 88.9429 55.0006C94.2616 54.5414 99.7547 53.5081 104.231 50.437C104.696 50.1213 105.19 49.8056 105.8 49.8056C106.846 49.8056 107.776 50.8388 107.776 51.8721Z" fill="#E9545D"/>
<path d="M121.197 50.6669C120.673 52.8196 119.801 55.4027 118.581 57.2683C118.174 57.8998 117.651 58.3303 116.866 58.3303C115.674 58.3303 114.221 57.3544 114.221 56.0916C114.221 55.5175 114.512 54.9435 115.035 54.0537C116.604 51.2984 117.215 49.318 117.651 46.2182C117.912 44.2952 118.058 42.3434 118.058 40.4204H116.575C114.89 40.4204 114.454 39.6742 114.454 38.0956C114.454 36.6892 115.209 36.1439 116.575 36.1439H118.058V33.3885C118.058 31.7812 118.784 31.2646 120.325 31.2646C121.749 31.2646 122.301 32.0682 122.301 33.3885V36.1439H124.829C125.876 36.1439 126.922 36.2013 127.678 37.0623C128.317 37.7799 128.375 38.8131 128.375 39.789C128.375 43.3193 128.259 46.046 128.172 49.4041C128.114 51.2697 127.939 55.6323 127.096 57.1535C126.341 58.5312 124.597 58.5886 123.173 58.5886C122.563 58.5886 121.342 58.5886 120.819 58.2729C120.15 57.8711 119.889 56.8665 119.889 56.1203C119.889 54.9435 120.354 53.9963 121.691 53.9963H122.214C122.65 53.9963 123.202 53.9676 123.405 53.164C123.958 51.0975 124.045 43.7498 124.045 41.2815C124.045 40.5352 123.958 40.4204 123.202 40.4204H122.301C122.243 43.6637 121.952 47.5097 121.197 50.6669ZM141.011 54.1614C141.011 56.888 139.877 58.0074 137.145 58.0074H133.716C130.955 58.0074 129.821 56.888 129.821 54.1614V36.4309C129.821 33.7042 130.955 32.6136 133.716 32.6136H137.145C139.877 32.6136 141.011 33.7042 141.011 36.4309V54.1685V54.1614ZM134.907 36.804C134.326 36.804 134.006 37.1484 134.006 37.7225V52.9057C134.006 53.4797 134.326 53.7954 134.907 53.7954H135.925C136.506 53.7954 136.826 53.4797 136.826 52.9057V37.7225C136.826 37.091 136.506 36.804 135.925 36.804H134.907Z" fill="#E9545D"/>
<path d="M172.393 49.4322C172.393 50.2645 171.55 50.8385 170.765 50.8385C169.98 50.8385 169.573 50.2645 169.167 49.6618C168.76 49.0877 168.382 48.5424 167.946 48.0258C167.742 47.7962 167.539 47.5666 167.394 47.3082C167.336 49.4609 165.97 49.6618 164.633 49.6618H162.424C162.22 49.9488 162.046 50.121 161.784 50.3793H167.83C168.876 50.3793 169.777 50.6376 169.777 51.8431C169.777 53.5078 168.033 54.455 166.754 55.1438C168.207 55.3734 169.719 55.4021 171.201 55.4882C172.218 55.5456 172.829 55.8613 172.829 56.952C172.829 58.2436 172.131 58.6454 170.939 58.6454C168.672 58.6454 164.226 57.8705 162.104 57.0955C160.157 57.7557 155.942 58.6454 153.908 58.6454C152.833 58.6454 152.193 58.1288 152.193 57.0094C152.193 55.9474 152.862 55.6604 153.85 55.603C155.361 55.5169 156.843 55.4308 158.355 55.2012C157.686 54.7707 157.134 54.3115 156.553 53.7661C155.855 54.0531 154.518 54.5698 153.792 54.5698C152.978 54.5698 152.542 53.967 152.542 53.2208C152.542 52.4745 153.065 52.1588 153.995 51.7857C155.216 51.2978 157.105 50.5515 158.471 49.4896C157.715 49.1451 157.628 48.5711 157.628 47.8249V47.2508C157.425 47.8536 156.814 48.7146 156.408 49.2313C155.681 50.2071 154.925 50.9821 154.199 50.9821C153.385 50.9821 152.658 50.2071 152.658 49.4322C152.658 49.1164 152.775 48.8581 152.978 48.6285C153.21 48.3415 153.559 48.0832 153.937 47.7101C152.891 47.5666 152.513 46.9925 152.513 46.0167V45.3852C152.513 44.4381 152.658 43.2613 153.85 43.0891L154.257 43.0317V39.1857C154.257 36.2294 154.809 35.6841 157.773 35.6841H159.953C160.011 35.4544 160.099 35.1961 160.157 34.9378H155.1C154.344 34.9378 153.675 34.7656 153.414 33.9907C153.094 35.7702 152.513 37.4636 151.903 39.157V56.5789C151.903 57.9279 151.292 58.7315 149.868 58.7315C148.444 58.7315 147.863 57.8992 147.863 56.5789V45.988C147.601 46.1315 147.369 46.1889 147.078 46.1889C145.741 46.1889 144.869 44.8399 144.869 43.6344C144.869 42.716 145.334 42.0271 146.206 40.793C147.776 38.5829 148.677 35.7128 149.345 33.1009C149.636 31.9241 150.013 31.3501 151.35 31.3501C152.309 31.3501 153.298 31.7232 153.501 32.7278C153.879 32.0963 154.402 32.0102 155.1 32.0102H171.085C172.16 32.0102 172.829 32.3834 172.829 33.5314C172.829 34.5934 172.044 34.9378 171.085 34.9378H164.284C164.197 35.1961 164.08 35.4544 163.964 35.6841H167.19C170.155 35.6841 170.707 36.2294 170.707 39.1857V43.0317L171.056 43.0891C172.276 43.2613 172.422 44.4094 172.422 45.3852V46.0167C172.422 46.7916 172.189 47.3943 171.346 47.6527C172.044 48.3989 172.393 48.8581 172.393 49.4322ZM168.178 44.9547H163.586C163.935 45.213 164.197 45.4139 164.197 45.8732C164.197 46.4185 163.557 47.136 162.889 47.136C162.656 47.136 162.424 47.0212 162.162 46.849C161.726 46.562 161.29 46.2463 160.941 46.0167C160.389 45.6435 160.186 45.5 160.186 45.1269V44.9547H156.669C156.378 44.9547 156.175 45.0695 156.175 45.4139V45.6435C156.756 45.7009 157.425 45.988 157.657 46.562C157.744 45.7009 158.355 45.3278 159.169 45.3278C160.04 45.3278 160.68 45.7009 160.68 46.6481V46.9351C160.68 47.423 160.738 47.6814 161.348 47.6814H163.528C164.284 47.6814 164.4 47.6527 164.516 47.136C164.691 46.3611 164.952 46.0454 165.795 46.0454C166.289 46.0454 166.9 46.2463 167.19 46.6481C167.219 45.9019 167.946 45.4139 168.672 45.3565C168.643 45.0695 168.44 44.9547 168.178 44.9547ZM166.609 38.4394V38.0376C166.609 37.7219 166.464 37.5784 166.144 37.5784H158.733C158.384 37.5784 158.239 37.7219 158.239 38.0376V38.4394H166.609ZM158.239 39.8458V40.7068H166.609V39.8458H158.239ZM158.239 42.0845V42.9743H166.609V42.0845H158.239ZM164.284 53.3858C164.691 53.1562 164.807 53.0127 164.807 52.8405C164.807 52.5248 164.574 52.4961 164.342 52.4961H159.517C160.564 53.2136 161.436 53.6441 162.627 54.1321C163.063 53.9599 163.819 53.6441 164.284 53.3858Z" fill="#E9545D"/>
<path d="M188.363 53.8812H202.198C203.476 53.8812 204.232 54.6275 204.232 55.8904C204.232 57.2393 203.506 57.9569 202.169 57.9569H188.945C186.154 57.9569 184.178 57.4402 182.289 55.3163C181.911 55.8617 181.475 56.407 181.039 56.9236C180.458 57.5837 179.818 58.3013 178.859 58.3013C177.493 58.3013 176.36 56.981 176.36 55.632C176.36 54.8284 176.941 54.197 177.9 53.4507C178.394 53.0489 178.859 52.6471 179.324 52.1878V46.7058C179.324 46.3614 179.266 45.9596 178.83 45.9596H178.278C176.854 45.9596 176.389 44.9837 176.389 43.7208C176.389 42.3144 177.174 41.7404 178.54 41.7404H179.935C182.899 41.7404 183.393 42.4293 183.393 45.2994V50.7814C183.393 53.7664 186.736 53.8812 188.363 53.8812ZM178.896 31.58C179.215 31.58 179.564 31.6661 179.884 31.8383C180.581 32.2402 181.482 32.9864 182.064 33.5317C182.645 34.0484 183.72 35.0816 184.127 35.7131C184.302 35.9714 184.418 36.3158 184.418 36.6315C184.418 37.8657 183.284 38.9851 182.064 38.9851C181.192 38.9851 180.669 38.4684 180.116 37.8944C179.564 37.2917 178.663 36.3732 178.082 35.8566C177.152 35.1103 176.629 34.565 176.629 33.8187C176.629 32.7281 177.791 31.58 178.896 31.58ZM197.17 50.0065C195.804 50.3222 191.851 51.0685 190.601 51.0685C189.526 51.0685 189.119 50.3222 189.119 49.3464C189.119 47.653 190.746 47.7965 191.996 47.7678V45.5003H189.38C189.061 45.5003 188.915 45.6438 188.915 45.9596V51.5277C188.915 52.1304 188.828 53.3359 186.968 53.3359C185.108 53.3359 184.788 52.6758 184.788 51.5277V46.1892C184.788 43.1755 185.399 42.6589 188.421 42.6589H191.996V41.8552H189.003C185.951 41.8552 185.399 41.2812 185.399 38.2962V35.6557C185.399 32.6707 185.98 32.1253 189.003 32.1253H199.146C202.169 32.1253 202.75 32.6707 202.75 35.6557V38.2962C202.75 41.2812 202.169 41.8552 199.146 41.8552H195.426V42.6589H199.756C202.779 42.6589 203.389 43.1755 203.389 46.1892V49.7195C203.389 51.2407 203.331 52.6471 201.878 53.0776C201.209 53.2785 200.163 53.3072 199.32 53.3072H198.448C197.315 53.3072 196.298 53.2498 196.298 51.7286C196.298 51.0398 196.588 50.4657 197.344 50.3509C197.257 50.2074 197.228 50.1787 197.17 50.0065ZM189.816 34.8807C189.468 34.8807 189.293 35.0242 189.293 35.3686V36.0862H191.996V34.8807H189.816ZM191.996 38.2101H189.293V38.9564C189.293 39.2721 189.468 39.4443 189.787 39.4443H191.996V38.2101ZM199.582 49.6047V45.9596C199.582 45.6438 199.437 45.5003 199.117 45.5003H195.426V47.4521C195.804 47.4234 196.152 47.3946 196.53 47.3372C196.472 47.1076 196.414 46.7345 196.414 46.5049C196.414 45.9309 196.937 45.6725 197.46 45.6725C198.187 45.6725 198.361 46.2179 198.565 46.7919C198.797 47.4521 199.291 49.0593 199.291 49.6908C199.291 49.9778 199.262 50.1213 199.059 50.3222C199.524 50.2935 199.582 50.0065 199.582 49.6047ZM195.891 36.0862H198.797V35.3399C198.797 35.0242 198.652 34.8807 198.332 34.8807H195.891V36.0862ZM198.332 39.4443C198.652 39.4443 198.797 39.3008 198.797 38.9564V38.2101H195.891V39.4443H198.332Z" fill="#E9545D"/>
<path d="M214.31 34.307V33.1015C214.31 31.609 215.095 31.2646 216.461 31.2646C217.827 31.2646 218.379 31.8099 218.379 33.1015V34.307H221.692C223.175 34.307 223.814 34.8523 223.814 36.3161C223.814 37.6651 222.942 38.1243 221.692 38.1243H218.379V39.6168H222.39C223.756 39.6168 224.483 40.1334 224.483 41.5398C224.483 42.9462 223.727 43.4915 222.39 43.4915H218.379V44.8692H220.268C223.291 44.8692 223.872 45.4432 223.872 48.4282V53.9389C223.872 56.149 223.204 56.8378 220.995 56.8378C219.774 56.8378 218.786 56.8091 218.379 55.5749V56.5795C218.379 58.1007 217.74 58.6747 216.228 58.6747C214.833 58.6747 214.31 57.8711 214.31 56.5795V48.6578H213.06C212.712 48.6578 212.537 48.8587 212.537 49.2031V55.1444C212.537 56.5221 211.956 57.2396 210.503 57.2396C209.137 57.2396 208.643 56.3786 208.643 55.1444V48.4282C208.643 45.4432 209.224 44.8692 212.247 44.8692H214.31V43.4915H209.747C208.323 43.4915 207.625 42.9175 207.625 41.4824C207.625 40.3343 208.236 39.7316 209.369 39.6455C208.439 39.4446 207.655 38.9279 207.655 37.8947C207.655 37.4929 207.916 36.8614 208.294 36.0291C208.788 34.9097 209.021 34.1922 209.34 33.0154C209.602 32.0969 210.009 31.6951 210.997 31.6951C211.985 31.6951 213.119 32.0682 213.119 33.245C213.119 33.4746 213.09 33.6468 212.915 34.307H214.31ZM210.387 39.6168H214.31V38.1243H211.665C211.404 38.7844 211.142 39.3872 210.387 39.6168ZM218.379 53.3003C218.641 52.6689 219.019 52.5828 219.6 52.5254C219.89 52.4967 220.007 52.4393 220.007 52.0087V49.196C220.007 48.8516 219.803 48.6506 219.455 48.6506H218.379V53.3003ZM228.639 50.466C228.639 51.815 227.912 52.2455 226.604 52.2455C225.384 52.2455 224.744 51.7002 224.744 50.466V35.1967C224.744 33.8764 225.442 33.3598 226.75 33.3598C228.057 33.3598 228.639 33.9625 228.639 35.1967V50.466ZM230.23 33.3885C230.23 31.9247 230.84 31.2933 232.323 31.2933C233.805 31.2933 234.328 32.0682 234.328 33.3885V55.0009C234.328 58.2729 232.381 58.4738 229.968 58.4738H228.515C226.946 58.4738 225.144 58.3877 225.144 56.0629C225.144 54.1111 226.481 53.9102 227.76 53.9102H228.806C229.997 53.9102 230.23 53.7954 230.23 52.8483V33.3885Z" fill="#E9545D"/>
<path d="M261.822 37.9231V38.2962H264.322C265.484 38.2962 266.124 38.7841 266.124 39.9896C266.124 41.1951 265.484 41.6543 264.322 41.6543H261.822V42.5154C261.822 45.5003 261.241 46.0744 258.247 46.0744H251.039C248.017 46.0744 247.465 45.5003 247.465 42.5154V41.6543H244.762V46.878C244.762 49.5473 244.355 52.2739 243.803 54.9145C243.454 56.5218 243.018 58.4448 241.158 58.4448C239.85 58.4448 238.6 57.6699 238.6 56.2922C238.6 55.6033 239.152 54.1682 239.385 53.4794C240.082 51.4129 240.431 48.6575 240.431 46.4762V36.8898C240.431 34.1632 241.536 33.0725 244.297 33.0725H250.429V32.6707C250.429 31.5226 251.882 31.2356 252.783 31.2356C253.684 31.2356 255.108 31.5226 255.108 32.6707V33.0725H263.682C265.077 33.0725 265.833 33.6178 265.833 35.0529C265.833 36.488 264.99 36.9759 263.682 36.9759H261.532C261.764 37.2342 261.822 37.55 261.822 37.9231ZM263.508 54.2759C264.874 54.362 266.124 54.4481 266.124 56.1702C266.124 57.5192 265.455 58.4089 264.031 58.4089C261.386 58.4089 257.492 57.2609 255.021 56.285C252.667 57.2035 248.366 58.3515 245.895 58.3515C244.616 58.3515 244.093 57.4905 244.093 56.3424C244.093 54.9934 244.733 54.6777 246.244 54.4481C246.941 54.3333 247.784 54.2185 248.86 54.075C249.267 54.0176 249.644 53.9602 250.051 53.8454C249.063 53.2426 247.552 52.3242 247.552 51.3483C247.552 51.0039 247.697 50.7169 247.871 50.4299H246.971C245.692 50.4299 245.139 49.8845 245.139 48.6216C245.139 47.3588 245.808 46.8995 246.971 46.8995H260.369C261.328 46.8995 262.229 46.8995 262.898 47.6458C263.392 48.1624 263.653 48.8226 263.653 49.5401C263.653 50.3437 263.363 50.9465 262.81 51.5492C262.055 52.3816 260.95 53.1565 260.02 53.788C261.154 53.9889 262.345 54.1898 263.508 54.2759ZM245.379 36.9759C244.972 36.9759 244.769 37.1768 244.769 37.5787V38.2962H247.472V37.9231C247.472 37.55 247.53 37.2342 247.763 36.9759H245.379ZM257.063 50.6953C257.063 50.437 256.656 50.437 256.569 50.437H251.134C252.413 51.2694 253.372 51.6712 254.796 52.2452C255.174 52.073 257.063 51.1259 257.063 50.6953ZM251.57 37.9231V38.2962H257.644V37.9231C257.644 37.5787 257.702 37.2342 257.935 36.9759H251.279C251.512 37.263 251.57 37.55 251.57 37.9231ZM251.57 42.5154C251.57 42.8885 251.744 43.0607 252.122 43.0607H257.092C257.47 43.0607 257.644 42.8885 257.644 42.5154V41.6543H251.57V42.5154Z" fill="#E9545D"/>
<defs>
<linearGradient id="paint0_linear_80_17084" x1="331.559" y1="47.3358" x2="354.949" y2="23.8728" gradientUnits="userSpaceOnUse">
<stop stop-color="#BDE3FF"/>
<stop offset="1" stop-color="#D6D0F7"/>
</linearGradient>
<linearGradient id="paint1_linear_80_17084" x1="295.879" y1="54.4105" x2="322.758" y2="10.4749" gradientUnits="userSpaceOnUse">
<stop stop-color="#CAEDC2"/>
<stop offset="1" stop-color="#FFEDA6"/>
</linearGradient>
<linearGradient id="paint2_linear_80_17084" x1="4.70437" y1="38.0418" x2="26.4572" y2="16.7155" gradientUnits="userSpaceOnUse">
<stop stop-color="#CAEDC2"/>
<stop offset="1" stop-color="#BDE3FF"/>
</linearGradient>
<linearGradient id="paint3_linear_80_17084" x1="34.9242" y1="13.8466" x2="58.383" y2="46.8258" gradientUnits="userSpaceOnUse">
<stop stop-color="#FFD2A6"/>
<stop offset="1" stop-color="#FFC4CE"/>
</linearGradient>
</defs>
</svg>
