<svg width="742" height="58" viewBox="0 0 742 58" fill="none" xmlns="http://www.w3.org/2000/svg">
<path d="M10.4505 42.1611C7.22715 40.6062 4.66083 38.2409 2.87057 35.4263L20.4424 43.8966C17.1264 44.2489 13.6738 43.7115 10.4505 42.1567V42.1611ZM0.114644 27.7268C0.268976 28.991 0.555592 30.2331 0.961265 31.4356L24.7549 42.9099C25.9498 42.4826 27.1007 41.932 28.1899 41.2669L0.114644 27.7312V27.7268ZM0.4189 21.503C0.189607 22.5337 0.0529138 23.5688 0 24.5995L30.7121 39.4081C31.4926 38.7254 32.2157 37.9722 32.8815 37.1529L0.4189 21.4985V21.503ZM35.7698 32.18L2.52663 16.1512C2.2797 16.5741 2.046 17.0146 1.82553 17.4638C1.60946 17.9131 1.41104 18.3712 1.23466 18.8293L34.4778 34.8581C34.7247 34.4352 34.9584 33.9947 35.1789 33.5455C35.395 33.0962 35.5934 32.6381 35.7698 32.18ZM6.28793 11.5968C5.50745 12.2795 4.78429 13.0327 4.11846 13.852L36.5811 29.5063C36.8104 28.4756 36.9471 27.4405 37 26.4098L6.28793 11.6012V11.5968ZM12.2407 8.095C11.0458 8.52226 9.89489 9.07284 8.80575 9.73795L36.8809 23.2737C36.7266 22.0095 36.44 20.7674 36.0343 19.5649L12.2407 8.09059V8.095ZM16.5576 7.10835L34.125 15.5786C32.3392 12.764 29.7729 10.3987 26.5451 8.84381C23.3218 7.28894 19.8691 6.75156 16.5532 7.10394L16.5576 7.10835Z" fill="url(#paint0_linear_410_8612)"/>
<path d="M712.374 32.6324L708.486 36.7632L707 35.9549L712.374 32.635V32.6324ZM723.473 25.7733L716.8 29.8964L709.711 37.4288L711.558 38.4334L723.475 25.7733H723.473ZM734.571 18.9141L727.899 23.0372L712.78 39.0989L714.626 40.1036L734.571 18.9141ZM717.698 41.7738L740.96 17.0603L740.904 15L739 16.178L715.851 40.7691L717.698 41.7738ZM741.092 21.8541L741.013 18.9727L718.923 42.4418L720.769 43.4465L741.092 21.8541ZM741.221 26.6453L741.143 23.7639L721.992 44.1095L723.838 45.1141L741.224 26.6453H741.221ZM741.353 31.4391L741.275 28.5577L725.063 45.7822L726.909 46.7868L741.356 31.4391H741.353ZM741.485 36.2303L741.407 33.3489L728.132 47.4498L729.978 48.4545L741.485 36.2303ZM741.617 41.0241L741.538 38.1427L731.203 49.1225L733.05 50.1272L741.617 41.0241ZM741.749 45.8153L741.67 42.934L734.275 50.7927L736.121 51.7973L741.751 45.8179L741.749 45.8153ZM741.878 50.6091L741.8 47.7277L737.343 52.4629L739.19 53.4675L741.881 50.6091H741.878ZM742 54.9974L741.932 52.5215L740.412 54.1356L742 55V54.9974Z" fill="url(#paint1_linear_410_8612)" fill-opacity="0.8"/>
<path d="M668.079 38.9269C669.333 39.3896 669.978 40.7804 669.523 42.0326C669.06 43.2869 667.669 43.9316 666.416 43.4768C665.162 43.0142 664.517 41.6233 664.972 40.3711C665.435 39.1168 666.826 38.4721 668.079 38.9269ZM672.673 43.194C672.21 44.4483 672.857 45.8472 674.117 46.2998C675.372 46.7625 676.771 46.1157 677.224 44.8556C677.687 43.6013 677.04 42.2024 675.779 41.7498C674.525 41.2871 673.126 41.934 672.673 43.194ZM667.794 32.6634C667.331 33.9177 667.978 35.3166 669.238 35.7692C670.493 36.2319 671.892 35.585 672.345 34.3249C672.808 33.0707 672.161 31.6718 670.901 31.2192C669.646 30.7565 668.247 31.4034 667.794 32.6634ZM670.617 24.9558C670.154 26.2101 670.8 27.6089 672.061 28.0615C673.315 28.5242 674.714 27.8774 675.167 26.6173C675.63 25.363 674.983 23.9641 673.723 23.5115C672.469 23.0488 671.069 23.6957 670.617 24.9558ZM675.503 35.4843C675.04 36.7385 675.687 38.1374 676.947 38.59C678.202 39.0527 679.601 38.4059 680.054 37.1458C680.517 35.8915 679.87 34.4926 678.61 34.04C677.355 33.5773 675.956 34.2242 675.503 35.4843ZM678.325 27.7766C677.862 29.0309 678.509 30.4297 679.77 30.8823C681.024 31.345 682.423 30.6982 682.876 29.4381C683.339 28.1838 682.692 26.785 681.432 26.3323C680.177 25.8696 678.778 26.5165 678.325 27.7766ZM680.382 46.0149C679.919 47.2692 680.566 48.668 681.826 49.1206C683.08 49.5833 684.48 48.9365 684.933 47.6764C685.385 46.4163 684.749 45.0233 683.488 44.5707C682.234 44.108 680.835 44.7548 680.382 46.0149ZM683.212 38.3051C682.749 39.5594 683.396 40.9582 684.656 41.4108C685.911 41.8735 687.31 41.2267 687.763 39.9666C688.226 38.7123 687.579 37.3135 686.318 36.8608C685.064 36.3981 683.665 37.045 683.212 38.3051ZM686.036 30.6054C685.573 31.8597 686.22 33.2585 687.481 33.7111C688.735 34.1738 690.134 33.5269 690.587 32.2668C691.05 31.0125 690.403 29.6137 689.143 29.1611C687.888 28.6984 686.489 29.3453 686.036 30.6054ZM673.447 17.246C672.984 18.5003 673.631 19.8991 674.891 20.3517C676.145 20.8144 677.544 20.1676 677.997 18.9075C678.46 17.6532 677.813 16.2544 676.553 15.8017C675.299 15.339 673.9 15.9859 673.447 17.246ZM681.156 20.0668C680.693 21.3211 681.339 22.7199 682.6 23.1726C683.854 23.6352 685.253 22.9884 685.706 21.7283C686.169 20.474 685.522 19.0752 684.262 18.6225C683.008 18.1599 681.608 18.8067 681.156 20.0668ZM676.269 9.53834C675.806 10.7926 676.453 12.1915 677.713 12.6441C678.968 13.1068 680.367 12.4599 680.82 11.1998C681.283 9.94552 680.636 8.5467 679.375 8.09407C678.121 7.63138 676.722 8.27825 676.269 9.53834ZM679.091 1.83063C678.628 3.08492 679.275 4.4838 680.535 4.93643C681.79 5.39911 683.189 4.75224 683.642 3.49215C684.105 2.23787 683.458 0.839038 682.198 0.386407C680.943 -0.0762775 679.544 0.570545 679.091 1.83063ZM683.978 12.3592C683.515 13.6134 684.162 15.0123 685.422 15.4649C686.676 15.9276 688.076 15.2807 688.529 14.0206C688.991 12.7663 688.345 11.3675 687.084 10.9149C685.83 10.4522 684.431 11.0991 683.978 12.3592ZM686.8 4.65145C686.337 5.90573 686.984 7.30461 688.244 7.75724C689.499 8.21993 690.898 7.57305 691.351 6.31297C691.804 5.05288 691.167 3.65985 689.907 3.20722C688.652 2.74454 687.253 3.39136 686.8 4.65145ZM688.867 22.8956C688.404 24.1499 689.05 25.5487 690.311 26.0013C691.565 26.464 692.964 25.8171 693.417 24.557C693.88 23.3027 693.233 21.9039 691.973 21.4513C690.719 20.9886 689.319 21.6355 688.867 22.8956ZM691.689 15.1879C691.226 16.4422 691.873 17.841 693.133 18.2937C694.387 18.7564 695.787 18.1095 696.24 16.8494C696.702 15.5951 696.056 14.1963 694.795 13.7437C693.541 13.281 692.142 13.9278 691.689 15.1879ZM694.511 7.48022C694.048 8.73451 694.695 10.1334 695.955 10.586C697.21 11.0487 698.609 10.4018 699.062 9.14171C699.525 7.88743 698.878 6.48863 697.618 6.036C696.363 5.57331 694.964 6.22013 694.511 7.48022ZM688.093 48.8436C687.63 50.0979 688.277 51.4967 689.537 51.9494C690.791 52.4121 692.191 51.7652 692.643 50.5052C693.106 49.2509 692.46 47.852 691.199 47.3994C689.945 46.9367 688.546 47.5835 688.093 48.8436ZM695.802 51.6645C695.339 52.9188 695.986 54.3176 697.246 54.7702C698.5 55.2329 699.9 54.5861 700.352 53.326C700.815 52.0717 700.168 50.6728 698.908 50.2202C697.654 49.7575 696.254 50.4044 695.802 51.6645ZM690.923 41.1338C690.46 42.3881 691.107 43.787 692.367 44.2396C693.622 44.7023 695.021 44.0555 695.474 42.7954C695.937 41.5411 695.29 40.1422 694.029 39.6896C692.775 39.2269 691.376 39.8738 690.923 41.1338ZM693.745 33.4262C693.282 34.6805 693.929 36.0793 695.189 36.5319C696.444 36.9946 697.843 36.3477 698.296 35.0877C698.759 33.8334 698.112 32.4345 696.852 31.9819C695.597 31.5192 694.198 32.1661 693.745 33.4262ZM698.632 43.9547C698.169 45.209 698.816 46.6078 700.076 47.0604C701.331 47.5231 702.73 46.8763 703.183 45.6162C703.645 44.3619 702.999 42.963 701.738 42.5104C700.484 42.0477 699.085 42.6946 698.632 43.9547ZM701.454 36.247C700.991 37.5013 701.638 38.9001 702.898 39.3527C704.153 39.8154 705.552 39.1686 706.005 37.9085C706.458 36.6484 705.821 35.2554 704.561 34.8027C703.306 34.34 701.907 34.9869 701.454 36.247ZM703.513 54.4932C703.05 55.7475 703.696 57.1463 704.957 57.599C706.211 58.0616 707.61 57.4148 708.063 56.1547C708.526 54.9005 707.879 53.5016 706.619 53.0489C705.365 52.5863 703.965 53.2331 703.513 54.4932ZM706.343 46.7834C705.88 48.0377 706.527 49.4365 707.787 49.8892C709.041 50.3519 710.441 49.705 710.893 48.4449C711.356 47.1906 710.71 45.7918 709.449 45.3392C708.195 44.8765 706.796 45.5233 706.343 46.7834ZM709.165 39.0758C708.702 40.3301 709.349 41.7289 710.609 42.1815C711.864 42.6442 713.263 41.9973 713.716 40.7372C714.179 39.483 713.532 38.0841 712.272 37.6315C711.017 37.1688 709.618 37.8157 709.165 39.0758ZM696.567 25.7185C696.105 26.9728 696.751 28.3716 698.012 28.8243C699.266 29.287 700.665 28.6401 701.118 27.38C701.581 26.1257 700.934 24.7269 699.674 24.2743C698.42 23.8116 697.02 24.4584 696.567 25.7185ZM704.276 28.5394C703.813 29.7937 704.46 31.1925 705.721 31.6451C706.975 32.1078 708.374 31.4609 708.827 30.2008C709.28 28.9407 708.643 27.5477 707.383 27.0951C706.128 26.6324 704.729 27.2793 704.276 28.5394ZM699.398 18.0087C698.935 19.263 699.582 20.6619 700.842 21.1145C702.096 21.5772 703.495 20.9303 703.948 19.6702C704.411 18.4159 703.764 17.0171 702.504 16.5645C701.25 16.1018 699.851 16.7486 699.398 18.0087ZM702.22 10.301C701.757 11.5553 702.404 12.9542 703.664 13.4068C704.919 13.8695 706.318 13.2226 706.771 11.9626C707.223 10.7025 706.587 9.30944 705.326 8.85681C704.072 8.39412 702.673 9.04095 702.22 10.301ZM707.106 20.8295C706.644 22.0838 707.29 23.4827 708.551 23.9353C709.805 24.398 711.204 23.7511 711.657 22.491C712.12 21.2367 711.473 19.8379 710.213 19.3853C708.959 18.9226 707.559 19.5694 707.106 20.8295ZM709.931 13.1298C709.468 14.3841 710.115 15.7829 711.375 16.2355C712.63 16.6982 714.029 16.0514 714.482 14.7913C714.945 13.537 714.298 12.1382 713.037 11.6856C711.783 11.2229 710.384 11.8697 709.931 13.1298ZM711.987 31.3681C711.524 32.6224 712.171 34.0212 713.431 34.4739C714.686 34.9365 716.085 34.2897 716.538 33.0296C717.001 31.7753 716.354 30.3765 715.094 29.9238C713.839 29.4612 712.44 30.108 711.987 31.3681ZM714.817 23.6583C714.355 24.9126 715.001 26.3114 716.262 26.7641C717.516 27.2268 718.915 26.5799 719.368 25.3198C719.831 24.0655 719.184 22.6667 717.924 22.2141C716.67 21.7514 715.27 22.3982 714.817 23.6583ZM717.64 15.9506C717.177 17.2049 717.824 18.6037 719.084 19.0564C720.338 19.5191 721.738 18.8722 722.19 17.6121C722.653 16.3579 722.007 14.959 720.746 14.5064C719.486 14.0538 718.093 14.6905 717.64 15.9506Z" fill="url(#paint2_linear_410_8612)"/>
<path d="M56.5376 4.2412C55.6807 5.11339 54.2789 5.12864 53.4057 4.27903C52.5338 3.42202 52.5187 2.01982 53.3682 1.14642C54.2251 0.274231 55.6269 0.259076 56.5001 1.10868C57.372 1.9657 57.3871 3.3678 56.5376 4.2412ZM51.2543 6.4694C50.3823 5.61239 48.9731 5.62634 48.1224 6.50715C47.2655 7.37934 47.2794 8.78885 48.1599 9.63966C49.0319 10.4967 50.4411 10.4827 51.2918 9.60192C52.1487 8.72973 52.1348 7.32021 51.2543 6.4694ZM61.8666 6.35641C60.9947 5.4994 59.5855 5.51335 58.7348 6.39416C57.8779 7.26635 57.8917 8.67595 58.7723 9.52676C59.6442 10.3838 61.0535 10.3697 61.9042 9.48894C62.7611 8.61674 62.7472 7.20722 61.8666 6.35641ZM67.2332 11.6041C66.3613 10.7471 64.952 10.7611 64.1013 11.6419C63.2445 12.5141 63.2583 13.9237 64.1388 14.7745C65.0108 15.6315 66.4201 15.6175 67.2708 14.7367C68.1276 13.8645 68.1138 12.455 67.2332 11.6041ZM56.6196 11.7246C55.7477 10.8675 54.3385 10.8815 53.4878 11.7623C52.6309 12.6345 52.6447 14.044 53.5253 14.8948C54.3972 15.7518 55.8065 15.7379 56.6572 14.8571C57.5141 13.9849 57.5002 12.5754 56.6196 11.7246ZM61.9862 16.9723C61.1143 16.1153 59.705 16.1292 58.8543 17.01C57.9975 17.8822 58.0113 19.2917 58.8919 20.1425C59.7638 20.9996 61.1731 20.9856 62.0238 20.1048C62.8806 19.2326 62.8668 17.8231 61.9862 16.9723ZM46.0073 11.8375C45.1354 10.9804 43.7261 10.9945 42.8754 11.8753C42.0185 12.7475 42.0324 14.157 42.9129 15.0078C43.7935 15.8586 45.1941 15.8508 46.0448 14.97C46.9017 14.0978 46.8879 12.6883 46.0073 11.8375ZM51.3727 17.0926C50.5007 16.2356 49.0915 16.2496 48.2408 17.1304C47.3839 18.0026 47.3977 19.4121 48.2783 20.263C49.1502 21.12 50.5595 21.1059 51.4102 20.2251C52.2671 19.3529 52.2532 17.9434 51.3727 17.0926ZM56.7318 22.3391C55.8599 21.4821 54.4506 21.4961 53.5999 22.377C52.743 23.2492 52.7569 24.6587 53.6375 25.5095C54.5094 26.3665 55.9187 26.3525 56.7694 25.4716C57.6262 24.5995 57.6124 23.1899 56.7318 22.3391ZM72.5986 16.8593C71.7266 16.0023 70.3174 16.0162 69.4667 16.897C68.6098 17.7692 68.6237 19.1788 69.5043 20.0296C70.3762 20.8866 71.7854 20.8726 72.6361 19.9918C73.493 19.1196 73.4791 17.7101 72.5986 16.8593ZM67.3516 22.2274C66.4796 21.3704 65.0704 21.3844 64.2197 22.2652C63.3628 23.1374 63.3767 24.5469 64.2573 25.3977C65.1292 26.2547 66.5384 26.2408 67.3891 25.36C68.246 24.4878 68.2321 23.0782 67.3516 22.2274ZM77.9651 22.107C77.0932 21.25 75.684 21.264 74.8333 22.1448C73.9764 23.017 73.9903 24.4265 74.8708 25.2773C75.7428 26.1343 77.152 26.1204 78.0027 25.2395C78.8596 24.3674 78.8457 22.9578 77.9651 22.107ZM83.3317 27.3548C82.4598 26.4977 81.0505 26.5117 80.1998 27.3925C79.3429 28.2647 79.3568 29.6742 80.2374 30.525C81.1093 31.382 82.5185 31.3681 83.3692 30.4873C84.2261 29.6151 84.2123 28.2056 83.3317 27.3548ZM72.7181 27.4752C71.8462 26.6181 70.437 26.6321 69.5863 27.5129C68.7294 28.3851 68.7433 29.7946 69.6238 30.6454C70.4958 31.5024 71.905 31.4885 72.7557 30.6077C73.6126 29.7355 73.5987 28.326 72.7181 27.4752ZM78.0847 32.7229C77.2128 31.8659 75.8035 31.8798 74.9528 32.7606C74.0959 33.6328 74.1098 35.0424 74.9904 35.8932C75.8709 36.744 77.2715 36.7362 78.1222 35.8554C78.9791 34.9832 78.9653 33.5737 78.0847 32.7229ZM62.0972 27.5943C61.2252 26.7373 59.816 26.7512 58.9653 27.632C58.1084 28.5042 58.1223 29.9138 59.0028 30.7646C59.8748 31.6216 61.284 31.6076 62.1347 30.7268C62.9916 29.8546 62.9777 28.4451 62.0972 27.5943ZM67.4638 32.842C66.5918 31.985 65.1826 31.9989 64.3319 32.8797C63.475 33.7519 63.4889 35.1616 64.3694 36.0124C65.2414 36.8694 66.6506 36.8553 67.5013 35.9745C68.3582 35.1023 68.3443 33.6928 67.4638 32.842ZM72.8303 38.0897C71.9584 37.2327 70.5491 37.2467 69.6984 38.1275C68.8415 38.9997 68.8554 40.4093 69.736 41.2601C70.6079 42.1171 72.0171 42.1031 72.8678 41.2223C73.7247 40.3501 73.7109 38.9406 72.8303 38.0897ZM40.7529 17.2044C39.8809 16.3474 38.4717 16.3613 37.621 17.2421C36.7641 18.1143 36.778 19.5238 37.6585 20.3746C38.5305 21.2317 39.9397 21.2177 40.7904 20.3369C41.6473 19.4647 41.6334 18.0552 40.7529 17.2044ZM35.5059 22.5724C34.634 21.7154 33.2247 21.7295 32.374 22.6103C31.5171 23.4825 31.531 24.892 32.4116 25.7428C33.2835 26.5998 34.6928 26.5859 35.5434 25.705C36.4003 24.8329 36.3865 23.4232 35.5059 22.5724ZM46.1182 22.4595C45.2463 21.6025 43.8371 21.6165 42.9864 22.4973C42.1295 23.3695 42.1433 24.779 43.0239 25.6298C43.8958 26.4868 45.3051 26.4729 46.1558 25.5921C47.0127 24.7199 46.9988 23.3103 46.1182 22.4595ZM51.4848 27.7073C50.6129 26.8502 49.2036 26.8642 48.353 27.745C47.4961 28.6172 47.51 30.0267 48.3905 30.8775C49.2625 31.7345 50.6717 31.7206 51.5224 30.8398C52.3793 29.9676 52.3654 28.5581 51.4848 27.7073ZM40.8713 27.8276C39.9993 26.9706 38.5901 26.9846 37.7394 27.8654C36.8825 28.7376 36.8963 30.1471 37.7769 30.9979C38.6489 31.8549 40.0581 31.841 40.9088 30.9602C41.7657 30.088 41.7518 28.6784 40.8713 27.8276ZM46.2378 33.0753C45.3659 32.2183 43.9567 32.2323 43.106 33.1131C42.2491 33.9853 42.263 35.3949 43.1435 36.2457C44.0241 37.0965 45.4247 37.0887 46.2754 36.2079C47.1323 35.3357 47.1184 33.9261 46.2378 33.0753ZM30.2515 27.9394C29.3795 27.0823 27.9703 27.0963 27.1196 27.9771C26.2628 28.8493 26.2766 30.2588 27.1572 31.1096C28.0291 31.9666 29.4384 31.9527 30.289 31.0719C31.1459 30.1997 31.1321 28.7902 30.2515 27.9394ZM35.6168 33.1945C34.7449 32.3375 33.3357 32.3514 32.485 33.2323C31.6281 34.1045 31.642 35.514 32.5226 36.3648C33.3945 37.2218 34.8037 37.2078 35.6544 36.327C36.5113 35.4548 36.4974 34.0453 35.6168 33.1945ZM40.9834 38.4422C40.1115 37.5852 38.7023 37.5992 37.8516 38.48C36.9947 39.3522 37.0086 40.7617 37.8891 41.6125C38.7611 42.4695 40.1703 42.4556 41.021 41.5748C41.8779 40.7026 41.864 39.2931 40.9834 38.4422ZM56.8514 32.955C55.9794 32.098 54.5702 32.1119 53.7195 32.9927C52.8626 33.8649 52.8765 35.2745 53.7571 36.1253C54.629 36.9823 56.0382 36.9683 56.8889 36.0875C57.7458 35.2153 57.7319 33.8058 56.8514 32.955ZM51.6044 38.323C50.7324 37.466 49.3232 37.4801 48.4725 38.3609C47.6156 39.2331 47.6295 40.6426 48.5101 41.4934C49.3906 42.3442 50.7912 42.3365 51.6419 41.4557C52.4988 40.5835 52.4849 39.1739 51.6044 38.323ZM62.2168 38.2102C61.3448 37.3531 59.9356 37.3671 59.0849 38.2479C58.228 39.1201 58.2419 40.5296 59.1224 41.3804C59.9944 42.2374 61.4036 42.2235 62.2543 41.3427C63.1112 40.4705 63.0973 39.061 62.2168 38.2102ZM67.5833 43.4579C66.7114 42.6009 65.3021 42.6148 64.4514 43.4956C63.5945 44.3678 63.6084 45.7773 64.489 46.6281C65.3696 47.479 66.7702 47.4712 67.6208 46.5904C68.4777 45.7182 68.4639 44.3087 67.5833 43.4579ZM56.9698 43.5782C56.0978 42.7212 54.6886 42.7352 53.8379 43.616C52.981 44.4882 52.9949 45.8977 53.8754 46.7486C54.7474 47.6056 56.1566 47.5915 57.0073 46.7107C57.8642 45.8385 57.8503 44.429 56.9698 43.5782ZM62.3289 48.8247C61.457 47.9677 60.0478 47.9817 59.1971 48.8626C58.3402 49.7348 58.354 51.1443 59.2346 51.9951C60.1065 52.8521 61.5158 52.8381 62.3664 51.9572C63.2233 51.0851 63.2095 49.6755 62.3289 48.8247ZM46.35 43.69C45.4781 42.833 44.0688 42.8469 43.2181 43.7277C42.3612 44.5999 42.3751 46.0094 43.2557 46.8602C44.1276 47.7173 45.5368 47.7033 46.3875 46.8225C47.2444 45.9503 47.2306 44.5408 46.35 43.69ZM51.7154 48.9451C50.8434 48.0881 49.4342 48.1021 48.5835 48.9829C47.7266 49.8551 47.7405 51.2646 48.621 52.1154C49.493 52.9724 50.9022 52.9585 51.7529 52.0777C52.6098 51.2055 52.5959 49.7959 51.7154 48.9451ZM57.0819 54.1929C56.21 53.3358 54.8008 53.3498 53.9501 54.2306C53.0932 55.1028 53.107 56.5123 53.9876 57.3631C54.8595 58.2201 56.2688 58.2062 57.1194 57.3254C57.9701 56.4446 57.9625 55.0437 57.0819 54.1929Z" fill="url(#paint3_linear_410_8612)"/>
<path d="M83.04 40.51C81.48 41.71 79.68 43.07 78.32 43.07C76.56 43.07 75 41.43 75 39.67C75 38.43 75.68 37.75 77.24 36.67C81.32 33.91 84.96 30.75 88.2 27.07L79.84 27.19C78.64 27.19 76.68 27.11 76.68 24.03C76.68 22.11 77.76 21.11 79.68 21.07L91.32 20.87L91.24 15.63C91.24 14.47 91.4 12.55 94.48 12.55C96.44 12.55 97.56 13.51 97.6 15.55L97.68 20.75L104.52 20.63C105.52 20.63 107.68 20.79 107.68 23.75C107.68 25.67 106.6 26.71 104.68 26.75L97.76 26.87L97.96 39.7901C97.96 40.9901 97.92 43.19 96.92 44.59C96.04 45.79 94.16 46.2701 92.08 46.2701C89.52 46.2701 87.4 45.99 87.4 42.87C87.4 41.47 88.2 40.07 89.76 40.07C90 40.07 90.36 40.15 90.56 40.15H90.76C91.48 40.15 91.6 39.95 91.6 38.91L91.52 32.35C88.96 35.35 86.16 38.11 83.04 40.51Z" fill="#015DAE"/>
<path d="M144.79 26.3999C146.75 26.3999 148.03 27.7199 148.03 29.6399C148.03 31.5599 146.75 32.9199 144.79 32.9199H116.87C114.91 32.9199 113.63 31.5999 113.63 29.6399C113.63 27.6799 114.87 26.3999 116.87 26.3999H144.79Z" fill="#015DAE"/>
<path d="M156.71 23.44C154.79 23.44 153.67 22.2 153.67 20.28C153.67 18.36 154.75 17.12 156.71 17.12H175.27C178.87 17.12 180.99 18.28 180.99 22.24C180.99 24.68 180.19 27.04 179.07 29.28C176.91 33.6 173.83 37.4 170.07 40.44C167.79 42.28 161.71 46.16 158.83 46.16C156.95 46.16 155.51 44.4 155.51 42.6C155.51 40.56 157.47 40.08 159.03 39.44C163.43 37.68 167.39 34.72 170.39 31.04C171.47 29.68 174.15 25.88 174.15 24.16C174.15 23.56 173.75 23.44 173.23 23.44H156.71ZM187.02 14.28C187.02 16.6 185.06 18.52 182.74 18.52C180.42 18.52 178.5 16.6 178.5 14.28C178.5 11.96 180.42 10 182.74 10C185.26 10 187.02 11.96 187.02 14.28ZM180.82 14.28C180.82 15.32 181.7 16.2 182.74 16.2C183.78 16.2 184.7 15.32 184.7 14.28C184.7 13.24 183.82 12.32 182.74 12.32C181.66 12.32 180.82 13.2 180.82 14.28Z" fill="#015DAE"/>
<path d="M223.66 22.8399C223.66 23.7599 223.26 24.5199 222.78 25.2399C219.94 29.3199 216.42 32.9999 212.62 36.1599C208.66 39.4799 204.22 42.4399 199.46 44.4399C197.7 45.1599 197.18 45.2799 196.54 45.2799C194.54 45.2799 193.06 43.2799 193.06 41.3999C193.06 39.5199 194.22 39.1599 196.14 38.3999C204.3 35.1999 211.82 28.9999 216.94 21.9599C217.9 20.6399 218.78 19.5199 220.18 19.5199C221.98 19.5199 223.66 20.9999 223.66 22.8399ZM202.02 18.9999C203.26 19.8399 204.7 20.8799 204.7 22.5599C204.7 24.2399 203.26 26.2799 201.38 26.2799C200.58 26.2799 199.94 25.8399 198.7 24.9599C197.7 24.2799 196.7 23.5999 195.62 22.9199C193.98 21.9199 193.18 21.3999 193.18 19.9999C193.18 18.0799 194.78 16.3999 196.66 16.3999C198.06 16.3999 200.02 17.5999 202.02 18.9999Z" fill="#015DAE"/>
<path d="M240.72 15.64C240.68 15.32 240.64 15 240.64 14.72C240.64 12.68 242.08 11.8 244.32 11.8C246.12 11.8 246.96 12.84 247.24 14.48L247.96 18.8L254.2 17.84C254.48 17.8 254.76 17.76 255 17.76C256.88 17.8 257.96 19 257.96 21.04C257.96 22.84 256.88 23.72 255.24 23.96L248.96 24.92L249.52 28.2801L258.44 26.96C258.72 26.92 258.96 26.88 259.24 26.88C261.04 26.92 262.2 28.12 262.2 30.16C262.2 31.96 261.24 32.8401 259.44 33.1201L250.52 34.4401L252 43.3601C252.08 43.8401 252.16 44.52 252.16 44.8C252.16 46.8 250.88 47.7201 248.56 47.7201C246.64 47.7201 245.88 46.8 245.56 44.96L243.96 35.4L233.84 36.88C233.6 36.92 233.36 36.96 233.12 36.96C231.24 36.96 230.12 35.72 230.12 33.64C230.12 31.88 231.2 30.96 232.84 30.72L242.96 29.24L242.4 25.88L235.68 26.88C235.44 26.92 235.2 26.96 234.96 26.96C233.08 26.96 231.92 25.76 231.92 23.68C231.92 21.92 233 21.04 234.64 20.8L241.4 19.76L240.72 15.64Z" fill="#015DAE"/>
<path d="M288.17 45.75C288.21 45.99 288.21 46.19 288.21 46.43C288.21 48.11 286.77 49.07 285.21 49.07C283.85 49.07 282.93 48.35 282.65 46.95L280.09 34.15L274.09 35.31C273.89 35.35 273.65 35.35 273.41 35.35C271.81 35.35 270.93 34.15 270.93 32.59C270.93 31.27 271.61 30.31 273.05 30.07L279.05 28.99L278.05 23.75C278.01 23.51 277.97 23.27 277.97 23.03C277.97 21.35 279.29 20.47 281.01 20.47C282.37 20.47 283.29 21.23 283.57 22.55L284.65 27.95L294.05 26.23C294.41 26.15 294.61 26.15 294.89 26.15C296.49 26.15 297.93 27.27 297.93 28.95C297.93 30.51 295.89 33.31 294.65 34.99C293.89 36.03 293.09 37.11 292.17 37.99C291.65 38.51 290.93 38.83 290.37 38.83C288.93 38.83 287.49 37.67 287.49 36.19C287.49 35.31 288.01 34.71 288.85 33.79C289.33 33.27 289.81 32.75 290.25 32.19L285.65 33.07L288.17 45.75Z" fill="#015DAE"/>
<path d="M335.6 22.8399C335.6 23.7599 335.2 24.5199 334.72 25.2399C331.88 29.3199 328.36 32.9999 324.56 36.1599C320.6 39.4799 316.16 42.4399 311.4 44.4399C309.64 45.1599 309.12 45.2799 308.48 45.2799C306.48 45.2799 305 43.2799 305 41.3999C305 39.5199 306.16 39.1599 308.08 38.3999C316.24 35.1999 323.76 28.9999 328.88 21.9599C329.84 20.6399 330.72 19.5199 332.12 19.5199C333.92 19.5199 335.6 20.9999 335.6 22.8399ZM313.97 18.9999C315.21 19.8399 316.65 20.8799 316.65 22.5599C316.65 24.2399 315.21 26.2799 313.33 26.2799C312.53 26.2799 311.89 25.8399 310.65 24.9599C309.65 24.2799 308.65 23.5999 307.57 22.9199C305.93 21.9199 305.13 21.3999 305.13 19.9999C305.13 18.0799 306.73 16.3999 308.61 16.3999C310.01 16.3999 311.97 17.5999 313.97 18.9999Z" fill="#015DAE"/>
<path d="M353.94 22.68C353.94 23.76 353.38 25.24 352.58 27.08C351.22 30.24 349.38 33.32 347.26 36.08C345.78 38.04 343.66 40.68 341.62 40.68C339.74 40.68 337.78 39.2 337.78 37.24C337.78 36.12 338.42 35.48 339.62 34.24C343.38 30.44 345.38 26.76 347.18 21.64C347.7 20.16 348.7 19.64 350.06 19.64C351.86 19.64 353.94 20.64 353.94 22.68ZM366.1 22.28C367.02 23.44 367.9 24.64 368.74 25.84C370.18 27.96 374.34 34.28 374.34 36.6C374.34 38.6 372.34 40.08 370.46 40.08C368.42 40.08 367.82 38.6 367.14 36.96C365.42 32.92 363.06 29.28 360.3 25.84C359.74 25.16 359.26 24.44 359.26 23.52C359.26 21.68 361.06 20.36 362.78 20.36C364.34 20.36 365.18 21.16 366.1 22.28ZM374.66 17C374.66 19.4 372.62 21.44 370.18 21.44C367.74 21.44 365.7 19.4 365.7 17C365.7 14.6 367.74 12.52 370.18 12.52C372.62 12.52 374.66 14.56 374.66 17ZM368.14 17C368.14 18.08 369.06 19.04 370.18 19.04C371.3 19.04 372.22 18.08 372.22 17C372.22 15.92 371.3 14.92 370.18 14.92C369.06 14.92 368.14 15.88 368.14 17Z" fill="#015DAE"/>
<path d="M408.94 35.5599C410.54 37.1999 411.62 38.3599 411.62 39.7999C411.62 41.6799 409.94 43.3999 408.06 43.3999C406.78 43.3999 405.98 42.5999 404.98 41.3599C402.98 38.9199 400.86 36.6799 398.42 34.7199C395.7 37.2399 392.7 39.4799 389.46 41.2799C388.02 42.0799 385.46 43.5199 384.02 43.5199C382.14 43.5199 380.66 41.8399 380.66 39.9999C380.66 38.2799 381.9 37.6799 383.3 37.0799C390.1 34.1199 395.82 29.2799 399.86 23.0399H388.14C386.1 23.0399 384.94 22.0399 384.94 19.9599C384.94 17.8799 386.1 16.8799 388.14 16.8799H403.78C406.06 16.8799 408.06 17.7199 408.06 20.3199C408.06 22.9199 404.34 27.9199 402.78 29.9599C404.98 31.6799 407.02 33.5599 408.94 35.5599Z" fill="#015DAE"/>
<path d="M425.54 20.76H424.7C423.46 20.76 422.26 20.8 421.06 20.8C419.22 20.8 418.14 20.52 418.14 18.36C418.14 16.2 420.1 15.96 421.14 15.96H421.82C422.78 15.96 423.74 15.92 424.7 15.92C425.42 14.8 425.98 13.88 426.46 13.12C427.74 11.08 428.42 10.2 430.06 10.2C431.46 10.2 433.62 10.72 433.62 12.44C433.62 13.36 432.5 14.76 431.42 16.04H432.3C435.46 16.04 438.66 15.96 441.82 15.92C440.82 15.08 440.18 14.56 440.18 13.68C440.18 12.08 441.94 10.92 443.42 10.92C444.18 10.92 444.78 11.28 445.42 11.68C446.74 12.56 447.98 13.52 449.22 14.52C451.22 16.04 453.06 17.44 453.06 18.96C453.06 20.48 451.58 21.92 449.94 21.92C448.86 21.92 448.34 21.44 446.74 20C443.54 20.28 440.38 20.4 437.18 20.48C436.9 21.08 436.62 21.64 436.3 22.2H452.14C453.82 22.2 455.06 22.88 455.06 24.72C455.06 26.56 453.94 27.2 452.14 27.2H446.46C448.58 28.68 448.9 29 451.82 30.2C453.42 30.84 454.98 31.16 454.98 33.16C454.98 34.68 453.98 36.44 452.3 36.44C450.42 36.44 446.42 33.6399 444.86 32.4799C442.74 30.8799 441.06 29.24 439.38 27.2H432.86C431.34 29 429.42 30.68 427.58 32.12C431.02 31.28 432.58 30.5999 435.66 28.8799C436.18 28.5999 436.78 28.28 437.38 28.28C438.58 28.28 439.58 29.52 439.58 30.68C439.58 31.28 439.34 31.68 438.86 32.04C437.94 32.72 435.82 33.76 434.74 34.24C432.7 35.08 427.98 36.6399 425.86 36.6399C424.7 36.6399 424.1 35.64 423.98 34.6C422.86 35.24 421.18 36.16 419.86 36.16C418.18 36.16 417.18 34.52 417.18 33C417.18 31.48 418.1 31.0399 419.46 30.4799C421.54 29.5599 423.5 28.52 425.3 27.2H420.14C418.5 27.2 417.22 26.52 417.22 24.72C417.22 22.92 418.5 22.2 420.14 22.2H430.54C430.94 21.72 431.22 21.24 431.5 20.68C429.5 20.72 427.54 20.76 425.54 20.76ZM423.42 38.2C429.66 37.44 435.1 36.2399 440.58 32.9599C441.06 32.6399 441.66 32.32 442.26 32.32C443.46 32.32 444.5 33.64 444.5 34.76C444.5 35.36 444.18 35.8 443.74 36.2C442.46 37.36 438.78 38.8399 437.14 39.4799C433.62 40.7599 426.66 42.52 423.02 42.52C421.54 42.52 420.94 41.4 420.94 40.24C420.94 38.68 422.1 38.36 423.42 38.2ZM450.3 39.24C450.3 40.32 449.5 41.04 448.66 41.6C446.06 43.36 442.74 44.7599 439.78 45.7999C436.26 46.9999 432.62 47.8 428.9 48.24C427.5 48.4 425.14 48.6399 423.74 48.6399C422.06 48.6399 421.02 47.72 421.02 46C421.02 43.96 422.62 43.7599 424.38 43.5999C431.7 42.9599 439.26 41.52 445.42 37.24C446.06 36.8 446.74 36.36 447.58 36.36C449.02 36.36 450.3 37.8 450.3 39.24Z" fill="#015DAE"/>
<path d="M468.77 37.56C468.05 40.56 466.85 44.16 465.17 46.76C464.61 47.64 463.89 48.24 462.81 48.24C461.17 48.24 459.17 46.88 459.17 45.12C459.17 44.32 459.57 43.52 460.29 42.28C462.45 38.44 463.29 35.68 463.89 31.36C464.25 28.68 464.45 25.96 464.45 23.28H462.41C460.09 23.28 459.49 22.24 459.49 20.04C459.49 18.08 460.53 17.32 462.41 17.32H464.45V13.48C464.45 11.24 465.45 10.52 467.57 10.52C469.53 10.52 470.29 11.64 470.29 13.48V17.32H473.77C475.21 17.32 476.65 17.4 477.69 18.6C478.57 19.6 478.65 21.04 478.65 22.4C478.65 27.32 478.49 31.12 478.37 35.8C478.29 38.4 478.05 44.48 476.89 46.6C475.85 48.52 473.45 48.6 471.49 48.6C470.65 48.6 468.97 48.6 468.25 48.16C467.33 47.6 466.97 46.2 466.97 45.16C466.97 43.52 467.61 42.2 469.45 42.2H470.17C470.77 42.2 471.53 42.16 471.81 41.04C472.57 38.16 472.69 27.92 472.69 24.48C472.69 23.44 472.57 23.28 471.53 23.28H470.29C470.21 27.8 469.81 33.16 468.77 37.56ZM496.04 42.43C496.04 46.23 494.48 47.79 490.72 47.79H486C482.2 47.79 480.64 46.23 480.64 42.43V17.72C480.64 13.92 482.2 12.4 486 12.4H490.72C494.48 12.4 496.04 13.92 496.04 17.72V42.44V42.43ZM487.64 18.24C486.84 18.24 486.4 18.72 486.4 19.52V40.68C486.4 41.48 486.84 41.92 487.64 41.92H489.04C489.84 41.92 490.28 41.48 490.28 40.68V19.52C490.28 18.64 489.84 18.24 489.04 18.24H487.64Z" fill="#015DAE"/>
<path d="M539.23 35.8401C539.23 37.0001 538.07 37.8001 536.99 37.8001C535.91 37.8001 535.35 37.0001 534.79 36.1601C534.23 35.3601 533.71 34.6001 533.11 33.8801C532.83 33.5601 532.55 33.2401 532.35 32.8801C532.27 35.8801 530.39 36.1601 528.55 36.1601H525.51C525.23 36.5601 524.99 36.8001 524.63 37.1601H532.95C534.39 37.1601 535.63 37.5201 535.63 39.2001C535.63 41.5201 533.23 42.8401 531.47 43.8001C533.47 44.1201 535.55 44.1601 537.59 44.2801C538.99 44.3601 539.83 44.8001 539.83 46.3201C539.83 48.1201 538.87 48.6801 537.23 48.6801C534.11 48.6801 527.99 47.6001 525.07 46.5201C522.39 47.4401 516.59 48.6801 513.79 48.6801C512.31 48.6801 511.43 47.9601 511.43 46.4001C511.43 44.9201 512.35 44.5201 513.71 44.4401C515.79 44.3201 517.83 44.2001 519.91 43.8801C518.99 43.2801 518.23 42.6401 517.43 41.8801C516.47 42.2801 514.63 43.0001 513.63 43.0001C512.51 43.0001 511.91 42.1601 511.91 41.1201C511.91 40.0801 512.63 39.6401 513.91 39.1201C515.59 38.4401 518.19 37.4001 520.07 35.9201C519.03 35.4401 518.91 34.6401 518.91 33.6001V32.8001C518.63 33.6401 517.79 34.8401 517.23 35.5601C516.23 36.9201 515.19 38.0001 514.19 38.0001C513.07 38.0001 512.07 36.9201 512.07 35.8401C512.07 35.4001 512.23 35.0401 512.51 34.7201C512.83 34.3201 513.31 33.9601 513.83 33.4401C512.39 33.2401 511.87 32.4401 511.87 31.0801V30.2001C511.87 28.8801 512.07 27.2401 513.71 27.0001L514.27 26.9201V21.5601C514.27 17.4401 515.03 16.6801 519.11 16.6801H522.11C522.19 16.3601 522.31 16.0001 522.39 15.6401H515.43C514.39 15.6401 513.47 15.4001 513.11 14.3201C512.67 16.8001 511.87 19.1601 511.03 21.5201V45.8001C511.03 47.6801 510.19 48.8001 508.23 48.8001C506.27 48.8001 505.47 47.6401 505.47 45.8001V31.0401C505.11 31.2401 504.79 31.3201 504.39 31.3201C502.55 31.3201 501.35 29.4401 501.35 27.7601C501.35 26.4801 501.99 25.5201 503.19 23.8001C505.35 20.7201 506.59 16.7201 507.51 13.0801C507.91 11.4401 508.43 10.6401 510.27 10.6401C511.59 10.6401 512.95 11.1601 513.23 12.5601C513.75 11.6801 514.47 11.5601 515.43 11.5601H537.43C538.91 11.5601 539.83 12.0801 539.83 13.6801C539.83 15.1601 538.75 15.6401 537.43 15.6401H528.07C527.95 16.0001 527.79 16.3601 527.63 16.6801H532.07C536.15 16.6801 536.91 17.4401 536.91 21.5601V26.9201L537.39 27.0001C539.07 27.2401 539.27 28.8401 539.27 30.2001V31.0801C539.27 32.1601 538.95 33.0001 537.79 33.3601C538.75 34.4001 539.23 35.0401 539.23 35.8401ZM533.43 29.6001H527.11C527.59 29.9601 527.95 30.2401 527.95 30.8801C527.95 31.6401 527.07 32.6401 526.15 32.6401C525.83 32.6401 525.51 32.4801 525.15 32.2401C524.55 31.8401 523.95 31.4001 523.47 31.0801C522.71 30.5601 522.43 30.3601 522.43 29.8401V29.6001H517.59C517.19 29.6001 516.91 29.7601 516.91 30.2401V30.5601C517.71 30.6401 518.63 31.0401 518.95 31.8401C519.07 30.6401 519.91 30.1201 521.03 30.1201C522.23 30.1201 523.11 30.6401 523.11 31.9601V32.3601C523.11 33.0401 523.19 33.4001 524.03 33.4001H527.03C528.07 33.4001 528.23 33.3601 528.39 32.6401C528.63 31.5601 528.99 31.1201 530.15 31.1201C530.83 31.1201 531.67 31.4001 532.07 31.9601C532.11 30.9201 533.11 30.2401 534.11 30.1601C534.07 29.7601 533.79 29.6001 533.43 29.6001ZM531.27 20.5201V19.9601C531.27 19.5201 531.07 19.3201 530.63 19.3201H520.43C519.95 19.3201 519.75 19.5201 519.75 19.9601V20.5201H531.27ZM519.75 22.4801V23.6801H531.27V22.4801H519.75ZM519.75 25.6001V26.8401H531.27V25.6001H519.75ZM528.07 41.3501C528.63 41.0301 528.79 40.8301 528.79 40.5901C528.79 40.1501 528.47 40.1101 528.15 40.1101H521.51C522.95 41.1101 524.15 41.7101 525.79 42.3901C526.39 42.1501 527.43 41.7101 528.07 41.3501Z" fill="#015DAE"/>
<path d="M561.21 42.04H580.25C582.01 42.04 583.05 43.08 583.05 44.84C583.05 46.72 582.05 47.72 580.21 47.72H562.01C558.17 47.72 555.45 47 552.85 44.04C552.33 44.8 551.73 45.56 551.13 46.28C550.33 47.2 549.45 48.2 548.13 48.2C546.25 48.2 544.69 46.36 544.69 44.48C544.69 43.36 545.49 42.48 546.81 41.44C547.49 40.88 548.13 40.32 548.77 39.68V32.04C548.77 31.56 548.69 31 548.09 31H547.33C545.37 31 544.73 29.64 544.73 27.88C544.73 25.92 545.81 25.12 547.69 25.12H549.61C553.69 25.12 554.37 26.08 554.37 30.08V37.72C554.37 41.88 558.97 42.04 561.21 42.04ZM548.18 10.96C548.62 10.96 549.1 11.08 549.54 11.32C550.5 11.88 551.74 12.92 552.54 13.68C553.34 14.4 554.82 15.84 555.38 16.72C555.62 17.08 555.78 17.56 555.78 18C555.78 19.72 554.22 21.28 552.54 21.28C551.34 21.28 550.62 20.56 549.86 19.76C549.1 18.92 547.86 17.64 547.06 16.92C545.78 15.88 545.06 15.12 545.06 14.08C545.06 12.56 546.66 10.96 548.18 10.96ZM573.33 36.64C571.45 37.08 566.01 38.12 564.29 38.12C562.81 38.12 562.25 37.08 562.25 35.72C562.25 33.36 564.49 33.56 566.21 33.52V30.36H562.61C562.17 30.36 561.97 30.56 561.97 31V38.76C561.97 39.6 561.85 41.28 559.29 41.28C556.73 41.28 556.29 40.36 556.29 38.76V31.32C556.29 27.12 557.13 26.4 561.29 26.4H566.21V25.28H562.09C557.89 25.28 557.13 24.48 557.13 20.32V16.64C557.13 12.48 557.93 11.72 562.09 11.72H576.05C580.21 11.72 581.01 12.48 581.01 16.64V20.32C581.01 24.48 580.21 25.28 576.05 25.28H570.93V26.4H576.89C581.05 26.4 581.89 27.12 581.89 31.32V36.24C581.89 38.36 581.81 40.32 579.81 40.92C578.89 41.2 577.45 41.24 576.29 41.24H575.09C573.53 41.24 572.13 41.16 572.13 39.04C572.13 38.08 572.53 37.28 573.57 37.12C573.45 36.92 573.41 36.88 573.33 36.64ZM563.21 15.56C562.73 15.56 562.49 15.76 562.49 16.24V17.24H566.21V15.56H563.21ZM566.21 20.2H562.49V21.24C562.49 21.68 562.73 21.92 563.17 21.92H566.21V20.2ZM576.65 36.08V31C576.65 30.56 576.45 30.36 576.01 30.36H570.93V33.08C571.45 33.04 571.93 33 572.45 32.92C572.37 32.6 572.29 32.08 572.29 31.76C572.29 30.96 573.01 30.6 573.73 30.6C574.73 30.6 574.97 31.36 575.25 32.16C575.57 33.08 576.25 35.32 576.25 36.2C576.25 36.6 576.21 36.8 575.93 37.08C576.57 37.04 576.65 36.64 576.65 36.08ZM571.57 17.24H575.57V16.2C575.57 15.76 575.37 15.56 574.93 15.56H571.57V17.24ZM574.93 21.92C575.37 21.92 575.57 21.72 575.57 21.24V20.2H571.57V21.92H574.93Z" fill="#015DAE"/>
<path d="M596.92 14.76V13.08C596.92 11 598 10.52 599.88 10.52C601.76 10.52 602.52 11.28 602.52 13.08V14.76H607.08C609.12 14.76 610 15.52 610 17.56C610 19.44 608.8 20.08 607.08 20.08H602.52V22.16H608.04C609.92 22.16 610.92 22.88 610.92 24.84C610.92 26.8 609.88 27.56 608.04 27.56H602.52V29.48H605.12C609.28 29.48 610.08 30.28 610.08 34.44V42.12C610.08 45.2 609.16 46.16 606.12 46.16C604.44 46.16 603.08 46.12 602.52 44.4V45.8C602.52 47.92 601.64 48.72 599.56 48.72C597.64 48.72 596.92 47.6 596.92 45.8V34.76H595.2C594.72 34.76 594.48 35.04 594.48 35.52V43.8C594.48 45.72 593.68 46.72 591.68 46.72C589.8 46.72 589.12 45.52 589.12 43.8V34.44C589.12 30.28 589.92 29.48 594.08 29.48H596.92V27.56H590.64C588.68 27.56 587.72 26.76 587.72 24.76C587.72 23.16 588.56 22.32 590.12 22.2C588.84 21.92 587.76 21.2 587.76 19.76C587.76 19.2 588.12 18.32 588.64 17.16C589.32 15.6 589.64 14.6 590.08 12.96C590.44 11.68 591 11.12 592.36 11.12C593.72 11.12 595.28 11.64 595.28 13.28C595.28 13.6 595.24 13.84 595 14.76H596.92ZM591.52 22.16H596.92V20.08H593.28C592.92 21 592.56 21.84 591.52 22.16ZM602.52 41.23C602.88 40.35 603.4 40.23 604.2 40.15C604.6 40.11 604.76 40.03 604.76 39.43V35.51C604.76 35.03 604.48 34.75 604 34.75H602.52V41.23ZM616.64 37.28C616.64 39.16 615.64 39.76 613.84 39.76C612.16 39.76 611.28 39 611.28 37.28V16C611.28 14.16 612.24 13.44 614.04 13.44C615.84 13.44 616.64 14.28 616.64 16V37.28ZM618.83 13.48C618.83 11.44 619.67 10.56 621.71 10.56C623.75 10.56 624.47 11.64 624.47 13.48V43.6C624.47 48.16 621.79 48.44 618.47 48.44H616.47C614.31 48.44 611.83 48.32 611.83 45.08C611.83 42.36 613.67 42.08 615.43 42.08H616.87C618.51 42.08 618.83 41.92 618.83 40.6V13.48Z" fill="#015DAE"/>
<path d="M662.31 19.8V20.32H665.75C667.35 20.32 668.23 21 668.23 22.68C668.23 24.36 667.35 25 665.75 25H662.31V26.2C662.31 30.36 661.51 31.16 657.39 31.16H647.47C643.31 31.16 642.55 30.36 642.55 26.2V25H638.83V32.28C638.83 36 638.27 39.8 637.51 43.48C637.03 45.72 636.43 48.4 633.87 48.4C632.07 48.4 630.35 47.32 630.35 45.4C630.35 44.44 631.11 42.44 631.43 41.48C632.39 38.6 632.87 34.76 632.87 31.72V18.36C632.87 14.56 634.39 13.04 638.19 13.04H646.63V12.48C646.63 10.88 648.63 10.48 649.87 10.48C651.11 10.48 653.07 10.88 653.07 12.48V13.04H664.87C666.79 13.04 667.83 13.8 667.83 15.8C667.83 17.8 666.67 18.48 664.87 18.48H661.91C662.23 18.84 662.31 19.28 662.31 19.8ZM664.63 42.59C666.51 42.71 668.23 42.83 668.23 45.23C668.23 47.11 667.31 48.35 665.35 48.35C661.71 48.35 656.35 46.75 652.95 45.39C649.71 46.67 643.79 48.27 640.39 48.27C638.63 48.27 637.91 47.07 637.91 45.47C637.91 43.59 638.79 43.15 640.87 42.83C641.83 42.67 642.99 42.51 644.47 42.31C645.03 42.23 645.55 42.15 646.11 41.99C644.75 41.15 642.67 39.87 642.67 38.51C642.67 38.03 642.87 37.63 643.11 37.23H641.87C640.11 37.23 639.35 36.47 639.35 34.71C639.35 32.95 640.27 32.31 641.87 32.31H660.31C661.63 32.31 662.87 32.31 663.79 33.35C664.47 34.07 664.83 34.99 664.83 35.99C664.83 37.11 664.43 37.95 663.67 38.79C662.63 39.95 661.11 41.03 659.83 41.91C661.39 42.19 663.03 42.47 664.63 42.59ZM639.68 18.48C639.12 18.48 638.84 18.76 638.84 19.32V20.32H642.56V19.8C642.56 19.28 642.64 18.84 642.96 18.48H639.68ZM655.76 37.6C655.76 37.24 655.2 37.24 655.08 37.24H647.6C649.36 38.4 650.68 38.96 652.64 39.76C653.16 39.52 655.76 38.2 655.76 37.6ZM648.2 19.8V20.32H656.56V19.8C656.56 19.32 656.64 18.84 656.96 18.48H647.8C648.12 18.88 648.2 19.28 648.2 19.8ZM648.2 26.2C648.2 26.72 648.44 26.96 648.96 26.96H655.8C656.32 26.96 656.56 26.72 656.56 26.2V25H648.2V26.2Z" fill="#015DAE"/>
<defs>
<linearGradient id="paint0_linear_410_8612" x1="5.6149" y1="38.2673" x2="30.7698" y2="12.8102" gradientUnits="userSpaceOnUse">
<stop stop-color="#CAEDC2"/>
<stop offset="1" stop-color="#BDE3FF"/>
</linearGradient>
<linearGradient id="paint1_linear_410_8612" x1="720.485" y1="49.5127" x2="748.003" y2="22.1395" gradientUnits="userSpaceOnUse">
<stop stop-color="#BDE3FF"/>
<stop offset="1" stop-color="#D6D0F7"/>
</linearGradient>
<linearGradient id="paint2_linear_410_8612" x1="678.905" y1="57.9858" x2="711.003" y2="6.17211" gradientUnits="userSpaceOnUse">
<stop stop-color="#CAEDC2"/>
<stop offset="1" stop-color="#FFEDA6"/>
</linearGradient>
<linearGradient id="paint3_linear_410_8612" x1="41.2635" y1="9.81756" x2="69.2329" y2="48.6479" gradientUnits="userSpaceOnUse">
<stop stop-color="#FFD2A6"/>
<stop offset="1" stop-color="#FFC4CE"/>
</linearGradient>
</defs>
</svg>
