<svg width="350" height="59" viewBox="0 0 350 59" fill="none" xmlns="http://www.w3.org/2000/svg">
<path d="M324.607 32.9876L321.274 36.4988L320 35.8117L324.607 32.9897V32.9876ZM334.12 27.1573L328.4 30.6619L322.324 37.0644L323.907 37.9184L334.122 27.1573H334.12ZM343.633 21.327L337.913 24.8316L324.954 38.4841L326.537 39.338L343.633 21.327ZM329.17 40.7577L349.109 19.7513L349.061 18L347.428 19.0013L327.587 39.9037L329.17 40.7577ZM349.222 23.826L349.154 21.3768L330.22 41.3256L331.802 42.1795L349.222 23.826ZM349.333 27.8985L349.265 25.4494L332.85 42.743L334.433 43.597L349.335 27.8985H349.333ZM349.446 31.9732L349.378 29.5241L335.483 44.1648L337.065 45.0188L349.448 31.9732H349.446ZM349.559 36.0458L349.491 33.5966L338.113 45.5823L339.696 46.4363L349.559 36.0458ZM349.672 40.1205L349.604 37.6713L340.746 47.0041L342.328 47.8581L349.672 40.1205ZM349.785 44.193L349.717 41.7439L343.378 48.4238L344.961 49.2777L349.787 44.1952L349.785 44.193ZM349.896 48.2677L349.828 45.8186L346.009 49.8434L347.591 50.6974L349.898 48.2677H349.896ZM350 51.9978L349.941 49.8933L348.639 51.2652L350 52V51.9978Z" fill="url(#paint0_linear_410_7070)" fill-opacity="0.8"/>
<path d="M286.647 38.3606C287.717 38.7502 288.266 39.9215 287.878 40.976C287.484 42.0323 286.297 42.5752 285.229 42.1922C284.16 41.8026 283.61 40.6313 283.998 39.5768C284.393 38.5205 285.579 37.9776 286.647 38.3606ZM290.565 41.9541C290.17 43.0103 290.722 44.1883 291.796 44.5695C292.866 44.9592 294.059 44.4144 294.445 43.3533C294.84 42.297 294.289 41.119 293.214 40.7379C292.144 40.3482 290.951 40.8929 290.565 41.9541ZM286.404 33.086C286.01 34.1422 286.561 35.3202 287.636 35.7014C288.706 36.091 289.899 35.5463 290.285 34.4852C290.68 33.4289 290.128 32.2509 289.054 31.8697C287.984 31.4801 286.791 32.0248 286.404 33.086ZM288.811 26.5951C288.416 27.6514 288.968 28.8294 290.043 29.2106C291.112 29.6002 292.306 29.0555 292.692 27.9943C293.087 26.9381 292.535 25.76 291.46 25.3789C290.39 24.9892 289.197 25.534 288.811 26.5951ZM292.978 35.4615C292.584 36.5177 293.135 37.6957 294.21 38.0769C295.28 38.4665 296.473 37.9218 296.859 36.8607C297.254 35.8044 296.702 34.6264 295.627 34.2452C294.558 33.8556 293.364 34.4003 292.978 35.4615ZM295.385 28.9706C294.99 30.0269 295.542 31.2049 296.616 31.5861C297.686 31.9757 298.879 31.431 299.266 30.3698C299.66 29.3136 299.109 28.1355 298.034 27.7544C296.964 27.3647 295.771 27.9095 295.385 28.9706ZM297.139 44.3296C296.744 45.3859 297.295 46.5638 298.37 46.945C299.44 47.3346 300.633 46.7899 301.019 45.7288C301.405 44.6676 300.862 43.4945 299.788 43.1134C298.718 42.7237 297.525 43.2684 297.139 44.3296ZM299.552 37.837C299.157 38.8932 299.709 40.0712 300.784 40.4524C301.853 40.842 303.046 40.2973 303.433 39.2362C303.827 38.1799 303.276 37.0019 302.201 36.6207C301.131 36.2311 299.938 36.7758 299.552 37.837ZM301.96 31.3528C301.566 32.4091 302.117 33.5871 303.192 33.9682C304.262 34.3579 305.455 33.8131 305.841 32.752C306.236 31.6957 305.684 30.5177 304.61 30.1365C303.54 29.7469 302.347 30.2917 301.96 31.3528ZM291.225 20.1025C290.83 21.1588 291.381 22.3368 292.456 22.7179C293.526 23.1076 294.719 22.5628 295.105 21.5017C295.5 20.4454 294.948 19.2674 293.874 18.8862C292.804 18.4966 291.611 19.0414 291.225 20.1025ZM297.798 22.478C297.404 23.5343 297.955 24.7123 299.03 25.0934C300.1 25.4831 301.293 24.9383 301.679 23.8772C302.074 22.8209 301.522 21.6429 300.447 21.2617C299.378 20.8721 298.185 21.4168 297.798 22.478ZM293.631 13.6117C293.237 14.6679 293.788 15.8459 294.863 16.2271C295.933 16.6167 297.126 16.072 297.512 15.0108C297.907 13.9546 297.355 12.7766 296.28 12.3954C295.211 12.0058 294.017 12.5505 293.631 13.6117ZM296.038 7.1208C295.643 8.17707 296.195 9.3551 297.269 9.73628C298.339 10.1259 299.532 9.58117 299.919 8.52001C300.313 7.46374 299.762 6.28575 298.687 5.90458C297.617 5.51494 296.424 6.05964 296.038 7.1208ZM300.205 15.9872C299.81 17.0434 300.362 18.2214 301.437 18.6026C302.506 18.9922 303.7 18.4475 304.086 17.3863C304.48 16.3301 303.929 15.1521 302.854 14.7709C301.784 14.3813 300.591 14.926 300.205 15.9872ZM302.612 9.49629C302.217 10.5526 302.769 11.7306 303.843 12.1118C304.913 12.5014 306.106 11.9567 306.492 10.8955C306.879 9.83434 306.336 8.66124 305.261 8.28006C304.191 7.89042 302.998 8.43513 302.612 9.49629ZM304.374 24.8602C303.979 25.9165 304.531 27.0944 305.605 27.4756C306.675 27.8653 307.868 27.3205 308.255 26.2593C308.649 25.2031 308.098 24.0251 307.023 23.6439C305.953 23.2543 304.76 23.799 304.374 24.8602ZM306.781 18.3693C306.386 19.4256 306.937 20.6036 308.012 20.9848C309.082 21.3744 310.275 20.8297 310.661 19.7685C311.056 18.7122 310.504 17.5343 309.43 17.1531C308.36 16.7634 307.167 17.3082 306.781 18.3693ZM309.187 11.8785C308.793 12.9347 309.344 14.1128 310.419 14.494C311.489 14.8836 312.682 14.3388 313.068 13.2777C313.463 12.2214 312.911 11.0434 311.836 10.6623C310.767 10.2726 309.573 10.8173 309.187 11.8785ZM303.714 46.7118C303.319 47.768 303.871 48.946 304.946 49.3272C306.015 49.7168 307.209 49.1721 307.595 48.111C307.99 47.0547 307.438 45.8767 306.363 45.4955C305.293 45.1059 304.1 45.6506 303.714 46.7118ZM310.288 49.0873C309.893 50.1435 310.445 51.3215 311.519 51.7027C312.589 52.0923 313.782 51.5476 314.169 50.4864C314.563 49.4302 314.012 48.2521 312.937 47.871C311.867 47.4813 310.674 48.0261 310.288 49.0873ZM306.128 40.2191C305.733 41.2754 306.284 42.4534 307.359 42.8346C308.429 43.2242 309.622 42.6795 310.008 41.6183C310.403 40.5621 309.851 39.384 308.777 39.0029C307.707 38.6132 306.514 39.158 306.128 40.2191ZM308.534 33.7283C308.14 34.7846 308.691 35.9626 309.766 36.3437C310.836 36.7334 312.029 36.1886 312.415 35.1275C312.81 34.0712 312.258 32.8932 311.183 32.512C310.114 32.1224 308.92 32.6671 308.534 33.7283ZM312.701 42.5946C312.307 43.6509 312.858 44.8289 313.933 45.2101C315.003 45.5997 316.196 45.055 316.582 43.9938C316.977 42.9376 316.425 41.7595 315.35 41.3784C314.281 40.9887 313.087 41.5335 312.701 42.5946ZM315.108 36.1038C314.713 37.1601 315.265 38.338 316.34 38.7192C317.409 39.1089 318.603 38.5641 318.989 37.503C319.375 36.4418 318.832 35.2687 317.757 34.8875C316.687 34.4979 315.494 35.0426 315.108 36.1038ZM316.863 51.4694C316.469 52.5257 317.02 53.7037 318.095 54.0849C319.165 54.4745 320.358 53.9298 320.744 52.8686C321.139 51.8124 320.587 50.6343 319.513 50.2532C318.443 49.8635 317.25 50.4083 316.863 51.4694ZM319.277 44.9768C318.882 46.0331 319.434 47.2111 320.508 47.5922C321.578 47.9819 322.771 47.4371 323.158 46.376C323.552 45.3197 323.001 44.1417 321.926 43.7605C320.856 43.3709 319.663 43.9157 319.277 44.9768ZM321.684 38.486C321.289 39.5422 321.84 40.7202 322.915 41.1014C323.985 41.491 325.178 40.9463 325.564 39.8851C325.959 38.8289 325.407 37.6509 324.333 37.2697C323.263 36.8801 322.07 37.4248 321.684 38.486ZM310.941 27.2375C310.546 28.2937 311.098 29.4717 312.172 29.8529C313.242 30.2425 314.435 29.6978 314.822 28.6366C315.216 27.5804 314.665 26.4024 313.59 26.0212C312.52 25.6316 311.327 26.1763 310.941 27.2375ZM317.515 29.613C317.12 30.6692 317.672 31.8472 318.746 32.2284C319.816 32.618 321.009 32.0733 321.395 31.0121C321.782 29.951 321.239 28.7779 320.164 28.3967C319.094 28.007 317.901 28.5518 317.515 29.613ZM313.354 20.7448C312.96 21.8011 313.511 22.9791 314.586 23.3603C315.656 23.7499 316.849 23.2052 317.235 22.144C317.63 21.0877 317.078 19.9097 316.004 19.5286C314.934 19.1389 313.741 19.6836 313.354 20.7448ZM315.761 14.254C315.366 15.3102 315.918 16.4883 316.993 16.8694C318.062 17.2591 319.256 16.7143 319.642 15.6532C320.028 14.592 319.485 13.4189 318.41 13.0377C317.34 12.6481 316.147 13.1928 315.761 14.254ZM319.928 23.1203C319.533 24.1766 320.085 25.3546 321.16 25.7358C322.23 26.1254 323.423 25.5806 323.809 24.5195C324.204 23.4632 323.652 22.2853 322.577 21.9041C321.507 21.5144 320.314 22.0591 319.928 23.1203ZM322.337 16.6362C321.942 17.6924 322.494 18.8704 323.568 19.2516C324.638 19.6412 325.831 19.0965 326.217 18.0353C326.612 16.9791 326.06 15.8011 324.986 15.4199C323.916 15.0303 322.723 15.575 322.337 16.6362ZM324.09 31.9951C323.696 33.0514 324.247 34.2294 325.322 34.6106C326.392 35.0002 327.585 34.4555 327.971 33.3943C328.366 32.338 327.814 31.16 326.739 30.7789C325.67 30.3892 324.476 30.9339 324.09 31.9951ZM326.504 25.5025C326.109 26.5587 326.661 27.7368 327.735 28.1179C328.805 28.5076 329.998 27.9628 330.384 26.9017C330.779 25.8454 330.228 24.6674 329.153 24.2862C328.083 23.8966 326.89 24.4413 326.504 25.5025ZM328.91 19.0116C328.516 20.0679 329.067 21.2459 330.142 21.6271C331.212 22.0167 332.405 21.472 332.791 20.4108C333.186 19.3546 332.634 18.1766 331.56 17.7954C330.485 17.4142 329.297 17.9505 328.91 19.0116Z" fill="url(#paint1_linear_410_7070)"/>
<path d="M8.75581 41.4094C6.05518 40.0646 3.90502 38.0189 2.40508 35.5847L17.1274 42.9103C14.3492 43.2151 11.4564 42.7503 8.75581 41.4056V41.4094ZM0.0960533 28.9257C0.225359 30.019 0.465496 31.0933 0.805384 32.1333L20.7406 42.057C21.7418 41.6875 22.706 41.2113 23.6185 40.636L0.0960533 28.9295V28.9257ZM0.35097 23.5429C0.15886 24.4343 0.0443332 25.3295 0 26.221L25.7317 39.0285C26.3857 38.438 26.9915 37.7866 27.5494 37.078L0.35097 23.5391V23.5429ZM29.9693 32.7771L2.11691 18.9144C1.91002 19.2801 1.71422 19.661 1.5295 20.0496C1.34847 20.4382 1.18222 20.8343 1.03444 21.2305L28.8868 35.0932C29.0937 34.7275 29.2895 34.3466 29.4742 33.958C29.6552 33.5695 29.8215 33.1733 29.9693 32.7771ZM5.26826 14.9754C4.61435 15.5658 4.00846 16.2173 3.4506 16.9258L30.649 30.4647C30.8411 29.5733 30.9557 28.6781 31 27.7867L5.26826 14.9792V14.9754ZM10.2557 11.9468C9.25456 12.3163 8.29031 12.7925 7.37779 13.3677L30.9003 25.0743C30.7709 23.981 30.5308 22.9067 30.1909 21.8667L10.2557 11.943V11.9468ZM13.8726 11.0935L28.5912 18.4191C27.095 15.9849 24.9448 13.9392 22.2405 12.5944C19.5399 11.2497 16.6471 10.7849 13.8689 11.0897L13.8726 11.0935Z" fill="url(#paint2_linear_410_7070)"/>
<path d="M47.9492 9.15063C47.2185 9.88513 46.0231 9.89797 45.2785 9.18249C44.535 8.46077 44.5221 7.27995 45.2465 6.54443C45.9773 5.80993 47.1727 5.79717 47.9172 6.51265C48.6608 7.23436 48.6736 8.41511 47.9492 9.15063ZM43.4439 11.0271C42.7003 10.3053 41.4986 10.3171 40.7732 11.0588C40.0425 11.7933 40.0543 12.9803 40.8052 13.6968C41.5487 14.4185 42.7504 14.4068 43.4759 13.665C44.2066 12.9305 44.1948 11.7436 43.4439 11.0271ZM52.4936 10.9319C51.7501 10.2102 50.5483 10.2219 49.8229 10.9637C49.0922 11.6982 49.104 12.8853 49.8549 13.6017C50.5984 14.3235 51.8002 14.3116 52.5256 13.5699C53.2564 12.8354 53.2445 11.6484 52.4936 10.9319ZM57.07 15.3512C56.3264 14.6295 55.1247 14.6412 54.3993 15.383C53.6686 16.1175 53.6803 17.3045 54.4313 18.021C55.1748 18.7427 56.3766 18.7309 57.102 17.9892C57.8327 17.2547 57.8209 16.0677 57.07 15.3512ZM48.0192 15.4526C47.2757 14.7309 46.0739 14.7426 45.3485 15.4844C44.6178 16.2189 44.6296 17.4058 45.3805 18.1223C46.124 18.8441 47.3258 18.8323 48.0512 18.0906C48.782 17.3561 48.7701 16.1691 48.0192 15.4526ZM52.5956 19.8718C51.852 19.1501 50.6503 19.1619 49.9249 19.9036C49.1942 20.6381 49.206 21.8251 49.9569 22.5416C50.7004 23.2633 51.9022 23.2516 52.6276 22.5098C53.3583 21.7753 53.3465 20.5883 52.5956 19.8718ZM38.9695 15.5476C38.2259 14.8259 37.0242 14.8378 36.2988 15.5795C35.568 16.314 35.5799 17.501 36.3308 18.2175C37.0817 18.934 38.276 18.9274 39.0015 18.1856C39.7322 17.4511 39.7204 16.2641 38.9695 15.5476ZM43.5448 19.9732C42.8013 19.2514 41.5995 19.2633 40.8741 20.005C40.1434 20.7395 40.1552 21.9265 40.9061 22.643C41.6496 23.3647 42.8514 23.3529 43.5768 22.6111C44.3076 21.8766 44.2957 20.6896 43.5448 19.9732ZM48.1149 24.3914C47.3713 23.6697 46.1696 23.6815 45.4441 24.4233C44.7134 25.1578 44.7253 26.3448 45.4762 27.0612C46.2197 27.783 47.4214 27.7711 48.1469 27.0294C48.8776 26.2949 48.8658 25.1079 48.1149 24.3914ZM61.6453 19.7767C60.9018 19.055 59.7 19.0667 58.9746 19.8085C58.2439 20.543 58.2557 21.73 59.0066 22.4464C59.7502 23.1682 60.9519 23.1564 61.6773 22.4147C62.4081 21.6802 62.3962 20.4932 61.6453 19.7767ZM57.1709 24.2973C56.4273 23.5756 55.2256 23.5874 54.5002 24.3291C53.7695 25.0636 53.7813 26.2506 54.5322 26.9671C55.2758 27.6888 56.4775 27.6771 57.2029 26.9353C57.9337 26.2008 57.9218 25.0138 57.1709 24.2973ZM66.2217 24.1959C65.4781 23.4742 64.2764 23.486 63.551 24.2277C62.8203 24.9622 62.8321 26.1492 63.583 26.8657C64.3266 27.5874 65.5283 27.5757 66.2537 26.8339C66.9844 26.0994 66.9726 24.9124 66.2217 24.1959ZM70.7981 28.6152C70.0545 27.8935 68.8528 27.9052 68.1273 28.647C67.3966 29.3815 67.4085 30.5685 68.1594 31.285C68.9029 32.0067 70.1046 31.9949 70.8301 31.2532C71.5608 30.5187 71.549 29.3317 70.7981 28.6152ZM61.7473 28.7166C61.0037 27.9949 59.802 28.0066 59.0766 28.7484C58.3458 29.4829 58.3577 30.6699 59.1086 31.3864C59.8522 32.1081 61.0539 32.0963 61.7793 31.3546C62.51 30.6201 62.4982 29.4331 61.7473 28.7166ZM66.3237 33.1359C65.5801 32.4141 64.3784 32.4259 63.6529 33.1676C62.9222 33.9021 62.9341 35.0891 63.685 35.8056C64.4359 36.5221 65.6302 36.5156 66.3557 35.7738C67.0864 35.0393 67.0746 33.8524 66.3237 33.1359ZM52.6902 28.8169C51.9466 28.0952 50.7449 28.1069 50.0195 28.8487C49.2888 29.5832 49.3006 30.7703 50.0515 31.4868C50.7951 32.2085 51.9968 32.1966 52.7222 31.4549C53.4529 30.7204 53.4411 29.5334 52.6902 28.8169ZM57.2666 33.2362C56.523 32.5145 55.3213 32.5262 54.5959 33.2679C53.8651 34.0024 53.877 35.1895 54.6279 35.906C55.3714 36.6277 56.5731 36.6159 57.2986 35.8742C58.0293 35.1397 58.0175 33.9527 57.2666 33.2362ZM61.843 37.6554C61.0994 36.9337 59.8977 36.9455 59.1722 37.6872C58.4415 38.4217 58.4533 39.6088 59.2042 40.3253C59.9478 41.047 61.1495 41.0352 61.8749 40.2934C62.6057 39.5589 62.5939 38.3719 61.843 37.6554ZM34.4888 20.0673C33.7452 19.3456 32.5435 19.3573 31.8181 20.0991C31.0873 20.8336 31.0991 22.0206 31.85 22.7371C32.5936 23.4588 33.7953 23.447 34.5208 22.7053C35.2515 21.9708 35.2397 20.7838 34.4888 20.0673ZM30.0144 24.5879C29.2708 23.8662 28.0691 23.878 27.3437 24.6197C26.6129 25.3542 26.6247 26.5412 27.3756 27.2577C28.1192 27.9794 29.3209 27.9677 30.0464 27.2259C30.7771 26.4914 30.7653 25.3044 30.0144 24.5879ZM39.0641 24.4928C38.3205 23.7711 37.1188 23.7828 36.3934 24.5246C35.6627 25.2591 35.6745 26.4461 36.4254 27.1626C37.1689 27.8843 38.3707 27.8725 39.0961 27.1308C39.8268 26.3963 39.815 25.2093 39.0641 24.4928ZM43.6405 28.9121C42.8969 28.1903 41.6952 28.2021 40.9698 28.9438C40.239 29.6783 40.2509 30.8653 41.0018 31.5818C41.7453 32.3035 42.947 32.2918 43.6725 31.55C44.4032 30.8155 44.3914 29.6285 43.6405 28.9121ZM34.5897 29.0134C33.8461 28.2917 32.6444 28.3035 31.919 29.0452C31.1883 29.7797 31.2001 30.9667 31.951 31.6832C32.6945 32.4049 33.8963 32.3932 34.6217 31.6514C35.3524 30.9169 35.3406 29.7299 34.5897 29.0134ZM39.1661 33.4326C38.4225 32.7109 37.2208 32.7227 36.4954 33.4645C35.7646 34.199 35.7765 35.386 36.5274 36.1025C37.2783 36.819 38.4726 36.8125 39.1981 36.0707C39.9288 35.3362 39.917 34.1491 39.1661 33.4326ZM25.5336 29.1075C24.7901 28.3858 23.5884 28.3975 22.8629 29.1393C22.1322 29.8738 22.144 31.0608 22.8949 31.7773C23.6385 32.499 24.8402 32.4873 25.5657 31.7455C26.2964 31.011 26.2845 29.824 25.5336 29.1075ZM30.109 33.533C29.3654 32.8113 28.1637 32.8231 27.4383 33.5648C26.7076 34.2993 26.7194 35.4863 27.4703 36.2028C28.2139 36.9245 29.4156 36.9128 30.141 36.171C30.8717 35.4365 30.8599 34.2495 30.109 33.533ZM34.6853 37.9523C33.9418 37.2306 32.7401 37.2423 32.0146 37.9841C31.2839 38.7186 31.2958 39.9056 32.0467 40.6221C32.7902 41.3438 33.9919 41.332 34.7174 40.5903C35.4481 39.8558 35.4362 38.6688 34.6853 37.9523ZM48.2168 33.3313C47.4733 32.6096 46.2715 32.6213 45.5461 33.3631C44.8154 34.0976 44.8272 35.2846 45.5781 36.0011C46.3217 36.7228 47.5234 36.7111 48.2488 35.9693C48.9796 35.2348 48.9677 34.0478 48.2168 33.3313ZM43.7424 37.8519C42.9989 37.1302 41.7971 37.142 41.0717 37.8838C40.341 38.6183 40.3528 39.8053 41.1037 40.5217C41.8546 41.2382 43.049 41.2317 43.7744 40.49C44.5052 39.7555 44.4933 38.5684 43.7424 37.8519ZM52.7922 37.7568C52.0486 37.0351 50.8469 37.0469 50.1215 37.7886C49.3907 38.5231 49.4026 39.7101 50.1535 40.4266C50.897 41.1483 52.0987 41.1366 52.8242 40.3948C53.5549 39.6603 53.5431 38.4733 52.7922 37.7568ZM57.3686 42.1761C56.625 41.4544 55.4232 41.4661 54.6978 42.2079C53.9671 42.9424 53.9789 44.1294 54.7298 44.8459C55.4807 45.5623 56.6751 45.5558 57.4005 44.8141C58.1313 44.0796 58.1195 42.8926 57.3686 42.1761ZM48.3178 42.2774C47.5742 41.5557 46.3725 41.5675 45.647 42.3093C44.9163 43.0438 44.9282 44.2308 45.6791 44.9473C46.4226 45.669 47.6244 45.6571 48.3498 44.9154C49.0805 44.1809 49.0687 42.9939 48.3178 42.2774ZM52.8878 46.6957C52.1443 45.9739 50.9426 45.9858 50.2171 46.7275C49.4864 47.462 49.4982 48.649 50.2491 49.3655C50.9927 50.0872 52.1944 50.0754 52.9198 49.3336C53.6505 48.5991 53.6387 47.4121 52.8878 46.6957ZM39.2617 42.3715C38.5182 41.6498 37.3164 41.6616 36.591 42.4033C35.8603 43.1378 35.8721 44.3248 36.623 45.0413C37.3666 45.763 38.5683 45.7513 39.2937 45.0095C40.0244 44.275 40.0126 43.088 39.2617 42.3715ZM43.8371 46.7971C43.0935 46.0753 41.8918 46.0871 41.1663 46.8288C40.4356 47.5633 40.4475 48.7503 41.1984 49.4668C41.9419 50.1885 43.1436 50.1768 43.8691 49.435C44.5998 48.7005 44.588 47.5136 43.8371 46.7971ZM48.4134 51.2163C47.6699 50.4946 46.4682 50.5064 45.7427 51.2481C45.012 51.9826 45.0238 53.1696 45.7747 53.8861C46.5183 54.6078 47.72 54.5961 48.4454 53.8543C49.1709 53.1125 49.1643 51.9328 48.4134 51.2163Z" fill="url(#paint3_linear_410_7070)"/>
<path d="M58.8418 21.8926C57.7084 22.7536 56.4005 23.7295 55.4123 23.7295C54.1335 23.7295 53 22.5527 53 21.2898C53 20.4001 53.4941 19.9121 54.6276 19.1372C57.5921 17.1568 60.2369 14.8893 62.5911 12.2488L56.5167 12.3349C55.6448 12.3349 54.2207 12.2775 54.2207 10.0675C54.2207 8.68978 55.0054 7.97224 56.4005 7.94354L64.8581 7.80003L64.7999 4.04011C64.7999 3.20776 64.9162 1.83008 67.1541 1.83008C68.5782 1.83008 69.392 2.51892 69.4211 3.98271L69.4792 7.71392L74.4492 7.62782C75.1758 7.62782 76.7452 7.74263 76.7452 9.86655C76.7452 11.2442 75.9605 11.9905 74.5654 12.0192L69.5374 12.1053L69.6827 21.3759C69.6827 22.237 69.6536 23.8156 68.927 24.8201C68.2876 25.6812 66.9216 26.0256 65.4103 26.0256C63.5502 26.0256 62.0098 25.8247 62.0098 23.586C62.0098 22.5814 62.5911 21.5768 63.7246 21.5768C63.899 21.5768 64.1605 21.6342 64.3059 21.6342H64.4512C64.9743 21.6342 65.0615 21.4907 65.0615 20.7445L65.0034 16.0374C63.1433 18.19 61.1088 20.1705 58.8418 21.8926Z" fill="#D70C18"/>
<path d="M103.709 11.7676C105.134 11.7676 106.064 12.7147 106.064 14.0924C106.064 15.4701 105.134 16.446 103.709 16.446H83.4228C81.9986 16.446 81.0686 15.4988 81.0686 14.0924C81.0686 12.686 81.9696 11.7676 83.4228 11.7676H103.709Z" fill="#D70C18"/>
<path d="M112.37 9.64377C110.975 9.64377 110.162 8.75402 110.162 7.37633C110.162 5.99865 110.946 5.1089 112.37 5.1089H125.856C128.472 5.1089 130.012 5.94125 130.012 8.78272C130.012 10.5335 129.431 12.2269 128.617 13.8342C127.048 16.934 124.81 19.6607 122.078 21.842C120.421 23.1623 116.003 25.9463 113.911 25.9463C112.545 25.9463 111.499 24.6835 111.499 23.3919C111.499 21.9281 112.923 21.5837 114.056 21.1244C117.253 19.8616 120.131 17.7376 122.31 15.0971C123.095 14.1212 125.042 11.3946 125.042 10.1604C125.042 9.72987 124.752 9.64377 124.374 9.64377H112.37ZM134.394 3.07108C134.394 4.73578 132.97 6.11346 131.284 6.11346C129.598 6.11346 128.203 4.73578 128.203 3.07108C128.203 1.40638 129.598 0 131.284 0C133.115 0 134.394 1.40638 134.394 3.07108ZM129.889 3.07108C129.889 3.81733 130.528 4.44876 131.284 4.44876C132.039 4.44876 132.708 3.81733 132.708 3.07108C132.708 2.32484 132.069 1.6647 131.284 1.6647C130.499 1.6647 129.889 2.29614 129.889 3.07108Z" fill="#D70C18"/>
<path d="M161.016 9.21326C161.016 9.8734 160.725 10.4187 160.377 10.9354C158.313 13.8629 155.756 16.5035 152.994 18.7709C150.117 21.1532 146.891 23.2771 143.432 24.7122C142.154 25.2288 141.776 25.3149 141.311 25.3149C139.858 25.3149 138.782 23.8798 138.782 22.5308C138.782 21.1819 139.625 20.9235 141.02 20.3782C146.949 18.0821 152.413 13.6333 156.133 8.58182C156.831 7.63466 157.47 6.83102 158.488 6.83102C159.795 6.83102 161.016 7.89298 161.016 9.21326ZM145.293 6.4579C146.194 7.06063 147.24 7.80687 147.24 9.01235C147.24 10.2178 146.194 11.6816 144.828 11.6816C144.246 11.6816 143.781 11.3659 142.88 10.7344C142.154 10.2465 141.427 9.75859 140.642 9.27066C139.451 8.55312 138.869 8.18 138.869 7.17544C138.869 5.79776 140.032 4.59229 141.398 4.59229C142.415 4.59229 143.839 5.45334 145.293 6.4579Z" fill="#D70C18"/>
<path d="M173.412 4.04711C173.383 3.8175 173.354 3.58788 173.354 3.38697C173.354 1.92319 174.4 1.29175 176.028 1.29175C177.336 1.29175 177.946 2.03799 178.149 3.21476L178.672 6.31454L183.206 5.6257C183.41 5.597 183.613 5.5683 183.788 5.5683C185.154 5.597 185.938 6.45805 185.938 7.92184C185.938 9.21341 185.154 9.84485 183.962 10.0171L179.399 10.7059L179.806 13.1168L186.287 12.1697C186.491 12.141 186.665 12.1123 186.868 12.1123C188.176 12.141 189.019 13.002 189.019 14.4658C189.019 15.7574 188.322 16.3888 187.014 16.5898L180.533 17.5369L181.608 23.9374C181.666 24.2818 181.724 24.7697 181.724 24.9706C181.724 26.4057 180.794 27.0659 179.108 27.0659C177.713 27.0659 177.161 26.4057 176.929 25.0855L175.766 18.2257L168.413 19.2877C168.239 19.3164 168.064 19.3451 167.89 19.3451C166.524 19.3451 165.71 18.4554 165.71 16.9629C165.71 15.7 166.495 15.0399 167.686 14.8676L175.039 13.8057L174.633 11.3947L169.75 12.1123C169.575 12.141 169.401 12.1697 169.227 12.1697C167.861 12.1697 167.018 11.3086 167.018 9.81615C167.018 8.55328 167.803 7.92184 168.994 7.74963L173.906 7.00338L173.412 4.04711Z" fill="#D70C18"/>
<path d="M207.889 25.6524C207.918 25.8246 207.918 25.9681 207.918 26.1403C207.918 27.3458 206.872 28.0346 205.738 28.0346C204.75 28.0346 204.081 27.518 203.878 26.5135L202.018 17.3289L197.658 18.1613C197.513 18.19 197.339 18.19 197.164 18.19C196.002 18.19 195.362 17.3289 195.362 16.2096C195.362 15.2624 195.856 14.5736 196.903 14.4013L201.262 13.6264L200.536 9.86648C200.507 9.69427 200.478 9.52206 200.478 9.34985C200.478 8.14438 201.437 7.51294 202.686 7.51294C203.675 7.51294 204.343 8.05827 204.547 9.00543L205.331 12.8802L212.161 11.646C212.423 11.5886 212.568 11.5886 212.772 11.5886C213.934 11.5886 214.98 12.3922 214.98 13.5977C214.98 14.7171 213.498 16.7262 212.597 17.9317C212.045 18.6779 211.464 19.4528 210.795 20.0843C210.417 20.4574 209.894 20.687 209.487 20.687C208.441 20.687 207.395 19.8547 207.395 18.7927C207.395 18.1613 207.773 17.7307 208.383 17.0706C208.732 16.6975 209.08 16.3244 209.4 15.9225L206.058 16.554L207.889 25.6524Z" fill="#D70C18"/>
<path d="M242.351 9.21326C242.351 9.8734 242.06 10.4187 241.712 10.9354C239.648 13.8629 237.09 16.5035 234.329 18.7709C231.452 21.1532 228.226 23.2771 224.767 24.7122C223.489 25.2288 223.111 25.3149 222.646 25.3149C221.193 25.3149 220.117 23.8798 220.117 22.5308C220.117 21.1819 220.96 20.9235 222.355 20.3782C228.284 18.0821 233.748 13.6333 237.468 8.58182C238.166 7.63466 238.805 6.83102 239.823 6.83102C241.13 6.83102 242.351 7.89298 242.351 9.21326ZM226.635 6.4579C227.536 7.06063 228.582 7.80687 228.582 9.01235C228.582 10.2178 227.536 11.6816 226.17 11.6816C225.588 11.6816 225.123 11.3659 224.222 10.7344C223.496 10.2465 222.769 9.75859 221.985 9.27066C220.793 8.55312 220.212 8.18 220.212 7.17544C220.212 5.79776 221.374 4.59229 222.74 4.59229C223.757 4.59229 225.182 5.45334 226.635 6.4579Z" fill="#D70C18"/>
<path d="M255.677 9.09834C255.677 9.87328 255.27 10.9352 254.689 12.2555C253.701 14.523 252.364 16.733 250.823 18.7134C249.748 20.1198 248.207 22.0141 246.725 22.0141C245.359 22.0141 243.935 20.9521 243.935 19.5458C243.935 18.7421 244.4 18.2829 245.272 17.3931C248.004 14.6665 249.457 12.0259 250.765 8.35209C251.143 7.29013 251.87 6.91701 252.858 6.91701C254.166 6.91701 255.677 7.63455 255.677 9.09834ZM264.512 8.81132C265.181 9.64367 265.82 10.5047 266.431 11.3658C267.477 12.887 270.499 17.4218 270.499 19.0865C270.499 20.5216 269.046 21.5836 267.68 21.5836C266.198 21.5836 265.762 20.5216 265.268 19.3448C264.018 16.446 262.303 13.8341 260.298 11.3658C259.891 10.8778 259.542 10.3612 259.542 9.70107C259.542 8.38079 260.85 7.43364 262.1 7.43364C263.233 7.43364 263.844 8.00767 264.512 8.81132ZM270.732 5.0227C270.732 6.7448 269.25 8.20858 267.477 8.20858C265.704 8.20858 264.222 6.7448 264.222 5.0227C264.222 3.30059 265.704 1.80811 267.477 1.80811C269.25 1.80811 270.732 3.27189 270.732 5.0227ZM265.995 5.0227C265.995 5.79764 266.663 6.48648 267.477 6.48648C268.291 6.48648 268.959 5.79764 268.959 5.0227C268.959 4.24775 268.291 3.53021 267.477 3.53021C266.663 3.53021 265.995 4.21905 265.995 5.0227Z" fill="#D70C18"/>
<path d="M295.64 18.3402C296.803 19.517 297.587 20.3493 297.587 21.3826C297.587 22.7316 296.367 23.9657 295.001 23.9657C294.071 23.9657 293.489 23.3917 292.763 22.502C291.309 20.7512 289.769 19.1439 287.996 17.7375C286.02 19.5457 283.84 21.153 281.486 22.4446C280.44 23.0186 278.579 24.0518 277.533 24.0518C276.167 24.0518 275.092 22.8464 275.092 21.5261C275.092 20.2919 275.993 19.8614 277.01 19.4309C281.951 17.307 286.107 13.834 289.042 9.35658H280.527C279.044 9.35658 278.202 8.63904 278.202 7.14655C278.202 5.65407 279.044 4.93652 280.527 4.93652H291.891C293.547 4.93652 295.001 5.53926 295.001 7.40487C295.001 9.27048 292.298 12.8582 291.164 14.322C292.763 15.5561 294.245 16.9051 295.64 18.3402Z" fill="#D70C18"/>
<path d="M89.7858 38.6119H89.1755C88.2745 38.6119 87.4025 38.6406 86.5306 38.6406C85.1937 38.6406 84.409 38.4397 84.409 36.8898C84.409 35.3399 85.8331 35.1677 86.5888 35.1677H87.0828C87.7804 35.1677 88.4779 35.139 89.1755 35.139C89.6986 34.3354 90.1055 33.6752 90.4542 33.1299C91.3843 31.6661 91.8784 31.0347 93.07 31.0347C94.0872 31.0347 95.6567 31.4078 95.6567 32.642C95.6567 33.3021 94.8429 34.3067 94.0582 35.2251H94.6976C96.9936 35.2251 99.3187 35.1677 101.615 35.139C100.888 34.5363 100.423 34.1632 100.423 33.5317C100.423 32.3836 101.702 31.5513 102.777 31.5513C103.33 31.5513 103.766 31.8096 104.231 32.0966C105.19 32.7281 106.091 33.4169 106.992 34.1345C108.445 35.2251 109.782 36.2297 109.782 37.3203C109.782 38.411 108.706 39.4443 107.515 39.4443C106.73 39.4443 106.352 39.0998 105.19 38.0666C102.865 38.2675 100.568 38.3536 98.2434 38.411C98.0399 38.8415 97.8365 39.2434 97.604 39.6452H109.113C110.334 39.6452 111.235 40.1331 111.235 41.4534C111.235 42.7737 110.421 43.2329 109.113 43.2329H104.986C106.527 44.2948 106.759 44.5245 108.881 45.3855C110.043 45.8447 111.177 46.0744 111.177 47.5094C111.177 48.6001 110.45 49.863 109.23 49.863C107.864 49.863 104.957 47.8539 103.824 47.0215C102.283 45.8734 101.063 44.6967 99.8419 43.2329H95.1045C94 44.5245 92.605 45.7299 91.268 46.7632C93.7675 46.1605 94.901 45.6725 97.139 44.4384C97.5168 44.2374 97.9527 44.0078 98.3887 44.0078C99.2606 44.0078 99.9872 44.8976 99.9872 45.7299C99.9872 46.1605 99.8128 46.4475 99.4641 46.7058C98.7956 47.1937 97.2552 47.94 96.4705 48.2844C94.9882 48.8871 91.5587 50.0065 90.0183 50.0065C89.1754 50.0065 88.7395 49.2889 88.6523 48.5427C87.8385 49.0019 86.6178 49.6621 85.6587 49.6621C84.438 49.6621 83.7114 48.4853 83.7114 47.3946C83.7114 46.304 84.3799 45.9882 85.3681 45.5864C86.8794 44.9263 88.3035 44.18 89.6114 43.2329H85.8622C84.6706 43.2329 83.7405 42.745 83.7405 41.4534C83.7405 40.1618 84.6706 39.6452 85.8622 39.6452H93.4188C93.7094 39.3008 93.9129 38.9563 94.1163 38.5545C92.6631 38.5832 91.239 38.6119 89.7858 38.6119ZM88.2454 51.1259C92.7794 50.5805 96.732 49.7195 100.714 47.3659C101.063 47.1363 101.499 46.9067 101.934 46.9067C102.806 46.9067 103.562 47.8539 103.562 48.6575C103.562 49.088 103.33 49.4038 103.01 49.6908C102.08 50.5231 99.4059 51.5851 98.2143 52.0443C95.6567 52.9628 90.5996 54.2256 87.9548 54.2256C86.8794 54.2256 86.4434 53.422 86.4434 52.5896C86.4434 51.4703 87.2863 51.2407 88.2454 51.1259ZM107.776 51.8721C107.776 52.647 107.195 53.1637 106.585 53.5655C104.696 54.8284 102.283 55.8329 100.133 56.5792C97.5749 57.4402 94.9301 58.0143 92.2271 58.33C91.2099 58.4448 89.4951 58.617 88.4779 58.617C87.2572 58.617 86.5016 57.9569 86.5016 56.7227C86.5016 55.2589 87.6641 55.1154 88.9429 55.0006C94.2616 54.5414 99.7547 53.5081 104.231 50.437C104.696 50.1213 105.19 49.8056 105.8 49.8056C106.846 49.8056 107.776 50.8388 107.776 51.8721Z" fill="#D70C18"/>
<path d="M121.197 50.667C120.673 52.8196 119.801 55.4028 118.581 57.2684C118.174 57.8998 117.651 58.3303 116.866 58.3303C115.674 58.3303 114.221 57.3545 114.221 56.0916C114.221 55.5176 114.512 54.9435 115.035 54.0538C116.604 51.2984 117.215 49.318 117.651 46.2182C117.912 44.2952 118.058 42.3435 118.058 40.4205H116.575C114.89 40.4205 114.454 39.6742 114.454 38.0957C114.454 36.6893 115.209 36.1439 116.575 36.1439H118.058V33.3886C118.058 31.7813 118.784 31.2646 120.325 31.2646C121.749 31.2646 122.301 32.0683 122.301 33.3886V36.1439H124.829C125.876 36.1439 126.922 36.2013 127.678 37.0624C128.317 37.7799 128.375 38.8132 128.375 39.7891C128.375 43.3194 128.259 46.046 128.172 49.4041C128.114 51.2697 127.939 55.6324 127.096 57.1536C126.341 58.5313 124.597 58.5887 123.173 58.5887C122.563 58.5887 121.342 58.5887 120.819 58.2729C120.15 57.8711 119.889 56.8666 119.889 56.1203C119.889 54.9435 120.354 53.9964 121.691 53.9964H122.214C122.65 53.9964 123.202 53.9677 123.405 53.164C123.958 51.0975 124.045 43.7499 124.045 41.2815C124.045 40.5353 123.958 40.4205 123.202 40.4205H122.301C122.243 43.6638 121.952 47.5098 121.197 50.667ZM141.011 54.1614C141.011 56.8881 139.877 58.0075 137.145 58.0075H133.716C130.955 58.0075 129.821 56.8881 129.821 54.1614V36.431C129.821 33.7043 130.955 32.6136 133.716 32.6136H137.145C139.877 32.6136 141.011 33.7043 141.011 36.431V54.1686V54.1614ZM134.907 36.8041C134.326 36.8041 134.006 37.1485 134.006 37.7225V52.9057C134.006 53.4798 134.326 53.7955 134.907 53.7955H135.925C136.506 53.7955 136.826 53.4798 136.826 52.9057V37.7225C136.826 37.0911 136.506 36.8041 135.925 36.8041H134.907Z" fill="#D70C18"/>
<path d="M172.393 49.4322C172.393 50.2645 171.55 50.8385 170.765 50.8385C169.98 50.8385 169.573 50.2645 169.167 49.6618C168.76 49.0877 168.382 48.5424 167.946 48.0258C167.742 47.7962 167.539 47.5666 167.394 47.3082C167.336 49.4609 165.97 49.6618 164.633 49.6618H162.424C162.22 49.9488 162.046 50.121 161.784 50.3793H167.83C168.876 50.3793 169.777 50.6376 169.777 51.8431C169.777 53.5078 168.033 54.455 166.754 55.1438C168.207 55.3734 169.719 55.4021 171.201 55.4882C172.218 55.5456 172.829 55.8613 172.829 56.952C172.829 58.2436 172.131 58.6454 170.939 58.6454C168.672 58.6454 164.226 57.8705 162.104 57.0955C160.157 57.7557 155.942 58.6454 153.908 58.6454C152.833 58.6454 152.193 58.1288 152.193 57.0094C152.193 55.9474 152.862 55.6604 153.85 55.603C155.361 55.5169 156.843 55.4308 158.355 55.2012C157.686 54.7707 157.134 54.3115 156.553 53.7661C155.855 54.0531 154.518 54.5698 153.792 54.5698C152.978 54.5698 152.542 53.967 152.542 53.2208C152.542 52.4745 153.065 52.1588 153.995 51.7857C155.216 51.2978 157.105 50.5515 158.471 49.4896C157.715 49.1451 157.628 48.5711 157.628 47.8249V47.2508C157.425 47.8536 156.814 48.7146 156.408 49.2313C155.681 50.2071 154.925 50.9821 154.199 50.9821C153.385 50.9821 152.658 50.2071 152.658 49.4322C152.658 49.1164 152.775 48.8581 152.978 48.6285C153.21 48.3415 153.559 48.0832 153.937 47.7101C152.891 47.5666 152.513 46.9925 152.513 46.0167V45.3852C152.513 44.4381 152.658 43.2613 153.85 43.0891L154.257 43.0317V39.1857C154.257 36.2294 154.809 35.6841 157.773 35.6841H159.953C160.011 35.4544 160.099 35.1961 160.157 34.9378H155.1C154.344 34.9378 153.675 34.7656 153.414 33.9907C153.094 35.7702 152.513 37.4636 151.903 39.157V56.5789C151.903 57.9279 151.292 58.7315 149.868 58.7315C148.444 58.7315 147.863 57.8992 147.863 56.5789V45.988C147.601 46.1315 147.369 46.1889 147.078 46.1889C145.741 46.1889 144.869 44.8399 144.869 43.6344C144.869 42.716 145.334 42.0271 146.206 40.793C147.776 38.5829 148.677 35.7128 149.345 33.1009C149.636 31.9241 150.013 31.3501 151.35 31.3501C152.309 31.3501 153.298 31.7232 153.501 32.7278C153.879 32.0963 154.402 32.0102 155.1 32.0102H171.085C172.16 32.0102 172.829 32.3834 172.829 33.5314C172.829 34.5934 172.044 34.9378 171.085 34.9378H164.284C164.197 35.1961 164.08 35.4544 163.964 35.6841H167.19C170.155 35.6841 170.707 36.2294 170.707 39.1857V43.0317L171.056 43.0891C172.276 43.2613 172.422 44.4094 172.422 45.3852V46.0167C172.422 46.7916 172.189 47.3943 171.346 47.6527C172.044 48.3989 172.393 48.8581 172.393 49.4322ZM168.178 44.9547H163.586C163.935 45.213 164.197 45.4139 164.197 45.8732C164.197 46.4185 163.557 47.136 162.889 47.136C162.656 47.136 162.424 47.0212 162.162 46.849C161.726 46.562 161.29 46.2463 160.941 46.0167C160.389 45.6435 160.186 45.5 160.186 45.1269V44.9547H156.669C156.378 44.9547 156.175 45.0695 156.175 45.4139V45.6435C156.756 45.7009 157.425 45.988 157.657 46.562C157.744 45.7009 158.355 45.3278 159.169 45.3278C160.04 45.3278 160.68 45.7009 160.68 46.6481V46.9351C160.68 47.423 160.738 47.6814 161.348 47.6814H163.528C164.284 47.6814 164.4 47.6527 164.516 47.136C164.691 46.3611 164.952 46.0454 165.795 46.0454C166.289 46.0454 166.9 46.2463 167.19 46.6481C167.219 45.9019 167.946 45.4139 168.672 45.3565C168.643 45.0695 168.44 44.9547 168.178 44.9547ZM166.609 38.4394V38.0376C166.609 37.7219 166.464 37.5784 166.144 37.5784H158.733C158.384 37.5784 158.239 37.7219 158.239 38.0376V38.4394H166.609ZM158.239 39.8458V40.7068H166.609V39.8458H158.239ZM158.239 42.0845V42.9743H166.609V42.0845H158.239ZM164.284 53.3858C164.691 53.1562 164.807 53.0127 164.807 52.8405C164.807 52.5248 164.574 52.4961 164.342 52.4961H159.517C160.564 53.2136 161.436 53.6441 162.627 54.1321C163.063 53.9599 163.819 53.6441 164.284 53.3858Z" fill="#D70C18"/>
<path d="M188.363 53.8813H202.198C203.476 53.8813 204.232 54.6275 204.232 55.8904C204.232 57.2394 203.506 57.9569 202.169 57.9569H188.945C186.154 57.9569 184.178 57.4403 182.289 55.3164C181.911 55.8617 181.475 56.407 181.039 56.9237C180.458 57.5838 179.818 58.3014 178.859 58.3014C177.493 58.3014 176.36 56.9811 176.36 55.6321C176.36 54.8284 176.941 54.197 177.9 53.4508C178.394 53.0489 178.859 52.6471 179.324 52.1879V46.7059C179.324 46.3615 179.266 45.9596 178.83 45.9596H178.278C176.854 45.9596 176.389 44.9838 176.389 43.7209C176.389 42.3145 177.174 41.7405 178.54 41.7405H179.935C182.899 41.7405 183.393 42.4293 183.393 45.2995V50.7815C183.393 53.7665 186.736 53.8813 188.363 53.8813ZM178.896 31.5801C179.215 31.5801 179.564 31.6662 179.884 31.8384C180.581 32.2402 181.482 32.9865 182.064 33.5318C182.645 34.0484 183.72 35.0817 184.127 35.7131C184.302 35.9714 184.418 36.3159 184.418 36.6316C184.418 37.8657 183.284 38.9851 182.064 38.9851C181.192 38.9851 180.669 38.4685 180.116 37.8945C179.564 37.2917 178.663 36.3733 178.082 35.8566C177.152 35.1104 176.629 34.5651 176.629 33.8188C176.629 32.7281 177.791 31.5801 178.896 31.5801ZM197.17 50.0066C195.804 50.3223 191.851 51.0685 190.601 51.0685C189.526 51.0685 189.119 50.3223 189.119 49.3464C189.119 47.653 190.746 47.7965 191.996 47.7678V45.5004H189.38C189.061 45.5004 188.915 45.6439 188.915 45.9596V51.5278C188.915 52.1305 188.828 53.336 186.968 53.336C185.108 53.336 184.788 52.6758 184.788 51.5278V46.1892C184.788 43.1756 185.399 42.6589 188.421 42.6589H191.996V41.8553H189.003C185.951 41.8553 185.399 41.2812 185.399 38.2963V35.6557C185.399 32.6707 185.98 32.1254 189.003 32.1254H199.146C202.169 32.1254 202.75 32.6707 202.75 35.6557V38.2963C202.75 41.2812 202.169 41.8553 199.146 41.8553H195.426V42.6589H199.756C202.779 42.6589 203.389 43.1756 203.389 46.1892V49.7195C203.389 51.2407 203.331 52.6471 201.878 53.0776C201.209 53.2786 200.163 53.3073 199.32 53.3073H198.448C197.315 53.3073 196.298 53.2499 196.298 51.7287C196.298 51.0398 196.588 50.4658 197.344 50.351C197.257 50.2075 197.228 50.1788 197.17 50.0066ZM189.816 34.8808C189.468 34.8808 189.293 35.0243 189.293 35.3687V36.0862H191.996V34.8808H189.816ZM191.996 38.2102H189.293V38.9564C189.293 39.2721 189.468 39.4443 189.787 39.4443H191.996V38.2102ZM199.582 49.6047V45.9596C199.582 45.6439 199.437 45.5004 199.117 45.5004H195.426V47.4521C195.804 47.4234 196.152 47.3947 196.53 47.3373C196.472 47.1077 196.414 46.7346 196.414 46.505C196.414 45.9309 196.937 45.6726 197.46 45.6726C198.187 45.6726 198.361 46.2179 198.565 46.792C198.797 47.4521 199.291 49.0594 199.291 49.6908C199.291 49.9779 199.262 50.1214 199.059 50.3223C199.524 50.2936 199.582 50.0066 199.582 49.6047ZM195.891 36.0862H198.797V35.34C198.797 35.0243 198.652 34.8808 198.332 34.8808H195.891V36.0862ZM198.332 39.4443C198.652 39.4443 198.797 39.3008 198.797 38.9564V38.2102H195.891V39.4443H198.332Z" fill="#D70C18"/>
<path d="M214.31 34.307V33.1016C214.31 31.6091 215.095 31.2646 216.461 31.2646C217.827 31.2646 218.379 31.81 218.379 33.1016V34.307H221.692C223.175 34.307 223.814 34.8524 223.814 36.3161C223.814 37.6651 222.942 38.1244 221.692 38.1244H218.379V39.6168H222.39C223.756 39.6168 224.483 40.1335 224.483 41.5399C224.483 42.9462 223.727 43.4916 222.39 43.4916H218.379V44.8693H220.268C223.291 44.8693 223.872 45.4433 223.872 48.4283V53.939C223.872 56.149 223.204 56.8379 220.995 56.8379C219.774 56.8379 218.786 56.8092 218.379 55.575V56.5795C218.379 58.1007 217.74 58.6748 216.228 58.6748C214.833 58.6748 214.31 57.8711 214.31 56.5795V48.6579H213.06C212.712 48.6579 212.537 48.8588 212.537 49.2032V55.1445C212.537 56.5221 211.956 57.2397 210.503 57.2397C209.137 57.2397 208.643 56.3786 208.643 55.1445V48.4283C208.643 45.4433 209.224 44.8693 212.247 44.8693H214.31V43.4916H209.747C208.323 43.4916 207.625 42.9175 207.625 41.4825C207.625 40.3344 208.236 39.7316 209.369 39.6455C208.439 39.4446 207.655 38.928 207.655 37.8947C207.655 37.4929 207.916 36.8615 208.294 36.0291C208.788 34.9098 209.021 34.1922 209.34 33.0155C209.602 32.097 210.009 31.6952 210.997 31.6952C211.985 31.6952 213.119 32.0683 213.119 33.2451C213.119 33.4747 213.09 33.6469 212.915 34.307H214.31ZM210.387 39.6168H214.31V38.1244H211.665C211.404 38.7845 211.142 39.3872 210.387 39.6168ZM218.379 53.3004C218.641 52.6689 219.019 52.5828 219.6 52.5254C219.89 52.4967 220.007 52.4393 220.007 52.0088V49.196C220.007 48.8516 219.803 48.6507 219.455 48.6507H218.379V53.3004ZM228.639 50.4661C228.639 51.8151 227.912 52.2456 226.604 52.2456C225.384 52.2456 224.744 51.7003 224.744 50.4661V35.1968C224.744 33.8765 225.442 33.3599 226.75 33.3599C228.057 33.3599 228.639 33.9626 228.639 35.1968V50.4661ZM230.23 33.3886C230.23 31.9248 230.84 31.2934 232.323 31.2934C233.805 31.2934 234.328 32.0683 234.328 33.3886V55.0009C234.328 58.2729 232.381 58.4739 229.968 58.4739H228.515C226.946 58.4739 225.144 58.3878 225.144 56.0629C225.144 54.1112 226.481 53.9103 227.76 53.9103H228.806C229.997 53.9103 230.23 53.7955 230.23 52.8483V33.3886Z" fill="#D70C18"/>
<path d="M261.822 37.9231V38.2962H264.322C265.484 38.2962 266.124 38.7841 266.124 39.9896C266.124 41.1951 265.484 41.6543 264.322 41.6543H261.822V42.5154C261.822 45.5003 261.241 46.0744 258.247 46.0744H251.039C248.017 46.0744 247.465 45.5003 247.465 42.5154V41.6543H244.762V46.878C244.762 49.5473 244.355 52.2739 243.803 54.9145C243.454 56.5218 243.018 58.4448 241.158 58.4448C239.85 58.4448 238.6 57.6699 238.6 56.2922C238.6 55.6033 239.152 54.1682 239.385 53.4794C240.082 51.4129 240.431 48.6575 240.431 46.4762V36.8898C240.431 34.1632 241.536 33.0725 244.297 33.0725H250.429V32.6707C250.429 31.5226 251.882 31.2356 252.783 31.2356C253.684 31.2356 255.108 31.5226 255.108 32.6707V33.0725H263.682C265.077 33.0725 265.833 33.6178 265.833 35.0529C265.833 36.488 264.99 36.9759 263.682 36.9759H261.532C261.764 37.2342 261.822 37.55 261.822 37.9231ZM263.508 54.2759C264.874 54.362 266.124 54.4481 266.124 56.1702C266.124 57.5192 265.455 58.4089 264.031 58.4089C261.386 58.4089 257.492 57.2609 255.021 56.285C252.667 57.2035 248.366 58.3515 245.895 58.3515C244.616 58.3515 244.093 57.4905 244.093 56.3424C244.093 54.9934 244.733 54.6777 246.244 54.4481C246.941 54.3333 247.784 54.2185 248.86 54.075C249.267 54.0176 249.644 53.9602 250.051 53.8454C249.063 53.2426 247.552 52.3242 247.552 51.3483C247.552 51.0039 247.697 50.7169 247.871 50.4299H246.971C245.692 50.4299 245.139 49.8845 245.139 48.6216C245.139 47.3588 245.808 46.8995 246.971 46.8995H260.369C261.328 46.8995 262.229 46.8995 262.898 47.6458C263.392 48.1624 263.653 48.8226 263.653 49.5401C263.653 50.3437 263.363 50.9465 262.81 51.5492C262.055 52.3816 260.95 53.1565 260.02 53.788C261.154 53.9889 262.345 54.1898 263.508 54.2759ZM245.379 36.9759C244.972 36.9759 244.769 37.1768 244.769 37.5787V38.2962H247.472V37.9231C247.472 37.55 247.53 37.2342 247.763 36.9759H245.379ZM257.063 50.6953C257.063 50.437 256.656 50.437 256.569 50.437H251.134C252.413 51.2694 253.372 51.6712 254.796 52.2452C255.174 52.073 257.063 51.1259 257.063 50.6953ZM251.57 37.9231V38.2962H257.644V37.9231C257.644 37.5787 257.702 37.2342 257.935 36.9759H251.279C251.512 37.263 251.57 37.55 251.57 37.9231ZM251.57 42.5154C251.57 42.8885 251.744 43.0607 252.122 43.0607H257.092C257.47 43.0607 257.644 42.8885 257.644 42.5154V41.6543H251.57V42.5154Z" fill="#D70C18"/>
<defs>
<linearGradient id="paint0_linear_410_7070" x1="331.559" y1="47.3358" x2="354.949" y2="23.8728" gradientUnits="userSpaceOnUse">
<stop stop-color="#BDE3FF"/>
<stop offset="1" stop-color="#D6D0F7"/>
</linearGradient>
<linearGradient id="paint1_linear_410_7070" x1="295.879" y1="54.4106" x2="322.758" y2="10.4751" gradientUnits="userSpaceOnUse">
<stop stop-color="#CAEDC2"/>
<stop offset="1" stop-color="#FFEDA6"/>
</linearGradient>
<linearGradient id="paint2_linear_410_7070" x1="4.70437" y1="38.0418" x2="26.4572" y2="16.7155" gradientUnits="userSpaceOnUse">
<stop stop-color="#CAEDC2"/>
<stop offset="1" stop-color="#BDE3FF"/>
</linearGradient>
<linearGradient id="paint3_linear_410_7070" x1="34.9242" y1="13.8466" x2="58.383" y2="46.8258" gradientUnits="userSpaceOnUse">
<stop stop-color="#FFD2A6"/>
<stop offset="1" stop-color="#FFC4CE"/>
</linearGradient>
</defs>
</svg>
