<svg width="742" height="58" viewBox="0 0 742 58" fill="none" xmlns="http://www.w3.org/2000/svg">
<path d="M10.4505 42.161C7.22715 40.6061 4.66083 38.2408 2.87057 35.4262L20.4424 43.8965C17.1264 44.2488 13.6738 43.7115 10.4505 42.1566V42.161ZM0.114644 27.7267C0.268976 28.9909 0.555592 30.233 0.961265 31.4355L24.7549 42.9098C25.9498 42.4825 27.1007 41.9319 28.1899 41.2668L0.114644 27.7311V27.7267ZM0.4189 21.5029C0.189607 22.5336 0.0529138 23.5687 0 24.5994L30.7121 39.4081C31.4926 38.7253 32.2157 37.9721 32.8815 37.1528L0.4189 21.4985V21.5029ZM35.7698 32.1799L2.52663 16.1511C2.2797 16.574 2.046 17.0145 1.82553 17.4637C1.60946 17.913 1.41104 18.3711 1.23466 18.8292L34.4778 34.858C34.7247 34.4351 34.9584 33.9947 35.1789 33.5454C35.395 33.0961 35.5934 32.638 35.7698 32.1799ZM6.28793 11.5967C5.50745 12.2794 4.78429 13.0326 4.11846 13.8519L36.5811 29.5062C36.8104 28.4755 36.9471 27.4404 37 26.4097L6.28793 11.6011V11.5967ZM12.2407 8.09491C11.0458 8.52217 9.89489 9.07275 8.80575 9.73786L36.8809 23.2736C36.7266 22.0094 36.44 20.7673 36.0343 19.5648L12.2407 8.0905V8.09491ZM16.5576 7.10826L34.125 15.5785C32.3392 12.7639 29.7729 10.3986 26.5451 8.84372C23.3218 7.28885 19.8691 6.75147 16.5532 7.10385L16.5576 7.10826Z" fill="url(#paint0_linear_80_15528)"/>
<path d="M712.374 32.6324L708.486 36.7632L707 35.9549L712.374 32.635V32.6324ZM723.473 25.7733L716.8 29.8964L709.711 37.4288L711.558 38.4334L723.475 25.7733H723.473ZM734.571 18.9141L727.899 23.0372L712.78 39.0989L714.626 40.1036L734.571 18.9141ZM717.698 41.7738L740.96 17.0603L740.904 15L739 16.178L715.851 40.7691L717.698 41.7738ZM741.092 21.8541L741.013 18.9727L718.923 42.4418L720.769 43.4465L741.092 21.8541ZM741.221 26.6453L741.143 23.7639L721.992 44.1095L723.838 45.1141L741.224 26.6453H741.221ZM741.353 31.4391L741.275 28.5577L725.063 45.7822L726.909 46.7868L741.356 31.4391H741.353ZM741.485 36.2303L741.407 33.3489L728.132 47.4498L729.978 48.4544L741.485 36.2303ZM741.617 41.0241L741.538 38.1427L731.203 49.1225L733.05 50.1272L741.617 41.0241ZM741.749 45.8153L741.67 42.934L734.275 50.7927L736.121 51.7973L741.751 45.8179L741.749 45.8153ZM741.878 50.6091L741.8 47.7277L737.343 52.4629L739.19 53.4675L741.881 50.6091H741.878ZM742 54.9974L741.932 52.5215L740.412 54.1356L742 55V54.9974Z" fill="url(#paint1_linear_80_15528)" fill-opacity="0.8"/>
<path d="M668.079 38.9268C669.333 39.3895 669.978 40.7803 669.523 42.0325C669.06 43.2868 667.669 43.9315 666.416 43.4768C665.162 43.0141 664.517 41.6232 664.972 40.371C665.435 39.1167 666.826 38.472 668.079 38.9268ZM672.673 43.194C672.21 44.4482 672.857 45.8471 674.117 46.2997C675.372 46.7624 676.771 46.1156 677.224 44.8555C677.687 43.6012 677.04 42.2024 675.779 41.7497C674.525 41.287 673.126 41.9339 672.673 43.194ZM667.794 32.6634C667.331 33.9176 667.978 35.3165 669.238 35.7691C670.493 36.2318 671.892 35.5849 672.345 34.3248C672.808 33.0706 672.161 31.6717 670.901 31.2191C669.646 30.7564 668.247 31.4033 667.794 32.6634ZM670.617 24.9557C670.154 26.21 670.8 27.6088 672.061 28.0614C673.315 28.5241 674.714 27.8773 675.167 26.6172C675.63 25.3629 674.983 23.964 673.723 23.5114C672.469 23.0487 671.069 23.6956 670.617 24.9557ZM675.503 35.4842C675.04 36.7385 675.687 38.1373 676.947 38.5899C678.202 39.0526 679.601 38.4058 680.054 37.1457C680.517 35.8914 679.87 34.4925 678.61 34.0399C677.355 33.5772 675.956 34.2241 675.503 35.4842ZM678.325 27.7765C677.862 29.0308 678.509 30.4296 679.77 30.8823C681.024 31.3449 682.423 30.6981 682.876 29.438C683.339 28.1837 682.692 26.7849 681.432 26.3322C680.177 25.8695 678.778 26.5164 678.325 27.7765ZM680.382 46.0148C679.919 47.2691 680.566 48.6679 681.826 49.1205C683.08 49.5832 684.48 48.9364 684.933 47.6763C685.385 46.4162 684.749 45.0232 683.488 44.5706C682.234 44.1079 680.835 44.7547 680.382 46.0148ZM683.212 38.305C682.749 39.5593 683.396 40.9581 684.656 41.4107C685.911 41.8734 687.31 41.2266 687.763 39.9665C688.226 38.7122 687.579 37.3134 686.318 36.8607C685.064 36.398 683.665 37.0449 683.212 38.305ZM686.036 30.6053C685.573 31.8596 686.22 33.2584 687.481 33.711C688.735 34.1737 690.134 33.5268 690.587 32.2667C691.05 31.0124 690.403 29.6136 689.143 29.161C687.888 28.6983 686.489 29.3452 686.036 30.6053ZM673.447 17.2459C672.984 18.5002 673.631 19.899 674.891 20.3517C676.145 20.8143 677.544 20.1675 677.997 18.9074C678.46 17.6531 677.813 16.2543 676.553 15.8016C675.299 15.3389 673.9 15.9858 673.447 17.2459ZM681.156 20.0667C680.693 21.321 681.339 22.7198 682.6 23.1725C683.854 23.6352 685.253 22.9883 685.706 21.7282C686.169 20.4739 685.522 19.0751 684.262 18.6224C683.008 18.1598 681.608 18.8066 681.156 20.0667ZM676.269 9.53825C675.806 10.7925 676.453 12.1914 677.713 12.644C678.968 13.1067 680.367 12.4598 680.82 11.1997C681.283 9.94543 680.636 8.5466 679.375 8.09397C678.121 7.63129 676.722 8.27816 676.269 9.53825ZM679.091 1.83054C678.628 3.08483 679.275 4.48371 680.535 4.93634C681.79 5.39902 683.189 4.75215 683.642 3.49206C684.105 2.23778 683.458 0.838946 682.198 0.386315C680.943 -0.0763689 679.544 0.570453 679.091 1.83054ZM683.978 12.3591C683.515 13.6133 684.162 15.0122 685.422 15.4648C686.676 15.9275 688.076 15.2806 688.529 14.0205C688.991 12.7662 688.345 11.3674 687.084 10.9148C685.83 10.4521 684.431 11.099 683.978 12.3591ZM686.8 4.65136C686.337 5.90564 686.984 7.30452 688.244 7.75715C689.499 8.21983 690.898 7.57296 691.351 6.31287C691.804 5.05278 691.167 3.65976 689.907 3.20713C688.652 2.74444 687.253 3.39127 686.8 4.65136ZM688.867 22.8955C688.404 24.1498 689.05 25.5486 690.311 26.0012C691.565 26.4639 692.964 25.817 693.417 24.5569C693.88 23.3027 693.233 21.9039 691.973 21.4512C690.719 20.9885 689.319 21.6354 688.867 22.8955ZM691.689 15.1878C691.226 16.4421 691.873 17.841 693.133 18.2936C694.387 18.7563 695.787 18.1094 696.24 16.8493C696.702 15.595 696.056 14.1962 694.795 13.7436C693.541 13.2809 692.142 13.9277 691.689 15.1878ZM694.511 7.48013C694.048 8.73442 694.695 10.1333 695.955 10.5859C697.21 11.0486 698.609 10.4017 699.062 9.14162C699.525 7.88734 698.878 6.48853 697.618 6.0359C696.363 5.57322 694.964 6.22004 694.511 7.48013ZM688.093 48.8435C687.63 50.0978 688.277 51.4967 689.537 51.9493C690.791 52.412 692.191 51.7651 692.643 50.5051C693.106 49.2508 692.46 47.8519 691.199 47.3993C689.945 46.9366 688.546 47.5835 688.093 48.8435ZM695.802 51.6644C695.339 52.9187 695.986 54.3175 697.246 54.7701C698.5 55.2328 699.9 54.586 700.352 53.3259C700.815 52.0716 700.168 50.6727 698.908 50.2201C697.654 49.7574 696.254 50.4043 695.802 51.6644ZM690.923 41.1338C690.46 42.388 691.107 43.7869 692.367 44.2395C693.622 44.7022 695.021 44.0554 695.474 42.7953C695.937 41.541 695.29 40.1421 694.029 39.6895C692.775 39.2268 691.376 39.8737 690.923 41.1338ZM693.745 33.4261C693.282 34.6804 693.929 36.0792 695.189 36.5318C696.444 36.9945 697.843 36.3477 698.296 35.0876C698.759 33.8333 698.112 32.4345 696.852 31.9818C695.597 31.5191 694.198 32.166 693.745 33.4261ZM698.632 43.9546C698.169 45.2089 698.816 46.6077 700.076 47.0603C701.331 47.523 702.73 46.8762 703.183 45.6161C703.645 44.3618 702.999 42.9629 701.738 42.5103C700.484 42.0476 699.085 42.6945 698.632 43.9546ZM701.454 36.2469C700.991 37.5012 701.638 38.9 702.898 39.3527C704.153 39.8153 705.552 39.1685 706.005 37.9084C706.458 36.6483 705.821 35.2553 704.561 34.8026C703.306 34.3399 701.907 34.9868 701.454 36.2469ZM703.513 54.4931C703.05 55.7474 703.696 57.1462 704.957 57.5989C706.211 58.0616 707.61 57.4147 708.063 56.1546C708.526 54.9004 707.879 53.5015 706.619 53.0489C705.365 52.5862 703.965 53.233 703.513 54.4931ZM706.343 46.7833C705.88 48.0376 706.527 49.4365 707.787 49.8891C709.041 50.3518 710.441 49.7049 710.893 48.4448C711.356 47.1905 710.71 45.7917 709.449 45.3391C708.195 44.8764 706.796 45.5233 706.343 46.7833ZM709.165 39.0757C708.702 40.33 709.349 41.7288 710.609 42.1814C711.864 42.6441 713.263 41.9972 713.716 40.7372C714.179 39.4829 713.532 38.084 712.272 37.6314C711.017 37.1687 709.618 37.8156 709.165 39.0757ZM696.567 25.7184C696.105 26.9727 696.751 28.3716 698.012 28.8242C699.266 29.2869 700.665 28.64 701.118 27.3799C701.581 26.1256 700.934 24.7268 699.674 24.2742C698.42 23.8115 697.02 24.4583 696.567 25.7184ZM704.276 28.5393C703.813 29.7936 704.46 31.1924 705.721 31.645C706.975 32.1077 708.374 31.4608 708.827 30.2007C709.28 28.9406 708.643 27.5476 707.383 27.095C706.128 26.6323 704.729 27.2792 704.276 28.5393ZM699.398 18.0086C698.935 19.2629 699.582 20.6618 700.842 21.1144C702.096 21.5771 703.495 20.9302 703.948 19.6701C704.411 18.4158 703.764 17.017 702.504 16.5644C701.25 16.1017 699.851 16.7485 699.398 18.0086ZM702.22 10.3009C701.757 11.5552 702.404 12.9541 703.664 13.4067C704.919 13.8694 706.318 13.2226 706.771 11.9625C707.223 10.7024 706.587 9.30935 705.326 8.85672C704.072 8.39403 702.673 9.04086 702.22 10.3009ZM707.106 20.8294C706.644 22.0837 707.29 23.4826 708.551 23.9352C709.805 24.3979 711.204 23.751 711.657 22.4909C712.12 21.2366 711.473 19.8378 710.213 19.3852C708.959 18.9225 707.559 19.5694 707.106 20.8294ZM709.931 13.1297C709.468 14.384 710.115 15.7828 711.375 16.2354C712.63 16.6981 714.029 16.0513 714.482 14.7912C714.945 13.5369 714.298 12.1381 713.037 11.6855C711.783 11.2228 710.384 11.8696 709.931 13.1297ZM711.987 31.368C711.524 32.6223 712.171 34.0211 713.431 34.4738C714.686 34.9365 716.085 34.2896 716.538 33.0295C717.001 31.7752 716.354 30.3764 715.094 29.9238C713.839 29.4611 712.44 30.1079 711.987 31.368ZM714.817 23.6582C714.355 24.9125 715.001 26.3114 716.262 26.764C717.516 27.2267 718.915 26.5798 719.368 25.3197C719.831 24.0654 719.184 22.6666 717.924 22.214C716.67 21.7513 715.27 22.3981 714.817 23.6582ZM717.64 15.9505C717.177 17.2048 717.824 18.6036 719.084 19.0563C720.338 19.519 721.738 18.8721 722.19 17.6121C722.653 16.3578 722.007 14.9589 720.746 14.5063C719.486 14.0537 718.093 14.6904 717.64 15.9505Z" fill="url(#paint2_linear_80_15528)"/>
<path d="M56.5376 4.24114C55.6807 5.11333 54.2789 5.12858 53.4057 4.27897C52.5338 3.42196 52.5187 2.01976 53.3682 1.14636C54.2251 0.274171 55.6269 0.259015 56.5001 1.10862C57.372 1.96563 57.3871 3.36774 56.5376 4.24114ZM51.2543 6.46934C50.3823 5.61233 48.9731 5.62627 48.1224 6.50709C47.2655 7.37928 47.2794 8.78879 48.1599 9.6396C49.0319 10.4966 50.4411 10.4827 51.2918 9.60186C52.1487 8.72966 52.1348 7.32015 51.2543 6.46934ZM61.8666 6.35635C60.9947 5.49934 59.5855 5.51329 58.7348 6.3941C57.8779 7.26629 57.8917 8.67589 58.7723 9.5267C59.6442 10.3837 61.0535 10.3697 61.9042 9.48888C62.7611 8.61668 62.7472 7.20716 61.8666 6.35635ZM67.2332 11.6041C66.3613 10.7471 64.952 10.761 64.1013 11.6418C63.2445 12.514 63.2583 13.9236 64.1388 14.7744C65.0108 15.6315 66.4201 15.6174 67.2708 14.7366C68.1276 13.8644 68.1138 12.4549 67.2332 11.6041ZM56.6196 11.7245C55.7477 10.8675 54.3385 10.8814 53.4878 11.7622C52.6309 12.6344 52.6447 14.0439 53.5253 14.8948C54.3972 15.7518 55.8065 15.7378 56.6572 14.857C57.5141 13.9848 57.5002 12.5753 56.6196 11.7245ZM61.9862 16.9722C61.1143 16.1152 59.705 16.1292 58.8543 17.01C57.9975 17.8822 58.0113 19.2917 58.8919 20.1425C59.7638 20.9995 61.1731 20.9856 62.0238 20.1047C62.8806 19.2326 62.8668 17.823 61.9862 16.9722ZM46.0073 11.8374C45.1354 10.9804 43.7261 10.9944 42.8754 11.8752C42.0185 12.7474 42.0324 14.1569 42.9129 15.0077C43.7935 15.8586 45.1941 15.8507 46.0448 14.9699C46.9017 14.0977 46.8879 12.6882 46.0073 11.8374ZM51.3727 17.0925C50.5007 16.2355 49.0915 16.2496 48.2408 17.1304C47.3839 18.0026 47.3977 19.4121 48.2783 20.2629C49.1502 21.1199 50.5595 21.1059 51.4102 20.2251C52.2671 19.3529 52.2532 17.9434 51.3727 17.0925ZM56.7318 22.3391C55.8599 21.482 54.4506 21.4961 53.5999 22.3769C52.743 23.2491 52.7569 24.6586 53.6375 25.5094C54.5094 26.3664 55.9187 26.3524 56.7694 25.4716C57.6262 24.5994 57.6124 23.1899 56.7318 22.3391ZM72.5986 16.8592C71.7266 16.0022 70.3174 16.0162 69.4667 16.897C68.6098 17.7692 68.6237 19.1787 69.5043 20.0295C70.3762 20.8865 71.7854 20.8726 72.6361 19.9918C73.493 19.1196 73.4791 17.71 72.5986 16.8592ZM67.3516 22.2274C66.4796 21.3704 65.0704 21.3843 64.2197 22.2651C63.3628 23.1373 63.3767 24.5468 64.2573 25.3976C65.1292 26.2547 66.5384 26.2407 67.3891 25.3599C68.246 24.4877 68.2321 23.0782 67.3516 22.2274ZM77.9651 22.107C77.0932 21.2499 75.684 21.2639 74.8333 22.1447C73.9764 23.0169 73.9903 24.4264 74.8708 25.2772C75.7428 26.1342 77.152 26.1203 78.0027 25.2395C78.8596 24.3673 78.8457 22.9578 77.9651 22.107ZM83.3317 27.3547C82.4598 26.4977 81.0505 26.5116 80.1998 27.3924C79.3429 28.2646 79.3568 29.6742 80.2374 30.525C81.1093 31.382 82.5185 31.368 83.3692 30.4872C84.2261 29.615 84.2123 28.2055 83.3317 27.3547ZM72.7181 27.4751C71.8462 26.6181 70.437 26.632 69.5863 27.5128C68.7294 28.385 68.7433 29.7946 69.6238 30.6454C70.4958 31.5024 71.905 31.4884 72.7557 30.6076C73.6126 29.7354 73.5987 28.3259 72.7181 27.4751ZM78.0847 32.7228C77.2128 31.8658 75.8035 31.8798 74.9528 32.7606C74.0959 33.6328 74.1098 35.0423 74.9904 35.8931C75.8709 36.7439 77.2715 36.7362 78.1222 35.8554C78.9791 34.9832 78.9653 33.5737 78.0847 32.7228ZM62.0972 27.5942C61.2252 26.7372 59.816 26.7511 58.9653 27.632C58.1084 28.5041 58.1223 29.9138 59.0028 30.7646C59.8748 31.6216 61.284 31.6075 62.1347 30.7267C62.9916 29.8545 62.9777 28.445 62.0972 27.5942ZM67.4638 32.8419C66.5918 31.9849 65.1826 31.9989 64.3319 32.8797C63.475 33.7519 63.4889 35.1615 64.3694 36.0123C65.2414 36.8693 66.6506 36.8553 67.5013 35.9745C68.3582 35.1023 68.3443 33.6928 67.4638 32.8419ZM72.8303 38.0897C71.9584 37.2327 70.5491 37.2466 69.6984 38.1274C68.8415 38.9996 68.8554 40.4092 69.736 41.26C70.6079 42.117 72.0171 42.103 72.8678 41.2222C73.7247 40.35 73.7109 38.9405 72.8303 38.0897ZM40.7529 17.2043C39.8809 16.3473 38.4717 16.3613 37.621 17.2421C36.7641 18.1143 36.778 19.5238 37.6585 20.3746C38.5305 21.2316 39.9397 21.2177 40.7904 20.3368C41.6473 19.4647 41.6334 18.0551 40.7529 17.2043ZM35.5059 22.5724C34.634 21.7154 33.2247 21.7294 32.374 22.6102C31.5172 23.4824 31.531 24.8919 32.4116 25.7427C33.2835 26.5997 34.6928 26.5858 35.5434 25.705C36.4003 24.8328 36.3865 23.4232 35.5059 22.5724ZM46.1182 22.4595C45.2463 21.6025 43.8371 21.6164 42.9864 22.4972C42.1295 23.3694 42.1433 24.7789 43.0239 25.6297C43.8958 26.4867 45.3051 26.4728 46.1558 25.592C47.0127 24.7198 46.9988 23.3103 46.1182 22.4595ZM51.4848 27.7072C50.6129 26.8502 49.2036 26.8641 48.353 27.7449C47.4961 28.6171 47.51 30.0267 48.3905 30.8775C49.2625 31.7345 50.6717 31.7205 51.5224 30.8397C52.3793 29.9675 52.3654 28.558 51.4848 27.7072ZM40.8713 27.8275C39.9993 26.9705 38.5901 26.9845 37.7394 27.8654C36.8825 28.7375 36.8963 30.1471 37.7769 30.9979C38.6489 31.8549 40.0581 31.8409 40.9088 30.9601C41.7657 30.0879 41.7518 28.6783 40.8713 27.8275ZM46.2378 33.0752C45.3659 32.2182 43.9567 32.2323 43.106 33.1131C42.2491 33.9853 42.263 35.3948 43.1435 36.2456C44.0241 37.0964 45.4247 37.0887 46.2754 36.2079C47.1323 35.3357 47.1184 33.9261 46.2378 33.0752ZM30.2515 27.9393C29.3795 27.0823 27.9703 27.0962 27.1196 27.977C26.2628 28.8492 26.2766 30.2588 27.1572 31.1096C28.0291 31.9666 29.4384 31.9526 30.289 31.0718C31.1459 30.1996 31.1321 28.7901 30.2515 27.9393ZM35.6168 33.1945C34.7449 32.3374 33.3357 32.3514 32.485 33.2322C31.6281 34.1044 31.642 35.5139 32.5226 36.3647C33.3945 37.2217 34.8037 37.2078 35.6544 36.327C36.5113 35.4548 36.4974 34.0453 35.6168 33.1945ZM40.9834 38.4422C40.1115 37.5852 38.7023 37.5991 37.8516 38.4799C36.9947 39.3521 37.0086 40.7616 37.8891 41.6125C38.7611 42.4695 40.1703 42.4555 41.021 41.5747C41.8779 40.7025 41.864 39.293 40.9834 38.4422ZM56.8514 32.9549C55.9794 32.0979 54.5702 32.1119 53.7195 32.9927C52.8626 33.8649 52.8765 35.2744 53.7571 36.1252C54.629 36.9822 56.0382 36.9683 56.8889 36.0875C57.7458 35.2153 57.7319 33.8057 56.8514 32.9549ZM51.6044 38.323C50.7324 37.466 49.3232 37.48 48.4725 38.3608C47.6156 39.233 47.6295 40.6425 48.5101 41.4933C49.3906 42.3442 50.7912 42.3364 51.6419 41.4556C52.4988 40.5834 52.4849 39.1738 51.6044 38.323ZM62.2168 38.2101C61.3448 37.3531 59.9356 37.367 59.0849 38.2478C58.228 39.12 58.2419 40.5295 59.1224 41.3804C59.9944 42.2374 61.4036 42.2234 62.2543 41.3426C63.1112 40.4704 63.0973 39.0609 62.2168 38.2101ZM67.5833 43.4578C66.7114 42.6008 65.3021 42.6147 64.4514 43.4956C63.5945 44.3678 63.6084 45.7773 64.489 46.6281C65.3696 47.4789 66.7702 47.4711 67.6208 46.5903C68.4777 45.7181 68.4639 44.3086 67.5833 43.4578ZM56.9698 43.5781C56.0978 42.7211 54.6886 42.7352 53.8379 43.616C52.981 44.4882 52.9949 45.8977 53.8754 46.7485C54.7474 47.6055 56.1566 47.5915 57.0073 46.7107C57.8642 45.8385 57.8503 44.4289 56.9698 43.5781ZM62.3289 48.8247C61.457 47.9676 60.0478 47.9817 59.1971 48.8625C58.3402 49.7347 58.354 51.1442 59.2346 51.995C60.1065 52.852 61.5158 52.838 62.3664 51.9572C63.2233 51.085 63.2095 49.6755 62.3289 48.8247ZM46.35 43.6899C45.4781 42.8329 44.0688 42.8468 43.2181 43.7277C42.3612 44.5998 42.3751 46.0094 43.2557 46.8602C44.1276 47.7172 45.5368 47.7032 46.3875 46.8224C47.2444 45.9502 47.2306 44.5407 46.35 43.6899ZM51.7154 48.9451C50.8434 48.0881 49.4342 48.102 48.5835 48.9828C47.7266 49.855 47.7405 51.2645 48.621 52.1153C49.493 52.9723 50.9022 52.9584 51.7529 52.0776C52.6098 51.2054 52.5959 49.7959 51.7154 48.9451ZM57.0819 54.1928C56.21 53.3358 54.8008 53.3497 53.9501 54.2305C53.0932 55.1027 53.107 56.5123 53.9876 57.3631C54.8595 58.2201 56.2688 58.2061 57.1194 57.3253C57.9701 56.4445 57.9625 55.0436 57.0819 54.1928Z" fill="url(#paint3_linear_80_15528)"/>
<path d="M83.04 40.51C81.48 41.71 79.68 43.07 78.32 43.07C76.56 43.07 75 41.43 75 39.67C75 38.43 75.68 37.75 77.24 36.67C81.32 33.91 84.96 30.75 88.2 27.07L79.84 27.19C78.64 27.19 76.68 27.11 76.68 24.03C76.68 22.11 77.76 21.11 79.68 21.07L91.32 20.87L91.24 15.63C91.24 14.47 91.4 12.55 94.48 12.55C96.44 12.55 97.56 13.51 97.6 15.55L97.68 20.75L104.52 20.63C105.52 20.63 107.68 20.79 107.68 23.75C107.68 25.67 106.6 26.71 104.68 26.75L97.76 26.87L97.96 39.79C97.96 40.99 97.92 43.19 96.92 44.59C96.04 45.79 94.16 46.27 92.08 46.27C89.52 46.27 87.4 45.99 87.4 42.87C87.4 41.47 88.2 40.07 89.76 40.07C90 40.07 90.36 40.15 90.56 40.15H90.76C91.48 40.15 91.6 39.95 91.6 38.91L91.52 32.35C88.96 35.35 86.16 38.11 83.04 40.51Z" fill="#E9545D"/>
<path d="M144.79 26.4C146.75 26.4 148.03 27.72 148.03 29.64C148.03 31.56 146.75 32.92 144.79 32.92H116.87C114.91 32.92 113.63 31.6 113.63 29.64C113.63 27.68 114.87 26.4 116.87 26.4H144.79Z" fill="#E9545D"/>
<path d="M156.71 23.44C154.79 23.44 153.67 22.2 153.67 20.28C153.67 18.36 154.75 17.12 156.71 17.12H175.27C178.87 17.12 180.99 18.28 180.99 22.24C180.99 24.68 180.19 27.04 179.07 29.28C176.91 33.6 173.83 37.4 170.07 40.44C167.79 42.28 161.71 46.16 158.83 46.16C156.95 46.16 155.51 44.4 155.51 42.6C155.51 40.56 157.47 40.08 159.03 39.44C163.43 37.68 167.39 34.72 170.39 31.04C171.47 29.68 174.15 25.88 174.15 24.16C174.15 23.56 173.75 23.44 173.23 23.44H156.71ZM187.02 14.28C187.02 16.6 185.06 18.52 182.74 18.52C180.42 18.52 178.5 16.6 178.5 14.28C178.5 11.96 180.42 10 182.74 10C185.26 10 187.02 11.96 187.02 14.28ZM180.82 14.28C180.82 15.32 181.7 16.2 182.74 16.2C183.78 16.2 184.7 15.32 184.7 14.28C184.7 13.24 183.82 12.32 182.74 12.32C181.66 12.32 180.82 13.2 180.82 14.28Z" fill="#E9545D"/>
<path d="M223.66 22.84C223.66 23.76 223.26 24.52 222.78 25.24C219.94 29.32 216.42 33 212.62 36.16C208.66 39.48 204.22 42.44 199.46 44.44C197.7 45.16 197.18 45.28 196.54 45.28C194.54 45.28 193.06 43.28 193.06 41.4C193.06 39.52 194.22 39.16 196.14 38.4C204.3 35.2 211.82 29 216.94 21.96C217.9 20.64 218.78 19.52 220.18 19.52C221.98 19.52 223.66 21 223.66 22.84ZM202.02 19C203.26 19.84 204.7 20.88 204.7 22.56C204.7 24.24 203.26 26.28 201.38 26.28C200.58 26.28 199.94 25.84 198.7 24.96C197.7 24.28 196.7 23.6 195.62 22.92C193.98 21.92 193.18 21.4 193.18 20C193.18 18.08 194.78 16.4 196.66 16.4C198.06 16.4 200.02 17.6 202.02 19Z" fill="#E9545D"/>
<path d="M240.72 15.64C240.68 15.32 240.64 15 240.64 14.72C240.64 12.68 242.08 11.8 244.32 11.8C246.12 11.8 246.96 12.84 247.24 14.48L247.96 18.8L254.2 17.84C254.48 17.8 254.76 17.76 255 17.76C256.88 17.8 257.96 19 257.96 21.04C257.96 22.84 256.88 23.72 255.24 23.96L248.96 24.92L249.52 28.28L258.44 26.96C258.72 26.92 258.96 26.88 259.24 26.88C261.04 26.92 262.2 28.12 262.2 30.16C262.2 31.96 261.24 32.84 259.44 33.12L250.52 34.44L252 43.36C252.08 43.84 252.16 44.52 252.16 44.8C252.16 46.8 250.88 47.72 248.56 47.72C246.64 47.72 245.88 46.8 245.56 44.96L243.96 35.4L233.84 36.88C233.6 36.92 233.36 36.96 233.12 36.96C231.24 36.96 230.12 35.72 230.12 33.64C230.12 31.88 231.2 30.96 232.84 30.72L242.96 29.24L242.4 25.88L235.68 26.88C235.44 26.92 235.2 26.96 234.96 26.96C233.08 26.96 231.92 25.76 231.92 23.68C231.92 21.92 233 21.04 234.64 20.8L241.4 19.76L240.72 15.64Z" fill="#E9545D"/>
<path d="M288.17 45.75C288.21 45.99 288.21 46.19 288.21 46.43C288.21 48.11 286.77 49.07 285.21 49.07C283.85 49.07 282.93 48.35 282.65 46.95L280.09 34.15L274.09 35.31C273.89 35.35 273.65 35.35 273.41 35.35C271.81 35.35 270.93 34.15 270.93 32.59C270.93 31.27 271.61 30.31 273.05 30.07L279.05 28.99L278.05 23.75C278.01 23.51 277.97 23.27 277.97 23.03C277.97 21.35 279.29 20.47 281.01 20.47C282.37 20.47 283.29 21.23 283.57 22.55L284.65 27.95L294.05 26.23C294.41 26.15 294.61 26.15 294.89 26.15C296.49 26.15 297.93 27.27 297.93 28.95C297.93 30.51 295.89 33.31 294.65 34.99C293.89 36.03 293.09 37.11 292.17 37.99C291.65 38.51 290.93 38.83 290.37 38.83C288.93 38.83 287.49 37.67 287.49 36.19C287.49 35.31 288.01 34.71 288.85 33.79C289.33 33.27 289.81 32.75 290.25 32.19L285.65 33.07L288.17 45.75Z" fill="#E9545D"/>
<path d="M335.6 22.84C335.6 23.76 335.2 24.52 334.72 25.24C331.88 29.32 328.36 33 324.56 36.16C320.6 39.48 316.16 42.44 311.4 44.44C309.64 45.16 309.12 45.28 308.48 45.28C306.48 45.28 305 43.28 305 41.4C305 39.52 306.16 39.16 308.08 38.4C316.24 35.2 323.76 29 328.88 21.96C329.84 20.64 330.72 19.52 332.12 19.52C333.92 19.52 335.6 21 335.6 22.84ZM313.97 19C315.21 19.84 316.65 20.88 316.65 22.56C316.65 24.24 315.21 26.28 313.33 26.28C312.53 26.28 311.89 25.84 310.65 24.96C309.65 24.28 308.65 23.6 307.57 22.92C305.93 21.92 305.13 21.4 305.13 20C305.13 18.08 306.73 16.4 308.61 16.4C310.01 16.4 311.97 17.6 313.97 19Z" fill="#E9545D"/>
<path d="M353.94 22.68C353.94 23.76 353.38 25.24 352.58 27.08C351.22 30.24 349.38 33.32 347.26 36.08C345.78 38.04 343.66 40.68 341.62 40.68C339.74 40.68 337.78 39.2 337.78 37.24C337.78 36.12 338.42 35.48 339.62 34.24C343.38 30.44 345.38 26.76 347.18 21.64C347.7 20.16 348.7 19.64 350.06 19.64C351.86 19.64 353.94 20.64 353.94 22.68ZM366.1 22.28C367.02 23.44 367.9 24.64 368.74 25.84C370.18 27.96 374.34 34.28 374.34 36.6C374.34 38.6 372.34 40.08 370.46 40.08C368.42 40.08 367.82 38.6 367.14 36.96C365.42 32.92 363.06 29.28 360.3 25.84C359.74 25.16 359.26 24.44 359.26 23.52C359.26 21.68 361.06 20.36 362.78 20.36C364.34 20.36 365.18 21.16 366.1 22.28ZM374.66 17C374.66 19.4 372.62 21.44 370.18 21.44C367.74 21.44 365.7 19.4 365.7 17C365.7 14.6 367.74 12.52 370.18 12.52C372.62 12.52 374.66 14.56 374.66 17ZM368.14 17C368.14 18.08 369.06 19.04 370.18 19.04C371.3 19.04 372.22 18.08 372.22 17C372.22 15.92 371.3 14.92 370.18 14.92C369.06 14.92 368.14 15.88 368.14 17Z" fill="#E9545D"/>
<path d="M408.94 35.56C410.54 37.2 411.62 38.36 411.62 39.8C411.62 41.68 409.94 43.4 408.06 43.4C406.78 43.4 405.98 42.6 404.98 41.36C402.98 38.92 400.86 36.68 398.42 34.72C395.7 37.24 392.7 39.48 389.46 41.28C388.02 42.08 385.46 43.52 384.02 43.52C382.14 43.52 380.66 41.84 380.66 40C380.66 38.28 381.9 37.68 383.3 37.08C390.1 34.12 395.82 29.28 399.86 23.04H388.14C386.1 23.04 384.94 22.04 384.94 19.96C384.94 17.88 386.1 16.88 388.14 16.88H403.78C406.06 16.88 408.06 17.72 408.06 20.32C408.06 22.92 404.34 27.92 402.78 29.96C404.98 31.68 407.02 33.56 408.94 35.56Z" fill="#E9545D"/>
<path d="M425.54 20.76H424.7C423.46 20.76 422.26 20.8 421.06 20.8C419.22 20.8 418.14 20.52 418.14 18.36C418.14 16.2 420.1 15.96 421.14 15.96H421.82C422.78 15.96 423.74 15.92 424.7 15.92C425.42 14.8 425.98 13.88 426.46 13.12C427.74 11.08 428.42 10.2 430.06 10.2C431.46 10.2 433.62 10.72 433.62 12.44C433.62 13.36 432.5 14.76 431.42 16.04H432.3C435.46 16.04 438.66 15.96 441.82 15.92C440.82 15.08 440.18 14.56 440.18 13.68C440.18 12.08 441.94 10.92 443.42 10.92C444.18 10.92 444.78 11.28 445.42 11.68C446.74 12.56 447.98 13.52 449.22 14.52C451.22 16.04 453.06 17.44 453.06 18.96C453.06 20.48 451.58 21.92 449.94 21.92C448.86 21.92 448.34 21.44 446.74 20C443.54 20.28 440.38 20.4 437.18 20.48C436.9 21.08 436.62 21.64 436.3 22.2H452.14C453.82 22.2 455.06 22.88 455.06 24.72C455.06 26.56 453.94 27.2 452.14 27.2H446.46C448.58 28.68 448.9 29 451.82 30.2C453.42 30.84 454.98 31.16 454.98 33.16C454.98 34.68 453.98 36.44 452.3 36.44C450.42 36.44 446.42 33.64 444.86 32.48C442.74 30.88 441.06 29.24 439.38 27.2H432.86C431.34 29 429.42 30.68 427.58 32.12C431.02 31.28 432.58 30.6 435.66 28.88C436.18 28.6 436.78 28.28 437.38 28.28C438.58 28.28 439.58 29.52 439.58 30.68C439.58 31.28 439.34 31.68 438.86 32.04C437.94 32.72 435.82 33.76 434.74 34.24C432.7 35.08 427.98 36.64 425.86 36.64C424.7 36.64 424.1 35.64 423.98 34.6C422.86 35.24 421.18 36.16 419.86 36.16C418.18 36.16 417.18 34.52 417.18 33C417.18 31.48 418.1 31.04 419.46 30.48C421.54 29.56 423.5 28.52 425.3 27.2H420.14C418.5 27.2 417.22 26.52 417.22 24.72C417.22 22.92 418.5 22.2 420.14 22.2H430.54C430.94 21.72 431.22 21.24 431.5 20.68C429.5 20.72 427.54 20.76 425.54 20.76ZM423.42 38.2C429.66 37.44 435.1 36.24 440.58 32.96C441.06 32.64 441.66 32.32 442.26 32.32C443.46 32.32 444.5 33.64 444.5 34.76C444.5 35.36 444.18 35.8 443.74 36.2C442.46 37.36 438.78 38.84 437.14 39.48C433.62 40.76 426.66 42.52 423.02 42.52C421.54 42.52 420.94 41.4 420.94 40.24C420.94 38.68 422.1 38.36 423.42 38.2ZM450.3 39.24C450.3 40.32 449.5 41.04 448.66 41.6C446.06 43.36 442.74 44.76 439.78 45.8C436.26 47 432.62 47.8 428.9 48.24C427.5 48.4 425.14 48.64 423.74 48.64C422.06 48.64 421.02 47.72 421.02 46C421.02 43.96 422.62 43.76 424.38 43.6C431.7 42.96 439.26 41.52 445.42 37.24C446.06 36.8 446.74 36.36 447.58 36.36C449.02 36.36 450.3 37.8 450.3 39.24Z" fill="#E9545D"/>
<path d="M468.77 37.56C468.05 40.56 466.85 44.16 465.17 46.76C464.61 47.64 463.89 48.24 462.81 48.24C461.17 48.24 459.17 46.88 459.17 45.12C459.17 44.32 459.57 43.52 460.29 42.28C462.45 38.44 463.29 35.68 463.89 31.36C464.25 28.68 464.45 25.96 464.45 23.28H462.41C460.09 23.28 459.49 22.24 459.49 20.04C459.49 18.08 460.53 17.32 462.41 17.32H464.45V13.48C464.45 11.24 465.45 10.52 467.57 10.52C469.53 10.52 470.29 11.64 470.29 13.48V17.32H473.77C475.21 17.32 476.65 17.4 477.69 18.6C478.57 19.6 478.65 21.04 478.65 22.4C478.65 27.32 478.49 31.12 478.37 35.8C478.29 38.4 478.05 44.48 476.89 46.6C475.85 48.52 473.45 48.6 471.49 48.6C470.65 48.6 468.97 48.6 468.25 48.16C467.33 47.6 466.97 46.2 466.97 45.16C466.97 43.52 467.61 42.2 469.45 42.2H470.17C470.77 42.2 471.53 42.16 471.81 41.04C472.57 38.16 472.69 27.92 472.69 24.48C472.69 23.44 472.57 23.28 471.53 23.28H470.29C470.21 27.8 469.81 33.16 468.77 37.56ZM496.04 42.43C496.04 46.23 494.48 47.79 490.72 47.79H486C482.2 47.79 480.64 46.23 480.64 42.43V17.72C480.64 13.92 482.2 12.4 486 12.4H490.72C494.48 12.4 496.04 13.92 496.04 17.72V42.44V42.43ZM487.64 18.24C486.84 18.24 486.4 18.72 486.4 19.52V40.68C486.4 41.48 486.84 41.92 487.64 41.92H489.04C489.84 41.92 490.28 41.48 490.28 40.68V19.52C490.28 18.64 489.84 18.24 489.04 18.24H487.64Z" fill="#E9545D"/>
<path d="M539.23 35.84C539.23 37 538.07 37.8 536.99 37.8C535.91 37.8 535.35 37 534.79 36.16C534.23 35.36 533.71 34.6 533.11 33.88C532.83 33.56 532.55 33.24 532.35 32.88C532.27 35.88 530.39 36.16 528.55 36.16H525.51C525.23 36.56 524.99 36.8 524.63 37.16H532.95C534.39 37.16 535.63 37.52 535.63 39.2C535.63 41.52 533.23 42.84 531.47 43.8C533.47 44.12 535.55 44.16 537.59 44.28C538.99 44.36 539.83 44.8 539.83 46.32C539.83 48.12 538.87 48.68 537.23 48.68C534.11 48.68 527.99 47.6 525.07 46.52C522.39 47.44 516.59 48.68 513.79 48.68C512.31 48.68 511.43 47.96 511.43 46.4C511.43 44.92 512.35 44.52 513.71 44.44C515.79 44.32 517.83 44.2 519.91 43.88C518.99 43.28 518.23 42.64 517.43 41.88C516.47 42.28 514.63 43 513.63 43C512.51 43 511.91 42.16 511.91 41.12C511.91 40.08 512.63 39.64 513.91 39.12C515.59 38.44 518.19 37.4 520.07 35.92C519.03 35.44 518.91 34.64 518.91 33.6V32.8C518.63 33.64 517.79 34.84 517.23 35.56C516.23 36.92 515.19 38 514.19 38C513.07 38 512.07 36.92 512.07 35.84C512.07 35.4 512.23 35.04 512.51 34.72C512.83 34.32 513.31 33.96 513.83 33.44C512.39 33.24 511.87 32.44 511.87 31.08V30.2C511.87 28.88 512.07 27.24 513.71 27L514.27 26.92V21.56C514.27 17.44 515.03 16.68 519.11 16.68H522.11C522.19 16.36 522.31 16 522.39 15.64H515.43C514.39 15.64 513.47 15.4 513.11 14.32C512.67 16.8 511.87 19.16 511.03 21.52V45.8C511.03 47.68 510.19 48.8 508.23 48.8C506.27 48.8 505.47 47.64 505.47 45.8V31.04C505.11 31.24 504.79 31.32 504.39 31.32C502.55 31.32 501.35 29.44 501.35 27.76C501.35 26.48 501.99 25.52 503.19 23.8C505.35 20.72 506.59 16.72 507.51 13.08C507.91 11.44 508.43 10.64 510.27 10.64C511.59 10.64 512.95 11.16 513.23 12.56C513.75 11.68 514.47 11.56 515.43 11.56H537.43C538.91 11.56 539.83 12.08 539.83 13.68C539.83 15.16 538.75 15.64 537.43 15.64H528.07C527.95 16 527.79 16.36 527.63 16.68H532.07C536.15 16.68 536.91 17.44 536.91 21.56V26.92L537.39 27C539.07 27.24 539.27 28.84 539.27 30.2V31.08C539.27 32.16 538.95 33 537.79 33.36C538.75 34.4 539.23 35.04 539.23 35.84ZM533.43 29.6H527.11C527.59 29.96 527.95 30.24 527.95 30.88C527.95 31.64 527.07 32.64 526.15 32.64C525.83 32.64 525.51 32.48 525.15 32.24C524.55 31.84 523.95 31.4 523.47 31.08C522.71 30.56 522.43 30.36 522.43 29.84V29.6H517.59C517.19 29.6 516.91 29.76 516.91 30.24V30.56C517.71 30.64 518.63 31.04 518.95 31.84C519.07 30.64 519.91 30.12 521.03 30.12C522.23 30.12 523.11 30.64 523.11 31.96V32.36C523.11 33.04 523.19 33.4 524.03 33.4H527.03C528.07 33.4 528.23 33.36 528.39 32.64C528.63 31.56 528.99 31.12 530.15 31.12C530.83 31.12 531.67 31.4 532.07 31.96C532.11 30.92 533.11 30.24 534.11 30.16C534.07 29.76 533.79 29.6 533.43 29.6ZM531.27 20.52V19.96C531.27 19.52 531.07 19.32 530.63 19.32H520.43C519.95 19.32 519.75 19.52 519.75 19.96V20.52H531.27ZM519.75 22.48V23.68H531.27V22.48H519.75ZM519.75 25.6V26.84H531.27V25.6H519.75ZM528.07 41.35C528.63 41.03 528.79 40.83 528.79 40.59C528.79 40.15 528.47 40.11 528.15 40.11H521.51C522.95 41.11 524.15 41.71 525.79 42.39C526.39 42.15 527.43 41.71 528.07 41.35Z" fill="#E9545D"/>
<path d="M561.21 42.04H580.25C582.01 42.04 583.05 43.08 583.05 44.84C583.05 46.72 582.05 47.72 580.21 47.72H562.01C558.17 47.72 555.45 47 552.85 44.04C552.33 44.8 551.73 45.56 551.13 46.28C550.33 47.2 549.45 48.2 548.13 48.2C546.25 48.2 544.69 46.36 544.69 44.48C544.69 43.36 545.49 42.48 546.81 41.44C547.49 40.88 548.13 40.32 548.77 39.68V32.04C548.77 31.56 548.69 31 548.09 31H547.33C545.37 31 544.73 29.64 544.73 27.88C544.73 25.92 545.81 25.12 547.69 25.12H549.61C553.69 25.12 554.37 26.08 554.37 30.08V37.72C554.37 41.88 558.97 42.04 561.21 42.04ZM548.18 10.96C548.62 10.96 549.1 11.08 549.54 11.32C550.5 11.88 551.74 12.92 552.54 13.68C553.34 14.4 554.82 15.84 555.38 16.72C555.62 17.08 555.78 17.56 555.78 18C555.78 19.72 554.22 21.28 552.54 21.28C551.34 21.28 550.62 20.56 549.86 19.76C549.1 18.92 547.86 17.64 547.06 16.92C545.78 15.88 545.06 15.12 545.06 14.08C545.06 12.56 546.66 10.96 548.18 10.96ZM573.33 36.64C571.45 37.08 566.01 38.12 564.29 38.12C562.81 38.12 562.25 37.08 562.25 35.72C562.25 33.36 564.49 33.56 566.21 33.52V30.36H562.61C562.17 30.36 561.97 30.56 561.97 31V38.76C561.97 39.6 561.85 41.28 559.29 41.28C556.73 41.28 556.29 40.36 556.29 38.76V31.32C556.29 27.12 557.13 26.4 561.29 26.4H566.21V25.28H562.09C557.89 25.28 557.13 24.48 557.13 20.32V16.64C557.13 12.48 557.93 11.72 562.09 11.72H576.05C580.21 11.72 581.01 12.48 581.01 16.64V20.32C581.01 24.48 580.21 25.28 576.05 25.28H570.93V26.4H576.89C581.05 26.4 581.89 27.12 581.89 31.32V36.24C581.89 38.36 581.81 40.32 579.81 40.92C578.89 41.2 577.45 41.24 576.29 41.24H575.09C573.53 41.24 572.13 41.16 572.13 39.04C572.13 38.08 572.53 37.28 573.57 37.12C573.45 36.92 573.41 36.88 573.33 36.64ZM563.21 15.56C562.73 15.56 562.49 15.76 562.49 16.24V17.24H566.21V15.56H563.21ZM566.21 20.2H562.49V21.24C562.49 21.68 562.73 21.92 563.17 21.92H566.21V20.2ZM576.65 36.08V31C576.65 30.56 576.45 30.36 576.01 30.36H570.93V33.08C571.45 33.04 571.93 33 572.45 32.92C572.37 32.6 572.29 32.08 572.29 31.76C572.29 30.96 573.01 30.6 573.73 30.6C574.73 30.6 574.97 31.36 575.25 32.16C575.57 33.08 576.25 35.32 576.25 36.2C576.25 36.6 576.21 36.8 575.93 37.08C576.57 37.04 576.65 36.64 576.65 36.08ZM571.57 17.24H575.57V16.2C575.57 15.76 575.37 15.56 574.93 15.56H571.57V17.24ZM574.93 21.92C575.37 21.92 575.57 21.72 575.57 21.24V20.2H571.57V21.92H574.93Z" fill="#E9545D"/>
<path d="M596.92 14.76V13.08C596.92 11 598 10.52 599.88 10.52C601.76 10.52 602.52 11.28 602.52 13.08V14.76H607.08C609.12 14.76 610 15.52 610 17.56C610 19.44 608.8 20.08 607.08 20.08H602.52V22.16H608.04C609.92 22.16 610.92 22.88 610.92 24.84C610.92 26.8 609.88 27.56 608.04 27.56H602.52V29.48H605.12C609.28 29.48 610.08 30.28 610.08 34.44V42.12C610.08 45.2 609.16 46.16 606.12 46.16C604.44 46.16 603.08 46.12 602.52 44.4V45.8C602.52 47.92 601.64 48.72 599.56 48.72C597.64 48.72 596.92 47.6 596.92 45.8V34.76H595.2C594.72 34.76 594.48 35.04 594.48 35.52V43.8C594.48 45.72 593.68 46.72 591.68 46.72C589.8 46.72 589.12 45.52 589.12 43.8V34.44C589.12 30.28 589.92 29.48 594.08 29.48H596.92V27.56H590.64C588.68 27.56 587.72 26.76 587.72 24.76C587.72 23.16 588.56 22.32 590.12 22.2C588.84 21.92 587.76 21.2 587.76 19.76C587.76 19.2 588.12 18.32 588.64 17.16C589.32 15.6 589.64 14.6 590.08 12.96C590.44 11.68 591 11.12 592.36 11.12C593.72 11.12 595.28 11.64 595.28 13.28C595.28 13.6 595.24 13.84 595 14.76H596.92ZM591.52 22.16H596.92V20.08H593.28C592.92 21 592.56 21.84 591.52 22.16ZM602.52 41.23C602.88 40.35 603.4 40.23 604.2 40.15C604.6 40.11 604.76 40.03 604.76 39.43V35.51C604.76 35.03 604.48 34.75 604 34.75H602.52V41.23ZM616.64 37.28C616.64 39.16 615.64 39.76 613.84 39.76C612.16 39.76 611.28 39 611.28 37.28V16C611.28 14.16 612.24 13.44 614.04 13.44C615.84 13.44 616.64 14.28 616.64 16V37.28ZM618.83 13.48C618.83 11.44 619.67 10.56 621.71 10.56C623.75 10.56 624.47 11.64 624.47 13.48V43.6C624.47 48.16 621.79 48.44 618.47 48.44H616.47C614.31 48.44 611.83 48.32 611.83 45.08C611.83 42.36 613.67 42.08 615.43 42.08H616.87C618.51 42.08 618.83 41.92 618.83 40.6V13.48Z" fill="#E9545D"/>
<path d="M662.31 19.8V20.32H665.75C667.35 20.32 668.23 21 668.23 22.68C668.23 24.36 667.35 25 665.75 25H662.31V26.2C662.31 30.36 661.51 31.16 657.39 31.16H647.47C643.31 31.16 642.55 30.36 642.55 26.2V25H638.83V32.28C638.83 36 638.27 39.8 637.51 43.48C637.03 45.72 636.43 48.4 633.87 48.4C632.07 48.4 630.35 47.32 630.35 45.4C630.35 44.44 631.11 42.44 631.43 41.48C632.39 38.6 632.87 34.76 632.87 31.72V18.36C632.87 14.56 634.39 13.04 638.19 13.04H646.63V12.48C646.63 10.88 648.63 10.48 649.87 10.48C651.11 10.48 653.07 10.88 653.07 12.48V13.04H664.87C666.79 13.04 667.83 13.8 667.83 15.8C667.83 17.8 666.67 18.48 664.87 18.48H661.91C662.23 18.84 662.31 19.28 662.31 19.8ZM664.63 42.59C666.51 42.71 668.23 42.83 668.23 45.23C668.23 47.11 667.31 48.35 665.35 48.35C661.71 48.35 656.35 46.75 652.95 45.39C649.71 46.67 643.79 48.27 640.39 48.27C638.63 48.27 637.91 47.07 637.91 45.47C637.91 43.59 638.79 43.15 640.87 42.83C641.83 42.67 642.99 42.51 644.47 42.31C645.03 42.23 645.55 42.15 646.11 41.99C644.75 41.15 642.67 39.87 642.67 38.51C642.67 38.03 642.87 37.63 643.11 37.23H641.87C640.11 37.23 639.35 36.47 639.35 34.71C639.35 32.95 640.27 32.31 641.87 32.31H660.31C661.63 32.31 662.87 32.31 663.79 33.35C664.47 34.07 664.83 34.99 664.83 35.99C664.83 37.11 664.43 37.95 663.67 38.79C662.63 39.95 661.11 41.03 659.83 41.91C661.39 42.19 663.03 42.47 664.63 42.59ZM639.68 18.48C639.12 18.48 638.84 18.76 638.84 19.32V20.32H642.56V19.8C642.56 19.28 642.64 18.84 642.96 18.48H639.68ZM655.76 37.6C655.76 37.24 655.2 37.24 655.08 37.24H647.6C649.36 38.4 650.68 38.96 652.64 39.76C653.16 39.52 655.76 38.2 655.76 37.6ZM648.2 19.8V20.32H656.56V19.8C656.56 19.32 656.64 18.84 656.96 18.48H647.8C648.12 18.88 648.2 19.28 648.2 19.8ZM648.2 26.2C648.2 26.72 648.44 26.96 648.96 26.96H655.8C656.32 26.96 656.56 26.72 656.56 26.2V25H648.2V26.2Z" fill="#E9545D"/>
<defs>
<linearGradient id="paint0_linear_80_15528" x1="5.6149" y1="38.2672" x2="30.7698" y2="12.8101" gradientUnits="userSpaceOnUse">
<stop stop-color="#CAEDC2"/>
<stop offset="1" stop-color="#BDE3FF"/>
</linearGradient>
<linearGradient id="paint1_linear_80_15528" x1="720.485" y1="49.5127" x2="748.003" y2="22.1395" gradientUnits="userSpaceOnUse">
<stop stop-color="#BDE3FF"/>
<stop offset="1" stop-color="#D6D0F7"/>
</linearGradient>
<linearGradient id="paint2_linear_80_15528" x1="678.905" y1="57.9857" x2="711.003" y2="6.17201" gradientUnits="userSpaceOnUse">
<stop stop-color="#CAEDC2"/>
<stop offset="1" stop-color="#FFEDA6"/>
</linearGradient>
<linearGradient id="paint3_linear_80_15528" x1="41.2635" y1="9.8175" x2="69.2329" y2="48.6478" gradientUnits="userSpaceOnUse">
<stop stop-color="#FFD2A6"/>
<stop offset="1" stop-color="#FFC4CE"/>
</linearGradient>
</defs>
</svg>
