<svg width="79" height="80" viewBox="0 0 79 80" fill="none" xmlns="http://www.w3.org/2000/svg">
<g clip-path="url(#clip0_232_2715)">
<path d="M76.2997 78.6037C76.2997 77.8725 76.8932 77.2732 77.6172 77.2798C78.3412 77.2798 78.9348 77.8791 78.9283 78.6102C78.9283 79.3413 78.3347 79.9407 77.6107 79.9341C76.8867 79.9341 76.2932 79.3348 76.2997 78.6037Z" fill="url(#paint0_linear_232_2715)"/>
<path d="M68.7141 78.5839C68.7141 77.8528 69.3076 77.2534 70.0316 77.26C70.7556 77.26 71.3492 77.8594 71.3426 78.5905C71.3426 79.3216 70.7491 79.921 70.0251 79.9144C69.3011 79.9144 68.7076 79.315 68.7141 78.5839Z" fill="url(#paint1_linear_232_2715)"/>
<path d="M61.135 78.5641C61.135 77.833 61.7285 77.2337 62.4525 77.2402C63.1765 77.2402 63.7701 77.8396 63.7635 78.5707C63.7635 79.3018 63.17 79.9012 62.446 79.8946C61.722 79.8946 61.1285 79.2952 61.135 78.5641Z" fill="url(#paint2_linear_232_2715)"/>
<path d="M53.5494 78.5444C53.5494 77.8133 54.1429 77.2139 54.8669 77.2205C55.5909 77.2205 56.1844 77.8199 56.1779 78.551C56.1779 79.2821 55.5844 79.8814 54.8604 79.8749C54.1364 79.8749 53.5428 79.2755 53.5494 78.5444Z" fill="url(#paint3_linear_232_2715)"/>
<path d="M76.3193 70.8711C76.3193 70.14 76.9128 69.5406 77.6368 69.5472C78.3608 69.5472 78.9543 70.1466 78.9478 70.8777C78.9478 71.6088 78.3543 72.2081 77.6303 72.2015C76.9063 72.2015 76.3127 71.6022 76.3193 70.8711Z" fill="url(#paint4_linear_232_2715)"/>
<path d="M68.7402 70.8513C68.7402 70.1202 69.3337 69.5208 70.0577 69.5274C70.7817 69.5274 71.3752 70.1268 71.3687 70.8579C71.3687 71.589 70.7752 72.1884 70.0512 72.1818C69.3272 72.1818 68.7337 71.5824 68.7402 70.8513Z" fill="url(#paint5_linear_232_2715)"/>
<path d="M61.1546 70.825C61.1546 70.0939 61.7481 69.4945 62.4721 69.5011C63.1961 69.5011 63.7896 70.1004 63.7831 70.8316C63.7831 71.5627 63.1896 72.162 62.4656 72.1554C61.7416 72.1554 61.148 71.5561 61.1546 70.825Z" fill="url(#paint6_linear_232_2715)"/>
<path d="M53.5689 70.8052C53.5689 70.0741 54.1625 69.4747 54.8865 69.4813C55.6105 69.4813 56.204 70.0807 56.1975 70.8118C56.1975 71.5429 55.6039 72.1423 54.88 72.1357C54.156 72.1357 53.5624 71.5363 53.5689 70.8052Z" fill="url(#paint7_linear_232_2715)"/>
<path d="M76.3454 63.1319C76.3454 62.4008 76.9389 61.8014 77.6629 61.808C78.3869 61.808 78.9804 62.4074 78.9739 63.1385C78.9739 63.8696 78.3804 64.469 77.6564 64.4624C76.9324 64.4624 76.3388 63.863 76.3454 63.1319Z" fill="url(#paint8_linear_232_2715)"/>
<path d="M68.7597 63.1121C68.7597 62.381 69.3533 61.7817 70.0773 61.7882C70.8013 61.7882 71.3948 62.3876 71.3883 63.1187C71.3883 63.8498 70.7947 64.4492 70.0707 64.4426C69.3468 64.4426 68.7532 63.8432 68.7597 63.1121Z" fill="url(#paint9_linear_232_2715)"/>
<path d="M61.1741 63.0924C61.1741 62.3613 61.7677 61.7619 62.4917 61.7685C63.2157 61.7685 63.8092 62.3679 63.8027 63.099C63.8027 63.8301 63.2091 64.4294 62.4851 64.4229C61.7611 64.4229 61.1676 63.8235 61.1741 63.0924Z" fill="url(#paint10_linear_232_2715)"/>
<path d="M53.5885 63.0726C53.5885 62.3415 54.1821 61.7421 54.906 61.7487C55.63 61.7487 56.2236 62.3481 56.2171 63.0792C56.2171 63.8103 55.6235 64.4097 54.8995 64.4031C54.1755 64.4031 53.582 63.8037 53.5885 63.0726Z" fill="url(#paint11_linear_232_2715)"/>
<path d="M76.3649 55.3993C76.3649 54.6682 76.9585 54.0688 77.6825 54.0754C78.4065 54.0754 79 54.6748 78.9935 55.4059C78.9935 56.137 78.3999 56.7364 77.6759 56.7298C76.9519 56.7298 76.3584 56.1304 76.3649 55.3993Z" fill="url(#paint12_linear_232_2715)"/>
<path d="M68.7793 55.3795C68.7793 54.6484 69.3728 54.0491 70.0968 54.0557C70.8208 54.0557 71.4144 54.655 71.4079 55.3861C71.4079 56.1172 70.8143 56.7166 70.0903 56.71C69.3663 56.71 68.7728 56.1107 68.7793 55.3795Z" fill="url(#paint13_linear_232_2715)"/>
<path d="M61.1937 55.3532C61.1937 54.6221 61.7872 54.0227 62.5112 54.0293C63.2352 54.0293 63.8288 54.6287 63.8222 55.3598C63.8222 56.0909 63.2287 56.6903 62.5047 56.6837C61.7807 56.6837 61.1872 56.0843 61.1937 55.3532Z" fill="url(#paint14_linear_232_2715)"/>
<path d="M53.6081 55.3334C53.6081 54.6023 54.2016 54.003 54.9256 54.0095C55.6496 54.0161 56.2431 54.6089 56.2366 55.34C56.2366 56.0711 55.6431 56.6705 54.9191 56.6639C54.1951 56.6639 53.6016 56.0645 53.6081 55.3334Z" fill="url(#paint15_linear_232_2715)"/>
<path d="M45.5072 47.8643C45.5072 47.1332 46.1007 46.5338 46.8247 46.5404C47.5487 46.5404 48.1423 47.1398 48.1357 47.8709C48.1357 48.602 47.5422 49.2014 46.8182 49.1948C46.0942 49.1948 45.5007 48.5954 45.5072 47.8643Z" fill="url(#paint16_linear_232_2715)"/>
<path d="M37.9216 47.8446C37.9216 47.1134 38.5151 46.5141 39.2391 46.5207C39.9631 46.5207 40.5566 47.12 40.5501 47.8511C40.5501 48.5822 39.9566 49.1816 39.2326 49.175C38.5086 49.175 37.915 48.5757 37.9216 47.8446Z" fill="url(#paint17_linear_232_2715)"/>
<path d="M30.3359 47.8248C30.3359 47.0937 30.9295 46.4943 31.6535 46.5009C32.3775 46.5009 32.971 47.1003 32.9645 47.8314C32.9645 48.5625 32.371 49.1619 31.647 49.1553C30.923 49.1553 30.3294 48.5559 30.3359 47.8248Z" fill="url(#paint18_linear_232_2715)"/>
<path d="M22.7503 47.805C22.7503 47.0739 23.3439 46.4746 24.0679 46.4811C24.7919 46.4811 25.3854 47.0805 25.3789 47.8116C25.3789 48.5427 24.7853 49.1421 24.0613 49.1355C23.3374 49.1355 22.7438 48.5361 22.7503 47.805Z" fill="url(#paint19_linear_232_2715)"/>
<path d="M15.1712 47.7787C15.1712 47.0476 15.7648 46.4482 16.4888 46.4548C17.2128 46.4548 17.8063 47.0542 17.7998 47.7853C17.7998 48.5164 17.2062 49.1158 16.4822 49.1092C15.7583 49.1092 15.1647 48.5098 15.1712 47.7787Z" fill="url(#paint20_linear_232_2715)"/>
<path d="M7.58562 47.7589C7.58562 47.0278 8.17916 46.4285 8.90315 46.435C9.62715 46.435 10.2207 47.0344 10.2142 47.7655C10.2142 48.4966 9.62062 49.096 8.89663 49.0894C8.17264 49.0894 7.5791 48.49 7.58562 47.7589Z" fill="url(#paint21_linear_232_2715)"/>
<path d="M0 47.7392C0 47.0081 0.593544 46.4087 1.31754 46.4153C2.04153 46.4153 2.63507 47.0147 2.62855 47.7458C2.62855 48.4769 2.03501 49.0762 1.31101 49.0697C0.587021 49.0697 0 48.4703 0 47.7392Z" fill="url(#paint22_linear_232_2715)"/>
<path d="M45.5267 40.1317C45.5267 39.4006 46.1203 38.8013 46.8443 38.8078C47.5683 38.8078 48.1618 39.4072 48.1553 40.1383C48.1553 40.8694 47.5617 41.4688 46.8378 41.4622C46.1138 41.4622 45.5202 40.8628 45.5267 40.1317Z" fill="url(#paint23_linear_232_2715)"/>
<path d="M37.9411 40.112C37.9411 39.3809 38.5347 38.7815 39.2587 38.7881C39.9827 38.7881 40.5762 39.3875 40.5697 40.1186C40.5697 40.8497 39.9761 41.449 39.2521 41.4425C38.5282 41.4425 37.9346 40.8431 37.9411 40.112Z" fill="url(#paint24_linear_232_2715)"/>
<path d="M30.362 40.0856C30.362 39.3545 30.9556 38.7551 31.6796 38.7617C32.4036 38.7617 32.9971 39.3611 32.9906 40.0922C32.9906 40.8233 32.397 41.4227 31.6731 41.4161C30.9491 41.4161 30.3555 40.8167 30.362 40.0856Z" fill="url(#paint25_linear_232_2715)"/>
<path d="M22.7764 40.0659C22.7764 39.3348 23.37 38.7354 24.094 38.742C24.8179 38.742 25.4115 39.3413 25.405 40.0725C25.405 40.8036 24.8114 41.4029 24.0874 41.3963C23.3634 41.3963 22.7699 40.797 22.7764 40.0659Z" fill="url(#paint26_linear_232_2715)"/>
<path d="M15.1908 40.0461C15.1908 39.315 15.7843 38.7156 16.5083 38.7222C17.2323 38.7222 17.8259 39.3216 17.8194 40.0527C17.8194 40.7838 17.2258 41.3832 16.5018 41.3766C15.7778 41.3766 15.1843 40.7772 15.1908 40.0461Z" fill="url(#paint27_linear_232_2715)"/>
<path d="M7.60518 40.0263C7.60518 39.2952 8.19873 38.6959 8.92272 38.7025C9.64671 38.7025 10.2403 39.3018 10.2337 40.0329C10.2337 40.764 9.64019 41.3634 8.9162 41.3568C8.19221 41.3568 7.59866 40.7575 7.60518 40.0263Z" fill="url(#paint28_linear_232_2715)"/>
<path d="M0.0195674 40.0066C0.0195674 39.2755 0.613111 38.6761 1.3371 38.6827C2.0611 38.6827 2.65464 39.2821 2.64812 40.0132C2.64812 40.7443 2.05457 41.3437 1.33058 41.3371C0.606588 41.3371 0.0130449 40.7377 0.0195674 40.0066Z" fill="url(#paint29_linear_232_2715)"/>
<path d="M45.5463 32.3926C45.5463 31.6615 46.1399 31.0621 46.8639 31.0687C47.5878 31.0687 48.1814 31.668 48.1749 32.3991C48.1749 33.1302 47.5813 33.7296 46.8573 33.723C46.1333 33.723 45.5398 33.1237 45.5463 32.3926Z" fill="url(#paint30_linear_232_2715)"/>
<path d="M37.9672 32.3728C37.9672 31.6417 38.5608 31.0423 39.2848 31.0489C40.0088 31.0489 40.6023 31.6483 40.5958 32.3794C40.5958 33.1105 40.0022 33.7099 39.2782 33.7033C38.5542 33.7033 37.9607 33.1039 37.9672 32.3728Z" fill="url(#paint31_linear_232_2715)"/>
<path d="M30.3816 32.353C30.3816 31.6219 30.9751 31.0226 31.6991 31.0291C32.4231 31.0291 33.0167 31.6285 33.0102 32.3596C33.0102 33.0907 32.4166 33.6901 31.6926 33.6835C30.9686 33.6835 30.3751 33.0841 30.3816 32.353Z" fill="url(#paint32_linear_232_2715)"/>
<path d="M22.796 32.3333C22.796 31.6022 23.3895 31.0028 24.1135 31.0094C24.8375 31.0094 25.4311 31.6088 25.4245 32.3399C25.4245 33.071 24.831 33.6703 24.107 33.6638C23.383 33.6638 22.7895 33.0644 22.796 32.3333Z" fill="url(#paint33_linear_232_2715)"/>
<path d="M15.2104 32.3135C15.2104 31.5824 15.8039 30.983 16.5279 30.9896C17.2519 30.9896 17.8454 31.589 17.8389 32.3201C17.8389 33.0512 17.2454 33.6506 16.5214 33.644C15.7974 33.644 15.2038 33.0446 15.2104 32.3135Z" fill="url(#paint34_linear_232_2715)"/>
<path d="M7.62475 32.2872C7.62475 31.5561 8.21829 30.9567 8.94229 30.9633C9.66628 30.9633 10.2598 31.5627 10.2533 32.2938C10.2533 33.0249 9.65976 33.6242 8.93577 33.6177C8.21177 33.6177 7.61823 33.0183 7.62475 32.2872Z" fill="url(#paint35_linear_232_2715)"/>
<path d="M0.0391347 32.2674C0.0391347 31.5363 0.632678 30.9369 1.35667 30.9435C2.08066 30.9435 2.67421 31.5429 2.66769 32.274C2.66769 33.0051 2.07414 33.6045 1.35015 33.5979C0.626156 33.5979 0.0326123 32.9985 0.0391347 32.2674Z" fill="url(#paint36_linear_232_2715)"/>
<path d="M45.5724 24.66C45.5724 23.9289 46.1659 23.3295 46.8899 23.3361C47.6139 23.3361 48.2075 23.9355 48.201 24.6666C48.201 25.3977 47.6074 25.997 46.8834 25.9904C46.1594 25.9904 45.5659 25.3911 45.5724 24.66Z" fill="url(#paint37_linear_232_2715)"/>
<path d="M37.9868 24.6402C37.9868 23.9091 38.5803 23.3097 39.3043 23.3163C40.0283 23.3163 40.6219 23.9157 40.6153 24.6468C40.6153 25.3779 40.0218 25.9773 39.2978 25.9707C38.5738 25.9707 37.9803 25.3713 37.9868 24.6402Z" fill="url(#paint38_linear_232_2715)"/>
<path d="M30.4012 24.6139C30.4012 23.8828 30.9947 23.2834 31.7187 23.29C32.4427 23.29 33.0362 23.8893 33.0297 24.6205C33.0297 25.3516 32.4362 25.9509 31.7122 25.9443C30.9882 25.9443 30.3947 25.345 30.4012 24.6139Z" fill="url(#paint39_linear_232_2715)"/>
<path d="M22.8156 24.5941C22.8156 23.863 23.4091 23.2636 24.1331 23.2702C24.8571 23.2702 25.4506 23.8696 25.4441 24.6007C25.4441 25.3318 24.8506 25.9312 24.1266 25.9246C23.4026 25.9246 22.809 25.3252 22.8156 24.5941Z" fill="url(#paint40_linear_232_2715)"/>
<path d="M15.2299 24.5743C15.2299 23.8432 15.8235 23.2439 16.5475 23.2505C17.2715 23.2505 17.865 23.8498 17.8585 24.5809C17.8585 25.312 17.2649 25.9114 16.541 25.9048C15.817 25.9048 15.2234 25.3055 15.2299 24.5743Z" fill="url(#paint41_linear_232_2715)"/>
<path d="M7.65084 24.5546C7.65084 23.8235 8.24439 23.2241 8.96838 23.2307C9.69237 23.2307 10.2859 23.8301 10.2794 24.5612C10.2794 25.2923 9.68585 25.8917 8.96185 25.8851C8.23786 25.8851 7.64432 25.2857 7.65084 24.5546Z" fill="url(#paint42_linear_232_2715)"/>
<path d="M0.0652246 24.5348C0.0652246 23.8037 0.658768 23.2043 1.38276 23.2109C2.10675 23.2109 2.7003 23.8103 2.69377 24.5414C2.69377 25.2725 2.10023 25.8719 1.37624 25.8653C0.652246 25.8653 0.0587021 25.2659 0.0652246 24.5348Z" fill="url(#paint43_linear_232_2715)"/>
<path d="M45.592 16.9208C45.592 16.1897 46.1855 15.5903 46.9095 15.5969C47.6335 15.5969 48.227 16.1963 48.2205 16.9274C48.2205 17.6585 47.627 18.2579 46.903 18.2513C46.179 18.2513 45.5854 17.6519 45.592 16.9208Z" fill="url(#paint44_linear_232_2715)"/>
<path d="M38.0064 16.901C38.0064 16.1699 38.5999 15.5706 39.3239 15.5771C40.0479 15.5771 40.6414 16.1765 40.6349 16.9076C40.6349 17.6387 40.0414 18.2381 39.3174 18.2315C38.5934 18.2315 37.9998 17.6321 38.0064 16.901Z" fill="url(#paint45_linear_232_2715)"/>
<path d="M30.4207 16.8813C30.4207 16.1502 31.0143 15.5508 31.7383 15.5574C32.4623 15.5574 33.0558 16.1568 33.0493 16.8879C33.0493 17.619 32.4557 18.2183 31.7318 18.2118C31.0078 18.2118 30.4142 17.6124 30.4207 16.8813Z" fill="url(#paint46_linear_232_2715)"/>
<path d="M22.8351 16.8615C22.8351 16.1304 23.4287 15.531 24.1527 15.5376C24.8767 15.5376 25.4702 16.137 25.4637 16.8681C25.4637 17.5992 24.8701 18.1986 24.1461 18.192C23.4221 18.192 22.8286 17.5926 22.8351 16.8615Z" fill="url(#paint47_linear_232_2715)"/>
<path d="M15.256 16.8418C15.256 16.1107 15.8496 15.5113 16.5736 15.5179C17.2976 15.5179 17.8911 16.1172 17.8846 16.8483C17.8846 17.5794 17.291 18.1788 16.567 18.1722C15.843 18.1722 15.2495 17.5729 15.256 16.8418Z" fill="url(#paint48_linear_232_2715)"/>
<path d="M7.67041 16.8154C7.67041 16.0843 8.26395 15.4849 8.98794 15.4915C9.71194 15.4915 10.3055 16.0909 10.299 16.822C10.299 17.5531 9.70542 18.1525 8.98142 18.1459C8.25743 18.1459 7.66389 17.5465 7.67041 16.8154Z" fill="url(#paint49_linear_232_2715)"/>
<path d="M0.0847919 16.7957C0.0847919 16.0645 0.678336 15.4652 1.40233 15.4718C2.12632 15.4718 2.71986 16.0711 2.71334 16.8022C2.71334 17.5333 2.1198 18.1327 1.39581 18.1261C0.671813 18.1261 0.0782695 17.5268 0.0847919 16.7957Z" fill="url(#paint50_linear_232_2715)"/>
<path d="M45.6115 9.18821C45.6115 8.4571 46.2051 7.85773 46.9291 7.86432C47.6531 7.86432 48.2466 8.46369 48.2401 9.1948C48.2401 9.9259 47.6466 10.5253 46.9226 10.5187C46.1986 10.5187 45.605 9.91931 45.6115 9.18821Z" fill="url(#paint51_linear_232_2715)"/>
<path d="M38.0259 9.16845C38.0259 8.43735 38.6195 7.83797 39.3435 7.84456C40.0675 7.84456 40.661 8.44393 40.6545 9.17504C40.6545 9.90614 40.0609 10.5055 39.3369 10.4989C38.6129 10.4989 38.0194 9.89956 38.0259 9.16845Z" fill="url(#paint52_linear_232_2715)"/>
<path d="M30.4468 9.14869C30.4468 8.41759 31.0404 7.81821 31.7644 7.8248C32.4884 7.8248 33.0819 8.42417 33.0754 9.15528C33.0754 9.88638 32.4818 10.4858 31.7578 10.4792C31.0339 10.4792 30.4403 9.8798 30.4468 9.14869Z" fill="url(#paint53_linear_232_2715)"/>
<path d="M22.8612 9.12234C22.8612 8.39124 23.4548 7.79187 24.1787 7.79845C24.9027 7.79845 25.4963 8.39783 25.4898 9.12893C25.4898 9.86004 24.8962 10.4594 24.1722 10.4528C23.4482 10.4528 22.8547 9.85345 22.8612 9.12234Z" fill="url(#paint54_linear_232_2715)"/>
<path d="M15.2756 9.10258C15.2756 8.37148 15.8691 7.77211 16.5931 7.77869C17.3171 7.77869 17.9107 8.37807 17.9041 9.10917C17.9041 9.84028 17.3106 10.4397 16.5866 10.4331C15.8626 10.4331 15.2691 9.83369 15.2756 9.10258Z" fill="url(#paint55_linear_232_2715)"/>
<path d="M7.68998 9.08283C7.68998 8.35172 8.28352 7.75235 9.00751 7.75893C9.73151 7.75893 10.325 8.35831 10.3185 9.08941C10.3185 9.82052 9.72498 10.4199 9.00099 10.4133C8.277 10.4133 7.68345 9.81393 7.68998 9.08283Z" fill="url(#paint56_linear_232_2715)"/>
<path d="M0.104359 9.06307C0.104359 8.33196 0.697903 7.73259 1.4219 7.73917C2.14589 7.73917 2.73943 8.33855 2.73291 9.06965C2.73291 9.80076 2.13937 10.4001 1.41537 10.3935C0.69138 10.3935 0.0978368 9.79417 0.104359 9.06307Z" fill="url(#paint57_linear_232_2715)"/>
<path d="M45.6311 1.45562C45.6311 0.724518 46.2247 0.125144 46.9486 0.131731C47.6726 0.131731 48.2662 0.731105 48.2597 1.46221C48.2597 2.19331 47.6661 2.79269 46.9421 2.7861C46.2181 2.7861 45.6246 2.18673 45.6311 1.45562Z" fill="url(#paint58_linear_232_2715)"/>
<path d="M38.052 1.42928C38.052 0.698172 38.6456 0.098798 39.3695 0.105384C40.0935 0.105384 40.6871 0.704759 40.6806 1.43586C40.6806 2.16697 40.087 2.76634 39.363 2.75976C38.639 2.75976 38.0455 2.16038 38.052 1.42928Z" fill="url(#paint59_linear_232_2715)"/>
<path d="M30.4664 1.40952C30.4664 0.678413 31.0599 0.0790384 31.7839 0.0856249C32.5079 0.0856249 33.1015 0.684999 33.0949 1.4161C33.0949 2.14721 32.5014 2.74658 31.7774 2.74C31.0534 2.74 30.4599 2.14062 30.4664 1.40952Z" fill="url(#paint60_linear_232_2715)"/>
<path d="M22.8808 1.38976C22.8808 0.658653 23.4743 0.0592788 24.1983 0.0658653C24.9223 0.0658653 25.5159 0.665239 25.5093 1.39634C25.5093 2.12745 24.9158 2.72682 24.1918 2.72024C23.4678 2.72024 22.8743 2.12086 22.8808 1.38976Z" fill="url(#paint61_linear_232_2715)"/>
<path d="M15.2952 1.37C15.2952 0.638893 15.8887 0.0395192 16.6127 0.0461057C17.3367 0.0461057 17.9302 0.64548 17.9237 1.37658C17.9237 2.10769 17.3302 2.70706 16.6062 2.70048C15.8822 2.70048 15.2886 2.1011 15.2952 1.37Z" fill="url(#paint62_linear_232_2715)"/>
<path d="M7.70954 1.34365C7.70954 0.612547 8.30309 0.0131731 9.02708 0.0197596C9.75107 0.0197596 10.3446 0.619134 10.3381 1.35024C10.3381 2.08134 9.74455 2.68072 9.02056 2.67413C8.29656 2.67413 7.70302 2.07476 7.70954 1.34365Z" fill="url(#paint63_linear_232_2715)"/>
<path d="M0.123927 1.32389C0.130449 0.592788 0.71747 0 1.44799 0C2.1785 0 2.76552 0.599374 2.759 1.33048C2.759 2.06158 2.16546 2.66096 1.44146 2.65437C0.71747 2.65437 0.123927 2.055 0.130449 1.32389H0.123927Z" fill="url(#paint64_linear_232_2715)"/>
<path d="M45.5724 78.6695C45.5724 77.9384 46.1659 77.339 46.8899 77.3456C47.6139 77.3456 48.2075 77.945 48.201 78.6761C48.201 79.4072 47.6074 80.0066 46.8834 80C46.1594 80 45.5659 79.4006 45.5724 78.6695Z" fill="url(#paint65_linear_232_2715)"/>
<path d="M37.9868 78.6498C37.9868 77.9187 38.5803 77.3193 39.3043 77.3259C40.0283 77.3259 40.6219 77.9252 40.6153 78.6563C40.6153 79.3874 40.0218 79.9868 39.2978 79.9802C38.5738 79.9802 37.9803 79.3809 37.9868 78.6498Z" fill="url(#paint66_linear_232_2715)"/>
<path d="M30.4012 78.6234C30.4012 77.8923 30.9947 77.2929 31.7187 77.2995C32.4427 77.2995 33.0362 77.8989 33.0297 78.63C33.0297 79.3611 32.4362 79.9605 31.7122 79.9539C30.9882 79.9539 30.3947 79.3545 30.4012 78.6234Z" fill="url(#paint67_linear_232_2715)"/>
<path d="M22.8156 78.6037C22.8156 77.8725 23.4091 77.2732 24.1331 77.2798C24.8571 77.2798 25.4506 77.8791 25.4441 78.6102C25.4441 79.3413 24.8506 79.9407 24.1266 79.9341C23.4026 79.9341 22.809 79.3348 22.8156 78.6037Z" fill="url(#paint68_linear_232_2715)"/>
<path d="M15.2299 78.5839C15.2299 77.8528 15.8235 77.2534 16.5475 77.26C17.2715 77.26 17.865 77.8594 17.8585 78.5905C17.8585 79.3216 17.2649 79.921 16.541 79.9144C15.817 79.9144 15.2234 79.315 15.2299 78.5839Z" fill="url(#paint69_linear_232_2715)"/>
<path d="M7.65084 78.5641C7.65084 77.833 8.24439 77.2337 8.96838 77.2402C9.69237 77.2402 10.2859 77.8396 10.2794 78.5707C10.2794 79.3018 9.68585 79.9012 8.96185 79.8946C8.23786 79.8946 7.64432 79.2952 7.65084 78.5641Z" fill="url(#paint70_linear_232_2715)"/>
<path d="M0.0652246 78.5444C0.0652246 77.8133 0.658768 77.2139 1.38276 77.2205C2.10675 77.2205 2.7003 77.8199 2.69377 78.551C2.69377 79.2821 2.10023 79.8814 1.37624 79.8749C0.652246 79.8749 0.0587021 79.2755 0.0652246 78.5444Z" fill="url(#paint71_linear_232_2715)"/>
<path d="M45.592 70.9303C45.592 70.1992 46.1855 69.5999 46.9095 69.6065C47.6335 69.6065 48.227 70.2058 48.2205 70.9369C48.2205 71.668 47.627 72.2674 46.903 72.2608C46.179 72.2608 45.5854 71.6614 45.592 70.9303Z" fill="url(#paint72_linear_232_2715)"/>
<path d="M38.0064 70.9106C38.0064 70.1795 38.5999 69.5801 39.3239 69.5867C40.0479 69.5867 40.6414 70.1861 40.6349 70.9172C40.6349 71.6483 40.0414 72.2477 39.3174 72.2411C38.5934 72.2411 37.9998 71.6417 38.0064 70.9106Z" fill="url(#paint73_linear_232_2715)"/>
<path d="M30.4207 70.8908C30.4207 70.1597 31.0143 69.5603 31.7383 69.5669C32.4623 69.5669 33.0558 70.1663 33.0493 70.8974C33.0493 71.6285 32.4557 72.2279 31.7318 72.2213C31.0078 72.2213 30.4142 71.6219 30.4207 70.8908Z" fill="url(#paint74_linear_232_2715)"/>
<path d="M22.8351 70.8711C22.8351 70.14 23.4287 69.5406 24.1527 69.5472C24.8767 69.5472 25.4702 70.1466 25.4637 70.8777C25.4637 71.6088 24.8701 72.2081 24.1461 72.2015C23.4221 72.2015 22.8286 71.6022 22.8351 70.8711Z" fill="url(#paint75_linear_232_2715)"/>
<path d="M15.256 70.8513C15.256 70.1202 15.8496 69.5208 16.5736 69.5274C17.2976 69.5274 17.8911 70.1268 17.8846 70.8579C17.8846 71.589 17.291 72.1884 16.567 72.1818C15.843 72.1818 15.2495 71.5824 15.256 70.8513Z" fill="url(#paint76_linear_232_2715)"/>
<path d="M7.67041 70.825C7.67041 70.0939 8.26395 69.4945 8.98794 69.5011C9.71194 69.5011 10.3055 70.1004 10.299 70.8316C10.299 71.5627 9.70542 72.162 8.98142 72.1554C8.25743 72.1554 7.66389 71.5561 7.67041 70.825Z" fill="url(#paint77_linear_232_2715)"/>
<path d="M0.0847919 70.8052C0.0847919 70.0741 0.678336 69.4747 1.40233 69.4813C2.12632 69.4813 2.71986 70.0807 2.71334 70.8118C2.71334 71.5429 2.1198 72.1423 1.39581 72.1357C0.671813 72.1357 0.0782695 71.5363 0.0847919 70.8052Z" fill="url(#paint78_linear_232_2715)"/>
<path d="M45.6115 63.1978C45.6115 62.4667 46.2051 61.8673 46.9291 61.8739C47.6531 61.8739 48.2466 62.4732 48.2401 63.2043C48.2401 63.9355 47.6466 64.5348 46.9226 64.5282C46.1986 64.5282 45.605 63.9289 45.6115 63.1978Z" fill="url(#paint79_linear_232_2715)"/>
<path d="M38.0259 63.178C38.0259 62.4469 38.6195 61.8475 39.3435 61.8541C40.0675 61.8541 40.661 62.4535 40.6545 63.1846C40.6545 63.9157 40.0609 64.5151 39.3369 64.5085C38.6129 64.5085 38.0194 63.9091 38.0259 63.178Z" fill="url(#paint80_linear_232_2715)"/>
<path d="M30.4468 63.1582C30.4468 62.4271 31.0404 61.8278 31.7644 61.8343C32.4884 61.8343 33.0819 62.4337 33.0754 63.1648C33.0754 63.8959 32.4818 64.4953 31.7578 64.4887C31.0339 64.4887 30.4403 63.8893 30.4468 63.1582Z" fill="url(#paint81_linear_232_2715)"/>
<path d="M22.8612 63.1319C22.8612 62.4008 23.4548 61.8014 24.1787 61.808C24.9027 61.808 25.4963 62.4074 25.4898 63.1385C25.4898 63.8696 24.8962 64.469 24.1722 64.4624C23.4482 64.4624 22.8547 63.863 22.8612 63.1319Z" fill="url(#paint82_linear_232_2715)"/>
<path d="M15.2756 63.1121C15.2756 62.381 15.8691 61.7817 16.5931 61.7882C17.3171 61.7882 17.9107 62.3876 17.9041 63.1187C17.9041 63.8498 17.3106 64.4492 16.5866 64.4426C15.8626 64.4426 15.2691 63.8432 15.2756 63.1121Z" fill="url(#paint83_linear_232_2715)"/>
<path d="M7.68998 63.0924C7.68998 62.3613 8.28352 61.7619 9.00751 61.7685C9.73151 61.7685 10.325 62.3679 10.3185 63.099C10.3185 63.8301 9.72498 64.4294 9.00099 64.4229C8.277 64.4229 7.68345 63.8235 7.68998 63.0924Z" fill="url(#paint84_linear_232_2715)"/>
<path d="M0.104359 63.0726C0.104359 62.3415 0.697903 61.7421 1.4219 61.7487C2.14589 61.7487 2.73943 62.3481 2.73291 63.0792C2.73291 63.8103 2.13937 64.4097 1.41537 64.4031C0.69138 64.4031 0.0978368 63.8037 0.104359 63.0726Z" fill="url(#paint85_linear_232_2715)"/>
<path d="M45.6311 55.4652C45.6311 54.7341 46.2247 54.1347 46.9486 54.1413C47.6726 54.1413 48.2662 54.7407 48.2597 55.4718C48.2597 56.2029 47.6661 56.8022 46.9421 56.7957C46.2181 56.7957 45.6246 56.1963 45.6311 55.4652Z" fill="url(#paint86_linear_232_2715)"/>
<path d="M38.052 55.4388C38.052 54.7077 38.6456 54.1084 39.3695 54.1149C40.0935 54.1149 40.6871 54.7143 40.6806 55.4454C40.6806 56.1765 40.087 56.7759 39.363 56.7693C38.639 56.7693 38.0455 56.1699 38.052 55.4388Z" fill="url(#paint87_linear_232_2715)"/>
<path d="M30.4664 55.4191C30.4664 54.688 31.0599 54.0886 31.7839 54.0952C32.5079 54.0952 33.1015 54.6946 33.0949 55.4257C33.0949 56.1568 32.5014 56.7561 31.7774 56.7495C31.0534 56.7495 30.4599 56.1502 30.4664 55.4191Z" fill="url(#paint88_linear_232_2715)"/>
<path d="M22.8808 55.3993C22.8808 54.6682 23.4743 54.0688 24.1983 54.0754C24.9223 54.0754 25.5159 54.6748 25.5093 55.4059C25.5093 56.137 24.9158 56.7364 24.1918 56.7298C23.4678 56.7298 22.8743 56.1304 22.8808 55.3993Z" fill="url(#paint89_linear_232_2715)"/>
<path d="M15.2952 55.3795C15.2952 54.6484 15.8887 54.0491 16.6127 54.0557C17.3367 54.0557 17.9302 54.655 17.9237 55.3861C17.9237 56.1172 17.3302 56.7166 16.6062 56.71C15.8822 56.71 15.2886 56.1107 15.2952 55.3795Z" fill="url(#paint90_linear_232_2715)"/>
<path d="M7.70954 55.3532C7.70954 54.6221 8.30309 54.0227 9.02708 54.0293C9.75107 54.0293 10.3446 54.6287 10.3381 55.3598C10.3381 56.0909 9.74455 56.6903 9.02056 56.6837C8.29656 56.6837 7.70302 56.0843 7.70954 55.3532Z" fill="url(#paint91_linear_232_2715)"/>
<path d="M0.123927 55.3334C0.123927 54.6023 0.71747 54.003 1.44146 54.0095C2.16546 54.0161 2.759 54.6089 2.75248 55.34C2.75248 56.0711 2.15893 56.6705 1.43494 56.6639C0.710948 56.6639 0.117404 56.0645 0.123927 55.3334Z" fill="url(#paint92_linear_232_2715)"/>
<path d="M76.2345 47.805C76.2345 47.0739 76.828 46.4746 77.552 46.4811C78.276 46.4811 78.8696 47.0805 78.863 47.8116C78.863 48.5427 78.2695 49.1421 77.5455 49.1355C76.8215 49.1355 76.228 48.5361 76.2345 47.805Z" fill="url(#paint93_linear_232_2715)"/>
<path d="M68.6554 47.7787C68.6554 47.0476 69.2489 46.4482 69.9729 46.4548C70.6969 46.4548 71.2905 47.0542 71.2839 47.7853C71.2839 48.5164 70.6904 49.1158 69.9664 49.1092C69.2424 49.1092 68.6489 48.5098 68.6554 47.7787Z" fill="url(#paint94_linear_232_2715)"/>
<path d="M61.0698 47.7589C61.0698 47.0278 61.6633 46.4285 62.3873 46.435C63.1113 46.435 63.7048 47.0344 63.6983 47.7655C63.6983 48.4966 63.1048 49.096 62.3808 49.0894C61.6568 49.0894 61.0632 48.49 61.0698 47.7589Z" fill="url(#paint95_linear_232_2715)"/>
<path d="M53.4841 47.7392C53.4841 47.0081 54.0777 46.4087 54.8017 46.4153C55.5257 46.4153 56.1192 47.0147 56.1127 47.7458C56.1127 48.4769 55.5192 49.0762 54.7952 49.0697C54.0712 49.0697 53.4776 48.4703 53.4841 47.7392Z" fill="url(#paint96_linear_232_2715)"/>
<path d="M76.2606 40.0659C76.2606 39.3348 76.8541 38.7354 77.5781 38.742C78.3021 38.742 78.8956 39.3413 78.8891 40.0725C78.8891 40.8036 78.2956 41.4029 77.5716 41.3963C76.8476 41.3963 76.254 40.797 76.2606 40.0659Z" fill="url(#paint97_linear_232_2715)"/>
<path d="M68.6749 40.0461C68.6749 39.315 69.2685 38.7156 69.9925 38.7222C70.7165 38.7222 71.31 39.3216 71.3035 40.0527C71.3035 40.7838 70.71 41.3832 69.986 41.3766C69.262 41.3766 68.6684 40.7772 68.6749 40.0461Z" fill="url(#paint98_linear_232_2715)"/>
<path d="M61.0893 40.0263C61.0893 39.2952 61.6829 38.6959 62.4069 38.7025C63.1309 38.7025 63.7244 39.3018 63.7179 40.0329C63.7179 40.764 63.1243 41.3634 62.4003 41.3568C61.6763 41.3568 61.0828 40.7575 61.0893 40.0263Z" fill="url(#paint99_linear_232_2715)"/>
<path d="M53.5037 40.0066C53.5037 39.2755 54.0973 38.6761 54.8213 38.6827C55.5452 38.6827 56.1388 39.2821 56.1323 40.0132C56.1323 40.7443 55.5387 41.3437 54.8147 41.3371C54.0907 41.3371 53.4972 40.7377 53.5037 40.0066Z" fill="url(#paint100_linear_232_2715)"/>
<path d="M76.2801 32.3333C76.2801 31.6022 76.8737 31.0028 77.5977 31.0094C78.3217 31.0094 78.9152 31.6088 78.9087 32.3399C78.9087 33.071 78.3151 33.6703 77.5911 33.6638C76.8671 33.6638 76.2736 33.0644 76.2801 32.3333Z" fill="url(#paint101_linear_232_2715)"/>
<path d="M68.6945 32.3135C68.6945 31.5824 69.2881 30.983 70.012 30.9896C70.736 30.9896 71.3296 31.589 71.3231 32.3201C71.3231 33.0512 70.7295 33.6506 70.0055 33.644C69.2815 33.644 68.688 33.0446 68.6945 32.3135Z" fill="url(#paint102_linear_232_2715)"/>
<path d="M61.1089 32.2872C61.1089 31.5561 61.7024 30.9567 62.4264 30.9633C63.1504 30.9633 63.744 31.5627 63.7374 32.2938C63.7374 33.0249 63.1439 33.6242 62.4199 33.6177C61.6959 33.6177 61.1024 33.0183 61.1089 32.2872Z" fill="url(#paint103_linear_232_2715)"/>
<path d="M53.5233 32.2674C53.5233 31.5363 54.1168 30.9369 54.8408 30.9435C55.5648 30.9435 56.1583 31.5429 56.1518 32.274C56.1518 33.0051 55.5583 33.6045 54.8343 33.5979C54.1103 33.5979 53.5168 32.9985 53.5233 32.2674Z" fill="url(#paint104_linear_232_2715)"/>
<path d="M76.2997 24.5941C76.2997 23.863 76.8932 23.2636 77.6172 23.2702C78.3412 23.2702 78.9348 23.8696 78.9283 24.6007C78.9283 25.3318 78.3347 25.9312 77.6107 25.9246C76.8867 25.9246 76.2932 25.3252 76.2997 24.5941Z" fill="url(#paint105_linear_232_2715)"/>
<path d="M68.7141 24.5743C68.7141 23.8432 69.3076 23.2439 70.0316 23.2505C70.7556 23.2505 71.3492 23.8498 71.3426 24.5809C71.3426 25.312 70.7491 25.9114 70.0251 25.9048C69.3011 25.9048 68.7076 25.3055 68.7141 24.5743Z" fill="url(#paint106_linear_232_2715)"/>
<path d="M61.135 24.5546C61.135 23.8235 61.7285 23.2241 62.4525 23.2307C63.1765 23.2307 63.7701 23.8301 63.7635 24.5612C63.7635 25.2923 63.17 25.8917 62.446 25.8851C61.722 25.8851 61.1285 25.2857 61.135 24.5546Z" fill="url(#paint107_linear_232_2715)"/>
<path d="M53.5494 24.5348C53.5494 23.8037 54.1429 23.2043 54.8669 23.2109C55.5909 23.2109 56.1844 23.8103 56.1779 24.5414C56.1779 25.2725 55.5844 25.8719 54.8604 25.8653C54.1364 25.8653 53.5428 25.2659 53.5494 24.5348Z" fill="url(#paint108_linear_232_2715)"/>
<path d="M76.3193 16.8615C76.3193 16.1304 76.9128 15.531 77.6368 15.5376C78.3608 15.5376 78.9543 16.137 78.9478 16.8681C78.9478 17.5992 78.3543 18.1986 77.6303 18.192C76.9063 18.192 76.3127 17.5926 76.3193 16.8615Z" fill="url(#paint109_linear_232_2715)"/>
<path d="M68.7402 16.8418C68.7402 16.1107 69.3337 15.5113 70.0577 15.5179C70.7817 15.5179 71.3752 16.1172 71.3687 16.8483C71.3687 17.5794 70.7752 18.1788 70.0512 18.1722C69.3272 18.1722 68.7337 17.5729 68.7402 16.8418Z" fill="url(#paint110_linear_232_2715)"/>
<path d="M61.1546 16.8154C61.1546 16.0843 61.7481 15.4849 62.4721 15.4915C63.1961 15.4915 63.7896 16.0909 63.7831 16.822C63.7831 17.5531 63.1896 18.1525 62.4656 18.1459C61.7416 18.1459 61.148 17.5465 61.1546 16.8154Z" fill="url(#paint111_linear_232_2715)"/>
<path d="M53.5689 16.7957C53.5689 16.0645 54.1625 15.4652 54.8865 15.4718C55.6105 15.4718 56.204 16.0711 56.1975 16.8022C56.1975 17.5333 55.6039 18.1327 54.88 18.1261C54.156 18.1261 53.5624 17.5268 53.5689 16.7957Z" fill="url(#paint112_linear_232_2715)"/>
<path d="M76.3454 9.12234C76.3454 8.39124 76.9389 7.79187 77.6629 7.79845C78.3869 7.79845 78.9804 8.39783 78.9739 9.12893C78.9739 9.86004 78.3804 10.4594 77.6564 10.4528C76.9324 10.4528 76.3388 9.85345 76.3454 9.12234Z" fill="url(#paint113_linear_232_2715)"/>
<path d="M68.7597 9.10258C68.7597 8.37148 69.3533 7.77211 70.0773 7.77869C70.8013 7.77869 71.3948 8.37807 71.3883 9.10917C71.3883 9.84028 70.7947 10.4397 70.0707 10.4331C69.3468 10.4331 68.7532 9.83369 68.7597 9.10258Z" fill="url(#paint114_linear_232_2715)"/>
<path d="M61.1741 9.08283C61.1741 8.35172 61.7677 7.75235 62.4917 7.75893C63.2157 7.75893 63.8092 8.35831 63.8027 9.08941C63.8027 9.82052 63.2091 10.4199 62.4851 10.4133C61.7611 10.4133 61.1676 9.81393 61.1741 9.08283Z" fill="url(#paint115_linear_232_2715)"/>
<path d="M53.5885 9.06307C53.5885 8.33196 54.1821 7.73259 54.906 7.73917C55.63 7.73917 56.2236 8.33855 56.2171 9.06965C56.2171 9.80076 55.6235 10.4001 54.8995 10.3935C54.1755 10.3935 53.582 9.79417 53.5885 9.06307Z" fill="url(#paint116_linear_232_2715)"/>
<path d="M76.3649 1.38976C76.3649 0.658653 76.9585 0.0592788 77.6825 0.0658653C78.4065 0.0658653 79 0.665239 78.9935 1.39634C78.9935 2.12745 78.3999 2.72682 77.6759 2.72024C76.9519 2.72024 76.3584 2.12086 76.3649 1.38976Z" fill="url(#paint117_linear_232_2715)"/>
<path d="M68.7793 1.37C68.7793 0.638893 69.3728 0.0395192 70.0968 0.0461057C70.8208 0.0461057 71.4144 0.64548 71.4079 1.37658C71.4079 2.10769 70.8143 2.70706 70.0903 2.70048C69.3663 2.70048 68.7728 2.1011 68.7793 1.37Z" fill="url(#paint118_linear_232_2715)"/>
<path d="M61.1937 1.34365C61.1937 0.612547 61.7872 0.0131731 62.5112 0.0197596C63.2352 0.0197596 63.8288 0.619134 63.8222 1.35024C63.8222 2.08134 63.2287 2.68072 62.5047 2.67413C61.7807 2.67413 61.1872 2.07476 61.1937 1.34365Z" fill="url(#paint119_linear_232_2715)"/>
<path d="M53.6081 1.32389C53.6146 0.592788 54.2016 0 54.9321 0C55.6626 0 56.2497 0.599374 56.2431 1.33048C56.2431 2.06158 55.6496 2.66096 54.9256 2.65437C54.2016 2.65437 53.6081 2.055 53.6146 1.32389H53.6081Z" fill="url(#paint120_linear_232_2715)"/>
</g>
<defs>
<linearGradient id="paint0_linear_232_2715" x1="-0.25815" y1="66.0318" x2="64.6148" y2="35.6735" gradientUnits="userSpaceOnUse">
<stop stop-color="#FFEDA6"/>
<stop offset="1" stop-color="#FFC4CE"/>
</linearGradient>
<linearGradient id="paint1_linear_232_2715" x1="-0.25815" y1="66.0318" x2="64.6148" y2="35.6735" gradientUnits="userSpaceOnUse">
<stop stop-color="#FFEDA6"/>
<stop offset="1" stop-color="#FFC4CE"/>
</linearGradient>
<linearGradient id="paint2_linear_232_2715" x1="-0.25815" y1="66.0318" x2="64.6148" y2="35.6735" gradientUnits="userSpaceOnUse">
<stop stop-color="#FFEDA6"/>
<stop offset="1" stop-color="#FFC4CE"/>
</linearGradient>
<linearGradient id="paint3_linear_232_2715" x1="-0.25815" y1="66.0318" x2="64.6148" y2="35.6735" gradientUnits="userSpaceOnUse">
<stop stop-color="#FFEDA6"/>
<stop offset="1" stop-color="#FFC4CE"/>
</linearGradient>
<linearGradient id="paint4_linear_232_2715" x1="-0.25815" y1="66.0318" x2="64.6148" y2="35.6735" gradientUnits="userSpaceOnUse">
<stop stop-color="#FFEDA6"/>
<stop offset="1" stop-color="#FFC4CE"/>
</linearGradient>
<linearGradient id="paint5_linear_232_2715" x1="-0.25815" y1="66.0318" x2="64.6148" y2="35.6735" gradientUnits="userSpaceOnUse">
<stop stop-color="#FFEDA6"/>
<stop offset="1" stop-color="#FFC4CE"/>
</linearGradient>
<linearGradient id="paint6_linear_232_2715" x1="-0.25815" y1="66.0318" x2="64.6148" y2="35.6735" gradientUnits="userSpaceOnUse">
<stop stop-color="#FFEDA6"/>
<stop offset="1" stop-color="#FFC4CE"/>
</linearGradient>
<linearGradient id="paint7_linear_232_2715" x1="-0.25815" y1="66.0318" x2="64.6148" y2="35.6735" gradientUnits="userSpaceOnUse">
<stop stop-color="#FFEDA6"/>
<stop offset="1" stop-color="#FFC4CE"/>
</linearGradient>
<linearGradient id="paint8_linear_232_2715" x1="-0.25815" y1="66.0318" x2="64.6148" y2="35.6735" gradientUnits="userSpaceOnUse">
<stop stop-color="#FFEDA6"/>
<stop offset="1" stop-color="#FFC4CE"/>
</linearGradient>
<linearGradient id="paint9_linear_232_2715" x1="-0.25815" y1="66.0318" x2="64.6148" y2="35.6735" gradientUnits="userSpaceOnUse">
<stop stop-color="#FFEDA6"/>
<stop offset="1" stop-color="#FFC4CE"/>
</linearGradient>
<linearGradient id="paint10_linear_232_2715" x1="-0.25815" y1="66.0318" x2="64.6148" y2="35.6735" gradientUnits="userSpaceOnUse">
<stop stop-color="#FFEDA6"/>
<stop offset="1" stop-color="#FFC4CE"/>
</linearGradient>
<linearGradient id="paint11_linear_232_2715" x1="-0.25815" y1="66.0318" x2="64.6148" y2="35.6735" gradientUnits="userSpaceOnUse">
<stop stop-color="#FFEDA6"/>
<stop offset="1" stop-color="#FFC4CE"/>
</linearGradient>
<linearGradient id="paint12_linear_232_2715" x1="-0.25815" y1="66.0318" x2="64.6148" y2="35.6735" gradientUnits="userSpaceOnUse">
<stop stop-color="#FFEDA6"/>
<stop offset="1" stop-color="#FFC4CE"/>
</linearGradient>
<linearGradient id="paint13_linear_232_2715" x1="-0.25815" y1="66.0318" x2="64.6148" y2="35.6735" gradientUnits="userSpaceOnUse">
<stop stop-color="#FFEDA6"/>
<stop offset="1" stop-color="#FFC4CE"/>
</linearGradient>
<linearGradient id="paint14_linear_232_2715" x1="-0.25815" y1="66.0318" x2="64.6148" y2="35.6735" gradientUnits="userSpaceOnUse">
<stop stop-color="#FFEDA6"/>
<stop offset="1" stop-color="#FFC4CE"/>
</linearGradient>
<linearGradient id="paint15_linear_232_2715" x1="-0.25815" y1="66.0318" x2="64.6148" y2="35.6735" gradientUnits="userSpaceOnUse">
<stop stop-color="#FFEDA6"/>
<stop offset="1" stop-color="#FFC4CE"/>
</linearGradient>
<linearGradient id="paint16_linear_232_2715" x1="-0.25815" y1="66.0318" x2="64.6148" y2="35.6735" gradientUnits="userSpaceOnUse">
<stop stop-color="#FFEDA6"/>
<stop offset="1" stop-color="#FFC4CE"/>
</linearGradient>
<linearGradient id="paint17_linear_232_2715" x1="-0.25815" y1="66.0318" x2="64.6148" y2="35.6735" gradientUnits="userSpaceOnUse">
<stop stop-color="#FFEDA6"/>
<stop offset="1" stop-color="#FFC4CE"/>
</linearGradient>
<linearGradient id="paint18_linear_232_2715" x1="-0.25815" y1="66.0318" x2="64.6148" y2="35.6735" gradientUnits="userSpaceOnUse">
<stop stop-color="#FFEDA6"/>
<stop offset="1" stop-color="#FFC4CE"/>
</linearGradient>
<linearGradient id="paint19_linear_232_2715" x1="-0.25815" y1="66.0318" x2="64.6148" y2="35.6735" gradientUnits="userSpaceOnUse">
<stop stop-color="#FFEDA6"/>
<stop offset="1" stop-color="#FFC4CE"/>
</linearGradient>
<linearGradient id="paint20_linear_232_2715" x1="-0.25815" y1="66.0318" x2="64.6148" y2="35.6735" gradientUnits="userSpaceOnUse">
<stop stop-color="#FFEDA6"/>
<stop offset="1" stop-color="#FFC4CE"/>
</linearGradient>
<linearGradient id="paint21_linear_232_2715" x1="-0.25815" y1="66.0318" x2="64.6148" y2="35.6735" gradientUnits="userSpaceOnUse">
<stop stop-color="#FFEDA6"/>
<stop offset="1" stop-color="#FFC4CE"/>
</linearGradient>
<linearGradient id="paint22_linear_232_2715" x1="-0.25815" y1="66.0318" x2="64.6148" y2="35.6735" gradientUnits="userSpaceOnUse">
<stop stop-color="#FFEDA6"/>
<stop offset="1" stop-color="#FFC4CE"/>
</linearGradient>
<linearGradient id="paint23_linear_232_2715" x1="-0.25815" y1="66.0318" x2="64.6148" y2="35.6735" gradientUnits="userSpaceOnUse">
<stop stop-color="#FFEDA6"/>
<stop offset="1" stop-color="#FFC4CE"/>
</linearGradient>
<linearGradient id="paint24_linear_232_2715" x1="-0.25815" y1="66.0318" x2="64.6148" y2="35.6735" gradientUnits="userSpaceOnUse">
<stop stop-color="#FFEDA6"/>
<stop offset="1" stop-color="#FFC4CE"/>
</linearGradient>
<linearGradient id="paint25_linear_232_2715" x1="-0.25815" y1="66.0318" x2="64.6148" y2="35.6735" gradientUnits="userSpaceOnUse">
<stop stop-color="#FFEDA6"/>
<stop offset="1" stop-color="#FFC4CE"/>
</linearGradient>
<linearGradient id="paint26_linear_232_2715" x1="-0.25815" y1="66.0318" x2="64.6148" y2="35.6735" gradientUnits="userSpaceOnUse">
<stop stop-color="#FFEDA6"/>
<stop offset="1" stop-color="#FFC4CE"/>
</linearGradient>
<linearGradient id="paint27_linear_232_2715" x1="-0.25815" y1="66.0318" x2="64.6148" y2="35.6735" gradientUnits="userSpaceOnUse">
<stop stop-color="#FFEDA6"/>
<stop offset="1" stop-color="#FFC4CE"/>
</linearGradient>
<linearGradient id="paint28_linear_232_2715" x1="-0.25815" y1="66.0318" x2="64.6148" y2="35.6735" gradientUnits="userSpaceOnUse">
<stop stop-color="#FFEDA6"/>
<stop offset="1" stop-color="#FFC4CE"/>
</linearGradient>
<linearGradient id="paint29_linear_232_2715" x1="-0.25815" y1="66.0318" x2="64.6148" y2="35.6735" gradientUnits="userSpaceOnUse">
<stop stop-color="#FFEDA6"/>
<stop offset="1" stop-color="#FFC4CE"/>
</linearGradient>
<linearGradient id="paint30_linear_232_2715" x1="-0.25815" y1="66.0318" x2="64.6148" y2="35.6735" gradientUnits="userSpaceOnUse">
<stop stop-color="#FFEDA6"/>
<stop offset="1" stop-color="#FFC4CE"/>
</linearGradient>
<linearGradient id="paint31_linear_232_2715" x1="-0.25815" y1="66.0318" x2="64.6148" y2="35.6735" gradientUnits="userSpaceOnUse">
<stop stop-color="#FFEDA6"/>
<stop offset="1" stop-color="#FFC4CE"/>
</linearGradient>
<linearGradient id="paint32_linear_232_2715" x1="-0.25815" y1="66.0318" x2="64.6148" y2="35.6735" gradientUnits="userSpaceOnUse">
<stop stop-color="#FFEDA6"/>
<stop offset="1" stop-color="#FFC4CE"/>
</linearGradient>
<linearGradient id="paint33_linear_232_2715" x1="-0.25815" y1="66.0318" x2="64.6148" y2="35.6735" gradientUnits="userSpaceOnUse">
<stop stop-color="#FFEDA6"/>
<stop offset="1" stop-color="#FFC4CE"/>
</linearGradient>
<linearGradient id="paint34_linear_232_2715" x1="-0.25815" y1="66.0318" x2="64.6148" y2="35.6735" gradientUnits="userSpaceOnUse">
<stop stop-color="#FFEDA6"/>
<stop offset="1" stop-color="#FFC4CE"/>
</linearGradient>
<linearGradient id="paint35_linear_232_2715" x1="-0.25815" y1="66.0318" x2="64.6148" y2="35.6735" gradientUnits="userSpaceOnUse">
<stop stop-color="#FFEDA6"/>
<stop offset="1" stop-color="#FFC4CE"/>
</linearGradient>
<linearGradient id="paint36_linear_232_2715" x1="-0.25815" y1="66.0318" x2="64.6148" y2="35.6735" gradientUnits="userSpaceOnUse">
<stop stop-color="#FFEDA6"/>
<stop offset="1" stop-color="#FFC4CE"/>
</linearGradient>
<linearGradient id="paint37_linear_232_2715" x1="-0.25815" y1="66.0318" x2="64.6148" y2="35.6735" gradientUnits="userSpaceOnUse">
<stop stop-color="#FFEDA6"/>
<stop offset="1" stop-color="#FFC4CE"/>
</linearGradient>
<linearGradient id="paint38_linear_232_2715" x1="-0.25815" y1="66.0318" x2="64.6148" y2="35.6735" gradientUnits="userSpaceOnUse">
<stop stop-color="#FFEDA6"/>
<stop offset="1" stop-color="#FFC4CE"/>
</linearGradient>
<linearGradient id="paint39_linear_232_2715" x1="-0.25815" y1="66.0318" x2="64.6148" y2="35.6735" gradientUnits="userSpaceOnUse">
<stop stop-color="#FFEDA6"/>
<stop offset="1" stop-color="#FFC4CE"/>
</linearGradient>
<linearGradient id="paint40_linear_232_2715" x1="-0.25815" y1="66.0318" x2="64.6148" y2="35.6735" gradientUnits="userSpaceOnUse">
<stop stop-color="#FFEDA6"/>
<stop offset="1" stop-color="#FFC4CE"/>
</linearGradient>
<linearGradient id="paint41_linear_232_2715" x1="-0.25815" y1="66.0318" x2="64.6148" y2="35.6735" gradientUnits="userSpaceOnUse">
<stop stop-color="#FFEDA6"/>
<stop offset="1" stop-color="#FFC4CE"/>
</linearGradient>
<linearGradient id="paint42_linear_232_2715" x1="-0.25815" y1="66.0318" x2="64.6148" y2="35.6735" gradientUnits="userSpaceOnUse">
<stop stop-color="#FFEDA6"/>
<stop offset="1" stop-color="#FFC4CE"/>
</linearGradient>
<linearGradient id="paint43_linear_232_2715" x1="-0.25815" y1="66.0318" x2="64.6148" y2="35.6735" gradientUnits="userSpaceOnUse">
<stop stop-color="#FFEDA6"/>
<stop offset="1" stop-color="#FFC4CE"/>
</linearGradient>
<linearGradient id="paint44_linear_232_2715" x1="-0.25815" y1="66.0318" x2="64.6148" y2="35.6735" gradientUnits="userSpaceOnUse">
<stop stop-color="#FFEDA6"/>
<stop offset="1" stop-color="#FFC4CE"/>
</linearGradient>
<linearGradient id="paint45_linear_232_2715" x1="-0.25815" y1="66.0318" x2="64.6148" y2="35.6735" gradientUnits="userSpaceOnUse">
<stop stop-color="#FFEDA6"/>
<stop offset="1" stop-color="#FFC4CE"/>
</linearGradient>
<linearGradient id="paint46_linear_232_2715" x1="-0.25815" y1="66.0318" x2="64.6148" y2="35.6735" gradientUnits="userSpaceOnUse">
<stop stop-color="#FFEDA6"/>
<stop offset="1" stop-color="#FFC4CE"/>
</linearGradient>
<linearGradient id="paint47_linear_232_2715" x1="-0.25815" y1="66.0318" x2="64.6148" y2="35.6735" gradientUnits="userSpaceOnUse">
<stop stop-color="#FFEDA6"/>
<stop offset="1" stop-color="#FFC4CE"/>
</linearGradient>
<linearGradient id="paint48_linear_232_2715" x1="-0.25815" y1="66.0318" x2="64.6148" y2="35.6735" gradientUnits="userSpaceOnUse">
<stop stop-color="#FFEDA6"/>
<stop offset="1" stop-color="#FFC4CE"/>
</linearGradient>
<linearGradient id="paint49_linear_232_2715" x1="-0.25815" y1="66.0318" x2="64.6148" y2="35.6735" gradientUnits="userSpaceOnUse">
<stop stop-color="#FFEDA6"/>
<stop offset="1" stop-color="#FFC4CE"/>
</linearGradient>
<linearGradient id="paint50_linear_232_2715" x1="-0.25815" y1="66.0318" x2="64.6148" y2="35.6735" gradientUnits="userSpaceOnUse">
<stop stop-color="#FFEDA6"/>
<stop offset="1" stop-color="#FFC4CE"/>
</linearGradient>
<linearGradient id="paint51_linear_232_2715" x1="-0.25815" y1="66.0318" x2="64.6148" y2="35.6735" gradientUnits="userSpaceOnUse">
<stop stop-color="#FFEDA6"/>
<stop offset="1" stop-color="#FFC4CE"/>
</linearGradient>
<linearGradient id="paint52_linear_232_2715" x1="-0.25815" y1="66.0318" x2="64.6148" y2="35.6735" gradientUnits="userSpaceOnUse">
<stop stop-color="#FFEDA6"/>
<stop offset="1" stop-color="#FFC4CE"/>
</linearGradient>
<linearGradient id="paint53_linear_232_2715" x1="-0.25815" y1="66.0318" x2="64.6148" y2="35.6735" gradientUnits="userSpaceOnUse">
<stop stop-color="#FFEDA6"/>
<stop offset="1" stop-color="#FFC4CE"/>
</linearGradient>
<linearGradient id="paint54_linear_232_2715" x1="-0.25815" y1="66.0318" x2="64.6148" y2="35.6735" gradientUnits="userSpaceOnUse">
<stop stop-color="#FFEDA6"/>
<stop offset="1" stop-color="#FFC4CE"/>
</linearGradient>
<linearGradient id="paint55_linear_232_2715" x1="-0.25815" y1="66.0318" x2="64.6148" y2="35.6735" gradientUnits="userSpaceOnUse">
<stop stop-color="#FFEDA6"/>
<stop offset="1" stop-color="#FFC4CE"/>
</linearGradient>
<linearGradient id="paint56_linear_232_2715" x1="-0.25815" y1="66.0318" x2="64.6148" y2="35.6735" gradientUnits="userSpaceOnUse">
<stop stop-color="#FFEDA6"/>
<stop offset="1" stop-color="#FFC4CE"/>
</linearGradient>
<linearGradient id="paint57_linear_232_2715" x1="-0.25815" y1="66.0318" x2="64.6148" y2="35.6735" gradientUnits="userSpaceOnUse">
<stop stop-color="#FFEDA6"/>
<stop offset="1" stop-color="#FFC4CE"/>
</linearGradient>
<linearGradient id="paint58_linear_232_2715" x1="-0.25815" y1="66.0318" x2="64.6148" y2="35.6735" gradientUnits="userSpaceOnUse">
<stop stop-color="#FFEDA6"/>
<stop offset="1" stop-color="#FFC4CE"/>
</linearGradient>
<linearGradient id="paint59_linear_232_2715" x1="-0.25815" y1="66.0318" x2="64.6148" y2="35.6735" gradientUnits="userSpaceOnUse">
<stop stop-color="#FFEDA6"/>
<stop offset="1" stop-color="#FFC4CE"/>
</linearGradient>
<linearGradient id="paint60_linear_232_2715" x1="-0.25815" y1="66.0318" x2="64.6148" y2="35.6735" gradientUnits="userSpaceOnUse">
<stop stop-color="#FFEDA6"/>
<stop offset="1" stop-color="#FFC4CE"/>
</linearGradient>
<linearGradient id="paint61_linear_232_2715" x1="-0.25815" y1="66.0318" x2="64.6148" y2="35.6735" gradientUnits="userSpaceOnUse">
<stop stop-color="#FFEDA6"/>
<stop offset="1" stop-color="#FFC4CE"/>
</linearGradient>
<linearGradient id="paint62_linear_232_2715" x1="-0.25815" y1="66.0318" x2="64.6148" y2="35.6735" gradientUnits="userSpaceOnUse">
<stop stop-color="#FFEDA6"/>
<stop offset="1" stop-color="#FFC4CE"/>
</linearGradient>
<linearGradient id="paint63_linear_232_2715" x1="-0.25815" y1="66.0318" x2="64.6148" y2="35.6735" gradientUnits="userSpaceOnUse">
<stop stop-color="#FFEDA6"/>
<stop offset="1" stop-color="#FFC4CE"/>
</linearGradient>
<linearGradient id="paint64_linear_232_2715" x1="-0.25815" y1="66.0318" x2="64.6148" y2="35.6735" gradientUnits="userSpaceOnUse">
<stop stop-color="#FFEDA6"/>
<stop offset="1" stop-color="#FFC4CE"/>
</linearGradient>
<linearGradient id="paint65_linear_232_2715" x1="-0.25815" y1="66.0318" x2="64.6148" y2="35.6735" gradientUnits="userSpaceOnUse">
<stop stop-color="#FFEDA6"/>
<stop offset="1" stop-color="#FFC4CE"/>
</linearGradient>
<linearGradient id="paint66_linear_232_2715" x1="-0.25815" y1="66.0318" x2="64.6148" y2="35.6735" gradientUnits="userSpaceOnUse">
<stop stop-color="#FFEDA6"/>
<stop offset="1" stop-color="#FFC4CE"/>
</linearGradient>
<linearGradient id="paint67_linear_232_2715" x1="-0.25815" y1="66.0318" x2="64.6148" y2="35.6735" gradientUnits="userSpaceOnUse">
<stop stop-color="#FFEDA6"/>
<stop offset="1" stop-color="#FFC4CE"/>
</linearGradient>
<linearGradient id="paint68_linear_232_2715" x1="-0.25815" y1="66.0318" x2="64.6148" y2="35.6735" gradientUnits="userSpaceOnUse">
<stop stop-color="#FFEDA6"/>
<stop offset="1" stop-color="#FFC4CE"/>
</linearGradient>
<linearGradient id="paint69_linear_232_2715" x1="-0.25815" y1="66.0318" x2="64.6148" y2="35.6735" gradientUnits="userSpaceOnUse">
<stop stop-color="#FFEDA6"/>
<stop offset="1" stop-color="#FFC4CE"/>
</linearGradient>
<linearGradient id="paint70_linear_232_2715" x1="-0.25815" y1="66.0318" x2="64.6148" y2="35.6735" gradientUnits="userSpaceOnUse">
<stop stop-color="#FFEDA6"/>
<stop offset="1" stop-color="#FFC4CE"/>
</linearGradient>
<linearGradient id="paint71_linear_232_2715" x1="-0.25815" y1="66.0318" x2="64.6148" y2="35.6735" gradientUnits="userSpaceOnUse">
<stop stop-color="#FFEDA6"/>
<stop offset="1" stop-color="#FFC4CE"/>
</linearGradient>
<linearGradient id="paint72_linear_232_2715" x1="-0.25815" y1="66.0318" x2="64.6148" y2="35.6735" gradientUnits="userSpaceOnUse">
<stop stop-color="#FFEDA6"/>
<stop offset="1" stop-color="#FFC4CE"/>
</linearGradient>
<linearGradient id="paint73_linear_232_2715" x1="-0.25815" y1="66.0318" x2="64.6148" y2="35.6735" gradientUnits="userSpaceOnUse">
<stop stop-color="#FFEDA6"/>
<stop offset="1" stop-color="#FFC4CE"/>
</linearGradient>
<linearGradient id="paint74_linear_232_2715" x1="-0.25815" y1="66.0318" x2="64.6148" y2="35.6735" gradientUnits="userSpaceOnUse">
<stop stop-color="#FFEDA6"/>
<stop offset="1" stop-color="#FFC4CE"/>
</linearGradient>
<linearGradient id="paint75_linear_232_2715" x1="-0.25815" y1="66.0318" x2="64.6148" y2="35.6735" gradientUnits="userSpaceOnUse">
<stop stop-color="#FFEDA6"/>
<stop offset="1" stop-color="#FFC4CE"/>
</linearGradient>
<linearGradient id="paint76_linear_232_2715" x1="-0.25815" y1="66.0318" x2="64.6148" y2="35.6735" gradientUnits="userSpaceOnUse">
<stop stop-color="#FFEDA6"/>
<stop offset="1" stop-color="#FFC4CE"/>
</linearGradient>
<linearGradient id="paint77_linear_232_2715" x1="-0.25815" y1="66.0318" x2="64.6148" y2="35.6735" gradientUnits="userSpaceOnUse">
<stop stop-color="#FFEDA6"/>
<stop offset="1" stop-color="#FFC4CE"/>
</linearGradient>
<linearGradient id="paint78_linear_232_2715" x1="-0.25815" y1="66.0318" x2="64.6148" y2="35.6735" gradientUnits="userSpaceOnUse">
<stop stop-color="#FFEDA6"/>
<stop offset="1" stop-color="#FFC4CE"/>
</linearGradient>
<linearGradient id="paint79_linear_232_2715" x1="-0.25815" y1="66.0318" x2="64.6148" y2="35.6735" gradientUnits="userSpaceOnUse">
<stop stop-color="#FFEDA6"/>
<stop offset="1" stop-color="#FFC4CE"/>
</linearGradient>
<linearGradient id="paint80_linear_232_2715" x1="-0.25815" y1="66.0318" x2="64.6148" y2="35.6735" gradientUnits="userSpaceOnUse">
<stop stop-color="#FFEDA6"/>
<stop offset="1" stop-color="#FFC4CE"/>
</linearGradient>
<linearGradient id="paint81_linear_232_2715" x1="-0.25815" y1="66.0318" x2="64.6148" y2="35.6735" gradientUnits="userSpaceOnUse">
<stop stop-color="#FFEDA6"/>
<stop offset="1" stop-color="#FFC4CE"/>
</linearGradient>
<linearGradient id="paint82_linear_232_2715" x1="-0.25815" y1="66.0318" x2="64.6148" y2="35.6735" gradientUnits="userSpaceOnUse">
<stop stop-color="#FFEDA6"/>
<stop offset="1" stop-color="#FFC4CE"/>
</linearGradient>
<linearGradient id="paint83_linear_232_2715" x1="-0.25815" y1="66.0318" x2="64.6148" y2="35.6735" gradientUnits="userSpaceOnUse">
<stop stop-color="#FFEDA6"/>
<stop offset="1" stop-color="#FFC4CE"/>
</linearGradient>
<linearGradient id="paint84_linear_232_2715" x1="-0.25815" y1="66.0318" x2="64.6148" y2="35.6735" gradientUnits="userSpaceOnUse">
<stop stop-color="#FFEDA6"/>
<stop offset="1" stop-color="#FFC4CE"/>
</linearGradient>
<linearGradient id="paint85_linear_232_2715" x1="-0.25815" y1="66.0318" x2="64.6148" y2="35.6735" gradientUnits="userSpaceOnUse">
<stop stop-color="#FFEDA6"/>
<stop offset="1" stop-color="#FFC4CE"/>
</linearGradient>
<linearGradient id="paint86_linear_232_2715" x1="-0.25815" y1="66.0318" x2="64.6148" y2="35.6735" gradientUnits="userSpaceOnUse">
<stop stop-color="#FFEDA6"/>
<stop offset="1" stop-color="#FFC4CE"/>
</linearGradient>
<linearGradient id="paint87_linear_232_2715" x1="-0.25815" y1="66.0318" x2="64.6148" y2="35.6735" gradientUnits="userSpaceOnUse">
<stop stop-color="#FFEDA6"/>
<stop offset="1" stop-color="#FFC4CE"/>
</linearGradient>
<linearGradient id="paint88_linear_232_2715" x1="-0.25815" y1="66.0318" x2="64.6148" y2="35.6735" gradientUnits="userSpaceOnUse">
<stop stop-color="#FFEDA6"/>
<stop offset="1" stop-color="#FFC4CE"/>
</linearGradient>
<linearGradient id="paint89_linear_232_2715" x1="-0.25815" y1="66.0318" x2="64.6148" y2="35.6735" gradientUnits="userSpaceOnUse">
<stop stop-color="#FFEDA6"/>
<stop offset="1" stop-color="#FFC4CE"/>
</linearGradient>
<linearGradient id="paint90_linear_232_2715" x1="-0.25815" y1="66.0318" x2="64.6148" y2="35.6735" gradientUnits="userSpaceOnUse">
<stop stop-color="#FFEDA6"/>
<stop offset="1" stop-color="#FFC4CE"/>
</linearGradient>
<linearGradient id="paint91_linear_232_2715" x1="-0.25815" y1="66.0318" x2="64.6148" y2="35.6735" gradientUnits="userSpaceOnUse">
<stop stop-color="#FFEDA6"/>
<stop offset="1" stop-color="#FFC4CE"/>
</linearGradient>
<linearGradient id="paint92_linear_232_2715" x1="-0.25815" y1="66.0318" x2="64.6148" y2="35.6735" gradientUnits="userSpaceOnUse">
<stop stop-color="#FFEDA6"/>
<stop offset="1" stop-color="#FFC4CE"/>
</linearGradient>
<linearGradient id="paint93_linear_232_2715" x1="-0.25815" y1="66.0318" x2="64.6148" y2="35.6735" gradientUnits="userSpaceOnUse">
<stop stop-color="#FFEDA6"/>
<stop offset="1" stop-color="#FFC4CE"/>
</linearGradient>
<linearGradient id="paint94_linear_232_2715" x1="-0.25815" y1="66.0318" x2="64.6148" y2="35.6735" gradientUnits="userSpaceOnUse">
<stop stop-color="#FFEDA6"/>
<stop offset="1" stop-color="#FFC4CE"/>
</linearGradient>
<linearGradient id="paint95_linear_232_2715" x1="-0.25815" y1="66.0318" x2="64.6148" y2="35.6735" gradientUnits="userSpaceOnUse">
<stop stop-color="#FFEDA6"/>
<stop offset="1" stop-color="#FFC4CE"/>
</linearGradient>
<linearGradient id="paint96_linear_232_2715" x1="-0.25815" y1="66.0318" x2="64.6148" y2="35.6735" gradientUnits="userSpaceOnUse">
<stop stop-color="#FFEDA6"/>
<stop offset="1" stop-color="#FFC4CE"/>
</linearGradient>
<linearGradient id="paint97_linear_232_2715" x1="-0.25815" y1="66.0318" x2="64.6148" y2="35.6735" gradientUnits="userSpaceOnUse">
<stop stop-color="#FFEDA6"/>
<stop offset="1" stop-color="#FFC4CE"/>
</linearGradient>
<linearGradient id="paint98_linear_232_2715" x1="-0.25815" y1="66.0318" x2="64.6148" y2="35.6735" gradientUnits="userSpaceOnUse">
<stop stop-color="#FFEDA6"/>
<stop offset="1" stop-color="#FFC4CE"/>
</linearGradient>
<linearGradient id="paint99_linear_232_2715" x1="-0.25815" y1="66.0318" x2="64.6148" y2="35.6735" gradientUnits="userSpaceOnUse">
<stop stop-color="#FFEDA6"/>
<stop offset="1" stop-color="#FFC4CE"/>
</linearGradient>
<linearGradient id="paint100_linear_232_2715" x1="-0.25815" y1="66.0318" x2="64.6148" y2="35.6735" gradientUnits="userSpaceOnUse">
<stop stop-color="#FFEDA6"/>
<stop offset="1" stop-color="#FFC4CE"/>
</linearGradient>
<linearGradient id="paint101_linear_232_2715" x1="-0.25815" y1="66.0318" x2="64.6148" y2="35.6735" gradientUnits="userSpaceOnUse">
<stop stop-color="#FFEDA6"/>
<stop offset="1" stop-color="#FFC4CE"/>
</linearGradient>
<linearGradient id="paint102_linear_232_2715" x1="-0.25815" y1="66.0318" x2="64.6148" y2="35.6735" gradientUnits="userSpaceOnUse">
<stop stop-color="#FFEDA6"/>
<stop offset="1" stop-color="#FFC4CE"/>
</linearGradient>
<linearGradient id="paint103_linear_232_2715" x1="-0.25815" y1="66.0318" x2="64.6148" y2="35.6735" gradientUnits="userSpaceOnUse">
<stop stop-color="#FFEDA6"/>
<stop offset="1" stop-color="#FFC4CE"/>
</linearGradient>
<linearGradient id="paint104_linear_232_2715" x1="-0.25815" y1="66.0318" x2="64.6148" y2="35.6735" gradientUnits="userSpaceOnUse">
<stop stop-color="#FFEDA6"/>
<stop offset="1" stop-color="#FFC4CE"/>
</linearGradient>
<linearGradient id="paint105_linear_232_2715" x1="-0.25815" y1="66.0318" x2="64.6148" y2="35.6735" gradientUnits="userSpaceOnUse">
<stop stop-color="#FFEDA6"/>
<stop offset="1" stop-color="#FFC4CE"/>
</linearGradient>
<linearGradient id="paint106_linear_232_2715" x1="-0.25815" y1="66.0318" x2="64.6148" y2="35.6735" gradientUnits="userSpaceOnUse">
<stop stop-color="#FFEDA6"/>
<stop offset="1" stop-color="#FFC4CE"/>
</linearGradient>
<linearGradient id="paint107_linear_232_2715" x1="-0.25815" y1="66.0318" x2="64.6148" y2="35.6735" gradientUnits="userSpaceOnUse">
<stop stop-color="#FFEDA6"/>
<stop offset="1" stop-color="#FFC4CE"/>
</linearGradient>
<linearGradient id="paint108_linear_232_2715" x1="-0.25815" y1="66.0318" x2="64.6148" y2="35.6735" gradientUnits="userSpaceOnUse">
<stop stop-color="#FFEDA6"/>
<stop offset="1" stop-color="#FFC4CE"/>
</linearGradient>
<linearGradient id="paint109_linear_232_2715" x1="-0.25815" y1="66.0318" x2="64.6148" y2="35.6735" gradientUnits="userSpaceOnUse">
<stop stop-color="#FFEDA6"/>
<stop offset="1" stop-color="#FFC4CE"/>
</linearGradient>
<linearGradient id="paint110_linear_232_2715" x1="-0.25815" y1="66.0318" x2="64.6148" y2="35.6735" gradientUnits="userSpaceOnUse">
<stop stop-color="#FFEDA6"/>
<stop offset="1" stop-color="#FFC4CE"/>
</linearGradient>
<linearGradient id="paint111_linear_232_2715" x1="-0.25815" y1="66.0318" x2="64.6148" y2="35.6735" gradientUnits="userSpaceOnUse">
<stop stop-color="#FFEDA6"/>
<stop offset="1" stop-color="#FFC4CE"/>
</linearGradient>
<linearGradient id="paint112_linear_232_2715" x1="-0.25815" y1="66.0318" x2="64.6148" y2="35.6735" gradientUnits="userSpaceOnUse">
<stop stop-color="#FFEDA6"/>
<stop offset="1" stop-color="#FFC4CE"/>
</linearGradient>
<linearGradient id="paint113_linear_232_2715" x1="-0.25815" y1="66.0318" x2="64.6148" y2="35.6735" gradientUnits="userSpaceOnUse">
<stop stop-color="#FFEDA6"/>
<stop offset="1" stop-color="#FFC4CE"/>
</linearGradient>
<linearGradient id="paint114_linear_232_2715" x1="-0.25815" y1="66.0318" x2="64.6148" y2="35.6735" gradientUnits="userSpaceOnUse">
<stop stop-color="#FFEDA6"/>
<stop offset="1" stop-color="#FFC4CE"/>
</linearGradient>
<linearGradient id="paint115_linear_232_2715" x1="-0.25815" y1="66.0318" x2="64.6148" y2="35.6735" gradientUnits="userSpaceOnUse">
<stop stop-color="#FFEDA6"/>
<stop offset="1" stop-color="#FFC4CE"/>
</linearGradient>
<linearGradient id="paint116_linear_232_2715" x1="-0.25815" y1="66.0318" x2="64.6148" y2="35.6735" gradientUnits="userSpaceOnUse">
<stop stop-color="#FFEDA6"/>
<stop offset="1" stop-color="#FFC4CE"/>
</linearGradient>
<linearGradient id="paint117_linear_232_2715" x1="-0.25815" y1="66.0318" x2="64.6148" y2="35.6735" gradientUnits="userSpaceOnUse">
<stop stop-color="#FFEDA6"/>
<stop offset="1" stop-color="#FFC4CE"/>
</linearGradient>
<linearGradient id="paint118_linear_232_2715" x1="-0.25815" y1="66.0318" x2="64.6148" y2="35.6735" gradientUnits="userSpaceOnUse">
<stop stop-color="#FFEDA6"/>
<stop offset="1" stop-color="#FFC4CE"/>
</linearGradient>
<linearGradient id="paint119_linear_232_2715" x1="-0.25815" y1="66.0318" x2="64.6148" y2="35.6735" gradientUnits="userSpaceOnUse">
<stop stop-color="#FFEDA6"/>
<stop offset="1" stop-color="#FFC4CE"/>
</linearGradient>
<linearGradient id="paint120_linear_232_2715" x1="-0.25815" y1="66.0318" x2="64.6148" y2="35.6735" gradientUnits="userSpaceOnUse">
<stop stop-color="#FFEDA6"/>
<stop offset="1" stop-color="#FFC4CE"/>
</linearGradient>
<clipPath id="clip0_232_2715">
<rect width="79" height="80" fill="white"/>
</clipPath>
</defs>
</svg>
