<svg width="966" height="63" viewBox="0 0 966 63" fill="none" xmlns="http://www.w3.org/2000/svg">
<path d="M954.94 1.8978C957.47 -0.632592 961.572 -0.632592 964.102 1.8978C966.633 4.42819 966.633 8.53005 964.102 11.0604C961.572 13.5908 957.47 13.5908 954.94 11.0604C952.409 8.53005 952.409 4.42819 954.94 1.8978ZM904.898 61.1022C907.428 63.6326 911.53 63.6326 914.06 61.1022L951.275 23.8898C953.805 21.3594 953.805 17.2576 951.275 14.7272C948.745 12.1968 944.643 12.1968 942.112 14.7272L904.898 51.9396C902.367 54.47 902.367 58.5718 904.898 61.1022Z" fill="url(#paint0_linear_294_5646)"/>
<path d="M11.0604 61.1022C8.53004 63.6326 4.42819 63.6326 1.89779 61.1022C-0.632598 58.5718 -0.632598 54.47 1.89779 51.9396C4.42819 49.4092 8.53004 49.4092 11.0604 51.9396C13.5908 54.47 13.5908 58.5718 11.0604 61.1022ZM61.1022 1.89779C58.5718 -0.632598 54.47 -0.632598 51.9396 1.89779L14.7251 39.1102C12.1947 41.6406 12.1947 45.7424 14.7251 48.2728C17.2555 50.8032 21.3573 50.8032 23.8877 48.2728L61.1022 11.0604C63.6326 8.53004 63.6326 4.42819 61.1022 1.89779Z" fill="url(#paint1_linear_294_5646)"/>
<g clip-path="url(#clip0_294_5646)">
<path d="M102.65 44.63C100.78 46.07 98.62 47.7 96.98 47.7C94.87 47.7 93 45.73 93 43.62C93 42.13 93.82 41.32 95.69 40.02C100.59 36.71 104.95 32.92 108.84 28.5L98.81 28.64C97.37 28.64 95.02 28.54 95.02 24.85C95.02 22.55 96.32 21.35 98.62 21.3L112.59 21.06L112.49 14.77C112.49 13.38 112.68 11.07 116.38 11.07C118.73 11.07 120.08 12.22 120.13 14.67L120.23 20.91L128.44 20.77C129.64 20.77 132.23 20.96 132.23 24.51C132.23 26.81 130.93 28.06 128.63 28.11L120.33 28.25L120.57 43.76C120.57 45.2 120.52 47.84 119.32 49.52C118.26 50.96 116.01 51.54 113.51 51.54C110.44 51.54 107.89 51.2 107.89 47.46C107.89 45.78 108.85 44.1 110.72 44.1C111.01 44.1 111.44 44.2 111.68 44.2H111.92C112.78 44.2 112.93 43.96 112.93 42.71L112.83 34.84C109.76 38.44 106.4 41.75 102.65 44.63Z" fill="#006CB6"/>
<path d="M178.529 23.4099C178.529 24.5099 178.049 25.4299 177.469 26.2899C174.059 31.1899 169.839 35.5999 165.279 39.3899C160.529 43.3699 155.199 46.9299 149.489 49.3299C147.379 50.1899 146.749 50.3399 145.989 50.3399C143.589 50.3399 141.809 47.9399 141.809 45.6799C141.809 43.4199 143.199 42.9899 145.509 42.0799C155.299 38.2399 164.329 30.7999 170.469 22.3499C171.619 20.7699 172.679 19.4199 174.359 19.4199C176.519 19.4199 178.539 21.1999 178.539 23.3999L178.529 23.4099ZM152.559 18.7999C154.049 19.8099 155.779 21.0599 155.779 23.0699C155.779 25.0799 154.049 27.5299 151.799 27.5299C150.839 27.5299 150.069 26.9999 148.579 25.9499C147.379 25.1299 146.179 24.3199 144.879 23.4999C142.909 22.2999 141.949 21.6799 141.949 19.9999C141.949 17.6999 143.869 15.6799 146.129 15.6799C147.809 15.6799 150.159 17.1199 152.559 18.7999Z" fill="#006CB6"/>
<path d="M191.628 30.85C189.328 30.85 188.078 29.46 188.078 27.2C188.078 24.94 189.418 23.65 191.628 23.65H216.158C219.618 23.65 221.778 25.81 221.778 29.27C221.778 35.18 216.018 41.99 211.698 45.64C209.158 47.75 202.908 52.17 199.598 52.17C197.388 52.17 195.708 50.25 195.708 48.09C195.708 46.22 197.248 45.5 198.728 44.87C203.388 42.85 207.658 39.97 210.828 35.99C211.598 35.03 213.518 32.34 213.518 31.38C213.518 30.85 212.988 30.85 212.558 30.85H191.628ZM213.368 13.42C215.668 13.42 216.918 14.76 216.918 17.07C216.918 19.38 215.618 20.62 213.368 20.62H196.808C194.548 20.62 193.208 19.28 193.208 17.02C193.208 14.76 194.458 13.52 196.808 13.42H213.368Z" fill="#006CB6"/>
<path d="M255.929 49.2801C255.929 51.8201 254.389 52.9801 251.989 52.9801C249.589 52.9801 248.049 51.8301 248.049 49.2801V32.1401C245.599 33.8701 239.019 38.4301 236.239 38.4301C233.939 38.4301 232.109 36.3701 232.109 34.1101C232.109 31.6601 234.699 30.8001 236.529 29.8901C244.689 25.8101 251.699 19.6701 257.169 12.4701C257.989 11.4101 258.989 10.6001 260.389 10.6001C262.499 10.6001 264.759 12.2801 264.759 14.5401C264.759 15.7401 264.039 16.8001 263.269 17.7601C261.009 20.5901 258.519 23.2301 255.929 25.7301V49.3001V49.2801Z" fill="#006CB6"/>
<path d="M313.24 23.4099C313.24 24.5099 312.76 25.4299 312.18 26.2899C308.77 31.1899 304.55 35.5999 299.99 39.3899C295.24 43.3699 289.91 46.9299 284.2 49.3299C282.09 50.1899 281.46 50.3399 280.7 50.3399C278.3 50.3399 276.52 47.9399 276.52 45.6799C276.52 43.4199 277.91 42.9899 280.22 42.0799C290.01 38.2399 299.04 30.7999 305.18 22.3499C306.33 20.7699 307.39 19.4199 309.07 19.4199C311.23 19.4199 313.25 21.1999 313.25 23.3999L313.24 23.4099ZM287.27 18.7999C288.76 19.8099 290.49 21.0599 290.49 23.0699C290.49 25.0799 288.76 27.5299 286.51 27.5299C285.55 27.5299 284.78 26.9999 283.29 25.9499C282.09 25.1299 280.89 24.3199 279.59 23.4999C277.62 22.2999 276.66 21.6799 276.66 19.9999C276.66 17.6999 278.58 15.6799 280.84 15.6799C282.52 15.6799 284.87 17.1199 287.27 18.7999Z" fill="#006CB6"/>
<path d="M330.4 44.63C328.53 46.07 326.37 47.7 324.73 47.7C322.62 47.7 320.75 45.73 320.75 43.62C320.75 42.13 321.57 41.32 323.44 40.02C328.34 36.71 332.7 32.92 336.59 28.5L326.56 28.64C325.12 28.64 322.77 28.54 322.77 24.85C322.77 22.55 324.07 21.35 326.37 21.3L340.34 21.06L340.24 14.77C340.24 13.38 340.43 11.07 344.13 11.07C346.48 11.07 347.83 12.22 347.87 14.67L347.97 20.91L356.18 20.77C357.38 20.77 359.97 20.96 359.97 24.51C359.97 26.81 358.67 28.06 356.37 28.11L348.07 28.25L348.31 43.76C348.31 45.2 348.26 47.84 347.06 49.52C346 50.96 343.75 51.54 341.25 51.54C338.18 51.54 335.63 51.2 335.63 47.46C335.63 45.78 336.59 44.1 338.46 44.1C338.75 44.1 339.18 44.2 339.42 44.2H339.66C340.52 44.2 340.67 43.96 340.67 42.71L340.57 34.84C337.5 38.44 334.14 41.75 330.39 44.63H330.4Z" fill="#006CB6"/>
<path d="M404.341 27.6799C406.691 27.6799 408.231 29.2599 408.231 31.5699C408.231 33.8799 406.691 35.5099 404.341 35.5099H370.831C368.481 35.5099 366.941 33.9299 366.941 31.5699C366.941 29.2099 368.431 27.6799 370.831 27.6799H404.341Z" fill="#006CB6"/>
<path d="M418.42 24.13C416.12 24.13 414.77 22.64 414.77 20.34C414.77 18.04 416.07 16.55 418.42 16.55H440.69C445.01 16.55 447.56 17.94 447.56 22.69C447.56 25.62 446.6 28.45 445.26 31.14C442.67 36.32 438.97 40.89 434.46 44.53C431.72 46.74 424.43 51.39 420.97 51.39C418.71 51.39 416.99 49.28 416.99 47.12C416.99 44.67 419.34 44.1 421.21 43.33C426.49 41.22 431.24 37.67 434.84 33.25C436.14 31.62 439.35 27.06 439.35 24.99C439.35 24.27 438.87 24.13 438.25 24.13H418.42ZM454.81 13.14C454.81 15.92 452.46 18.23 449.67 18.23C446.88 18.23 444.58 15.93 444.58 13.14C444.58 10.35 446.88 8 449.67 8C452.69 8 454.81 10.35 454.81 13.14ZM447.37 13.14C447.37 14.39 448.43 15.44 449.67 15.44C450.91 15.44 452.02 14.38 452.02 13.14C452.02 11.9 450.96 10.79 449.67 10.79C448.38 10.79 447.37 11.85 447.37 13.14Z" fill="#006CB6"/>
<path d="M498.599 23.41C498.599 24.51 498.119 25.43 497.539 26.29C494.129 31.19 489.909 35.6 485.349 39.39C480.599 43.37 475.269 46.93 469.559 49.33C467.449 50.19 466.819 50.34 466.059 50.34C463.659 50.34 461.879 47.94 461.879 45.68C461.879 43.42 463.269 42.99 465.579 42.08C475.369 38.24 484.399 30.8 490.539 22.35C491.689 20.77 492.749 19.42 494.429 19.42C496.589 19.42 498.609 21.2 498.609 23.4L498.599 23.41ZM472.629 18.8C474.119 19.81 475.849 21.06 475.849 23.07C475.849 25.08 474.119 27.53 471.869 27.53C470.909 27.53 470.139 27 468.649 25.95C467.449 25.13 466.249 24.32 464.949 23.5C462.979 22.3 462.019 21.68 462.019 20C462.019 17.7 463.939 15.68 466.199 15.68C467.879 15.68 470.229 17.12 472.629 18.8Z" fill="#006CB6"/>
<path d="M518.9 14.7699C518.85 14.3899 518.8 13.9999 518.8 13.6699C518.8 11.2199 520.53 10.1699 523.22 10.1699C525.38 10.1699 526.39 11.4199 526.72 13.3899L527.58 18.5699L535.07 17.4199C535.41 17.3699 535.74 17.3199 536.03 17.3199C538.29 17.3699 539.58 18.8099 539.58 21.2599C539.58 23.4199 538.28 24.4799 536.32 24.7599L528.78 25.9099L529.45 29.9399L540.16 28.3599C540.5 28.3099 540.78 28.2599 541.12 28.2599C543.28 28.3099 544.67 29.7499 544.67 32.1999C544.67 34.3599 543.52 35.4199 541.36 35.7499L530.65 37.3299L532.43 48.0299C532.53 48.6099 532.62 49.4199 532.62 49.7599C532.62 52.1599 531.08 53.2599 528.3 53.2599C526 53.2599 525.08 52.1599 524.7 49.9499L522.78 38.4799L510.64 40.2599C510.35 40.3099 510.06 40.3599 509.78 40.3599C507.52 40.3599 506.18 38.8699 506.18 36.3799C506.18 34.2699 507.48 33.1599 509.44 32.8799L521.58 31.0999L520.91 27.0699L512.85 28.2699C512.56 28.3199 512.27 28.3699 511.99 28.3699C509.73 28.3699 508.34 26.9299 508.34 24.4299C508.34 22.3199 509.64 21.2599 511.6 20.9699L519.71 19.7199L518.89 14.7799L518.9 14.7699Z" fill="#006CB6"/>
<path d="M575.651 50.92C575.701 51.21 575.701 51.45 575.701 51.74C575.701 53.76 573.971 54.91 572.101 54.91C570.471 54.91 569.361 54.05 569.031 52.37L565.961 37.01L558.761 38.4C558.521 38.45 558.231 38.45 557.941 38.45C556.021 38.45 554.961 37.01 554.961 35.14C554.961 33.56 555.781 32.4 557.501 32.12L564.701 30.82L563.501 24.53C563.451 24.24 563.401 23.95 563.401 23.67C563.401 21.65 564.981 20.6 567.051 20.6C568.681 20.6 569.791 21.51 570.121 23.1L571.421 29.58L582.701 27.52C583.131 27.42 583.371 27.42 583.711 27.42C585.631 27.42 587.361 28.76 587.361 30.78C587.361 32.65 584.911 36.01 583.421 38.03C582.511 39.28 581.551 40.57 580.441 41.63C579.821 42.25 578.951 42.64 578.281 42.64C576.551 42.64 574.821 41.25 574.821 39.47C574.821 38.41 575.441 37.69 576.451 36.59C577.031 35.97 577.601 35.34 578.131 34.67L572.611 35.73L575.631 50.95L575.651 50.92Z" fill="#006CB6"/>
<path d="M632.322 23.4099C632.322 24.5099 631.842 25.4299 631.262 26.2899C627.852 31.1899 623.632 35.5999 619.072 39.3899C614.322 43.3699 608.992 46.9299 603.282 49.3299C601.172 50.1899 600.542 50.3399 599.782 50.3399C597.382 50.3399 595.602 47.9399 595.602 45.6799C595.602 43.4199 596.992 42.9899 599.302 42.0799C609.092 38.2399 618.122 30.7999 624.262 22.3499C625.412 20.7699 626.472 19.4199 628.152 19.4199C630.312 19.4199 632.332 21.1999 632.332 23.3999L632.322 23.4099ZM606.352 18.7999C607.842 19.8099 609.572 21.0599 609.572 23.0699C609.572 25.0799 607.842 27.5299 605.592 27.5299C604.632 27.5299 603.862 26.9999 602.372 25.9499C601.172 25.1299 599.972 24.3199 598.672 23.4999C596.702 22.2999 595.742 21.6799 595.742 19.9999C595.742 17.6999 597.662 15.6799 599.922 15.6799C601.602 15.6799 603.952 17.1199 606.352 18.7999Z" fill="#006CB6"/>
<path d="M654.12 23.22C654.12 24.52 653.45 26.29 652.49 28.5C650.86 32.29 648.65 35.99 646.11 39.3C644.33 41.65 641.791 44.82 639.341 44.82C637.081 44.82 634.73 43.04 634.73 40.69C634.73 39.35 635.5 38.58 636.94 37.09C641.45 32.53 643.85 28.11 646.01 21.97C646.63 20.19 647.83 19.57 649.47 19.57C651.63 19.57 654.13 20.77 654.13 23.22H654.12ZM668.711 22.74C669.811 24.13 670.87 25.57 671.88 27.01C673.61 29.55 678.6 37.14 678.6 39.92C678.6 42.32 676.2 44.1 673.94 44.1C671.49 44.1 670.771 42.32 669.961 40.35C667.901 35.5 665.06 31.13 661.75 27.01C661.08 26.19 660.5 25.33 660.5 24.23C660.5 22.02 662.66 20.44 664.72 20.44C666.59 20.44 667.601 21.4 668.701 22.74H668.711ZM678.98 16.4C678.98 19.28 676.53 21.73 673.6 21.73C670.67 21.73 668.22 19.28 668.22 16.4C668.22 13.52 670.67 11.02 673.6 11.02C676.53 11.02 678.98 13.47 678.98 16.4ZM671.16 16.4C671.16 17.7 672.26 18.85 673.61 18.85C674.96 18.85 676.06 17.7 676.06 16.4C676.06 15.1 674.96 13.9 673.61 13.9C672.26 13.9 671.16 15.05 671.16 16.4Z" fill="#006CB6"/>
<path d="M719.969 38.67C721.889 40.64 723.189 42.03 723.189 43.76C723.189 46.02 721.169 48.08 718.919 48.08C717.379 48.08 716.419 47.12 715.219 45.63C712.819 42.7 710.279 40.01 707.349 37.66C704.089 40.68 700.489 43.37 696.599 45.53C694.869 46.49 691.799 48.22 690.069 48.22C687.809 48.22 686.039 46.2 686.039 44C686.039 41.94 687.529 41.22 689.209 40.5C697.369 36.95 704.239 31.14 709.079 23.65H695.009C692.559 23.65 691.169 22.45 691.169 19.95C691.169 17.45 692.559 16.25 695.009 16.25H713.779C716.519 16.25 718.919 17.26 718.919 20.38C718.919 23.5 714.459 29.5 712.579 31.95C715.219 34.01 717.669 36.27 719.969 38.67Z" fill="#006CB6"/>
<path d="M739.552 47.46C733.602 47.46 731.922 41.22 731.922 36.42C731.922 23.8 742.152 14.19 754.632 14.19C764.952 14.19 772.632 20.86 772.632 31.42C772.632 38.96 768.842 45.01 762.262 48.61C760.632 49.47 758.422 50.53 756.502 50.53C754.242 50.53 752.662 48.42 752.662 46.31C752.662 44.39 753.522 43.77 756.122 42.95C761.592 41.22 764.912 37.09 764.912 31.43C764.912 26.2 761.692 22.07 756.462 21.16C755.022 28.89 749.362 47.47 739.562 47.47L739.552 47.46ZM742.522 26.77C740.222 29.6 738.872 33.25 738.872 36.9C738.872 37.57 738.872 39.59 739.882 39.59C740.412 39.59 741.462 38.49 742.332 37.24C743.102 36.09 743.772 34.84 744.062 34.31C746.172 30.47 747.612 26.29 748.722 22.02C746.222 23.17 744.262 24.61 742.532 26.77H742.522Z" fill="#006CB6"/>
<path d="M790.92 37.71C790.92 38.81 789.67 43.04 787.42 49.09C786.08 52.74 785.16 53.99 783.29 53.99C781.42 53.99 779.5 52.65 779.5 50.68C779.5 50.06 779.74 49.38 781.08 46.55C781.51 45.59 782.95 41.94 783.72 39.49C784.87 35.79 785.45 34.78 787.37 34.78C789.1 34.78 790.92 35.79 790.92 37.71ZM784.63 30.18C783.62 29.46 782.61 28.69 781.65 27.97C779.97 26.72 779.59 26.19 779.59 25.09C779.59 23.46 781.13 21.44 783.19 21.44C784.05 21.44 785.3 21.87 788.37 24.18C790.29 25.62 790.91 26.58 790.91 27.68C790.91 29.55 789.47 31.52 787.41 31.52C786.64 31.52 786.11 31.28 784.63 30.18ZM817.95 20C819.05 21.01 820.54 22.64 821.5 23.84C823.8 26.72 824.33 27.49 824.33 28.78C824.33 30.7 822.46 32.09 820.63 32.09C819.38 32.09 818.95 31.75 816.93 28.83C811.51 29.55 798.83 30.56 795.95 30.56C793.55 30.56 792.3 29.5 792.3 27.01C792.3 23.94 794.27 23.75 796.48 23.75H797.49C798.35 21.97 798.88 20.73 799.41 18.81H795.19C793.51 18.81 792.21 18.38 791.78 16.6C791.3 17.99 790.2 19.14 788.61 19.14C787.84 19.14 787.41 19 785.97 17.94C785.11 17.32 784 16.5 782.75 15.59C780.97 14.29 780.64 13.72 780.64 12.66C780.64 11.08 782.18 9.05999 784.29 9.05999C785.25 9.05999 786.4 9.48999 789.57 11.94C791.01 13.04 791.63 13.62 791.83 14.29C792.31 12.66 793.65 12.23 795.19 12.23H804.5V11.37C804.5 9.15999 806.47 8.67999 808.29 8.67999C810.02 8.67999 811.75 9.34999 811.75 11.37V12.23H821.01C823.46 12.23 824.51 13.24 824.51 15.69C824.51 17.99 823.12 18.81 821.01 18.81H815.83C816.45 18.91 817.22 19.39 817.94 20.01L817.95 20ZM801.29 34.5C801.29 39.88 800.67 45.49 798.03 50.1C796.25 53.22 794.96 54.32 793.23 54.32C791.36 54.32 789.44 52.98 789.44 50.96C789.44 50.24 789.63 49.57 790.54 48.46C794.28 43.9 794.62 40.06 794.96 34.39C795.1 32.18 795.87 31.27 798.13 31.27C800.39 31.27 801.3 32.28 801.3 34.49L801.29 34.5ZM809.26 50.72C809.26 52.98 808.25 53.7 806.04 53.7C804.02 53.7 803.21 52.64 803.21 50.72V34.26C803.21 32 804.22 31.28 806.38 31.28C808.54 31.28 809.26 32.29 809.26 34.26V50.72ZM806.86 18.8C806.24 20.43 805.56 22.06 804.75 23.65C807.97 23.55 808.97 23.51 812.57 23.31C812.14 22.78 811.85 22.25 811.85 21.58C811.85 20.14 813.1 19.08 814.39 18.8H806.85H806.86ZM817.8 46.55C817.8 47.37 818.04 47.46 818.76 47.46C819.91 47.46 819.91 47.36 819.96 44C820.01 41.7 820.34 40.93 822.22 40.93C824.48 40.93 824.57 42.56 824.57 43.76C824.57 53.74 823.61 54.22 818.71 54.22H817.03C814.34 54.22 813.09 53.79 812.33 52.88C811.75 52.21 811.42 50.77 811.42 49.04V33.87C811.42 31.66 812.48 30.8 814.64 30.8C816.8 30.8 817.81 31.66 817.81 33.87V46.54L817.8 46.55Z" fill="#006CB6"/>
<path d="M859.83 17.22C864.25 17.22 866.36 20.39 866.36 24.52C866.36 26.73 865.78 30.62 865.3 33.59C865.01 35.51 864.44 38.39 864.44 40.31C864.44 40.74 864.58 41.22 865.11 41.22C865.59 41.22 866.12 40.93 867.03 40.31C867.94 39.69 868.85 39.06 870.01 39.06C871.98 39.06 873.37 41.03 873.37 42.9C873.37 44.77 871.83 45.78 870.49 46.74C868.47 48.13 866.07 49 863.67 49C858.77 49 856.9 45.74 856.9 41.27C856.9 37.53 857.86 32.58 858.48 28.89C858.67 27.79 858.86 26.68 858.86 25.96C858.86 25.34 858.76 24.62 858 24.62C855.74 24.62 848.93 31.39 847.29 33.21C847.24 35.03 847.24 36.81 847.24 38.59C847.24 41.76 847.29 44.97 847.29 48.14C847.29 50.83 846.62 52.56 843.59 52.56C840.56 52.56 839.8 51.07 839.8 48.1C839.8 46.76 839.85 45.46 839.85 44.12C838.89 45.8 838.07 47.86 835.82 47.86C833.71 47.86 831.84 46.23 831.84 44.07C831.84 42.77 832.46 41.86 833.57 40.32C836.11 36.67 838.32 32.74 840.29 28.7V28.08C838.66 28.61 836.79 29.33 835.06 29.33C832.85 29.33 831.84 27.36 831.84 25.39C831.84 22.41 833.57 22.03 836.35 21.65C837.79 21.46 839.18 21.12 840.57 20.74C840.67 18.48 840.71 16.37 840.91 13.92C840.96 13.3 841.1 12.58 841.49 12.05C842.16 11.09 843.41 10.85 844.56 10.85C846.58 10.85 848.21 11.86 848.21 14.07C848.21 15.85 847.97 17.62 847.87 19.4C848.73 19.93 849.26 20.89 849.26 21.9C849.26 22.19 849.21 22.43 849.16 22.67C852.04 20.08 855.69 17.25 859.82 17.25L859.83 17.22Z" fill="#006CB6"/>
</g>
<defs>
<linearGradient id="paint0_linear_294_5646" x1="964.102" y1="1.8978" x2="904.898" y2="61.1043" gradientUnits="userSpaceOnUse">
<stop stop-color="#FFE066"/>
<stop offset="1" stop-color="#FF99C3"/>
</linearGradient>
<linearGradient id="paint1_linear_294_5646" x1="1.89779" y1="61.1022" x2="61.1022" y2="1.89568" gradientUnits="userSpaceOnUse">
<stop stop-color="#FFE066"/>
<stop offset="1" stop-color="#FF99C3"/>
</linearGradient>
<clipPath id="clip0_294_5646">
<rect width="780.37" height="46.9" fill="white" transform="translate(93 8)"/>
</clipPath>
</defs>
</svg>
