<svg width="324" height="56" viewBox="0 0 324 56" fill="none" xmlns="http://www.w3.org/2000/svg">
<g clip-path="url(#clip0_294_8534)">
<path d="M53.5218 20.9408C52.4504 21.7644 51.2142 22.6979 50.2801 22.6979C49.0714 22.6979 48 21.5723 48 20.3643C48 19.5132 48.467 19.0465 49.5384 18.3052C52.3405 16.4108 54.8404 14.2419 57.0656 11.7161L51.3241 11.7985C50.4999 11.7985 49.1538 11.7436 49.1538 9.62961C49.1538 8.3118 49.8955 7.62544 51.2142 7.59799L59.2084 7.46072L59.1535 3.8642C59.1535 3.06802 59.2633 1.75021 61.3786 1.75021C62.7248 1.75021 63.494 2.40912 63.5214 3.80929L63.5764 7.37835L68.274 7.29599C68.9608 7.29599 70.4443 7.40581 70.4443 9.43743C70.4443 10.7552 69.7025 11.4691 68.3839 11.4965L63.6313 11.5789L63.7687 20.4466C63.7687 21.2703 63.7412 22.7802 63.0544 23.7411C62.45 24.5648 61.1589 24.8942 59.7304 24.8942C57.9722 24.8942 56.5162 24.702 56.5162 22.5606C56.5162 21.5997 57.0656 20.6388 58.137 20.6388C58.3018 20.6388 58.5491 20.6937 58.6864 20.6937H58.8238C59.3183 20.6937 59.4007 20.5564 59.4007 19.8426L59.3458 15.3401C57.5876 17.3992 55.6646 19.2935 53.5218 20.9408Z" fill="#006CB6"/>
<path d="M97.0509 8.81285C97.0509 9.4443 96.7762 9.96593 96.4465 10.4601C94.496 13.2605 92.0785 15.7863 89.4687 17.9551C86.7491 20.2339 83.6997 22.2655 80.4306 23.6382C79.2219 24.1324 78.8647 24.2147 78.4252 24.2147C77.0516 24.2147 76.0352 22.842 76.0352 21.5517C76.0352 20.2613 76.8318 20.0142 78.1505 19.4926C83.7547 17.2962 88.9193 13.0408 92.4357 8.20885C93.095 7.30286 93.6994 6.53414 94.6609 6.53414C95.8971 6.53414 97.0509 7.54995 97.0509 8.81285ZM82.1957 6.17723C83.0473 6.75377 84.0362 7.46759 84.0362 8.62067C84.0362 9.77375 83.0473 11.1739 81.7561 11.1739C81.2067 11.1739 80.7671 10.8719 79.9155 10.2679C79.2287 9.80121 78.5419 9.33448 77.8002 8.86776C76.6739 8.1814 76.1244 7.82449 76.1244 6.86359C76.1244 5.54578 77.2233 4.3927 78.5145 4.3927C79.476 4.3927 80.8221 5.21633 82.1957 6.17723Z" fill="#006CB6"/>
<path d="M104.66 13.0683C103.341 13.0683 102.627 12.2721 102.627 10.9818C102.627 9.6914 103.396 8.95013 104.66 8.95013H118.698C120.676 8.95013 121.912 10.1856 121.912 12.1623C121.912 15.5392 118.615 19.4377 116.143 21.5242C114.687 22.7322 111.116 25.258 109.22 25.258C107.956 25.258 106.995 24.1598 106.995 22.9244C106.995 21.8537 107.874 21.4419 108.726 21.085C111.39 19.9319 113.835 18.2846 115.648 16.0059C116.088 15.4568 117.187 13.9194 117.187 13.3703C117.187 13.0683 116.885 13.0683 116.637 13.0683H104.66ZM117.098 3.10236C118.416 3.10236 119.13 3.87108 119.13 5.18889C119.13 6.5067 118.389 7.22051 117.098 7.22051H107.62C106.329 7.22051 105.56 6.45179 105.56 5.16143C105.56 3.87108 106.274 3.15726 107.62 3.10236H117.098Z" fill="#006CB6"/>
<path d="M141.567 23.6039C141.567 25.059 140.688 25.7179 139.315 25.7179C137.941 25.7179 137.062 25.059 137.062 23.6039V13.8027C135.661 14.791 131.897 17.3992 130.304 17.3992C128.985 17.3992 127.941 16.2187 127.941 14.9283C127.941 13.5281 129.425 13.034 130.469 12.5123C135.139 10.1787 139.15 6.66455 142.282 2.5464C142.749 1.9424 143.325 1.47568 144.122 1.47568C145.331 1.47568 146.622 2.43658 146.622 3.72693C146.622 4.41329 146.21 5.01729 145.77 5.56637C144.479 7.18618 143.051 8.69617 141.567 10.1238V23.6039Z" fill="#006CB6"/>
<path d="M174.5 8.81285C174.5 9.4443 174.225 9.96593 173.896 10.4601C171.945 13.2605 169.528 15.7863 166.918 17.9551C164.198 20.2339 161.149 22.2655 157.88 23.6382C156.671 24.1324 156.314 24.2147 155.874 24.2147C154.501 24.2147 153.484 22.842 153.484 21.5517C153.484 20.2613 154.281 20.0142 155.6 19.4926C161.204 17.2962 166.369 13.0408 169.885 8.20885C170.544 7.30286 171.149 6.53414 172.11 6.53414C173.346 6.53414 174.5 7.54995 174.5 8.81285ZM159.638 6.17723C160.49 6.75377 161.479 7.46759 161.479 8.62067C161.479 9.77375 160.49 11.1739 159.198 11.1739C158.649 11.1739 158.209 10.8719 157.358 10.2679C156.671 9.80121 155.984 9.33448 155.243 8.86776C154.116 8.1814 153.567 7.82449 153.567 6.86359C153.567 5.54578 154.666 4.3927 155.957 4.3927C156.918 4.3927 158.264 5.21633 159.638 6.17723Z" fill="#006CB6"/>
<path d="M184.424 20.9408C183.353 21.7644 182.117 22.6979 181.182 22.6979C179.974 22.6979 178.902 21.5723 178.902 20.3643C178.902 19.5132 179.369 19.0465 180.441 18.3052C183.243 16.4108 185.743 14.2419 187.968 11.7161L182.226 11.7985C181.402 11.7985 180.056 11.7436 180.056 9.62961C180.056 8.3118 180.798 7.62544 182.117 7.59799L190.111 7.46072L190.056 3.8642C190.056 3.06802 190.166 1.75021 192.281 1.75021C193.627 1.75021 194.396 2.40912 194.424 3.80929L194.479 7.37835L199.176 7.29599C199.863 7.29599 201.347 7.40581 201.347 9.43743C201.347 10.7552 200.605 11.4691 199.286 11.4965L194.534 11.5789L194.671 20.4466C194.671 21.2703 194.644 22.7802 193.957 23.7411C193.352 24.5648 192.061 24.8942 190.633 24.8942C188.875 24.8942 187.419 24.702 187.419 22.5606C187.419 21.5997 187.968 20.6388 189.039 20.6388C189.204 20.6388 189.451 20.6937 189.589 20.6937H189.726C190.221 20.6937 190.303 20.5564 190.303 19.8426L190.248 15.3401C188.49 17.3992 186.567 19.2935 184.424 20.9408Z" fill="#006CB6"/>
<path d="M226.834 11.2563C228.18 11.2563 229.059 12.1623 229.059 13.4801C229.059 14.7979 228.18 15.7313 226.834 15.7313H207.659C206.313 15.7313 205.434 14.8254 205.434 13.4801C205.434 12.1348 206.285 11.2563 207.659 11.2563H226.834Z" fill="#006CB6"/>
<path d="M235.019 9.22466C233.701 9.22466 232.932 8.37358 232.932 7.05577C232.932 5.73796 233.673 4.88687 235.019 4.88687H247.766C250.239 4.88687 251.695 5.68305 251.695 8.40103C251.695 10.0757 251.145 11.6956 250.376 13.233C248.893 16.1981 246.777 18.8062 244.195 20.8928C242.629 22.1557 238.453 24.8187 236.475 24.8187C235.184 24.8187 234.195 23.6107 234.195 22.3753C234.195 20.9751 235.541 20.6457 236.613 20.2064C239.635 18.9984 242.354 16.9668 244.415 14.441C245.156 13.5075 246.997 10.8994 246.997 9.71884C246.997 9.30702 246.722 9.22466 246.365 9.22466H235.019ZM255.836 2.93762C255.836 4.52997 254.49 5.84778 252.897 5.84778C251.303 5.84778 249.985 4.52997 249.985 2.93762C249.985 1.34526 251.303 0 252.897 0C254.627 0 255.836 1.34526 255.836 2.93762ZM251.578 2.93762C251.578 3.65143 252.182 4.25542 252.897 4.25542C253.611 4.25542 254.243 3.65143 254.243 2.93762C254.243 2.2238 253.638 1.59235 252.897 1.59235C252.155 1.59235 251.578 2.19635 251.578 2.93762Z" fill="#006CB6"/>
<path d="M281 8.81285C281 9.4443 280.725 9.96593 280.396 10.4601C278.445 13.2605 276.028 15.7863 273.418 17.9551C270.698 20.2339 267.649 22.2655 264.38 23.6382C263.171 24.1324 262.814 24.2147 262.374 24.2147C261.001 24.2147 259.984 22.842 259.984 21.5517C259.984 20.2613 260.781 20.0142 262.1 19.4926C267.704 17.2962 272.869 13.0408 276.385 8.20885C277.044 7.30286 277.649 6.53414 278.61 6.53414C279.846 6.53414 281 7.54995 281 8.81285ZM266.138 6.17723C266.99 6.75377 267.979 7.46759 267.979 8.62067C267.979 9.77375 266.99 11.1739 265.698 11.1739C265.149 11.1739 264.709 10.8719 263.858 10.2679C263.171 9.80121 262.484 9.33448 261.743 8.86776C260.616 8.1814 260.067 7.82449 260.067 6.86359C260.067 5.54578 261.166 4.3927 262.457 4.3927C263.418 4.3927 264.764 5.21633 266.138 6.17723Z" fill="#006CB6"/>
<path d="M67.0163 33.055C66.9888 32.8354 66.9613 32.6158 66.9613 32.4236C66.9613 31.0234 67.9503 30.4194 69.4887 30.4194C70.725 30.4194 71.3019 31.1332 71.4942 32.2588L71.9886 35.2239L76.2742 34.565C76.4665 34.5376 76.6588 34.5101 76.8236 34.5101C78.1148 34.5376 78.8565 35.3612 78.8565 36.7614C78.8565 37.9968 78.1148 38.6008 76.9885 38.7655L72.6754 39.4244L73.06 41.7306L79.1862 40.8246C79.3785 40.7971 79.5433 40.7697 79.7356 40.7697C80.9718 40.7971 81.7685 41.6208 81.7685 43.0209C81.7685 44.2564 81.1092 44.8604 79.873 45.0526L73.7468 45.9586L74.7633 52.0809C74.8182 52.4103 74.8732 52.8771 74.8732 53.0692C74.8732 54.442 73.9941 55.0734 72.4007 55.0734C71.0821 55.0734 70.5601 54.442 70.3403 53.1791L69.2415 46.6175L62.2912 47.6333C62.1264 47.6607 61.9615 47.6882 61.7967 47.6882C60.5055 47.6882 59.7363 46.8371 59.7363 45.4095C59.7363 44.2015 60.4781 43.57 61.6044 43.4053L68.5547 42.3895L68.1701 40.0833L63.5549 40.7697C63.39 40.7971 63.2252 40.8246 63.0604 40.8246C61.7692 40.8246 60.9725 40.001 60.9725 38.5733C60.9725 37.3654 61.7143 36.7614 62.8406 36.5966L67.4833 35.8828L67.0163 33.055Z" fill="#006CB6"/>
<path d="M99.6059 53.7213C99.6333 53.886 99.6333 54.0233 99.6333 54.188C99.6333 55.3411 98.6444 56 97.573 56C96.6389 56 96.0071 55.5058 95.8148 54.5449L94.0566 45.7595L89.9359 46.5557C89.7985 46.5832 89.6337 46.5832 89.4689 46.5832C88.37 46.5832 87.7656 45.7595 87.7656 44.6888C87.7656 43.7828 88.2326 43.1239 89.2216 42.9592L93.3423 42.2179L92.6556 38.6214C92.6281 38.4567 92.6006 38.292 92.6006 38.1272C92.6006 36.9741 93.5072 36.3701 94.6885 36.3701C95.6225 36.3701 96.2543 36.8918 96.4466 37.7978L97.1884 41.5041L103.644 40.3236C103.891 40.2687 104.029 40.2687 104.221 40.2687C105.32 40.2687 106.309 41.0374 106.309 42.1905C106.309 43.2612 104.908 45.183 104.056 46.3361C103.534 47.0499 102.985 47.7912 102.353 48.3952C101.996 48.7521 101.501 48.9717 101.117 48.9717C100.128 48.9717 99.1388 48.1755 99.1388 47.1597C99.1388 46.5557 99.496 46.1439 100.073 45.5124C100.403 45.1555 100.732 44.7986 101.034 44.4143L97.8752 45.0183L99.6059 53.7213Z" fill="#006CB6"/>
<path d="M132.18 37.9968C132.18 38.6283 131.905 39.1499 131.575 39.6441C129.625 42.4444 127.207 44.9702 124.598 47.1391C121.878 49.4178 118.829 51.4494 115.56 52.8222C114.351 53.3163 113.994 53.3987 113.554 53.3987C112.181 53.3987 111.164 52.026 111.164 50.7356C111.164 49.4453 111.961 49.1982 113.279 48.6766C118.884 46.4802 124.048 42.2248 127.565 37.3928C128.224 36.4868 128.828 35.7181 129.79 35.7181C131.026 35.7181 132.18 36.7339 132.18 37.9968ZM117.325 35.3612C118.176 35.9377 119.165 36.6515 119.165 37.8046C119.165 38.9577 118.176 40.3579 116.885 40.3579C116.336 40.3579 115.896 40.0559 115.044 39.4519C114.358 38.9852 113.671 38.5184 112.929 38.0517C111.803 37.3654 111.253 37.0085 111.253 36.0476C111.253 34.7297 112.352 33.5767 113.643 33.5767C114.605 33.5767 115.951 34.4003 117.325 35.3612Z" fill="#006CB6"/>
<path d="M144.776 37.887C144.776 38.6283 144.392 39.6441 143.842 40.907C142.908 43.0759 141.644 45.1899 140.188 47.0842C139.172 48.4295 137.716 50.2415 136.315 50.2415C135.024 50.2415 133.678 49.2257 133.678 47.8804C133.678 47.1117 134.117 46.6724 134.941 45.8213C137.524 43.2132 138.897 40.6874 140.134 37.1732C140.491 36.1574 141.177 35.8005 142.112 35.8005C143.348 35.8005 144.776 36.4868 144.776 37.887ZM153.128 37.6125C153.759 38.4086 154.364 39.2323 154.941 40.0559C155.93 41.511 158.787 45.8488 158.787 47.4411C158.787 48.8138 157.413 49.8296 156.122 49.8296C154.721 49.8296 154.309 48.8138 153.842 47.6882C152.661 44.9153 151.04 42.417 149.144 40.0559C148.76 39.5892 148.43 39.095 148.43 38.4635C148.43 37.2006 149.666 36.2947 150.847 36.2947C151.919 36.2947 152.496 36.8437 153.128 37.6125ZM159.007 33.9885C159.007 35.6358 157.605 37.0359 155.93 37.0359C154.254 37.0359 152.853 35.6358 152.853 33.9885C152.853 32.3412 154.254 30.9136 155.93 30.9136C157.605 30.9136 159.007 32.3138 159.007 33.9885ZM154.529 33.9885C154.529 34.7298 155.16 35.3887 155.93 35.3887C156.699 35.3887 157.331 34.7298 157.331 33.9885C157.331 33.2472 156.699 32.5609 155.93 32.5609C155.16 32.5609 154.529 33.2198 154.529 33.9885Z" fill="#006CB6"/>
<path d="M182.549 46.7273C183.648 47.8529 184.39 48.6491 184.39 49.6375C184.39 50.9278 183.236 52.1084 181.945 52.1084C181.066 52.1084 180.516 51.5593 179.83 50.7082C178.456 49.0335 177 47.496 175.324 46.1508C173.456 47.8804 171.396 49.4178 169.171 50.6533C168.182 51.2024 166.424 52.1907 165.435 52.1907C164.143 52.1907 163.127 51.0376 163.127 49.7747C163.127 48.5942 163.979 48.1824 164.94 47.7706C169.61 45.7389 173.539 42.417 176.313 38.1341H168.264C166.863 38.1341 166.066 37.4477 166.066 36.0201C166.066 34.5925 166.863 33.9061 168.264 33.9061H179.006C180.571 33.9061 181.945 34.4827 181.945 36.2672C181.945 38.0517 179.39 41.4835 178.319 42.8837C179.83 44.0642 181.231 45.3546 182.549 46.7273Z" fill="#006CB6"/>
<path d="M193.86 51.7446C190.454 51.7446 189.492 48.1755 189.492 45.4301C189.492 38.2096 195.344 32.7187 202.486 32.7187C208.393 32.7187 212.788 36.5349 212.788 42.5748C212.788 46.8852 210.618 50.3444 206.854 52.4035C205.92 52.8977 204.656 53.5017 203.558 53.5017C202.266 53.5017 201.36 52.2937 201.36 51.0857C201.36 49.9875 201.854 49.6306 203.338 49.1639C206.47 48.1755 208.365 45.8144 208.365 42.5748C208.365 39.5823 206.525 37.2212 203.53 36.6996C202.706 41.1198 199.464 51.7446 193.86 51.7446ZM195.563 39.9186C194.245 41.5384 193.476 43.625 193.476 45.7115C193.476 46.0959 193.476 47.2489 194.052 47.2489C194.355 47.2489 194.959 46.6175 195.454 45.9037C195.893 45.2448 196.278 44.531 196.442 44.229C197.651 42.0326 198.475 39.6441 199.107 37.2006C197.679 37.8595 196.552 38.6832 195.563 39.9186Z" fill="#006CB6"/>
<path d="M223.345 46.1782C223.345 46.8097 222.631 49.2256 221.339 52.6849C220.57 54.7714 220.048 55.4852 218.977 55.4852C217.906 55.4852 216.807 54.7165 216.807 53.5909C216.807 53.234 216.944 52.8496 217.713 51.2298C217.96 50.6807 218.785 48.5942 219.224 47.194C219.883 45.08 220.213 44.5035 221.312 44.5035C222.301 44.5035 223.345 45.08 223.345 46.1782ZM219.746 41.8679C219.169 41.4561 218.592 41.0168 218.043 40.605C217.081 39.8912 216.862 39.5892 216.862 38.9577C216.862 38.0243 217.741 36.8712 218.922 36.8712C219.416 36.8712 220.131 37.1183 221.889 38.4361C222.988 39.2597 223.345 39.8088 223.345 40.4402C223.345 41.511 222.521 42.6366 221.339 42.6366C220.9 42.6366 220.598 42.4993 219.746 41.8679ZM238.811 36.0476C239.443 36.6241 240.295 37.5575 240.844 38.2439C242.163 39.8912 242.465 40.3304 242.465 41.0717C242.465 42.1699 241.394 42.966 240.35 42.966C239.636 42.966 239.388 42.7739 238.234 41.0992C235.13 41.511 227.878 42.0875 226.229 42.0875C224.856 42.0875 224.142 41.4835 224.142 40.0559C224.142 38.2988 225.268 38.189 226.532 38.189H227.108C227.603 37.1732 227.905 36.4594 228.207 35.3612H225.79C224.828 35.3612 224.087 35.1141 223.839 34.0983C223.565 34.8945 222.933 35.5534 222.026 35.5534C221.587 35.5534 221.339 35.471 220.515 34.867C220.021 34.5101 219.389 34.0434 218.675 33.5218C217.658 32.7805 217.466 32.451 217.466 31.847C217.466 30.941 218.345 29.788 219.554 29.788C220.103 29.788 220.763 30.0351 222.576 31.4352C223.4 32.0667 223.757 32.3961 223.867 32.7805C224.142 31.847 224.911 31.5999 225.79 31.5999H231.119V31.1058C231.119 29.8429 232.246 29.5683 233.29 29.5683C234.279 29.5683 235.268 29.9527 235.268 31.1058V31.5999H240.57C241.971 31.5999 242.575 32.1765 242.575 33.5767C242.575 34.8945 241.778 35.3612 240.57 35.3612H237.603C237.96 35.4161 238.399 35.6906 238.811 36.0476ZM229.279 44.3388C229.279 47.4137 228.922 50.6258 227.411 53.2614C226.394 55.046 225.652 55.6774 224.664 55.6774C223.592 55.6774 222.493 54.9087 222.493 53.7556C222.493 53.3438 222.603 52.9594 223.125 52.328C225.268 49.7198 225.46 47.5235 225.652 44.2839C225.735 43.021 226.174 42.4993 227.466 42.4993C228.757 42.4993 229.279 43.0759 229.279 44.3388ZM233.839 53.6115C233.839 54.9018 233.262 55.3136 231.998 55.3136C230.845 55.3136 230.378 54.7096 230.378 53.6115V44.1946C230.378 42.9043 230.954 42.4925 232.191 42.4925C233.427 42.4925 233.839 43.069 233.839 44.1946V53.6115ZM232.465 35.3612C232.108 36.2946 231.724 37.2281 231.257 38.1341C233.097 38.0792 233.674 38.0517 235.735 37.9419C235.487 37.6399 235.322 37.3379 235.322 36.9535C235.322 36.1299 236.037 35.5259 236.778 35.3612H232.465ZM238.729 51.2229C238.729 51.6897 238.866 51.7446 239.278 51.7446C239.938 51.7446 239.938 51.6897 239.965 49.7679C239.993 48.4501 240.185 48.0108 241.256 48.0108C242.548 48.0108 242.602 48.9442 242.602 49.6306C242.602 55.3411 242.053 55.6156 239.251 55.6156H238.289C236.751 55.6156 236.037 55.3686 235.597 54.8469C235.268 54.4626 235.075 53.6389 235.075 52.6506V43.975C235.075 42.7121 235.68 42.2179 236.916 42.2179C238.152 42.2179 238.729 42.7121 238.729 43.975V51.2229Z" fill="#006CB6"/>
<path d="M262.862 34.4552C265.389 34.4552 266.598 36.2672 266.598 38.6283C266.598 39.8912 266.268 42.115 265.993 43.8171C265.829 44.9153 265.499 46.5626 265.499 47.6607C265.499 47.9078 265.581 48.1824 265.883 48.1824C266.158 48.1824 266.46 48.0176 266.982 47.6607C267.504 47.3038 268.026 46.9469 268.686 46.9469C269.812 46.9469 270.609 48.0726 270.609 49.1433C270.609 50.214 269.73 50.7905 268.96 51.3396C267.807 52.1358 266.433 52.63 265.059 52.63C262.257 52.63 261.186 50.7631 261.186 48.2098C261.186 46.0684 261.735 43.2406 262.092 41.1266C262.202 40.4952 262.312 39.8637 262.312 39.4519C262.312 39.095 262.257 38.6832 261.818 38.6832C260.527 38.6832 256.626 42.5542 255.692 43.5975C255.664 44.6408 255.664 45.6566 255.664 46.6724C255.664 48.4844 255.692 50.3238 255.692 52.1358C255.692 53.6732 255.307 54.6616 253.576 54.6616C251.846 54.6616 251.406 53.8105 251.406 52.1083C251.406 51.3396 251.433 50.5984 251.433 49.8296C250.884 50.7905 250.417 51.9711 249.126 51.9711C247.917 51.9711 246.846 51.0376 246.846 49.8022C246.846 49.0609 247.203 48.5393 247.835 47.6607C249.291 45.5742 250.554 43.323 251.681 41.0168V40.6599C250.747 40.9619 249.675 41.3737 248.686 41.3737C247.423 41.3737 246.846 40.2481 246.846 39.1224C246.846 37.4203 247.835 37.2006 249.428 36.981C250.252 36.8712 251.049 36.679 251.846 36.4594C251.9 35.169 251.928 33.961 252.038 32.5608C252.065 32.2039 252.148 31.7921 252.367 31.4901C252.752 30.941 253.466 30.8038 254.126 30.8038C255.279 30.8038 256.214 31.3803 256.214 32.6432C256.214 33.659 256.076 34.6748 256.021 35.6906C256.516 35.9926 256.818 36.5417 256.818 37.1183C256.818 37.283 256.79 37.4203 256.763 37.5575C258.411 36.075 260.499 34.4552 262.862 34.4552Z" fill="#006CB6"/>
</g>
<path d="M317.329 10.1447C318.855 8.61844 321.329 8.61844 322.855 10.1447C324.382 11.671 324.382 14.1451 322.855 15.6714C321.329 17.1976 318.855 17.1976 317.329 15.6714C315.802 14.1451 315.802 11.671 317.329 10.1447ZM287.145 45.8553C288.671 47.3816 291.145 47.3816 292.671 45.8553L315.118 23.4097C316.644 21.8835 316.644 19.4093 315.118 17.8831C313.592 16.3568 311.118 16.3568 309.592 17.8831L287.145 40.3286C285.618 41.8549 285.618 44.329 287.145 45.8553Z" fill="url(#paint0_linear_294_8534)"/>
<path d="M6.67137 45.8553C5.1451 47.3816 2.67097 47.3816 1.1447 45.8553C-0.381567 44.329 -0.381567 41.8549 1.1447 40.3286C2.67097 38.8024 5.1451 38.8024 6.67137 40.3286C8.19764 41.8549 8.19764 44.329 6.67137 45.8553ZM36.8553 10.1447C35.329 8.61843 32.8549 8.61843 31.3286 10.1447L8.88178 32.5903C7.35552 34.1165 7.35552 36.5907 8.88178 38.1169C10.4081 39.6432 12.8822 39.6432 14.4085 38.1169L36.8553 15.6714C38.3816 14.1451 38.3816 11.671 36.8553 10.1447Z" fill="url(#paint1_linear_294_8534)"/>
<defs>
<linearGradient id="paint0_linear_294_8534" x1="322.855" y1="10.1447" x2="287.145" y2="45.8566" gradientUnits="userSpaceOnUse">
<stop stop-color="#FFE066"/>
<stop offset="1" stop-color="#FF99C3"/>
</linearGradient>
<linearGradient id="paint1_linear_294_8534" x1="1.1447" y1="45.8553" x2="36.8553" y2="10.1434" gradientUnits="userSpaceOnUse">
<stop stop-color="#FFE066"/>
<stop offset="1" stop-color="#FF99C3"/>
</linearGradient>
<clipPath id="clip0_294_8534">
<rect width="233" height="56" fill="white" transform="translate(48)"/>
</clipPath>
</defs>
</svg>
